G04 ================== begin FILE IDENTIFICATION RECORD ==================*
G04 Layout Name:  Microroc_Hardroc2b_Test_Board.brd*
G04 Film Name:    art06*
G04 File Format:  Gerber RS274X*
G04 File Origin:  Cadence Allegro 16.6-S025*
G04 Origin Date:  Wed Apr 20 17:19:35 2016*
G04 *
G04 Layer:  VIA CLASS/BOTTOM*
G04 Layer:  PIN/BOTTOM*
G04 Layer:  ETCH/BOTTOM*
G04 Layer:  BOARD GEOMETRY/OUTLINE*
G04 *
G04 Offset:    (0.000 0.000)*
G04 Mirror:    Yes*
G04 Mode:      Positive*
G04 Rotation:  0*
G04 FullContactRelief:  No*
G04 UndefLineWidth:     6.000*
G04 ================== end FILE IDENTIFICATION RECORD ====================*
%FSLAX25Y25*MOIN*%
%IR0*IPPOS*OFA0.00000B0.00000*MIA1B0*SFA1.00000B1.00000*%
%ADD19C,.1*%
%ADD27C,.11*%
%ADD26R,.11X.11*%
%ADD10C,.126*%
%ADD14R,.032X.03*%
%ADD21R,.03X.032*%
%ADD12R,.035X.032*%
%ADD18R,.032X.035*%
%ADD15C,.02*%
%ADD22R,.09X.08*%
%ADD11C,.03*%
%ADD23C,.04*%
%ADD17R,.08X.09*%
%ADD16C,.06*%
%ADD13C,.018*%
%ADD25R,.095X.055*%
%ADD20C,.055*%
%ADD24R,.055X.055*%
%ADD28C,.006*%
%ADD29C,.012*%
%ADD30C,.013*%
%ADD31C,.024*%
G75*
%LPD*%
G75*
G54D10*
X-10200Y5900D03*
X-10000Y461000D03*
X460100Y5900D03*
X459100Y461000D03*
X1098000Y5900D03*
Y461000D03*
G54D20*
X171620Y154154D03*
X180740D03*
X189900Y154254D03*
X406380Y155800D03*
X415480Y155840D03*
X424580Y155880D03*
X445074Y75503D03*
Y105503D03*
X465074Y75503D03*
X455074D03*
Y105503D03*
X465074D03*
X475074Y75503D03*
Y105503D03*
X640620Y155846D03*
X650100D03*
X659640D03*
X875400Y155504D03*
X884720Y155604D03*
X894140Y155704D03*
X926100Y131726D03*
Y141726D03*
X940900Y131726D03*
Y141726D03*
X943286Y357680D03*
X942900Y396700D03*
X955700Y131726D03*
Y141726D03*
X970500Y131726D03*
Y141726D03*
X985300Y131726D03*
Y141726D03*
X986306Y357780D03*
X986334Y396720D03*
X1000100Y131726D03*
Y141726D03*
G54D11*
X30434Y38600D03*
X25434D03*
X30434Y33600D03*
X25434D03*
X24466Y428500D03*
X29466D03*
X24466Y433500D03*
X29466D03*
X45434Y38600D03*
X40434D03*
X35434D03*
X45434Y33600D03*
X40434D03*
X35434D03*
X34466Y428500D03*
X39466D03*
X44466D03*
X34466Y433500D03*
X39466D03*
X44466D03*
X60434Y38600D03*
X55434D03*
X50434D03*
X60434Y33600D03*
X55434D03*
X50434D03*
X49466Y428500D03*
X54466D03*
X59466D03*
X49466Y433500D03*
X54466D03*
X59466D03*
X75434Y38600D03*
X70434D03*
X65434D03*
X75434Y33600D03*
X70434D03*
X65434D03*
X64466Y428500D03*
X69466D03*
X74466D03*
X64466Y433500D03*
X69466D03*
X74466D03*
X90434Y38600D03*
X85434D03*
X80434D03*
X90434Y33600D03*
X85434D03*
X80434D03*
X79466Y428500D03*
X84466D03*
X89466D03*
X79466Y433500D03*
X84466D03*
X89466D03*
X105434Y38600D03*
X100434D03*
X95434D03*
X105434Y33600D03*
X100434D03*
X95434D03*
X94466Y428500D03*
X99466D03*
X104466D03*
X94466Y433500D03*
X99466D03*
X104466D03*
X120434Y38600D03*
X115434D03*
X110434D03*
X120434Y33600D03*
X115434D03*
X110434D03*
X109466Y428500D03*
X114466D03*
X119466D03*
X109466Y433500D03*
X114466D03*
X119466D03*
X135434Y38600D03*
X130434D03*
X125434D03*
X135434Y33600D03*
X130434D03*
X125434D03*
X124466Y428500D03*
X129466D03*
X134466D03*
X124466Y433500D03*
X129466D03*
X134466D03*
X150434Y38600D03*
X145434D03*
X140434D03*
X150434Y33600D03*
X145434D03*
X140434D03*
X139466Y428500D03*
X144466D03*
X149466D03*
X139466Y433500D03*
X144466D03*
X149466D03*
X165434Y38600D03*
X160434D03*
X155434D03*
X165434Y33600D03*
X160434D03*
X155434D03*
X154466Y428500D03*
X159466D03*
X164466D03*
X154466Y433500D03*
X159466D03*
X164466D03*
X180434Y38600D03*
X175434D03*
X170434D03*
X180434Y33600D03*
X175434D03*
X170434D03*
X169466Y428500D03*
X174466D03*
X179466D03*
X169466Y433500D03*
X174466D03*
X179466D03*
X190434Y38600D03*
X185434D03*
X190434Y33600D03*
X185434D03*
X184466Y428500D03*
X189466D03*
X184466Y433500D03*
X189466D03*
X270134Y38600D03*
X265134D03*
X260134D03*
X270134Y33600D03*
X265134D03*
X260134D03*
X259166Y428500D03*
X264166D03*
X269166D03*
X259166Y433500D03*
X264166D03*
X269166D03*
X285134Y38600D03*
X280134D03*
X275134D03*
X285134Y33600D03*
X280134D03*
X275134D03*
X274166Y428500D03*
X279166D03*
X284166D03*
X274166Y433500D03*
X279166D03*
X284166D03*
X300134Y38600D03*
X295134D03*
X290134D03*
X300134Y33600D03*
X295134D03*
X290134D03*
X289166Y428500D03*
X294166D03*
X299166D03*
X289166Y433500D03*
X294166D03*
X299166D03*
X315134Y38600D03*
X310134D03*
X305134D03*
X315134Y33600D03*
X310134D03*
X305134D03*
X304166Y428500D03*
X309166D03*
X314166D03*
X304166Y433500D03*
X309166D03*
X314166D03*
X330134Y38600D03*
X325134D03*
X320134D03*
X330134Y33600D03*
X325134D03*
X320134D03*
X319166Y428500D03*
X324166D03*
X329166D03*
X319166Y433500D03*
X324166D03*
X329166D03*
X345134Y38600D03*
X340134D03*
X335134D03*
X345134Y33600D03*
X340134D03*
X335134D03*
X334166Y428500D03*
X339166D03*
X344166D03*
X334166Y433500D03*
X339166D03*
X344166D03*
X360134Y38600D03*
X355134D03*
X350134D03*
X360134Y33600D03*
X355134D03*
X350134D03*
X349166Y428500D03*
X354166D03*
X359166D03*
X349166Y433500D03*
X354166D03*
X359166D03*
X375134Y38600D03*
X370134D03*
X365134D03*
X375134Y33600D03*
X370134D03*
X365134D03*
X364166Y428500D03*
X369166D03*
X374166D03*
X364166Y433500D03*
X369166D03*
X374166D03*
X390134Y38600D03*
X385134D03*
X380134D03*
X390134Y33600D03*
X385134D03*
X380134D03*
X379166Y428500D03*
X384166D03*
X389166D03*
X379166Y433500D03*
X384166D03*
X389166D03*
X405134Y38600D03*
X400134D03*
X395134D03*
X405134Y33600D03*
X400134D03*
X395134D03*
X394166Y428500D03*
X399166D03*
X404166D03*
X394166Y433500D03*
X399166D03*
X404166D03*
X420134Y38600D03*
X415134D03*
X410134D03*
X420134Y33600D03*
X415134D03*
X410134D03*
X409166Y428500D03*
X414166D03*
X419166D03*
X409166Y433500D03*
X414166D03*
X419166D03*
X425134Y38600D03*
Y33600D03*
X424166Y428500D03*
Y433500D03*
X494934Y38600D03*
Y33600D03*
X494066Y428500D03*
Y433500D03*
X509934Y38600D03*
X504934D03*
X499934D03*
X509934Y33600D03*
X504934D03*
X499934D03*
X499066Y428500D03*
X504066D03*
X509066D03*
X499066Y433500D03*
X504066D03*
X509066D03*
X524934Y38600D03*
X519934D03*
X514934D03*
X524934Y33600D03*
X519934D03*
X514934D03*
X514066Y428500D03*
X519066D03*
X524066D03*
X514066Y433500D03*
X519066D03*
X524066D03*
X539934Y38600D03*
X534934D03*
X529934D03*
X539934Y33600D03*
X534934D03*
X529934D03*
X529066Y428500D03*
X534066D03*
X539066D03*
X529066Y433500D03*
X534066D03*
X539066D03*
X554934Y38600D03*
X549934D03*
X544934D03*
X554934Y33600D03*
X549934D03*
X544934D03*
X544066Y428500D03*
X549066D03*
X554066D03*
X544066Y433500D03*
X549066D03*
X554066D03*
X569934Y38600D03*
X564934D03*
X559934D03*
X569934Y33600D03*
X564934D03*
X559934D03*
X559066Y428500D03*
X564066D03*
X569066D03*
X559066Y433500D03*
X564066D03*
X569066D03*
X584934Y38600D03*
X579934D03*
X574934D03*
X584934Y33600D03*
X579934D03*
X574934D03*
X574066Y428500D03*
X579066D03*
X584066D03*
X574066Y433500D03*
X579066D03*
X584066D03*
X594934Y38600D03*
X589934D03*
X594934Y33600D03*
X589934D03*
X589066Y428500D03*
X594066D03*
X599066D03*
X589066Y433500D03*
X594066D03*
X599066D03*
X609934Y38600D03*
X604934D03*
X599934D03*
X609934Y33600D03*
X604934D03*
X599934D03*
X604066Y428500D03*
X609066D03*
X614066D03*
X604066Y433500D03*
X609066D03*
X614066D03*
X624934Y38600D03*
X619934D03*
X614934D03*
X624934Y33600D03*
X619934D03*
X614934D03*
X619066Y428500D03*
X624066D03*
X629066D03*
X619066Y433500D03*
X624066D03*
X629066D03*
X639934Y38600D03*
X634934D03*
X629934D03*
X639934Y33600D03*
X634934D03*
X629934D03*
X634066Y428500D03*
X639066D03*
X644066D03*
X634066Y433500D03*
X639066D03*
X644066D03*
X654934Y38600D03*
X649934D03*
X644934D03*
X654934Y33600D03*
X649934D03*
X644934D03*
X649066Y428500D03*
X654066D03*
X659066D03*
X649066Y433500D03*
X654066D03*
X659066D03*
X659934Y38600D03*
Y33600D03*
X729700Y38600D03*
Y33600D03*
X729500Y428500D03*
X734500D03*
X729500Y433500D03*
X734500D03*
X744700Y38600D03*
X739700D03*
X734700D03*
X744700Y33600D03*
X739700D03*
X734700D03*
X739500Y428500D03*
X744500D03*
X749500D03*
X739500Y433500D03*
X744500D03*
X749500D03*
X759700Y38600D03*
X754700D03*
X749700D03*
X759700Y33600D03*
X754700D03*
X749700D03*
X754500Y428500D03*
X759500D03*
X764500D03*
X754500Y433500D03*
X759500D03*
X764500D03*
X774700Y38600D03*
X769700D03*
X764700D03*
X774700Y33600D03*
X769700D03*
X764700D03*
X769500Y428500D03*
X774500D03*
X779500D03*
X769500Y433500D03*
X774500D03*
X779500D03*
X789700Y38600D03*
X784700D03*
X779700D03*
X789700Y33600D03*
X784700D03*
X779700D03*
X784500Y428500D03*
X789500D03*
X784500Y433500D03*
X789500D03*
X804700Y38600D03*
X799700D03*
X794700D03*
X804700Y33600D03*
X799700D03*
X794700D03*
X794500Y428500D03*
X799500D03*
X804500D03*
X794500Y433500D03*
X799500D03*
X804500D03*
X819700Y38600D03*
X814700D03*
X809700D03*
X819700Y33600D03*
X814700D03*
X809700D03*
X809500Y428500D03*
X814500D03*
X819500D03*
X809500Y433500D03*
X814500D03*
X819500D03*
X834700Y38600D03*
X829700D03*
X824700D03*
X834700Y33600D03*
X829700D03*
X824700D03*
X824500Y428500D03*
X829500D03*
X834500D03*
X824500Y433500D03*
X829500D03*
X834500D03*
X849700Y38600D03*
X844700D03*
X839700D03*
X849700Y33600D03*
X844700D03*
X839700D03*
X839500Y428500D03*
X844500D03*
X849500D03*
X839500Y433500D03*
X844500D03*
X849500D03*
X864700Y38600D03*
X859700D03*
X854700D03*
X864700Y33600D03*
X859700D03*
X854700D03*
X854500Y428500D03*
X859500D03*
X864500D03*
X854500Y433500D03*
X859500D03*
X864500D03*
X879700Y38600D03*
X874700D03*
X869700D03*
X879700Y33600D03*
X874700D03*
X869700D03*
X869500Y428500D03*
X874500D03*
X879500D03*
X869500Y433500D03*
X874500D03*
X879500D03*
X894700Y38600D03*
X889700D03*
X884700D03*
X894700Y33600D03*
X889700D03*
X884700D03*
X884500Y428500D03*
X889500D03*
X894500D03*
X884500Y433500D03*
X889500D03*
X894500D03*
X1062500Y192100D03*
Y197100D03*
Y202100D03*
Y207100D03*
Y212100D03*
Y217100D03*
Y222100D03*
Y227100D03*
Y232100D03*
Y237100D03*
Y242100D03*
Y247100D03*
Y252100D03*
Y257100D03*
Y262100D03*
Y267100D03*
Y272100D03*
Y277100D03*
Y282100D03*
Y287100D03*
Y292100D03*
Y297100D03*
Y302100D03*
Y307100D03*
Y312100D03*
Y317100D03*
Y322100D03*
Y327100D03*
Y332100D03*
Y337100D03*
Y342100D03*
Y347100D03*
Y352100D03*
Y357100D03*
Y362100D03*
Y367100D03*
Y372100D03*
Y377100D03*
Y382100D03*
Y387100D03*
X1072500Y192100D03*
Y197100D03*
Y202100D03*
Y207100D03*
Y212100D03*
Y217100D03*
Y222100D03*
Y227100D03*
Y232100D03*
Y237100D03*
Y242100D03*
Y247100D03*
Y252100D03*
Y257100D03*
Y262100D03*
Y267100D03*
Y272100D03*
Y277100D03*
Y282100D03*
Y287100D03*
Y292100D03*
Y297100D03*
Y302100D03*
Y307100D03*
Y312100D03*
Y317100D03*
Y322100D03*
Y327100D03*
Y332100D03*
Y337100D03*
Y342100D03*
Y347100D03*
Y352100D03*
Y357100D03*
Y362100D03*
Y367100D03*
Y372100D03*
Y377100D03*
Y382100D03*
Y387100D03*
G54D30*
G01X128700Y187500D02*
Y191743D01*
G01X134687Y191760D02*
Y187513D01*
X134700Y187500D01*
G01X129600Y294100D02*
Y290300D01*
G01X129569Y304331D02*
Y300131D01*
X129600Y300100D01*
G01X138900Y309400D02*
Y304800D01*
G01X144924Y313807D02*
Y309424D01*
X144900Y309400D01*
G01X175665Y181500D02*
X179800D01*
G01X191900Y187500D02*
X195700D01*
G01X185800Y181500D02*
X189600D01*
G01X185868Y191760D02*
Y187532D01*
X185900Y187500D01*
G01X191100Y308400D02*
Y312100D01*
G01X191165Y298035D02*
Y302335D01*
X191100Y302400D01*
G01X195800Y196800D02*
Y192900D01*
G01X201809Y200791D02*
Y196809D01*
X201800Y196800D01*
G01X363400Y187500D02*
Y191748D01*
G01X369354Y191760D02*
Y187546D01*
X369400Y187500D01*
G01X364200Y294400D02*
Y290600D01*
G01X373700Y309400D02*
Y304512D01*
G01X364236Y304507D02*
Y300436D01*
X364200Y300400D01*
G01X379590Y313807D02*
Y309510D01*
X379700Y309400D01*
G01X410298Y181802D02*
X414498D01*
X414500Y181800D01*
G01X426500Y187700D02*
X430300D01*
G01X420500Y181800D02*
X424400D01*
G01X420500Y187700D02*
Y191760D01*
G01X430600Y196900D02*
Y193100D01*
G01X426400Y308100D02*
Y311900D01*
G01X426365Y298035D02*
Y302065D01*
X426400Y302100D01*
G01X436609Y200791D02*
Y196909D01*
X436600Y196900D01*
G01X598000Y187600D02*
Y191732D01*
G01X598936Y304507D02*
Y300436D01*
X598900Y300400D01*
G01X604054Y191446D02*
Y187654D01*
X604000Y187600D01*
G01X598900Y294400D02*
Y290600D01*
G01X608300Y309600D02*
Y304523D01*
G01X614290Y313807D02*
Y309610D01*
X614300Y309600D01*
G01X654700Y181900D02*
X658500D01*
G01X655200Y187600D02*
Y191760D01*
G01X644998Y181902D02*
X648698D01*
X648700Y181900D01*
G01X661200Y187600D02*
X665000D01*
G01X665300Y197000D02*
Y193200D01*
G01X671291Y200791D02*
Y197009D01*
X671300Y197000D01*
G01X660600Y307700D02*
Y311500D01*
G01X660565Y298035D02*
Y301665D01*
X660600Y301700D01*
G01X832700Y187684D02*
Y191799D01*
G01X833650Y294800D02*
Y291000D01*
G01Y300800D02*
Y304548D01*
X833626Y304572D01*
G01X838744Y191825D02*
Y187728D01*
X838700Y187684D01*
G01X843000Y310000D02*
Y304587D01*
G01X848980Y313872D02*
Y310020D01*
X849000Y310000D01*
G01X883700Y182550D02*
X879714D01*
X879689Y182525D01*
G01X895900Y188316D02*
X899700D01*
G01X889700Y182550D02*
X893500D01*
G01X889900Y191900D02*
Y188316D01*
G01X896400Y307900D02*
Y311700D01*
G01Y301900D02*
Y298103D01*
X896397Y298100D01*
G01X899700Y197100D02*
Y193300D01*
G01X905700Y197100D02*
Y200853D01*
X905697Y200856D01*
G54D12*
X29500Y381100D03*
Y387100D03*
X35400Y80000D03*
Y86000D03*
X45400Y80000D03*
Y86000D03*
X39500Y381100D03*
Y387100D03*
X55400Y80000D03*
Y86000D03*
X59500Y381100D03*
X49500D03*
X59500Y387100D03*
X49500D03*
X65400Y80000D03*
Y86000D03*
X75400Y80000D03*
Y86000D03*
X69500Y381100D03*
Y387100D03*
X85400Y80000D03*
Y86000D03*
X89500Y381100D03*
X79500D03*
X89500Y387100D03*
X79500D03*
X95400Y80000D03*
Y86000D03*
X105400Y80000D03*
Y86000D03*
X99500Y381100D03*
Y387100D03*
X115400Y80000D03*
Y86000D03*
X119500Y381100D03*
X109500D03*
X119500Y387100D03*
X109500D03*
X125400Y80000D03*
Y86000D03*
X135400Y80000D03*
Y86000D03*
X129600Y294100D03*
Y300100D03*
X129500Y381100D03*
Y387100D03*
X145400Y80000D03*
Y86000D03*
X139800Y205600D03*
Y199600D03*
X145400Y205600D03*
Y199600D03*
X147500Y292500D03*
Y298500D03*
X149500Y381100D03*
X139500D03*
X149500Y387100D03*
X139500D03*
X155400Y80000D03*
Y86000D03*
X165400Y80000D03*
Y86000D03*
X162800Y171500D03*
Y177500D03*
X153000Y292500D03*
Y298500D03*
X162800Y325200D03*
Y319200D03*
X155200Y325200D03*
Y319200D03*
X159500Y381100D03*
Y387100D03*
X175400Y80000D03*
Y86000D03*
X167500Y205600D03*
Y199600D03*
X169500Y292500D03*
Y298500D03*
X180800Y325200D03*
Y319200D03*
X169500Y381100D03*
X179500D03*
X169500Y387100D03*
X179500D03*
X185400Y80000D03*
Y86000D03*
X186600Y229800D03*
Y223800D03*
X191100Y302400D03*
Y308400D03*
X207700Y248500D03*
Y254500D03*
X213200Y248500D03*
Y254500D03*
X270100Y79800D03*
Y85800D03*
X264200Y381100D03*
Y387100D03*
X280100Y79800D03*
Y85800D03*
X284200Y381100D03*
X274200D03*
X284200Y387100D03*
X274200D03*
X300100Y79800D03*
Y85800D03*
X290100Y79800D03*
Y85800D03*
X294200Y381100D03*
Y387100D03*
X310100Y79800D03*
Y85800D03*
X314200Y381100D03*
X304200D03*
X314200Y387100D03*
X304200D03*
X330100Y79800D03*
Y85800D03*
X320100Y79800D03*
Y85800D03*
X324200Y381100D03*
Y387100D03*
X340100Y79800D03*
Y85800D03*
X344200Y381100D03*
X334200D03*
X344200Y387100D03*
X334200D03*
X360100Y79800D03*
Y85800D03*
X350100Y79800D03*
Y85800D03*
X354200Y381100D03*
Y387100D03*
X370100Y79800D03*
Y85800D03*
X374500Y201700D03*
Y207700D03*
X364200Y294400D03*
Y300400D03*
X374200Y381100D03*
X364200D03*
X374200Y387100D03*
X364200D03*
X380100Y79800D03*
Y85800D03*
X390100Y79800D03*
Y85800D03*
X380000Y201700D03*
Y207700D03*
X387600Y293200D03*
X382100D03*
X387600Y299200D03*
X382100D03*
X389800Y325200D03*
Y319200D03*
X384200Y381100D03*
Y387100D03*
X400100Y79800D03*
Y85800D03*
X397500Y171500D03*
Y177500D03*
X402000Y201700D03*
Y207700D03*
X404100Y293200D03*
Y299200D03*
X397400Y325200D03*
Y319200D03*
X404100Y381100D03*
X394200D03*
X404100Y387100D03*
X394200D03*
X410100Y79800D03*
Y85800D03*
X420100Y79800D03*
Y85800D03*
X415500Y325200D03*
Y319200D03*
X414200Y381100D03*
Y387100D03*
X426400Y302100D03*
Y308100D03*
X447850Y248500D03*
X442300D03*
X447850Y254500D03*
X442300D03*
X458800Y54300D03*
Y60300D03*
X466300Y54300D03*
Y60300D03*
X504900Y80100D03*
Y86100D03*
X509100Y381200D03*
X499100D03*
X509100Y387200D03*
X499100D03*
X514900Y80100D03*
Y86100D03*
X524900Y80100D03*
Y86100D03*
X519100Y381200D03*
Y387200D03*
X534900Y80100D03*
Y86100D03*
X539100Y381200D03*
X529100D03*
X539100Y387200D03*
X529100D03*
X544900Y80100D03*
Y86100D03*
X554900Y80100D03*
Y86100D03*
X549100Y381200D03*
Y387200D03*
X564900Y80100D03*
Y86100D03*
X569100Y381200D03*
X559100D03*
X569100Y387200D03*
X559100D03*
X574900Y80100D03*
Y86100D03*
X584900Y80100D03*
Y86100D03*
X579000Y381200D03*
Y387200D03*
X595000Y80100D03*
Y86100D03*
X598900Y294400D03*
Y300400D03*
X599100Y381200D03*
X589100D03*
X599100Y387200D03*
X589100D03*
X604900Y80100D03*
Y86100D03*
X614900Y80100D03*
Y86100D03*
X609200Y201800D03*
X614700D03*
X609200Y207800D03*
X614700D03*
X609100Y381200D03*
Y387200D03*
X625000Y80100D03*
Y86100D03*
X621600Y293900D03*
X616100D03*
X621600Y299900D03*
X616100D03*
X624500Y324600D03*
Y318600D03*
X629100Y381200D03*
X619100D03*
X629100Y387200D03*
X619100D03*
X645000Y80100D03*
Y86100D03*
X634900Y80100D03*
Y86100D03*
X632200Y171600D03*
Y177600D03*
X631200Y201800D03*
Y207800D03*
X638100Y293900D03*
Y299900D03*
X632300Y324600D03*
Y318600D03*
X639100Y381200D03*
Y387200D03*
X654900Y80100D03*
Y86100D03*
X650100Y324600D03*
Y318600D03*
X649100Y381200D03*
Y387200D03*
X660600Y301700D03*
Y307700D03*
X676200Y248500D03*
X681700D03*
X676200Y254500D03*
X681700D03*
X734450Y381111D03*
Y387111D03*
X739700Y80100D03*
Y86100D03*
X749700Y80100D03*
Y86100D03*
X744450Y381100D03*
Y387100D03*
X759700Y80100D03*
Y86100D03*
X764450Y381111D03*
X754450D03*
X764450Y387111D03*
X754450D03*
X779700Y80100D03*
Y86100D03*
X769700Y80100D03*
Y86100D03*
X774450Y381100D03*
Y387100D03*
X789700Y80100D03*
Y86100D03*
X794450Y381111D03*
X784450Y381100D03*
X794450Y387111D03*
X784450Y387100D03*
X799700Y80100D03*
Y86100D03*
X809700Y80100D03*
Y86100D03*
X804450Y381111D03*
Y387111D03*
X819700Y80100D03*
Y86100D03*
X824450Y381111D03*
X814450D03*
X824450Y387111D03*
X814450D03*
X839700Y80100D03*
Y86100D03*
X829700Y80100D03*
Y86100D03*
X833650Y294800D03*
Y300800D03*
X834450Y381111D03*
Y387111D03*
X849700Y80100D03*
Y86100D03*
X841350Y172300D03*
Y178300D03*
X843900Y202000D03*
X849500D03*
X843900Y208000D03*
X849500D03*
X850584Y293700D03*
Y299700D03*
X854550Y381111D03*
X844450D03*
X854550Y387111D03*
X844450D03*
X859700Y80100D03*
Y86100D03*
X869700Y80100D03*
Y86100D03*
X856150Y293700D03*
Y299700D03*
X866916Y324500D03*
Y318500D03*
X859216Y324500D03*
Y318500D03*
X864550Y381100D03*
Y387100D03*
X879700Y80100D03*
Y86100D03*
X872484Y172600D03*
Y178600D03*
X871766Y202000D03*
Y208000D03*
X872900Y293700D03*
Y299700D03*
X884450Y381111D03*
X874550Y381100D03*
X884450Y387111D03*
X874550Y387100D03*
X889700Y80100D03*
Y86100D03*
X896400Y301900D03*
Y307900D03*
X884816Y324500D03*
Y318500D03*
X911250Y248600D03*
Y254600D03*
X916750Y248600D03*
Y254600D03*
X968800Y83300D03*
Y77300D03*
X970000Y310300D03*
Y316300D03*
G54D21*
X179700Y262200D03*
Y251200D03*
Y256700D03*
Y273200D03*
Y267700D03*
X193400Y130300D03*
X181100Y200400D03*
X187100D03*
Y205900D03*
X181100D03*
Y211400D03*
X187100D03*
X185700Y262200D03*
Y251200D03*
Y256700D03*
Y273200D03*
Y267700D03*
X199400Y130300D03*
X416100Y200400D03*
Y205900D03*
Y211400D03*
X416000Y218300D03*
X415000Y262200D03*
Y251200D03*
Y256700D03*
Y273200D03*
Y267700D03*
X433700Y130300D03*
X427700D03*
X422100Y200400D03*
Y205900D03*
Y211400D03*
X422000Y218300D03*
X421000Y262200D03*
Y251200D03*
Y256700D03*
Y273200D03*
Y267700D03*
X447200Y223800D03*
X441200D03*
X650800Y200400D03*
X656800D03*
Y205900D03*
X650800D03*
Y211400D03*
X656800D03*
X657200Y218300D03*
X651200D03*
X650600Y262200D03*
X656600D03*
X650600Y251200D03*
X656600D03*
X650600Y256700D03*
X656600D03*
X650600Y273200D03*
X656600D03*
X650600Y267700D03*
X656600D03*
X669400Y130400D03*
X663400D03*
X681000Y223800D03*
X675000D03*
X898400Y130700D03*
X885200Y200500D03*
X891200D03*
Y206000D03*
X885200D03*
Y211500D03*
X891200D03*
X891800Y218300D03*
X885800D03*
X885400Y262300D03*
X891400D03*
X885400Y251300D03*
X891400D03*
X885400Y256800D03*
X891400D03*
X885400Y273300D03*
X891400D03*
X885400Y267800D03*
X891400D03*
X904400Y130700D03*
X909800Y223900D03*
X915800D03*
X937000Y379800D03*
X943000D03*
X986200D03*
X992200D03*
G54D31*
G01X458800Y54300D02*
X454000D01*
G01X458846Y66800D02*
Y60346D01*
X458800Y60300D01*
G01X466300Y54300D02*
X471100D01*
G01X466300Y60300D02*
X471300D01*
G01X968800Y77300D02*
X964000D01*
G01X978500Y83300D02*
X968800D01*
G01X1011800Y78300D02*
X1016900D01*
G01X1005800D02*
Y72300D01*
G54D13*
X29500Y377400D03*
X40678Y63100D03*
X35400Y71100D03*
Y89900D03*
X45400D03*
X39500Y377400D03*
Y394900D03*
X34524Y403000D03*
X60700Y63100D03*
X55400Y71100D03*
Y89900D03*
X49500Y377400D03*
X59500D03*
Y394900D03*
X54534Y402966D03*
X75400Y71100D03*
X65400Y89900D03*
X75400D03*
X69500Y377400D03*
X74527Y402900D03*
X80400Y63100D03*
X85400Y89900D03*
X79500Y377400D03*
X89500D03*
X79500Y394900D03*
X100385Y63100D03*
X95400Y71100D03*
X105400Y89900D03*
X95400D03*
X99500Y377400D03*
Y394900D03*
X94529Y402900D03*
X120400Y63100D03*
X115400Y71000D03*
Y89900D03*
X119500Y377400D03*
X109500D03*
X119500Y394900D03*
X114531Y402900D03*
X135400Y70700D03*
Y89900D03*
X125400D03*
X128600Y209300D03*
X134200D03*
X129500Y377400D03*
X134519Y403000D03*
X140400Y63100D03*
X145400Y89900D03*
X137300Y167800D03*
X142800D03*
X142365Y181800D03*
X137246Y182560D03*
X139806Y192000D03*
X145400Y191900D03*
Y209300D03*
X139800D03*
X136500Y288800D03*
X147500D03*
X142000D03*
X147483Y303883D03*
X149700Y328900D03*
X144200D03*
X139500Y377400D03*
X149500D03*
X139500Y394900D03*
X160400Y63100D03*
X155200Y71000D03*
X165400Y89900D03*
X155400D03*
X162800Y167800D03*
X162837Y181863D03*
X156400Y209300D03*
X161900D03*
X150900D03*
X164000Y288800D03*
X158500D03*
X153000D03*
X160100Y303900D03*
X153000Y302200D03*
X155160Y314460D03*
X165396Y313707D03*
X160278Y313878D03*
X162800Y328900D03*
X155200D03*
X159500Y377400D03*
Y394900D03*
X154517Y402900D03*
X180400Y63100D03*
X175400Y71300D03*
Y89900D03*
X168300Y167800D03*
X173800D03*
X167500Y192200D03*
X177400Y200400D03*
X173100Y209300D03*
X167500D03*
X177400Y211400D03*
Y205900D03*
X175600Y233500D03*
X176000Y262200D03*
Y256700D03*
Y251200D03*
Y273200D03*
Y267700D03*
X175000Y288800D03*
X169500D03*
X180500D03*
X167955Y315000D03*
X178191Y314091D03*
X168300Y328900D03*
X173800D03*
X169500Y377400D03*
X179500D03*
Y394900D03*
X174500Y402900D03*
X185400Y89900D03*
X192150Y203350D03*
X192100Y213651D03*
X192440Y218769D03*
X192132Y208468D03*
X192109Y205909D03*
X192440Y223822D03*
X186600Y233500D03*
X181100D03*
X190869Y242214D03*
Y238731D03*
X191949Y259649D03*
X192010Y257090D03*
X192033Y264767D03*
X192008Y262208D03*
X192440Y277562D03*
X192026Y267326D03*
X192440Y272500D03*
Y282680D03*
Y287798D03*
Y292900D03*
X180800Y328900D03*
X186300D03*
X191800D03*
X203100Y130300D03*
X201540Y216145D03*
Y211000D03*
Y221263D03*
Y233717D03*
Y226381D03*
Y237200D03*
Y251972D03*
X203100Y254531D03*
X201540Y269885D03*
Y280121D03*
Y275003D03*
Y290358D03*
Y285239D03*
Y295476D03*
X212300Y232100D03*
Y228617D03*
X223000Y248500D03*
X226800Y247342D03*
Y243859D03*
X270100Y71200D03*
Y90000D03*
X264200Y377600D03*
X269131Y402575D03*
X275071Y63100D03*
X280100Y90000D03*
X274200Y377500D03*
X284200D03*
X274200Y395500D03*
X295100Y63200D03*
X290100Y71200D03*
Y90100D03*
X300300D03*
X294200Y377500D03*
Y394900D03*
X289234Y402900D03*
X315100Y63200D03*
X310100Y71300D03*
Y89900D03*
X304200Y377500D03*
X314200D03*
Y394900D03*
X309222Y402900D03*
X330100Y71200D03*
X320100Y90000D03*
X330100Y89900D03*
X324200Y377500D03*
X329200Y403000D03*
X335100Y63200D03*
X340100Y89900D03*
X344200Y377500D03*
X334200D03*
Y395000D03*
X355100Y63200D03*
X350100Y71300D03*
Y89900D03*
X360100D03*
X354200Y377500D03*
Y395100D03*
X349200Y402700D03*
X375100Y63200D03*
X370100Y71200D03*
Y89900D03*
X371900Y167900D03*
X371913Y181913D03*
X374472Y191828D03*
X363500Y211400D03*
X369000D03*
X374500D03*
X371100Y289500D03*
X364200Y377500D03*
X374200D03*
Y395300D03*
X369200Y403000D03*
X390100Y71200D03*
X380100Y89900D03*
X390100D03*
X377400Y167800D03*
X377031Y182560D03*
X380000Y192000D03*
X385500Y211400D03*
X380100D03*
X387600Y289500D03*
X376600D03*
X382100D03*
X387600Y302900D03*
X382149Y304607D03*
X389826Y313707D03*
X384300Y328900D03*
X389800D03*
X378800D03*
X384200Y377500D03*
X389203Y402900D03*
X395200Y63200D03*
X400100Y89900D03*
X403000Y167900D03*
X397500Y167800D03*
X397503Y182097D03*
X402000Y192300D03*
X391000Y211400D03*
X402000D03*
X396500D03*
X398600Y289500D03*
X404100D03*
X393100D03*
X394800Y304300D03*
X400062Y313707D03*
X402621Y315300D03*
X394944Y313707D03*
X403000Y328900D03*
X397400D03*
X394200Y377500D03*
X404100Y377600D03*
X394200Y395200D03*
X415100Y63200D03*
X410100Y71200D03*
Y89900D03*
X408500Y167900D03*
X412400Y200400D03*
X407500Y211400D03*
X412400D03*
Y205900D03*
X411500Y223800D03*
X411300Y262200D03*
Y256700D03*
Y251200D03*
Y273200D03*
Y267700D03*
X409600Y289500D03*
X415100D03*
X412857Y313707D03*
X415450Y328850D03*
X408500Y328800D03*
X414200Y377500D03*
Y395100D03*
X409200Y403000D03*
X420100Y90000D03*
X427350Y203350D03*
X427000Y213651D03*
Y218769D03*
X427232Y208468D03*
X427209Y205909D03*
X426878Y223822D03*
X426200Y242197D03*
Y238714D03*
X426749Y259649D03*
X426710Y257090D03*
X426733Y264767D03*
X426692Y262208D03*
X426674Y267326D03*
X427107Y272444D03*
Y277562D03*
Y292917D03*
Y282680D03*
Y287798D03*
X421000Y328900D03*
X426500Y328800D03*
X437500Y130300D03*
X436207Y216210D03*
Y211027D03*
Y221328D03*
X436650Y233567D03*
X449082Y232042D03*
Y228559D03*
X436919Y226381D03*
X436650Y237050D03*
X436207Y251972D03*
X437900Y254531D03*
X436207Y269885D03*
Y275000D03*
Y280100D03*
Y285239D03*
Y290358D03*
Y295476D03*
X450900Y223800D03*
X460800Y247483D03*
Y244000D03*
X457700Y248500D03*
X502200Y67068D03*
X504900Y71000D03*
Y90000D03*
X509100Y377500D03*
X499100D03*
X501800Y398932D03*
X509100Y395200D03*
X504103Y402900D03*
X512200Y67068D03*
X509883Y63100D03*
X522200Y67068D03*
X514900Y89900D03*
X519100Y377500D03*
X521800Y398932D03*
X511800D03*
X524115Y402900D03*
X529866Y63100D03*
X532200Y67068D03*
X524900Y70800D03*
X534900Y89900D03*
X524900D03*
X529100Y377500D03*
X539200D03*
X529100Y395200D03*
X531800Y398932D03*
X549869Y63100D03*
X552200Y67068D03*
X542200D03*
X544900Y70800D03*
Y89900D03*
X548800Y377300D03*
X541800Y398932D03*
X549100Y395000D03*
X551800Y398932D03*
X544105Y403000D03*
X562300Y67068D03*
X564900Y70800D03*
X554900Y89900D03*
X564900D03*
X568700Y377300D03*
X558400D03*
X569100Y395200D03*
X561700Y398932D03*
X564100Y402900D03*
X569971Y63100D03*
X572300Y67068D03*
X582200D03*
X574900Y89900D03*
X578900Y377300D03*
X581700Y398932D03*
X571800D03*
X584012Y402900D03*
X590300Y63400D03*
X592200Y67068D03*
X584900Y71000D03*
X595000Y89900D03*
X584900Y90000D03*
X598100Y211500D03*
X589100Y377500D03*
X599100D03*
X589100Y395400D03*
X591700Y398932D03*
X604900Y70700D03*
X609876Y63100D03*
X612200Y67068D03*
X602200D03*
X604900Y89900D03*
X606634Y167834D03*
X612200Y167900D03*
X611731Y181600D03*
X606613Y182213D03*
X609172Y191828D03*
X609200Y211500D03*
X603700D03*
X605100Y290200D03*
X610600D03*
X613400Y328300D03*
X609100Y377500D03*
Y395200D03*
X601700Y398932D03*
X611700D03*
X604010Y402900D03*
X622200Y67068D03*
X624900Y71000D03*
X625000Y89900D03*
X614900D03*
X624526Y182826D03*
X621967Y182867D03*
X627085Y191660D03*
X619408D03*
X614700Y192200D03*
X625700Y211500D03*
X620200D03*
X614700D03*
X627100Y290200D03*
X616100D03*
X621600D03*
X616849Y304607D03*
X628100Y304500D03*
X621600Y303700D03*
X624526Y313707D03*
X624500Y328300D03*
X618900D03*
X619100Y377300D03*
X629100Y377500D03*
Y395100D03*
X621700Y398932D03*
X624007Y402900D03*
X629878Y63100D03*
X632200Y67068D03*
X642500D03*
X634900Y89900D03*
X637834Y167966D03*
X632200Y167900D03*
X643400D03*
X639880Y182560D03*
X632203Y182003D03*
X642439Y191660D03*
X634762D03*
X642200Y211500D03*
X636700D03*
X631200D03*
X634000Y232042D03*
Y228559D03*
X632600Y290200D03*
X638100D03*
X643600D03*
X629644Y313707D03*
X634762D03*
X637321Y315000D03*
X637834Y328266D03*
X632300Y328300D03*
X643400D03*
X639100Y377500D03*
X641600Y398932D03*
X631800D03*
X643898Y402900D03*
X650181Y63100D03*
X652500Y67068D03*
X645000Y70900D03*
Y89900D03*
X654900D03*
X644998Y181902D03*
X647100Y200400D03*
Y211400D03*
Y205900D03*
X647500Y223800D03*
X646900Y262200D03*
Y256700D03*
Y251200D03*
Y273200D03*
Y267700D03*
X649100Y290200D03*
X647558Y313707D03*
X655600Y328300D03*
X650100D03*
X649100Y377500D03*
Y394900D03*
X651700Y398932D03*
X673000Y130400D03*
X661807Y203350D03*
X670907Y216210D03*
X661807Y213651D03*
Y218769D03*
X670907Y211027D03*
X661807Y208468D03*
Y205909D03*
Y223822D03*
X670907Y221328D03*
X671400Y233500D03*
X670907Y226381D03*
X661100Y242400D03*
Y238718D03*
X671400Y237182D03*
X670907Y251972D03*
X661807Y259649D03*
Y257090D03*
Y264767D03*
Y262208D03*
X672300Y254531D03*
X670907Y269885D03*
X661807Y267326D03*
Y272444D03*
X670907Y275000D03*
X661807Y277562D03*
X670907Y280121D03*
X661800Y282700D03*
X670907Y285239D03*
X661800Y287798D03*
X670907Y290358D03*
X661807Y292917D03*
X670907Y295476D03*
X661200Y328200D03*
X679800Y232083D03*
Y228600D03*
X684800Y223800D03*
X678100Y331600D03*
X694700Y247483D03*
Y244000D03*
X691500Y248500D03*
X695300Y348800D03*
X744709Y64200D03*
X747000Y68163D03*
X737100D03*
X739700Y72200D03*
Y89900D03*
X734450Y377350D03*
X744450Y377450D03*
X737100Y398937D03*
X747100D03*
X744500Y394900D03*
X739479Y402900D03*
X757100Y68163D03*
X759700Y72200D03*
X749700Y89800D03*
X759700Y89900D03*
X754450Y377400D03*
X757100Y398937D03*
X759468Y402900D03*
X764756Y64200D03*
X767100Y68163D03*
X777100D03*
X769700Y89900D03*
X764450Y377450D03*
X774500Y377400D03*
X764500Y394900D03*
X777200Y398937D03*
X767100D03*
X787100Y68163D03*
X784768Y64200D03*
X779700Y72200D03*
Y89900D03*
X789700D03*
X784450Y377400D03*
X787200Y398937D03*
X784500Y394900D03*
X779526Y402974D03*
X804680Y64200D03*
X807000Y68163D03*
X797000D03*
X799700Y72200D03*
Y89900D03*
X804450Y377450D03*
X794450Y377400D03*
X804500Y394900D03*
X797200Y398937D03*
X806984D03*
X799514Y403000D03*
X817000Y68163D03*
X819700Y72200D03*
Y89900D03*
X809700D03*
X814450Y377400D03*
X817200Y398902D03*
X819574Y402900D03*
X827000Y68163D03*
X837000D03*
X824691Y64200D03*
X829700Y89900D03*
X832900Y211700D03*
X838400D03*
X824450Y377450D03*
X834450D03*
X837100Y398937D03*
X827200Y398902D03*
X824500Y394900D03*
X844603Y64200D03*
X846663Y68163D03*
X839700Y72200D03*
Y89900D03*
X849700D03*
X841350Y168600D03*
X846900D03*
X846421Y182621D03*
X841303Y182200D03*
X849500Y191800D03*
X843862Y191725D03*
X849500Y211700D03*
X843900D03*
X839500Y290000D03*
X850584D03*
X845016D03*
X851539Y304500D03*
X853700Y328200D03*
X848100D03*
X844450Y377400D03*
X844500Y394900D03*
X847100Y398937D03*
X839450Y402900D03*
X867100Y68163D03*
X857100D03*
X864715Y64200D03*
X859700Y72200D03*
Y89900D03*
X866916Y168900D03*
X866894Y182625D03*
X860700Y211700D03*
X866200D03*
X855100D03*
X859900Y231983D03*
Y228500D03*
X867284Y290000D03*
X861716D03*
X856150D03*
X864300Y304672D03*
X856150Y303400D03*
X859217Y313772D03*
X864335D03*
X866884Y328200D03*
X859216D03*
X854550Y377450D03*
X864550Y377350D03*
X864500Y394900D03*
X857200Y398937D03*
X867200D03*
X859561Y402900D03*
X877100Y68163D03*
X879700Y72200D03*
Y89900D03*
X869700Y90100D03*
X872484Y168900D03*
X878100D03*
X871900Y192300D03*
X881500Y200500D03*
X877400Y211700D03*
X871766D03*
X881000Y211500D03*
X881200Y206000D03*
X882100Y223850D03*
X881700Y262300D03*
Y256800D03*
Y251300D03*
Y273300D03*
X881600Y267700D03*
X878500Y290000D03*
X869453Y313772D03*
X872012Y314800D03*
X882248Y313772D03*
X872500Y328200D03*
X878084D03*
X874550Y377400D03*
X877000Y398937D03*
X879356Y402900D03*
X884727Y64100D03*
X887100Y68163D03*
X889700Y89800D03*
X896497Y203415D03*
X896651Y213651D03*
X896231Y218769D03*
X896497Y208533D03*
Y205974D03*
Y223887D03*
X895738Y242238D03*
Y238862D03*
X896497Y259714D03*
Y257155D03*
Y264832D03*
Y262273D03*
Y267391D03*
X896513Y280187D03*
X896495Y285305D03*
X884100Y290000D03*
X896497Y292982D03*
X890400Y328000D03*
X884816Y328100D03*
X896000Y328200D03*
X884450Y377400D03*
X884500Y394900D03*
X887000Y398937D03*
X908000Y130700D03*
X905390Y216210D03*
X906008Y211092D03*
X905872Y221328D03*
X905900Y233600D03*
X913400Y231983D03*
Y228500D03*
X905654Y226447D03*
X905900Y237282D03*
X905637Y252037D03*
X906996Y254596D03*
X905597Y269950D03*
X905628Y277628D03*
X905600Y282746D03*
X905597Y287864D03*
Y295541D03*
X919600Y223900D03*
X926200Y248600D03*
X920100Y320400D03*
X930400Y247300D03*
Y243817D03*
X937600Y362400D03*
X933300Y379800D03*
X937500Y392100D03*
X955453Y304426D03*
X955300Y308363D03*
X951300Y364900D03*
X947327Y374684D03*
X947202Y379802D03*
X963898Y306395D03*
X964200Y302458D03*
X975000Y304426D03*
X985800Y308400D03*
X977300Y365000D03*
X981383Y374684D03*
X981502Y379802D03*
X995600Y366100D03*
X995900Y379800D03*
X995500Y388400D03*
G54D22*
X310050Y177200D03*
Y164200D03*
X543300Y153700D03*
Y166700D03*
X779716Y166300D03*
Y179300D03*
X960600Y389100D03*
Y402100D03*
X978500Y70300D03*
Y83300D03*
X1005800Y47000D03*
Y60000D03*
X1026100Y47000D03*
Y60000D03*
G54D23*
G01X105600Y244700D02*
X96600D01*
G01X105600Y258800D02*
X96700D01*
G01X118600Y244700D02*
X129000D01*
G01X118600Y258800D02*
X129000D01*
G01X310050Y164200D02*
Y155300D01*
G01Y177200D02*
Y187700D01*
G01X344200Y206300D02*
Y162300D01*
X410600Y95900D01*
X445471D01*
X455074Y105503D01*
G01X448200Y321050D02*
X437700D01*
G01X570700Y207000D02*
X515800D01*
X465074Y156274D01*
Y105503D01*
G01X461200Y321050D02*
X470200D01*
G01X813600Y206700D02*
Y168400D01*
X750703Y105503D01*
X475074D01*
G01X543300Y153700D02*
Y144800D01*
G01Y166700D02*
Y177100D01*
G01X689100Y317300D02*
X678500D01*
G01X702100D02*
X711000D01*
G01X779716Y166300D02*
Y156784D01*
G01Y179300D02*
Y189784D01*
G01X917500Y311100D02*
X906800D01*
G01X930500D02*
X939600D01*
G01X973200Y325800D02*
X963500D01*
G01X960600Y389100D02*
X970800D01*
G01X960600Y402100D02*
X970700D01*
G01X978500Y70300D02*
Y61300D01*
G01X992000Y83300D02*
X978500D01*
G01D02*
Y93900D01*
G01X986200Y325800D02*
X997500D01*
G01X1005800Y47000D02*
X995900D01*
G01X1005800Y72300D02*
X992000D01*
G01Y83300D02*
Y91600D01*
G01X1005800Y72300D02*
Y60000D01*
G01X1026100Y47000D02*
X1035900D01*
G01X1026100Y72000D02*
Y60000D01*
X454000Y54300D03*
X462586Y46371D03*
X458846Y66800D03*
X471100Y54300D03*
X471300Y60300D03*
X964000Y77300D03*
X982500Y6100D03*
X982700Y21500D03*
X981500Y35700D03*
X991500Y6400D03*
X991900Y21900D03*
X991400Y35900D03*
X1010200Y10700D03*
X1010600Y22800D03*
X1010400Y32000D03*
X1016900Y78300D03*
X1021700Y10400D03*
X1022300Y21700D03*
Y31700D03*
X1041100Y5800D03*
X1040500Y23100D03*
X1040700Y35800D03*
X1050300Y5800D03*
X1050400Y23400D03*
X1050500Y36000D03*
G54D14*
X29500Y409600D03*
Y415600D03*
X35400Y51500D03*
X45400D03*
X35400Y57500D03*
X45400D03*
X39500Y409600D03*
Y415600D03*
X55400Y51500D03*
Y57500D03*
X59500Y409600D03*
X49500D03*
X59500Y415600D03*
X49500D03*
X65400Y51500D03*
X75400D03*
X65400Y57500D03*
X75400D03*
X69500Y409600D03*
Y415600D03*
X85400Y51500D03*
Y57500D03*
X89500Y409600D03*
X79500D03*
X89500Y415600D03*
X79500D03*
X95400Y51500D03*
X105400D03*
X95400Y57500D03*
X105400D03*
X99500Y409600D03*
Y415600D03*
X115400Y51500D03*
Y57500D03*
X119500Y409600D03*
X109500D03*
X119500Y415600D03*
X109500D03*
X125400Y51500D03*
X135400D03*
X125400Y57500D03*
X135400D03*
X128600Y205600D03*
Y199600D03*
X134200D03*
Y205600D03*
X129500Y409600D03*
Y415600D03*
X145400Y51500D03*
Y57500D03*
X137300Y171500D03*
X142800D03*
X137300Y177500D03*
X142800D03*
X150900Y199600D03*
Y205600D03*
X136500Y292500D03*
X142000D03*
X136500Y298500D03*
X142000D03*
X149700Y319200D03*
Y325200D03*
X144200D03*
Y319200D03*
X149500Y409600D03*
X139500D03*
X149500Y415600D03*
X139500D03*
X155400Y51500D03*
X165400D03*
X155400Y57500D03*
X165400D03*
X161900Y199600D03*
Y205600D03*
X156400D03*
Y199600D03*
X164000Y292500D03*
X158500D03*
X164000Y298500D03*
X158500D03*
X159500Y409600D03*
Y415600D03*
X175400Y51500D03*
Y57500D03*
X168300Y171500D03*
X173800D03*
X168300Y177500D03*
X173800D03*
X173100Y205600D03*
Y199600D03*
X175600Y229800D03*
Y223800D03*
X181100D03*
Y229800D03*
X180500Y292500D03*
X175000D03*
X180500Y298500D03*
X175000D03*
X173800Y325200D03*
Y319200D03*
X168300D03*
Y325200D03*
X179500Y409600D03*
X169500D03*
X179500Y415600D03*
X169500D03*
X185400Y51500D03*
Y57500D03*
X186500Y243500D03*
Y237500D03*
X186300Y319200D03*
Y325200D03*
X191800D03*
Y319200D03*
X206500Y232400D03*
Y238400D03*
X218700Y248500D03*
Y254500D03*
X270100Y51300D03*
Y57300D03*
X264200Y409600D03*
Y415600D03*
X280100Y51300D03*
Y57300D03*
X284200Y409600D03*
X274200D03*
X284200Y415600D03*
X274200D03*
X290100Y51300D03*
X300100D03*
X290100Y57300D03*
X300100D03*
X294200Y409600D03*
Y415600D03*
X310100Y51300D03*
Y57300D03*
X314200Y409600D03*
X304200D03*
X314200Y415600D03*
X304200D03*
X320100Y51300D03*
X330100D03*
X320100Y57300D03*
X330100D03*
X324200Y409600D03*
Y415600D03*
X340100Y51300D03*
Y57300D03*
X344200Y409600D03*
X334200D03*
X344200Y415600D03*
X334200D03*
X360100Y51300D03*
X350100D03*
X360100Y57300D03*
X350100D03*
X354200Y409600D03*
Y415600D03*
X370100Y51300D03*
Y57300D03*
X371900Y171500D03*
Y177500D03*
X363500Y201700D03*
X369000D03*
X363500Y207700D03*
X369000D03*
X371100Y293200D03*
Y299200D03*
X374200Y409600D03*
X364200D03*
X374200Y415600D03*
X364200D03*
X380100Y51300D03*
X390100D03*
X380100Y57300D03*
X390100D03*
X377400Y171500D03*
Y177500D03*
X385500Y201700D03*
Y207700D03*
X376600Y293200D03*
Y299200D03*
X384300Y319200D03*
Y325200D03*
X378800D03*
Y319200D03*
X384200Y409600D03*
Y415600D03*
X400100Y51300D03*
Y57300D03*
X403000Y171500D03*
Y177500D03*
X396500Y201700D03*
X391000D03*
X396500Y207700D03*
X391000D03*
X398600Y293200D03*
X393100D03*
X398600Y299200D03*
X393100D03*
X403000Y319200D03*
Y325200D03*
X404100Y409600D03*
X394200D03*
X404100Y415600D03*
X394200D03*
X410100Y51300D03*
X420100D03*
X410100Y57300D03*
X420100D03*
X408500Y171500D03*
Y177500D03*
X407500Y201700D03*
Y207700D03*
X415100Y293200D03*
X409600D03*
X415100Y299200D03*
X409600D03*
X408500Y325200D03*
Y319200D03*
X414200Y409600D03*
Y415600D03*
X421100Y243500D03*
Y237500D03*
X421000Y319200D03*
Y325200D03*
X426500D03*
Y319200D03*
X441100Y232400D03*
Y238400D03*
X453400Y248500D03*
Y254500D03*
X504900Y51600D03*
Y57600D03*
X509100Y409600D03*
X499100D03*
X509100Y415600D03*
X499100D03*
X524900Y51600D03*
X514900D03*
X524900Y57600D03*
X514900D03*
X519100Y409600D03*
Y415600D03*
X534900Y51600D03*
Y57600D03*
X539100Y409600D03*
X529100D03*
X539100Y415600D03*
X529100D03*
X544900Y51600D03*
X554900D03*
X544900Y57600D03*
X554900D03*
X549100Y409600D03*
Y415600D03*
X564900Y51600D03*
Y57600D03*
X559100Y409600D03*
X569100D03*
X559100Y415600D03*
X569100D03*
X574900Y51600D03*
X584900D03*
X574900Y57600D03*
X584900D03*
X579000Y409600D03*
Y415600D03*
X595000Y51600D03*
Y57600D03*
X598100Y201800D03*
Y207800D03*
X599100Y409600D03*
X589100D03*
X599100Y415600D03*
X589100D03*
X604900Y51600D03*
X614900D03*
X604900Y57600D03*
X614900D03*
X606600Y171600D03*
X612200D03*
X606600Y177600D03*
X612200D03*
X603700Y201800D03*
Y207800D03*
X605100Y293900D03*
X610600D03*
X605100Y299900D03*
X610600D03*
X613400Y324600D03*
Y318600D03*
X609100Y409600D03*
Y415600D03*
X624900Y51600D03*
Y57600D03*
X620200Y201800D03*
X625700D03*
X620200Y207800D03*
X625700D03*
X627100Y293900D03*
Y299900D03*
X618900Y318600D03*
Y324600D03*
X629100Y409600D03*
X619100D03*
X629100Y415600D03*
X619100D03*
X645000Y51600D03*
X634900D03*
X645000Y57600D03*
X634900D03*
X637800Y171600D03*
X643400D03*
X637800Y177600D03*
X643400D03*
X636700Y201800D03*
X642200D03*
X636700Y207800D03*
X642200D03*
X643600Y293900D03*
X632600D03*
X643600Y299900D03*
X632600D03*
X643400Y324600D03*
Y318600D03*
X637800D03*
Y324600D03*
X639100Y409600D03*
Y415600D03*
X654900Y51600D03*
Y57600D03*
X656700Y243600D03*
Y237600D03*
X649100Y293900D03*
Y299900D03*
X655600Y318600D03*
Y324600D03*
X649100Y409600D03*
Y415600D03*
X661200Y324600D03*
Y318600D03*
X675300Y232400D03*
Y238400D03*
X687200Y248500D03*
Y254500D03*
X734500Y409600D03*
Y415600D03*
X739700Y51600D03*
X749700D03*
X739700Y57600D03*
X749700D03*
X744500Y409600D03*
Y415600D03*
X759700Y51600D03*
Y57600D03*
X764500Y409600D03*
X754500D03*
X764500Y415600D03*
X754500D03*
X769700Y51600D03*
X779700D03*
X769700Y57600D03*
X779700D03*
X774500Y409600D03*
Y415600D03*
X789700Y51600D03*
Y57600D03*
X784500Y409600D03*
X794500D03*
X784500Y415600D03*
X794500D03*
X799700Y51600D03*
X809700D03*
X799700Y57600D03*
X809700D03*
X804500Y409600D03*
Y415600D03*
X819700Y51600D03*
Y57600D03*
X824500Y409600D03*
X814500D03*
X824500Y415600D03*
X814500D03*
X829700Y51600D03*
Y57600D03*
X832900Y202000D03*
X838400D03*
X832900Y208000D03*
X838400D03*
X839500Y293700D03*
Y299700D03*
X834500Y409600D03*
Y415600D03*
X839700Y51600D03*
X849700D03*
X839700Y57600D03*
X849700D03*
X846900Y172300D03*
Y178300D03*
X845016Y293700D03*
Y299700D03*
X853700Y318500D03*
Y324500D03*
X848116D03*
Y318500D03*
X854500Y409600D03*
X844500D03*
X854500Y415600D03*
X844500D03*
X859700Y51600D03*
Y57600D03*
X866916Y172600D03*
Y178600D03*
X855100Y202000D03*
X866200D03*
X860700D03*
X855100Y208000D03*
X866200D03*
X860700D03*
X867284Y293700D03*
X861716D03*
X867284Y299700D03*
X861716D03*
X864500Y409600D03*
Y415600D03*
X879700Y51600D03*
X869700D03*
X879700Y57600D03*
X869700D03*
X878084Y172600D03*
Y178600D03*
X877400Y202000D03*
Y208000D03*
X884100Y293700D03*
X878500D03*
X884100Y299700D03*
X878500D03*
X878100Y324500D03*
Y318500D03*
X872484D03*
Y324500D03*
X874500Y409600D03*
X884500D03*
X874500Y415600D03*
X884500D03*
X889700Y51600D03*
Y57600D03*
X891900Y243600D03*
Y237600D03*
X890400Y318500D03*
Y324500D03*
X895900D03*
Y318500D03*
X909600Y232400D03*
Y238400D03*
X922284Y248600D03*
Y254600D03*
X951300Y368700D03*
Y374700D03*
X977300Y368700D03*
Y374700D03*
G54D24*
X926100Y151726D03*
X940900D03*
X955700D03*
X970500D03*
X985300D03*
X1000100D03*
G54D15*
X43100Y67098D03*
X32900D03*
X32100Y398902D03*
X42300D03*
X52900Y67098D03*
X52100Y398902D03*
X63100Y67098D03*
X72600D03*
X72100Y398902D03*
X62300D03*
X82800Y67098D03*
X86065Y182460D03*
X88624Y191760D03*
X79593Y246854D03*
X86065Y304507D03*
X79593Y298035D03*
X82400Y398902D03*
X102800Y67098D03*
X92600D03*
X92100Y398902D03*
X102300D03*
X112600Y67098D03*
X112000Y398902D03*
X122800Y67098D03*
X132600D03*
X129569Y182460D03*
X127010D03*
X128700Y191743D03*
X134687Y191760D03*
X129600Y290300D03*
X134687Y305213D03*
X124451Y304649D03*
X129569Y304331D03*
X132128Y313472D03*
X127010Y313510D03*
X132000Y398902D03*
X122300D03*
X142800Y67098D03*
X144924Y182460D03*
X150042Y191760D03*
X142365Y304765D03*
X138900Y304800D03*
X139806Y313705D03*
X137246Y313746D03*
X144924Y313807D03*
X142300Y398902D03*
X162800Y67098D03*
X152600D03*
X151100Y167700D03*
X156600D03*
X155160Y181960D03*
X152601Y181899D03*
X160278Y195200D03*
X157719Y191760D03*
X152100Y398902D03*
X162300D03*
X172600Y67098D03*
X170514Y182460D03*
X175665Y181500D03*
X173073Y191760D03*
X175632Y304507D03*
X170514D03*
X173073Y313773D03*
X172100Y398902D03*
X182800Y67098D03*
X189600Y181500D03*
X192000Y198232D03*
X185868Y191760D03*
X192340Y249413D03*
X183309Y304507D03*
X191165Y298035D03*
X191100Y312100D03*
X185868Y313768D03*
X182200Y398902D03*
X195700Y187500D03*
X195800Y192900D03*
X201809Y200791D03*
X267491Y67168D03*
X266168Y398932D03*
X277336Y67168D03*
X276832Y398932D03*
X297900Y67168D03*
X287494D03*
X287068Y398932D03*
X296332D03*
X307300Y67168D03*
X314154Y246854D03*
X314260Y298035D03*
X306368Y398932D03*
X317500Y67168D03*
X327300D03*
X320732Y182460D03*
X323291Y191760D03*
X320732Y304507D03*
X325932Y398932D03*
X317232D03*
X337800Y67168D03*
X336932Y398932D03*
X357500Y67168D03*
X347300D03*
X359117Y304507D03*
X346668Y398932D03*
X356768D03*
X367300Y67168D03*
X364236Y182460D03*
X361676D03*
X363400Y191748D03*
X369354Y191760D03*
X364200Y290600D03*
X369354Y304507D03*
X373700Y304512D03*
X364236Y304507D03*
X371913Y313807D03*
X374472D03*
X361676D03*
X366795D03*
X366868Y398932D03*
X377500Y67168D03*
X387400D03*
X385850Y167650D03*
X379590Y182400D03*
X389826Y182174D03*
X387267Y182133D03*
X384708Y191760D03*
X377031Y304507D03*
X379590Y313807D03*
X387068Y398932D03*
X376432D03*
X397600Y67168D03*
X391300Y167600D03*
X394944Y196200D03*
X392385Y191760D03*
X396232Y398932D03*
X417500Y67168D03*
X407300D03*
X405180Y182460D03*
X410298Y181802D03*
X407739Y191760D03*
X417976Y304507D03*
X405180D03*
X410298D03*
X407739Y313807D03*
X406933Y398932D03*
X417231D03*
X430300Y187700D03*
X424400Y181800D03*
X426700Y198232D03*
X430600Y193100D03*
X420500Y191760D03*
X427013Y249413D03*
X426365Y298035D03*
X420535Y313807D03*
X426400Y311900D03*
X436609Y200791D03*
X548960Y246854D03*
Y298035D03*
X555432Y182460D03*
X557991Y191760D03*
X555432Y304507D03*
X598936Y182460D03*
X596376D03*
X598000Y191732D03*
X598900Y290600D03*
X593817Y304507D03*
X598936D03*
X596376Y313807D03*
X614290Y182460D03*
X604054Y191446D03*
X611731Y304507D03*
X608300Y304523D03*
X604054Y304507D03*
X609172Y313807D03*
X606613D03*
X601494D03*
X614290D03*
X620400Y167800D03*
X625900D03*
X629644Y195500D03*
X639880Y304507D03*
X642439Y313807D03*
X658500Y181900D03*
X655200Y191760D03*
X652676Y304507D03*
X644998D03*
X655235Y313807D03*
X665000Y187600D03*
X661600Y198232D03*
X665300Y193200D03*
X671291Y200791D03*
X661707Y249413D03*
X660565Y298035D03*
X660600Y311500D03*
X792681Y182525D03*
X790122Y191825D03*
X783650Y246919D03*
X790122Y304572D03*
X783650Y298100D03*
X833626Y182525D03*
X831067D03*
X832700Y191799D03*
X838744Y191825D03*
X833650Y291000D03*
X838744Y304572D03*
X828508D03*
X833626D03*
X836185Y313872D03*
X831067D03*
X848980Y182100D03*
X846421Y304572D03*
X843000Y304587D03*
X841303Y313872D03*
X843862D03*
X848980D03*
X860600Y168300D03*
X854900D03*
X856658Y182525D03*
X859217D03*
X864335Y196400D03*
X861776Y191825D03*
X854098D03*
X874571Y182525D03*
X879689D03*
X877130Y191825D03*
X879689Y304572D03*
X874571D03*
X877130Y313872D03*
X893500Y182550D03*
X895900Y198297D03*
X889900Y191900D03*
X896397Y249478D03*
X889925Y304572D03*
X896397Y298100D03*
X896400Y311700D03*
X887366Y313872D03*
X899700Y188316D03*
Y193300D03*
X905697Y200856D03*
X956358Y377242D03*
X963932Y310332D03*
X971958Y377242D03*
X967100Y373400D03*
X983900Y306395D03*
X973800Y316300D03*
X974732Y310332D03*
G54D25*
X992000Y72300D03*
Y83300D03*
G54D16*
X105200Y213100D03*
X96600Y244700D03*
X96700Y258800D03*
X129000Y244700D03*
Y258800D03*
X310050Y155300D03*
Y187700D03*
X344200Y206300D03*
X437700Y321050D03*
X470200D03*
X543300Y144800D03*
Y177100D03*
X570700Y207000D03*
X678500Y317300D03*
X711000D03*
X779716Y156784D03*
Y189784D03*
X813600Y206700D03*
X906800Y311100D03*
X939600D03*
X963500Y325800D03*
X970700Y402100D03*
X970800Y389100D03*
X978500Y61300D03*
Y93900D03*
X995900Y47000D03*
X1005800Y72300D03*
X992000Y91600D03*
X997500Y325800D03*
X1015926Y70774D03*
X1035900Y47000D03*
X1026100Y72000D03*
G54D17*
X105600Y244700D03*
Y258800D03*
X118600Y244700D03*
Y258800D03*
X448200Y321050D03*
X461200D03*
X689100Y317300D03*
X702100D03*
X917500Y311100D03*
X930500D03*
X973200Y325800D03*
X986200D03*
G54D26*
X1068300Y59250D03*
G54D18*
X134700Y187500D03*
X128700D03*
X144900Y309400D03*
X138900D03*
X179800Y181500D03*
X185800D03*
X185900Y187500D03*
X191900D03*
X195800Y196800D03*
X201800D03*
X369400Y187500D03*
X363400D03*
X373700Y309400D03*
X379700D03*
X414500Y181800D03*
X420500D03*
Y187700D03*
X416000Y223800D03*
X426500Y187700D03*
X430600Y196900D03*
X422000Y223800D03*
X436600Y196900D03*
X598000Y187600D03*
X604000D03*
X614300Y309600D03*
X608300D03*
X655200Y187600D03*
X648700Y181900D03*
X654700D03*
X651200Y223800D03*
X657200D03*
X661200Y187600D03*
X671300Y197000D03*
X665300D03*
X838700Y187684D03*
X832700D03*
X849000Y310000D03*
X843000D03*
X883700Y182550D03*
X889700D03*
X889900Y188316D03*
X895900D03*
X885800Y223850D03*
X891800D03*
X905700Y197100D03*
X899700D03*
X961100Y377200D03*
X967100D03*
X1005800Y78300D03*
X1011800D03*
G54D27*
X1068300Y74850D03*
Y90450D03*
Y106050D03*
G54D28*
G01X29500Y381100D02*
Y377400D01*
G01Y387100D02*
Y392600D01*
X34500Y397600D01*
Y402976D01*
X34524Y403000D01*
G01D02*
X29500Y408024D01*
Y409600D01*
G01X29466Y428500D02*
Y415634D01*
X29500Y415600D01*
G01X35434Y38600D02*
Y51466D01*
X35400Y51500D01*
G01Y57500D02*
Y71100D01*
G01X40678Y63100D02*
X45400Y58378D01*
Y57500D01*
G01Y80000D02*
Y72900D01*
X40678Y68178D01*
Y63100D01*
G01X35400Y71100D02*
Y80000D01*
G01Y86000D02*
Y89900D01*
G01X39500Y381100D02*
Y377400D01*
G01Y409600D02*
Y394900D01*
G01D02*
Y387100D01*
G01X39466Y428500D02*
Y415634D01*
X39500Y415600D01*
G01X45434Y38600D02*
Y51466D01*
X45400Y51500D01*
G01X55434Y38600D02*
Y51466D01*
X55400Y51500D01*
G01Y57500D02*
Y71100D01*
G01D02*
Y80000D01*
G01Y86000D02*
Y89900D01*
G01X45400Y86000D02*
Y89900D01*
G01X49500Y381100D02*
Y377400D01*
G01X59500Y381100D02*
Y377400D01*
G01X54534Y402966D02*
Y397934D01*
X49500Y392900D01*
Y387100D01*
G01X59500Y409600D02*
Y394900D01*
G01D02*
Y387100D01*
G01X49500Y409600D02*
Y408000D01*
X54534Y402966D01*
G01X49466Y428500D02*
Y415634D01*
X49500Y415600D01*
G01X59466Y428500D02*
Y415634D01*
X59500Y415600D01*
G01X65434Y38600D02*
Y51466D01*
X65400Y51500D01*
G01X60700Y63100D02*
X65400Y58400D01*
Y57500D01*
G01Y80000D02*
Y72700D01*
X60700Y68000D01*
Y63100D01*
G01X65400Y86000D02*
Y89900D01*
G01X69500Y381100D02*
Y377400D01*
G01Y387100D02*
Y392500D01*
X74527Y397527D01*
Y402900D01*
G01D02*
X69500Y407927D01*
Y409600D01*
G01X69466Y428500D02*
Y415634D01*
X69500Y415600D01*
G01X75434Y38600D02*
Y51466D01*
X75400Y51500D01*
G01X85434Y38600D02*
Y51466D01*
X85400Y51500D01*
G01X75400Y57500D02*
Y71100D01*
G01X80400Y63100D02*
X85400Y58100D01*
Y57500D01*
G01Y80000D02*
Y72900D01*
X80400Y67900D01*
Y63100D01*
G01X75400Y71100D02*
Y80000D01*
G01Y86000D02*
Y89900D01*
G01X85400Y86000D02*
Y89900D01*
G01X79500Y381100D02*
Y377400D01*
G01X89500Y381100D02*
Y377400D01*
G01X79500Y387100D02*
Y394900D01*
G01D02*
Y409600D01*
G01X89500Y387100D02*
Y392800D01*
X94529Y397829D01*
Y402900D01*
G01D02*
X89500Y407929D01*
Y409600D01*
G01X79466Y428500D02*
Y415634D01*
X79500Y415600D01*
G01X89466Y428500D02*
Y415634D01*
X89500Y415600D01*
G01X95434Y38600D02*
Y51466D01*
X95400Y51500D01*
G01X100385Y63100D02*
X105400Y58085D01*
Y57500D01*
G01Y80000D02*
Y73000D01*
X100385Y67985D01*
Y63100D01*
G01X95400Y57500D02*
Y71100D01*
G01D02*
Y80000D01*
G01Y86000D02*
Y89900D01*
G01X99500Y381100D02*
Y377400D01*
G01Y409600D02*
Y394900D01*
G01D02*
Y387100D01*
G01X99466Y428500D02*
Y415634D01*
X99500Y415600D01*
G01X115434Y38600D02*
Y51466D01*
X115400Y51500D01*
G01X105434Y38600D02*
Y51466D01*
X105400Y51500D01*
G01X115400Y57500D02*
Y71000D01*
G01D02*
Y80000D01*
G01Y86000D02*
Y89900D01*
G01X105400Y86000D02*
Y89900D01*
G01X119500Y381100D02*
Y377400D01*
G01X109500Y381100D02*
Y377400D01*
G01X119500Y409600D02*
Y394900D01*
G01D02*
Y387100D01*
G01X109500D02*
Y393000D01*
X114531Y398031D01*
Y402900D01*
G01D02*
X109500Y407931D01*
Y409600D01*
G01X109466Y428500D02*
Y415634D01*
X109500Y415600D01*
G01X119466Y428500D02*
Y415634D01*
X119500Y415600D01*
G01X125434Y38600D02*
Y51466D01*
X125400Y51500D01*
G01X120400Y63100D02*
X125400Y58100D01*
Y57500D01*
G01Y80000D02*
Y73000D01*
X120400Y68000D01*
Y63100D01*
G01X125400Y86000D02*
Y89900D01*
G01X128600Y199600D02*
X134200D01*
G01X139800D02*
X134200D01*
G01X128600Y205600D02*
Y209300D01*
G01X134200Y205600D02*
Y209300D01*
G01X129500Y381100D02*
Y377400D01*
G01X134519Y403000D02*
Y397619D01*
X129500Y392600D01*
Y387100D01*
G01Y409600D02*
Y408019D01*
X134519Y403000D01*
G01X129466Y428500D02*
Y415634D01*
X129500Y415600D01*
G01X145434Y38600D02*
Y51466D01*
X145400Y51500D01*
G01X135434Y38600D02*
Y51466D01*
X135400Y51500D01*
G01X140400Y63100D02*
X145400Y58100D01*
Y57500D01*
G01Y80000D02*
Y72900D01*
X140400Y67900D01*
Y63100D01*
G01X135400Y57500D02*
Y70700D01*
G01D02*
Y80000D01*
G01Y86000D02*
Y89900D01*
G01X145400Y86000D02*
Y89900D01*
G01X137300Y171500D02*
Y167800D01*
G01X142800Y171500D02*
Y167800D01*
G01X137300Y177500D02*
X142800D01*
G01X137246Y182560D02*
Y177554D01*
X137300Y177500D01*
G01X139806Y192000D02*
Y199594D01*
X139800Y199600D01*
G01X145400D02*
X150900D01*
G01X145400Y191900D02*
Y199600D01*
G01Y205600D02*
Y209300D01*
G01X139800Y205600D02*
Y209300D01*
G01X136500Y292500D02*
Y288800D01*
G01X147500Y292500D02*
Y288800D01*
G01X142000Y292500D02*
Y288800D01*
G01X147500Y298500D02*
X142000D01*
G01X147483Y303883D02*
Y298517D01*
X147500Y298500D01*
G01X136500D02*
X142000D01*
G01X144200Y319200D02*
X149700D01*
G01X144200Y325200D02*
Y328900D01*
G01X139500Y381100D02*
Y377400D01*
G01X149500Y381100D02*
Y377400D01*
G01X154517Y402900D02*
Y397717D01*
X149500Y392700D01*
Y387100D01*
G01X139500Y409600D02*
Y394900D01*
G01D02*
Y387100D01*
G01X154517Y402900D02*
X149500Y407917D01*
Y409600D01*
G01X149466Y428500D02*
Y415634D01*
X149500Y415600D01*
G01X139466Y428500D02*
Y415634D01*
X139500Y415600D01*
G01X155434Y38600D02*
Y51466D01*
X155400Y51500D01*
G01Y57500D02*
Y70800D01*
X155200Y71000D01*
G01X160400Y63100D02*
X165400Y58100D01*
Y57500D01*
G01Y80000D02*
Y72900D01*
X160400Y67900D01*
Y63100D01*
G01X155200Y71000D02*
Y79800D01*
X155400Y80000D01*
G01Y86000D02*
Y89900D01*
G01X162800Y167800D02*
Y171500D01*
G01Y177500D02*
X168300D01*
G01X162837Y181863D02*
Y177537D01*
X162800Y177500D01*
G01X156400Y199600D02*
X150900D01*
G01X161900D02*
X167500D01*
G01X156400Y205600D02*
Y209300D01*
G01X161900Y205600D02*
Y209300D01*
G01X150900Y205600D02*
Y209300D01*
G01X164000Y292500D02*
Y288800D01*
G01X158500Y292500D02*
Y288800D01*
G01X153000Y292500D02*
Y288800D01*
G01X160100Y303900D02*
X164100D01*
X169500Y298500D01*
G01X158500D02*
X153000D01*
G01X164000D02*
X158500D01*
G01X153000Y302200D02*
Y298500D01*
G01X155200Y319200D02*
X149700D01*
G01X155160Y314460D02*
Y319160D01*
X155200Y319200D01*
G01X162800D02*
X168300D01*
G01X160278Y313878D02*
Y316678D01*
X162800Y319200D01*
G01Y328900D02*
Y325200D01*
G01X155200D02*
Y328900D01*
G01X149700D02*
Y325200D01*
G01X159500Y381100D02*
Y377400D01*
G01Y409600D02*
Y394900D01*
G01D02*
Y387100D01*
G01X159466Y428500D02*
Y415634D01*
X159500Y415600D01*
G01X175434Y38600D02*
Y51466D01*
X175400Y51500D01*
G01X165434Y38600D02*
Y51466D01*
X165400Y51500D01*
G01X175400Y57500D02*
Y71300D01*
G01D02*
Y80000D01*
G01X165400Y86000D02*
Y89900D01*
G01X175400Y86000D02*
Y89900D01*
G01X168300Y171500D02*
Y167800D01*
G01X173800D02*
Y171500D01*
G01Y177500D02*
X168300D01*
G01X173100Y199600D02*
X167500D01*
G01Y192200D02*
Y199600D01*
G01X181100Y200400D02*
X177400D01*
G01X173100Y205600D02*
Y209300D01*
G01X167500Y205600D02*
Y209300D01*
G01X181100Y211400D02*
X177400D01*
G01X181100Y205900D02*
X177400D01*
G01X175600Y223800D02*
X181100D01*
G01X175600Y229800D02*
Y233500D01*
G01X179700Y262200D02*
X176000D01*
G01X179700Y256700D02*
X176000D01*
G01X179700Y251200D02*
X176000D01*
G01X179700Y273200D02*
X176000D01*
G01X179700Y267700D02*
X176000D01*
G01X175000Y292500D02*
Y288800D01*
G01X169500Y292500D02*
Y288800D01*
G01X175000Y298500D02*
X169500D01*
G01X180500D02*
X175000D01*
G01X178191Y314091D02*
Y316591D01*
X180800Y319200D01*
G01X173800D02*
X168300D01*
G01Y325200D02*
Y328900D01*
G01X173800D02*
Y325200D01*
G01X169500Y381100D02*
Y377400D01*
G01Y387100D02*
Y393100D01*
X174500Y398100D01*
Y402900D01*
G01D02*
X169500Y407900D01*
Y409600D01*
G01X169466Y428500D02*
Y415634D01*
X169500Y415600D01*
G01X179500D02*
Y428466D01*
X179466Y428500D01*
G01X185434Y38600D02*
Y51466D01*
X185400Y51500D01*
G01X180400Y63100D02*
X185400Y58100D01*
Y57500D01*
G01Y80000D02*
Y73000D01*
X180400Y68000D01*
Y63100D01*
G01X185400Y86000D02*
Y89900D01*
G01X193400Y130300D02*
X184695D01*
G01X192150Y203350D02*
X190050D01*
X187100Y200400D01*
G01X192132Y208468D02*
X190032D01*
X187100Y211400D01*
G01X192109Y205909D02*
X187109D01*
X187100Y205900D01*
G01X181100Y223800D02*
X186600D01*
G01X192440Y223822D02*
X186622D01*
X186600Y223800D01*
G01Y229800D02*
Y233500D01*
G01X181100Y229800D02*
Y233500D01*
G01X190869Y242214D02*
Y242475D01*
X189844Y243500D01*
X186500D01*
G01X190869Y242214D02*
X191883Y241200D01*
X197400D01*
X200300Y244100D01*
X220380D01*
X223180Y241300D01*
X418900D01*
X421100Y243500D01*
G01X190869Y238731D02*
X189639Y237500D01*
X186500D01*
G01X190869Y238731D02*
X191939Y239800D01*
X197980D01*
X200880Y242700D01*
X219800D01*
X222600Y239900D01*
X418700D01*
X421100Y237500D01*
G01X191949Y259649D02*
X188649D01*
X185700Y256700D01*
G01X192010Y257090D02*
Y254810D01*
X188400Y251200D01*
X185700D01*
G01X192008Y262208D02*
X185708D01*
X185700Y262200D01*
G01X1072500Y377100D02*
X1070000Y374600D01*
X1046500D01*
X1006900Y335000D01*
X281400D01*
X223962Y277562D01*
X192440D01*
G01X192033Y264767D02*
X188633D01*
X185700Y267700D01*
G01X192026Y267326D02*
Y269774D01*
X188600Y273200D01*
X185700D01*
G01X1072500Y387100D02*
X1070000Y384600D01*
X1035700D01*
X997200Y346100D01*
X245641D01*
X192440Y292900D01*
G01X180500Y292500D02*
Y288800D01*
G01X180800Y319200D02*
X186300D01*
G01X191800D02*
X186300D01*
G01X180800Y325200D02*
Y328900D01*
G01X186300D02*
Y325200D01*
G01X191800D02*
Y328900D01*
G01X179500Y381100D02*
Y377400D01*
G01Y409600D02*
Y394900D01*
G01D02*
Y387100D01*
G01X199400Y130300D02*
X203100D01*
G01X201540Y233717D02*
X202000D01*
X202941Y234658D01*
X204242D01*
X206500Y232400D01*
G01X201540Y237200D02*
X201800D01*
X202942Y236058D01*
X204158D01*
X206500Y238400D01*
G01X213200Y248500D02*
X207700D01*
G01X203100Y254531D02*
X207669D01*
X207700Y254500D01*
G01X213200D02*
X207700D01*
G01X1062500Y382100D02*
X1041500D01*
X1001400Y342000D01*
X274500D01*
X212621Y280121D01*
X201540D01*
G01X218700Y248500D02*
X213200D01*
G01X218700D02*
X223000D01*
G01X218700Y254500D02*
X213200D01*
G01X264200Y381100D02*
Y377600D01*
G01Y387100D02*
Y392900D01*
X269131Y397831D01*
Y402575D01*
G01D02*
X264200Y407506D01*
Y409600D01*
G01X264166Y428500D02*
Y415634D01*
X264200Y415600D01*
G01X270134Y38600D02*
Y51266D01*
X270100Y51300D01*
G01X280134Y38600D02*
Y51266D01*
X280100Y51300D01*
G01Y57300D02*
Y58071D01*
X275071Y63100D01*
G01D02*
Y68271D01*
X280100Y73300D01*
Y79800D01*
G01X270100Y57300D02*
Y71200D01*
G01D02*
Y79800D01*
G01Y90000D02*
Y85800D01*
G01X280100Y90000D02*
Y85800D01*
G01X274200Y381100D02*
Y377500D01*
G01X284200Y381100D02*
Y377500D01*
G01Y387100D02*
Y392700D01*
X289200Y397700D01*
Y402866D01*
X289234Y402900D01*
G01X274200Y395500D02*
Y387100D01*
G01Y409600D02*
Y395500D01*
G01X289234Y402900D02*
X284200Y407934D01*
Y409600D01*
G01X284166Y428500D02*
Y415634D01*
X284200Y415600D01*
G01X274166Y428500D02*
Y415634D01*
X274200Y415600D01*
G01X290134Y38600D02*
Y51266D01*
X290100Y51300D01*
G01X295100Y63200D02*
X300100Y58200D01*
Y57300D01*
G01Y79800D02*
Y73500D01*
X295100Y68500D01*
Y63200D01*
G01X290100Y57300D02*
Y71200D01*
G01D02*
Y79800D01*
G01Y90100D02*
Y85800D01*
G01X294200Y381100D02*
Y377500D01*
G01Y394900D02*
Y387100D01*
G01Y409600D02*
Y394900D01*
G01X294166Y428500D02*
Y415634D01*
X294200Y415600D01*
G01X310134Y38600D02*
Y51266D01*
X310100Y51300D01*
G01X300134Y38600D02*
Y51266D01*
X300100Y51300D01*
G01X310100Y57300D02*
Y71300D01*
G01D02*
Y79800D01*
G01Y89900D02*
Y85800D01*
G01X300300Y90100D02*
Y86000D01*
X300100Y85800D01*
G01X304200Y381100D02*
Y377500D01*
G01X309222Y402900D02*
Y397722D01*
X304200Y392700D01*
Y387100D01*
G01X309222Y402900D02*
X304200Y407922D01*
Y409600D01*
G01X304166Y428500D02*
Y415634D01*
X304200Y415600D01*
G01X314166Y428500D02*
Y415634D01*
X314200Y415600D01*
G01X320134Y38600D02*
Y51266D01*
X320100Y51300D01*
G01X315100Y63200D02*
X320100Y58200D01*
Y57300D01*
G01Y79800D02*
Y73100D01*
X315100Y68100D01*
Y63200D01*
G01X320100Y90000D02*
Y85800D01*
G01X314200Y381100D02*
Y377500D01*
G01X324200Y381100D02*
Y377500D01*
G01X314200Y394900D02*
Y387100D01*
G01Y409600D02*
Y394900D01*
G01X329200Y403000D02*
Y397700D01*
X324200Y392700D01*
Y387100D01*
G01Y409600D02*
Y408000D01*
X329200Y403000D01*
G01X324166Y428500D02*
Y415634D01*
X324200Y415600D01*
G01X330134Y38600D02*
Y51266D01*
X330100Y51300D01*
G01X340134Y38600D02*
Y51266D01*
X340100Y51300D01*
G01X330100Y57300D02*
Y71200D01*
G01X335100Y63200D02*
X340100Y58200D01*
Y57300D01*
G01Y79800D02*
Y73100D01*
X335100Y68100D01*
Y63200D01*
G01X330100Y71200D02*
Y79800D01*
G01X340100Y89900D02*
Y85800D01*
G01X330100Y89900D02*
Y85800D01*
G01X334200Y381100D02*
Y377500D01*
G01X349200Y402700D02*
Y397800D01*
X344200Y392800D01*
Y387100D01*
G01X334200Y409600D02*
Y395000D01*
G01Y387100D02*
Y395000D01*
G01X344200Y409600D02*
Y407700D01*
X349200Y402700D01*
G01X334166Y428500D02*
Y415634D01*
X334200Y415600D01*
G01X344166Y428500D02*
Y415634D01*
X344200Y415600D01*
G01X350134Y38600D02*
Y51266D01*
X350100Y51300D01*
G01Y57300D02*
Y71300D01*
G01X355100Y63200D02*
X360100Y58200D01*
Y57300D01*
G01Y79800D02*
Y72800D01*
X355100Y67800D01*
Y63200D01*
G01X350100Y71300D02*
Y79800D01*
G01Y89900D02*
Y85800D01*
G01X354200Y381100D02*
Y377500D01*
G01X344200Y381100D02*
Y377500D01*
G01X354200Y395100D02*
Y387100D01*
G01Y409600D02*
Y395100D01*
G01X354166Y428500D02*
Y415634D01*
X354200Y415600D01*
G01X360134Y38600D02*
Y51266D01*
X360100Y51300D01*
G01X370134Y38600D02*
Y51266D01*
X370100Y51300D01*
G01Y57300D02*
Y71200D01*
G01D02*
Y79800D01*
G01X360100Y89900D02*
Y85800D01*
G01X370100Y89900D02*
Y85800D01*
G01X371900Y167900D02*
Y171500D01*
G01Y177500D02*
X377400D01*
G01X371913Y181913D02*
Y177513D01*
X371900Y177500D01*
G01X369000Y201700D02*
X374500D01*
G01X363500D02*
X369000D01*
G01X363500Y207700D02*
Y211400D01*
G01X369000Y207700D02*
Y211400D01*
G01X371100Y293200D02*
Y289500D01*
G01Y299200D02*
X376600D01*
G01X364200Y381100D02*
Y377500D01*
G01X369200Y403000D02*
Y397600D01*
X364200Y392600D01*
Y387100D01*
G01Y409600D02*
Y408000D01*
X369200Y403000D01*
G01X364166Y428500D02*
Y415634D01*
X364200Y415600D01*
G01X374166Y428500D02*
Y415634D01*
X374200Y415600D01*
G01X380134Y38600D02*
Y51266D01*
X380100Y51300D01*
G01X375100Y63200D02*
X380100Y58200D01*
Y57300D01*
G01Y79800D02*
Y73000D01*
X375100Y68000D01*
Y63200D01*
G01X380100Y89900D02*
Y85800D01*
G01X377400Y171500D02*
Y167800D01*
G01X385500Y201700D02*
X380000D01*
G01X391000D02*
X385500D01*
G01X380000Y192000D02*
Y201700D01*
G01X374472Y191828D02*
Y201672D01*
X374500Y201700D01*
G01X385500Y207700D02*
Y211400D01*
G01X380000Y207700D02*
Y211300D01*
X380100Y211400D01*
G01X374500Y207700D02*
Y211400D01*
G01X387600Y293200D02*
Y289500D01*
G01X376600Y293200D02*
Y289500D01*
G01X382100Y293200D02*
Y289500D01*
G01X393100Y299200D02*
X387600D01*
G01Y302900D02*
Y299200D01*
G01X376600D02*
X382100D01*
G01X382149Y304607D02*
Y299249D01*
X382100Y299200D01*
G01X384300Y319200D02*
X378800D01*
G01X389800D02*
X384300D01*
G01Y325200D02*
Y328900D01*
G01X378800D02*
Y325200D01*
G01X384200Y381100D02*
Y377500D01*
G01X374200Y381100D02*
Y377500D01*
G01X389203Y402900D02*
Y397603D01*
X384200Y392600D01*
Y387100D01*
G01X374200Y395300D02*
Y387100D01*
G01Y409600D02*
Y395300D01*
G01X389203Y402900D02*
X384200Y407903D01*
Y409600D01*
G01X384166Y428500D02*
Y415634D01*
X384200Y415600D01*
G01X390134Y38600D02*
Y51266D01*
X390100Y51300D01*
G01X400134Y38600D02*
Y51266D01*
X400100Y51300D01*
G01X390100Y57300D02*
Y71200D01*
G01X395200Y63200D02*
X400100Y58300D01*
Y57300D01*
G01Y79800D02*
Y72700D01*
X395200Y67800D01*
Y63200D01*
G01X390100Y71200D02*
Y79800D01*
G01Y89900D02*
Y85800D01*
G01X400100Y89900D02*
Y85800D01*
G01X403000Y171500D02*
Y167900D01*
G01X397500Y167800D02*
Y171500D01*
G01Y177500D02*
X403000D01*
G01X397503Y182097D02*
Y177503D01*
X397500Y177500D01*
G01X408500D02*
X403000D01*
G01X396500Y201700D02*
X402000D01*
G01X407500D02*
X402000D01*
G01Y192300D02*
Y201700D01*
G01X391000Y207700D02*
Y211400D01*
G01X396500Y207700D02*
Y211400D01*
G01X402000Y207700D02*
Y211400D01*
G01X398600Y293200D02*
Y289500D01*
G01X393100Y293200D02*
Y289500D01*
G01X394800Y304300D02*
X399000D01*
X404100Y299200D01*
G01X398600D02*
X393100D01*
G01X389826Y313707D02*
Y319174D01*
X389800Y319200D01*
G01X397400D02*
X403000D01*
G01X408500D02*
X403000D01*
G01X394944Y313707D02*
Y316744D01*
X397400Y319200D01*
G01X403000Y328900D02*
Y325200D01*
G01X397400D02*
Y328900D01*
G01X389800D02*
Y325200D01*
G01X394200Y381100D02*
Y377500D01*
G01X409200Y403000D02*
Y397600D01*
X404100Y392500D01*
Y387100D01*
G01X394200Y395200D02*
Y387100D01*
G01Y409600D02*
Y395200D01*
G01X409200Y403000D02*
X404100Y408100D01*
Y409600D01*
G01X394166Y428500D02*
Y415634D01*
X394200Y415600D01*
G01X404166Y428500D02*
Y415666D01*
X404100Y415600D01*
G01X410134Y38600D02*
Y51266D01*
X410100Y51300D01*
G01X415100Y63200D02*
X420100Y58200D01*
Y57300D01*
G01Y79800D02*
Y73000D01*
X415100Y68000D01*
Y63200D01*
G01X410100Y57300D02*
Y71200D01*
G01D02*
Y79800D01*
G01Y89900D02*
Y85800D01*
G01X408500Y167900D02*
Y171500D01*
G01X416100Y200400D02*
X412400D01*
G01X407500Y207700D02*
Y211400D01*
G01X416000Y218300D02*
Y223800D01*
G01X416100Y211400D02*
X412400D01*
G01X416100Y205900D02*
X412400D01*
G01X416000Y223800D02*
X411500D01*
G01X415000Y262200D02*
X411300D01*
G01X415000Y256700D02*
X411300D01*
G01X415000Y251200D02*
X411300D01*
G01X415000Y273200D02*
X411300D01*
G01X415000Y267700D02*
X411300D01*
G01X409600Y293200D02*
Y289500D01*
G01X404100Y293200D02*
Y289500D01*
G01X415100Y293200D02*
Y289500D01*
G01X409600Y299200D02*
X404100D01*
G01X415100D02*
X409600D01*
G01X421000Y319200D02*
X415500D01*
G01X412857Y313707D02*
Y316558D01*
X415500Y319200D01*
G01X415450Y328850D02*
Y325250D01*
X415500Y325200D01*
G01X408500D02*
Y328800D01*
G01X404100Y381100D02*
Y377600D01*
G01X414200Y381100D02*
Y377500D01*
G01Y409600D02*
Y395100D01*
G01Y387100D02*
Y395100D01*
G01Y415600D02*
Y428466D01*
X414166Y428500D01*
G01X420134Y38600D02*
Y51266D01*
X420100Y51300D01*
G01Y90000D02*
Y85800D01*
G01X427700Y130300D02*
X419295D01*
G01X433700D02*
X437500D01*
G01X427350Y203350D02*
X425050D01*
X422100Y200400D01*
G01X422000Y218300D02*
Y223800D01*
G01X427232Y208468D02*
X425032D01*
X422100Y211400D01*
G01X427209Y205909D02*
X422109D01*
X422100Y205900D01*
G01X426878Y223822D02*
X422022D01*
X422000Y223800D01*
G01X441200D02*
X426900D01*
X426878Y223822D01*
G01X426200Y242197D02*
X427697Y240700D01*
X432020D01*
X435520Y244200D01*
X452700D01*
X455600Y241300D01*
X660000D01*
X661100Y242400D01*
G01X426200Y242197D02*
X422403D01*
X421100Y243500D01*
G01X426200Y238714D02*
X426786Y239300D01*
X432600D01*
X436100Y242800D01*
X452120D01*
X455020Y239900D01*
X659918D01*
X661100Y238718D01*
G01X426200Y238714D02*
X422315D01*
X421100Y237500D01*
G01X426749Y259649D02*
X423949D01*
X421000Y256700D01*
G01X426710Y257090D02*
Y254310D01*
X423600Y251200D01*
X421000D01*
G01X426692Y262208D02*
X421008D01*
X421000Y262200D01*
G01X426733Y264767D02*
X423933D01*
X421000Y267700D01*
G01X426674Y267326D02*
Y269526D01*
X423000Y273200D01*
X421000D01*
G01X426500Y319200D02*
X421000D01*
G01Y325200D02*
Y328900D01*
G01X426500Y328800D02*
Y325200D01*
G01X436650Y233567D02*
X437817Y232400D01*
X441100D01*
G01X447200Y223800D02*
X450900D01*
G01X436650Y237050D02*
X438000Y238400D01*
X441100D01*
G01X442300Y248500D02*
X447850D01*
G01X453400D02*
X447850D01*
G01X437900Y254531D02*
X442269D01*
X442300Y254500D01*
G01X447850D02*
X442300D01*
G01X453400D02*
X447850D01*
G01X634000Y232042D02*
X632958Y231000D01*
X450123D01*
X449082Y232042D01*
G01X634000Y228559D02*
X632959Y229600D01*
X450123D01*
X449082Y228559D01*
G01X453400Y248500D02*
X457700D01*
G01X504900Y51600D02*
Y38634D01*
X504934Y38600D01*
G01X504900Y57600D02*
Y71000D01*
G01Y80100D02*
Y71000D01*
G01Y90000D02*
Y86100D01*
G01X499100Y377500D02*
Y381200D01*
G01Y387200D02*
Y392800D01*
X504103Y397803D01*
Y402900D01*
G01D02*
X499100Y407903D01*
Y409600D01*
G01Y415600D02*
Y428466D01*
X499066Y428500D01*
G01X514900Y51600D02*
Y38634D01*
X514934Y38600D01*
G01X509883Y63100D02*
X514900Y58083D01*
Y57600D01*
G01Y80100D02*
Y73100D01*
X509883Y68083D01*
Y63100D01*
G01X514900Y89900D02*
Y86100D01*
G01X509100Y377500D02*
Y381200D01*
G01X519100Y377500D02*
Y381200D01*
G01Y387200D02*
Y392800D01*
X524115Y397815D01*
Y402900D01*
G01X509100Y409600D02*
Y395200D01*
G01Y387200D02*
Y395200D01*
G01X524115Y402900D02*
X519100Y407915D01*
Y409600D01*
G01X509100Y415600D02*
Y428466D01*
X509066Y428500D01*
G01X519100Y415600D02*
Y428466D01*
X519066Y428500D01*
G01X534900Y51600D02*
Y38634D01*
X534934Y38600D01*
G01X524900Y51600D02*
Y38634D01*
X524934Y38600D01*
G01X524900Y57600D02*
Y70800D01*
G01X529866Y63100D02*
X534900Y58066D01*
Y57600D01*
G01Y80100D02*
Y73000D01*
X529866Y67966D01*
Y63100D01*
G01X524900Y80100D02*
Y70800D01*
G01X534900Y89900D02*
Y86100D01*
G01X524900Y89900D02*
Y86100D01*
G01X529100Y377500D02*
Y381200D01*
G01Y409600D02*
Y395200D01*
G01Y387200D02*
Y395200D01*
G01Y415600D02*
Y428466D01*
X529066Y428500D01*
G01X544900Y51600D02*
Y38634D01*
X544934Y38600D01*
G01X549869Y63100D02*
X554900Y58069D01*
Y57600D01*
G01Y80100D02*
Y73600D01*
X549869Y68569D01*
Y63100D01*
G01X544900Y57600D02*
Y70800D01*
G01Y80100D02*
Y70800D01*
G01Y89900D02*
Y86100D01*
G01X539200Y377500D02*
Y381100D01*
X539100Y381200D01*
G01X548800Y377300D02*
Y380900D01*
X549100Y381200D01*
G01X539100Y387200D02*
Y392500D01*
X544105Y397505D01*
Y403000D01*
G01X549100Y409600D02*
Y395000D01*
G01Y387200D02*
Y395000D01*
G01X544105Y403000D02*
X539100Y408005D01*
Y409600D01*
G01Y415600D02*
Y428466D01*
X539066Y428500D01*
G01X549100Y415600D02*
Y428466D01*
X549066Y428500D01*
G01X564900Y51600D02*
Y38634D01*
X564934Y38600D01*
G01X554900Y51600D02*
Y38634D01*
X554934Y38600D01*
G01X564900Y57600D02*
Y70800D01*
G01Y80100D02*
Y70800D01*
G01X554900Y89900D02*
Y86100D01*
G01X564900Y89900D02*
Y86100D01*
G01X568700Y377300D02*
Y380800D01*
X569100Y381200D01*
G01X558400Y377300D02*
Y380500D01*
X559100Y381200D01*
G01Y387200D02*
Y392600D01*
X564100Y397600D01*
Y402900D01*
G01D02*
X559100Y407900D01*
Y409600D01*
G01Y415600D02*
Y428466D01*
X559066Y428500D01*
G01X574900Y51600D02*
Y38634D01*
X574934Y38600D01*
G01X569971Y63100D02*
X574900Y58171D01*
Y57600D01*
G01Y80100D02*
Y73300D01*
X569971Y68371D01*
Y63100D01*
G01X574900Y86100D02*
Y89900D01*
G01X578900Y377300D02*
Y381100D01*
X579000Y381200D01*
G01Y387200D02*
Y392700D01*
X584012Y397712D01*
Y402900D01*
G01X569100Y409600D02*
Y395200D01*
G01Y387200D02*
Y395200D01*
G01X584012Y402900D02*
X579000Y407912D01*
Y409600D01*
G01X569100Y415600D02*
Y428466D01*
X569066Y428500D01*
G01X579000Y415600D02*
Y428434D01*
X579066Y428500D01*
G01X595000Y51600D02*
Y38666D01*
X594934Y38600D01*
G01X584900Y51600D02*
Y38634D01*
X584934Y38600D01*
G01X595000Y57600D02*
Y58700D01*
X590300Y63400D01*
G01D02*
Y68500D01*
X595000Y73200D01*
Y80100D01*
G01X584900Y57600D02*
Y71000D01*
G01Y80100D02*
Y71000D01*
G01X595000Y86100D02*
Y89900D01*
G01X584900Y90000D02*
Y86100D01*
G01X598100Y201800D02*
X603700D01*
G01X598100Y207800D02*
Y211500D01*
G01X589100Y377500D02*
Y381200D01*
G01Y409600D02*
Y395400D01*
G01Y387200D02*
Y395400D01*
G01Y415600D02*
Y428466D01*
X589066Y428500D01*
G01X604900Y51600D02*
Y38634D01*
X604934Y38600D01*
G01X604900Y57600D02*
Y70700D01*
G01X609876Y63100D02*
X614900Y58076D01*
Y57600D01*
G01Y80100D02*
Y73400D01*
X609876Y68376D01*
Y63100D01*
G01X604900Y80100D02*
Y70700D01*
G01Y89900D02*
Y86100D01*
G01X606634Y167834D02*
Y171566D01*
X606600Y171600D01*
G01X612200D02*
Y167900D01*
G01X606600Y177600D02*
X612200D01*
G01X606613Y182213D02*
Y177613D01*
X606600Y177600D01*
G01X609200Y201800D02*
X603700D01*
G01X609172Y191828D02*
Y201772D01*
X609200Y201800D01*
G01Y207800D02*
Y211500D01*
G01X603700Y207800D02*
Y211500D01*
G01X605100Y293900D02*
Y290200D01*
G01X610600Y293900D02*
Y290200D01*
G01X605100Y299900D02*
X610600D01*
G01X616100D02*
X610600D01*
G01X618900Y318600D02*
X613400D01*
G01Y324600D02*
Y328300D01*
G01X609100Y377500D02*
Y381200D01*
G01X599100Y377500D02*
Y381200D01*
G01X609100Y409600D02*
Y395200D01*
G01Y387200D02*
Y395200D01*
G01X599100Y387200D02*
Y392900D01*
X604010Y397810D01*
Y402900D01*
G01D02*
X599100Y407810D01*
Y409600D01*
G01X609100Y415600D02*
Y428466D01*
X609066Y428500D01*
G01X599100Y415600D02*
Y428466D01*
X599066Y428500D01*
G01X614900Y51600D02*
Y38634D01*
X614934Y38600D01*
G01X624900Y51600D02*
Y38634D01*
X624934Y38600D01*
G01X624900Y57600D02*
Y71000D01*
G01X625000Y80100D02*
X624900Y80000D01*
Y71000D01*
G01X625000Y89900D02*
Y86100D01*
G01X614900D02*
Y89900D01*
G01X614700Y201800D02*
X620200D01*
G01X625700D02*
X620200D01*
G01X614700Y192200D02*
Y201800D01*
G01X625700Y207800D02*
Y211500D01*
G01X620200Y207800D02*
Y211500D01*
G01X614700Y207800D02*
Y211500D01*
G01X627100Y293900D02*
Y290200D01*
G01X616100Y293900D02*
Y290200D01*
G01X621600Y293900D02*
Y290200D01*
G01X616849Y304607D02*
Y300649D01*
X616100Y299900D01*
G01X628100Y304500D02*
X633500D01*
X638100Y299900D01*
G01X627100D02*
X621600D01*
G01X632600D02*
X627100D01*
G01X621600Y303700D02*
Y299900D01*
G01X624500Y318600D02*
X618900D01*
G01X624526Y313707D02*
Y318574D01*
X624500Y318600D01*
G01Y324600D02*
Y328300D01*
G01X618900D02*
Y324600D01*
G01X619100Y377300D02*
Y381200D01*
G01X624007Y402900D02*
Y397607D01*
X619100Y392700D01*
Y387200D01*
G01Y409600D02*
Y407807D01*
X624007Y402900D01*
G01X619100Y415600D02*
Y428466D01*
X619066Y428500D01*
G01X634900Y51600D02*
Y38634D01*
X634934Y38600D01*
G01X629878Y63100D02*
X634900Y58078D01*
Y57600D01*
G01Y80100D02*
Y73400D01*
X629878Y68378D01*
Y63100D01*
G01X634900Y86100D02*
Y89900D01*
G01X637834Y167966D02*
Y171566D01*
X637800Y171600D01*
G01X632200D02*
Y167900D01*
G01X643400Y171600D02*
Y167900D01*
G01X632203Y182003D02*
Y177603D01*
X632200Y177600D01*
G01X637800D02*
X632200D01*
G01X643400D02*
X637800D01*
G01X642200Y201800D02*
X636700D01*
G01X631200D02*
X636700D01*
G01X634762Y191660D02*
Y199862D01*
X636700Y201800D01*
G01X642200Y207800D02*
Y211500D01*
G01X631200Y207800D02*
Y211500D01*
G01X636700Y207800D02*
Y211500D01*
G01X632600Y293900D02*
Y290200D01*
G01X638100Y293900D02*
Y290200D01*
G01X643600Y299900D02*
X638100D01*
G01X637800Y318600D02*
X632300D01*
G01X643400D02*
X637800D01*
G01X629644Y313707D02*
Y315944D01*
X632300Y318600D01*
G01X637834Y328266D02*
Y324634D01*
X637800Y324600D01*
G01X632300D02*
Y328300D01*
G01X643400Y324600D02*
Y328300D01*
G01X629100Y377500D02*
Y381200D01*
G01X639100Y377500D02*
Y381200D01*
G01X629100Y409600D02*
Y395100D01*
G01Y387200D02*
Y395100D01*
G01X643898Y402900D02*
Y397498D01*
X639100Y392700D01*
Y387200D01*
G01Y409600D02*
Y407698D01*
X643898Y402900D01*
G01X629100Y415600D02*
Y428466D01*
X629066Y428500D01*
G01X639100Y415600D02*
Y428466D01*
X639066Y428500D01*
G01X645000Y51600D02*
Y38666D01*
X644934Y38600D01*
G01X654900Y51600D02*
Y38634D01*
X654934Y38600D01*
G01X645000Y57600D02*
Y70900D01*
G01X650181Y63100D02*
X654900Y58381D01*
Y57600D01*
G01Y80100D02*
Y73100D01*
X650181Y68381D01*
Y63100D01*
G01X645000Y80100D02*
Y70900D01*
G01Y89900D02*
Y86100D01*
G01X654900Y89900D02*
Y86100D01*
G01X663400Y130400D02*
X653995D01*
G01X661807Y203350D02*
X659750D01*
X656800Y200400D01*
G01X650800D02*
X647100D01*
G01X657200Y218300D02*
Y223800D01*
G01X661807Y208468D02*
X659732D01*
X656800Y211400D01*
G01X661807Y205909D02*
X656809D01*
X656800Y205900D01*
G01X651200Y218300D02*
Y223800D01*
G01X650800Y211400D02*
X647100D01*
G01X650800Y205900D02*
X647100D01*
G01X657200Y223800D02*
X661785D01*
X661807Y223822D01*
G01X651200Y223800D02*
X647500D01*
G01X661100Y242400D02*
X657900D01*
X656700Y243600D01*
G01X661100Y238718D02*
X657818D01*
X656700Y237600D01*
G01X661807Y259649D02*
X659549D01*
X656600Y256700D01*
G01X661807Y257090D02*
X661910Y256986D01*
Y254310D01*
X658800Y251200D01*
X656600D01*
G01X661807Y262208D02*
X656608D01*
X656600Y262200D01*
G01X650600D02*
X646900D01*
G01X650600Y256700D02*
X646900D01*
G01X650600Y251200D02*
X646900D01*
G01X661807Y264767D02*
X659533D01*
X656600Y267700D01*
G01X661807Y267326D02*
X661826Y267345D01*
Y268874D01*
X657500Y273200D01*
X656600D01*
G01X650600D02*
X646900D01*
G01X650600Y267700D02*
X646900D01*
G01X643600Y293900D02*
Y290200D01*
G01X649100Y293900D02*
Y290200D01*
G01Y299900D02*
X643600D01*
G01X655600Y318600D02*
X650100D01*
G01X661200D02*
X655600D01*
G01X647558Y313707D02*
Y316057D01*
X650100Y318600D01*
G01X655600Y328300D02*
Y324600D01*
G01X650100D02*
Y328300D01*
G01X649100Y377500D02*
Y381200D01*
G01Y387200D02*
Y394900D01*
G01D02*
Y409600D01*
G01Y415600D02*
Y428466D01*
X649066Y428500D01*
G01X669400Y130400D02*
X673000D01*
G01X675000Y223800D02*
X661829D01*
X661807Y223822D01*
G01X671400Y233500D02*
X674200D01*
X675300Y232400D01*
G01X661100Y242400D02*
X662241Y241259D01*
X665259D01*
X668000Y244000D01*
X682000D01*
X684600Y241400D01*
X889700D01*
X891900Y243600D01*
G01X661100Y238718D02*
X662241Y239859D01*
X665839D01*
X668580Y242600D01*
X681420D01*
X684020Y240000D01*
X889500D01*
X891900Y237600D01*
G01X671400Y237182D02*
X674082D01*
X675300Y238400D01*
G01X670907Y251972D02*
X807128D01*
X811422Y247678D01*
X901178D01*
X905537Y252037D01*
X905637D01*
G01X676200Y254500D02*
X672331D01*
X672300Y254531D01*
G01X670907Y285239D02*
X896430D01*
X896495Y285305D01*
G01X661200Y324600D02*
Y328200D01*
G01X679800Y232083D02*
X680783Y231100D01*
X859017D01*
X859900Y231983D01*
G01Y228500D02*
X858700Y229700D01*
X680900D01*
X679800Y228600D01*
G01X681000Y223800D02*
X684800D01*
G01X676200Y248500D02*
X681700D01*
G01X687200D02*
X681700D01*
G01X687200D02*
X691500D01*
G01X681700Y254500D02*
X676200D01*
G01X687200D02*
X681700D01*
G01X739700Y51600D02*
Y38600D01*
G01X749700Y57600D02*
Y59209D01*
X744709Y64200D01*
G01D02*
Y69209D01*
X749700Y74200D01*
Y80100D01*
G01X739700Y57600D02*
Y72200D01*
G01D02*
Y80100D01*
G01Y89900D02*
Y86100D01*
G01X734450Y377350D02*
Y381111D01*
G01X744450Y377450D02*
Y381100D01*
G01X739479Y402900D02*
Y397379D01*
X734450Y392350D01*
Y387111D01*
G01X744500Y409600D02*
Y394900D01*
G01D02*
Y387150D01*
X744450Y387100D01*
G01X734500Y409600D02*
Y407879D01*
X739479Y402900D01*
G01X744500Y415600D02*
Y428500D01*
G01X734500D02*
Y415600D01*
G01X759700Y51600D02*
Y38600D01*
G01X749700Y51600D02*
Y38600D01*
G01X759700Y57600D02*
Y72200D01*
G01D02*
Y80100D01*
G01X749700Y89800D02*
Y86100D01*
G01X759700Y89900D02*
Y86100D01*
G01X754450Y377400D02*
Y381111D01*
G01Y387111D02*
Y392550D01*
X759468Y397568D01*
Y402900D01*
G01D02*
X754500Y407868D01*
Y409600D01*
G01Y415600D02*
Y428500D01*
G01X769700Y51600D02*
Y38600D01*
G01Y57600D02*
Y59256D01*
X764756Y64200D01*
G01D02*
Y69756D01*
X769700Y74700D01*
Y80100D01*
G01Y89900D02*
Y86100D01*
G01X764450Y377450D02*
Y381111D01*
G01X774500Y377400D02*
Y381050D01*
X774450Y381100D01*
G01X764500Y409600D02*
Y394900D01*
G01D02*
Y387161D01*
X764450Y387111D01*
G01X774450Y387100D02*
Y392550D01*
X779526Y397626D01*
Y402974D01*
G01D02*
X774500Y408000D01*
Y409600D01*
G01X764500Y428500D02*
Y415600D01*
G01X774500Y428500D02*
Y415600D01*
G01X779700Y51600D02*
Y38600D01*
G01X789700Y51600D02*
Y38600D01*
G01X779700Y57600D02*
Y72200D01*
G01X789700Y57600D02*
Y59268D01*
X784768Y64200D01*
G01D02*
Y69668D01*
X789700Y74600D01*
Y80100D01*
G01X779700Y72200D02*
Y80100D01*
G01Y89900D02*
Y86100D01*
G01X789700Y89900D02*
Y86100D01*
G01X784450Y377400D02*
Y381100D01*
G01X784500Y409600D02*
Y394900D01*
G01D02*
Y387150D01*
X784450Y387100D01*
G01X784500Y428500D02*
Y415600D01*
G01X799700Y51600D02*
Y38600D01*
G01X809700Y57600D02*
Y59180D01*
X804680Y64200D01*
G01D02*
Y69780D01*
X809700Y74800D01*
Y80100D01*
G01X799700Y57600D02*
Y72200D01*
G01D02*
Y80100D01*
G01Y89900D02*
Y86100D01*
G01X804450Y377450D02*
Y381111D01*
G01X794450Y377400D02*
Y381111D01*
G01X804500Y409600D02*
Y394900D01*
G01D02*
Y387161D01*
X804450Y387111D01*
G01X799514Y403000D02*
Y397714D01*
X794450Y392650D01*
Y387111D01*
G01X794500Y409600D02*
Y408014D01*
X799514Y403000D01*
G01X794500Y428500D02*
Y415600D01*
G01X804500Y428500D02*
Y415600D01*
G01X809700Y51600D02*
Y38600D01*
G01X819700Y51600D02*
Y38600D01*
G01Y57600D02*
Y72200D01*
G01D02*
Y80100D01*
G01Y89900D02*
Y86100D01*
G01X809700Y89900D02*
Y86100D01*
G01X814450Y377400D02*
Y381111D01*
G01Y387111D02*
Y392750D01*
X819574Y397874D01*
Y402900D01*
G01D02*
X814500Y407974D01*
Y409600D01*
G01Y428500D02*
Y415600D01*
G01X829700Y51600D02*
Y38600D01*
G01Y57600D02*
Y59191D01*
X824691Y64200D01*
G01D02*
Y69191D01*
X829700Y74200D01*
Y80100D01*
G01Y89900D02*
Y86100D01*
G01X832900Y202000D02*
X838400D01*
G01X832900Y208000D02*
Y211700D01*
G01X824450Y377450D02*
Y381111D01*
G01X834450Y377450D02*
Y381111D01*
G01X839450Y402900D02*
Y397850D01*
X834450Y392850D01*
Y387111D01*
G01X824500Y409600D02*
Y394900D01*
G01D02*
Y387161D01*
X824450Y387111D01*
G01X834500Y409600D02*
Y407850D01*
X839450Y402900D01*
G01X824500Y428500D02*
Y415600D01*
G01X834500Y428500D02*
Y415600D01*
G01X839700Y51600D02*
Y38600D01*
G01X849700Y51600D02*
Y38600D01*
G01Y57600D02*
Y59103D01*
X844603Y64200D01*
G01D02*
Y69203D01*
X849700Y74300D01*
Y80100D01*
G01X839700Y57600D02*
Y72200D01*
G01D02*
Y80100D01*
G01Y89900D02*
Y86100D01*
G01X849700Y89900D02*
Y86100D01*
G01X841350Y172300D02*
Y168600D01*
G01X846900Y172300D02*
Y168600D01*
G01X841350Y178300D02*
X846900D01*
G01X841303Y182200D02*
X841350Y182153D01*
Y178300D01*
G01X855100Y202000D02*
X849500D01*
G01Y191800D02*
Y202000D01*
G01X843900D02*
X838400D01*
G01X843862Y191725D02*
Y201962D01*
X843900Y202000D01*
G01X849500Y208000D02*
Y211700D01*
G01X843900Y208000D02*
Y211700D01*
G01X838400Y208000D02*
Y211700D01*
G01X839500Y293700D02*
Y290000D01*
G01X850584Y293700D02*
Y290000D01*
G01X845016Y293700D02*
Y290000D01*
G01X851539Y304500D02*
Y300656D01*
X850584Y299700D01*
G01D02*
X845016D01*
G01X839500D02*
X845016D01*
G01X848116Y318500D02*
X853700D01*
G01X848116Y324500D02*
Y328184D01*
X848100Y328200D01*
G01X844450Y377400D02*
Y381111D01*
G01Y387111D02*
X844500Y387161D01*
Y394900D01*
G01D02*
Y409600D01*
G01Y428500D02*
Y415600D01*
G01X859700Y51600D02*
Y38600D01*
G01Y57600D02*
Y72200D01*
G01X869700Y57600D02*
Y59215D01*
X864715Y64200D01*
G01D02*
Y69015D01*
X869700Y74000D01*
Y80100D01*
G01X859700Y72200D02*
Y80100D01*
G01Y89900D02*
Y86100D01*
G01X866916Y172600D02*
Y168900D01*
G01Y178600D02*
X872484D01*
G01X866916D02*
Y182602D01*
X866894Y182625D01*
G01X866200Y202000D02*
X871766D01*
G01X860700D02*
X855100D01*
G01X860700Y208000D02*
Y211700D01*
G01X866200Y208000D02*
Y211700D01*
G01X855100Y208000D02*
Y211700D01*
G01X867284Y290000D02*
Y293700D01*
G01X861716D02*
Y290000D01*
G01X856150Y293700D02*
Y290000D01*
G01X864300Y304672D02*
X869828D01*
X872900Y301600D01*
Y299700D01*
G01X861716D02*
X856150D01*
G01X867284D02*
X861716D01*
G01X856150Y303400D02*
Y299700D01*
G01X859216Y318500D02*
X853700D01*
G01X859217Y313772D02*
Y318500D01*
X859216Y318500D01*
G01X872484D02*
X866916D01*
G01X864335Y313772D02*
Y315918D01*
X866916Y318500D01*
G01X866884Y328200D02*
X866916Y328168D01*
Y324500D01*
G01X859216D02*
Y328200D01*
G01X853700Y324500D02*
Y328200D01*
G01X854550Y377450D02*
Y381111D01*
G01X864550Y377350D02*
Y381100D01*
G01X859561Y402900D02*
Y398061D01*
X854550Y393050D01*
Y387111D01*
G01X864500Y409600D02*
Y394900D01*
G01D02*
Y387150D01*
X864550Y387100D01*
G01X854500Y409600D02*
Y407961D01*
X859561Y402900D01*
G01X854500Y428500D02*
Y415600D01*
G01X864500Y428500D02*
Y415600D01*
G01X879700Y51600D02*
Y38600D01*
G01X869700Y51600D02*
Y38600D01*
G01X879700Y57600D02*
Y72200D01*
G01D02*
Y80100D01*
G01Y89900D02*
Y86100D01*
G01X869700Y90100D02*
Y86100D01*
G01X872484Y172600D02*
Y168900D01*
G01X878100D02*
Y169100D01*
X878084Y169116D01*
Y172600D01*
G01X872484Y178600D02*
X878084D01*
G01X877400Y202000D02*
X871766D01*
G01X871900Y192300D02*
Y201866D01*
X871766Y202000D01*
G01X885200Y200500D02*
X881500D01*
G01X877400Y208000D02*
Y211700D01*
G01X871766Y208000D02*
Y211700D01*
G01X885200Y211500D02*
X881000D01*
G01X885200Y206000D02*
X881200D01*
G01X885800Y223850D02*
X882100D01*
G01X885400Y262300D02*
X881700D01*
G01X885400Y256800D02*
X881700D01*
G01X885400Y251300D02*
X881700D01*
G01X885400Y273300D02*
X881700D01*
G01X881600Y267700D02*
X882400D01*
X882500Y267800D01*
X885400D01*
G01X872900Y293700D02*
X878500D01*
G01D02*
Y290000D01*
G01Y299700D02*
X884100D01*
G01X872900D02*
X878500D01*
G01X882248Y313772D02*
Y315932D01*
X884816Y318500D01*
G01X878100D02*
X872484D01*
G01Y324500D02*
Y328184D01*
X872500Y328200D01*
G01X878100Y324500D02*
Y328184D01*
X878084Y328200D01*
G01X874550Y377400D02*
Y381100D01*
G01X879356Y402900D02*
Y398156D01*
X874550Y393350D01*
Y387100D01*
G01X874500Y409600D02*
Y407756D01*
X879356Y402900D01*
G01X874500Y428500D02*
Y415600D01*
G01X889700Y51600D02*
Y38600D01*
G01X884727Y64100D02*
X889700Y59127D01*
Y57600D01*
G01Y80100D02*
Y74200D01*
X884727Y69227D01*
Y64100D01*
G01X889700Y89800D02*
Y86100D01*
G01X898400Y130700D02*
X889900D01*
G01X896497Y203415D02*
X894115D01*
X891200Y200500D01*
G01X896497Y208533D02*
X894167D01*
X891200Y211500D01*
G01X896497Y205974D02*
X891226D01*
X891200Y206000D01*
G01X1072500Y207100D02*
X1070000Y204600D01*
X942700D01*
X941326Y205974D01*
X896497D01*
G01X885800Y218300D02*
Y223850D01*
G01X891800Y218300D02*
Y223850D01*
G01X896497Y223887D02*
X909787D01*
X909800Y223900D01*
G01X891800Y223850D02*
X896460D01*
X896497Y223887D01*
G01X891900Y243600D02*
X893112Y242388D01*
X895588D01*
X895738Y242238D01*
G01D02*
X896788Y241188D01*
X898988D01*
X901900Y244100D01*
X919700D01*
X923700Y240100D01*
X1026300D01*
X1051500Y265300D01*
X1060700D01*
X1062500Y267100D01*
G01X891900Y237600D02*
X893312Y239012D01*
X895588D01*
X895738Y238862D01*
G01D02*
X896664Y239788D01*
X899568D01*
X902480Y242700D01*
X919120D01*
X923120Y238700D01*
X1026880D01*
X1052080Y263900D01*
X1060700D01*
X1062500Y262100D01*
G01X896497Y259714D02*
X894314D01*
X891400Y256800D01*
G01X896497Y259714D02*
X1009414D01*
X1051800Y302100D01*
X1062500D01*
G01X896497Y257155D02*
Y253697D01*
X894100Y251300D01*
X891400D01*
G01X896497Y262273D02*
X891427D01*
X891400Y262300D01*
G01X896497Y264832D02*
X894368D01*
X891400Y267800D01*
G01X896497Y264832D02*
X1004632D01*
X1051900Y312100D01*
X1062500D01*
G01X896497Y267391D02*
Y270603D01*
X893800Y273300D01*
X891400D01*
G01X884100Y293700D02*
Y290000D01*
G01X890400Y318500D02*
X895900D01*
G01X884816D02*
X890400D01*
G01Y328000D02*
Y324500D01*
G01X884816D02*
Y328100D01*
G01X895900Y324500D02*
Y328100D01*
X896000Y328200D01*
G01X884450Y377400D02*
Y381111D01*
G01X884500Y409600D02*
Y394900D01*
G01D02*
Y387161D01*
X884450Y387111D01*
G01X884500Y428500D02*
Y415600D01*
G01X904400Y130700D02*
X908000D01*
G01X1072500Y217100D02*
X1070000Y214600D01*
X944500D01*
X940992Y211092D01*
X906008D01*
G01X1062500Y247100D02*
X1060700Y248900D01*
X1052100D01*
X1037900Y234700D01*
X911900D01*
X909600Y232400D01*
G01D02*
X908400Y233600D01*
X905900D01*
G01X909600Y238400D02*
X911900Y236100D01*
X1037320D01*
X1051520Y250300D01*
X1060700D01*
X1062500Y252100D01*
G01X905900Y237282D02*
X908482D01*
X909600Y238400D01*
G01X911250Y248600D02*
X916750D01*
G01X911250Y254600D02*
X916750D01*
G01X906996Y254596D02*
X911246D01*
X911250Y254600D01*
G01X905597Y269950D02*
X999750D01*
X1051900Y322100D01*
X1062500D01*
G01X1072500Y337100D02*
X1070000Y334600D01*
X1052200D01*
X1000346Y282746D01*
X905600D01*
G01X1072500Y347100D02*
X1070000Y344600D01*
X1052800D01*
X996064Y287864D01*
X905597D01*
G01Y295541D02*
X992441D01*
X1051500Y354600D01*
X1070000D01*
X1072500Y357100D01*
G01X915800Y223900D02*
X919600D01*
G01X922284Y248600D02*
X916750D01*
G01X922284D02*
X926200D01*
G01X922284Y254600D02*
X916750D01*
G01X937000Y379800D02*
X933300D01*
G01X951300Y368700D02*
Y364900D01*
G01X947327Y374684D02*
X951283D01*
X951300Y374700D01*
G01X947202Y379802D02*
X943002D01*
X943000Y379800D01*
G01X963898Y306395D02*
X976494D01*
X985300Y315200D01*
X997200D01*
X1054100Y372100D01*
X1062500D01*
G01X964200Y302458D02*
X991958D01*
X1051600Y362100D01*
X1062500D01*
G01X977300Y368700D02*
Y365000D01*
G01X981383Y374684D02*
X977316D01*
X977300Y374700D01*
G01X981502Y379802D02*
X986198D01*
X986200Y379800D01*
G01X992200D02*
X995900D01*
G01X-34000Y-18000D02*
X1122000D01*
Y485000D01*
X-34000D01*
Y-18000D01*
G54D19*
X174695Y120300D03*
Y140300D03*
X194695Y120300D03*
X184695Y130300D03*
X194695Y140300D03*
X409295Y120300D03*
X419295Y130300D03*
X409295Y140300D03*
X429295Y120300D03*
Y140300D03*
X643995Y120400D03*
Y140400D03*
X653995Y130400D03*
X663995Y120400D03*
Y140400D03*
X879900Y120700D03*
Y140700D03*
X899900Y120700D03*
X889900Y130700D03*
X899900Y140700D03*
G54D29*
G01X956358Y377242D02*
X961058D01*
X961100Y377200D01*
G01X970000Y316300D02*
X973800D01*
G01X963932Y310332D02*
X969968D01*
X970000Y310300D01*
G01X974732Y310332D02*
X970032D01*
X970000Y310300D01*
G01X967100Y377200D02*
Y373400D01*
M02*
