G04 ================== begin FILE IDENTIFICATION RECORD ==================*
G04 Layout Name:  Microroc_Hardroc2b_Test_Board.brd*
G04 Film Name:    art01*
G04 File Format:  Gerber RS274X*
G04 File Origin:  Cadence Allegro 16.6-S025*
G04 Origin Date:  Wed Apr 20 17:19:35 2016*
G04 *
G04 Layer:  VIA CLASS/TOP*
G04 Layer:  PIN/TOP*
G04 Layer:  ETCH/TOP*
G04 Layer:  BOARD GEOMETRY/OUTLINE*
G04 *
G04 Offset:    (0.000 0.000)*
G04 Mirror:    No*
G04 Mode:      Positive*
G04 Rotation:  0*
G04 FullContactRelief:  No*
G04 UndefLineWidth:     6.000*
G04 ================== end FILE IDENTIFICATION RECORD ====================*
%FSLAX25Y25*MOIN*%
%IR0*IPPOS*OFA0.00000B0.00000*MIA0B0*SFA1.00000B1.00000*%
%ADD27R,.045X.12*%
%ADD20C,.1*%
%ADD29C,.11*%
%ADD28R,.11X.11*%
%ADD10C,.126*%
%ADD26R,.3X.35*%
%ADD12R,.032X.03*%
%ADD22R,.024X.042*%
%ADD17R,.063X.013*%
%ADD13R,.035X.032*%
%ADD18R,.013X.063*%
%ADD16C,.02*%
%ADD11C,.03*%
%ADD23C,.04*%
%ADD19C,.06*%
%ADD14C,.018*%
%ADD21C,.055*%
%ADD24R,.055X.055*%
%ADD15R,.017717X.011811*%
%ADD25R,.059055X.011811*%
%ADD30C,.005*%
%ADD31C,.006*%
%ADD32C,.012*%
%ADD33C,.013*%
%ADD34C,.024*%
%ADD37C,.030004*%
%ADD39C,.050004*%
%ADD35C,.070004*%
%ADD36C,.028004*%
%ADD38C,.065004*%
G75*
%LPD*%
G75*
G36*
G01X186512Y234897D02*
G03Y232102I87J-1397D01*
G02X186700Y231903I-12J-200D01*
G01Y193200D01*
X186288D01*
X186263Y193207D01*
G03X185474I-394J-1447D01*
G01X185449Y193200D01*
X173493D01*
X173467Y193207D01*
G03X172679I-394J-1447D01*
G01X172653Y193200D01*
X168480D01*
G03X166520I-980J-1000D01*
G01X158139D01*
X158113Y193207D01*
G03X157325I-394J-1447D01*
G01X157299Y193200D01*
X150462D01*
X150436Y193207D01*
G03X149648I-394J-1447D01*
G01X149622Y193200D01*
X145921D01*
X145888Y193212D01*
G03X144912I-488J-1313D01*
G01X144879Y193200D01*
X140527D01*
G03X139084I-721J-1200D01*
G01X135107D01*
X135082Y193207D01*
G03X134293I-394J-1447D01*
G01X134268Y193200D01*
X129060D01*
X129038Y193205D01*
G03X128362I-338J-1462D01*
G01X128340Y193200D01*
X89044D01*
X89018Y193207D01*
G03X88230I-394J-1447D01*
G01X88204Y193200D01*
X85200D01*
Y299200D01*
X186700D01*
Y235097D01*
G02X186512Y234897I-200J0D01*
G37*
G36*
G01X319900Y193200D02*
Y299300D01*
X421400D01*
Y193200D01*
X420920D01*
X420894Y193207D01*
G03X420106I-394J-1447D01*
G01X420080Y193200D01*
X408159D01*
X408134Y193207D01*
G03X407345I-394J-1447D01*
G01X407320Y193200D01*
X403073D01*
G03X400927I-1073J-900D01*
G01X392805D01*
X392779Y193207D01*
G03X391991I-394J-1447D01*
G01X391965Y193200D01*
X385128D01*
X385102Y193207D01*
G03X384314I-394J-1447D01*
G01X384288Y193200D01*
X380722D01*
G03X379278I-721J-1200D01*
G01X374753D01*
X374735Y193204D01*
G03X374209I-263J-1375D01*
G01X374190Y193200D01*
X369774D01*
X369748Y193207D01*
G03X368960I-394J-1447D01*
G01X368934Y193200D01*
X363778D01*
X363755Y193206D01*
G03X363045I-355J-1458D01*
G01X363022Y193200D01*
X323710D01*
X323685Y193207D01*
G03X322896I-394J-1447D01*
G01X322871Y193200D01*
X319900D01*
G37*
G36*
G01X488800Y83500D02*
Y63000D01*
X434800D01*
Y83500D01*
X488800D01*
G37*
G36*
G01X554600Y193300D02*
Y299200D01*
X656100D01*
Y193300D01*
X615566D01*
G03X613834I-866J-1100D01*
G01X554600D01*
G37*
G36*
G01X789300D02*
Y299700D01*
X890800D01*
Y193300D01*
X890440D01*
X890407Y193312D01*
G03X889393I-507J-1412D01*
G01X889360Y193300D01*
X877403D01*
X877386Y193303D01*
G03X876874I-256J-1478D01*
G01X876857Y193300D01*
X872880D01*
G03X870920I-980J-1000D01*
G01X862049D01*
X862032Y193303D01*
G03X861519I-256J-1478D01*
G01X861502Y193300D01*
X854372D01*
X854355Y193303D01*
G03X853842I-256J-1478D01*
G01X853825Y193300D01*
X839017D01*
X839000Y193303D01*
G03X838488I-256J-1478D01*
G01X838471Y193300D01*
X790395D01*
X790378Y193303D01*
G03X789866I-256J-1478D01*
G01X789849Y193300D01*
X789300D01*
G37*
G36*
G01X1007100Y136700D02*
Y83300D01*
X920600D01*
Y136700D01*
X1007100D01*
G37*
G36*
G01X1055100Y41000D02*
Y-2800D01*
X977700D01*
Y41000D01*
X1055100D01*
G37*
%LPC*%
G75*
G54D37*
X129600Y290300D03*
X160278Y195200D03*
X364200Y290600D03*
X394944Y196200D03*
X598900Y290600D03*
X629644Y195500D03*
X833650Y291000D03*
X864335Y196400D03*
G54D39*
X458846Y66800D03*
G54D35*
X96600Y244700D03*
X96700Y258800D03*
X105200Y213100D03*
X129000Y244700D03*
Y258800D03*
X344200Y206300D03*
X570700Y207000D03*
X813600Y206700D03*
X978500Y93900D03*
X992000Y91600D03*
G54D36*
X128600Y209300D03*
X134200D03*
X139800D03*
X142000Y288800D03*
X136500D03*
X145400Y209300D03*
X147500Y288800D03*
X150900Y209300D03*
X156400D03*
X153000Y288800D03*
X161900Y209300D03*
X164000Y288800D03*
X158500D03*
X167500Y209300D03*
X173100D03*
X169500Y288800D03*
X177400Y200400D03*
Y205900D03*
Y211400D03*
X175600Y233500D03*
X176000Y251200D03*
Y256700D03*
Y262200D03*
Y267700D03*
Y273200D03*
X175000Y288800D03*
X180500D03*
X181100Y233500D03*
X363500Y211400D03*
X369000D03*
X374500D03*
X371100Y289500D03*
X385500Y211400D03*
X380100D03*
X387600Y289500D03*
X376600D03*
X382100D03*
X391000Y211400D03*
X402000D03*
X396500D03*
X398600Y289500D03*
X404100D03*
X393100D03*
X412400Y200400D03*
X407500Y211400D03*
X412400D03*
Y205900D03*
X411500Y223800D03*
X411300Y262200D03*
Y256700D03*
Y251200D03*
Y273200D03*
Y267700D03*
X409600Y289500D03*
X415100D03*
X598100Y211500D03*
X603700D03*
X605100Y290200D03*
X609200Y211500D03*
X610600Y290200D03*
X620200Y211500D03*
X614700D03*
X621600Y290200D03*
X616100D03*
X625700Y211500D03*
X627100Y290200D03*
X631200Y211500D03*
X636700D03*
X634000Y228559D03*
Y232042D03*
X632600Y290200D03*
X642200Y211500D03*
X643600Y290200D03*
X638100D03*
X647100Y200400D03*
Y205900D03*
Y211400D03*
X647500Y223800D03*
X646900Y251200D03*
Y256700D03*
Y262200D03*
Y267700D03*
Y273200D03*
X649100Y290200D03*
X838400Y211700D03*
X832900D03*
X843900D03*
X839500Y290000D03*
X845016D03*
X849500Y211700D03*
X850584Y290000D03*
X855100Y211700D03*
X860700D03*
X859900Y228500D03*
Y231983D03*
X856150Y290000D03*
X866200Y211700D03*
X867284Y290000D03*
X861716D03*
X871766Y211700D03*
X881500Y200500D03*
X881200Y206000D03*
X877400Y211700D03*
X881000Y211500D03*
X882100Y223850D03*
X881700Y251300D03*
Y256800D03*
X881600Y267700D03*
X881700Y262300D03*
Y273300D03*
X878500Y290000D03*
X884100D03*
G54D38*
X445074Y75503D03*
X465074D03*
X455074D03*
X475074D03*
X926100Y131726D03*
X940900D03*
X955700D03*
X970500D03*
X985300D03*
X1000100D03*
%LPD*%
G75*
G54D10*
X-10200Y5900D03*
X-10000Y461000D03*
X460100Y5900D03*
X459100Y461000D03*
X1098000Y5900D03*
Y461000D03*
G54D11*
X30434Y38600D03*
X25434D03*
X30434Y33600D03*
X25434D03*
X24466Y428500D03*
X29466D03*
X24466Y433500D03*
X29466D03*
X45434Y38600D03*
X40434D03*
X35434D03*
X45434Y33600D03*
X40434D03*
X35434D03*
X34466Y428500D03*
X39466D03*
X44466D03*
X34466Y433500D03*
X39466D03*
X44466D03*
X60434Y38600D03*
X55434D03*
X50434D03*
X60434Y33600D03*
X55434D03*
X50434D03*
X49466Y428500D03*
X54466D03*
X59466D03*
X49466Y433500D03*
X54466D03*
X59466D03*
X75434Y38600D03*
X70434D03*
X65434D03*
X75434Y33600D03*
X70434D03*
X65434D03*
X64466Y428500D03*
X69466D03*
X74466D03*
X64466Y433500D03*
X69466D03*
X74466D03*
X90434Y38600D03*
X85434D03*
X80434D03*
X90434Y33600D03*
X85434D03*
X80434D03*
X79466Y428500D03*
X84466D03*
X89466D03*
X79466Y433500D03*
X84466D03*
X89466D03*
X105434Y38600D03*
X100434D03*
X95434D03*
X105434Y33600D03*
X100434D03*
X95434D03*
X94466Y428500D03*
X99466D03*
X104466D03*
X94466Y433500D03*
X99466D03*
X104466D03*
X120434Y38600D03*
X115434D03*
X110434D03*
X120434Y33600D03*
X115434D03*
X110434D03*
X109466Y428500D03*
X114466D03*
X119466D03*
X109466Y433500D03*
X114466D03*
X119466D03*
X135434Y38600D03*
X130434D03*
X125434D03*
X135434Y33600D03*
X130434D03*
X125434D03*
X124466Y428500D03*
X129466D03*
X134466D03*
X124466Y433500D03*
X129466D03*
X134466D03*
X150434Y38600D03*
X145434D03*
X140434D03*
X150434Y33600D03*
X145434D03*
X140434D03*
X139466Y428500D03*
X144466D03*
X149466D03*
X139466Y433500D03*
X144466D03*
X149466D03*
X165434Y38600D03*
X160434D03*
X155434D03*
X165434Y33600D03*
X160434D03*
X155434D03*
X154466Y428500D03*
X159466D03*
X164466D03*
X154466Y433500D03*
X159466D03*
X164466D03*
X180434Y38600D03*
X175434D03*
X170434D03*
X180434Y33600D03*
X175434D03*
X170434D03*
X169466Y428500D03*
X174466D03*
X179466D03*
X169466Y433500D03*
X174466D03*
X179466D03*
X190434Y38600D03*
X185434D03*
X190434Y33600D03*
X185434D03*
X184466Y428500D03*
X189466D03*
X184466Y433500D03*
X189466D03*
X270134Y38600D03*
X265134D03*
X260134D03*
X270134Y33600D03*
X265134D03*
X260134D03*
X259166Y428500D03*
X264166D03*
X269166D03*
X259166Y433500D03*
X264166D03*
X269166D03*
X285134Y38600D03*
X280134D03*
X275134D03*
X285134Y33600D03*
X280134D03*
X275134D03*
X274166Y428500D03*
X279166D03*
X284166D03*
X274166Y433500D03*
X279166D03*
X284166D03*
X300134Y38600D03*
X295134D03*
X290134D03*
X300134Y33600D03*
X295134D03*
X290134D03*
X289166Y428500D03*
X294166D03*
X299166D03*
X289166Y433500D03*
X294166D03*
X299166D03*
X315134Y38600D03*
X310134D03*
X305134D03*
X315134Y33600D03*
X310134D03*
X305134D03*
X304166Y428500D03*
X309166D03*
X314166D03*
X304166Y433500D03*
X309166D03*
X314166D03*
X330134Y38600D03*
X325134D03*
X320134D03*
X330134Y33600D03*
X325134D03*
X320134D03*
X319166Y428500D03*
X324166D03*
X329166D03*
X319166Y433500D03*
X324166D03*
X329166D03*
X345134Y38600D03*
X340134D03*
X335134D03*
X345134Y33600D03*
X340134D03*
X335134D03*
X334166Y428500D03*
X339166D03*
X344166D03*
X334166Y433500D03*
X339166D03*
X344166D03*
X360134Y38600D03*
X355134D03*
X350134D03*
X360134Y33600D03*
X355134D03*
X350134D03*
X349166Y428500D03*
X354166D03*
X359166D03*
X349166Y433500D03*
X354166D03*
X359166D03*
X375134Y38600D03*
X370134D03*
X365134D03*
X375134Y33600D03*
X370134D03*
X365134D03*
X364166Y428500D03*
X369166D03*
X374166D03*
X364166Y433500D03*
X369166D03*
X374166D03*
X390134Y38600D03*
X385134D03*
X380134D03*
X390134Y33600D03*
X385134D03*
X380134D03*
X379166Y428500D03*
X384166D03*
X389166D03*
X379166Y433500D03*
X384166D03*
X389166D03*
X405134Y38600D03*
X400134D03*
X395134D03*
X405134Y33600D03*
X400134D03*
X395134D03*
X394166Y428500D03*
X399166D03*
X404166D03*
X394166Y433500D03*
X399166D03*
X404166D03*
X420134Y38600D03*
X415134D03*
X410134D03*
X420134Y33600D03*
X415134D03*
X410134D03*
X409166Y428500D03*
X414166D03*
X419166D03*
X409166Y433500D03*
X414166D03*
X419166D03*
X425134Y38600D03*
Y33600D03*
X424166Y428500D03*
Y433500D03*
X494934Y38600D03*
Y33600D03*
X494066Y428500D03*
Y433500D03*
X509934Y38600D03*
X504934D03*
X499934D03*
X509934Y33600D03*
X504934D03*
X499934D03*
X499066Y428500D03*
X504066D03*
X509066D03*
X499066Y433500D03*
X504066D03*
X509066D03*
X524934Y38600D03*
X519934D03*
X514934D03*
X524934Y33600D03*
X519934D03*
X514934D03*
X514066Y428500D03*
X519066D03*
X524066D03*
X514066Y433500D03*
X519066D03*
X524066D03*
X539934Y38600D03*
X534934D03*
X529934D03*
X539934Y33600D03*
X534934D03*
X529934D03*
X529066Y428500D03*
X534066D03*
X539066D03*
X529066Y433500D03*
X534066D03*
X539066D03*
X554934Y38600D03*
X549934D03*
X544934D03*
X554934Y33600D03*
X549934D03*
X544934D03*
X544066Y428500D03*
X549066D03*
X554066D03*
X544066Y433500D03*
X549066D03*
X554066D03*
X569934Y38600D03*
X564934D03*
X559934D03*
X569934Y33600D03*
X564934D03*
X559934D03*
X559066Y428500D03*
X564066D03*
X569066D03*
X559066Y433500D03*
X564066D03*
X569066D03*
X584934Y38600D03*
X579934D03*
X574934D03*
X584934Y33600D03*
X579934D03*
X574934D03*
X574066Y428500D03*
X579066D03*
X584066D03*
X574066Y433500D03*
X579066D03*
X584066D03*
X594934Y38600D03*
X589934D03*
X594934Y33600D03*
X589934D03*
X589066Y428500D03*
X594066D03*
X599066D03*
X589066Y433500D03*
X594066D03*
X599066D03*
X609934Y38600D03*
X604934D03*
X599934D03*
X609934Y33600D03*
X604934D03*
X599934D03*
X604066Y428500D03*
X609066D03*
X614066D03*
X604066Y433500D03*
X609066D03*
X614066D03*
X624934Y38600D03*
X619934D03*
X614934D03*
X624934Y33600D03*
X619934D03*
X614934D03*
X619066Y428500D03*
X624066D03*
X629066D03*
X619066Y433500D03*
X624066D03*
X629066D03*
X639934Y38600D03*
X634934D03*
X629934D03*
X639934Y33600D03*
X634934D03*
X629934D03*
X634066Y428500D03*
X639066D03*
X644066D03*
X634066Y433500D03*
X639066D03*
X644066D03*
X654934Y38600D03*
X649934D03*
X644934D03*
X654934Y33600D03*
X649934D03*
X644934D03*
X649066Y428500D03*
X654066D03*
X659066D03*
X649066Y433500D03*
X654066D03*
X659066D03*
X659934Y38600D03*
Y33600D03*
X729700Y38600D03*
Y33600D03*
X729500Y428500D03*
X734500D03*
X729500Y433500D03*
X734500D03*
X744700Y38600D03*
X739700D03*
X734700D03*
X744700Y33600D03*
X739700D03*
X734700D03*
X739500Y428500D03*
X744500D03*
X749500D03*
X739500Y433500D03*
X744500D03*
X749500D03*
X759700Y38600D03*
X754700D03*
X749700D03*
X759700Y33600D03*
X754700D03*
X749700D03*
X754500Y428500D03*
X759500D03*
X764500D03*
X754500Y433500D03*
X759500D03*
X764500D03*
X774700Y38600D03*
X769700D03*
X764700D03*
X774700Y33600D03*
X769700D03*
X764700D03*
X769500Y428500D03*
X774500D03*
X779500D03*
X769500Y433500D03*
X774500D03*
X779500D03*
X789700Y38600D03*
X784700D03*
X779700D03*
X789700Y33600D03*
X784700D03*
X779700D03*
X784500Y428500D03*
X789500D03*
X784500Y433500D03*
X789500D03*
X804700Y38600D03*
X799700D03*
X794700D03*
X804700Y33600D03*
X799700D03*
X794700D03*
X794500Y428500D03*
X799500D03*
X804500D03*
X794500Y433500D03*
X799500D03*
X804500D03*
X819700Y38600D03*
X814700D03*
X809700D03*
X819700Y33600D03*
X814700D03*
X809700D03*
X809500Y428500D03*
X814500D03*
X819500D03*
X809500Y433500D03*
X814500D03*
X819500D03*
X834700Y38600D03*
X829700D03*
X824700D03*
X834700Y33600D03*
X829700D03*
X824700D03*
X824500Y428500D03*
X829500D03*
X834500D03*
X824500Y433500D03*
X829500D03*
X834500D03*
X849700Y38600D03*
X844700D03*
X839700D03*
X849700Y33600D03*
X844700D03*
X839700D03*
X839500Y428500D03*
X844500D03*
X849500D03*
X839500Y433500D03*
X844500D03*
X849500D03*
X864700Y38600D03*
X859700D03*
X854700D03*
X864700Y33600D03*
X859700D03*
X854700D03*
X854500Y428500D03*
X859500D03*
X864500D03*
X854500Y433500D03*
X859500D03*
X864500D03*
X879700Y38600D03*
X874700D03*
X869700D03*
X879700Y33600D03*
X874700D03*
X869700D03*
X869500Y428500D03*
X874500D03*
X879500D03*
X869500Y433500D03*
X874500D03*
X879500D03*
X894700Y38600D03*
X889700D03*
X884700D03*
X894700Y33600D03*
X889700D03*
X884700D03*
X884500Y428500D03*
X889500D03*
X894500D03*
X884500Y433500D03*
X889500D03*
X894500D03*
X1062500Y192100D03*
Y197100D03*
Y202100D03*
Y207100D03*
Y212100D03*
Y217100D03*
Y222100D03*
Y227100D03*
Y232100D03*
Y237100D03*
Y242100D03*
Y247100D03*
Y252100D03*
Y257100D03*
Y262100D03*
Y267100D03*
Y272100D03*
Y277100D03*
Y282100D03*
Y287100D03*
Y292100D03*
Y297100D03*
Y302100D03*
Y307100D03*
Y312100D03*
Y317100D03*
Y322100D03*
Y327100D03*
Y332100D03*
Y337100D03*
Y342100D03*
Y347100D03*
Y352100D03*
Y357100D03*
Y362100D03*
Y367100D03*
Y372100D03*
Y377100D03*
Y382100D03*
Y387100D03*
X1072500Y192100D03*
Y197100D03*
Y202100D03*
Y207100D03*
Y212100D03*
Y217100D03*
Y222100D03*
Y227100D03*
Y232100D03*
Y237100D03*
Y242100D03*
Y247100D03*
Y252100D03*
Y257100D03*
Y262100D03*
Y267100D03*
Y272100D03*
Y277100D03*
Y282100D03*
Y287100D03*
Y292100D03*
Y297100D03*
Y302100D03*
Y307100D03*
Y312100D03*
Y317100D03*
Y322100D03*
Y327100D03*
Y332100D03*
Y337100D03*
Y342100D03*
Y347100D03*
Y352100D03*
Y357100D03*
Y362100D03*
Y367100D03*
Y372100D03*
Y377100D03*
Y382100D03*
Y387100D03*
G54D20*
X174695Y120300D03*
Y140300D03*
X194695Y120300D03*
X184695Y130300D03*
X194695Y140300D03*
X409295Y120300D03*
X419295Y130300D03*
X409295Y140300D03*
X429295Y120300D03*
Y140300D03*
X643995Y120400D03*
Y140400D03*
X653995Y130400D03*
X663995Y120400D03*
Y140400D03*
X879900Y120700D03*
Y140700D03*
X899900Y120700D03*
X889900Y130700D03*
X899900Y140700D03*
G54D30*
G01X102384Y210284D02*
X105200Y213100D01*
G01X102384Y215916D02*
X105200Y213100D01*
G01D02*
X108016Y215916D01*
G01X105200Y213100D02*
X108016Y210284D01*
G01X127268Y207968D02*
X128600Y209300D01*
G01D02*
X129932Y210632D01*
G01X127268D02*
X128600Y209300D01*
G01D02*
X129932Y207968D01*
G01X135168Y287468D02*
X136500Y288800D01*
G01D02*
X137832Y290132D01*
G01X135168D02*
X136500Y288800D01*
G01D02*
X137832Y287468D01*
G01X158876Y193798D02*
X160278Y195200D01*
G01D02*
X161680Y196602D01*
G01X158876D02*
X160278Y195200D01*
G01D02*
X161680Y193798D01*
G01X155068Y207968D02*
X156400Y209300D01*
G01D02*
X157732Y210632D01*
G01X155068D02*
X156400Y209300D01*
G01D02*
X157732Y207968D01*
G01X162668Y287468D02*
X164000Y288800D01*
G01D02*
X165332Y290132D01*
G01X162668D02*
X164000Y288800D01*
G01D02*
X165332Y287468D01*
G01X171768Y207968D02*
X173100Y209300D01*
G01D02*
X174432Y210632D01*
G01X171768D02*
X173100Y209300D01*
G01D02*
X174432Y207968D01*
G01X341384Y203484D02*
X344200Y206300D01*
G01X341384Y209116D02*
X344200Y206300D01*
G01D02*
X347016Y203484D01*
G01X344200Y206300D02*
X347016Y209116D01*
G01X362168Y210068D02*
X363500Y211400D01*
G01D02*
X364832Y212732D01*
G01X362168D02*
X363500Y211400D01*
G01D02*
X364832Y210068D01*
G01X369768Y288168D02*
X371100Y289500D01*
G01D02*
X372432Y290832D01*
G01X369768D02*
X371100Y289500D01*
G01D02*
X372432Y288168D01*
G01X393542Y194798D02*
X394944Y196200D01*
G01D02*
X396346Y197602D01*
G01X393542D02*
X394944Y196200D01*
G01D02*
X396346Y194798D01*
G01X389668Y210068D02*
X391000Y211400D01*
G01D02*
X392332Y212732D01*
G01X389668D02*
X391000Y211400D01*
G01D02*
X392332Y210068D01*
G01X397268Y288168D02*
X398600Y289500D01*
G01D02*
X399932Y290832D01*
G01X397268D02*
X398600Y289500D01*
G01D02*
X399932Y288168D01*
G01X406168Y210068D02*
X407500Y211400D01*
G01D02*
X408831Y212732D01*
G01X406168D02*
X407500Y211400D01*
G01D02*
X408831Y210068D01*
G01X445074Y72053D02*
Y75503D01*
G01D02*
Y78953D01*
G01X441624Y75503D02*
X445074D01*
G01D02*
X448524D01*
G01X442434Y72863D02*
X445074Y75503D01*
G01D02*
X447714Y78143D01*
G01X442434D02*
X445074Y75503D01*
G01D02*
X447714Y72863D01*
G01X456736Y64691D02*
X458846Y66800D01*
G01D02*
X460955Y68909D01*
G01X456736D02*
X458846Y66800D01*
G01D02*
X460955Y64691D01*
G01X455074Y72053D02*
Y75503D01*
G01D02*
Y78953D01*
G01X451624Y75503D02*
X455074D01*
G01D02*
X458524D01*
G01X452434Y72863D02*
X455074Y75503D01*
G01D02*
X457714Y78143D01*
G01X452434D02*
X455074Y75503D01*
G01D02*
X457714Y72863D01*
G01X461624Y75503D02*
X465074D01*
G01X462434Y72863D02*
X465074Y75503D01*
G01X462434Y78143D02*
X465074Y75503D01*
G01X475074Y72053D02*
Y75503D01*
G01D02*
Y78953D01*
G01X471624Y75503D02*
X475074D01*
G01D02*
X478524D01*
G01X472434Y72863D02*
X475074Y75503D01*
G01D02*
X477714Y78143D01*
G01X472434D02*
X475074Y75503D01*
G01D02*
X477714Y72863D01*
G01X465074Y72053D02*
Y75503D01*
G01D02*
Y78953D01*
G01Y75503D02*
X468524D01*
G01X465074D02*
X467714Y78143D01*
G01X465074Y75503D02*
X467714Y72863D01*
G01X567884Y204184D02*
X570700Y207000D01*
G01X567884Y209816D02*
X570700Y207000D01*
G01D02*
X573516Y204184D01*
G01X570700Y207000D02*
X573516Y209816D01*
G01X596768Y210168D02*
X598100Y211500D01*
G01D02*
X599431Y212832D01*
G01X596768D02*
X598100Y211500D01*
G01D02*
X599431Y210168D01*
G01X603769Y288868D02*
X605100Y290200D01*
G01D02*
X606432Y291532D01*
G01X603769D02*
X605100Y290200D01*
G01D02*
X606432Y288868D01*
G01X628242Y194098D02*
X629644Y195500D01*
G01X628242Y196902D02*
X629644Y195500D01*
G01X624368Y210168D02*
X625700Y211500D01*
G01D02*
X627032Y212832D01*
G01X624368D02*
X625700Y211500D01*
G01D02*
X627032Y210168D01*
G01X629644Y195500D02*
X631046Y196902D01*
G01X629644Y195500D02*
X631046Y194098D01*
G01X640868Y210168D02*
X642200Y211500D01*
G01D02*
X643532Y212832D01*
G01X640868D02*
X642200Y211500D01*
G01D02*
X643532Y210168D01*
G01X631268Y288868D02*
X632600Y290200D01*
G01D02*
X633932Y291532D01*
G01X631268D02*
X632600Y290200D01*
G01D02*
X633932Y288868D01*
G01X810784Y203884D02*
X813600Y206700D01*
G01D02*
X816416Y203884D01*
G01X813600Y206700D02*
X816416Y209516D01*
G01X810784D02*
X813600Y206700D01*
G01X831568Y210368D02*
X832900Y211700D01*
G01D02*
X834232Y213032D01*
G01X831568D02*
X832900Y211700D01*
G01D02*
X834232Y210368D01*
G01X838168Y288668D02*
X839500Y290000D01*
G01D02*
X840832Y291332D01*
G01X838168D02*
X839500Y290000D01*
G01D02*
X840832Y288668D01*
G01X862932Y194998D02*
X864335Y196400D01*
G01D02*
X865737Y197802D01*
G01X862932D02*
X864335Y196400D01*
G01D02*
X865737Y194998D01*
G01X859368Y210368D02*
X860700Y211700D01*
G01D02*
X862032Y213032D01*
G01X859368D02*
X860700Y211700D01*
G01D02*
X862032Y210368D01*
G01X865952Y288668D02*
X867284Y290000D01*
G01D02*
X868615Y291332D01*
G01X865952D02*
X867284Y290000D01*
G01D02*
X868615Y288668D01*
G01X876068Y210368D02*
X877400Y211700D01*
G01D02*
X878732Y213032D01*
G01X876068D02*
X877400Y211700D01*
G01D02*
X878732Y210368D01*
G01X926100Y128276D02*
Y131726D01*
G01X923460Y129086D02*
X926100Y131726D01*
G01D02*
Y135176D01*
G01X922650Y131726D02*
X926100D01*
G01D02*
X929550D01*
G01X926100D02*
X928740Y134366D01*
G01X923460D02*
X926100Y131726D01*
G01D02*
X928740Y129086D01*
G01X940900Y128276D02*
Y131726D01*
G01X938260Y129086D02*
X940900Y131726D01*
G01D02*
Y135176D01*
G01X937450Y131726D02*
X940900D01*
G01D02*
X944350D01*
G01X940900D02*
X943540Y134366D01*
G01X938260D02*
X940900Y131726D01*
G01D02*
X943540Y129086D01*
G01X955700Y128276D02*
Y131726D01*
G01X953060Y129086D02*
X955700Y131726D01*
G01D02*
Y135176D01*
G01X952250Y131726D02*
X955700D01*
G01D02*
X959150D01*
G01X955700D02*
X958340Y134366D01*
G01X953060D02*
X955700Y131726D01*
G01D02*
X958340Y129086D01*
G01X970500Y128276D02*
Y131726D01*
G01X967860Y129086D02*
X970500Y131726D01*
G01D02*
Y135176D01*
G01X967050Y131726D02*
X970500D01*
G01D02*
X973950D01*
G01X970500D02*
X973140Y134366D01*
G01X967860D02*
X970500Y131726D01*
G01D02*
X973140Y129086D01*
G01X978500Y90200D02*
Y93900D01*
G01D02*
Y97600D01*
G01X974800Y93900D02*
X978500D01*
G01D02*
X982200D01*
G01X975684Y91084D02*
X978500Y93900D01*
G01D02*
X981316Y96716D01*
G01X975684D02*
X978500Y93900D01*
G01D02*
X981316Y91084D01*
G01X985300Y128276D02*
Y131726D01*
G01X982660Y129086D02*
X985300Y131726D01*
G01D02*
Y135176D01*
G01X981850Y131726D02*
X985300D01*
G01D02*
X988750D01*
G01X985300D02*
X987940Y134366D01*
G01X982660D02*
X985300Y131726D01*
G01D02*
X987940Y129086D01*
G01X992000Y87900D02*
Y91600D01*
G01D02*
Y95300D01*
G01X988300Y91600D02*
X992000D01*
G01D02*
X995700D01*
G01X989184Y88784D02*
X992000Y91600D01*
G01D02*
X994816Y94416D01*
G01X989184D02*
X992000Y91600D01*
G01D02*
X994816Y88784D01*
G01X1000100Y128276D02*
Y131726D01*
G01X997460Y129086D02*
X1000100Y131726D01*
G01D02*
X1002740Y129086D01*
G01X1000100Y131726D02*
Y135176D01*
G01X996650Y131726D02*
X1000100D01*
G01D02*
X1003550D01*
G01X1000100D02*
X1002740Y134366D01*
G01X997460D02*
X1000100Y131726D01*
G54D21*
X171620Y154154D03*
X180740D03*
X189900Y154254D03*
X406380Y155800D03*
X415480Y155840D03*
X424580Y155880D03*
X445074Y75503D03*
Y105503D03*
X465074Y75503D03*
X455074D03*
Y105503D03*
X465074D03*
X475074Y75503D03*
Y105503D03*
X640620Y155846D03*
X650100D03*
X659640D03*
X875400Y155504D03*
X884720Y155604D03*
X894140Y155704D03*
X926100Y131726D03*
Y141726D03*
X940900Y131726D03*
Y141726D03*
X943286Y357680D03*
X942900Y396700D03*
X955700Y131726D03*
Y141726D03*
X970500Y131726D03*
Y141726D03*
X985300Y131726D03*
Y141726D03*
X986306Y357780D03*
X986334Y396720D03*
X1000100Y131726D03*
Y141726D03*
G54D12*
X30400Y51500D03*
Y57500D03*
X40400Y51500D03*
Y57500D03*
X44500Y409600D03*
X34500D03*
X44500Y415600D03*
X34500D03*
X50400Y51500D03*
X60400D03*
X50400Y57500D03*
X60400D03*
X54500Y409600D03*
Y415600D03*
X70400Y51500D03*
Y57500D03*
X74500Y409600D03*
X64500D03*
X74500Y415600D03*
X64500D03*
X80400Y51500D03*
X90400D03*
X80400Y57500D03*
X90400D03*
X84500Y409600D03*
Y415600D03*
X100400Y51500D03*
Y57500D03*
X104500Y409600D03*
X94500D03*
X104500Y415600D03*
X94500D03*
X120400Y51500D03*
X110400D03*
X120400Y57500D03*
X110400D03*
X114500Y409600D03*
Y415600D03*
X130400Y51500D03*
Y57500D03*
X134500Y409600D03*
X124500D03*
X134500Y415600D03*
X124500D03*
X140400Y51500D03*
X150400D03*
X140400Y57500D03*
X150400D03*
X144200Y325200D03*
Y319200D03*
X149700D03*
Y325200D03*
X144500Y409600D03*
Y415600D03*
X160400Y51500D03*
Y57500D03*
X162800Y171500D03*
Y177500D03*
X164500Y409600D03*
X154500D03*
X164500Y415600D03*
X154500D03*
X170400Y51500D03*
X180400D03*
X170400Y57500D03*
X180400D03*
X173800Y171500D03*
Y177500D03*
X168300Y319200D03*
Y325200D03*
X173800D03*
Y319200D03*
X174500Y409600D03*
Y415600D03*
X191800Y325200D03*
Y319200D03*
X186300D03*
Y325200D03*
X184500Y409600D03*
Y415600D03*
X206500Y227300D03*
Y233300D03*
Y242600D03*
Y248600D03*
X265100Y51300D03*
Y57300D03*
X269150Y409600D03*
Y415600D03*
X285100Y51300D03*
X275100D03*
X285100Y57300D03*
X275100D03*
X279200Y409600D03*
Y415600D03*
X295100Y51300D03*
Y57300D03*
X299200Y409600D03*
X289200D03*
X299200Y415600D03*
X289200D03*
X305100Y51300D03*
X315100D03*
X305100Y57300D03*
X315100D03*
X309200Y409600D03*
Y415600D03*
X325100Y51300D03*
Y57300D03*
X329200Y409600D03*
X319200D03*
X329200Y415600D03*
X319200D03*
X345150Y51300D03*
X335100D03*
X345150Y57300D03*
X335100D03*
X339200Y409600D03*
Y415600D03*
X355100Y51300D03*
Y57300D03*
X359150Y409600D03*
X349200D03*
X359150Y415600D03*
X349200D03*
X365100Y51300D03*
X375100D03*
X365100Y57300D03*
X375100D03*
X369200Y409600D03*
Y415600D03*
X385100Y51300D03*
Y57300D03*
X378800Y325200D03*
Y319200D03*
X384300D03*
Y325200D03*
X389200Y409600D03*
X379200D03*
X389200Y415600D03*
X379200D03*
X405100Y51300D03*
X395150D03*
X405100Y57300D03*
X395150D03*
X397500Y171500D03*
Y177500D03*
X403000Y319200D03*
Y325200D03*
X399200Y409600D03*
Y415600D03*
X415100Y51300D03*
Y57300D03*
X408500Y171500D03*
Y177500D03*
Y325200D03*
Y319200D03*
X419200Y409600D03*
X409200D03*
X419200Y415600D03*
X409200D03*
X426500Y325200D03*
Y319200D03*
X421000D03*
Y325200D03*
X441100Y227300D03*
Y233300D03*
Y242600D03*
Y248600D03*
X500000Y51600D03*
X509900D03*
X500000Y57600D03*
X509900D03*
X504066Y409600D03*
Y415600D03*
X520000Y51600D03*
Y57600D03*
X524100Y409600D03*
X514066D03*
X524100Y415600D03*
X514066D03*
X529900Y51600D03*
X539900D03*
X529900Y57600D03*
X539900D03*
X534100Y409600D03*
Y415600D03*
X549900Y51600D03*
Y57600D03*
X554100Y409600D03*
X544100D03*
X554100Y415600D03*
X544100D03*
X559934Y51600D03*
X569934D03*
X559934Y57600D03*
X569934D03*
X564100Y409600D03*
Y415600D03*
X579934Y51600D03*
Y57600D03*
X584066Y409600D03*
X574066D03*
X584066Y415600D03*
X574066D03*
X589900Y51600D03*
X600000D03*
X589900Y57600D03*
X600000D03*
X594066Y409600D03*
Y415600D03*
X609900Y51600D03*
Y57600D03*
X613366Y324600D03*
Y318600D03*
X614100Y409600D03*
X604066D03*
X614100Y415600D03*
X604066D03*
X619934Y51600D03*
X629934D03*
X619934Y57600D03*
X629934D03*
X618900Y318600D03*
Y324600D03*
X624100Y409600D03*
Y415600D03*
X639934Y51600D03*
Y57600D03*
X643434Y171600D03*
X632200D03*
X643434Y177600D03*
X632200D03*
X637834Y318600D03*
Y324600D03*
X643400D03*
Y318600D03*
X644100Y409600D03*
X634100D03*
X644100Y415600D03*
X634100D03*
X649934Y51600D03*
Y57600D03*
X655600Y318600D03*
Y324600D03*
X654100Y409600D03*
Y415600D03*
X661166Y324600D03*
Y318600D03*
X675300Y227300D03*
Y233300D03*
Y242600D03*
Y248600D03*
X734700Y51600D03*
Y57600D03*
X744700Y51600D03*
Y57600D03*
X749500Y409600D03*
X739500D03*
X749500Y415600D03*
X739500D03*
X754700Y51600D03*
X764700D03*
X754700Y57600D03*
X764700D03*
X759500Y409600D03*
Y415600D03*
X774700Y51600D03*
Y57600D03*
X779500Y409600D03*
X769500D03*
X779500Y415600D03*
X769500D03*
X784700Y51600D03*
X794700D03*
X784700Y57600D03*
X794700D03*
X789500Y409600D03*
Y415600D03*
X804700Y51600D03*
Y57600D03*
X799500Y409600D03*
X809500D03*
X799500Y415600D03*
X809500D03*
X824700Y51600D03*
X814700D03*
X824700Y57600D03*
X814700D03*
X819500Y409600D03*
Y415600D03*
X834700Y51600D03*
Y57600D03*
X839500Y409600D03*
X829500D03*
X839500Y415600D03*
X829500D03*
X844700Y51600D03*
Y57600D03*
X841400Y172300D03*
Y178300D03*
X848100Y324500D03*
Y318500D03*
X853700D03*
Y324500D03*
X849500Y409600D03*
Y415600D03*
X854700Y51600D03*
X864700D03*
X854700Y57600D03*
X864700D03*
X866900Y172600D03*
Y178600D03*
X869500Y409600D03*
X859500D03*
X869500Y415600D03*
X859500D03*
X874700Y51600D03*
Y57600D03*
X878100Y172600D03*
Y178600D03*
X872500Y318500D03*
Y324500D03*
X878084D03*
Y318500D03*
X879400Y409600D03*
Y415600D03*
X884700Y51600D03*
Y57600D03*
X896000Y324500D03*
Y318500D03*
X890400D03*
Y324500D03*
X889500Y409600D03*
Y415600D03*
X909600Y227300D03*
Y233300D03*
Y242400D03*
Y248400D03*
X943100Y366100D03*
X937600D03*
X943000Y382400D03*
X937500D03*
X943100Y372100D03*
X937600D03*
X943000Y388400D03*
X937500D03*
X986400Y366100D03*
Y372100D03*
X986200Y382400D03*
Y388400D03*
X991900Y366100D03*
Y372100D03*
X991700Y382400D03*
Y388400D03*
G54D31*
G01X30400Y86000D02*
Y89900D01*
X19100Y101200D01*
Y214900D01*
X48494Y244295D01*
X74943D01*
G01X35400Y89900D02*
X22300Y103000D01*
Y213900D01*
X50136Y241736D01*
X74943D01*
G01X40400Y86000D02*
Y89900D01*
X25000Y105300D01*
Y212700D01*
X51476Y239176D01*
X74943D01*
G01X45400Y89900D02*
X27800Y107500D01*
Y211600D01*
X52817Y236617D01*
X74943D01*
G01X29500Y377400D02*
X16000Y363900D01*
Y276400D01*
X42987Y249413D01*
X74943D01*
G01Y257090D02*
X48610D01*
X24400Y281300D01*
Y357500D01*
X44500Y377600D01*
Y381100D01*
G01X74943Y251972D02*
X45028D01*
X18800Y278200D01*
Y361700D01*
X34500Y377400D01*
Y381100D01*
G01X39500Y377400D02*
X21300Y359200D01*
Y280200D01*
X46969Y254531D01*
X74943D01*
G01X49500Y377400D02*
X27400Y355300D01*
Y282300D01*
X50051Y259649D01*
X74943D01*
G01X40434Y38600D02*
Y51466D01*
X40400Y51500D01*
G01X30434Y38600D02*
Y51466D01*
X30400Y51500D01*
G01X35400Y71100D02*
Y69103D01*
X35363Y69067D01*
G01X40400Y57500D02*
X38600Y59300D01*
Y67628D01*
X40039Y69067D01*
X40678D01*
G01D02*
Y79722D01*
X40400Y80000D01*
G01X40678Y63100D02*
Y65130D01*
G01X30400Y57500D02*
Y60166D01*
X35363Y65130D01*
G01X30400Y80000D02*
X37400Y73000D01*
Y66527D01*
X36003Y65130D01*
X35363D01*
G01X50400Y86000D02*
Y89800D01*
X30600Y109600D01*
Y210300D01*
X54358Y234058D01*
X74943D01*
G01X65400Y89900D02*
X39600Y115700D01*
Y207000D01*
X58981Y226381D01*
X74943D01*
G01X55400Y89900D02*
X33400Y111900D01*
Y208900D01*
X55999Y231499D01*
X74943D01*
G01X60450Y85995D02*
Y89850D01*
X36600Y113700D01*
Y207900D01*
X57640Y228940D01*
X74943D01*
G01X70450Y85995D02*
Y89650D01*
X42700Y117400D01*
Y206000D01*
X60522Y223822D01*
X74943D01*
G01Y267326D02*
X55474D01*
X36900Y285900D01*
Y349900D01*
X64550Y377550D01*
Y381105D01*
G01X74943Y262208D02*
X51392D01*
X30500Y283100D01*
Y353600D01*
X54500Y377600D01*
Y381100D01*
G01X59500Y377400D02*
X33800Y351700D01*
Y284500D01*
X53533Y264767D01*
X74943D01*
G01X69500Y377400D02*
X40100Y348000D01*
Y287200D01*
X57415Y269885D01*
X74943D01*
G01Y272444D02*
X59456D01*
X43400Y288500D01*
Y346300D01*
X74450Y377350D01*
Y381105D01*
G01X34500Y409600D02*
X36600Y407500D01*
Y398370D01*
X35164Y396933D01*
X34524D01*
G01D02*
Y387124D01*
X34500Y387100D01*
G01X39500Y394900D02*
Y396594D01*
X39839Y396933D01*
G01X44500Y387100D02*
X37800Y393800D01*
Y399470D01*
X39200Y400870D01*
X39839D01*
G01X44500Y409600D02*
Y405531D01*
X39839Y400870D01*
G01X34524Y403000D02*
Y400870D01*
G01X34466Y428500D02*
Y415634D01*
X34500Y415600D01*
G01X44466Y428500D02*
Y415634D01*
X44500Y415600D01*
G01X50434Y38600D02*
Y51466D01*
X50400Y51500D01*
G01X55400Y71100D02*
Y69082D01*
X55385Y69067D01*
G01X50400Y57500D02*
Y60145D01*
X55385Y65130D01*
G01X50400Y80000D02*
X57400Y73000D01*
Y66506D01*
X56024Y65130D01*
X55385D01*
G01X60400Y57500D02*
X58600Y59300D01*
Y67606D01*
X60061Y69067D01*
X60700D01*
G01X80400Y86000D02*
Y90000D01*
X48800Y121600D01*
Y203800D01*
X63704Y218704D01*
X74943D01*
G01X75400Y89900D02*
X45900Y119400D01*
Y205100D01*
X62063Y221263D01*
X74943D01*
G01X90400Y86000D02*
Y89600D01*
X54600Y125400D01*
Y201700D01*
X66486Y213586D01*
X74943D01*
G01X95400Y89900D02*
X57400Y127900D01*
Y200700D01*
X67727Y211027D01*
X74943D01*
G01X85400Y89900D02*
X51900Y123400D01*
Y202700D01*
X65345Y216145D01*
X74943D01*
G01X79500Y377400D02*
X46700Y344600D01*
Y290000D01*
X61697Y275003D01*
X74943D01*
G01Y277562D02*
X63238D01*
X49800Y291000D01*
Y342900D01*
X84450Y377550D01*
Y381105D01*
G01X99500Y377400D02*
X58800Y336700D01*
Y294900D01*
X68460Y285239D01*
X74943D01*
G01X94500Y381100D02*
Y377700D01*
X55900Y339100D01*
Y293300D01*
X66520Y282680D01*
X74943D01*
G01X89500Y377400D02*
X53000Y340900D01*
Y292300D01*
X65179Y280121D01*
X74943D01*
G01X64550Y387105D02*
X57700Y393955D01*
Y399361D01*
X59209Y400870D01*
X59849D01*
G01X54500Y409600D02*
X56600Y407500D01*
Y398360D01*
X55173Y396933D01*
X54534D01*
G01D02*
Y387134D01*
X54500Y387100D01*
G01X59500Y394900D02*
Y396585D01*
X59849Y396933D01*
G01X54534Y402966D02*
Y400870D01*
G01X64500Y409600D02*
Y405522D01*
X59849Y400870D01*
G01X54466Y428500D02*
Y415634D01*
X54500Y415600D01*
G01X70434Y38600D02*
Y51466D01*
X70400Y51500D01*
G01X60434Y38600D02*
Y51466D01*
X60400Y51500D01*
G01X60700Y63100D02*
Y65129D01*
X60700Y65130D01*
G01X70400Y57500D02*
Y60447D01*
X75083Y65130D01*
G01X60700Y69067D02*
Y79746D01*
X60450Y79995D01*
G01X70450D02*
X77200Y73245D01*
Y66608D01*
X75722Y65130D01*
X75083D01*
G01X100400Y86000D02*
Y89900D01*
X59900Y130400D01*
Y199400D01*
X68968Y208468D01*
X74943D01*
G01X105400Y89900D02*
X62500Y132800D01*
Y198700D01*
X69709Y205909D01*
X74943D01*
G01X110400Y86000D02*
Y90200D01*
X65100Y135500D01*
Y197800D01*
X70650Y203350D01*
X74943D01*
G01X115400Y89900D02*
X67700Y137600D01*
Y196900D01*
X71591Y200791D01*
X74943D01*
G01X114500Y381100D02*
Y377600D01*
X67400Y330500D01*
Y296100D01*
X70583Y292917D01*
X74943D01*
G01X104500Y381100D02*
Y377500D01*
X61900Y334900D01*
Y295500D01*
X69602Y287798D01*
X74943D01*
G01X109500Y377400D02*
X64500Y332400D01*
Y296100D01*
X70242Y290358D01*
X74943D01*
G01X74500Y409600D02*
X76700Y407400D01*
Y398467D01*
X75166Y396933D01*
X74527D01*
G01D02*
Y387181D01*
X74450Y387105D01*
G01X74527Y402900D02*
Y400870D01*
G01X64466Y428500D02*
Y415634D01*
X64500Y415600D01*
G01X74466Y428500D02*
Y415634D01*
X74500Y415600D01*
G01X80434Y38600D02*
Y51466D01*
X80400Y51500D01*
G01X75400Y71100D02*
Y69384D01*
X75083Y69067D01*
G01X80400Y63100D02*
Y65127D01*
X80397Y65130D01*
G01X80400Y57500D02*
X78300Y59600D01*
Y67609D01*
X79758Y69067D01*
X80397D01*
G01D02*
Y79997D01*
X80400Y80000D01*
G01X119500Y377400D02*
X88624Y346524D01*
Y309157D01*
G01X79500Y394900D02*
Y396592D01*
X79842Y396933D01*
G01X84450Y387105D02*
X77800Y393755D01*
Y399468D01*
X79202Y400870D01*
X79842D01*
G01X84500Y409600D02*
Y405529D01*
X79842Y400870D01*
G01X84466Y428500D02*
Y415634D01*
X84500Y415600D01*
G01X90434Y38600D02*
Y51466D01*
X90400Y51500D01*
G01X100434Y38600D02*
Y51466D01*
X100400Y51500D01*
G01X100385Y69067D02*
Y79985D01*
X100400Y80000D01*
G01Y57500D02*
X98300Y59600D01*
Y67621D01*
X99746Y69067D01*
X100385D01*
G01X90400Y80000D02*
X97200Y73200D01*
Y66620D01*
X95710Y65130D01*
X95070D01*
G01X90400Y57500D02*
Y60459D01*
X95070Y65130D01*
G01X100385Y63100D02*
Y65130D01*
G01X95400Y71100D02*
Y69396D01*
X95070Y69067D01*
G01X91184Y187110D02*
Y119016D01*
X120450Y89750D01*
Y85995D01*
G01X93742Y187110D02*
Y121558D01*
X125400Y89900D01*
G01X98861Y187110D02*
Y126439D01*
X135400Y89900D01*
G01X101420Y187110D02*
Y128880D01*
X140400Y89900D01*
Y86000D01*
G01X96302Y187110D02*
Y123798D01*
X130350Y89750D01*
Y85995D01*
G01X103979Y187110D02*
Y131321D01*
X145400Y89900D01*
G01X91184Y309157D02*
Y342634D01*
X124500Y375950D01*
Y381100D01*
G01X139500Y377400D02*
X98861Y336761D01*
Y309157D01*
G01X149500Y377400D02*
X103979Y331879D01*
Y309157D01*
G01X96302D02*
Y337652D01*
X134500Y375850D01*
Y381100D01*
G01X101420Y309157D02*
Y332770D01*
X144500Y375850D01*
Y381100D01*
G01X129500Y377400D02*
X93742Y341642D01*
Y309157D01*
G01X104500Y387100D02*
X97800Y393800D01*
Y399466D01*
X99205Y400870D01*
X99844D01*
G01X99500Y394900D02*
Y396589D01*
X99844Y396933D01*
G01X94500Y409600D02*
X96600Y407500D01*
Y398365D01*
X95168Y396933D01*
X94529D01*
G01D02*
Y387129D01*
X94500Y387100D01*
G01X104500Y409600D02*
Y405526D01*
X99844Y400870D01*
G01X94529Y402900D02*
Y400870D01*
G01X94466Y428500D02*
Y415634D01*
X94500Y415600D01*
G01X104500D02*
X104466Y415634D01*
Y428500D01*
G01X110434Y38600D02*
Y51466D01*
X110400Y51500D01*
G01X115400Y71000D02*
Y69394D01*
X115073Y69067D01*
G01X110400Y57500D02*
Y60457D01*
X115073Y65130D01*
G01X110400Y80000D02*
X117100Y73300D01*
Y66400D01*
X115830Y65130D01*
X115073D01*
G01X120400Y57500D02*
X118300Y59600D01*
Y67618D01*
X119748Y69067D01*
X120388D01*
G01X106538Y187110D02*
Y133762D01*
X150400Y89900D01*
Y86000D01*
G01X109097Y187110D02*
Y136203D01*
X155400Y89900D01*
G01X114215Y187110D02*
Y141085D01*
X165400Y89900D01*
G01X111656Y187110D02*
Y138644D01*
X160400Y89900D01*
Y86000D01*
G01X116774Y187110D02*
Y143526D01*
X170350Y89950D01*
Y85895D01*
G01X119333Y187110D02*
Y145967D01*
X175400Y89900D01*
G01X169500Y377400D02*
X114215Y322115D01*
Y309157D01*
G01X116774D02*
Y318074D01*
X174550Y375850D01*
Y381105D01*
G01X111656Y309157D02*
Y322956D01*
X164550Y375850D01*
Y381105D01*
G01X179500Y377400D02*
X119333Y317233D01*
Y309157D01*
G01X106538D02*
Y327838D01*
X154550Y375850D01*
Y381105D01*
G01X159500Y377400D02*
X109097Y326997D01*
Y309157D01*
G01X124500Y387100D02*
X117800Y393800D01*
Y399463D01*
X119207Y400870D01*
X119846D01*
G01X114500Y409600D02*
X116600Y407500D01*
Y398363D01*
X115171Y396933D01*
X114531D01*
G01D02*
Y387131D01*
X114500Y387100D01*
G01X119500Y394900D02*
Y396587D01*
X119846Y396933D01*
G01X114531Y402900D02*
Y400870D01*
G01X114466Y428500D02*
Y415634D01*
X114500Y415600D01*
G01X120434Y38600D02*
Y51466D01*
X120400Y51500D01*
G01X130434Y38600D02*
Y51466D01*
X130400Y51500D01*
G01Y57500D02*
Y60454D01*
X135075Y65130D01*
G01X120400Y63100D02*
Y65117D01*
X120388Y65130D01*
G01Y69067D02*
Y79933D01*
X120450Y79995D01*
G01X130350D02*
X137100Y73245D01*
Y66515D01*
X135715Y65130D01*
X135075D01*
G01X121892Y187110D02*
Y148508D01*
X180350Y90050D01*
Y85995D01*
G01X124451Y187110D02*
Y150849D01*
X185400Y89900D01*
G01X132128Y187110D02*
Y157172D01*
X159000Y130300D01*
X184695D01*
G01X121892Y309157D02*
Y313442D01*
X184500Y376050D01*
Y381100D01*
G01X134519Y396933D02*
Y387119D01*
X134500Y387100D01*
G01Y409600D02*
X136500Y407600D01*
Y398275D01*
X135159Y396933D01*
X134519D01*
G01X124500Y409600D02*
Y405524D01*
X119846Y400870D01*
G01X134519Y403000D02*
Y400870D01*
G01X134466Y428500D02*
Y415634D01*
X134500Y415600D01*
G01X124466Y428500D02*
Y415634D01*
X124500Y415600D01*
G01X140434Y38600D02*
Y51466D01*
X140400Y51500D01*
G01Y63100D02*
Y65120D01*
X140390Y65130D01*
G01Y69067D02*
Y79990D01*
X140400Y80000D01*
G01Y57500D02*
X138300Y59600D01*
Y67616D01*
X139751Y69067D01*
X140390D01*
G01X135400Y70700D02*
Y69391D01*
X135075Y69067D01*
G01X137300Y167800D02*
Y171500D01*
G01X142365Y187110D02*
Y181800D01*
G01X139806Y187110D02*
Y192000D01*
G01X147483Y187110D02*
Y189817D01*
X145400Y191900D01*
G01X137246Y187110D02*
Y182560D01*
G01D02*
Y177554D01*
X137300Y177500D01*
G01X147483Y309157D02*
Y303883D01*
G01X149700Y319200D02*
X144200D01*
G01Y328900D02*
Y325200D01*
G01X144500Y387100D02*
X137600Y394000D01*
Y399275D01*
X139195Y400870D01*
X139834D01*
G01X139500Y394900D02*
Y396599D01*
X139834Y396933D01*
G01X144500Y409600D02*
Y405536D01*
X139834Y400870D01*
G01X144466Y428500D02*
Y415634D01*
X144500Y415600D01*
G01X150434Y38600D02*
Y51466D01*
X150400Y51500D01*
G01X160434Y38600D02*
Y51466D01*
X160400Y51500D01*
G01X155200Y71000D02*
Y69189D01*
X155078Y69067D01*
G01X160400Y57500D02*
X158300Y59600D01*
Y67613D01*
X159753Y69067D01*
X160393D01*
G01D02*
Y79993D01*
X160400Y80000D01*
G01X150400Y57500D02*
Y60452D01*
X155078Y65130D01*
G01X150400Y80000D02*
X157100Y73300D01*
Y66513D01*
X155717Y65130D01*
X155078D01*
G01X160400Y63100D02*
Y65122D01*
X160393Y65130D01*
G01X162800Y171500D02*
Y167800D01*
G01X162837Y187110D02*
Y181863D01*
G01X168300Y177500D02*
X162800D01*
G01X160100Y303900D02*
X155485D01*
X152601Y306784D01*
Y309157D01*
G01X150042D02*
Y305158D01*
X153000Y302200D01*
G01X162837Y309157D02*
Y319163D01*
X162800Y319200D01*
G01X168300D02*
X162800D01*
G01X155160Y309157D02*
Y314460D01*
G01X160278Y309157D02*
Y313878D01*
G01X155200Y319200D02*
X149700D01*
G01X157719Y309157D02*
Y316681D01*
X155200Y319200D01*
G01X162800Y325200D02*
Y328900D01*
G01X155200D02*
Y325200D01*
G01X149700D02*
Y328900D01*
G01X159500Y394900D02*
Y396601D01*
X159832Y396933D01*
G01X154500Y409600D02*
X156600Y407500D01*
Y398377D01*
X155156Y396933D01*
X154517D01*
G01D02*
Y387138D01*
X154550Y387105D01*
G01X164550D02*
X157800Y393855D01*
Y399478D01*
X159193Y400870D01*
X159832D01*
G01X154517Y402900D02*
Y400870D01*
G01X164500Y409600D02*
Y405538D01*
X159832Y400870D01*
G01X154466Y428500D02*
Y415634D01*
X154500Y415600D01*
G01X164466Y428500D02*
Y415634D01*
X164500Y415600D01*
G01X170434Y38600D02*
Y51466D01*
X170400Y51500D01*
G01Y57500D02*
Y60450D01*
X175080Y65130D01*
G01X170350Y79895D02*
X177100Y73145D01*
Y66510D01*
X175719Y65130D01*
X175080D01*
G01X180400Y57500D02*
X178300Y59600D01*
Y67611D01*
X179756Y69067D01*
X180395D01*
G01X175400Y71300D02*
Y69387D01*
X175080Y69067D01*
G01X178191Y187110D02*
Y160725D01*
X171620Y154154D01*
G01X168300Y167800D02*
Y171500D01*
G01X173800D02*
Y167800D01*
G01X167500Y192200D02*
X165396Y190096D01*
Y187110D01*
G01X167955D02*
Y177845D01*
X168300Y177500D01*
G01X173800D02*
X168300D01*
G01X173800Y319200D02*
X168300D01*
G01X165396Y309157D02*
Y313707D01*
G01X167955Y309157D02*
Y315000D01*
G01X178191Y309157D02*
Y314091D01*
G01X168300Y328900D02*
Y325200D01*
G01X173800D02*
Y328900D01*
G01X179500Y394900D02*
Y396621D01*
X179813Y396933D01*
G01X174500Y409600D02*
X176600Y407500D01*
Y398396D01*
X175137Y396933D01*
X174498D01*
G01D02*
Y387157D01*
X174550Y387105D01*
G01X184500Y387100D02*
X177700Y393900D01*
Y399397D01*
X179173Y400870D01*
X179813D01*
G01X174500Y402900D02*
Y400872D01*
X174498Y400870D01*
G01X174466Y428500D02*
Y415634D01*
X174500Y415600D01*
G01X180434Y38600D02*
Y51466D01*
X180400Y51500D01*
G01X180395Y69067D02*
Y79950D01*
X180350Y79995D01*
G01X180400Y63100D02*
Y65125D01*
X180395Y65130D01*
G01X180750Y187110D02*
Y154164D01*
X180740Y154154D01*
G01X183309Y187110D02*
Y160844D01*
X189900Y154254D01*
G01X196990Y203350D02*
X192150D01*
G01X192100Y213651D02*
X196925D01*
X196990Y213586D01*
G01X192440Y218769D02*
X196925D01*
X196990Y218704D01*
G01Y208468D02*
X192132D01*
G01X196990Y205909D02*
X192109D01*
G01X196990Y223822D02*
X192440D01*
G01X190869Y242214D02*
X191347Y241736D01*
X196990D01*
G01X190869Y238731D02*
X191315Y239176D01*
X196990D01*
G01Y259649D02*
X191949D01*
G01X196990Y257090D02*
X192010D01*
G01X196990Y262208D02*
X192008D01*
G01X196990Y277562D02*
X192440D01*
G01X196990Y264767D02*
X192033D01*
G01X196990Y267326D02*
X192026D01*
G01X192440Y272500D02*
X196935D01*
X196990Y272444D01*
G01X192440Y282680D02*
X196990D01*
G01X192440Y287798D02*
X196990D01*
G01X192440Y292900D02*
X196974D01*
X196990Y292917D01*
G01X180750Y309157D02*
Y319150D01*
X180800Y319200D01*
G01X186300D02*
X180800D01*
G01X191800D02*
X186300D01*
G01X180800Y328900D02*
Y325200D01*
G01X186300D02*
Y328900D01*
G01X191800D02*
Y325200D01*
G01X184500Y409600D02*
Y405558D01*
X179813Y400870D01*
G01X184500Y415600D02*
Y428466D01*
X184466Y428500D01*
G01X196990Y216145D02*
X201540D01*
G01X196990Y211027D02*
X201373D01*
X201400Y211000D01*
X201540D01*
G01X196990Y221263D02*
X201540D01*
G01Y233717D02*
X200900D01*
X200559Y234058D01*
X196990D01*
G01X212300Y232100D02*
X211200Y231000D01*
X208800D01*
X206500Y233300D01*
G01X196990Y231499D02*
X204699D01*
X206500Y233300D01*
G01X212300Y228617D02*
X211317Y229600D01*
X208800D01*
X206500Y227300D01*
G01X196990Y228940D02*
X204860D01*
X206500Y227300D01*
G01X201540Y226381D02*
X196990D01*
G01X206500Y248600D02*
X208800Y246300D01*
X225759D01*
X226800Y247342D01*
G01X196990Y246854D02*
X204754D01*
X206500Y248600D01*
G01X196990Y244295D02*
X204805D01*
X206500Y242600D01*
G01D02*
X208800Y244900D01*
X225759D01*
X226800Y243859D01*
G01X201540Y237200D02*
X200900D01*
X200317Y236617D01*
X196990D01*
G01Y251972D02*
X201540D01*
G01X196990Y254531D02*
X203100D01*
G01X196990Y269885D02*
X201540D01*
G01X196990Y275003D02*
X201540D01*
G01Y290358D02*
X196990D01*
G01X201540Y285239D02*
X196990D01*
G01Y280121D02*
X201540D01*
G01Y295476D02*
X196990D01*
G01X270100Y90000D02*
X250400Y109700D01*
Y212300D01*
X279836Y241736D01*
X309610D01*
G01X265050Y85800D02*
Y89950D01*
X246800Y108200D01*
Y213500D01*
X277594Y244295D01*
X309610D01*
G01X275100Y85800D02*
Y89900D01*
X253900Y111100D01*
Y211300D01*
X281776Y239176D01*
X309610D01*
G01Y249413D02*
X275887D01*
X250100Y275200D01*
Y363500D01*
X264200Y377600D01*
G01X309610Y251972D02*
X277428D01*
X253000Y276400D01*
Y361500D01*
X269150Y377650D01*
Y381100D01*
G01X265134Y38600D02*
Y51266D01*
X265100Y51300D01*
G01Y57300D02*
Y60544D01*
X269756Y65200D01*
G01X265050Y79800D02*
X271900Y72950D01*
Y66705D01*
X270395Y65200D01*
X269756D01*
G01X290100Y90100D02*
X263900Y116300D01*
Y208700D01*
X286699Y231499D01*
X309610D01*
G01X285100Y85800D02*
Y89800D01*
X260800Y114100D01*
Y209800D01*
X285058Y234058D01*
X309610D01*
G01X280100Y90000D02*
X257300Y112800D01*
Y210600D01*
X283317Y236617D01*
X309610D01*
G01X295100Y85795D02*
Y89800D01*
X267000Y117900D01*
Y207900D01*
X288040Y228940D01*
X309610D01*
G01Y262208D02*
X285192D01*
X264300Y283100D01*
Y352700D01*
X289250Y377650D01*
Y381100D01*
G01X309610Y254531D02*
X279869D01*
X255700Y278700D01*
Y359000D01*
X274200Y377500D01*
G01X309610Y257090D02*
X282010D01*
X258700Y280400D01*
Y356900D01*
X279250Y377450D01*
Y381100D01*
G01X309610Y259649D02*
X284151D01*
X261500Y282300D01*
Y354800D01*
X284200Y377500D01*
G01X309610Y264767D02*
X286433D01*
X267300Y283900D01*
Y350600D01*
X294200Y377500D01*
G01X269150Y409600D02*
X271200Y407550D01*
Y398392D01*
X269771Y396963D01*
X269131D01*
G01D02*
Y387119D01*
X269150Y387100D01*
G01X269131Y402575D02*
Y400900D01*
G01X269166Y428500D02*
Y415616D01*
X269150Y415600D01*
G01X275134Y38600D02*
Y51266D01*
X275100Y51300D01*
G01Y57300D02*
X273000Y59400D01*
Y67705D01*
X274432Y69137D01*
X275071D01*
G01D02*
Y79771D01*
X275100Y79800D01*
G01X275071Y63100D02*
Y65200D01*
G01X270100Y71200D02*
Y69481D01*
X269756Y69137D01*
G01X305100Y85795D02*
Y89800D01*
X273300Y121600D01*
Y206000D01*
X291122Y223822D01*
X309610D01*
G01X300300Y90100D02*
X270300Y120100D01*
Y206900D01*
X289781Y226381D01*
X309610D01*
G01X320100Y90000D02*
X283200Y126900D01*
Y202500D01*
X296845Y216145D01*
X309610D01*
G01X310100Y89900D02*
X276700Y123300D01*
Y204900D01*
X293063Y221263D01*
X309610D01*
G01Y218704D02*
X294704D01*
X279800Y203800D01*
Y125300D01*
X315100Y90000D01*
Y85795D01*
G01X309610Y269885D02*
X289315D01*
X272900Y286300D01*
Y346200D01*
X304200Y377500D01*
G01X309610Y267326D02*
X287974D01*
X270100Y285200D01*
Y348305D01*
X299200Y377405D01*
Y381105D01*
G01X309610Y272444D02*
X290856D01*
X275800Y287500D01*
Y343900D01*
X309200Y377300D01*
Y381105D01*
G01X319200D02*
Y377400D01*
X282700Y340900D01*
Y289700D01*
X294838Y277562D01*
X309610D01*
G01X314200Y377500D02*
X278800Y342100D01*
Y288600D01*
X292397Y275003D01*
X309610D01*
G01X279250Y387100D02*
X272400Y393950D01*
Y399493D01*
X273807Y400900D01*
X274446D01*
G01X274200Y395500D02*
Y396717D01*
X274446Y396963D01*
G01X279200Y409600D02*
Y405654D01*
X274446Y400900D01*
G01X279166Y428500D02*
Y415634D01*
X279200Y415600D01*
G01X285134Y38600D02*
Y51266D01*
X285100Y51300D01*
G01X295134Y38600D02*
Y51266D01*
X295100Y51300D01*
G01Y63200D02*
Y65173D01*
X295073Y65200D01*
G01X295100Y57300D02*
X293000Y59400D01*
Y67703D01*
X294434Y69137D01*
X295073D01*
G01D02*
Y79769D01*
X295100Y79795D01*
G01X285100Y57300D02*
Y60541D01*
X289759Y65200D01*
G01X285100Y79800D02*
X291900Y73000D01*
Y66702D01*
X290398Y65200D01*
X289759D01*
G01X290100Y71200D02*
Y69478D01*
X289759Y69137D01*
G01X325100Y85800D02*
Y89900D01*
X286600Y128400D01*
Y201700D01*
X298486Y213586D01*
X309610D01*
G01X330100Y89900D02*
X289800Y130200D01*
Y200600D01*
X300227Y211027D01*
X309610D01*
G01Y208468D02*
X301268D01*
X292700Y199900D01*
Y132400D01*
X335100Y90000D01*
Y85800D01*
G01X340100Y89900D02*
X295500Y134500D01*
Y199100D01*
X302309Y205909D01*
X309610D01*
G01X345100Y85800D02*
Y89800D01*
X298400Y136500D01*
Y198200D01*
X303550Y203350D01*
X309610D01*
G01X329250Y381100D02*
Y377650D01*
X288800Y337200D01*
Y292100D01*
X298220Y282680D01*
X309610D01*
G01X334200Y377500D02*
X292100Y335400D01*
Y293100D01*
X299961Y285239D01*
X309610D01*
G01X339250Y381100D02*
Y377650D01*
X295600Y334000D01*
Y293800D01*
X301601Y287798D01*
X309610D01*
G01X324200Y377500D02*
X285700Y339000D01*
Y290900D01*
X296479Y280121D01*
X309610D01*
G01X344200Y377500D02*
X299100Y332400D01*
Y294700D01*
X303442Y290358D01*
X309610D01*
G01X294200Y394900D02*
Y396614D01*
X294549Y396963D01*
G01X289200Y409600D02*
X291300Y407500D01*
Y398390D01*
X289873Y396963D01*
X289234D01*
G01D02*
Y387116D01*
X289250Y387100D01*
G01X299200Y387105D02*
X292500Y393805D01*
Y399491D01*
X293909Y400900D01*
X294549D01*
G01X289234Y402900D02*
Y400900D01*
G01X299200Y409600D02*
Y405551D01*
X294549Y400900D01*
G01X289166Y428500D02*
Y415634D01*
X289200Y415600D01*
G01X299166Y428500D02*
Y415634D01*
X299200Y415600D01*
G01X305134Y38600D02*
Y51266D01*
X305100Y51300D01*
G01X315100Y57300D02*
X313100Y59300D01*
Y67800D01*
X314436Y69137D01*
X315076D01*
G01X310100Y71300D02*
Y69476D01*
X309761Y69137D01*
G01X305100Y79795D02*
X311900Y72995D01*
Y66700D01*
X310400Y65200D01*
X309761D01*
G01X305100Y57300D02*
Y60539D01*
X309761Y65200D01*
G01X350100Y89900D02*
X300900Y139100D01*
Y197000D01*
X304691Y200791D01*
X309610D01*
G01X349150Y381100D02*
Y377450D01*
X301800Y330100D01*
Y295800D01*
X304683Y292917D01*
X309610D01*
G01X309200Y409600D02*
X311300Y407500D01*
Y398402D01*
X309861Y396963D01*
X309222D01*
G01D02*
Y387126D01*
X309200Y387105D01*
G01X314200Y394900D02*
Y396626D01*
X314537Y396963D01*
G01X319200Y387105D02*
X312500Y393805D01*
Y399503D01*
X313897Y400900D01*
X314537D01*
G01X309222Y402900D02*
Y400900D01*
G01X309166Y428500D02*
Y415634D01*
X309200Y415600D01*
G01X325134Y38600D02*
Y51266D01*
X325100Y51300D01*
G01X315134Y38600D02*
Y51266D01*
X315100Y51300D01*
G01X315076Y69137D02*
Y79771D01*
X315100Y79795D01*
G01Y63200D02*
Y65176D01*
X315076Y65200D01*
G01X325100Y57300D02*
Y60534D01*
X329766Y65200D01*
G01X325100Y79800D02*
X331900Y73000D01*
Y66695D01*
X330405Y65200D01*
X329766D01*
G01X325850Y187110D02*
Y119150D01*
X355100Y89900D01*
Y85795D01*
G01X328409Y187110D02*
Y121591D01*
X360100Y89900D01*
G01X323291Y309157D02*
Y346591D01*
X354200Y377500D01*
G01X328409Y309157D02*
Y341709D01*
X364200Y377500D01*
G01X325850Y309157D02*
Y344050D01*
X359200Y377400D01*
Y381100D01*
G01X329207Y396963D02*
Y387143D01*
X329250Y387100D01*
G01X329200Y409600D02*
X331200Y407600D01*
Y398316D01*
X329847Y396963D01*
X329207D01*
G01X329200Y403000D02*
Y400907D01*
X329207Y400900D01*
G01X319200Y409600D02*
Y405563D01*
X314537Y400900D01*
G01X329166Y428500D02*
Y415634D01*
X329200Y415600D01*
G01X319166Y428500D02*
Y415634D01*
X319200Y415600D01*
G01X335134Y38600D02*
Y51266D01*
X335100Y51300D01*
G01X330100Y71200D02*
Y69471D01*
X329766Y69137D01*
G01X335100Y63200D02*
Y65181D01*
X335081Y65200D01*
G01X335100Y57300D02*
X333100Y59300D01*
Y67796D01*
X334441Y69137D01*
X335081D01*
G01D02*
Y79781D01*
X335100Y79800D01*
G01X330968Y187110D02*
Y124132D01*
X365100Y90000D01*
Y85795D01*
G01X338645Y187110D02*
Y131355D01*
X380100Y89900D01*
G01X336086Y187110D02*
Y128914D01*
X375100Y89900D01*
Y85795D01*
G01X333527Y187110D02*
Y126473D01*
X370100Y89900D01*
G01X343763Y187110D02*
Y136237D01*
X390100Y89900D01*
G01X341204Y187110D02*
Y133996D01*
X385150Y90050D01*
Y85800D01*
G01X338645Y309157D02*
Y331945D01*
X384200Y377500D01*
G01X343763Y309157D02*
Y327063D01*
X394200Y377500D01*
G01X333527Y309157D02*
Y336827D01*
X374200Y377500D01*
G01X341204Y309157D02*
Y329504D01*
X389200Y377500D01*
Y381105D01*
G01X330968Y309157D02*
Y339268D01*
X369200Y377500D01*
Y381100D01*
G01X336086Y309157D02*
Y334486D01*
X379200Y377600D01*
Y381100D01*
G01X339250Y387100D02*
X332400Y393950D01*
Y399417D01*
X333883Y400900D01*
X334522D01*
G01X334200Y395000D02*
Y396641D01*
X334522Y396963D01*
G01X339200Y409600D02*
Y405578D01*
X334522Y400900D01*
G01X339166Y428500D02*
Y415634D01*
X339200Y415600D01*
G01X345134Y38600D02*
Y51284D01*
X345150Y51300D01*
G01X355134Y38600D02*
Y51266D01*
X355100Y51300D01*
G01Y57300D02*
X353000Y59400D01*
Y67686D01*
X354451Y69137D01*
X355090D01*
G01D02*
Y79786D01*
X355100Y79795D01*
G01X350100Y71300D02*
Y69462D01*
X349775Y69137D01*
G01X355100Y63200D02*
Y65190D01*
X355090Y65200D01*
G01X345100Y79800D02*
X351900Y73000D01*
Y66685D01*
X350415Y65200D01*
X349775D01*
G01X345150Y57300D02*
Y60575D01*
X349775Y65200D01*
G01X346322Y187110D02*
Y138778D01*
X395150Y89950D01*
Y85800D01*
G01X351440Y187110D02*
Y143560D01*
X405100Y89900D01*
Y85795D01*
G01X348881Y187110D02*
Y141119D01*
X400100Y89900D01*
G01X353999Y187110D02*
Y146001D01*
X410100Y89900D01*
G01X415100Y85795D02*
Y90000D01*
X356558Y148542D01*
Y187110D01*
G01X359117D02*
Y150983D01*
X420100Y90000D01*
G01X356558Y309157D02*
Y315158D01*
X419200Y377800D01*
Y381100D01*
G01X351440Y309157D02*
Y319840D01*
X409150Y377550D01*
Y381100D01*
G01X348881Y309157D02*
Y322381D01*
X404100Y377600D01*
G01X346322Y309157D02*
Y324422D01*
X399200Y377300D01*
Y381105D01*
G01X353999Y309157D02*
Y317299D01*
X414200Y377500D01*
G01X359200Y387100D02*
X352400Y393900D01*
Y399424D01*
X353876Y400900D01*
X354515D01*
G01X349200Y409600D02*
X351300Y407500D01*
Y398424D01*
X349840Y396963D01*
X349200D01*
G01D02*
Y387150D01*
X349150Y387100D01*
G01X354515Y396963D02*
X354200Y396648D01*
Y395100D01*
G01X359150Y409600D02*
Y405535D01*
X354515Y400900D01*
G01X349200Y402700D02*
Y400900D01*
G01X349166Y428500D02*
Y415634D01*
X349200Y415600D01*
G01X359166Y428500D02*
Y415616D01*
X359150Y415600D01*
G01X365134Y38600D02*
Y51266D01*
X365100Y51300D01*
G01X375100Y57300D02*
X373000Y59400D01*
Y67693D01*
X374444Y69137D01*
X375083D01*
G01X365100Y79795D02*
X371900Y72995D01*
Y66693D01*
X370407Y65200D01*
X369768D01*
G01X365100Y57300D02*
Y60532D01*
X369768Y65200D01*
G01X370100Y71200D02*
Y69469D01*
X369768Y69137D01*
G01X366795Y187110D02*
Y158405D01*
X394900Y130300D01*
X419295D01*
G01X371900Y171500D02*
Y167900D01*
G01X371913Y181913D02*
Y177513D01*
X371900Y177500D01*
G01X371913Y187110D02*
Y181913D01*
G01X369200Y409600D02*
X371200Y407600D01*
Y398319D01*
X369844Y396963D01*
X369205D01*
G01D02*
Y387105D01*
X369200Y387100D01*
G01X379200D02*
X372400Y393900D01*
Y399419D01*
X373881Y400900D01*
X374520D01*
G01X369205D02*
Y402995D01*
X369200Y403000D01*
G01X369205Y398932D02*
X366868D01*
G01X369166Y428500D02*
Y415634D01*
X369200Y415600D01*
G01X375134Y38600D02*
Y51266D01*
X375100Y51300D01*
G01X385134Y38600D02*
Y51266D01*
X385100Y51300D01*
G01X375083Y69137D02*
Y79778D01*
X375100Y79795D01*
G01X385100Y57300D02*
Y60430D01*
X389870Y65200D01*
G01X375100Y63200D02*
Y65183D01*
X375083Y65200D01*
G01X385150Y79800D02*
X391900Y73050D01*
Y66590D01*
X390510Y65200D01*
X389870D01*
G01X382149Y187110D02*
Y189851D01*
X380000Y192000D01*
G01X377031Y182560D02*
Y187110D01*
G01X374472D02*
Y191828D01*
G01X394800Y304300D02*
X389751D01*
X387267Y306784D01*
Y309157D01*
G01X387600Y302900D02*
X384708Y305792D01*
Y309157D01*
G01X382149D02*
Y304607D01*
G01X389800Y319200D02*
X384300D01*
G01X378800D02*
X384300D01*
G01Y328900D02*
Y325200D01*
G01X378800D02*
Y328900D01*
G01X374200Y395300D02*
Y396643D01*
X374520Y396963D01*
G01Y398932D02*
X376432D01*
G01X379200Y409600D02*
Y405580D01*
X374520Y400900D01*
G01X379166Y428500D02*
Y415634D01*
X379200Y415600D01*
G01X395134Y38600D02*
Y51284D01*
X395150Y51300D01*
G01Y57300D02*
X393100Y59350D01*
Y67691D01*
X394546Y69137D01*
X395185D01*
G01D02*
Y79765D01*
X395150Y79800D01*
G01X390100Y71200D02*
Y69366D01*
X389870Y69137D01*
G01X395200Y63200D02*
Y65185D01*
X395185Y65200D01*
G01X403000Y167900D02*
Y171450D01*
X403050Y171500D01*
G01X397500D02*
Y167800D01*
G01X402621Y187110D02*
Y177929D01*
X403050Y177500D01*
G01X397500D02*
X403050D01*
G01X408500D02*
X403050D01*
G01X397503Y187110D02*
Y182097D01*
G01X400062Y187110D02*
Y190362D01*
X402000Y192300D01*
G01X397450Y319200D02*
X403000D01*
G01X397503Y309157D02*
Y319147D01*
X397450Y319200D01*
G01X408500D02*
X403000D01*
G01X392385Y309157D02*
Y316615D01*
X389800Y319200D01*
G01X389826Y309157D02*
Y313707D01*
G01X400062Y309157D02*
Y313707D01*
G01X402621Y309157D02*
Y315300D01*
G01X394944Y309157D02*
Y313707D01*
G01X403000Y325200D02*
Y328900D01*
G01X397400D02*
Y325250D01*
X397450Y325200D01*
G01X389800D02*
Y328900D01*
G01X399200Y387105D02*
X392400Y393905D01*
Y399422D01*
X393878Y400900D01*
X394518D01*
G01X389203Y396963D02*
Y387107D01*
X389200Y387105D01*
G01Y409600D02*
X391300Y407500D01*
Y398421D01*
X389842Y396963D01*
X389203D01*
G01X394200Y395200D02*
Y396646D01*
X394518Y396963D01*
G01X389203Y402900D02*
Y400900D01*
G01X399200Y409600D02*
Y405582D01*
X394518Y400900D01*
G01X399166Y428500D02*
Y415634D01*
X399200Y415600D01*
G01X389166Y428500D02*
Y415634D01*
X389200Y415600D01*
G01X405134Y38600D02*
Y51266D01*
X405100Y51300D01*
G01X415134Y38600D02*
Y51266D01*
X415100Y51300D01*
G01Y63200D02*
Y65188D01*
X415088Y65200D01*
G01X405100Y79795D02*
X411800Y73095D01*
Y66588D01*
X410412Y65200D01*
X409773D01*
G01X405100Y57300D02*
Y60527D01*
X409773Y65200D01*
G01X410100Y71200D02*
Y69464D01*
X409773Y69137D01*
G01X415100Y57300D02*
X413100Y59300D01*
Y67788D01*
X414448Y69137D01*
X415088D01*
G01D02*
Y79783D01*
X415100Y79795D01*
G01X415417Y187110D02*
Y155903D01*
X415480Y155840D01*
G01X412857Y187110D02*
Y162278D01*
X406380Y155800D01*
G01X417976Y187110D02*
Y162484D01*
X424580Y155880D01*
G01X408500Y171500D02*
Y167900D01*
G01X415417Y309157D02*
Y319167D01*
X415450Y319200D01*
G01X421000D02*
X415450D01*
G01X412857Y309157D02*
Y313707D01*
G01X415450Y325200D02*
Y328850D01*
G01X408500Y328800D02*
Y325200D01*
G01X419200Y387100D02*
X412500Y393800D01*
Y399527D01*
X413873Y400900D01*
X414513D01*
G01X409200Y409600D02*
X411200Y407600D01*
Y398326D01*
X409837Y396963D01*
X409198D01*
G01D02*
Y387148D01*
X409150Y387100D01*
G01X414200Y395100D02*
Y396650D01*
X414513Y396963D01*
G01X419200Y409600D02*
Y405587D01*
X414513Y400900D01*
G01X409198D02*
Y402998D01*
X409200Y403000D01*
G01X409166Y428500D02*
Y415634D01*
X409200Y415600D01*
G01X431657Y203350D02*
X427350D01*
G01X436207Y216210D02*
X431722D01*
X431657Y216145D01*
G01X427000Y213651D02*
X431591D01*
X431657Y213586D01*
G01X427000Y218769D02*
X431591D01*
X431657Y218704D01*
G01X436207Y211027D02*
X431657D01*
G01Y208468D02*
X427232D01*
G01X431657Y205909D02*
X427209D01*
G01X436207Y221328D02*
X431722D01*
X431657Y221263D01*
G01X436650Y233567D02*
X436159Y234058D01*
X431657D01*
G01Y231499D02*
X439299D01*
X441100Y233300D01*
G01X431657Y228940D02*
X439460D01*
X441100Y227300D01*
G01X431657Y223822D02*
X426878D01*
G01X436919Y226381D02*
X431657D01*
G01Y246854D02*
X439354D01*
X441100Y248600D01*
G01X431657Y244295D02*
X439406D01*
X441100Y242600D01*
G01X426200Y242197D02*
X426662Y241736D01*
X431657D01*
G01X426200Y238714D02*
X426662Y239176D01*
X431657D01*
G01X436650Y237050D02*
X436217Y236617D01*
X431657D01*
G01X436207Y251972D02*
X431657D01*
G01Y254531D02*
X437900D01*
G01X431657Y259649D02*
X426749D01*
G01X431657Y257090D02*
X426710D01*
G01X431657Y262208D02*
X426692D01*
G01X436207Y269885D02*
X431657D01*
G01Y264767D02*
X426733D01*
G01X431657Y267326D02*
X426674D01*
G01X427107Y272444D02*
X431657D01*
G01X436207Y275000D02*
X431660D01*
X431657Y275003D01*
G01Y277562D02*
X427107D01*
G01X431657Y292917D02*
X427107D01*
G01Y282680D02*
X431657D01*
G01X436207Y285239D02*
X431657D01*
G01X427107Y287798D02*
X431657D01*
G01X436207Y290358D02*
X431657D01*
G01X436207Y280100D02*
X436185Y280121D01*
X431657D01*
G01X436207Y295476D02*
X431657D01*
G01X426500Y319200D02*
X421000D01*
G01Y328900D02*
Y325200D01*
G01X426500D02*
Y328800D01*
G01X419166Y428500D02*
Y415634D01*
X419200Y415600D01*
G01X449082Y232042D02*
X448040Y231000D01*
X443400D01*
X441100Y233300D01*
G01X449082Y228559D02*
X448040Y229600D01*
X443400D01*
X441100Y227300D01*
G01X460800Y247483D02*
X459617Y246300D01*
X443400D01*
X441100Y248600D01*
G01X460800Y244000D02*
X459900Y244900D01*
X443400D01*
X441100Y242600D01*
G01X544310Y244295D02*
X515694D01*
X486500Y215100D01*
Y103500D01*
X499934Y90066D01*
Y86100D01*
G01X544310Y239176D02*
X518276D01*
X491700Y212600D01*
Y108200D01*
X509934Y89966D01*
Y86100D01*
G01X544310Y241736D02*
X517036D01*
X489000Y213700D01*
Y105900D01*
X504900Y90000D01*
G01X504100Y381200D02*
Y377500D01*
X488300Y361700D01*
Y279400D01*
X515728Y251972D01*
X544310D01*
G01X509100Y377500D02*
X491600Y360000D01*
Y280000D01*
X517069Y254531D01*
X544310D01*
G01X499100Y377500D02*
X485100Y363500D01*
Y278700D01*
X514387Y249413D01*
X544310D01*
G01X500000Y51600D02*
Y38666D01*
X499934Y38600D01*
G01X509900Y57600D02*
X508097Y59403D01*
Y68032D01*
X509102Y69037D01*
X509883D01*
G01X499934Y80100D02*
X506797Y73237D01*
Y66548D01*
X505349Y65100D01*
X504568D01*
G01X500000Y57600D02*
Y60532D01*
X504568Y65100D01*
G01X504900Y71000D02*
Y69369D01*
X504568Y69037D01*
G01X544310Y236617D02*
X519717D01*
X494400Y211300D01*
Y110400D01*
X514900Y89900D01*
G01X544310Y234058D02*
X520558D01*
X496900Y210400D01*
Y113100D01*
X520034Y89966D01*
Y86100D01*
G01X544310Y228940D02*
X522840D01*
X502300Y208400D01*
Y117600D01*
X529900Y90000D01*
Y86100D01*
G01X544310Y231499D02*
X521799D01*
X499700Y209400D01*
Y115100D01*
X524900Y89900D01*
G01X544310Y226381D02*
X524281D01*
X505000Y207100D01*
Y119800D01*
X534900Y89900D01*
G01X544310Y223822D02*
X525522D01*
X507600Y205900D01*
Y122200D01*
X539900Y89900D01*
Y86100D01*
G01X524100Y381200D02*
Y377400D01*
X501200Y354500D01*
Y282300D01*
X521292Y262208D01*
X544310D01*
G01X529100Y377500D02*
X504000Y352400D01*
Y283000D01*
X522233Y264767D01*
X544310D01*
G01X514100Y381200D02*
Y377500D01*
X494900Y358300D01*
Y280900D01*
X518710Y257090D01*
X544310D01*
G01X519100Y377500D02*
X498100Y356500D01*
Y281300D01*
X519751Y259649D01*
X544310D01*
G01Y267326D02*
X523174D01*
X506700Y283800D01*
Y350200D01*
X534100Y377600D01*
Y381200D01*
G01X514100Y387200D02*
X507200Y394100D01*
Y399463D01*
X508637Y400900D01*
X509418D01*
G01X504103Y396963D02*
Y387203D01*
X504100Y387200D01*
G01X504066Y409600D02*
X505888Y407778D01*
Y397968D01*
X504883Y396963D01*
X504103D01*
G01Y402900D02*
Y400900D01*
G01X504066Y415600D02*
Y428500D01*
G01X509900Y51600D02*
Y38634D01*
X509934Y38600D01*
G01X520000Y51600D02*
Y38666D01*
X519934Y38600D01*
G01X509934Y80100D02*
Y69088D01*
X509883Y69037D01*
G01Y63100D02*
Y65100D01*
G01X520000Y57600D02*
Y60549D01*
X524551Y65100D01*
G01X520034Y80100D02*
X526700Y73434D01*
Y66468D01*
X525332Y65100D01*
X524551D01*
G01X544310Y221263D02*
X526863D01*
X510200Y204600D01*
Y124600D01*
X544900Y89900D01*
G01X544310Y213586D02*
X530086D01*
X518000Y201500D01*
Y131900D01*
X559900Y90000D01*
Y86100D01*
G01X544310Y216145D02*
X529145D01*
X515400Y202400D01*
Y129400D01*
X554900Y89900D01*
G01X544310Y218704D02*
X528104D01*
X512900Y203500D01*
Y127000D01*
X549900Y90000D01*
Y86100D01*
G01X544310Y208468D02*
X532868D01*
X523600Y199200D01*
Y136400D01*
X569934Y90066D01*
Y86100D01*
G01X544310Y211027D02*
X531027D01*
X520600Y200600D01*
Y134200D01*
X564900Y89900D01*
G01X544310Y272444D02*
X526256D01*
X512200Y286500D01*
Y345500D01*
X544100Y377400D01*
Y381200D01*
G01X544310Y269885D02*
X524715D01*
X509500Y285100D01*
Y347800D01*
X539200Y377500D01*
G01X544310Y275003D02*
X527397D01*
X515100Y287300D01*
Y343600D01*
X548800Y377300D01*
G01X544310Y277562D02*
X529538D01*
X517800Y289300D01*
Y341500D01*
X554100Y377800D01*
Y381200D01*
G01X544310Y280121D02*
X531879D01*
X520600Y291400D01*
Y339500D01*
X558400Y377300D01*
G01X544310Y282680D02*
X533420D01*
X523000Y293100D01*
Y336600D01*
X564066Y377666D01*
Y381200D01*
G01X509100Y395200D02*
Y396646D01*
X509418Y396963D01*
G01X514066Y409600D02*
Y405549D01*
X509418Y400900D01*
G01X514066Y415600D02*
Y428500D01*
G01X529900Y51600D02*
Y38634D01*
X529934Y38600D01*
G01X529900Y80100D02*
Y69071D01*
X529866Y69037D01*
G01X529900Y57600D02*
X528080Y59420D01*
Y68276D01*
X528842Y69037D01*
X529866D01*
G01X524900Y70800D02*
Y69386D01*
X524551Y69037D01*
G01X529866Y63100D02*
Y65100D01*
G01X544310Y205909D02*
X544301Y205900D01*
X533900D01*
X526500Y198500D01*
Y138300D01*
X574900Y89900D01*
G01X579934Y86100D02*
Y89866D01*
X529000Y140800D01*
Y197600D01*
X534750Y203350D01*
X544310D01*
G01X584900Y90000D02*
X531500Y143400D01*
Y196900D01*
X535391Y200791D01*
X544310D01*
G01X584066Y381200D02*
Y377666D01*
X534200Y327800D01*
Y297000D01*
X538283Y292917D01*
X544310D01*
G01Y285239D02*
X534961D01*
X525800Y294400D01*
Y334400D01*
X568700Y377300D01*
G01X578900D02*
X531300Y329700D01*
Y296400D01*
X537342Y290358D01*
X544310D01*
G01X574066Y381200D02*
Y378066D01*
X528600Y332600D01*
Y295600D01*
X536402Y287798D01*
X544310D01*
G01X524115Y396963D02*
Y387215D01*
X524100Y387200D01*
G01Y409600D02*
X525900Y407799D01*
Y397968D01*
X524895Y396963D01*
X524115D01*
G01X534100Y387200D02*
X527200Y394100D01*
Y399452D01*
X528649Y400900D01*
X529430D01*
G01X529100Y395200D02*
Y396634D01*
X529430Y396963D01*
G01X524115Y402900D02*
Y400900D01*
G01X534100Y409600D02*
Y405570D01*
X529430Y400900D01*
G01X524100Y415600D02*
Y428466D01*
X524066Y428500D01*
G01X534100Y415600D02*
Y428466D01*
X534066Y428500D01*
G01X549900Y51600D02*
Y38634D01*
X549934Y38600D01*
G01X539900Y51600D02*
Y38634D01*
X539934Y38600D01*
G01X549900Y80100D02*
Y69068D01*
X549869Y69037D01*
G01X549900Y57600D02*
X548083Y59417D01*
Y68032D01*
X549088Y69037D01*
X549869D01*
G01Y63100D02*
Y65100D01*
G01X539900Y57600D02*
Y60446D01*
X544554Y65100D01*
G01X539900Y80100D02*
X546700Y73300D01*
Y66466D01*
X545334Y65100D01*
X544554D01*
G01X544900Y70800D02*
Y69383D01*
X544554Y69037D01*
G01X544105Y396963D02*
Y387205D01*
X544100Y387200D01*
G01Y409600D02*
X545891Y407809D01*
Y397968D01*
X544886Y396963D01*
X544105D01*
G01X554100Y387200D02*
X547200Y394100D01*
Y399461D01*
X548639Y400900D01*
X549420D01*
G01X549100Y395000D02*
Y396643D01*
X549420Y396963D01*
G01X544105Y403000D02*
Y400900D01*
G01X554100Y409600D02*
Y405580D01*
X549420Y400900D01*
G01X544100Y415600D02*
Y428466D01*
X544066Y428500D01*
G01X559934Y51600D02*
Y38600D01*
G01Y57600D02*
Y60378D01*
X564656Y65100D01*
G01X559900Y80100D02*
X566800Y73200D01*
Y66463D01*
X565437Y65100D01*
X564656D01*
G01X564900Y70800D02*
Y69281D01*
X564656Y69037D01*
G01X569934Y57600D02*
X568185Y59349D01*
Y68032D01*
X569190Y69037D01*
X569971D01*
G01X560550Y187110D02*
Y119350D01*
X589900Y90000D01*
Y86100D01*
G01X565668Y187110D02*
Y124232D01*
X600000Y89900D01*
Y86100D01*
G01X563109Y187110D02*
Y121791D01*
X595000Y89900D01*
G01X568227Y187110D02*
Y126573D01*
X604900Y89900D01*
G01X565668Y309157D02*
Y339268D01*
X604000Y377600D01*
Y381200D01*
G01X560550Y309157D02*
Y344150D01*
X594166Y377766D01*
Y381200D01*
G01X557991Y309157D02*
Y346391D01*
X589100Y377500D01*
G01X568227Y309157D02*
Y336627D01*
X609100Y377500D01*
G01X563109Y309157D02*
Y341509D01*
X599100Y377500D01*
G01X574066Y387200D02*
X567200Y394066D01*
Y399466D01*
X568634Y400900D01*
X569415D01*
G01X564100Y396963D02*
Y387234D01*
X564066Y387200D01*
G01X564100Y409600D02*
X565886Y407814D01*
Y397968D01*
X564881Y396963D01*
X564100D01*
G01Y402900D02*
Y400900D01*
G01X564100Y415600D02*
Y428466D01*
X564066Y428500D01*
G01X554100Y415600D02*
Y428466D01*
X554066Y428500D01*
G01X569934Y51600D02*
Y38600D01*
G01X579934Y51600D02*
Y38600D01*
G01X569971Y63100D02*
Y65100D01*
G01X579934Y57600D02*
Y60475D01*
X584558Y65100D01*
G01X569934Y80100D02*
Y69074D01*
X569971Y69037D01*
G01X579934Y80100D02*
X586700Y73334D01*
Y66461D01*
X585339Y65100D01*
X584558D01*
G01X575904Y187110D02*
Y134096D01*
X620000Y90000D01*
Y86100D01*
G01X570786Y187110D02*
Y129214D01*
X609900Y90100D01*
Y86100D01*
G01X573345Y187110D02*
X573300Y187065D01*
Y131500D01*
X614900Y89900D01*
G01X583581Y187110D02*
X583600Y187091D01*
Y141200D01*
X634900Y89900D01*
G01X581022Y187110D02*
Y138878D01*
X629934Y89966D01*
Y86100D01*
G01X578463Y187110D02*
Y136437D01*
X625000Y89900D01*
G01X575904Y309157D02*
Y329604D01*
X624100Y377800D01*
Y381200D01*
G01X581022Y309157D02*
Y324822D01*
X634100Y377900D01*
Y381200D01*
G01X573345Y309157D02*
Y331545D01*
X619100Y377300D01*
G01X570786Y309157D02*
Y334186D01*
X614100Y377500D01*
Y381200D01*
G01X578463Y309157D02*
Y326863D01*
X629100Y377500D01*
G01X583581Y309157D02*
Y321981D01*
X639100Y377500D01*
G01X569100Y395200D02*
Y396648D01*
X569415Y396963D01*
G01X574066Y409600D02*
Y405551D01*
X569415Y400900D01*
G01X574066Y415600D02*
Y428500D01*
G01X589900Y51600D02*
Y38634D01*
X589934Y38600D01*
G01X590300Y63400D02*
Y64673D01*
X589873Y65100D01*
G01X589900Y57600D02*
X588088Y59412D01*
Y68032D01*
X589093Y69037D01*
X589873D01*
G01D02*
Y80073D01*
X589900Y80100D01*
G01X584900Y71000D02*
Y69378D01*
X584558Y69037D01*
G01X588699Y187110D02*
Y146201D01*
X645000Y89900D01*
G01X586140Y187110D02*
Y143760D01*
X639900Y90000D01*
Y86100D01*
G01X591258Y187110D02*
Y148742D01*
X649900Y90100D01*
Y86100D01*
G01X593817Y187110D02*
Y150983D01*
X654900Y89900D01*
G01X586140Y309157D02*
Y319540D01*
X644100Y377500D01*
Y381200D01*
G01X588699Y309157D02*
Y317099D01*
X649100Y377500D01*
G01X591258Y309157D02*
Y313658D01*
X654066Y376466D01*
Y381200D01*
G01X584012Y396963D02*
Y387254D01*
X584066Y387200D01*
G01Y409600D02*
X585798Y407868D01*
Y397968D01*
X584793Y396963D01*
X584012D01*
G01X589100Y395400D02*
Y396736D01*
X589327Y396963D01*
G01X594166Y387200D02*
X587100Y394266D01*
Y399454D01*
X588546Y400900D01*
X589327D01*
G01X584012Y402900D02*
Y400900D01*
G01X594066Y409600D02*
Y405639D01*
X589327Y400900D01*
G01X594066Y415600D02*
Y428500D01*
G01X584066Y415600D02*
Y428500D01*
G01X609900Y51600D02*
Y38634D01*
X609934Y38600D01*
G01X600000Y51600D02*
Y38666D01*
X599934Y38600D01*
G01X600000Y57600D02*
Y60539D01*
X604561Y65100D01*
G01X600000Y80100D02*
X606700Y73400D01*
Y66458D01*
X605342Y65100D01*
X604561D01*
G01X609900Y57600D02*
X608090Y59410D01*
Y68032D01*
X609095Y69037D01*
X609876D01*
G01D02*
Y80076D01*
X609900Y80100D01*
G01X604900Y70700D02*
Y69376D01*
X604561Y69037D01*
G01X609876Y63100D02*
Y65100D01*
G01X653995Y130400D02*
X631300D01*
X601494Y160206D01*
Y187110D01*
G01X606634Y167834D02*
Y171600D01*
G01X609172Y187110D02*
Y191828D01*
G01X611731Y187110D02*
Y181600D01*
G01X606613Y182213D02*
Y177621D01*
X606634Y177600D01*
G01X606613Y187110D02*
Y182213D01*
G01X613366Y318600D02*
X618900D01*
G01X613400Y328300D02*
Y324634D01*
X613366Y324600D01*
G01X614100Y387200D02*
X607100Y394200D01*
Y399456D01*
X608544Y400900D01*
X609325D01*
G01X609100Y395200D02*
Y396738D01*
X609325Y396963D01*
G01X604010D02*
Y387210D01*
X604000Y387200D01*
G01X604066Y409600D02*
X605796Y407870D01*
Y397968D01*
X604790Y396963D01*
X604010D01*
G01X614100Y409600D02*
Y405675D01*
X609325Y400900D01*
G01X604010Y402900D02*
Y400900D01*
G01X604066Y415600D02*
Y428500D01*
G01X619934Y51600D02*
Y38600D01*
G01X624900Y71000D02*
Y69374D01*
X624563Y69037D01*
G01X619934Y57600D02*
Y60471D01*
X624563Y65100D01*
G01X620000Y80100D02*
X626700Y73400D01*
Y66456D01*
X625344Y65100D01*
X624563D01*
G01X629934Y57600D02*
X628092Y59442D01*
Y68032D01*
X629098Y69037D01*
X629878D01*
G01X616849Y187110D02*
Y190051D01*
X614700Y192200D01*
G01X616849Y309157D02*
Y304607D01*
G01X628100Y304500D02*
X624110D01*
X621967Y306643D01*
Y309157D01*
G01X619408D02*
Y305892D01*
X621600Y303700D01*
G01X624466Y318600D02*
X618900D01*
G01X627085Y309157D02*
Y315981D01*
X624466Y318600D01*
G01X624526Y309157D02*
Y313707D01*
G01X624500Y328300D02*
Y324634D01*
X624466Y324600D01*
G01X618900D02*
Y328300D01*
G01X624007Y396963D02*
Y387293D01*
X624100Y387200D01*
G01Y409600D02*
X625793Y407907D01*
Y397968D01*
X624788Y396963D01*
X624007D01*
G01X634100Y387200D02*
X627100Y394200D01*
Y399458D01*
X628542Y400900D01*
X629322D01*
G01X624007Y402900D02*
Y400900D01*
G01X614100Y415600D02*
Y428466D01*
X614066Y428500D01*
G01X624100Y415600D02*
Y428466D01*
X624066Y428500D01*
G01X629934Y51600D02*
Y38600D01*
G01X639934Y51600D02*
Y38600D01*
G01X629878Y63100D02*
Y65100D01*
G01X639934Y57600D02*
Y60168D01*
X644866Y65100D01*
G01X629878Y69037D02*
Y80044D01*
X629934Y80100D01*
G01X639900D02*
X646800Y73200D01*
Y66254D01*
X645646Y65100D01*
X644866D01*
G01X647558Y187110D02*
Y162784D01*
X640620Y155846D01*
G01X637834Y171600D02*
Y167966D01*
G01X632200Y167900D02*
Y171600D01*
G01X643400Y167900D02*
Y171566D01*
X643434Y171600D01*
G01X632203Y187110D02*
Y182003D01*
G01X637321Y187110D02*
Y178112D01*
X637834Y177600D01*
G01X643434D02*
X637834D01*
G01X632200D02*
X637834D01*
G01X634762Y187110D02*
Y191660D01*
G01X629644Y309157D02*
Y313707D01*
G01X634762Y309157D02*
Y313707D01*
G01X637321Y309157D02*
Y315000D01*
G01X632203Y309157D02*
Y318537D01*
X632266Y318600D01*
G01X637834D02*
X632266D01*
G01X643400D02*
X637834D01*
G01Y324600D02*
Y328266D01*
G01X632300Y328300D02*
Y324634D01*
X632266Y324600D01*
G01X643400Y328300D02*
Y324600D01*
G01X643898Y396963D02*
X641023D01*
X639100Y398886D01*
Y404600D01*
X644100Y409600D01*
G01X629100Y395100D02*
Y396741D01*
X629322Y396963D01*
G01X634100Y409600D02*
Y405678D01*
X629322Y400900D01*
G01X634100Y415600D02*
Y428466D01*
X634066Y428500D01*
G01X649934Y51600D02*
Y38600D01*
G01X645000Y70900D02*
Y69171D01*
X644866Y69037D01*
G01X650181Y63100D02*
Y65100D01*
G01X649934Y57600D02*
X648395Y59139D01*
Y68032D01*
X649400Y69037D01*
X650181D01*
G01D02*
Y79819D01*
X649900Y80100D01*
G01X650117Y187110D02*
Y155863D01*
X650100Y155846D01*
G01X652676Y187110D02*
Y162811D01*
X659640Y155846D01*
G01X650066Y318600D02*
X655600D01*
G01X650117Y309157D02*
Y318550D01*
X650066Y318600D01*
G01X661166D02*
X655600D01*
G01X647558Y309157D02*
Y313707D01*
G01X655600Y324600D02*
Y328300D01*
G01X650100D02*
Y324634D01*
X650066Y324600D01*
G01X654066Y387200D02*
X646900Y394366D01*
Y399368D01*
X648432Y400900D01*
X649213D01*
G01X643898Y396963D02*
X644100Y396761D01*
Y387200D01*
G01X649100Y394900D02*
Y396850D01*
X649213Y396963D01*
G01X654100Y409600D02*
Y405787D01*
X649213Y400900D01*
G01X643898Y402900D02*
Y400900D01*
G01X654100Y415600D02*
Y428466D01*
X654066Y428500D01*
G01X644100Y415600D02*
Y428466D01*
X644066Y428500D01*
G01X666357Y203350D02*
X661807D01*
G01X670907Y216210D02*
X666422D01*
X666357Y216145D01*
G01X661807Y213651D02*
X666291D01*
X666357Y213586D01*
G01X661807Y218769D02*
X666291D01*
X666357Y218704D01*
G01X670907Y211027D02*
X666357D01*
G01Y208468D02*
X661807D01*
G01X666357Y205909D02*
X661807D01*
G01X666357Y223822D02*
X661807D01*
G01X670907Y221328D02*
X666422D01*
X666357Y221263D01*
G01X671400Y233500D02*
X670842Y234058D01*
X666357D01*
G01Y231499D02*
X673499D01*
X675300Y233300D01*
G01X666357Y228940D02*
X673660D01*
X675300Y227300D01*
G01X670907Y226381D02*
X666357D01*
G01Y246854D02*
X673554D01*
X675300Y248600D01*
G01X666357Y244295D02*
X673606D01*
X675300Y242600D01*
G01X661100Y242400D02*
X661764Y241736D01*
X666357D01*
G01X661100Y238718D02*
X661558Y239176D01*
X666357D01*
G01X671400Y237182D02*
X670836Y236617D01*
X666357D01*
G01X670907Y251972D02*
X666357D01*
G01Y259649D02*
X661807D01*
G01X666357Y257090D02*
X661807D01*
G01X666357Y262208D02*
X661807D01*
G01X666357Y254531D02*
X672300D01*
G01X670907Y269885D02*
X666357D01*
G01Y264767D02*
X661807D01*
G01X666357Y267326D02*
X661807D01*
G01Y272444D02*
X666357D01*
G01Y275003D02*
X670797D01*
X670800Y275000D01*
X670907D01*
G01X666357Y277562D02*
X661807D01*
G01X661800Y282700D02*
X661820Y282680D01*
X666357D01*
G01X670907Y285239D02*
X666357D01*
G01X661800Y287798D02*
X666357D01*
G01X670907Y290358D02*
X666357D01*
G01Y280121D02*
X670907D01*
G01X666357Y292917D02*
X661807D01*
G01X670907Y295476D02*
X666357D01*
G01X661200Y328200D02*
Y324634D01*
X661166Y324600D01*
G01X679800Y232083D02*
X679517Y231800D01*
X676800D01*
X675300Y233300D01*
G01X679800Y228600D02*
X676600D01*
X675300Y227300D01*
G01X694700Y247483D02*
X693617Y246400D01*
X677500D01*
X675300Y248600D01*
G01X694700Y244000D02*
X693700Y245000D01*
X677700D01*
X675300Y242600D01*
G01X695300Y348800D02*
X678100Y331600D01*
G01X779000Y244360D02*
X742160D01*
X719100Y221300D01*
Y105500D01*
X734650Y89950D01*
Y86089D01*
G01X739700Y89900D02*
X722000Y107600D01*
Y220200D01*
X743601Y241801D01*
X779000D01*
G01X744650Y86089D02*
Y89950D01*
X724400Y110200D01*
Y218100D01*
X745542Y239242D01*
X779000D01*
G01X749700Y89800D02*
X727100Y112400D01*
Y216300D01*
X747483Y236683D01*
X779000D01*
G01X754750Y86089D02*
Y89950D01*
X729900Y114800D01*
Y214400D01*
X749624Y234124D01*
X779000D01*
G01X759700Y89900D02*
X733100Y116500D01*
Y212800D01*
X751864Y231565D01*
X779000D01*
G01Y249478D02*
X742422D01*
X720400Y271500D01*
Y363300D01*
X734450Y377350D01*
G01X779000Y252037D02*
X745263D01*
X723700Y273600D01*
Y361300D01*
X739450Y377050D01*
Y381111D01*
G01X779000Y257155D02*
X750645D01*
X730600Y277200D01*
Y359400D01*
X749450Y378250D01*
Y381111D01*
G01X779000Y254596D02*
X748104D01*
X727400Y275300D01*
Y360400D01*
X744450Y377450D01*
G01X734700Y51600D02*
Y38600D01*
G01X744700Y51600D02*
Y38600D01*
G01X744709Y64200D02*
Y66194D01*
G01X744700Y57600D02*
X742923Y59377D01*
Y69126D01*
X743928Y70131D01*
X744709D01*
G01X734700Y57600D02*
Y61500D01*
X739394Y66194D01*
G01X734650Y80089D02*
X741500Y73239D01*
Y67520D01*
X740175Y66194D01*
X739394D01*
G01X739700Y72200D02*
Y70438D01*
X739394Y70131D01*
G01X744650Y80089D02*
Y70190D01*
X744709Y70131D01*
G01X764750Y86089D02*
Y90050D01*
X735800Y119000D01*
Y211300D01*
X753506Y229005D01*
X779000D01*
G01X769700Y89900D02*
X738800Y120800D01*
Y209800D01*
X755447Y226447D01*
X779000D01*
G01X779700Y89900D02*
X745400Y124200D01*
Y207000D01*
X759728Y221328D01*
X779000D01*
G01X774700Y86100D02*
Y90000D01*
X742200Y122500D01*
Y208200D01*
X757887Y223887D01*
X779000D01*
G01Y259714D02*
X752786D01*
X734000Y278500D01*
Y356950D01*
X754450Y377400D01*
G01X779000Y267391D02*
X757809D01*
X742500Y282700D01*
Y350300D01*
X769450Y377250D01*
Y381111D01*
G01X779000Y264832D02*
X756168D01*
X739900Y281100D01*
Y352900D01*
X764450Y377450D01*
G01X779000Y262273D02*
X754827D01*
X737100Y280000D01*
Y354900D01*
X759450Y377250D01*
Y381111D01*
G01X779000Y272509D02*
X759790D01*
X748300Y284000D01*
Y346100D01*
X779550Y377350D01*
Y381100D01*
G01X779000Y269950D02*
X758750D01*
X745200Y283500D01*
Y348100D01*
X774500Y377400D01*
G01X739500Y409600D02*
X741265Y407835D01*
Y397974D01*
X740260Y396969D01*
X739479D01*
G01X739450Y387111D02*
Y396939D01*
X739479Y396969D01*
G01X744500Y394900D02*
Y396674D01*
X744794Y396969D01*
G01X749450Y387111D02*
X742600Y393961D01*
Y399492D01*
X744014Y400906D01*
X744794D01*
G01X739479Y402900D02*
Y400906D01*
G01X749500Y409600D02*
Y405611D01*
X744794Y400906D01*
G01X739500Y415600D02*
Y428500D01*
G01X754700Y51600D02*
Y38600D01*
G01Y57600D02*
Y61453D01*
X759441Y66194D01*
G01X754750Y80089D02*
X761600Y73239D01*
Y67573D01*
X760222Y66194D01*
X759441D01*
G01X764700Y57600D02*
X762970Y59330D01*
Y69126D01*
X763975Y70131D01*
X764756D01*
G01X759700Y72200D02*
Y70390D01*
X759441Y70131D01*
G01X784750Y86089D02*
Y90050D01*
X748500Y126300D01*
Y205700D01*
X761569Y218769D01*
X779000D01*
G01X799700Y89900D02*
X758100Y131500D01*
Y202700D01*
X766492Y211092D01*
X779000D01*
G01X789700Y89900D02*
X751600Y128000D01*
Y204600D01*
X763210Y216210D01*
X779000D01*
G01X794650Y86089D02*
Y89850D01*
X754800Y129700D01*
Y203700D01*
X764751Y213651D01*
X779000D01*
G01X804650Y86089D02*
Y89850D01*
X760900Y133600D01*
Y201800D01*
X767633Y208533D01*
X779000D01*
G01Y277628D02*
X763172D01*
X753500Y287300D01*
Y341500D01*
X789450Y377450D01*
Y381111D01*
G01X779000Y275068D02*
X761131D01*
X750900Y285300D01*
Y343850D01*
X784450Y377400D01*
G01X804450Y377450D02*
X761900Y334900D01*
Y290208D01*
X766803Y285305D01*
X779000D01*
G01Y282746D02*
X765654D01*
X759200Y289200D01*
Y337200D01*
X799450Y377450D01*
Y381100D01*
G01X779000Y280187D02*
X764413D01*
X756400Y288200D01*
Y339350D01*
X794450Y377400D01*
G01X769450Y387111D02*
X762600Y393961D01*
Y399504D01*
X764002Y400906D01*
X764782D01*
G01X759500Y409600D02*
X761254Y407847D01*
Y397974D01*
X760248Y396969D01*
X759468D01*
G01X759450Y387111D02*
Y396951D01*
X759468Y396969D01*
G01Y402900D02*
Y400906D01*
G01X749500Y415600D02*
Y428500D01*
G01X759500Y415600D02*
Y428500D01*
G01X774700Y51600D02*
Y38600D01*
G01X764700Y51600D02*
Y38600D01*
G01X764756Y64200D02*
Y66194D01*
G01X774700Y57600D02*
Y61441D01*
X779453Y66194D01*
G01X764750Y80089D02*
Y70137D01*
X764756Y70131D01*
G01X774700Y80100D02*
X781600Y73200D01*
Y67561D01*
X780234Y66194D01*
X779453D01*
G01X814750Y86089D02*
Y89750D01*
X766800Y137700D01*
Y199300D01*
X770915Y203415D01*
X779000D01*
G01X809700Y89900D02*
X763900Y135700D01*
Y200600D01*
X769274Y205974D01*
X779000D01*
G01Y200856D02*
X773156D01*
X769900Y197600D01*
Y139700D01*
X819700Y89900D01*
G01X819550Y381111D02*
Y377450D01*
X770200Y328100D01*
Y295400D01*
X772618Y292982D01*
X779000D01*
G01X814450Y377400D02*
X767400Y330350D01*
Y294000D01*
X770977Y290423D01*
X779000D01*
G01X809450Y381111D02*
Y377250D01*
X765000Y332800D01*
Y292100D01*
X769236Y287864D01*
X779000D01*
G01X764500Y394900D02*
Y396686D01*
X764782Y396969D01*
G01X769500Y409600D02*
Y405623D01*
X764782Y400906D01*
G01X769500Y428500D02*
Y415600D01*
G01X784700Y51600D02*
Y38600D01*
G01Y57600D02*
X782982Y59318D01*
Y69126D01*
X783987Y70131D01*
X784768D01*
G01Y64200D02*
Y66194D01*
G01X779700Y72200D02*
Y70378D01*
X779453Y70131D01*
G01X784750Y80089D02*
Y70149D01*
X784768Y70131D01*
G01X792681Y309222D02*
Y345681D01*
X824450Y377450D01*
G01X779500Y409600D02*
X781312Y407788D01*
Y397974D01*
X780307Y396969D01*
X779526D01*
G01X779550Y387100D02*
Y396945D01*
X779526Y396969D01*
G01X789450Y387111D02*
X782700Y393861D01*
Y399545D01*
X784060Y400906D01*
X784841D01*
G01X784500Y394900D02*
Y396628D01*
X784841Y396969D01*
G01X779526Y402974D02*
Y400906D01*
G01X789500Y409600D02*
Y405565D01*
X784841Y400906D01*
G01X789500Y428500D02*
Y415600D01*
G01X779500Y428500D02*
Y415600D01*
G01X794700Y51600D02*
Y38600D01*
G01X804700Y51600D02*
Y38600D01*
G01X804680Y64200D02*
Y66194D01*
G01X794700Y57600D02*
Y61530D01*
X799365Y66194D01*
G01X794650Y80089D02*
X801500Y73239D01*
Y67549D01*
X800145Y66194D01*
X799365D01*
G01X804700Y57600D02*
X802600Y59700D01*
Y68833D01*
X803899Y70131D01*
X804680D01*
G01X804650Y80089D02*
Y70161D01*
X804680Y70131D01*
G01X799700Y72200D02*
Y70467D01*
X799365Y70131D01*
G01X797799Y187175D02*
Y121801D01*
X829700Y89900D01*
G01X795240Y187175D02*
Y119560D01*
X824750Y90050D01*
Y86100D01*
G01X802917Y187175D02*
Y126683D01*
X839700Y89900D01*
G01X805476Y187175D02*
Y129424D01*
X844700Y90200D01*
Y86100D01*
G01X800358Y187175D02*
Y124442D01*
X834750Y90050D01*
Y86089D01*
G01X808035Y187175D02*
Y131565D01*
X849700Y89900D01*
G01X800358Y309222D02*
Y338058D01*
X839450Y377150D01*
Y381111D01*
G01X808035Y309222D02*
Y330935D01*
X854550Y377450D01*
G01X797799Y309222D02*
Y340799D01*
X834450Y377450D01*
G01X805476Y309222D02*
Y333476D01*
X849450Y377450D01*
Y381111D01*
G01X795240Y309222D02*
Y343140D01*
X829450Y377350D01*
Y381111D01*
G01X802917Y309222D02*
Y335867D01*
X844450Y377400D01*
G01X809450Y387111D02*
X802700Y393861D01*
Y399557D01*
X804048Y400906D01*
X804829D01*
G01X804500Y394900D02*
Y396640D01*
X804829Y396969D01*
G01X799500Y409600D02*
X801400Y407700D01*
Y398074D01*
X800295Y396969D01*
X799514D01*
G01X799450Y387100D02*
Y396904D01*
X799514Y396969D01*
G01X809500Y409600D02*
Y405576D01*
X804829Y400906D01*
G01X799514Y403000D02*
Y400906D01*
G01X799500Y428500D02*
Y415600D01*
G01X814700Y51600D02*
Y38600D01*
G01Y57600D02*
Y61518D01*
X819376Y66194D01*
G01X814750Y80089D02*
X821600Y73239D01*
Y67637D01*
X820157Y66194D01*
X819376D01*
G01X824700Y57600D02*
X822900Y59400D01*
Y69138D01*
X823894Y70131D01*
X824691D01*
G01X819700Y72200D02*
Y70455D01*
X819376Y70131D01*
G01X810594Y187175D02*
Y134006D01*
X854650Y89950D01*
Y86089D01*
G01X813154Y187175D02*
Y136446D01*
X859700Y89900D01*
G01X815713Y187175D02*
Y139087D01*
X864750Y90050D01*
Y86089D01*
G01X818272Y187175D02*
Y141528D01*
X869700Y90100D01*
G01X820831Y187175D02*
Y143969D01*
X874750Y90050D01*
Y86089D01*
G01X810594Y309222D02*
Y328495D01*
X859450Y377350D01*
Y381111D01*
G01X818272Y309222D02*
Y321122D01*
X874550Y377400D01*
G01X815713Y309222D02*
Y323613D01*
X869550Y377450D01*
Y381100D01*
G01X813154Y309222D02*
Y325954D01*
X864550Y377350D01*
G01X820831Y309222D02*
Y318931D01*
X879350Y377450D01*
Y381111D01*
G01X829450Y387111D02*
X822700Y393861D01*
Y399462D01*
X824108Y400870D01*
X824889D01*
G01X819500Y409600D02*
X821360Y407740D01*
Y397938D01*
X820355Y396933D01*
X819574D01*
G01X819550Y387111D02*
Y396909D01*
X819574Y396933D01*
G01Y402900D02*
Y400870D01*
G01X809500Y428500D02*
Y415600D01*
G01X819500Y428500D02*
Y415600D01*
G01X834700Y51600D02*
Y38600D01*
G01X824700Y51600D02*
Y38600D01*
G01X824691Y64200D02*
Y66194D01*
G01X834700Y57600D02*
Y61606D01*
X839288Y66194D01*
G01X834750Y80089D02*
X841500Y73339D01*
Y67625D01*
X840069Y66194D01*
X839288D01*
G01X824750Y80100D02*
Y70190D01*
X824691Y70131D01*
G01X879700Y89900D02*
X823390Y146210D01*
Y187175D01*
G01X889700Y89800D02*
X828508Y150992D01*
Y187175D01*
G01X825949D02*
Y148951D01*
X884750Y90150D01*
Y86089D01*
G01X836185Y187175D02*
Y160315D01*
X865800Y130700D01*
X889900D01*
G01X825949Y309222D02*
Y313549D01*
X889450Y377050D01*
Y381100D01*
G01X823390Y309222D02*
Y316340D01*
X884450Y377400D01*
G01X824500Y394900D02*
Y396544D01*
X824889Y396933D01*
G01X829500Y409600D02*
Y405481D01*
X824889Y400870D01*
G01X829500Y428500D02*
Y415600D01*
G01X844700Y51600D02*
Y38600D01*
G01X844603Y64200D02*
Y66194D01*
G01X844700Y57600D02*
X842817Y59483D01*
Y69126D01*
X843823Y70131D01*
X844603D01*
G01X839700Y72200D02*
Y70543D01*
X839288Y70131D01*
G01X844700Y80100D02*
Y70228D01*
X844603Y70131D01*
G01X841400Y172300D02*
Y168650D01*
X841350Y168600D01*
G01X846421Y187175D02*
Y182621D01*
G01X849500Y191800D02*
X851539Y189761D01*
Y187175D01*
G01X841303Y182200D02*
Y187175D01*
G01X841400Y178300D02*
X841303Y178397D01*
Y182200D01*
G01X843862Y187175D02*
Y191725D01*
G01X851539Y309222D02*
Y304500D01*
G01X848100Y318500D02*
X853700D01*
G01X848100Y324500D02*
Y328200D01*
G01X839500Y409600D02*
X841236Y407864D01*
Y397974D01*
X840230Y396969D01*
X839450D01*
G01X839450Y387111D02*
Y396968D01*
X839450Y396969D01*
G01X849450Y387111D02*
X842536Y394026D01*
Y399457D01*
X843984Y400906D01*
X844765D01*
G01X844500Y394900D02*
Y396704D01*
X844765Y396969D01*
G01X839450Y402900D02*
Y400906D01*
G01X849500Y409600D02*
Y405641D01*
X844765Y400906D01*
G01X849500Y428500D02*
Y415600D01*
G01X839500Y428500D02*
Y415600D01*
G01X854700Y51600D02*
Y38600D01*
G01X864700Y51600D02*
Y38600D01*
G01X854700Y57600D02*
Y61494D01*
X859400Y66194D01*
G01X854650Y80089D02*
X861600Y73139D01*
Y67614D01*
X860181Y66194D01*
X859400D01*
G01X864700Y57600D02*
X862929Y59371D01*
Y69126D01*
X863934Y70131D01*
X864715D01*
G01Y64200D02*
Y66194D01*
G01X864750Y80089D02*
Y70166D01*
X864715Y70131D01*
G01X859700Y72200D02*
Y70431D01*
X859400Y70131D01*
G01X866916Y168900D02*
Y169000D01*
X866900Y169016D01*
Y172600D01*
G01X866894Y187175D02*
Y182625D01*
G01X866900Y178600D02*
X872500D01*
G01X864300Y304672D02*
X858835D01*
X856658Y306850D01*
Y309222D01*
G01X854098D02*
Y305452D01*
X856150Y303400D01*
G01X872500Y318500D02*
X866884D01*
G01X866894Y309222D02*
Y318490D01*
X866884Y318500D01*
G01X859217Y309222D02*
Y313772D01*
G01X859250Y318500D02*
X853700D01*
G01X861776Y309222D02*
Y315974D01*
X859250Y318500D01*
G01X864335Y309222D02*
Y313772D01*
G01X866884Y324500D02*
Y328200D01*
G01X859250Y324500D02*
Y328166D01*
X859216Y328200D01*
G01X853700Y324500D02*
Y328200D01*
G01X859500Y409600D02*
X861347Y407753D01*
Y397974D01*
X860342Y396969D01*
X859561D01*
G01X859450Y387111D02*
Y396857D01*
X859561Y396969D01*
G01X869550Y387100D02*
X862800Y393850D01*
Y399610D01*
X864096Y400906D01*
X864876D01*
G01X864500Y394900D02*
Y396592D01*
X864876Y396969D01*
G01X869500Y409600D02*
Y405529D01*
X864876Y400906D01*
G01X859561Y402900D02*
Y400906D01*
G01X859500Y428500D02*
Y415600D01*
G01X874700Y51600D02*
Y38600D01*
G01X879412Y66194D02*
Y62312D01*
X874700Y57600D01*
G01X874750Y80089D02*
X881600Y73239D01*
Y67602D01*
X880193Y66194D01*
X879412D01*
G01X884700Y57600D02*
X882941Y59359D01*
Y69126D01*
X883946Y70131D01*
X884727D01*
G01X879700Y72200D02*
Y70420D01*
X879412Y70131D01*
G01X882248Y187175D02*
Y162352D01*
X875400Y155504D01*
G01X872484Y168900D02*
Y172584D01*
X872500Y172600D01*
G01X878100D02*
Y168900D01*
G01X871900Y192300D02*
X869453Y189853D01*
Y187175D01*
G01X878100Y178600D02*
X872500D01*
G01D02*
X872012Y179088D01*
Y187175D01*
G01X869453Y309222D02*
Y313772D01*
G01X872012Y309222D02*
Y314800D01*
G01X878084Y318500D02*
X872500D01*
G01X882248Y309222D02*
Y313772D01*
G01X872500Y324500D02*
Y328200D01*
G01X878084Y324500D02*
Y328200D01*
G01X889450Y387100D02*
X882600Y393950D01*
Y399616D01*
X883890Y400906D01*
X884671D01*
G01X879400Y409600D02*
X881142Y407858D01*
Y397974D01*
X880136Y396969D01*
X879356D01*
G01X879350Y387111D02*
Y396963D01*
X879356Y396969D01*
G01Y402900D02*
Y400906D01*
G01X879500Y428500D02*
Y415700D01*
X879400Y415600D01*
G01X869500Y428500D02*
Y415600D01*
G01X884700Y51600D02*
Y38600D01*
G01X884727Y64100D02*
Y66194D01*
G01X884750Y80089D02*
Y70155D01*
X884727Y70131D01*
G01X884807Y187175D02*
Y155691D01*
X884720Y155604D01*
G01X887366Y187175D02*
Y162478D01*
X894140Y155704D01*
G01X901047Y203415D02*
X896497D01*
G01X901047Y213651D02*
X896651D01*
G01X901047Y218769D02*
X896231D01*
G01X901047Y208533D02*
X896497D01*
G01X901047Y205974D02*
X896497D01*
G01Y223887D02*
X901047D01*
G01X895738Y242238D02*
X896188Y241788D01*
X901034Y241787D01*
X901047Y241801D01*
G01X895738Y238862D02*
X896118Y239242D01*
X901047D01*
G01Y259714D02*
X896497D01*
G01X901047Y257155D02*
X896497D01*
G01X901047Y262273D02*
X896497D01*
G01X901047Y264832D02*
X896497D01*
G01X901047Y267391D02*
X896497D01*
G01X901047Y285305D02*
X896495D01*
G01X901047Y280187D02*
X896513D01*
G01X901047Y292982D02*
X896497D01*
G01X890400Y318500D02*
X896000D01*
G01X884850D02*
X890400D01*
G01X884807Y309222D02*
Y315957D01*
X884850Y316000D01*
Y318500D01*
G01X890400Y324500D02*
Y328000D01*
G01X884816Y328100D02*
Y324534D01*
X884850Y324500D01*
G01X896000D02*
Y328200D01*
G01X884500Y394900D02*
Y396798D01*
X884671Y396969D01*
G01X889500Y409600D02*
Y405735D01*
X884671Y400906D01*
G01X889500Y428500D02*
Y415600D01*
G01X1062500Y202100D02*
X1061185Y203415D01*
X901047D01*
G01Y216210D02*
X905390D01*
G01X901047Y213651D02*
X1054051D01*
X1062500Y222100D01*
G01X901047Y211092D02*
X906008D01*
G01X901047Y208533D02*
X1058933D01*
X1062500Y212100D01*
G01X901047Y221328D02*
X905872D01*
G01X905900Y233600D02*
X905376Y234124D01*
X901047D01*
G01X909600Y233300D02*
X907865Y231565D01*
X901047D01*
G01X909600Y233300D02*
X910917Y231983D01*
X913400D01*
G01X909600Y227300D02*
X907894Y229005D01*
X901047D01*
G01X909600Y227300D02*
X910800Y228500D01*
X913400D01*
G01X901047Y226447D02*
X905654D01*
G01X930400Y247300D02*
X929400Y246300D01*
X911700D01*
X909600Y248400D01*
G01X901047Y246919D02*
X908119D01*
X909600Y248400D01*
G01X901047Y244360D02*
X907640D01*
X909600Y242400D01*
G01D02*
X912100Y244900D01*
X929317D01*
X930400Y243817D01*
G01X905900Y237282D02*
X905301Y236683D01*
X901047D01*
G01Y252037D02*
X905637D01*
G01D02*
X1014337D01*
X1054400Y292100D01*
X1062500D01*
G01X1072500Y297100D02*
X1069900Y294500D01*
X1053900D01*
X1016555Y257155D01*
X901047D01*
G01X1072500Y307100D02*
X1070000Y304600D01*
X1051300D01*
X1008973Y262273D01*
X901047D01*
G01Y254596D02*
X906996D01*
G01X901047Y269950D02*
X905597D01*
G01X1072500Y327100D02*
X1070000Y324600D01*
X1052100D01*
X1000009Y272509D01*
X901047D01*
G01Y275068D02*
X994368D01*
X1051400Y332100D01*
X1062500D01*
G01X901047Y267391D02*
X1004591D01*
X1051800Y314600D01*
X1070000D01*
X1072500Y317100D01*
G01X901047Y277628D02*
X905628D01*
G01X901047Y282746D02*
X905600D01*
G01X901047Y285305D02*
X995005D01*
X1051800Y342100D01*
X1062500D01*
G01X901047Y287864D02*
X905597D01*
G01X1062500Y352100D02*
X1051800D01*
X990123Y290423D01*
X901047D01*
G01Y295541D02*
X905597D01*
G01X913400Y231983D02*
X914183Y231200D01*
X1046200D01*
X1050400Y235400D01*
X1060800D01*
X1062500Y237100D01*
G01X913400Y228500D02*
Y228700D01*
X914500Y229800D01*
X1046780D01*
X1050980Y234000D01*
X1060600D01*
X1062500Y232100D01*
G01X977140Y374684D02*
X974383D01*
X920100Y320400D01*
G01X1062500Y282100D02*
X1060700Y280300D01*
X1051320D01*
X1017320Y246300D01*
X931400D01*
X930400Y247300D01*
G01Y243817D02*
X931483Y244900D01*
X1017900D01*
X1051900Y278900D01*
X1060700D01*
X1062500Y277100D01*
G01X937600Y366100D02*
Y362400D01*
G01X943000Y382400D02*
X937500D01*
G01X943100Y372100D02*
X937600D01*
G01X937500Y388400D02*
Y392100D01*
G01X955453Y304426D02*
X959676D01*
G01Y308363D02*
X955300D01*
G01X943100Y366100D02*
Y357866D01*
X943286Y357680D01*
G01X951550Y369565D02*
X946565D01*
X943100Y366100D01*
G01X951550Y374684D02*
X947327D01*
G01X951550Y379802D02*
X947202D01*
G01X951550Y382361D02*
X943039D01*
X943000Y382400D01*
G01X951550Y372124D02*
X943124D01*
X943100Y372100D01*
G01X943000Y388400D02*
Y396600D01*
X942900Y396700D01*
G01X951550Y384920D02*
X946480D01*
X943000Y388400D01*
G01X959676Y306395D02*
X963898D01*
G01X959676Y302458D02*
X964200D01*
G01X975000Y304426D02*
X979361D01*
G01X985800Y308400D02*
X979398D01*
X979361Y308363D01*
G01X1072500Y367100D02*
X1070000Y364600D01*
X1051800D01*
X989658Y302458D01*
X979361D01*
G01X986400Y366100D02*
Y357874D01*
X986306Y357780D01*
G01X977140Y369565D02*
X982935D01*
X986400Y366100D01*
G01X977140Y374684D02*
X981383D01*
G01X977140Y379802D02*
X981502D01*
G01X986400Y372100D02*
X991900D01*
G01X977140Y372124D02*
X986376D01*
X986400Y372100D01*
G01X986200Y382400D02*
X991700D01*
G01X977140Y382361D02*
X986161D01*
X986200Y382400D01*
G01X977140Y384920D02*
X982720D01*
X986200Y388400D01*
G01X986334Y396720D02*
Y388534D01*
X986200Y388400D01*
G01X991900Y366100D02*
X995600D01*
G01X991700Y388400D02*
X995500D01*
G01X-34000Y-18000D02*
X1122000D01*
Y485000D01*
X-34000D01*
Y-18000D01*
G54D13*
X30400Y80000D03*
Y86000D03*
X40400Y80000D03*
Y86000D03*
X44500Y381100D03*
X34500D03*
X44500Y387100D03*
X34500D03*
X60450Y79995D03*
Y85995D03*
X50400Y80000D03*
Y86000D03*
X54500Y381100D03*
Y387100D03*
X70450Y79995D03*
Y85995D03*
X74450Y381105D03*
X64550D03*
X74450Y387105D03*
X64550D03*
X80400Y80000D03*
Y86000D03*
X90400Y80000D03*
Y86000D03*
X84450Y381105D03*
Y387105D03*
X100400Y80000D03*
Y86000D03*
X104500Y381100D03*
X94500D03*
X104500Y387100D03*
X94500D03*
X120450Y79995D03*
Y85995D03*
X110400Y80000D03*
Y86000D03*
X114500Y381100D03*
Y387100D03*
X130350Y79995D03*
Y85995D03*
X134500Y381100D03*
X124500D03*
X134500Y387100D03*
X124500D03*
X140400Y80000D03*
Y86000D03*
X150400Y80000D03*
Y86000D03*
X137300Y171500D03*
X151100D03*
X137300Y177500D03*
X151100D03*
X144500Y381100D03*
Y387100D03*
X160400Y80000D03*
Y86000D03*
X156600Y171500D03*
Y177500D03*
X162800Y325200D03*
Y319200D03*
X155200Y325200D03*
Y319200D03*
X164550Y381105D03*
X154550D03*
X164550Y387105D03*
X154550D03*
X170350Y79895D03*
Y85895D03*
X180350Y79995D03*
Y85995D03*
X168300Y171500D03*
Y177500D03*
X180800Y325200D03*
Y319200D03*
X174550Y381105D03*
Y387105D03*
X184500Y381100D03*
Y387100D03*
X265050Y79800D03*
Y85800D03*
X269150Y381100D03*
Y387100D03*
X275100Y79800D03*
Y85800D03*
X285100Y79800D03*
Y85800D03*
X279250Y381100D03*
Y387100D03*
X295100Y79795D03*
Y85795D03*
X299200Y381105D03*
X289250Y381100D03*
X299200Y387105D03*
X289250Y387100D03*
X305100Y79795D03*
Y85795D03*
X315100Y79795D03*
Y85795D03*
X309200Y381105D03*
Y387105D03*
X325100Y79800D03*
Y85800D03*
X319200Y381105D03*
X329250Y381100D03*
X319200Y387105D03*
X329250Y387100D03*
X335100Y79800D03*
Y85800D03*
X345100Y79800D03*
Y85800D03*
X339250Y381100D03*
Y387100D03*
X355100Y79795D03*
Y85795D03*
X359200Y381100D03*
X349150D03*
X359200Y387100D03*
X349150D03*
X365100Y79795D03*
Y85795D03*
X375100Y79795D03*
Y85795D03*
X371900Y171500D03*
Y177500D03*
X369200Y381100D03*
Y387100D03*
X385150Y79800D03*
Y85800D03*
X385850Y171500D03*
Y177500D03*
X389800Y325200D03*
Y319200D03*
X389200Y381105D03*
X379200Y381100D03*
X389200Y387105D03*
X379200Y387100D03*
X405100Y79795D03*
Y85795D03*
X395150Y79800D03*
Y85800D03*
X403050Y171500D03*
X391300D03*
X403050Y177500D03*
X391300D03*
X397450Y325200D03*
Y319200D03*
X399200Y381105D03*
Y387105D03*
X415100Y79795D03*
Y85795D03*
X415450Y325200D03*
Y319200D03*
X409150Y381100D03*
X419200D03*
X409150Y387100D03*
X419200D03*
X499934Y80100D03*
Y86100D03*
X509934Y80100D03*
Y86100D03*
X504100Y381200D03*
Y387200D03*
X520034Y80100D03*
Y86100D03*
X524100Y381200D03*
X514100D03*
X524100Y387200D03*
X514100D03*
X539900Y80100D03*
Y86100D03*
X529900Y80100D03*
Y86100D03*
X534100Y381200D03*
Y387200D03*
X549900Y80100D03*
Y86100D03*
X544100Y381200D03*
X554100D03*
X544100Y387200D03*
X554100D03*
X569934Y80100D03*
Y86100D03*
X559900Y80100D03*
Y86100D03*
X564066Y381200D03*
Y387200D03*
X579934Y80100D03*
Y86100D03*
X584066Y381200D03*
X574066D03*
X584066Y387200D03*
X574066D03*
X600000Y80100D03*
Y86100D03*
X589900Y80100D03*
Y86100D03*
X594166Y381200D03*
Y387200D03*
X609900Y80100D03*
Y86100D03*
X606634Y171600D03*
Y177600D03*
X614100Y381200D03*
X604000D03*
X614100Y387200D03*
X604000D03*
X620000Y80100D03*
Y86100D03*
X629934Y80100D03*
Y86100D03*
X625900Y171600D03*
X620400D03*
X625900Y177600D03*
X620400D03*
X624466Y324600D03*
Y318600D03*
X624100Y381200D03*
Y387200D03*
X639900Y80100D03*
Y86100D03*
X637834Y171600D03*
Y177600D03*
X632266Y324600D03*
Y318600D03*
X634100Y381200D03*
X644100D03*
X634100Y387200D03*
X644100D03*
X649900Y80100D03*
Y86100D03*
X650066Y324600D03*
Y318600D03*
X654066Y381200D03*
Y387200D03*
X734650Y80089D03*
Y86089D03*
X744650Y80089D03*
Y86089D03*
X749450Y381111D03*
X739450D03*
X749450Y387111D03*
X739450D03*
X754750Y80089D03*
Y86089D03*
X764750Y80089D03*
Y86089D03*
X759450Y381111D03*
Y387111D03*
X774700Y80100D03*
Y86100D03*
X769450Y381111D03*
X779550Y381100D03*
X769450Y387111D03*
X779550Y387100D03*
X784750Y80089D03*
Y86089D03*
X794650Y80089D03*
Y86089D03*
X789450Y381111D03*
Y387111D03*
X804650Y80089D03*
Y86089D03*
X809450Y381111D03*
X799450Y381100D03*
X809450Y387111D03*
X799450Y387100D03*
X814750Y80089D03*
Y86089D03*
X824750Y80100D03*
Y86100D03*
X819550Y381111D03*
Y387111D03*
X834750Y80089D03*
Y86089D03*
X839450Y381111D03*
X829450D03*
X839450Y387111D03*
X829450D03*
X844700Y80100D03*
Y86100D03*
X854650Y80089D03*
Y86089D03*
X849450Y381111D03*
Y387111D03*
X864750Y80089D03*
Y86089D03*
X860600Y172100D03*
X854900D03*
X860600Y178100D03*
X854900D03*
X859250Y324500D03*
Y318500D03*
X866884Y324500D03*
Y318500D03*
X859450Y381111D03*
X869550Y381100D03*
X859450Y387111D03*
X869550Y387100D03*
X874750Y80089D03*
Y86089D03*
X872500Y172600D03*
Y178600D03*
X879350Y381111D03*
Y387111D03*
X884750Y80089D03*
Y86089D03*
X884850Y324500D03*
Y318500D03*
X889450Y381100D03*
Y387100D03*
G54D22*
X462586Y50971D03*
X458846Y60302D03*
X466326D03*
G54D32*
G01X40678Y67098D02*
X43100D01*
G01X35363D02*
X32900D01*
G01X34524Y398902D02*
X32100D01*
G01X39839D02*
X42300D01*
G01X55385Y67098D02*
X52900D01*
G01X54534Y398902D02*
X52100D01*
G01X59849D02*
X62300D01*
G01X60700Y67098D02*
X63100D01*
G01X75083D02*
X72600D01*
G01X74527Y398902D02*
X72100D01*
G01X80397Y67098D02*
X82800D01*
G01X79842Y398902D02*
X82400D01*
G01X100385Y67098D02*
X102800D01*
G01X95070D02*
X92600D01*
G01X94529Y398902D02*
X92100D01*
G01X99844D02*
X102300D01*
G01X115073Y67098D02*
X112600D01*
G01X114531Y398902D02*
X112000D01*
G01X119846D02*
X122300D01*
G01X120388Y67098D02*
X122800D01*
G01X135075D02*
X132600D01*
G01X134519Y398902D02*
X132000D01*
G01X140390Y67098D02*
X142800D01*
G01X139834Y398902D02*
X142300D01*
G01X160393Y67098D02*
X162800D01*
G01X155078D02*
X152600D01*
G01X154517Y398902D02*
X152100D01*
G01X159832D02*
X162300D01*
G01X175080Y67098D02*
X172600D01*
G01X174498Y398902D02*
X172100D01*
G01X180395Y67098D02*
X182800D01*
G01X179813Y398902D02*
X182200D01*
G01X269756Y67168D02*
X267491D01*
G01X269131Y398932D02*
X266168D01*
G01X275071Y67168D02*
X277336D01*
G01X274446Y398932D02*
X276832D01*
G01X295073Y67168D02*
X297900D01*
G01X289759D02*
X287494D01*
G01X289234Y398932D02*
X287068D01*
G01X294549D02*
X296332D01*
G01X309761Y67168D02*
X307300D01*
G01X309222Y398932D02*
X306368D01*
G01X315076Y67168D02*
X317500D01*
G01X329766D02*
X327300D01*
G01X329207Y398932D02*
X325932D01*
G01X314537D02*
X317232D01*
G01X335081Y67168D02*
X337800D01*
G01X334522Y398932D02*
X336932D01*
G01X355090Y67168D02*
X357500D01*
G01X349775D02*
X347300D01*
G01X349200Y398932D02*
X346668D01*
G01X354515D02*
X356768D01*
G01X369768Y67168D02*
X367300D01*
G01X375083D02*
X377500D01*
G01X389870D02*
X387400D01*
G01X389203Y398932D02*
X387068D01*
G01X395185Y67168D02*
X397600D01*
G01X394518Y398932D02*
X396232D01*
G01X415088Y67168D02*
X417500D01*
G01X409773D02*
X407300D01*
G01X409198Y398932D02*
X406933D01*
G01X414513D02*
X417231D01*
G01X504568Y67068D02*
X502200D01*
G01X504103Y398932D02*
X501800D01*
G01X509883Y67068D02*
X512200D01*
G01X524551D02*
X522200D01*
G01X524115Y398932D02*
X521800D01*
G01X509418D02*
X511800D01*
G01X529866Y67068D02*
X532200D01*
G01X529430Y398932D02*
X531800D01*
G01X549869Y67068D02*
X552200D01*
G01X544554D02*
X542200D01*
G01X544105Y398932D02*
X541800D01*
G01X549420D02*
X551800D01*
G01X564656Y67068D02*
X562300D01*
G01X564100Y398932D02*
X561700D01*
G01X569971Y67068D02*
X572300D01*
G01X584558D02*
X582200D01*
G01X584012Y398932D02*
X581700D01*
G01X569415D02*
X571800D01*
G01X589873Y67068D02*
X592200D01*
G01X589327Y398932D02*
X591700D01*
G01X609876Y67068D02*
X612200D01*
G01X604561D02*
X602200D01*
G01X604010Y398932D02*
X601700D01*
G01X609325D02*
X611700D01*
G01X624563Y67068D02*
X622200D01*
G01X624007Y398932D02*
X621700D01*
G01X629878Y67068D02*
X632200D01*
G01X644866D02*
X642500D01*
G01X643898Y398932D02*
X641600D01*
G01X629322D02*
X631800D01*
G01X650181Y67068D02*
X652500D01*
G01X649213Y398932D02*
X651700D01*
G01X744709Y68163D02*
X747000D01*
G01X739394D02*
X737100D01*
G01X739479Y398937D02*
X737100D01*
G01X744794D02*
X747100D01*
G01X759441Y68163D02*
X757100D01*
G01X759468Y398937D02*
X757100D01*
G01X764756Y68163D02*
X767100D01*
G01X779453D02*
X777100D01*
G01X779526Y398937D02*
X777200D01*
G01X764782D02*
X767100D01*
G01X784768Y68163D02*
X787100D01*
G01X784841Y398937D02*
X787200D01*
G01X804680Y68163D02*
X807000D01*
G01X799365D02*
X797000D01*
G01X799514Y398937D02*
X797200D01*
G01X804829D02*
X806984D01*
G01X819376Y68163D02*
X817000D01*
G01X819574Y398902D02*
X817200D01*
G01X824691Y68163D02*
X827000D01*
G01X839288D02*
X837000D01*
G01X839450Y398937D02*
X837100D01*
G01X824889Y398902D02*
X827200D01*
G01X844603Y68163D02*
X846663D01*
G01X844765Y398937D02*
X847100D01*
G01X864715Y68163D02*
X867100D01*
G01X859400D02*
X857100D01*
G01X859561Y398937D02*
X857200D01*
G01X864876D02*
X867200D01*
G01X879412Y68163D02*
X877100D01*
G01X879356Y398937D02*
X877000D01*
G01X884727Y68163D02*
X887100D01*
G01X884671Y398937D02*
X887000D01*
G01X951550Y377242D02*
X956358D01*
G01X959676Y310332D02*
X963932D01*
G01X977140Y377242D02*
X971958D01*
G01X979361Y306395D02*
X983900D01*
G01X979361Y310332D02*
X974732D01*
G54D14*
X29500Y377400D03*
X40678Y63100D03*
X35400Y71100D03*
Y89900D03*
X45400D03*
X39500Y377400D03*
Y394900D03*
X34524Y403000D03*
X60700Y63100D03*
X55400Y71100D03*
Y89900D03*
X49500Y377400D03*
X59500D03*
Y394900D03*
X54534Y402966D03*
X75400Y71100D03*
X65400Y89900D03*
X75400D03*
X69500Y377400D03*
X74527Y402900D03*
X80400Y63100D03*
X85400Y89900D03*
X79500Y377400D03*
X89500D03*
X79500Y394900D03*
X100385Y63100D03*
X95400Y71100D03*
X105400Y89900D03*
X95400D03*
X99500Y377400D03*
Y394900D03*
X94529Y402900D03*
X120400Y63100D03*
X115400Y71000D03*
Y89900D03*
X119500Y377400D03*
X109500D03*
X119500Y394900D03*
X114531Y402900D03*
X135400Y70700D03*
Y89900D03*
X125400D03*
X128600Y209300D03*
X134200D03*
X129500Y377400D03*
X134519Y403000D03*
X140400Y63100D03*
X145400Y89900D03*
X137300Y167800D03*
X142800D03*
X142365Y181800D03*
X137246Y182560D03*
X139806Y192000D03*
X145400Y191900D03*
Y209300D03*
X139800D03*
X136500Y288800D03*
X147500D03*
X142000D03*
X147483Y303883D03*
X149700Y328900D03*
X144200D03*
X139500Y377400D03*
X149500D03*
X139500Y394900D03*
X160400Y63100D03*
X155200Y71000D03*
X165400Y89900D03*
X155400D03*
X162800Y167800D03*
X162837Y181863D03*
X156400Y209300D03*
X161900D03*
X150900D03*
X164000Y288800D03*
X158500D03*
X153000D03*
X160100Y303900D03*
X153000Y302200D03*
X155160Y314460D03*
X165396Y313707D03*
X160278Y313878D03*
X162800Y328900D03*
X155200D03*
X159500Y377400D03*
Y394900D03*
X154517Y402900D03*
X180400Y63100D03*
X175400Y71300D03*
Y89900D03*
X168300Y167800D03*
X173800D03*
X167500Y192200D03*
X177400Y200400D03*
X173100Y209300D03*
X167500D03*
X177400Y211400D03*
Y205900D03*
X175600Y233500D03*
X176000Y262200D03*
Y256700D03*
Y251200D03*
Y273200D03*
Y267700D03*
X175000Y288800D03*
X169500D03*
X180500D03*
X167955Y315000D03*
X178191Y314091D03*
X168300Y328900D03*
X173800D03*
X169500Y377400D03*
X179500D03*
Y394900D03*
X174500Y402900D03*
X185400Y89900D03*
X192150Y203350D03*
X192100Y213651D03*
X192440Y218769D03*
X192132Y208468D03*
X192109Y205909D03*
X192440Y223822D03*
X186600Y233500D03*
X181100D03*
X190869Y242214D03*
Y238731D03*
X191949Y259649D03*
X192010Y257090D03*
X192033Y264767D03*
X192008Y262208D03*
X192440Y277562D03*
X192026Y267326D03*
X192440Y272500D03*
Y282680D03*
Y287798D03*
Y292900D03*
X180800Y328900D03*
X186300D03*
X191800D03*
X203100Y130300D03*
X201540Y216145D03*
Y211000D03*
Y221263D03*
Y233717D03*
Y226381D03*
Y237200D03*
Y251972D03*
X203100Y254531D03*
X201540Y269885D03*
Y280121D03*
Y275003D03*
Y290358D03*
Y285239D03*
Y295476D03*
X212300Y232100D03*
Y228617D03*
X223000Y248500D03*
X226800Y247342D03*
Y243859D03*
X270100Y71200D03*
Y90000D03*
X264200Y377600D03*
X269131Y402575D03*
X275071Y63100D03*
X280100Y90000D03*
X274200Y377500D03*
X284200D03*
X274200Y395500D03*
X295100Y63200D03*
X290100Y71200D03*
Y90100D03*
X300300D03*
X294200Y377500D03*
Y394900D03*
X289234Y402900D03*
X315100Y63200D03*
X310100Y71300D03*
Y89900D03*
X304200Y377500D03*
X314200D03*
Y394900D03*
X309222Y402900D03*
X330100Y71200D03*
X320100Y90000D03*
X330100Y89900D03*
X324200Y377500D03*
X329200Y403000D03*
X335100Y63200D03*
X340100Y89900D03*
X344200Y377500D03*
X334200D03*
Y395000D03*
X355100Y63200D03*
X350100Y71300D03*
Y89900D03*
X360100D03*
X354200Y377500D03*
Y395100D03*
X349200Y402700D03*
X375100Y63200D03*
X370100Y71200D03*
Y89900D03*
X371900Y167900D03*
X371913Y181913D03*
X374472Y191828D03*
X363500Y211400D03*
X369000D03*
X374500D03*
X371100Y289500D03*
X364200Y377500D03*
X374200D03*
Y395300D03*
X369200Y403000D03*
X390100Y71200D03*
X380100Y89900D03*
X390100D03*
X377400Y167800D03*
X377031Y182560D03*
X380000Y192000D03*
X385500Y211400D03*
X380100D03*
X387600Y289500D03*
X376600D03*
X382100D03*
X387600Y302900D03*
X382149Y304607D03*
X389826Y313707D03*
X384300Y328900D03*
X389800D03*
X378800D03*
X384200Y377500D03*
X389203Y402900D03*
X395200Y63200D03*
X400100Y89900D03*
X403000Y167900D03*
X397500Y167800D03*
X397503Y182097D03*
X402000Y192300D03*
X391000Y211400D03*
X402000D03*
X396500D03*
X398600Y289500D03*
X404100D03*
X393100D03*
X394800Y304300D03*
X400062Y313707D03*
X402621Y315300D03*
X394944Y313707D03*
X403000Y328900D03*
X397400D03*
X394200Y377500D03*
X404100Y377600D03*
X394200Y395200D03*
X415100Y63200D03*
X410100Y71200D03*
Y89900D03*
X408500Y167900D03*
X412400Y200400D03*
X407500Y211400D03*
X412400D03*
Y205900D03*
X411500Y223800D03*
X411300Y262200D03*
Y256700D03*
Y251200D03*
Y273200D03*
Y267700D03*
X409600Y289500D03*
X415100D03*
X412857Y313707D03*
X415450Y328850D03*
X408500Y328800D03*
X414200Y377500D03*
Y395100D03*
X409200Y403000D03*
X420100Y90000D03*
X427350Y203350D03*
X427000Y213651D03*
Y218769D03*
X427232Y208468D03*
X427209Y205909D03*
X426878Y223822D03*
X426200Y242197D03*
Y238714D03*
X426749Y259649D03*
X426710Y257090D03*
X426733Y264767D03*
X426692Y262208D03*
X426674Y267326D03*
X427107Y272444D03*
Y277562D03*
Y292917D03*
Y282680D03*
Y287798D03*
X421000Y328900D03*
X426500Y328800D03*
X437500Y130300D03*
X436207Y216210D03*
Y211027D03*
Y221328D03*
X436650Y233567D03*
X449082Y232042D03*
Y228559D03*
X436919Y226381D03*
X436650Y237050D03*
X436207Y251972D03*
X437900Y254531D03*
X436207Y269885D03*
Y275000D03*
Y280100D03*
Y285239D03*
Y290358D03*
Y295476D03*
X450900Y223800D03*
X460800Y247483D03*
Y244000D03*
X457700Y248500D03*
X502200Y67068D03*
X504900Y71000D03*
Y90000D03*
X509100Y377500D03*
X499100D03*
X501800Y398932D03*
X509100Y395200D03*
X504103Y402900D03*
X512200Y67068D03*
X509883Y63100D03*
X522200Y67068D03*
X514900Y89900D03*
X519100Y377500D03*
X521800Y398932D03*
X511800D03*
X524115Y402900D03*
X529866Y63100D03*
X532200Y67068D03*
X524900Y70800D03*
X534900Y89900D03*
X524900D03*
X529100Y377500D03*
X539200D03*
X529100Y395200D03*
X531800Y398932D03*
X549869Y63100D03*
X552200Y67068D03*
X542200D03*
X544900Y70800D03*
Y89900D03*
X548800Y377300D03*
X541800Y398932D03*
X549100Y395000D03*
X551800Y398932D03*
X544105Y403000D03*
X562300Y67068D03*
X564900Y70800D03*
X554900Y89900D03*
X564900D03*
X568700Y377300D03*
X558400D03*
X569100Y395200D03*
X561700Y398932D03*
X564100Y402900D03*
X569971Y63100D03*
X572300Y67068D03*
X582200D03*
X574900Y89900D03*
X578900Y377300D03*
X581700Y398932D03*
X571800D03*
X584012Y402900D03*
X590300Y63400D03*
X592200Y67068D03*
X584900Y71000D03*
X595000Y89900D03*
X584900Y90000D03*
X598100Y211500D03*
X589100Y377500D03*
X599100D03*
X589100Y395400D03*
X591700Y398932D03*
X604900Y70700D03*
X609876Y63100D03*
X612200Y67068D03*
X602200D03*
X604900Y89900D03*
X606634Y167834D03*
X612200Y167900D03*
X611731Y181600D03*
X606613Y182213D03*
X609172Y191828D03*
X609200Y211500D03*
X603700D03*
X605100Y290200D03*
X610600D03*
X613400Y328300D03*
X609100Y377500D03*
Y395200D03*
X601700Y398932D03*
X611700D03*
X604010Y402900D03*
X622200Y67068D03*
X624900Y71000D03*
X625000Y89900D03*
X614900D03*
X624526Y182826D03*
X621967Y182867D03*
X627085Y191660D03*
X619408D03*
X614700Y192200D03*
X625700Y211500D03*
X620200D03*
X614700D03*
X627100Y290200D03*
X616100D03*
X621600D03*
X616849Y304607D03*
X628100Y304500D03*
X621600Y303700D03*
X624526Y313707D03*
X624500Y328300D03*
X618900D03*
X619100Y377300D03*
X629100Y377500D03*
Y395100D03*
X621700Y398932D03*
X624007Y402900D03*
X629878Y63100D03*
X632200Y67068D03*
X642500D03*
X634900Y89900D03*
X637834Y167966D03*
X632200Y167900D03*
X643400D03*
X639880Y182560D03*
X632203Y182003D03*
X642439Y191660D03*
X634762D03*
X642200Y211500D03*
X636700D03*
X631200D03*
X634000Y232042D03*
Y228559D03*
X632600Y290200D03*
X638100D03*
X643600D03*
X629644Y313707D03*
X634762D03*
X637321Y315000D03*
X637834Y328266D03*
X632300Y328300D03*
X643400D03*
X639100Y377500D03*
X641600Y398932D03*
X631800D03*
X643898Y402900D03*
X650181Y63100D03*
X652500Y67068D03*
X645000Y70900D03*
Y89900D03*
X654900D03*
X644998Y181902D03*
X647100Y200400D03*
Y211400D03*
Y205900D03*
X647500Y223800D03*
X646900Y262200D03*
Y256700D03*
Y251200D03*
Y273200D03*
Y267700D03*
X649100Y290200D03*
X647558Y313707D03*
X655600Y328300D03*
X650100D03*
X649100Y377500D03*
Y394900D03*
X651700Y398932D03*
X673000Y130400D03*
X661807Y203350D03*
X670907Y216210D03*
X661807Y213651D03*
Y218769D03*
X670907Y211027D03*
X661807Y208468D03*
Y205909D03*
Y223822D03*
X670907Y221328D03*
X671400Y233500D03*
X670907Y226381D03*
X661100Y242400D03*
Y238718D03*
X671400Y237182D03*
X670907Y251972D03*
X661807Y259649D03*
Y257090D03*
Y264767D03*
Y262208D03*
X672300Y254531D03*
X670907Y269885D03*
X661807Y267326D03*
Y272444D03*
X670907Y275000D03*
X661807Y277562D03*
X670907Y280121D03*
X661800Y282700D03*
X670907Y285239D03*
X661800Y287798D03*
X670907Y290358D03*
X661807Y292917D03*
X670907Y295476D03*
X661200Y328200D03*
X679800Y232083D03*
Y228600D03*
X684800Y223800D03*
X678100Y331600D03*
X694700Y247483D03*
Y244000D03*
X691500Y248500D03*
X695300Y348800D03*
X744709Y64200D03*
X747000Y68163D03*
X737100D03*
X739700Y72200D03*
Y89900D03*
X734450Y377350D03*
X744450Y377450D03*
X737100Y398937D03*
X747100D03*
X744500Y394900D03*
X739479Y402900D03*
X757100Y68163D03*
X759700Y72200D03*
X749700Y89800D03*
X759700Y89900D03*
X754450Y377400D03*
X757100Y398937D03*
X759468Y402900D03*
X764756Y64200D03*
X767100Y68163D03*
X777100D03*
X769700Y89900D03*
X764450Y377450D03*
X774500Y377400D03*
X764500Y394900D03*
X777200Y398937D03*
X767100D03*
X787100Y68163D03*
X784768Y64200D03*
X779700Y72200D03*
Y89900D03*
X789700D03*
X784450Y377400D03*
X787200Y398937D03*
X784500Y394900D03*
X779526Y402974D03*
X804680Y64200D03*
X807000Y68163D03*
X797000D03*
X799700Y72200D03*
Y89900D03*
X804450Y377450D03*
X794450Y377400D03*
X804500Y394900D03*
X797200Y398937D03*
X806984D03*
X799514Y403000D03*
X817000Y68163D03*
X819700Y72200D03*
Y89900D03*
X809700D03*
X814450Y377400D03*
X817200Y398902D03*
X819574Y402900D03*
X827000Y68163D03*
X837000D03*
X824691Y64200D03*
X829700Y89900D03*
X832900Y211700D03*
X838400D03*
X824450Y377450D03*
X834450D03*
X837100Y398937D03*
X827200Y398902D03*
X824500Y394900D03*
X844603Y64200D03*
X846663Y68163D03*
X839700Y72200D03*
Y89900D03*
X849700D03*
X841350Y168600D03*
X846900D03*
X846421Y182621D03*
X841303Y182200D03*
X849500Y191800D03*
X843862Y191725D03*
X849500Y211700D03*
X843900D03*
X839500Y290000D03*
X850584D03*
X845016D03*
X851539Y304500D03*
X853700Y328200D03*
X848100D03*
X844450Y377400D03*
X844500Y394900D03*
X847100Y398937D03*
X839450Y402900D03*
X867100Y68163D03*
X857100D03*
X864715Y64200D03*
X859700Y72200D03*
Y89900D03*
X866916Y168900D03*
X866894Y182625D03*
X860700Y211700D03*
X866200D03*
X855100D03*
X859900Y231983D03*
Y228500D03*
X867284Y290000D03*
X861716D03*
X856150D03*
X864300Y304672D03*
X856150Y303400D03*
X859217Y313772D03*
X864335D03*
X866884Y328200D03*
X859216D03*
X854550Y377450D03*
X864550Y377350D03*
X864500Y394900D03*
X857200Y398937D03*
X867200D03*
X859561Y402900D03*
X877100Y68163D03*
X879700Y72200D03*
Y89900D03*
X869700Y90100D03*
X872484Y168900D03*
X878100D03*
X871900Y192300D03*
X881500Y200500D03*
X877400Y211700D03*
X871766D03*
X881000Y211500D03*
X881200Y206000D03*
X882100Y223850D03*
X881700Y262300D03*
Y256800D03*
Y251300D03*
Y273300D03*
X881600Y267700D03*
X878500Y290000D03*
X869453Y313772D03*
X872012Y314800D03*
X882248Y313772D03*
X872500Y328200D03*
X878084D03*
X874550Y377400D03*
X877000Y398937D03*
X879356Y402900D03*
X884727Y64100D03*
X887100Y68163D03*
X889700Y89800D03*
X896497Y203415D03*
X896651Y213651D03*
X896231Y218769D03*
X896497Y208533D03*
Y205974D03*
Y223887D03*
X895738Y242238D03*
Y238862D03*
X896497Y259714D03*
Y257155D03*
Y264832D03*
Y262273D03*
Y267391D03*
X896513Y280187D03*
X896495Y285305D03*
X884100Y290000D03*
X896497Y292982D03*
X890400Y328000D03*
X884816Y328100D03*
X896000Y328200D03*
X884450Y377400D03*
X884500Y394900D03*
X887000Y398937D03*
X908000Y130700D03*
X905390Y216210D03*
X906008Y211092D03*
X905872Y221328D03*
X905900Y233600D03*
X913400Y231983D03*
Y228500D03*
X905654Y226447D03*
X905900Y237282D03*
X905637Y252037D03*
X906996Y254596D03*
X905597Y269950D03*
X905628Y277628D03*
X905600Y282746D03*
X905597Y287864D03*
Y295541D03*
X919600Y223900D03*
X926200Y248600D03*
X920100Y320400D03*
X930400Y247300D03*
Y243817D03*
X937600Y362400D03*
X933300Y379800D03*
X937500Y392100D03*
X955453Y304426D03*
X955300Y308363D03*
X951300Y364900D03*
X947327Y374684D03*
X947202Y379802D03*
X963898Y306395D03*
X964200Y302458D03*
X975000Y304426D03*
X985800Y308400D03*
X977300Y365000D03*
X981383Y374684D03*
X981502Y379802D03*
X995600Y366100D03*
X995900Y379800D03*
X995500Y388400D03*
G54D23*
G01X1002526Y61900D02*
Y69026D01*
X1005800Y72300D01*
G01X1015926Y61900D02*
Y70774D01*
G01X1009226Y61900D02*
Y68874D01*
X1005800Y72300D01*
G01X1029326Y61900D02*
Y68774D01*
X1026100Y72000D01*
G01X1022626Y61900D02*
Y68526D01*
X1026100Y72000D01*
X454000Y54300D03*
X462586Y46371D03*
X458846Y66800D03*
X471100Y54300D03*
X471300Y60300D03*
X964000Y77300D03*
X982500Y6100D03*
X982700Y21500D03*
X981500Y35700D03*
X991500Y6400D03*
X991900Y21900D03*
X991400Y35900D03*
X1010200Y10700D03*
X1010600Y22800D03*
X1010400Y32000D03*
X1016900Y78300D03*
X1021700Y10400D03*
X1022300Y21700D03*
Y31700D03*
X1041100Y5800D03*
X1040500Y23100D03*
X1040700Y35800D03*
X1050300Y5800D03*
X1050400Y23400D03*
X1050500Y36000D03*
G54D33*
G01X74943Y246854D02*
X79593D01*
G01X74943Y298035D02*
X79593D01*
G01X88624Y187110D02*
Y191760D01*
G01X86065Y187110D02*
Y182460D01*
G01Y309157D02*
Y304507D01*
G01X129569Y187110D02*
Y182460D01*
G01X127010Y187110D02*
Y182460D01*
G01X134687Y187110D02*
Y191760D01*
G01X132128Y309157D02*
Y313472D01*
G01X127010Y309157D02*
Y313510D01*
G01X134687Y309157D02*
Y305213D01*
G01X124451Y309157D02*
Y304649D01*
G01X129569Y309157D02*
Y304331D01*
G01X144924Y187110D02*
Y182460D01*
G01X139806Y309157D02*
Y313705D01*
G01X137246Y309157D02*
Y313746D01*
G01X142365Y309157D02*
Y304765D01*
G01X144924Y309157D02*
Y313807D01*
G01X151100Y171500D02*
Y167700D01*
G01X156600Y171500D02*
Y167700D01*
G01X160278Y187110D02*
Y195200D01*
G01X157719Y187110D02*
Y191760D01*
G01X150042Y187110D02*
Y191760D01*
G01X152601Y181899D02*
Y179001D01*
X151100Y177500D01*
G01X155160Y181960D02*
Y178940D01*
X156600Y177500D01*
G01X155160Y187110D02*
Y181960D01*
G01X152601Y187110D02*
Y181899D01*
G01X173073Y187110D02*
Y191760D01*
G01X170514Y187110D02*
Y182460D01*
G01X175632Y187110D02*
Y181532D01*
X175665Y181500D01*
G01X173073Y309157D02*
Y313773D01*
G01X175632Y309157D02*
Y304507D01*
G01X170514Y309157D02*
Y304507D01*
G01X185868Y187110D02*
Y191760D01*
G01X196990Y198232D02*
X192000D01*
G01X196990Y249413D02*
X192340D01*
G01X185868Y309157D02*
Y313768D01*
G01X183309Y309157D02*
Y304507D01*
G01X196990Y298035D02*
X191165D01*
G01X196990Y200791D02*
X201809D01*
G01X309610Y246854D02*
X314154D01*
G01X309610Y298035D02*
X314260D01*
G01X323291Y187110D02*
Y191760D01*
G01X320732Y187110D02*
Y182460D01*
G01Y309157D02*
Y304507D01*
G01X359117Y309157D02*
Y304507D01*
G01X364236Y187110D02*
Y182460D01*
G01X361676Y187110D02*
Y182460D01*
G01X369354Y187110D02*
Y191760D01*
G01X371913Y309157D02*
Y313807D01*
G01X361676Y309157D02*
Y313807D01*
G01X366795Y309157D02*
Y313807D01*
G01X369354Y309157D02*
Y304507D01*
G01X364236Y309157D02*
Y304507D01*
G01X385850Y171500D02*
Y167650D01*
G01X384708Y187110D02*
Y191760D01*
G01X379590Y187110D02*
Y182400D01*
G01X387267Y182133D02*
Y178917D01*
X385850Y177500D01*
G01X387267Y187110D02*
Y182133D01*
G01X374472Y309157D02*
Y313807D01*
G01X377031Y309157D02*
Y304507D01*
G01X379590Y309157D02*
Y313807D01*
G01X391300Y171500D02*
Y167600D01*
G01X394944Y187110D02*
Y196200D01*
G01X392385Y187110D02*
Y191760D01*
G01X389826Y182174D02*
Y178974D01*
X391300Y177500D01*
G01X389826Y187110D02*
Y182174D01*
G01X407739Y187110D02*
Y191760D01*
G01X405180Y187110D02*
Y182460D01*
G01X410298Y187110D02*
Y181802D01*
G01X407739Y309157D02*
Y313807D01*
G01X417976Y309157D02*
Y304507D01*
G01X405180Y309157D02*
Y304507D01*
G01X410298Y309157D02*
Y304507D01*
G01X420500Y191760D02*
Y187144D01*
X420535Y187110D01*
G01X431657Y198232D02*
X426700D01*
G01X431657Y200791D02*
X436609D01*
G01X431657Y249413D02*
X427013D01*
G01X420535Y309157D02*
Y313807D01*
G01X431657Y298035D02*
X426365D01*
G01X544310Y246854D02*
X548960D01*
G01X544310Y298035D02*
X548960D01*
G01X557991Y187110D02*
Y191760D01*
G01X555432Y187110D02*
Y182460D01*
G01Y309157D02*
Y304507D01*
G01X596376Y187110D02*
Y182460D01*
G01Y309157D02*
Y313807D01*
G01X593817Y309157D02*
Y304507D01*
G01X598936Y187110D02*
Y182460D01*
G01X604054Y187110D02*
Y191446D01*
G01X609172Y309157D02*
Y313807D01*
G01X606613Y309157D02*
Y313807D01*
G01X601494Y309157D02*
Y313807D01*
G01X611731Y309157D02*
Y304507D01*
G01X604054Y309157D02*
Y304507D01*
G01X598936Y309157D02*
Y304507D01*
G01X620400Y171600D02*
Y167800D01*
G01X625900Y171600D02*
Y167800D01*
G01X627085Y187110D02*
Y191660D01*
G01X619408Y187110D02*
Y191660D01*
G01X614290Y187110D02*
Y182460D01*
G01X624526Y182826D02*
Y178974D01*
X625900Y177600D01*
G01X621967Y182867D02*
Y179167D01*
X620400Y177600D01*
G01X624526Y187110D02*
Y182826D01*
G01X621967Y187110D02*
Y182867D01*
G01X614290Y309157D02*
Y313807D01*
G01X629644Y187110D02*
Y195500D01*
G01X642439Y187110D02*
Y191660D01*
G01X639880Y187110D02*
Y182560D01*
G01X642439Y309157D02*
Y313807D01*
G01X639880Y309157D02*
Y304507D01*
G01X655235Y187110D02*
Y191725D01*
X655200Y191760D01*
G01X644998Y187110D02*
Y181902D01*
G01X655235Y309157D02*
Y313807D01*
G01X652676Y309157D02*
Y304507D01*
G01X644998Y309157D02*
Y304507D01*
G01X666357Y198232D02*
X661600D01*
G01X666357Y200791D02*
X671291D01*
G01X666357Y249413D02*
X661707D01*
G01X666357Y298035D02*
X660565D01*
G01X790122Y187175D02*
Y191825D01*
G01X792681Y187175D02*
Y182525D01*
G01X779000Y246919D02*
X783650D01*
G01X790122Y309222D02*
Y304572D01*
G01X783650Y298100D02*
X779000D01*
G01X833626Y187175D02*
Y182525D01*
G01X831067Y187175D02*
Y182525D01*
G01X836185Y309222D02*
Y313872D01*
G01X831067Y309222D02*
Y313872D01*
G01X828508Y309222D02*
Y304572D01*
G01X833626Y309222D02*
Y304572D01*
G01X848980Y187175D02*
Y182100D01*
G01X838744Y187175D02*
Y191825D01*
G01X841303Y309222D02*
Y313872D01*
G01X843862Y309222D02*
Y313872D01*
G01X846421Y309222D02*
Y304572D01*
G01X838744Y309222D02*
Y304572D01*
G01X848980Y309222D02*
Y313872D01*
G01X854900Y172100D02*
Y168300D01*
G01X860600Y172100D02*
Y168300D01*
G01X864335Y187175D02*
Y196400D01*
G01X861776Y187175D02*
Y191825D01*
G01X854098Y187175D02*
Y191825D01*
G01X856658Y182525D02*
Y179858D01*
X854900Y178100D01*
G01X859217Y182525D02*
Y179484D01*
X860600Y178100D01*
G01X856658Y187175D02*
Y182525D01*
G01X859217Y187175D02*
Y182525D01*
G01X877130Y187175D02*
Y191825D01*
G01X874571Y187175D02*
Y182525D01*
G01X879689Y187175D02*
Y182525D01*
G01X877130Y309222D02*
Y313872D01*
G01X879689Y309222D02*
Y304572D01*
G01X874571Y309222D02*
Y304572D01*
G01X889925Y187175D02*
Y191875D01*
X889900Y191900D01*
G01X901047Y198297D02*
X895900D01*
G01X901047Y249478D02*
X896397D01*
G01X887366Y309222D02*
Y313872D01*
G01X889925Y309222D02*
Y304572D01*
G01X901047Y298100D02*
X896397D01*
G01X901047Y200856D02*
X905697D01*
G54D15*
X35363Y65130D03*
Y67098D03*
Y69067D03*
X40678D03*
Y67098D03*
Y65130D03*
X39839Y398902D03*
Y396933D03*
X34524D03*
Y398902D03*
X39839Y400870D03*
X34524D03*
X55385Y65130D03*
Y67098D03*
Y69067D03*
X59849Y398902D03*
Y396933D03*
X54534D03*
Y398902D03*
X59849Y400870D03*
X54534D03*
X75083Y65130D03*
Y67098D03*
Y69067D03*
X60700D03*
Y67098D03*
Y65130D03*
X74527Y396933D03*
Y398902D03*
Y400870D03*
X80397Y69067D03*
Y67098D03*
Y65130D03*
X79842Y398902D03*
Y396933D03*
Y400870D03*
X95070Y65130D03*
Y67098D03*
Y69067D03*
X100385D03*
Y67098D03*
Y65130D03*
X99844Y398902D03*
Y396933D03*
X94529D03*
Y398902D03*
X99844Y400870D03*
X94529D03*
X115073Y65130D03*
Y67098D03*
Y69067D03*
X120388D03*
Y67098D03*
Y65130D03*
X119846Y398902D03*
Y396933D03*
X114531D03*
Y398902D03*
X119846Y400870D03*
X114531D03*
X135075Y65130D03*
Y67098D03*
Y69067D03*
X134519Y396933D03*
Y398902D03*
Y400870D03*
X140390Y69067D03*
Y67098D03*
Y65130D03*
X139834Y398902D03*
Y396933D03*
Y400870D03*
X155078Y65130D03*
Y67098D03*
Y69067D03*
X160393D03*
Y67098D03*
Y65130D03*
X159832Y398902D03*
Y396933D03*
X154517D03*
Y398902D03*
X159832Y400870D03*
X154517D03*
X175080Y65130D03*
Y67098D03*
Y69067D03*
X179813Y398902D03*
Y396933D03*
X174498D03*
Y398902D03*
X179813Y400870D03*
X174498D03*
X180395Y69067D03*
Y67098D03*
Y65130D03*
X269756Y65200D03*
Y67168D03*
Y69137D03*
X269131Y396963D03*
Y398932D03*
Y400900D03*
X275071Y69137D03*
Y67168D03*
Y65200D03*
X274446Y398932D03*
Y396963D03*
Y400900D03*
X289759Y65200D03*
Y67168D03*
Y69137D03*
X295073D03*
Y67168D03*
Y65200D03*
X294549Y398932D03*
Y396963D03*
X289234D03*
Y398932D03*
X294549Y400900D03*
X289234D03*
X309761Y65200D03*
Y67168D03*
Y69137D03*
X314537Y398932D03*
Y396963D03*
X309222D03*
Y398932D03*
X314537Y400900D03*
X309222D03*
X315076Y69137D03*
Y67168D03*
Y65200D03*
X329766D03*
Y67168D03*
Y69137D03*
X329207Y396963D03*
Y398932D03*
Y400900D03*
X335081Y69137D03*
Y67168D03*
Y65200D03*
X334522Y398932D03*
Y396963D03*
Y400900D03*
X349775Y65200D03*
Y67168D03*
Y69137D03*
X355090D03*
Y67168D03*
Y65200D03*
X354515Y398932D03*
Y396963D03*
X349200D03*
Y398932D03*
X354515Y400900D03*
X349200D03*
X369768Y65200D03*
Y67168D03*
Y69137D03*
X374520Y398932D03*
Y396963D03*
X369205D03*
Y398932D03*
X374520Y400900D03*
X369205D03*
X375083Y69137D03*
Y67168D03*
Y65200D03*
X389203Y396963D03*
Y398932D03*
Y400900D03*
X389870Y65200D03*
Y67168D03*
Y69137D03*
X395185D03*
Y67168D03*
Y65200D03*
X394518Y398932D03*
Y396963D03*
Y400900D03*
X409773Y65200D03*
Y67168D03*
Y69137D03*
X415088D03*
Y67168D03*
Y65200D03*
X414513Y398932D03*
Y396963D03*
X409198D03*
Y398932D03*
X414513Y400900D03*
X409198D03*
X504568Y65100D03*
Y67068D03*
Y69037D03*
X509418Y398932D03*
Y396963D03*
X504103D03*
Y398932D03*
X509418Y400900D03*
X504103D03*
X509883Y69037D03*
Y67068D03*
Y65100D03*
X524115Y396963D03*
Y398932D03*
Y400900D03*
X524551Y65100D03*
Y67068D03*
Y69037D03*
X529866D03*
Y67068D03*
Y65100D03*
X529430Y398932D03*
Y396963D03*
Y400900D03*
X544554Y65100D03*
Y67068D03*
Y69037D03*
X549869D03*
Y67068D03*
Y65100D03*
X549420Y398932D03*
Y396963D03*
X544105D03*
Y398932D03*
X549420Y400900D03*
X544105D03*
X564656Y65100D03*
Y67068D03*
Y69037D03*
X564100Y396963D03*
Y398932D03*
Y400900D03*
X569971Y69037D03*
Y67068D03*
Y65100D03*
X584012Y396963D03*
Y398932D03*
X569415D03*
Y396963D03*
X584012Y400900D03*
X569415D03*
X584558Y65100D03*
Y67068D03*
Y69037D03*
X589873D03*
Y67068D03*
Y65100D03*
X589327Y398932D03*
Y396963D03*
Y400900D03*
X604561Y65100D03*
Y67068D03*
Y69037D03*
X609876D03*
Y67068D03*
Y65100D03*
X609325Y398932D03*
Y396963D03*
X604010D03*
Y398932D03*
X609325Y400900D03*
X604010D03*
X624563Y65100D03*
Y67068D03*
Y69037D03*
X624007Y396963D03*
Y398932D03*
Y400900D03*
X629878Y69037D03*
Y67068D03*
Y65100D03*
X629322Y398932D03*
Y396963D03*
X643898D03*
Y398932D03*
X629322Y400900D03*
X643898D03*
X644866Y65100D03*
Y67068D03*
Y69037D03*
X650181D03*
Y67068D03*
Y65100D03*
X649213Y398932D03*
Y396963D03*
Y400900D03*
X739394Y66194D03*
Y68163D03*
Y70131D03*
X744709D03*
Y68163D03*
Y66194D03*
X744794Y398937D03*
Y396969D03*
X739479D03*
Y398937D03*
X744794Y400906D03*
X739479D03*
X759441Y66194D03*
Y68163D03*
Y70131D03*
X759468Y396969D03*
Y398937D03*
Y400906D03*
X764756Y70131D03*
Y68163D03*
Y66194D03*
X764782Y398937D03*
Y396969D03*
Y400906D03*
X779453Y66194D03*
Y68163D03*
Y70131D03*
X784768D03*
Y68163D03*
Y66194D03*
X784841Y398937D03*
Y396969D03*
X779526D03*
Y398937D03*
X784841Y400906D03*
X779526D03*
X799365Y66194D03*
Y68163D03*
Y70131D03*
X804680D03*
Y68163D03*
Y66194D03*
X804829Y398937D03*
Y396969D03*
X799514D03*
Y398937D03*
X804829Y400906D03*
X799514D03*
X819376Y66194D03*
Y68163D03*
Y70131D03*
X819574Y396933D03*
Y398902D03*
Y400870D03*
X824691Y70131D03*
Y68163D03*
Y66194D03*
X824889Y398902D03*
Y396933D03*
Y400870D03*
X839288Y66194D03*
Y68163D03*
Y70131D03*
X844603D03*
Y68163D03*
Y66194D03*
X844765Y398937D03*
Y396969D03*
X839450D03*
Y398937D03*
X844765Y400906D03*
X839450D03*
X859400Y66194D03*
Y68163D03*
Y70131D03*
X864715D03*
Y68163D03*
Y66194D03*
X864876Y398937D03*
Y396969D03*
X859561D03*
Y398937D03*
X864876Y400906D03*
X859561D03*
X879412Y66194D03*
Y68163D03*
Y70131D03*
X879356Y396969D03*
Y398937D03*
Y400906D03*
X884727Y70131D03*
Y68163D03*
Y66194D03*
X884671Y398937D03*
Y396969D03*
Y400906D03*
G54D24*
X926100Y151726D03*
X940900D03*
X955700D03*
X970500D03*
X985300D03*
X1000100D03*
G54D34*
G01X462586Y50971D02*
Y46371D01*
G01X458846Y60302D02*
Y66800D01*
G01X471300Y60300D02*
X466328D01*
X466326Y60302D01*
G54D25*
X959676Y302458D03*
Y304426D03*
Y306395D03*
Y308363D03*
Y310332D03*
X951550Y369565D03*
Y372124D03*
Y374684D03*
Y377242D03*
Y379802D03*
Y382361D03*
Y384920D03*
X979361Y308363D03*
Y306395D03*
Y304426D03*
Y302458D03*
Y310332D03*
X977140Y382361D03*
Y379802D03*
Y377242D03*
Y374684D03*
Y372124D03*
Y369565D03*
Y384920D03*
G54D16*
X43100Y67098D03*
X32900D03*
X32100Y398902D03*
X42300D03*
X52900Y67098D03*
X52100Y398902D03*
X63100Y67098D03*
X72600D03*
X72100Y398902D03*
X62300D03*
X82800Y67098D03*
X86065Y182460D03*
X88624Y191760D03*
X79593Y246854D03*
X86065Y304507D03*
X79593Y298035D03*
X82400Y398902D03*
X102800Y67098D03*
X92600D03*
X92100Y398902D03*
X102300D03*
X112600Y67098D03*
X112000Y398902D03*
X122800Y67098D03*
X132600D03*
X129569Y182460D03*
X127010D03*
X128700Y191743D03*
X134687Y191760D03*
X129600Y290300D03*
X134687Y305213D03*
X124451Y304649D03*
X129569Y304331D03*
X132128Y313472D03*
X127010Y313510D03*
X132000Y398902D03*
X122300D03*
X142800Y67098D03*
X144924Y182460D03*
X150042Y191760D03*
X142365Y304765D03*
X138900Y304800D03*
X139806Y313705D03*
X137246Y313746D03*
X144924Y313807D03*
X142300Y398902D03*
X162800Y67098D03*
X152600D03*
X151100Y167700D03*
X156600D03*
X155160Y181960D03*
X152601Y181899D03*
X160278Y195200D03*
X157719Y191760D03*
X152100Y398902D03*
X162300D03*
X172600Y67098D03*
X170514Y182460D03*
X175665Y181500D03*
X173073Y191760D03*
X175632Y304507D03*
X170514D03*
X173073Y313773D03*
X172100Y398902D03*
X182800Y67098D03*
X189600Y181500D03*
X192000Y198232D03*
X185868Y191760D03*
X192340Y249413D03*
X183309Y304507D03*
X191165Y298035D03*
X191100Y312100D03*
X185868Y313768D03*
X182200Y398902D03*
X195700Y187500D03*
X195800Y192900D03*
X201809Y200791D03*
X267491Y67168D03*
X266168Y398932D03*
X277336Y67168D03*
X276832Y398932D03*
X297900Y67168D03*
X287494D03*
X287068Y398932D03*
X296332D03*
X307300Y67168D03*
X314154Y246854D03*
X314260Y298035D03*
X306368Y398932D03*
X317500Y67168D03*
X327300D03*
X320732Y182460D03*
X323291Y191760D03*
X320732Y304507D03*
X325932Y398932D03*
X317232D03*
X337800Y67168D03*
X336932Y398932D03*
X357500Y67168D03*
X347300D03*
X359117Y304507D03*
X346668Y398932D03*
X356768D03*
X367300Y67168D03*
X364236Y182460D03*
X361676D03*
X363400Y191748D03*
X369354Y191760D03*
X364200Y290600D03*
X369354Y304507D03*
X373700Y304512D03*
X364236Y304507D03*
X371913Y313807D03*
X374472D03*
X361676D03*
X366795D03*
X366868Y398932D03*
X377500Y67168D03*
X387400D03*
X385850Y167650D03*
X379590Y182400D03*
X389826Y182174D03*
X387267Y182133D03*
X384708Y191760D03*
X377031Y304507D03*
X379590Y313807D03*
X387068Y398932D03*
X376432D03*
X397600Y67168D03*
X391300Y167600D03*
X394944Y196200D03*
X392385Y191760D03*
X396232Y398932D03*
X417500Y67168D03*
X407300D03*
X405180Y182460D03*
X410298Y181802D03*
X407739Y191760D03*
X417976Y304507D03*
X405180D03*
X410298D03*
X407739Y313807D03*
X406933Y398932D03*
X417231D03*
X430300Y187700D03*
X424400Y181800D03*
X426700Y198232D03*
X430600Y193100D03*
X420500Y191760D03*
X427013Y249413D03*
X426365Y298035D03*
X420535Y313807D03*
X426400Y311900D03*
X436609Y200791D03*
X548960Y246854D03*
Y298035D03*
X555432Y182460D03*
X557991Y191760D03*
X555432Y304507D03*
X598936Y182460D03*
X596376D03*
X598000Y191732D03*
X598900Y290600D03*
X593817Y304507D03*
X598936D03*
X596376Y313807D03*
X614290Y182460D03*
X604054Y191446D03*
X611731Y304507D03*
X608300Y304523D03*
X604054Y304507D03*
X609172Y313807D03*
X606613D03*
X601494D03*
X614290D03*
X620400Y167800D03*
X625900D03*
X629644Y195500D03*
X639880Y304507D03*
X642439Y313807D03*
X658500Y181900D03*
X655200Y191760D03*
X652676Y304507D03*
X644998D03*
X655235Y313807D03*
X665000Y187600D03*
X661600Y198232D03*
X665300Y193200D03*
X671291Y200791D03*
X661707Y249413D03*
X660565Y298035D03*
X660600Y311500D03*
X792681Y182525D03*
X790122Y191825D03*
X783650Y246919D03*
X790122Y304572D03*
X783650Y298100D03*
X833626Y182525D03*
X831067D03*
X832700Y191799D03*
X838744Y191825D03*
X833650Y291000D03*
X838744Y304572D03*
X828508D03*
X833626D03*
X836185Y313872D03*
X831067D03*
X848980Y182100D03*
X846421Y304572D03*
X843000Y304587D03*
X841303Y313872D03*
X843862D03*
X848980D03*
X860600Y168300D03*
X854900D03*
X856658Y182525D03*
X859217D03*
X864335Y196400D03*
X861776Y191825D03*
X854098D03*
X874571Y182525D03*
X879689D03*
X877130Y191825D03*
X879689Y304572D03*
X874571D03*
X877130Y313872D03*
X893500Y182550D03*
X895900Y198297D03*
X889900Y191900D03*
X896397Y249478D03*
X889925Y304572D03*
X896397Y298100D03*
X896400Y311700D03*
X887366Y313872D03*
X899700Y188316D03*
Y193300D03*
X905697Y200856D03*
X956358Y377242D03*
X963932Y310332D03*
X971958Y377242D03*
X967100Y373400D03*
X983900Y306395D03*
X973800Y316300D03*
X974732Y310332D03*
G54D17*
X74943Y198232D03*
Y200791D03*
Y203350D03*
Y205909D03*
Y208468D03*
Y211027D03*
Y213586D03*
Y216145D03*
Y218704D03*
Y221263D03*
Y223822D03*
Y226381D03*
Y228940D03*
Y231499D03*
Y234058D03*
Y236617D03*
Y239176D03*
Y241736D03*
Y244295D03*
Y246854D03*
Y249413D03*
Y251972D03*
Y254531D03*
Y257090D03*
Y259649D03*
Y262208D03*
Y264767D03*
Y267326D03*
Y269885D03*
Y272444D03*
Y275003D03*
Y277562D03*
Y280121D03*
Y282680D03*
Y285239D03*
Y287798D03*
Y290358D03*
Y292917D03*
Y295476D03*
Y298035D03*
X196990Y203350D03*
Y200791D03*
Y198232D03*
Y218704D03*
Y216145D03*
Y213586D03*
Y211027D03*
Y208468D03*
Y205909D03*
Y234058D03*
Y231499D03*
Y228940D03*
Y226381D03*
Y223822D03*
Y221263D03*
Y249413D03*
Y246854D03*
Y244295D03*
Y241736D03*
Y239176D03*
Y236617D03*
Y264767D03*
Y262208D03*
Y259649D03*
Y257090D03*
Y254531D03*
Y251972D03*
Y277562D03*
Y275003D03*
Y272444D03*
Y269885D03*
Y267326D03*
Y292917D03*
Y290358D03*
Y287798D03*
Y285239D03*
Y282680D03*
Y280121D03*
Y298035D03*
Y295476D03*
X309610Y198232D03*
Y200791D03*
Y203350D03*
Y205909D03*
Y208468D03*
Y211027D03*
Y213586D03*
Y216145D03*
Y218704D03*
Y221263D03*
Y223822D03*
Y226381D03*
Y228940D03*
Y231499D03*
Y234058D03*
Y236617D03*
Y239176D03*
Y241736D03*
Y244295D03*
Y246854D03*
Y249413D03*
Y251972D03*
Y254531D03*
Y257090D03*
Y259649D03*
Y262208D03*
Y264767D03*
Y267326D03*
Y269885D03*
Y272444D03*
Y275003D03*
Y277562D03*
Y280121D03*
Y282680D03*
Y285239D03*
Y287798D03*
Y290358D03*
Y292917D03*
Y295476D03*
Y298035D03*
X431657Y203350D03*
Y200791D03*
Y198232D03*
Y218704D03*
Y216145D03*
Y213586D03*
Y211027D03*
Y208468D03*
Y205909D03*
Y234058D03*
Y231499D03*
Y228940D03*
Y226381D03*
Y223822D03*
Y221263D03*
Y249413D03*
Y246854D03*
Y244295D03*
Y241736D03*
Y239176D03*
Y236617D03*
Y264767D03*
Y262208D03*
Y259649D03*
Y257090D03*
Y254531D03*
Y251972D03*
Y277562D03*
Y275003D03*
Y272444D03*
Y269885D03*
Y267326D03*
Y292917D03*
Y290358D03*
Y287798D03*
Y285239D03*
Y282680D03*
Y280121D03*
Y298035D03*
Y295476D03*
X544310Y198232D03*
Y200791D03*
Y203350D03*
Y205909D03*
Y208468D03*
Y211027D03*
Y213586D03*
Y216145D03*
Y218704D03*
Y221263D03*
Y223822D03*
Y226381D03*
Y228940D03*
Y231499D03*
Y234058D03*
Y236617D03*
Y239176D03*
Y241736D03*
Y244295D03*
Y246854D03*
Y249413D03*
Y251972D03*
Y254531D03*
Y257090D03*
Y259649D03*
Y262208D03*
Y264767D03*
Y267326D03*
Y269885D03*
Y272444D03*
Y275003D03*
Y277562D03*
Y280121D03*
Y282680D03*
Y285239D03*
Y287798D03*
Y290358D03*
Y292917D03*
Y295476D03*
Y298035D03*
X666357Y203350D03*
Y200791D03*
Y198232D03*
Y218704D03*
Y216145D03*
Y213586D03*
Y211027D03*
Y208468D03*
Y205909D03*
Y234058D03*
Y231499D03*
Y228940D03*
Y226381D03*
Y223822D03*
Y221263D03*
Y249413D03*
Y246854D03*
Y244295D03*
Y241736D03*
Y239176D03*
Y236617D03*
Y264767D03*
Y262208D03*
Y259649D03*
Y257090D03*
Y254531D03*
Y251972D03*
Y277562D03*
Y275003D03*
Y272444D03*
Y269885D03*
Y267326D03*
Y292917D03*
Y290358D03*
Y287798D03*
Y285239D03*
Y282680D03*
Y280121D03*
Y298035D03*
Y295476D03*
X779000Y198297D03*
Y200856D03*
Y203415D03*
Y205974D03*
Y208533D03*
Y211092D03*
Y213651D03*
Y216210D03*
Y218769D03*
Y221328D03*
Y223887D03*
Y226447D03*
Y229005D03*
Y231565D03*
Y234124D03*
Y236683D03*
Y239242D03*
Y241801D03*
Y244360D03*
Y246919D03*
Y249478D03*
Y252037D03*
Y254596D03*
Y257155D03*
Y259714D03*
Y262273D03*
Y264832D03*
Y267391D03*
Y269950D03*
Y272509D03*
Y275068D03*
Y277628D03*
Y280187D03*
Y282746D03*
Y285305D03*
Y287864D03*
Y290423D03*
Y292982D03*
Y295541D03*
Y298100D03*
X901047Y203415D03*
Y200856D03*
Y198297D03*
Y218769D03*
Y216210D03*
Y213651D03*
Y211092D03*
Y208533D03*
Y205974D03*
Y234124D03*
Y231565D03*
Y229005D03*
Y226447D03*
Y223887D03*
Y221328D03*
Y249478D03*
Y246919D03*
Y244360D03*
Y241801D03*
Y239242D03*
Y236683D03*
Y264832D03*
Y262273D03*
Y259714D03*
Y257155D03*
Y254596D03*
Y252037D03*
Y277628D03*
Y275068D03*
Y272509D03*
Y269950D03*
Y267391D03*
Y292982D03*
Y290423D03*
Y287864D03*
Y285305D03*
Y282746D03*
Y280187D03*
Y298100D03*
Y295541D03*
G54D26*
X1015926Y22900D03*
G54D18*
X88624Y187110D03*
X86065D03*
Y309157D03*
X88624D03*
X103979Y187110D03*
X101420D03*
X98861D03*
X96302D03*
X93742D03*
X91184D03*
Y309157D03*
X93742D03*
X96302D03*
X98861D03*
X101420D03*
X103979D03*
X119333Y187110D03*
X116774D03*
X114215D03*
X111656D03*
X109097D03*
X106538D03*
Y309157D03*
X109097D03*
X111656D03*
X114215D03*
X116774D03*
X119333D03*
X134687Y187110D03*
X132128D03*
X129569D03*
X127010D03*
X124451D03*
X121892D03*
Y309157D03*
X124451D03*
X127010D03*
X129569D03*
X132128D03*
X134687D03*
X150042Y187110D03*
X147483D03*
X144924D03*
X142365D03*
X139806D03*
X137246D03*
Y309157D03*
X139806D03*
X142365D03*
X144924D03*
X147483D03*
X150042D03*
X162837Y187110D03*
X160278D03*
X157719D03*
X155160D03*
X152601D03*
Y309157D03*
X155160D03*
X157719D03*
X160278D03*
X162837D03*
X178191Y187110D03*
X175632D03*
X173073D03*
X170514D03*
X167955D03*
X165396D03*
Y309157D03*
X167955D03*
X170514D03*
X173073D03*
X175632D03*
X178191D03*
X185868Y187110D03*
X183309D03*
X180750D03*
Y309157D03*
X183309D03*
X185868D03*
X328409Y187110D03*
X325850D03*
X323291D03*
X320732D03*
Y309157D03*
X323291D03*
X325850D03*
X328409D03*
X343763Y187110D03*
X341204D03*
X338645D03*
X336086D03*
X333527D03*
X330968D03*
Y309157D03*
X333527D03*
X336086D03*
X338645D03*
X341204D03*
X343763D03*
X359117Y187110D03*
X356558D03*
X353999D03*
X351440D03*
X348881D03*
X346322D03*
Y309157D03*
X348881D03*
X351440D03*
X353999D03*
X356558D03*
X359117D03*
X374472Y187110D03*
X371913D03*
X369354D03*
X366795D03*
X364236D03*
X361676D03*
Y309157D03*
X364236D03*
X366795D03*
X369354D03*
X371913D03*
X374472D03*
X387267Y187110D03*
X384708D03*
X382149D03*
X379590D03*
X377031D03*
Y309157D03*
X379590D03*
X382149D03*
X384708D03*
X387267D03*
X402621Y187110D03*
X400062D03*
X397503D03*
X394944D03*
X392385D03*
X389826D03*
Y309157D03*
X392385D03*
X394944D03*
X397503D03*
X400062D03*
X402621D03*
X417976Y187110D03*
X415417D03*
X412857D03*
X410298D03*
X407739D03*
X405180D03*
Y309157D03*
X407739D03*
X410298D03*
X412857D03*
X415417D03*
X417976D03*
X420535Y187110D03*
Y309157D03*
X568227Y187110D03*
X565668D03*
X563109D03*
X560550D03*
X557991D03*
X555432D03*
Y309157D03*
X557991D03*
X560550D03*
X563109D03*
X565668D03*
X568227D03*
X583581Y187110D03*
X581022D03*
X578463D03*
X575904D03*
X573345D03*
X570786D03*
Y309157D03*
X573345D03*
X575904D03*
X578463D03*
X581022D03*
X583581D03*
X598936Y187110D03*
X596376D03*
X593817D03*
X591258D03*
X588699D03*
X586140D03*
Y309157D03*
X588699D03*
X591258D03*
X593817D03*
X596376D03*
X598936D03*
X611731Y187110D03*
X609172D03*
X606613D03*
X604054D03*
X601494D03*
Y309157D03*
X604054D03*
X606613D03*
X609172D03*
X611731D03*
X627085Y187110D03*
X624526D03*
X621967D03*
X619408D03*
X616849D03*
X614290D03*
Y309157D03*
X616849D03*
X619408D03*
X621967D03*
X624526D03*
X627085D03*
X642439Y187110D03*
X639880D03*
X637321D03*
X634762D03*
X632203D03*
X629644D03*
Y309157D03*
X632203D03*
X634762D03*
X637321D03*
X639880D03*
X642439D03*
X655235Y187110D03*
X652676D03*
X650117D03*
X647558D03*
X644998D03*
Y309157D03*
X647558D03*
X650117D03*
X652676D03*
X655235D03*
X792681Y187175D03*
X790122D03*
Y309222D03*
X792681D03*
X808035Y187175D03*
X805476D03*
X802917D03*
X800358D03*
X797799D03*
X795240D03*
Y309222D03*
X797799D03*
X800358D03*
X802917D03*
X805476D03*
X808035D03*
X823390Y187175D03*
X820831D03*
X818272D03*
X815713D03*
X813154D03*
X810594D03*
Y309222D03*
X813154D03*
X815713D03*
X818272D03*
X820831D03*
X823390D03*
X836185Y187175D03*
X833626D03*
X831067D03*
X828508D03*
X825949D03*
Y309222D03*
X828508D03*
X831067D03*
X833626D03*
X836185D03*
X851539Y187175D03*
X848980D03*
X846421D03*
X843862D03*
X841303D03*
X838744D03*
Y309222D03*
X841303D03*
X843862D03*
X846421D03*
X848980D03*
X851539D03*
X866894Y187175D03*
X864335D03*
X861776D03*
X859217D03*
X856658D03*
X854098D03*
Y309222D03*
X856658D03*
X859217D03*
X861776D03*
X864335D03*
X866894D03*
X882248Y187175D03*
X879689D03*
X877130D03*
X874571D03*
X872012D03*
X869453D03*
Y309222D03*
X872012D03*
X874571D03*
X877130D03*
X879689D03*
X882248D03*
X889925Y187175D03*
X887366D03*
X884807D03*
Y309222D03*
X887366D03*
X889925D03*
G54D27*
X1002526Y61900D03*
X1009226D03*
X1015926D03*
X1022626D03*
X1029326D03*
G54D19*
X105200Y213100D03*
X96600Y244700D03*
X96700Y258800D03*
X129000Y244700D03*
Y258800D03*
X310050Y155300D03*
Y187700D03*
X344200Y206300D03*
X437700Y321050D03*
X470200D03*
X543300Y144800D03*
Y177100D03*
X570700Y207000D03*
X678500Y317300D03*
X711000D03*
X779716Y156784D03*
Y189784D03*
X813600Y206700D03*
X906800Y311100D03*
X939600D03*
X963500Y325800D03*
X970700Y402100D03*
X970800Y389100D03*
X978500Y61300D03*
Y93900D03*
X995900Y47000D03*
X1005800Y72300D03*
X992000Y91600D03*
X997500Y325800D03*
X1015926Y70774D03*
X1035900Y47000D03*
X1026100Y72000D03*
G54D28*
X1068300Y59250D03*
G54D29*
Y74850D03*
Y90450D03*
Y106050D03*
M02*
