G04 ================== begin FILE IDENTIFICATION RECORD ==================*
G04 Layout Name:  Microroc_Hardroc2b_Test_Board.brd*
G04 Film Name:    plane05*
G04 File Format:  Gerber RS274X*
G04 File Origin:  Cadence Allegro 16.6-S025*
G04 Origin Date:  Wed Apr 20 17:19:35 2016*
G04 *
G04 Layer:  ANTI ETCH/ALL*
G04 Layer:  ANTI ETCH/GND2*
G04 Layer:  VIA CLASS/GND2*
G04 Layer:  PIN/GND2*
G04 Layer:  ETCH/GND2*
G04 Layer:  BOARD GEOMETRY/OUTLINE*
G04 *
G04 Offset:    (0.000 0.000)*
G04 Mirror:    No*
G04 Mode:      Negative*
G04 Rotation:  0*
G04 FullContactRelief:  No*
G04 UndefLineWidth:     6.000*
G04 ================== end FILE IDENTIFICATION RECORD ====================*
%FSLAX25Y25*MOIN*%
%IR0*IPPOS*OFA0.00000B0.00000*MIA0B0*SFA1.00000B1.00000*%
%ADD21C,.1*%
%ADD32C,.11*%
%ADD10C,.156*%
%AMMACRO18*
4,1,15,.0289,.0148,
.031031,.009557,
.032219,.004023,
.032428,-.001633,
.031652,-.007239,
.029914,-.012625,
.0289,-.0148,
.0345,-.0203,
.037501,-.014001,
.039362,-.007276,
.040028,-.00033,
.039477,.006625,
.037727,.01338,
.03483,.019728,
.0345,.0203,
.0289,.0148,
0.0*
4,1,15,.0148,-.0289,
.009557,-.031031,
.004023,-.032219,
-.001633,-.032428,
-.007239,-.031652,
-.012625,-.029914,
-.0148,-.0289,
-.0203,-.0345,
-.014001,-.037501,
-.007276,-.039362,
-.00033,-.040028,
.006625,-.039477,
.01338,-.037727,
.019728,-.03483,
.0203,-.0345,
.0148,-.0289,
0.0*
4,1,15,-.0289,-.0148,
-.031031,-.009557,
-.032219,-.004023,
-.032428,.001633,
-.031652,.007239,
-.029914,.012625,
-.0289,.0148,
-.0345,.0203,
-.037501,.014001,
-.039362,.007276,
-.040028,.00033,
-.039477,-.006625,
-.037727,-.01338,
-.03483,-.019728,
-.0345,-.0203,
-.0289,-.0148,
0.0*
4,1,15,-.0148,.0289,
-.009557,.031031,
-.004023,.032219,
.001633,.032428,
.007239,.031652,
.012625,.029914,
.0148,.0289,
.0203,.0345,
.014001,.037501,
.007276,.039362,
.00033,.040028,
-.006625,.039477,
-.01338,.037727,
-.019728,.03483,
-.0203,.0345,
-.0148,.0289,
0.0*
%
%ADD18MACRO18*%
%AMMACRO15*
4,1,13,-.004,.009,
-.002366,.009557,
-.00066,.009822,
.001066,.009786,
.002759,.009452,
.004,.009,
.006,.012,
.003853,.012862,
.001589,.013338,
-.000724,.013414,
-.003014,.013087,
-.005213,.012367,
-.006,.012,
-.004,.009,
0.0*
4,1,13,-.009,-.004,
-.009557,-.002366,
-.009822,-.00066,
-.009786,.001066,
-.009452,.002759,
-.009,.004,
-.012,.006,
-.012862,.003853,
-.013338,.001589,
-.013414,-.000724,
-.013087,-.003014,
-.012367,-.005213,
-.012,-.006,
-.009,-.004,
0.0*
4,1,13,.004,-.009,
.002366,-.009557,
.00066,-.009822,
-.001066,-.009786,
-.002759,-.009452,
-.004,-.009,
-.006,-.012,
-.003853,-.012862,
-.001589,-.013338,
.000724,-.013414,
.003014,-.013087,
.005213,-.012367,
.006,-.012,
.004,-.009,
0.0*
4,1,13,.009,.004,
.009557,.002366,
.009822,.00066,
.009786,-.001066,
.009452,-.002759,
.009,-.004,
.012,-.006,
.012862,-.003853,
.013338,-.001589,
.013414,.000724,
.013087,.003014,
.012367,.005213,
.012,.006,
.009,.004,
0.0*
%
%ADD15MACRO15*%
%AMMACRO27*
4,1,14,.009,.004,
.009557,.002366,
.009822,.00066,
.009786,-.001066,
.009452,-.002759,
.009,-.004,
.012,-.007,
.013033,-.004803,
.013668,-.00246,
.013887,-.000042,
.013683,.002377,
.013061,.004724,
.012042,.006927,
.012,.007,
.009,.004,
90.*
4,1,14,.004,-.009,
.002366,-.009557,
.00066,-.009822,
-.001066,-.009786,
-.002759,-.009452,
-.004,-.009,
-.007,-.012,
-.004803,-.013033,
-.00246,-.013668,
-.000042,-.013887,
.002377,-.013683,
.004724,-.013061,
.006927,-.012042,
.007,-.012,
.004,-.009,
90.*
4,1,14,-.009,-.004,
-.009557,-.002366,
-.009822,-.00066,
-.009786,.001066,
-.009452,.002759,
-.009,.004,
-.012,.007,
-.013033,.004803,
-.013668,.00246,
-.013887,.000042,
-.013683,-.002377,
-.013061,-.004724,
-.012042,-.006927,
-.012,-.007,
-.009,-.004,
90.*
4,1,14,-.004,.009,
-.002366,.009557,
-.00066,.009822,
.001066,.009786,
.002759,.009452,
.004,.009,
.007,.012,
.004803,.013033,
.00246,.013668,
.000042,.013887,
-.002377,.013683,
-.004724,.013061,
-.006927,.012042,
-.007,.012,
-.004,.009,
90.*
%
%ADD27MACRO27*%
%AMMACRO22*
4,1,14,-.0097,.0203,
-.006028,.021676,
-.002172,.022393,
.00175,.02243,
.005618,.021786,
.009316,.020479,
.0097,.0203,
.0134,.024,
.009029,.025962,
.004383,.027136,
-.000395,.027485,
-.005162,.026998,
-.009772,.025692,
-.0134,.024,
-.0097,.0203,
90.*
4,1,14,-.0203,-.0097,
-.021676,-.006028,
-.022393,-.002172,
-.02243,.00175,
-.021786,.005618,
-.020479,.009316,
-.0203,.0097,
-.024,.0134,
-.025962,.009029,
-.027136,.004383,
-.027485,-.000395,
-.026998,-.005162,
-.025692,-.009772,
-.024,-.0134,
-.0203,-.0097,
90.*
4,1,14,.0097,-.0203,
.006028,-.021676,
.002172,-.022393,
-.00175,-.02243,
-.005618,-.021786,
-.009316,-.020479,
-.0097,-.0203,
-.0134,-.024,
-.009029,-.025962,
-.004383,-.027136,
.000395,-.027485,
.005162,-.026998,
.009772,-.025692,
.0134,-.024,
.0097,-.0203,
90.*
4,1,14,.0203,.0097,
.021676,.006028,
.022393,.002172,
.02243,-.00175,
.021786,-.005618,
.020479,-.009316,
.0203,-.0097,
.024,-.0134,
.025962,-.009029,
.027136,-.004383,
.027485,.000395,
.026998,.005162,
.025692,.009772,
.024,.0134,
.0203,.0097,
90.*
%
%ADD22MACRO22*%
%AMMACRO28*
4,1,14,-.0097,.0203,
-.006028,.021676,
-.002172,.022393,
.00175,.02243,
.005618,.021786,
.009316,.020479,
.0097,.0203,
.0134,.024,
.009029,.025962,
.004383,.027136,
-.000395,.027485,
-.005162,.026998,
-.009772,.025692,
-.0134,.024,
-.0097,.0203,
0.0*
4,1,14,-.0203,-.0097,
-.021676,-.006028,
-.022393,-.002172,
-.02243,.00175,
-.021786,.005618,
-.020479,.009316,
-.0203,.0097,
-.024,.0134,
-.025962,.009029,
-.027136,.004383,
-.027485,-.000395,
-.026998,-.005162,
-.025692,-.009772,
-.024,-.0134,
-.0203,-.0097,
0.0*
4,1,14,.0097,-.0203,
.006028,-.021676,
.002172,-.022393,
-.00175,-.02243,
-.005618,-.021786,
-.009316,-.020479,
-.0097,-.0203,
-.0134,-.024,
-.009029,-.025962,
-.004383,-.027136,
.000395,-.027485,
.005162,-.026998,
.009772,-.025692,
.0134,-.024,
.0097,-.0203,
0.0*
4,1,14,.0203,.0097,
.021676,.006028,
.022393,.002172,
.02243,-.00175,
.021786,-.005618,
.020479,-.009316,
.0203,-.0097,
.024,-.0134,
.025962,-.009029,
.027136,-.004383,
.027485,.000395,
.026998,.005162,
.025692,.009772,
.024,.0134,
.0203,.0097,
0.0*
%
%ADD28MACRO28*%
%AMMACRO19*
4,1,14,.009,.004,
.009557,.002366,
.009822,.00066,
.009786,-.001066,
.009452,-.002759,
.009,-.004,
.012,-.007,
.013033,-.004803,
.013668,-.00246,
.013887,-.000042,
.013683,.002377,
.013061,.004724,
.012042,.006927,
.012,.007,
.009,.004,
0.0*
4,1,14,.004,-.009,
.002366,-.009557,
.00066,-.009822,
-.001066,-.009786,
-.002759,-.009452,
-.004,-.009,
-.007,-.012,
-.004803,-.013033,
-.00246,-.013668,
-.000042,-.013887,
.002377,-.013683,
.004724,-.013061,
.006927,-.012042,
.007,-.012,
.004,-.009,
0.0*
4,1,14,-.009,-.004,
-.009557,-.002366,
-.009822,-.00066,
-.009786,.001066,
-.009452,.002759,
-.009,.004,
-.012,.007,
-.013033,.004803,
-.013668,.00246,
-.013887,.000042,
-.013683,-.002377,
-.013061,-.004724,
-.012042,-.006927,
-.012,-.007,
-.009,-.004,
0.0*
4,1,14,-.004,.009,
-.002366,.009557,
-.00066,.009822,
.001066,.009786,
.002759,.009452,
.004,.009,
.007,.012,
.004803,.013033,
.00246,.013668,
.000042,.013887,
-.002377,.013683,
-.004724,.013061,
-.006927,.012042,
-.007,.012,
-.004,.009,
0.0*
%
%ADD19MACRO19*%
%AMMACRO12*
4,1,14,.011575,.005918,
.012427,.003818,
.012901,.001602,
.012983,-.000662,
.012671,-.002907,
.011974,-.005063,
.011575,-.005918,
.013051,-.007394,
.014137,-.005015,
.014793,-.002484,
.014999,.000122,
.01475,.002725,
.014053,.005245,
.013051,.007394,
.011575,.005918,
0.0*
4,1,14,.005918,-.011575,
.003818,-.012427,
.001602,-.012901,
-.000662,-.012983,
-.002907,-.012671,
-.005063,-.011974,
-.005918,-.011575,
-.007394,-.013051,
-.005015,-.014137,
-.002484,-.014793,
.000122,-.014999,
.002725,-.01475,
.005245,-.014053,
.007394,-.013051,
.005918,-.011575,
0.0*
4,1,14,-.011575,-.005918,
-.012427,-.003818,
-.012901,-.001602,
-.012983,.000662,
-.012671,.002907,
-.011974,.005063,
-.011575,.005918,
-.013051,.007394,
-.014137,.005015,
-.014793,.002484,
-.014999,-.000122,
-.01475,-.002725,
-.014053,-.005245,
-.013051,-.007394,
-.011575,-.005918,
0.0*
4,1,14,-.005918,.011575,
-.003818,.012427,
-.001602,.012901,
.000662,.012983,
.002907,.012671,
.005063,.011974,
.005918,.011575,
.007394,.013051,
.005015,.014137,
.002484,.014793,
-.000122,.014999,
-.002725,.01475,
-.005245,.014053,
-.007394,.013051,
-.005918,.011575,
0.0*
%
%ADD12MACRO12*%
%ADD16C,.025*%
%ADD11C,.034*%
%ADD17C,.08*%
%ADD23C,.055*%
%ADD13C,.028*%
%AMMACRO26*
4,1,16,-.0203,.0345,
-.014001,.037501,
-.007276,.039362,
-.00033,.040028,
.006625,.039477,
.01338,.037727,
.019728,.03483,
.0203,.0345,
.0276,.0417,
.01994,.045859,
.011673,.048625,
.003052,.049913,
-.005661,.049685,
-.014203,.047947,
-.022313,.044752,
-.0276,.0417,
-.0203,.0345,
90.*
4,1,16,-.0345,-.0203,
-.037501,-.014001,
-.039362,-.007276,
-.040028,-.00033,
-.039477,.006625,
-.037727,.01338,
-.03483,.019728,
-.0345,.0203,
-.0417,.0276,
-.045859,.01994,
-.048625,.011673,
-.049913,.003052,
-.049685,-.005661,
-.047947,-.014203,
-.044752,-.022313,
-.0417,-.0276,
-.0345,-.0203,
90.*
4,1,16,.0203,-.0345,
.014001,-.037501,
.007276,-.039362,
.00033,-.040028,
-.006625,-.039477,
-.01338,-.037727,
-.019728,-.03483,
-.0203,-.0345,
-.0276,-.0417,
-.01994,-.045859,
-.011673,-.048625,
-.003052,-.049913,
.005661,-.049685,
.014203,-.047947,
.022313,-.044752,
.0276,-.0417,
.0203,-.0345,
90.*
4,1,16,.0345,.0203,
.037501,.014001,
.039362,.007276,
.040028,.00033,
.039477,-.006625,
.037727,-.01338,
.03483,-.019728,
.0345,-.0203,
.0417,-.0276,
.045859,-.01994,
.048625,-.011673,
.049913,-.003052,
.049685,.005661,
.047947,.014203,
.044752,.022313,
.0417,.0276,
.0345,.0203,
90.*
%
%ADD26MACRO26*%
%AMMACRO31*
4,1,16,-.02395,.0381,
-.01697,.04168,
-.009475,.043994,
-.001691,.044971,
.006143,.044581,
.013792,.042837,
.021021,.039791,
.02395,.0381,
.03117,.04531,
.022828,.050034,
.013793,.053238,
.004339,.054825,
-.005247,.054745,
-.014674,.053002,
-.023655,.049649,
-.03117,.04531,
-.02395,.0381,
90.*
4,1,16,-.0381,-.02395,
-.04168,-.01697,
-.043994,-.009475,
-.044971,-.001691,
-.044581,.006143,
-.042837,.013792,
-.039791,.021021,
-.0381,.02395,
-.04531,.03117,
-.050034,.022828,
-.053238,.013793,
-.054825,.004339,
-.054745,-.005247,
-.053002,-.014674,
-.049649,-.023655,
-.04531,-.03117,
-.0381,-.02395,
90.*
4,1,16,.02395,-.0381,
.01697,-.04168,
.009475,-.043994,
.001691,-.044971,
-.006143,-.044581,
-.013792,-.042837,
-.021021,-.039791,
-.02395,-.0381,
-.03117,-.04531,
-.022828,-.050034,
-.013793,-.053238,
-.004339,-.054825,
.005247,-.054745,
.014674,-.053002,
.023655,-.049649,
.03117,-.04531,
.02395,-.0381,
90.*
4,1,16,.0381,.02395,
.04168,.01697,
.043994,.009475,
.044971,.001691,
.044581,-.006143,
.042837,-.013792,
.039791,-.021021,
.0381,-.02395,
.04531,-.03117,
.050034,-.022828,
.053238,-.013793,
.054825,-.004339,
.054745,.005247,
.053002,.014674,
.049649,.023655,
.04531,.03117,
.0381,.02395,
90.*
%
%ADD31MACRO31*%
%AMMACRO20*
4,1,16,-.0203,.0345,
-.014001,.037501,
-.007276,.039362,
-.00033,.040028,
.006625,.039477,
.01338,.037727,
.019728,.03483,
.0203,.0345,
.0276,.0417,
.01994,.045859,
.011673,.048625,
.003052,.049913,
-.005661,.049685,
-.014203,.047947,
-.022313,.044752,
-.0276,.0417,
-.0203,.0345,
0.0*
4,1,16,-.0345,-.0203,
-.037501,-.014001,
-.039362,-.007276,
-.040028,-.00033,
-.039477,.006625,
-.037727,.01338,
-.03483,.019728,
-.0345,.0203,
-.0417,.0276,
-.045859,.01994,
-.048625,.011673,
-.049913,.003052,
-.049685,-.005661,
-.047947,-.014203,
-.044752,-.022313,
-.0417,-.0276,
-.0345,-.0203,
0.0*
4,1,16,.0203,-.0345,
.014001,-.037501,
.007276,-.039362,
.00033,-.040028,
-.006625,-.039477,
-.01338,-.037727,
-.019728,-.03483,
-.0203,-.0345,
-.0276,-.0417,
-.01994,-.045859,
-.011673,-.048625,
-.003052,-.049913,
.005661,-.049685,
.014203,-.047947,
.022313,-.044752,
.0276,-.0417,
.0203,-.0345,
0.0*
4,1,16,.0345,.0203,
.037501,.014001,
.039362,.007276,
.040028,.00033,
.039477,-.006625,
.037727,-.01338,
.03483,-.019728,
.0345,-.0203,
.0417,-.0276,
.045859,-.01994,
.048625,-.011673,
.049913,-.003052,
.049685,.005661,
.047947,.014203,
.044752,.022313,
.0417,.0276,
.0345,.0203,
0.0*
%
%ADD20MACRO20*%
%AMMACRO25*
4,1,13,-.004,.009,
-.002366,.009557,
-.00066,.009822,
.001066,.009786,
.002759,.009452,
.004,.009,
.006,.012,
.003853,.012862,
.001589,.013338,
-.000724,.013414,
-.003014,.013087,
-.005213,.012367,
-.006,.012,
-.004,.009,
270.*
4,1,13,-.009,-.004,
-.009557,-.002366,
-.009822,-.00066,
-.009786,.001066,
-.009452,.002759,
-.009,.004,
-.012,.006,
-.012862,.003853,
-.013338,.001589,
-.013414,-.000724,
-.013087,-.003014,
-.012367,-.005213,
-.012,-.006,
-.009,-.004,
270.*
4,1,13,.004,-.009,
.002366,-.009557,
.00066,-.009822,
-.001066,-.009786,
-.002759,-.009452,
-.004,-.009,
-.006,-.012,
-.003853,-.012862,
-.001589,-.013338,
.000724,-.013414,
.003014,-.013087,
.005213,-.012367,
.006,-.012,
.004,-.009,
270.*
4,1,13,.009,.004,
.009557,.002366,
.009822,.00066,
.009786,-.001066,
.009452,-.002759,
.009,-.004,
.012,-.006,
.012862,-.003853,
.013338,-.001589,
.013414,.000724,
.013087,.003014,
.012367,.005213,
.012,.006,
.009,.004,
270.*
%
%ADD25MACRO25*%
%AMMACRO24*
4,1,15,.0289,.0148,
.031031,.009557,
.032219,.004023,
.032428,-.001633,
.031652,-.007239,
.029914,-.012625,
.0289,-.0148,
.0345,-.0203,
.037501,-.014001,
.039362,-.007276,
.040028,-.00033,
.039477,.006625,
.037727,.01338,
.03483,.019728,
.0345,.0203,
.0289,.0148,
180.*
4,1,15,.0148,-.0289,
.009557,-.031031,
.004023,-.032219,
-.001633,-.032428,
-.007239,-.031652,
-.012625,-.029914,
-.0148,-.0289,
-.0203,-.0345,
-.014001,-.037501,
-.007276,-.039362,
-.00033,-.040028,
.006625,-.039477,
.01338,-.037727,
.019728,-.03483,
.0203,-.0345,
.0148,-.0289,
180.*
4,1,15,-.0289,-.0148,
-.031031,-.009557,
-.032219,-.004023,
-.032428,.001633,
-.031652,.007239,
-.029914,.012625,
-.0289,.0148,
-.0345,.0203,
-.037501,.014001,
-.039362,.007276,
-.040028,.00033,
-.039477,-.006625,
-.037727,-.01338,
-.03483,-.019728,
-.0345,-.0203,
-.0289,-.0148,
180.*
4,1,15,-.0148,.0289,
-.009557,.031031,
-.004023,.032219,
.001633,.032428,
.007239,.031652,
.012625,.029914,
.0148,.0289,
.0203,.0345,
.014001,.037501,
.007276,.039362,
.00033,.040028,
-.006625,.039477,
-.01338,.037727,
-.019728,.03483,
-.0203,.0345,
-.0148,.0289,
180.*
%
%ADD24MACRO24*%
%AMMACRO29*
4,1,14,-.0097,.0203,
-.006028,.021676,
-.002172,.022393,
.00175,.02243,
.005618,.021786,
.009316,.020479,
.0097,.0203,
.0134,.024,
.009029,.025962,
.004383,.027136,
-.000395,.027485,
-.005162,.026998,
-.009772,.025692,
-.0134,.024,
-.0097,.0203,
180.*
4,1,14,-.0203,-.0097,
-.021676,-.006028,
-.022393,-.002172,
-.02243,.00175,
-.021786,.005618,
-.020479,.009316,
-.0203,.0097,
-.024,.0134,
-.025962,.009029,
-.027136,.004383,
-.027485,-.000395,
-.026998,-.005162,
-.025692,-.009772,
-.024,-.0134,
-.0203,-.0097,
180.*
4,1,14,.0097,-.0203,
.006028,-.021676,
.002172,-.022393,
-.00175,-.02243,
-.005618,-.021786,
-.009316,-.020479,
-.0097,-.0203,
-.0134,-.024,
-.009029,-.025962,
-.004383,-.027136,
.000395,-.027485,
.005162,-.026998,
.009772,-.025692,
.0134,-.024,
.0097,-.0203,
180.*
4,1,14,.0203,.0097,
.021676,.006028,
.022393,.002172,
.02243,-.00175,
.021786,-.005618,
.020479,-.009316,
.0203,-.0097,
.024,-.0134,
.025962,-.009029,
.027136,-.004383,
.027485,.000395,
.026998,.005162,
.025692,.009772,
.024,.0134,
.0203,.0097,
180.*
%
%ADD29MACRO29*%
%AMMACRO30*
4,1,14,.011575,.005918,
.012427,.003818,
.012901,.001602,
.012983,-.000662,
.012671,-.002907,
.011974,-.005063,
.011575,-.005918,
.013051,-.007394,
.014137,-.005015,
.014793,-.002484,
.014999,.000122,
.01475,.002725,
.014053,.005245,
.013051,.007394,
.011575,.005918,
270.*
4,1,14,.005918,-.011575,
.003818,-.012427,
.001602,-.012901,
-.000662,-.012983,
-.002907,-.012671,
-.005063,-.011974,
-.005918,-.011575,
-.007394,-.013051,
-.005015,-.014137,
-.002484,-.014793,
.000122,-.014999,
.002725,-.01475,
.005245,-.014053,
.007394,-.013051,
.005918,-.011575,
270.*
4,1,14,-.011575,-.005918,
-.012427,-.003818,
-.012901,-.001602,
-.012983,.000662,
-.012671,.002907,
-.011974,.005063,
-.011575,.005918,
-.013051,.007394,
-.014137,.005015,
-.014793,.002484,
-.014999,-.000122,
-.01475,-.002725,
-.014053,-.005245,
-.013051,-.007394,
-.011575,-.005918,
270.*
4,1,14,-.005918,.011575,
-.003818,.012427,
-.001602,.012901,
.000662,.012983,
.002907,.012671,
.005063,.011974,
.005918,.011575,
.007394,.013051,
.005015,.014137,
.002484,.014793,
-.000122,.014999,
-.002725,.01475,
-.005245,.014053,
-.007394,.013051,
-.005918,.011575,
270.*
%
%ADD30MACRO30*%
%AMMACRO14*
4,1,14,.011575,.005918,
.012427,.003818,
.012901,.001602,
.012983,-.000662,
.012671,-.002907,
.011974,-.005063,
.011575,-.005918,
.013051,-.007394,
.014137,-.005015,
.014793,-.002484,
.014999,.000122,
.01475,.002725,
.014053,.005245,
.013051,.007394,
.011575,.005918,
180.*
4,1,14,.005918,-.011575,
.003818,-.012427,
.001602,-.012901,
-.000662,-.012983,
-.002907,-.012671,
-.005063,-.011974,
-.005918,-.011575,
-.007394,-.013051,
-.005015,-.014137,
-.002484,-.014793,
.000122,-.014999,
.002725,-.01475,
.005245,-.014053,
.007394,-.013051,
.005918,-.011575,
180.*
4,1,14,-.011575,-.005918,
-.012427,-.003818,
-.012901,-.001602,
-.012983,.000662,
-.012671,.002907,
-.011974,.005063,
-.011575,.005918,
-.013051,.007394,
-.014137,.005015,
-.014793,.002484,
-.014999,-.000122,
-.01475,-.002725,
-.014053,-.005245,
-.013051,-.007394,
-.011575,-.005918,
180.*
4,1,14,-.005918,.011575,
-.003818,.012427,
-.001602,.012901,
.000662,.012983,
.002907,.012671,
.005063,.011974,
.005918,.011575,
.007394,.013051,
.005015,.014137,
.002484,.014793,
-.000122,.014999,
-.002725,.01475,
-.005245,.014053,
-.007394,.013051,
-.005918,.011575,
180.*
%
%ADD14MACRO14*%
%ADD33C,.006*%
G75*
%LPD*%
G75*
G36*
G01X-44000Y-28000D02*
X1132000D01*
Y495000D01*
X-44000D01*
Y-28000D01*
G37*
%LPC*%
G75*
G36*
G01X1118000Y481000D02*
Y-14000D01*
X-30000D01*
Y481000D01*
X1118000D01*
G37*
%LPD*%
G75*
G54D21*
X184695Y130300D03*
X419295D03*
X653995Y130400D03*
X889900Y130700D03*
G54D32*
X1068300Y74850D03*
Y90450D03*
G54D10*
X-10200Y5900D03*
X-10000Y461000D03*
X460100Y5900D03*
X459100Y461000D03*
X1098000Y5900D03*
Y461000D03*
G54D15*
X43100Y67098D03*
X32100Y398902D03*
X52100D03*
X63100Y67098D03*
X72100Y398902D03*
X82800Y67098D03*
X86065Y182460D03*
X88624Y191760D03*
X79593Y246854D03*
X86065Y304507D03*
X79593Y298035D03*
X102800Y67098D03*
X92100Y398902D03*
X112000D03*
X122800Y67098D03*
X129569Y182460D03*
X127010D03*
X128700Y191743D03*
X129600Y290300D03*
X134687Y305213D03*
X124451Y304649D03*
X132128Y313472D03*
X127010Y313510D03*
X132000Y398902D03*
X142800Y67098D03*
X144924Y182460D03*
X150042Y191760D03*
X142365Y304765D03*
X138900Y304800D03*
X139806Y313705D03*
X137246Y313746D03*
X162800Y67098D03*
X151100Y167700D03*
X156600D03*
X157719Y191760D03*
X152100Y398902D03*
X170514Y182460D03*
X173073Y191760D03*
X175632Y304507D03*
X170514D03*
X173073Y313773D03*
X172100Y398902D03*
X182800Y67098D03*
X189600Y181500D03*
X192000Y198232D03*
X192340Y249413D03*
X183309Y304507D03*
X191100Y312100D03*
X185868Y313768D03*
X195700Y187500D03*
X195800Y192900D03*
X266168Y398932D03*
X277336Y67168D03*
X297900D03*
X287068Y398932D03*
X314154Y246854D03*
X314260Y298035D03*
X306368Y398932D03*
X317500Y67168D03*
X320732Y182460D03*
X323291Y191760D03*
X320732Y304507D03*
X325932Y398932D03*
X337800Y67168D03*
X357500D03*
X359117Y304507D03*
X346668Y398932D03*
X364236Y182460D03*
X361676D03*
X363400Y191748D03*
X364200Y290600D03*
X369354Y304507D03*
X373700Y304512D03*
X371913Y313807D03*
X374472D03*
X361676D03*
X366795D03*
X366868Y398932D03*
X377500Y67168D03*
X385850Y167650D03*
X379590Y182400D03*
X384708Y191760D03*
X377031Y304507D03*
X387068Y398932D03*
X397600Y67168D03*
X391300Y167600D03*
X392385Y191760D03*
X417500Y67168D03*
X405180Y182460D03*
X407739Y191760D03*
X417976Y304507D03*
X405180D03*
X410298D03*
X407739Y313807D03*
X406933Y398932D03*
X430300Y187700D03*
X424400Y181800D03*
X426700Y198232D03*
X430600Y193100D03*
X427013Y249413D03*
X420535Y313807D03*
X426400Y311900D03*
X548960Y246854D03*
Y298035D03*
X555432Y182460D03*
X557991Y191760D03*
X555432Y304507D03*
X598936Y182460D03*
X596376D03*
X598000Y191732D03*
X598900Y290600D03*
X593817Y304507D03*
X596376Y313807D03*
X614290Y182460D03*
X611731Y304507D03*
X608300Y304523D03*
X604054Y304507D03*
X609172Y313807D03*
X606613D03*
X601494D03*
X620400Y167800D03*
X625900D03*
X639880Y304507D03*
X642439Y313807D03*
X658500Y181900D03*
X652676Y304507D03*
X644998D03*
X655235Y313807D03*
X665000Y187600D03*
X661600Y198232D03*
X665300Y193200D03*
X661707Y249413D03*
X660600Y311500D03*
X833626Y182525D03*
X831067D03*
X832700Y191799D03*
X833650Y291000D03*
X843000Y304587D03*
X860600Y168300D03*
X854900D03*
X854098Y191825D03*
X893500Y182550D03*
X896400Y311700D03*
X899700Y188316D03*
Y193300D03*
X971958Y377242D03*
X967100Y373400D03*
X983900Y306395D03*
X973800Y316300D03*
G54D18*
X96600Y244700D03*
X96700Y258800D03*
X310050Y155300D03*
X470200Y321050D03*
X543300Y144800D03*
X711000Y317300D03*
X939600Y311100D03*
X963500Y325800D03*
X970700Y402100D03*
X978500Y61300D03*
X995900Y47000D03*
X1035900D03*
G54D22*
X454000Y54300D03*
X462586Y46371D03*
X471100Y54300D03*
G54D27*
X908000Y130700D03*
G54D19*
X134200Y209300D03*
X137300Y167800D03*
X145400Y209300D03*
X139800D03*
X147500Y288800D03*
X142000D03*
X149700Y328900D03*
X162800Y167800D03*
X161900Y209300D03*
X150900D03*
X158500Y288800D03*
X153000D03*
X162800Y328900D03*
X155200D03*
X168300Y167800D03*
X167500Y209300D03*
X175000Y288800D03*
X169500D03*
X168300Y328900D03*
X186600Y233500D03*
X181100D03*
X180800Y328900D03*
X186300D03*
X203100Y130300D03*
X223000Y248500D03*
X371900Y167900D03*
X369000Y211400D03*
X374500D03*
X385500D03*
X380100D03*
X387600Y289500D03*
X376600D03*
X382100D03*
X384300Y328900D03*
X389800D03*
X403000Y167900D03*
X397500Y167800D03*
X402000Y211400D03*
X396500D03*
X404100Y289500D03*
X393100D03*
X403000Y328900D03*
X397400D03*
X411500Y223800D03*
X409600Y289500D03*
X415450Y328850D03*
X421000Y328900D03*
X437500Y130300D03*
X457700Y248500D03*
X501800Y398932D03*
X512200Y67068D03*
X521800Y398932D03*
X532200Y67068D03*
X552200D03*
X541800Y398932D03*
X561700D03*
X572300Y67068D03*
X581700Y398932D03*
X592200Y67068D03*
X612200D03*
X606634Y167834D03*
X609200Y211500D03*
X603700D03*
X610600Y290200D03*
X601700Y398932D03*
X627085Y191660D03*
X619408D03*
X620200Y211500D03*
X614700D03*
X627100Y290200D03*
X616100D03*
X621600D03*
X624500Y328300D03*
X618900D03*
X621700Y398932D03*
X632200Y67068D03*
X637834Y167966D03*
X632200Y167900D03*
X639880Y182560D03*
X642439Y191660D03*
X636700Y211500D03*
X631200D03*
X638100Y290200D03*
X643600D03*
X637834Y328266D03*
X632300Y328300D03*
X641600Y398932D03*
X652500Y67068D03*
X647500Y223800D03*
X655600Y328300D03*
X650100D03*
X673000Y130400D03*
X691500Y248500D03*
X747000Y68163D03*
X737100Y398937D03*
X757100D03*
X767100Y68163D03*
X777200Y398937D03*
X787100Y68163D03*
X807000D03*
X797200Y398937D03*
X817200Y398902D03*
X827000Y68163D03*
X838400Y211700D03*
X837100Y398937D03*
X846663Y68163D03*
X841350Y168600D03*
X849500Y211700D03*
X843900D03*
X850584Y290000D03*
X845016D03*
X853700Y328200D03*
X867100Y68163D03*
X866916Y168900D03*
X866200Y211700D03*
X855100D03*
X861716Y290000D03*
X856150D03*
X866884Y328200D03*
X859216D03*
X857200Y398937D03*
X872484Y168900D03*
X871766Y211700D03*
X882100Y223850D03*
X878500Y290000D03*
X872500Y328200D03*
X877000Y398937D03*
X887100Y68163D03*
X890400Y328000D03*
X884816Y328100D03*
X926200Y248600D03*
X937600Y362400D03*
X933300Y379800D03*
X937500Y392100D03*
X951300Y364900D03*
X977300Y365000D03*
X995600Y366100D03*
X995900Y379800D03*
X995500Y388400D03*
G54D28*
X964000Y77300D03*
G54D12*
X25434Y38600D03*
X30434Y33600D03*
X25434D03*
X45434D03*
X40434D03*
X35434D03*
X60434D03*
X55434D03*
X50434D03*
X75434D03*
X70434D03*
X65434D03*
X90434D03*
X85434D03*
X80434D03*
X105434D03*
X100434D03*
X95434D03*
X120434D03*
X115434D03*
X110434D03*
X135434D03*
X130434D03*
X125434D03*
X150434D03*
X145434D03*
X140434D03*
X165434D03*
X160434D03*
X155434D03*
X180434D03*
X175434D03*
X170434D03*
X190434Y38600D03*
Y33600D03*
X185434D03*
X260134Y38600D03*
X270134Y33600D03*
X265134D03*
X260134D03*
X285134D03*
X280134D03*
X275134D03*
X300134D03*
X295134D03*
X290134D03*
X315134D03*
X310134D03*
X305134D03*
X330134D03*
X325134D03*
X320134D03*
X345134D03*
X340134D03*
X335134D03*
X360134D03*
X355134D03*
X350134D03*
X375134D03*
X370134D03*
X365134D03*
X390134D03*
X385134D03*
X380134D03*
X405134D03*
X400134D03*
X395134D03*
X420134D03*
X415134D03*
X410134D03*
X425134Y38600D03*
Y33600D03*
X494934Y38600D03*
Y33600D03*
X509934D03*
X504934D03*
X499934D03*
X524934D03*
X519934D03*
X514934D03*
X539934D03*
X534934D03*
X529934D03*
X554934D03*
X549934D03*
X544934D03*
X569934D03*
X564934D03*
X559934D03*
X584934D03*
X579934D03*
X574934D03*
X594934D03*
X589934D03*
X609934D03*
X604934D03*
X599934D03*
X624934D03*
X619934D03*
X614934D03*
X639934D03*
X634934D03*
X629934D03*
X654934D03*
X649934D03*
X644934D03*
X659934Y38600D03*
Y33600D03*
X729700Y38600D03*
Y33600D03*
X744700D03*
X739700D03*
X734700D03*
X759700D03*
X754700D03*
X749700D03*
X774700D03*
X769700D03*
X764700D03*
X789700D03*
X784700D03*
X779700D03*
X804700D03*
X799700D03*
X794700D03*
X819700D03*
X814700D03*
X809700D03*
X834700D03*
X829700D03*
X824700D03*
X849700D03*
X844700D03*
X839700D03*
X864700D03*
X859700D03*
X854700D03*
X879700D03*
X874700D03*
X869700D03*
X894700Y38600D03*
Y33600D03*
X889700D03*
X884700D03*
G54D11*
X30434Y38600D03*
X29466Y428500D03*
X45434Y38600D03*
X40434D03*
X35434D03*
X34466Y428500D03*
X39466D03*
X44466D03*
X60434Y38600D03*
X55434D03*
X50434D03*
X49466Y428500D03*
X54466D03*
X59466D03*
X75434Y38600D03*
X70434D03*
X65434D03*
X64466Y428500D03*
X69466D03*
X74466D03*
X90434Y38600D03*
X85434D03*
X80434D03*
X79466Y428500D03*
X84466D03*
X89466D03*
X105434Y38600D03*
X100434D03*
X95434D03*
X94466Y428500D03*
X99466D03*
X104466D03*
X120434Y38600D03*
X115434D03*
X110434D03*
X109466Y428500D03*
X114466D03*
X119466D03*
X135434Y38600D03*
X130434D03*
X125434D03*
X124466Y428500D03*
X129466D03*
X134466D03*
X150434Y38600D03*
X145434D03*
X140434D03*
X139466Y428500D03*
X144466D03*
X149466D03*
X165434Y38600D03*
X160434D03*
X155434D03*
X154466Y428500D03*
X159466D03*
X164466D03*
X180434Y38600D03*
X175434D03*
X170434D03*
X169466Y428500D03*
X174466D03*
X179466D03*
X185434Y38600D03*
X184466Y428500D03*
X270134Y38600D03*
X265134D03*
X264166Y428500D03*
X269166D03*
X285134Y38600D03*
X280134D03*
X275134D03*
X274166Y428500D03*
X279166D03*
X284166D03*
X300134Y38600D03*
X295134D03*
X290134D03*
X289166Y428500D03*
X294166D03*
X299166D03*
X315134Y38600D03*
X310134D03*
X305134D03*
X304166Y428500D03*
X309166D03*
X314166D03*
X330134Y38600D03*
X325134D03*
X320134D03*
X319166Y428500D03*
X324166D03*
X329166D03*
X345134Y38600D03*
X340134D03*
X335134D03*
X334166Y428500D03*
X339166D03*
X344166D03*
X360134Y38600D03*
X355134D03*
X350134D03*
X349166Y428500D03*
X354166D03*
X359166D03*
X375134Y38600D03*
X370134D03*
X365134D03*
X364166Y428500D03*
X369166D03*
X374166D03*
X390134Y38600D03*
X385134D03*
X380134D03*
X379166Y428500D03*
X384166D03*
X389166D03*
X405134Y38600D03*
X400134D03*
X395134D03*
X394166Y428500D03*
X399166D03*
X404166D03*
X420134Y38600D03*
X415134D03*
X410134D03*
X409166Y428500D03*
X414166D03*
X419166D03*
X509934Y38600D03*
X504934D03*
X499934D03*
X499066Y428500D03*
X504066D03*
X509066D03*
X524934Y38600D03*
X519934D03*
X514934D03*
X514066Y428500D03*
X519066D03*
X524066D03*
X539934Y38600D03*
X534934D03*
X529934D03*
X529066Y428500D03*
X534066D03*
X539066D03*
X554934Y38600D03*
X549934D03*
X544934D03*
X544066Y428500D03*
X549066D03*
X554066D03*
X569934Y38600D03*
X564934D03*
X559934D03*
X559066Y428500D03*
X564066D03*
X569066D03*
X584934Y38600D03*
X579934D03*
X574934D03*
X574066Y428500D03*
X579066D03*
X584066D03*
X594934Y38600D03*
X589934D03*
X589066Y428500D03*
X594066D03*
X599066D03*
X609934Y38600D03*
X604934D03*
X599934D03*
X604066Y428500D03*
X609066D03*
X614066D03*
X624934Y38600D03*
X619934D03*
X614934D03*
X619066Y428500D03*
X624066D03*
X629066D03*
X639934Y38600D03*
X634934D03*
X629934D03*
X634066Y428500D03*
X639066D03*
X644066D03*
X654934Y38600D03*
X649934D03*
X644934D03*
X649066Y428500D03*
X654066D03*
X734500D03*
X744700Y38600D03*
X739700D03*
X734700D03*
X739500Y428500D03*
X744500D03*
X749500D03*
X759700Y38600D03*
X754700D03*
X749700D03*
X754500Y428500D03*
X759500D03*
X764500D03*
X774700Y38600D03*
X769700D03*
X764700D03*
X769500Y428500D03*
X774500D03*
X779500D03*
X789700Y38600D03*
X784700D03*
X779700D03*
X784500Y428500D03*
X789500D03*
X804700Y38600D03*
X799700D03*
X794700D03*
X794500Y428500D03*
X799500D03*
X804500D03*
X819700Y38600D03*
X814700D03*
X809700D03*
X809500Y428500D03*
X814500D03*
X819500D03*
X834700Y38600D03*
X829700D03*
X824700D03*
X824500Y428500D03*
X829500D03*
X834500D03*
X849700Y38600D03*
X844700D03*
X839700D03*
X839500Y428500D03*
X844500D03*
X849500D03*
X864700Y38600D03*
X859700D03*
X854700D03*
X854500Y428500D03*
X859500D03*
X864500D03*
X879700Y38600D03*
X874700D03*
X869700D03*
X869500Y428500D03*
X874500D03*
X879500D03*
X889700Y38600D03*
X884700D03*
X884500Y428500D03*
X889500D03*
X1062500Y197100D03*
Y202100D03*
Y212100D03*
Y217100D03*
Y222100D03*
Y232100D03*
Y237100D03*
Y242100D03*
Y247100D03*
Y252100D03*
Y262100D03*
Y267100D03*
Y272100D03*
Y277100D03*
Y282100D03*
Y292100D03*
Y297100D03*
Y302100D03*
Y312100D03*
Y317100D03*
Y322100D03*
Y332100D03*
Y337100D03*
Y342100D03*
Y352100D03*
Y357100D03*
Y362100D03*
Y372100D03*
Y377100D03*
Y382100D03*
X1072500Y197100D03*
Y202100D03*
Y207100D03*
Y217100D03*
Y222100D03*
Y227100D03*
Y242100D03*
Y257100D03*
Y272100D03*
Y287100D03*
Y297100D03*
Y307100D03*
Y312100D03*
Y317100D03*
Y327100D03*
Y332100D03*
Y337100D03*
Y347100D03*
Y352100D03*
Y357100D03*
Y367100D03*
Y372100D03*
Y377100D03*
Y387100D03*
G54D16*
X32900Y67098D03*
X42300Y398902D03*
X52900Y67098D03*
X72600D03*
X62300Y398902D03*
X82400D03*
X92600Y67098D03*
X102300Y398902D03*
X112600Y67098D03*
X132600D03*
X134687Y191760D03*
X129569Y304331D03*
X122300Y398902D03*
X144924Y313807D03*
X142300Y398902D03*
X152600Y67098D03*
X155160Y181960D03*
X152601Y181899D03*
X160278Y195200D03*
X162300Y398902D03*
X172600Y67098D03*
X175665Y181500D03*
X185868Y191760D03*
X191165Y298035D03*
X182200Y398902D03*
X201809Y200791D03*
X267491Y67168D03*
X276832Y398932D03*
X287494Y67168D03*
X296332Y398932D03*
X307300Y67168D03*
X327300D03*
X317232Y398932D03*
X336932D03*
X347300Y67168D03*
X356768Y398932D03*
X367300Y67168D03*
X369354Y191760D03*
X364236Y304507D03*
X387400Y67168D03*
X389826Y182174D03*
X387267Y182133D03*
X379590Y313807D03*
X376432Y398932D03*
X394944Y196200D03*
X396232Y398932D03*
X407300Y67168D03*
X410298Y181802D03*
X417231Y398932D03*
X420500Y191760D03*
X426365Y298035D03*
X436609Y200791D03*
X598936Y304507D03*
X604054Y191446D03*
X614290Y313807D03*
X629644Y195500D03*
X655200Y191760D03*
X671291Y200791D03*
X660565Y298035D03*
X838744Y191825D03*
X833626Y304572D03*
X848980Y313872D03*
X856658Y182525D03*
X859217D03*
X864335Y196400D03*
X879689Y182525D03*
X889900Y191900D03*
X896397Y298100D03*
X905697Y200856D03*
X956358Y377242D03*
X963932Y310332D03*
X974732D03*
G54D17*
X105200Y213100D03*
X129000Y244700D03*
Y258800D03*
X171620Y154154D03*
X180740D03*
X189900Y154254D03*
X310050Y187700D03*
X344200Y206300D03*
X406380Y155800D03*
X415480Y155840D03*
X424580Y155880D03*
X445074Y75503D03*
Y105503D03*
X437700Y321050D03*
X465074Y75503D03*
X455074D03*
Y105503D03*
X465074D03*
X475074Y75503D03*
Y105503D03*
X543300Y177100D03*
X570700Y207000D03*
X640620Y155846D03*
X650100D03*
X659640D03*
X678500Y317300D03*
X779716Y189784D03*
X813600Y206700D03*
X875400Y155504D03*
X884720Y155604D03*
X894140Y155704D03*
X906800Y311100D03*
X926100Y131726D03*
Y141726D03*
Y151726D03*
X940900Y131726D03*
Y141726D03*
Y151726D03*
X943286Y357680D03*
X942900Y396700D03*
X955700Y131726D03*
Y141726D03*
Y151726D03*
X970500Y131726D03*
Y141726D03*
Y151726D03*
X970800Y389100D03*
X978500Y93900D03*
X985300Y131726D03*
Y141726D03*
Y151726D03*
X986306Y357780D03*
X986334Y396720D03*
X1005800Y72300D03*
X992000Y91600D03*
X1000100Y131726D03*
Y141726D03*
Y151726D03*
X997500Y325800D03*
X1026100Y72000D03*
G54D13*
X29500Y377400D03*
X40678Y63100D03*
X35400Y71100D03*
Y89900D03*
X45400D03*
X39500Y377400D03*
Y394900D03*
X34524Y403000D03*
X60700Y63100D03*
X55400Y71100D03*
Y89900D03*
X49500Y377400D03*
X59500D03*
Y394900D03*
X54534Y402966D03*
X75400Y71100D03*
X65400Y89900D03*
X75400D03*
X69500Y377400D03*
X74527Y402900D03*
X80400Y63100D03*
X85400Y89900D03*
X79500Y377400D03*
X89500D03*
X79500Y394900D03*
X100385Y63100D03*
X95400Y71100D03*
X105400Y89900D03*
X95400D03*
X99500Y377400D03*
Y394900D03*
X94529Y402900D03*
X120400Y63100D03*
X115400Y71000D03*
Y89900D03*
X119500Y377400D03*
X109500D03*
X119500Y394900D03*
X114531Y402900D03*
X135400Y70700D03*
Y89900D03*
X125400D03*
X128600Y209300D03*
X129500Y377400D03*
X134519Y403000D03*
X140400Y63100D03*
X145400Y89900D03*
X142800Y167800D03*
X142365Y181800D03*
X137246Y182560D03*
X139806Y192000D03*
X145400Y191900D03*
X136500Y288800D03*
X147483Y303883D03*
X144200Y328900D03*
X139500Y377400D03*
X149500D03*
X139500Y394900D03*
X160400Y63100D03*
X155200Y71000D03*
X165400Y89900D03*
X155400D03*
X162837Y181863D03*
X156400Y209300D03*
X164000Y288800D03*
X160100Y303900D03*
X153000Y302200D03*
X155160Y314460D03*
X165396Y313707D03*
X160278Y313878D03*
X159500Y377400D03*
Y394900D03*
X154517Y402900D03*
X180400Y63100D03*
X175400Y71300D03*
Y89900D03*
X173800Y167800D03*
X167500Y192200D03*
X177400Y200400D03*
X173100Y209300D03*
X177400Y211400D03*
Y205900D03*
X175600Y233500D03*
X176000Y262200D03*
Y256700D03*
Y251200D03*
Y273200D03*
Y267700D03*
X180500Y288800D03*
X167955Y315000D03*
X178191Y314091D03*
X173800Y328900D03*
X169500Y377400D03*
X179500D03*
Y394900D03*
X174500Y402900D03*
X185400Y89900D03*
X192150Y203350D03*
X192100Y213651D03*
X192440Y218769D03*
X192132Y208468D03*
X192109Y205909D03*
X192440Y223822D03*
X190869Y242214D03*
Y238731D03*
X191949Y259649D03*
X192010Y257090D03*
X192033Y264767D03*
X192008Y262208D03*
X192440Y277562D03*
X192026Y267326D03*
X192440Y272500D03*
Y282680D03*
Y287798D03*
Y292900D03*
X191800Y328900D03*
X201540Y216145D03*
Y211000D03*
Y221263D03*
Y233717D03*
Y226381D03*
Y237200D03*
Y251972D03*
X203100Y254531D03*
X201540Y269885D03*
Y280121D03*
Y275003D03*
Y290358D03*
Y285239D03*
Y295476D03*
X212300Y232100D03*
Y228617D03*
X226800Y247342D03*
Y243859D03*
X270100Y71200D03*
Y90000D03*
X264200Y377600D03*
X269131Y402575D03*
X275071Y63100D03*
X280100Y90000D03*
X274200Y377500D03*
X284200D03*
X274200Y395500D03*
X295100Y63200D03*
X290100Y71200D03*
Y90100D03*
X300300D03*
X294200Y377500D03*
Y394900D03*
X289234Y402900D03*
X315100Y63200D03*
X310100Y71300D03*
Y89900D03*
X304200Y377500D03*
X314200D03*
Y394900D03*
X309222Y402900D03*
X330100Y71200D03*
X320100Y90000D03*
X330100Y89900D03*
X324200Y377500D03*
X329200Y403000D03*
X335100Y63200D03*
X340100Y89900D03*
X344200Y377500D03*
X334200D03*
Y395000D03*
X355100Y63200D03*
X350100Y71300D03*
Y89900D03*
X360100D03*
X354200Y377500D03*
Y395100D03*
X349200Y402700D03*
X375100Y63200D03*
X370100Y71200D03*
Y89900D03*
X371913Y181913D03*
X374472Y191828D03*
X363500Y211400D03*
X371100Y289500D03*
X364200Y377500D03*
X374200D03*
Y395300D03*
X369200Y403000D03*
X390100Y71200D03*
X380100Y89900D03*
X390100D03*
X377400Y167800D03*
X377031Y182560D03*
X380000Y192000D03*
X387600Y302900D03*
X382149Y304607D03*
X389826Y313707D03*
X378800Y328900D03*
X384200Y377500D03*
X389203Y402900D03*
X395200Y63200D03*
X400100Y89900D03*
X397503Y182097D03*
X402000Y192300D03*
X391000Y211400D03*
X398600Y289500D03*
X394800Y304300D03*
X400062Y313707D03*
X402621Y315300D03*
X394944Y313707D03*
X394200Y377500D03*
X404100Y377600D03*
X394200Y395200D03*
X415100Y63200D03*
X410100Y71200D03*
Y89900D03*
X408500Y167900D03*
X412400Y200400D03*
X407500Y211400D03*
X412400D03*
Y205900D03*
X411300Y262200D03*
Y256700D03*
Y251200D03*
Y273200D03*
Y267700D03*
X415100Y289500D03*
X412857Y313707D03*
X408500Y328800D03*
X414200Y377500D03*
Y395100D03*
X409200Y403000D03*
X420100Y90000D03*
X427350Y203350D03*
X427000Y213651D03*
Y218769D03*
X427232Y208468D03*
X427209Y205909D03*
X426878Y223822D03*
X426200Y242197D03*
Y238714D03*
X426749Y259649D03*
X426710Y257090D03*
X426733Y264767D03*
X426692Y262208D03*
X426674Y267326D03*
X427107Y272444D03*
Y277562D03*
Y292917D03*
Y282680D03*
Y287798D03*
X426500Y328800D03*
X436207Y216210D03*
Y211027D03*
Y221328D03*
X436650Y233567D03*
X449082Y232042D03*
Y228559D03*
X436919Y226381D03*
X436650Y237050D03*
X436207Y251972D03*
X437900Y254531D03*
X436207Y269885D03*
Y275000D03*
Y280100D03*
Y285239D03*
Y290358D03*
Y295476D03*
X450900Y223800D03*
X460800Y247483D03*
Y244000D03*
X502200Y67068D03*
X504900Y71000D03*
Y90000D03*
X509100Y377500D03*
X499100D03*
X509100Y395200D03*
X504103Y402900D03*
X509883Y63100D03*
X522200Y67068D03*
X514900Y89900D03*
X519100Y377500D03*
X511800Y398932D03*
X524115Y402900D03*
X529866Y63100D03*
X524900Y70800D03*
X534900Y89900D03*
X524900D03*
X529100Y377500D03*
X539200D03*
X529100Y395200D03*
X531800Y398932D03*
X549869Y63100D03*
X542200Y67068D03*
X544900Y70800D03*
Y89900D03*
X548800Y377300D03*
X549100Y395000D03*
X551800Y398932D03*
X544105Y403000D03*
X562300Y67068D03*
X564900Y70800D03*
X554900Y89900D03*
X564900D03*
X568700Y377300D03*
X558400D03*
X569100Y395200D03*
X564100Y402900D03*
X569971Y63100D03*
X582200Y67068D03*
X574900Y89900D03*
X578900Y377300D03*
X571800Y398932D03*
X584012Y402900D03*
X590300Y63400D03*
X584900Y71000D03*
X595000Y89900D03*
X584900Y90000D03*
X598100Y211500D03*
X589100Y377500D03*
X599100D03*
X589100Y395400D03*
X591700Y398932D03*
X604900Y70700D03*
X609876Y63100D03*
X602200Y67068D03*
X604900Y89900D03*
X612200Y167900D03*
X611731Y181600D03*
X606613Y182213D03*
X609172Y191828D03*
X605100Y290200D03*
X613400Y328300D03*
X609100Y377500D03*
Y395200D03*
X611700Y398932D03*
X604010Y402900D03*
X622200Y67068D03*
X624900Y71000D03*
X625000Y89900D03*
X614900D03*
X624526Y182826D03*
X621967Y182867D03*
X614700Y192200D03*
X625700Y211500D03*
X616849Y304607D03*
X628100Y304500D03*
X621600Y303700D03*
X624526Y313707D03*
X619100Y377300D03*
X629100Y377500D03*
Y395100D03*
X624007Y402900D03*
X629878Y63100D03*
X642500Y67068D03*
X634900Y89900D03*
X643400Y167900D03*
X632203Y182003D03*
X634762Y191660D03*
X642200Y211500D03*
X634000Y232042D03*
Y228559D03*
X632600Y290200D03*
X629644Y313707D03*
X634762D03*
X637321Y315000D03*
X643400Y328300D03*
X639100Y377500D03*
X631800Y398932D03*
X643898Y402900D03*
X650181Y63100D03*
X645000Y70900D03*
Y89900D03*
X654900D03*
X644998Y181902D03*
X647100Y200400D03*
Y211400D03*
Y205900D03*
X646900Y262200D03*
Y256700D03*
Y251200D03*
Y273200D03*
Y267700D03*
X649100Y290200D03*
X647558Y313707D03*
X649100Y377500D03*
Y394900D03*
X651700Y398932D03*
X661807Y203350D03*
X670907Y216210D03*
X661807Y213651D03*
Y218769D03*
X670907Y211027D03*
X661807Y208468D03*
Y205909D03*
Y223822D03*
X670907Y221328D03*
X671400Y233500D03*
X670907Y226381D03*
X661100Y242400D03*
Y238718D03*
X671400Y237182D03*
X670907Y251972D03*
X661807Y259649D03*
Y257090D03*
Y264767D03*
Y262208D03*
X672300Y254531D03*
X670907Y269885D03*
X661807Y267326D03*
Y272444D03*
X670907Y275000D03*
X661807Y277562D03*
X670907Y280121D03*
X661800Y282700D03*
X670907Y285239D03*
X661800Y287798D03*
X670907Y290358D03*
X661807Y292917D03*
X670907Y295476D03*
X661200Y328200D03*
X679800Y232083D03*
Y228600D03*
X684800Y223800D03*
X678100Y331600D03*
X694700Y247483D03*
Y244000D03*
X695300Y348800D03*
X744709Y64200D03*
X737100Y68163D03*
X739700Y72200D03*
Y89900D03*
X734450Y377350D03*
X744450Y377450D03*
X747100Y398937D03*
X744500Y394900D03*
X739479Y402900D03*
X757100Y68163D03*
X759700Y72200D03*
X749700Y89800D03*
X759700Y89900D03*
X754450Y377400D03*
X759468Y402900D03*
X764756Y64200D03*
X777100Y68163D03*
X769700Y89900D03*
X764450Y377450D03*
X774500Y377400D03*
X764500Y394900D03*
X767100Y398937D03*
X784768Y64200D03*
X779700Y72200D03*
Y89900D03*
X789700D03*
X784450Y377400D03*
X787200Y398937D03*
X784500Y394900D03*
X779526Y402974D03*
X804680Y64200D03*
X797000Y68163D03*
X799700Y72200D03*
Y89900D03*
X804450Y377450D03*
X794450Y377400D03*
X804500Y394900D03*
X806984Y398937D03*
X799514Y403000D03*
X817000Y68163D03*
X819700Y72200D03*
Y89900D03*
X809700D03*
X814450Y377400D03*
X819574Y402900D03*
X837000Y68163D03*
X824691Y64200D03*
X829700Y89900D03*
X832900Y211700D03*
X824450Y377450D03*
X834450D03*
X827200Y398902D03*
X824500Y394900D03*
X844603Y64200D03*
X839700Y72200D03*
Y89900D03*
X849700D03*
X846900Y168600D03*
X846421Y182621D03*
X841303Y182200D03*
X849500Y191800D03*
X843862Y191725D03*
X839500Y290000D03*
X851539Y304500D03*
X848100Y328200D03*
X844450Y377400D03*
X844500Y394900D03*
X847100Y398937D03*
X839450Y402900D03*
X857100Y68163D03*
X864715Y64200D03*
X859700Y72200D03*
Y89900D03*
X866894Y182625D03*
X860700Y211700D03*
X859900Y231983D03*
Y228500D03*
X867284Y290000D03*
X864300Y304672D03*
X856150Y303400D03*
X859217Y313772D03*
X864335D03*
X854550Y377450D03*
X864550Y377350D03*
X864500Y394900D03*
X867200Y398937D03*
X859561Y402900D03*
X877100Y68163D03*
X879700Y72200D03*
Y89900D03*
X869700Y90100D03*
X878100Y168900D03*
X871900Y192300D03*
X881500Y200500D03*
X877400Y211700D03*
X881000Y211500D03*
X881200Y206000D03*
X881700Y262300D03*
Y256800D03*
Y251300D03*
Y273300D03*
X881600Y267700D03*
X869453Y313772D03*
X872012Y314800D03*
X882248Y313772D03*
X878084Y328200D03*
X874550Y377400D03*
X879356Y402900D03*
X884727Y64100D03*
X889700Y89800D03*
X896497Y203415D03*
X896651Y213651D03*
X896231Y218769D03*
X896497Y208533D03*
Y205974D03*
Y223887D03*
X895738Y242238D03*
Y238862D03*
X896497Y259714D03*
Y257155D03*
Y264832D03*
Y262273D03*
Y267391D03*
X896513Y280187D03*
X896495Y285305D03*
X884100Y290000D03*
X896497Y292982D03*
X896000Y328200D03*
X884450Y377400D03*
X884500Y394900D03*
X887000Y398937D03*
X905390Y216210D03*
X906008Y211092D03*
X905872Y221328D03*
X905900Y233600D03*
X913400Y231983D03*
Y228500D03*
X905654Y226447D03*
X905900Y237282D03*
X905637Y252037D03*
X906996Y254596D03*
X905597Y269950D03*
X905628Y277628D03*
X905600Y282746D03*
X905597Y287864D03*
Y295541D03*
X919600Y223900D03*
X920100Y320400D03*
X930400Y247300D03*
Y243817D03*
X955453Y304426D03*
X955300Y308363D03*
X947327Y374684D03*
X947202Y379802D03*
X963898Y306395D03*
X964200Y302458D03*
X975000Y304426D03*
X985800Y308400D03*
X981383Y374684D03*
X981502Y379802D03*
G54D23*
X458846Y66800D03*
X471300Y60300D03*
G54D26*
X879900Y120700D03*
Y140700D03*
X899900Y120700D03*
Y140700D03*
G54D20*
X174695Y120300D03*
Y140300D03*
X194695Y120300D03*
Y140300D03*
X409295Y120300D03*
Y140300D03*
X429295Y120300D03*
Y140300D03*
X643995Y120400D03*
Y140400D03*
X663995Y120400D03*
Y140400D03*
G54D31*
X1068300Y59250D03*
Y106050D03*
G54D24*
X779716Y156784D03*
X1015926Y70774D03*
G54D25*
X792681Y182525D03*
X790122Y191825D03*
X783650Y246919D03*
X790122Y304572D03*
X783650Y298100D03*
X838744Y304572D03*
X828508D03*
X836185Y313872D03*
X831067D03*
X848980Y182100D03*
X846421Y304572D03*
X841303Y313872D03*
X843862D03*
X861776Y191825D03*
X874571Y182525D03*
X877130Y191825D03*
X879689Y304572D03*
X874571D03*
X877130Y313872D03*
X895900Y198297D03*
X896397Y249478D03*
X889925Y304572D03*
X887366Y313872D03*
G54D29*
X982500Y6100D03*
X982700Y21500D03*
X981500Y35700D03*
X991500Y6400D03*
X991900Y21900D03*
X991400Y35900D03*
X1010200Y10700D03*
X1010600Y22800D03*
X1010400Y32000D03*
X1016900Y78300D03*
X1021700Y10400D03*
X1022300Y21700D03*
Y31700D03*
X1041100Y5800D03*
X1040500Y23100D03*
X1040700Y35800D03*
X1050300Y5800D03*
X1050400Y23400D03*
X1050500Y36000D03*
G54D14*
X24466Y428500D03*
Y433500D03*
X29466D03*
X34466D03*
X39466D03*
X44466D03*
X49466D03*
X54466D03*
X59466D03*
X64466D03*
X69466D03*
X74466D03*
X79466D03*
X84466D03*
X89466D03*
X94466D03*
X99466D03*
X104466D03*
X109466D03*
X114466D03*
X119466D03*
X124466D03*
X129466D03*
X134466D03*
X139466D03*
X144466D03*
X149466D03*
X154466D03*
X159466D03*
X164466D03*
X169466D03*
X174466D03*
X179466D03*
X189466Y428500D03*
X184466Y433500D03*
X189466D03*
X259166Y428500D03*
Y433500D03*
X264166D03*
X269166D03*
X274166D03*
X279166D03*
X284166D03*
X289166D03*
X294166D03*
X299166D03*
X304166D03*
X309166D03*
X314166D03*
X319166D03*
X324166D03*
X329166D03*
X334166D03*
X339166D03*
X344166D03*
X349166D03*
X354166D03*
X359166D03*
X364166D03*
X369166D03*
X374166D03*
X379166D03*
X384166D03*
X389166D03*
X394166D03*
X399166D03*
X404166D03*
X409166D03*
X414166D03*
X419166D03*
X424166Y428500D03*
Y433500D03*
X494066Y428500D03*
Y433500D03*
X499066D03*
X504066D03*
X509066D03*
X514066D03*
X519066D03*
X524066D03*
X529066D03*
X534066D03*
X539066D03*
X544066D03*
X549066D03*
X554066D03*
X559066D03*
X564066D03*
X569066D03*
X574066D03*
X579066D03*
X584066D03*
X589066D03*
X594066D03*
X599066D03*
X604066D03*
X609066D03*
X614066D03*
X619066D03*
X624066D03*
X629066D03*
X634066D03*
X639066D03*
X644066D03*
X659066Y428500D03*
X649066Y433500D03*
X654066D03*
X659066D03*
X729500Y428500D03*
Y433500D03*
X734500D03*
X739500D03*
X744500D03*
X749500D03*
X754500D03*
X759500D03*
X764500D03*
X769500D03*
X774500D03*
X779500D03*
X784500D03*
X789500D03*
X794500D03*
X799500D03*
X804500D03*
X809500D03*
X814500D03*
X819500D03*
X824500D03*
X829500D03*
X834500D03*
X839500D03*
X844500D03*
X849500D03*
X854500D03*
X859500D03*
X864500D03*
X869500D03*
X874500D03*
X879500D03*
X894500Y428500D03*
X884500Y433500D03*
X889500D03*
X894500D03*
G54D30*
X1062500Y192100D03*
Y207100D03*
Y227100D03*
Y257100D03*
Y287100D03*
Y307100D03*
Y327100D03*
Y347100D03*
Y367100D03*
Y387100D03*
X1072500Y192100D03*
Y212100D03*
Y232100D03*
Y237100D03*
Y247100D03*
Y252100D03*
Y262100D03*
Y267100D03*
Y277100D03*
Y282100D03*
Y292100D03*
Y302100D03*
Y322100D03*
Y342100D03*
Y362100D03*
Y382100D03*
%LPC*%
G75*
G54D33*
G01X-34000Y-18000D02*
X1122000D01*
Y485000D01*
X-34000D01*
Y-18000D01*
M02*
