G04 ================== begin FILE IDENTIFICATION RECORD ==================*
G04 Layout Name:  Microroc_Hardroc2b_Test_Board.brd*
G04 Film Name:    soldtop*
G04 File Format:  Gerber RS274X*
G04 File Origin:  Cadence Allegro 16.6-S025*
G04 Origin Date:  Wed Apr 20 17:19:35 2016*
G04 *
G04 Layer:  VIA CLASS/SOLDERMASK_TOP*
G04 Layer:  PIN/SOLDERMASK_TOP*
G04 Layer:  PACKAGE GEOMETRY/SOLDERMASK_TOP*
G04 Layer:  BOARD GEOMETRY/OUTLINE*
G04 Layer:  BOARD GEOMETRY/SOLDERMASK_TOP*
G04 *
G04 Offset:    (0.000 0.000)*
G04 Mirror:    No*
G04 Mode:      Positive*
G04 Rotation:  0*
G04 FullContactRelief:  No*
G04 UndefLineWidth:     6.000*
G04 ================== end FILE IDENTIFICATION RECORD ====================*
%FSLAX25Y25*MOIN*%
%IR0*IPPOS*OFA0.00000B0.00000*MIA0B0*SFA1.00000B1.00000*%
%ADD15R,.070866X.019685*%
%ADD16R,.019685X.070866*%
%ADD24R,.055X.13*%
%ADD18C,.11*%
%ADD26C,.12*%
%ADD25R,.12X.12*%
%ADD23R,.31X.36*%
%ADD12R,.043X.04*%
%ADD11R,.04X.038*%
%ADD10C,.03*%
%ADD20R,.028X.046*%
%ADD14C,.015*%
%ADD17C,.045*%
%ADD19C,.065*%
%ADD21R,.065X.065*%
%ADD13R,.021654X.015748*%
%ADD22R,.062992X.015748*%
%ADD27C,.006*%
G75*
%LPD*%
G75*
G54D10*
X30434Y38600D03*
X25434D03*
X30434Y33600D03*
X25434D03*
X24466Y428500D03*
X29466D03*
X24466Y433500D03*
X29466D03*
X45434Y38600D03*
X40434D03*
X35434D03*
X45434Y33600D03*
X40434D03*
X35434D03*
X34466Y428500D03*
X39466D03*
X44466D03*
X34466Y433500D03*
X39466D03*
X44466D03*
X60434Y38600D03*
X55434D03*
X50434D03*
X60434Y33600D03*
X55434D03*
X50434D03*
X49466Y428500D03*
X54466D03*
X59466D03*
X49466Y433500D03*
X54466D03*
X59466D03*
X75434Y38600D03*
X70434D03*
X65434D03*
X75434Y33600D03*
X70434D03*
X65434D03*
X64466Y428500D03*
X69466D03*
X74466D03*
X64466Y433500D03*
X69466D03*
X74466D03*
X90434Y38600D03*
X85434D03*
X80434D03*
X90434Y33600D03*
X85434D03*
X80434D03*
X79466Y428500D03*
X84466D03*
X89466D03*
X79466Y433500D03*
X84466D03*
X89466D03*
X105434Y38600D03*
X100434D03*
X95434D03*
X105434Y33600D03*
X100434D03*
X95434D03*
X94466Y428500D03*
X99466D03*
X104466D03*
X94466Y433500D03*
X99466D03*
X104466D03*
X120434Y38600D03*
X115434D03*
X110434D03*
X120434Y33600D03*
X115434D03*
X110434D03*
X109466Y428500D03*
X114466D03*
X119466D03*
X109466Y433500D03*
X114466D03*
X119466D03*
X135434Y38600D03*
X130434D03*
X125434D03*
X135434Y33600D03*
X130434D03*
X125434D03*
X124466Y428500D03*
X129466D03*
X134466D03*
X124466Y433500D03*
X129466D03*
X134466D03*
X150434Y38600D03*
X145434D03*
X140434D03*
X150434Y33600D03*
X145434D03*
X140434D03*
X139466Y428500D03*
X144466D03*
X149466D03*
X139466Y433500D03*
X144466D03*
X149466D03*
X165434Y38600D03*
X160434D03*
X155434D03*
X165434Y33600D03*
X160434D03*
X155434D03*
X154466Y428500D03*
X159466D03*
X164466D03*
X154466Y433500D03*
X159466D03*
X164466D03*
X180434Y38600D03*
X175434D03*
X170434D03*
X180434Y33600D03*
X175434D03*
X170434D03*
X169466Y428500D03*
X174466D03*
X179466D03*
X169466Y433500D03*
X174466D03*
X179466D03*
X190434Y38600D03*
X185434D03*
X190434Y33600D03*
X185434D03*
X184466Y428500D03*
X189466D03*
X184466Y433500D03*
X189466D03*
X270134Y38600D03*
X265134D03*
X260134D03*
X270134Y33600D03*
X265134D03*
X260134D03*
X259166Y428500D03*
X264166D03*
X269166D03*
X259166Y433500D03*
X264166D03*
X269166D03*
X285134Y38600D03*
X280134D03*
X275134D03*
X285134Y33600D03*
X280134D03*
X275134D03*
X274166Y428500D03*
X279166D03*
X284166D03*
X274166Y433500D03*
X279166D03*
X284166D03*
X300134Y38600D03*
X295134D03*
X290134D03*
X300134Y33600D03*
X295134D03*
X290134D03*
X289166Y428500D03*
X294166D03*
X299166D03*
X289166Y433500D03*
X294166D03*
X299166D03*
X315134Y38600D03*
X310134D03*
X305134D03*
X315134Y33600D03*
X310134D03*
X305134D03*
X304166Y428500D03*
X309166D03*
X314166D03*
X304166Y433500D03*
X309166D03*
X314166D03*
X330134Y38600D03*
X325134D03*
X320134D03*
X330134Y33600D03*
X325134D03*
X320134D03*
X319166Y428500D03*
X324166D03*
X329166D03*
X319166Y433500D03*
X324166D03*
X329166D03*
X345134Y38600D03*
X340134D03*
X335134D03*
X345134Y33600D03*
X340134D03*
X335134D03*
X334166Y428500D03*
X339166D03*
X344166D03*
X334166Y433500D03*
X339166D03*
X344166D03*
X360134Y38600D03*
X355134D03*
X350134D03*
X360134Y33600D03*
X355134D03*
X350134D03*
X349166Y428500D03*
X354166D03*
X359166D03*
X349166Y433500D03*
X354166D03*
X359166D03*
X375134Y38600D03*
X370134D03*
X365134D03*
X375134Y33600D03*
X370134D03*
X365134D03*
X364166Y428500D03*
X369166D03*
X374166D03*
X364166Y433500D03*
X369166D03*
X374166D03*
X390134Y38600D03*
X385134D03*
X380134D03*
X390134Y33600D03*
X385134D03*
X380134D03*
X379166Y428500D03*
X384166D03*
X389166D03*
X379166Y433500D03*
X384166D03*
X389166D03*
X405134Y38600D03*
X400134D03*
X395134D03*
X405134Y33600D03*
X400134D03*
X395134D03*
X394166Y428500D03*
X399166D03*
X404166D03*
X394166Y433500D03*
X399166D03*
X404166D03*
X420134Y38600D03*
X415134D03*
X410134D03*
X420134Y33600D03*
X415134D03*
X410134D03*
X409166Y428500D03*
X414166D03*
X419166D03*
X409166Y433500D03*
X414166D03*
X419166D03*
X425134Y38600D03*
Y33600D03*
X424166Y428500D03*
Y433500D03*
X494934Y38600D03*
Y33600D03*
X494066Y428500D03*
Y433500D03*
X509934Y38600D03*
X504934D03*
X499934D03*
X509934Y33600D03*
X504934D03*
X499934D03*
X499066Y428500D03*
X504066D03*
X509066D03*
X499066Y433500D03*
X504066D03*
X509066D03*
X524934Y38600D03*
X519934D03*
X514934D03*
X524934Y33600D03*
X519934D03*
X514934D03*
X514066Y428500D03*
X519066D03*
X524066D03*
X514066Y433500D03*
X519066D03*
X524066D03*
X539934Y38600D03*
X534934D03*
X529934D03*
X539934Y33600D03*
X534934D03*
X529934D03*
X529066Y428500D03*
X534066D03*
X539066D03*
X529066Y433500D03*
X534066D03*
X539066D03*
X554934Y38600D03*
X549934D03*
X544934D03*
X554934Y33600D03*
X549934D03*
X544934D03*
X544066Y428500D03*
X549066D03*
X554066D03*
X544066Y433500D03*
X549066D03*
X554066D03*
X569934Y38600D03*
X564934D03*
X559934D03*
X569934Y33600D03*
X564934D03*
X559934D03*
X559066Y428500D03*
X564066D03*
X569066D03*
X559066Y433500D03*
X564066D03*
X569066D03*
X584934Y38600D03*
X579934D03*
X574934D03*
X584934Y33600D03*
X579934D03*
X574934D03*
X574066Y428500D03*
X579066D03*
X584066D03*
X574066Y433500D03*
X579066D03*
X584066D03*
X594934Y38600D03*
X589934D03*
X594934Y33600D03*
X589934D03*
X589066Y428500D03*
X594066D03*
X599066D03*
X589066Y433500D03*
X594066D03*
X599066D03*
X609934Y38600D03*
X604934D03*
X599934D03*
X609934Y33600D03*
X604934D03*
X599934D03*
X604066Y428500D03*
X609066D03*
X614066D03*
X604066Y433500D03*
X609066D03*
X614066D03*
X624934Y38600D03*
X619934D03*
X614934D03*
X624934Y33600D03*
X619934D03*
X614934D03*
X619066Y428500D03*
X624066D03*
X629066D03*
X619066Y433500D03*
X624066D03*
X629066D03*
X639934Y38600D03*
X634934D03*
X629934D03*
X639934Y33600D03*
X634934D03*
X629934D03*
X634066Y428500D03*
X639066D03*
X644066D03*
X634066Y433500D03*
X639066D03*
X644066D03*
X654934Y38600D03*
X649934D03*
X644934D03*
X654934Y33600D03*
X649934D03*
X644934D03*
X649066Y428500D03*
X654066D03*
X659066D03*
X649066Y433500D03*
X654066D03*
X659066D03*
X659934Y38600D03*
Y33600D03*
X729700Y38600D03*
Y33600D03*
X729500Y428500D03*
X734500D03*
X729500Y433500D03*
X734500D03*
X744700Y38600D03*
X739700D03*
X734700D03*
X744700Y33600D03*
X739700D03*
X734700D03*
X739500Y428500D03*
X744500D03*
X749500D03*
X739500Y433500D03*
X744500D03*
X749500D03*
X759700Y38600D03*
X754700D03*
X749700D03*
X759700Y33600D03*
X754700D03*
X749700D03*
X754500Y428500D03*
X759500D03*
X764500D03*
X754500Y433500D03*
X759500D03*
X764500D03*
X774700Y38600D03*
X769700D03*
X764700D03*
X774700Y33600D03*
X769700D03*
X764700D03*
X769500Y428500D03*
X774500D03*
X779500D03*
X769500Y433500D03*
X774500D03*
X779500D03*
X789700Y38600D03*
X784700D03*
X779700D03*
X789700Y33600D03*
X784700D03*
X779700D03*
X784500Y428500D03*
X789500D03*
X784500Y433500D03*
X789500D03*
X804700Y38600D03*
X799700D03*
X794700D03*
X804700Y33600D03*
X799700D03*
X794700D03*
X794500Y428500D03*
X799500D03*
X804500D03*
X794500Y433500D03*
X799500D03*
X804500D03*
X819700Y38600D03*
X814700D03*
X809700D03*
X819700Y33600D03*
X814700D03*
X809700D03*
X809500Y428500D03*
X814500D03*
X819500D03*
X809500Y433500D03*
X814500D03*
X819500D03*
X834700Y38600D03*
X829700D03*
X824700D03*
X834700Y33600D03*
X829700D03*
X824700D03*
X824500Y428500D03*
X829500D03*
X834500D03*
X824500Y433500D03*
X829500D03*
X834500D03*
X849700Y38600D03*
X844700D03*
X839700D03*
X849700Y33600D03*
X844700D03*
X839700D03*
X839500Y428500D03*
X844500D03*
X849500D03*
X839500Y433500D03*
X844500D03*
X849500D03*
X864700Y38600D03*
X859700D03*
X854700D03*
X864700Y33600D03*
X859700D03*
X854700D03*
X854500Y428500D03*
X859500D03*
X864500D03*
X854500Y433500D03*
X859500D03*
X864500D03*
X879700Y38600D03*
X874700D03*
X869700D03*
X879700Y33600D03*
X874700D03*
X869700D03*
X869500Y428500D03*
X874500D03*
X879500D03*
X869500Y433500D03*
X874500D03*
X879500D03*
X894700Y38600D03*
X889700D03*
X884700D03*
X894700Y33600D03*
X889700D03*
X884700D03*
X884500Y428500D03*
X889500D03*
X894500D03*
X884500Y433500D03*
X889500D03*
X894500D03*
X1062500Y192100D03*
Y197100D03*
Y202100D03*
Y207100D03*
Y212100D03*
Y217100D03*
Y222100D03*
Y227100D03*
Y232100D03*
Y237100D03*
Y242100D03*
Y247100D03*
Y252100D03*
Y257100D03*
Y262100D03*
Y267100D03*
Y272100D03*
Y277100D03*
Y282100D03*
Y287100D03*
Y292100D03*
Y297100D03*
Y302100D03*
Y307100D03*
Y312100D03*
Y317100D03*
Y322100D03*
Y327100D03*
Y332100D03*
Y337100D03*
Y342100D03*
Y347100D03*
Y352100D03*
Y357100D03*
Y362100D03*
Y367100D03*
Y372100D03*
Y377100D03*
Y382100D03*
Y387100D03*
X1072500Y192100D03*
Y197100D03*
Y202100D03*
Y207100D03*
Y212100D03*
Y217100D03*
Y222100D03*
Y227100D03*
Y232100D03*
Y237100D03*
Y242100D03*
Y247100D03*
Y252100D03*
Y257100D03*
Y262100D03*
Y267100D03*
Y272100D03*
Y277100D03*
Y282100D03*
Y287100D03*
Y292100D03*
Y297100D03*
Y302100D03*
Y307100D03*
Y312100D03*
Y317100D03*
Y322100D03*
Y327100D03*
Y332100D03*
Y337100D03*
Y342100D03*
Y347100D03*
Y352100D03*
Y357100D03*
Y362100D03*
Y367100D03*
Y372100D03*
Y377100D03*
Y382100D03*
Y387100D03*
G54D20*
X462586Y50971D03*
X458846Y60302D03*
X466326D03*
G54D11*
X30400Y51500D03*
Y57500D03*
X40400Y51500D03*
Y57500D03*
X44500Y409600D03*
X34500D03*
X44500Y415600D03*
X34500D03*
X50400Y51500D03*
X60400D03*
X50400Y57500D03*
X60400D03*
X54500Y409600D03*
Y415600D03*
X70400Y51500D03*
Y57500D03*
X74500Y409600D03*
X64500D03*
X74500Y415600D03*
X64500D03*
X80400Y51500D03*
X90400D03*
X80400Y57500D03*
X90400D03*
X84500Y409600D03*
Y415600D03*
X100400Y51500D03*
Y57500D03*
X104500Y409600D03*
X94500D03*
X104500Y415600D03*
X94500D03*
X120400Y51500D03*
X110400D03*
X120400Y57500D03*
X110400D03*
X114500Y409600D03*
Y415600D03*
X130400Y51500D03*
Y57500D03*
X134500Y409600D03*
X124500D03*
X134500Y415600D03*
X124500D03*
X140400Y51500D03*
X150400D03*
X140400Y57500D03*
X150400D03*
X144200Y325200D03*
Y319200D03*
X149700D03*
Y325200D03*
X144500Y409600D03*
Y415600D03*
X160400Y51500D03*
Y57500D03*
X162800Y171500D03*
Y177500D03*
X164500Y409600D03*
X154500D03*
X164500Y415600D03*
X154500D03*
X170400Y51500D03*
X180400D03*
X170400Y57500D03*
X180400D03*
X173800Y171500D03*
Y177500D03*
X168300Y319200D03*
Y325200D03*
X173800D03*
Y319200D03*
X174500Y409600D03*
Y415600D03*
X191800Y325200D03*
Y319200D03*
X186300D03*
Y325200D03*
X184500Y409600D03*
Y415600D03*
X206500Y227300D03*
Y233300D03*
Y242600D03*
Y248600D03*
X265100Y51300D03*
Y57300D03*
X269150Y409600D03*
Y415600D03*
X285100Y51300D03*
X275100D03*
X285100Y57300D03*
X275100D03*
X279200Y409600D03*
Y415600D03*
X295100Y51300D03*
Y57300D03*
X299200Y409600D03*
X289200D03*
X299200Y415600D03*
X289200D03*
X305100Y51300D03*
X315100D03*
X305100Y57300D03*
X315100D03*
X309200Y409600D03*
Y415600D03*
X325100Y51300D03*
Y57300D03*
X329200Y409600D03*
X319200D03*
X329200Y415600D03*
X319200D03*
X345150Y51300D03*
X335100D03*
X345150Y57300D03*
X335100D03*
X339200Y409600D03*
Y415600D03*
X355100Y51300D03*
Y57300D03*
X359150Y409600D03*
X349200D03*
X359150Y415600D03*
X349200D03*
X365100Y51300D03*
X375100D03*
X365100Y57300D03*
X375100D03*
X369200Y409600D03*
Y415600D03*
X385100Y51300D03*
Y57300D03*
X378800Y325200D03*
Y319200D03*
X384300D03*
Y325200D03*
X389200Y409600D03*
X379200D03*
X389200Y415600D03*
X379200D03*
X405100Y51300D03*
X395150D03*
X405100Y57300D03*
X395150D03*
X397500Y171500D03*
Y177500D03*
X403000Y319200D03*
Y325200D03*
X399200Y409600D03*
Y415600D03*
X415100Y51300D03*
Y57300D03*
X408500Y171500D03*
Y177500D03*
Y325200D03*
Y319200D03*
X419200Y409600D03*
X409200D03*
X419200Y415600D03*
X409200D03*
X426500Y325200D03*
Y319200D03*
X421000D03*
Y325200D03*
X441100Y227300D03*
Y233300D03*
Y242600D03*
Y248600D03*
X500000Y51600D03*
X509900D03*
X500000Y57600D03*
X509900D03*
X504066Y409600D03*
Y415600D03*
X520000Y51600D03*
Y57600D03*
X524100Y409600D03*
X514066D03*
X524100Y415600D03*
X514066D03*
X529900Y51600D03*
X539900D03*
X529900Y57600D03*
X539900D03*
X534100Y409600D03*
Y415600D03*
X549900Y51600D03*
Y57600D03*
X554100Y409600D03*
X544100D03*
X554100Y415600D03*
X544100D03*
X559934Y51600D03*
X569934D03*
X559934Y57600D03*
X569934D03*
X564100Y409600D03*
Y415600D03*
X579934Y51600D03*
Y57600D03*
X584066Y409600D03*
X574066D03*
X584066Y415600D03*
X574066D03*
X589900Y51600D03*
X600000D03*
X589900Y57600D03*
X600000D03*
X594066Y409600D03*
Y415600D03*
X609900Y51600D03*
Y57600D03*
X613366Y324600D03*
Y318600D03*
X614100Y409600D03*
X604066D03*
X614100Y415600D03*
X604066D03*
X619934Y51600D03*
X629934D03*
X619934Y57600D03*
X629934D03*
X618900Y318600D03*
Y324600D03*
X624100Y409600D03*
Y415600D03*
X639934Y51600D03*
Y57600D03*
X643434Y171600D03*
X632200D03*
X643434Y177600D03*
X632200D03*
X637834Y318600D03*
Y324600D03*
X643400D03*
Y318600D03*
X644100Y409600D03*
X634100D03*
X644100Y415600D03*
X634100D03*
X649934Y51600D03*
Y57600D03*
X655600Y318600D03*
Y324600D03*
X654100Y409600D03*
Y415600D03*
X661166Y324600D03*
Y318600D03*
X675300Y227300D03*
Y233300D03*
Y242600D03*
Y248600D03*
X734700Y51600D03*
Y57600D03*
X744700Y51600D03*
Y57600D03*
X749500Y409600D03*
X739500D03*
X749500Y415600D03*
X739500D03*
X754700Y51600D03*
X764700D03*
X754700Y57600D03*
X764700D03*
X759500Y409600D03*
Y415600D03*
X774700Y51600D03*
Y57600D03*
X779500Y409600D03*
X769500D03*
X779500Y415600D03*
X769500D03*
X784700Y51600D03*
X794700D03*
X784700Y57600D03*
X794700D03*
X789500Y409600D03*
Y415600D03*
X804700Y51600D03*
Y57600D03*
X799500Y409600D03*
X809500D03*
X799500Y415600D03*
X809500D03*
X824700Y51600D03*
X814700D03*
X824700Y57600D03*
X814700D03*
X819500Y409600D03*
Y415600D03*
X834700Y51600D03*
Y57600D03*
X839500Y409600D03*
X829500D03*
X839500Y415600D03*
X829500D03*
X844700Y51600D03*
Y57600D03*
X841400Y172300D03*
Y178300D03*
X848100Y324500D03*
Y318500D03*
X853700D03*
Y324500D03*
X849500Y409600D03*
Y415600D03*
X854700Y51600D03*
X864700D03*
X854700Y57600D03*
X864700D03*
X866900Y172600D03*
Y178600D03*
X869500Y409600D03*
X859500D03*
X869500Y415600D03*
X859500D03*
X874700Y51600D03*
Y57600D03*
X878100Y172600D03*
Y178600D03*
X872500Y318500D03*
Y324500D03*
X878084D03*
Y318500D03*
X879400Y409600D03*
Y415600D03*
X884700Y51600D03*
Y57600D03*
X896000Y324500D03*
Y318500D03*
X890400D03*
Y324500D03*
X889500Y409600D03*
Y415600D03*
X909600Y227300D03*
Y233300D03*
Y242400D03*
Y248400D03*
X943100Y366100D03*
X937600D03*
X943000Y382400D03*
X937500D03*
X943100Y372100D03*
X937600D03*
X943000Y388400D03*
X937500D03*
X986400Y366100D03*
Y372100D03*
X986200Y382400D03*
Y388400D03*
X991900Y366100D03*
Y372100D03*
X991700Y382400D03*
Y388400D03*
G54D21*
X926100Y151726D03*
X940900D03*
X955700D03*
X970500D03*
X985300D03*
X1000100D03*
G54D12*
X30400Y80000D03*
Y86000D03*
X40400Y80000D03*
Y86000D03*
X44500Y381100D03*
X34500D03*
X44500Y387100D03*
X34500D03*
X60450Y79995D03*
Y85995D03*
X50400Y80000D03*
Y86000D03*
X54500Y381100D03*
Y387100D03*
X70450Y79995D03*
Y85995D03*
X74450Y381105D03*
X64550D03*
X74450Y387105D03*
X64550D03*
X80400Y80000D03*
Y86000D03*
X90400Y80000D03*
Y86000D03*
X84450Y381105D03*
Y387105D03*
X100400Y80000D03*
Y86000D03*
X104500Y381100D03*
X94500D03*
X104500Y387100D03*
X94500D03*
X120450Y79995D03*
Y85995D03*
X110400Y80000D03*
Y86000D03*
X114500Y381100D03*
Y387100D03*
X130350Y79995D03*
Y85995D03*
X134500Y381100D03*
X124500D03*
X134500Y387100D03*
X124500D03*
X140400Y80000D03*
Y86000D03*
X150400Y80000D03*
Y86000D03*
X137300Y171500D03*
X151100D03*
X137300Y177500D03*
X151100D03*
X144500Y381100D03*
Y387100D03*
X160400Y80000D03*
Y86000D03*
X156600Y171500D03*
Y177500D03*
X162800Y325200D03*
Y319200D03*
X155200Y325200D03*
Y319200D03*
X164550Y381105D03*
X154550D03*
X164550Y387105D03*
X154550D03*
X170350Y79895D03*
Y85895D03*
X180350Y79995D03*
Y85995D03*
X168300Y171500D03*
Y177500D03*
X180800Y325200D03*
Y319200D03*
X174550Y381105D03*
Y387105D03*
X184500Y381100D03*
Y387100D03*
X265050Y79800D03*
Y85800D03*
X269150Y381100D03*
Y387100D03*
X275100Y79800D03*
Y85800D03*
X285100Y79800D03*
Y85800D03*
X279250Y381100D03*
Y387100D03*
X295100Y79795D03*
Y85795D03*
X299200Y381105D03*
X289250Y381100D03*
X299200Y387105D03*
X289250Y387100D03*
X305100Y79795D03*
Y85795D03*
X315100Y79795D03*
Y85795D03*
X309200Y381105D03*
Y387105D03*
X325100Y79800D03*
Y85800D03*
X319200Y381105D03*
X329250Y381100D03*
X319200Y387105D03*
X329250Y387100D03*
X335100Y79800D03*
Y85800D03*
X345100Y79800D03*
Y85800D03*
X339250Y381100D03*
Y387100D03*
X355100Y79795D03*
Y85795D03*
X359200Y381100D03*
X349150D03*
X359200Y387100D03*
X349150D03*
X365100Y79795D03*
Y85795D03*
X375100Y79795D03*
Y85795D03*
X371900Y171500D03*
Y177500D03*
X369200Y381100D03*
Y387100D03*
X385150Y79800D03*
Y85800D03*
X385850Y171500D03*
Y177500D03*
X389800Y325200D03*
Y319200D03*
X389200Y381105D03*
X379200Y381100D03*
X389200Y387105D03*
X379200Y387100D03*
X405100Y79795D03*
Y85795D03*
X395150Y79800D03*
Y85800D03*
X403050Y171500D03*
X391300D03*
X403050Y177500D03*
X391300D03*
X397450Y325200D03*
Y319200D03*
X399200Y381105D03*
Y387105D03*
X415100Y79795D03*
Y85795D03*
X415450Y325200D03*
Y319200D03*
X409150Y381100D03*
X419200D03*
X409150Y387100D03*
X419200D03*
X499934Y80100D03*
Y86100D03*
X509934Y80100D03*
Y86100D03*
X504100Y381200D03*
Y387200D03*
X520034Y80100D03*
Y86100D03*
X524100Y381200D03*
X514100D03*
X524100Y387200D03*
X514100D03*
X539900Y80100D03*
Y86100D03*
X529900Y80100D03*
Y86100D03*
X534100Y381200D03*
Y387200D03*
X549900Y80100D03*
Y86100D03*
X544100Y381200D03*
X554100D03*
X544100Y387200D03*
X554100D03*
X569934Y80100D03*
Y86100D03*
X559900Y80100D03*
Y86100D03*
X564066Y381200D03*
Y387200D03*
X579934Y80100D03*
Y86100D03*
X584066Y381200D03*
X574066D03*
X584066Y387200D03*
X574066D03*
X600000Y80100D03*
Y86100D03*
X589900Y80100D03*
Y86100D03*
X594166Y381200D03*
Y387200D03*
X609900Y80100D03*
Y86100D03*
X606634Y171600D03*
Y177600D03*
X614100Y381200D03*
X604000D03*
X614100Y387200D03*
X604000D03*
X620000Y80100D03*
Y86100D03*
X629934Y80100D03*
Y86100D03*
X625900Y171600D03*
X620400D03*
X625900Y177600D03*
X620400D03*
X624466Y324600D03*
Y318600D03*
X624100Y381200D03*
Y387200D03*
X639900Y80100D03*
Y86100D03*
X637834Y171600D03*
Y177600D03*
X632266Y324600D03*
Y318600D03*
X634100Y381200D03*
X644100D03*
X634100Y387200D03*
X644100D03*
X649900Y80100D03*
Y86100D03*
X650066Y324600D03*
Y318600D03*
X654066Y381200D03*
Y387200D03*
X734650Y80089D03*
Y86089D03*
X744650Y80089D03*
Y86089D03*
X749450Y381111D03*
X739450D03*
X749450Y387111D03*
X739450D03*
X754750Y80089D03*
Y86089D03*
X764750Y80089D03*
Y86089D03*
X759450Y381111D03*
Y387111D03*
X774700Y80100D03*
Y86100D03*
X769450Y381111D03*
X779550Y381100D03*
X769450Y387111D03*
X779550Y387100D03*
X784750Y80089D03*
Y86089D03*
X794650Y80089D03*
Y86089D03*
X789450Y381111D03*
Y387111D03*
X804650Y80089D03*
Y86089D03*
X809450Y381111D03*
X799450Y381100D03*
X809450Y387111D03*
X799450Y387100D03*
X814750Y80089D03*
Y86089D03*
X824750Y80100D03*
Y86100D03*
X819550Y381111D03*
Y387111D03*
X834750Y80089D03*
Y86089D03*
X839450Y381111D03*
X829450D03*
X839450Y387111D03*
X829450D03*
X844700Y80100D03*
Y86100D03*
X854650Y80089D03*
Y86089D03*
X849450Y381111D03*
Y387111D03*
X864750Y80089D03*
Y86089D03*
X860600Y172100D03*
X854900D03*
X860600Y178100D03*
X854900D03*
X859250Y324500D03*
Y318500D03*
X866884Y324500D03*
Y318500D03*
X859450Y381111D03*
X869550Y381100D03*
X859450Y387111D03*
X869550Y387100D03*
X874750Y80089D03*
Y86089D03*
X872500Y172600D03*
Y178600D03*
X879350Y381111D03*
Y387111D03*
X884750Y80089D03*
Y86089D03*
X884850Y324500D03*
Y318500D03*
X889450Y381100D03*
Y387100D03*
G54D22*
X959676Y302458D03*
Y304426D03*
Y306395D03*
Y308363D03*
Y310332D03*
X951550Y369565D03*
Y372124D03*
Y374684D03*
Y377242D03*
Y379802D03*
Y382361D03*
Y384920D03*
X979361Y308363D03*
Y306395D03*
Y304426D03*
Y302458D03*
Y310332D03*
X977140Y382361D03*
Y379802D03*
Y377242D03*
Y374684D03*
Y372124D03*
Y369565D03*
Y384920D03*
G54D13*
X35363Y65130D03*
Y67098D03*
Y69067D03*
X40678D03*
Y67098D03*
Y65130D03*
X39839Y398902D03*
Y396933D03*
X34524D03*
Y398902D03*
X39839Y400870D03*
X34524D03*
X55385Y65130D03*
Y67098D03*
Y69067D03*
X59849Y398902D03*
Y396933D03*
X54534D03*
Y398902D03*
X59849Y400870D03*
X54534D03*
X75083Y65130D03*
Y67098D03*
Y69067D03*
X60700D03*
Y67098D03*
Y65130D03*
X74527Y396933D03*
Y398902D03*
Y400870D03*
X80397Y69067D03*
Y67098D03*
Y65130D03*
X79842Y398902D03*
Y396933D03*
Y400870D03*
X95070Y65130D03*
Y67098D03*
Y69067D03*
X100385D03*
Y67098D03*
Y65130D03*
X99844Y398902D03*
Y396933D03*
X94529D03*
Y398902D03*
X99844Y400870D03*
X94529D03*
X115073Y65130D03*
Y67098D03*
Y69067D03*
X120388D03*
Y67098D03*
Y65130D03*
X119846Y398902D03*
Y396933D03*
X114531D03*
Y398902D03*
X119846Y400870D03*
X114531D03*
X135075Y65130D03*
Y67098D03*
Y69067D03*
X134519Y396933D03*
Y398902D03*
Y400870D03*
X140390Y69067D03*
Y67098D03*
Y65130D03*
X139834Y398902D03*
Y396933D03*
Y400870D03*
X155078Y65130D03*
Y67098D03*
Y69067D03*
X160393D03*
Y67098D03*
Y65130D03*
X159832Y398902D03*
Y396933D03*
X154517D03*
Y398902D03*
X159832Y400870D03*
X154517D03*
X175080Y65130D03*
Y67098D03*
Y69067D03*
X179813Y398902D03*
Y396933D03*
X174498D03*
Y398902D03*
X179813Y400870D03*
X174498D03*
X180395Y69067D03*
Y67098D03*
Y65130D03*
X269756Y65200D03*
Y67168D03*
Y69137D03*
X269131Y396963D03*
Y398932D03*
Y400900D03*
X275071Y69137D03*
Y67168D03*
Y65200D03*
X274446Y398932D03*
Y396963D03*
Y400900D03*
X289759Y65200D03*
Y67168D03*
Y69137D03*
X295073D03*
Y67168D03*
Y65200D03*
X294549Y398932D03*
Y396963D03*
X289234D03*
Y398932D03*
X294549Y400900D03*
X289234D03*
X309761Y65200D03*
Y67168D03*
Y69137D03*
X314537Y398932D03*
Y396963D03*
X309222D03*
Y398932D03*
X314537Y400900D03*
X309222D03*
X315076Y69137D03*
Y67168D03*
Y65200D03*
X329766D03*
Y67168D03*
Y69137D03*
X329207Y396963D03*
Y398932D03*
Y400900D03*
X335081Y69137D03*
Y67168D03*
Y65200D03*
X334522Y398932D03*
Y396963D03*
Y400900D03*
X349775Y65200D03*
Y67168D03*
Y69137D03*
X355090D03*
Y67168D03*
Y65200D03*
X354515Y398932D03*
Y396963D03*
X349200D03*
Y398932D03*
X354515Y400900D03*
X349200D03*
X369768Y65200D03*
Y67168D03*
Y69137D03*
X374520Y398932D03*
Y396963D03*
X369205D03*
Y398932D03*
X374520Y400900D03*
X369205D03*
X375083Y69137D03*
Y67168D03*
Y65200D03*
X389203Y396963D03*
Y398932D03*
Y400900D03*
X389870Y65200D03*
Y67168D03*
Y69137D03*
X395185D03*
Y67168D03*
Y65200D03*
X394518Y398932D03*
Y396963D03*
Y400900D03*
X409773Y65200D03*
Y67168D03*
Y69137D03*
X415088D03*
Y67168D03*
Y65200D03*
X414513Y398932D03*
Y396963D03*
X409198D03*
Y398932D03*
X414513Y400900D03*
X409198D03*
X504568Y65100D03*
Y67068D03*
Y69037D03*
X509418Y398932D03*
Y396963D03*
X504103D03*
Y398932D03*
X509418Y400900D03*
X504103D03*
X509883Y69037D03*
Y67068D03*
Y65100D03*
X524115Y396963D03*
Y398932D03*
Y400900D03*
X524551Y65100D03*
Y67068D03*
Y69037D03*
X529866D03*
Y67068D03*
Y65100D03*
X529430Y398932D03*
Y396963D03*
Y400900D03*
X544554Y65100D03*
Y67068D03*
Y69037D03*
X549869D03*
Y67068D03*
Y65100D03*
X549420Y398932D03*
Y396963D03*
X544105D03*
Y398932D03*
X549420Y400900D03*
X544105D03*
X564656Y65100D03*
Y67068D03*
Y69037D03*
X564100Y396963D03*
Y398932D03*
Y400900D03*
X569971Y69037D03*
Y67068D03*
Y65100D03*
X584012Y396963D03*
Y398932D03*
X569415D03*
Y396963D03*
X584012Y400900D03*
X569415D03*
X584558Y65100D03*
Y67068D03*
Y69037D03*
X589873D03*
Y67068D03*
Y65100D03*
X589327Y398932D03*
Y396963D03*
Y400900D03*
X604561Y65100D03*
Y67068D03*
Y69037D03*
X609876D03*
Y67068D03*
Y65100D03*
X609325Y398932D03*
Y396963D03*
X604010D03*
Y398932D03*
X609325Y400900D03*
X604010D03*
X624563Y65100D03*
Y67068D03*
Y69037D03*
X624007Y396963D03*
Y398932D03*
Y400900D03*
X629878Y69037D03*
Y67068D03*
Y65100D03*
X629322Y398932D03*
Y396963D03*
X643898D03*
Y398932D03*
X629322Y400900D03*
X643898D03*
X644866Y65100D03*
Y67068D03*
Y69037D03*
X650181D03*
Y67068D03*
Y65100D03*
X649213Y398932D03*
Y396963D03*
Y400900D03*
X739394Y66194D03*
Y68163D03*
Y70131D03*
X744709D03*
Y68163D03*
Y66194D03*
X744794Y398937D03*
Y396969D03*
X739479D03*
Y398937D03*
X744794Y400906D03*
X739479D03*
X759441Y66194D03*
Y68163D03*
Y70131D03*
X759468Y396969D03*
Y398937D03*
Y400906D03*
X764756Y70131D03*
Y68163D03*
Y66194D03*
X764782Y398937D03*
Y396969D03*
Y400906D03*
X779453Y66194D03*
Y68163D03*
Y70131D03*
X784768D03*
Y68163D03*
Y66194D03*
X784841Y398937D03*
Y396969D03*
X779526D03*
Y398937D03*
X784841Y400906D03*
X779526D03*
X799365Y66194D03*
Y68163D03*
Y70131D03*
X804680D03*
Y68163D03*
Y66194D03*
X804829Y398937D03*
Y396969D03*
X799514D03*
Y398937D03*
X804829Y400906D03*
X799514D03*
X819376Y66194D03*
Y68163D03*
Y70131D03*
X819574Y396933D03*
Y398902D03*
Y400870D03*
X824691Y70131D03*
Y68163D03*
Y66194D03*
X824889Y398902D03*
Y396933D03*
Y400870D03*
X839288Y66194D03*
Y68163D03*
Y70131D03*
X844603D03*
Y68163D03*
Y66194D03*
X844765Y398937D03*
Y396969D03*
X839450D03*
Y398937D03*
X844765Y400906D03*
X839450D03*
X859400Y66194D03*
Y68163D03*
Y70131D03*
X864715D03*
Y68163D03*
Y66194D03*
X864876Y398937D03*
Y396969D03*
X859561D03*
Y398937D03*
X864876Y400906D03*
X859561D03*
X879412Y66194D03*
Y68163D03*
Y70131D03*
X879356Y396969D03*
Y398937D03*
Y400906D03*
X884727Y70131D03*
Y68163D03*
Y66194D03*
X884671Y398937D03*
Y396969D03*
Y400906D03*
G54D14*
X43100Y67098D03*
X32900D03*
X32100Y398902D03*
X42300D03*
X52900Y67098D03*
X52100Y398902D03*
X63100Y67098D03*
X72600D03*
X72100Y398902D03*
X62300D03*
X82800Y67098D03*
X86065Y182460D03*
X88624Y191760D03*
X79593Y246854D03*
X86065Y304507D03*
X79593Y298035D03*
X82400Y398902D03*
X102800Y67098D03*
X92600D03*
X92100Y398902D03*
X102300D03*
X112600Y67098D03*
X112000Y398902D03*
X122800Y67098D03*
X132600D03*
X129569Y182460D03*
X127010D03*
X128700Y191743D03*
X134687Y191760D03*
X129600Y290300D03*
X134687Y305213D03*
X124451Y304649D03*
X129569Y304331D03*
X132128Y313472D03*
X127010Y313510D03*
X132000Y398902D03*
X122300D03*
X142800Y67098D03*
X144924Y182460D03*
X150042Y191760D03*
X142365Y304765D03*
X138900Y304800D03*
X139806Y313705D03*
X137246Y313746D03*
X144924Y313807D03*
X142300Y398902D03*
X162800Y67098D03*
X152600D03*
X151100Y167700D03*
X156600D03*
X155160Y181960D03*
X152601Y181899D03*
X160278Y195200D03*
X157719Y191760D03*
X152100Y398902D03*
X162300D03*
X172600Y67098D03*
X170514Y182460D03*
X175665Y181500D03*
X173073Y191760D03*
X175632Y304507D03*
X170514D03*
X173073Y313773D03*
X172100Y398902D03*
X182800Y67098D03*
X189600Y181500D03*
X192000Y198232D03*
X185868Y191760D03*
X192340Y249413D03*
X183309Y304507D03*
X191165Y298035D03*
X191100Y312100D03*
X185868Y313768D03*
X182200Y398902D03*
X195700Y187500D03*
X195800Y192900D03*
X201809Y200791D03*
X267491Y67168D03*
X266168Y398932D03*
X277336Y67168D03*
X276832Y398932D03*
X297900Y67168D03*
X287494D03*
X287068Y398932D03*
X296332D03*
X307300Y67168D03*
X314154Y246854D03*
X314260Y298035D03*
X306368Y398932D03*
X317500Y67168D03*
X327300D03*
X320732Y182460D03*
X323291Y191760D03*
X320732Y304507D03*
X325932Y398932D03*
X317232D03*
X337800Y67168D03*
X336932Y398932D03*
X357500Y67168D03*
X347300D03*
X359117Y304507D03*
X346668Y398932D03*
X356768D03*
X367300Y67168D03*
X364236Y182460D03*
X361676D03*
X363400Y191748D03*
X369354Y191760D03*
X364200Y290600D03*
X369354Y304507D03*
X373700Y304512D03*
X364236Y304507D03*
X371913Y313807D03*
X374472D03*
X361676D03*
X366795D03*
X366868Y398932D03*
X377500Y67168D03*
X387400D03*
X385850Y167650D03*
X379590Y182400D03*
X389826Y182174D03*
X387267Y182133D03*
X384708Y191760D03*
X377031Y304507D03*
X379590Y313807D03*
X387068Y398932D03*
X376432D03*
X397600Y67168D03*
X391300Y167600D03*
X394944Y196200D03*
X392385Y191760D03*
X396232Y398932D03*
X417500Y67168D03*
X407300D03*
X405180Y182460D03*
X410298Y181802D03*
X407739Y191760D03*
X417976Y304507D03*
X405180D03*
X410298D03*
X407739Y313807D03*
X406933Y398932D03*
X417231D03*
X430300Y187700D03*
X424400Y181800D03*
X426700Y198232D03*
X430600Y193100D03*
X420500Y191760D03*
X427013Y249413D03*
X426365Y298035D03*
X420535Y313807D03*
X426400Y311900D03*
X436609Y200791D03*
X548960Y246854D03*
Y298035D03*
X555432Y182460D03*
X557991Y191760D03*
X555432Y304507D03*
X598936Y182460D03*
X596376D03*
X598000Y191732D03*
X598900Y290600D03*
X593817Y304507D03*
X598936D03*
X596376Y313807D03*
X614290Y182460D03*
X604054Y191446D03*
X611731Y304507D03*
X608300Y304523D03*
X604054Y304507D03*
X609172Y313807D03*
X606613D03*
X601494D03*
X614290D03*
X620400Y167800D03*
X625900D03*
X629644Y195500D03*
X639880Y304507D03*
X642439Y313807D03*
X658500Y181900D03*
X655200Y191760D03*
X652676Y304507D03*
X644998D03*
X655235Y313807D03*
X665000Y187600D03*
X661600Y198232D03*
X665300Y193200D03*
X671291Y200791D03*
X661707Y249413D03*
X660565Y298035D03*
X660600Y311500D03*
X792681Y182525D03*
X790122Y191825D03*
X783650Y246919D03*
X790122Y304572D03*
X783650Y298100D03*
X833626Y182525D03*
X831067D03*
X832700Y191799D03*
X838744Y191825D03*
X833650Y291000D03*
X838744Y304572D03*
X828508D03*
X833626D03*
X836185Y313872D03*
X831067D03*
X848980Y182100D03*
X846421Y304572D03*
X843000Y304587D03*
X841303Y313872D03*
X843862D03*
X848980D03*
X860600Y168300D03*
X854900D03*
X856658Y182525D03*
X859217D03*
X864335Y196400D03*
X861776Y191825D03*
X854098D03*
X874571Y182525D03*
X879689D03*
X877130Y191825D03*
X879689Y304572D03*
X874571D03*
X877130Y313872D03*
X893500Y182550D03*
X895900Y198297D03*
X889900Y191900D03*
X896397Y249478D03*
X889925Y304572D03*
X896397Y298100D03*
X896400Y311700D03*
X887366Y313872D03*
X899700Y188316D03*
Y193300D03*
X905697Y200856D03*
X956358Y377242D03*
X963932Y310332D03*
X971958Y377242D03*
X967100Y373400D03*
X983900Y306395D03*
X973800Y316300D03*
X974732Y310332D03*
G54D23*
X1015926Y22900D03*
G54D24*
X1002526Y61900D03*
X1009226D03*
X1015926D03*
X1022626D03*
X1029326D03*
G54D15*
X74943Y198232D03*
Y200791D03*
Y203350D03*
Y205909D03*
Y208468D03*
Y211027D03*
Y213586D03*
Y216145D03*
Y218704D03*
Y221263D03*
Y223822D03*
Y226381D03*
Y228940D03*
Y231499D03*
Y234058D03*
Y236617D03*
Y239176D03*
Y241736D03*
Y244295D03*
Y246854D03*
Y249413D03*
Y251972D03*
Y254531D03*
Y257090D03*
Y259649D03*
Y262208D03*
Y264767D03*
Y267326D03*
Y269885D03*
Y272444D03*
Y275003D03*
Y277562D03*
Y280121D03*
Y282680D03*
Y285239D03*
Y287798D03*
Y290358D03*
Y292917D03*
Y295476D03*
Y298035D03*
X196990Y203350D03*
Y200791D03*
Y198232D03*
Y218704D03*
Y216145D03*
Y213586D03*
Y211027D03*
Y208468D03*
Y205909D03*
Y234058D03*
Y231499D03*
Y228940D03*
Y226381D03*
Y223822D03*
Y221263D03*
Y249413D03*
Y246854D03*
Y244295D03*
Y241736D03*
Y239176D03*
Y236617D03*
Y264767D03*
Y262208D03*
Y259649D03*
Y257090D03*
Y254531D03*
Y251972D03*
Y277562D03*
Y275003D03*
Y272444D03*
Y269885D03*
Y267326D03*
Y292917D03*
Y290358D03*
Y287798D03*
Y285239D03*
Y282680D03*
Y280121D03*
Y298035D03*
Y295476D03*
X309610Y198232D03*
Y200791D03*
Y203350D03*
Y205909D03*
Y208468D03*
Y211027D03*
Y213586D03*
Y216145D03*
Y218704D03*
Y221263D03*
Y223822D03*
Y226381D03*
Y228940D03*
Y231499D03*
Y234058D03*
Y236617D03*
Y239176D03*
Y241736D03*
Y244295D03*
Y246854D03*
Y249413D03*
Y251972D03*
Y254531D03*
Y257090D03*
Y259649D03*
Y262208D03*
Y264767D03*
Y267326D03*
Y269885D03*
Y272444D03*
Y275003D03*
Y277562D03*
Y280121D03*
Y282680D03*
Y285239D03*
Y287798D03*
Y290358D03*
Y292917D03*
Y295476D03*
Y298035D03*
X431657Y203350D03*
Y200791D03*
Y198232D03*
Y218704D03*
Y216145D03*
Y213586D03*
Y211027D03*
Y208468D03*
Y205909D03*
Y234058D03*
Y231499D03*
Y228940D03*
Y226381D03*
Y223822D03*
Y221263D03*
Y249413D03*
Y246854D03*
Y244295D03*
Y241736D03*
Y239176D03*
Y236617D03*
Y264767D03*
Y262208D03*
Y259649D03*
Y257090D03*
Y254531D03*
Y251972D03*
Y277562D03*
Y275003D03*
Y272444D03*
Y269885D03*
Y267326D03*
Y292917D03*
Y290358D03*
Y287798D03*
Y285239D03*
Y282680D03*
Y280121D03*
Y298035D03*
Y295476D03*
X544310Y198232D03*
Y200791D03*
Y203350D03*
Y205909D03*
Y208468D03*
Y211027D03*
Y213586D03*
Y216145D03*
Y218704D03*
Y221263D03*
Y223822D03*
Y226381D03*
Y228940D03*
Y231499D03*
Y234058D03*
Y236617D03*
Y239176D03*
Y241736D03*
Y244295D03*
Y246854D03*
Y249413D03*
Y251972D03*
Y254531D03*
Y257090D03*
Y259649D03*
Y262208D03*
Y264767D03*
Y267326D03*
Y269885D03*
Y272444D03*
Y275003D03*
Y277562D03*
Y280121D03*
Y282680D03*
Y285239D03*
Y287798D03*
Y290358D03*
Y292917D03*
Y295476D03*
Y298035D03*
X666357Y203350D03*
Y200791D03*
Y198232D03*
Y218704D03*
Y216145D03*
Y213586D03*
Y211027D03*
Y208468D03*
Y205909D03*
Y234058D03*
Y231499D03*
Y228940D03*
Y226381D03*
Y223822D03*
Y221263D03*
Y249413D03*
Y246854D03*
Y244295D03*
Y241736D03*
Y239176D03*
Y236617D03*
Y264767D03*
Y262208D03*
Y259649D03*
Y257090D03*
Y254531D03*
Y251972D03*
Y277562D03*
Y275003D03*
Y272444D03*
Y269885D03*
Y267326D03*
Y292917D03*
Y290358D03*
Y287798D03*
Y285239D03*
Y282680D03*
Y280121D03*
Y298035D03*
Y295476D03*
X779000Y198297D03*
Y200856D03*
Y203415D03*
Y205974D03*
Y208533D03*
Y211092D03*
Y213651D03*
Y216210D03*
Y218769D03*
Y221328D03*
Y223887D03*
Y226447D03*
Y229005D03*
Y231565D03*
Y234124D03*
Y236683D03*
Y239242D03*
Y241801D03*
Y244360D03*
Y246919D03*
Y249478D03*
Y252037D03*
Y254596D03*
Y257155D03*
Y259714D03*
Y262273D03*
Y264832D03*
Y267391D03*
Y269950D03*
Y272509D03*
Y275068D03*
Y277628D03*
Y280187D03*
Y282746D03*
Y285305D03*
Y287864D03*
Y290423D03*
Y292982D03*
Y295541D03*
Y298100D03*
X901047Y203415D03*
Y200856D03*
Y198297D03*
Y218769D03*
Y216210D03*
Y213651D03*
Y211092D03*
Y208533D03*
Y205974D03*
Y234124D03*
Y231565D03*
Y229005D03*
Y226447D03*
Y223887D03*
Y221328D03*
Y249478D03*
Y246919D03*
Y244360D03*
Y241801D03*
Y239242D03*
Y236683D03*
Y264832D03*
Y262273D03*
Y259714D03*
Y257155D03*
Y254596D03*
Y252037D03*
Y277628D03*
Y275068D03*
Y272509D03*
Y269950D03*
Y267391D03*
Y292982D03*
Y290423D03*
Y287864D03*
Y285305D03*
Y282746D03*
Y280187D03*
Y298100D03*
Y295541D03*
G54D25*
X1068300Y59250D03*
G54D16*
X88624Y187110D03*
X86065D03*
Y309157D03*
X88624D03*
X103979Y187110D03*
X101420D03*
X98861D03*
X96302D03*
X93742D03*
X91184D03*
Y309157D03*
X93742D03*
X96302D03*
X98861D03*
X101420D03*
X103979D03*
X119333Y187110D03*
X116774D03*
X114215D03*
X111656D03*
X109097D03*
X106538D03*
Y309157D03*
X109097D03*
X111656D03*
X114215D03*
X116774D03*
X119333D03*
X134687Y187110D03*
X132128D03*
X129569D03*
X127010D03*
X124451D03*
X121892D03*
Y309157D03*
X124451D03*
X127010D03*
X129569D03*
X132128D03*
X134687D03*
X150042Y187110D03*
X147483D03*
X144924D03*
X142365D03*
X139806D03*
X137246D03*
Y309157D03*
X139806D03*
X142365D03*
X144924D03*
X147483D03*
X150042D03*
X162837Y187110D03*
X160278D03*
X157719D03*
X155160D03*
X152601D03*
Y309157D03*
X155160D03*
X157719D03*
X160278D03*
X162837D03*
X178191Y187110D03*
X175632D03*
X173073D03*
X170514D03*
X167955D03*
X165396D03*
Y309157D03*
X167955D03*
X170514D03*
X173073D03*
X175632D03*
X178191D03*
X185868Y187110D03*
X183309D03*
X180750D03*
Y309157D03*
X183309D03*
X185868D03*
X328409Y187110D03*
X325850D03*
X323291D03*
X320732D03*
Y309157D03*
X323291D03*
X325850D03*
X328409D03*
X343763Y187110D03*
X341204D03*
X338645D03*
X336086D03*
X333527D03*
X330968D03*
Y309157D03*
X333527D03*
X336086D03*
X338645D03*
X341204D03*
X343763D03*
X359117Y187110D03*
X356558D03*
X353999D03*
X351440D03*
X348881D03*
X346322D03*
Y309157D03*
X348881D03*
X351440D03*
X353999D03*
X356558D03*
X359117D03*
X374472Y187110D03*
X371913D03*
X369354D03*
X366795D03*
X364236D03*
X361676D03*
Y309157D03*
X364236D03*
X366795D03*
X369354D03*
X371913D03*
X374472D03*
X387267Y187110D03*
X384708D03*
X382149D03*
X379590D03*
X377031D03*
Y309157D03*
X379590D03*
X382149D03*
X384708D03*
X387267D03*
X402621Y187110D03*
X400062D03*
X397503D03*
X394944D03*
X392385D03*
X389826D03*
Y309157D03*
X392385D03*
X394944D03*
X397503D03*
X400062D03*
X402621D03*
X417976Y187110D03*
X415417D03*
X412857D03*
X410298D03*
X407739D03*
X405180D03*
Y309157D03*
X407739D03*
X410298D03*
X412857D03*
X415417D03*
X417976D03*
X420535Y187110D03*
Y309157D03*
X568227Y187110D03*
X565668D03*
X563109D03*
X560550D03*
X557991D03*
X555432D03*
Y309157D03*
X557991D03*
X560550D03*
X563109D03*
X565668D03*
X568227D03*
X583581Y187110D03*
X581022D03*
X578463D03*
X575904D03*
X573345D03*
X570786D03*
Y309157D03*
X573345D03*
X575904D03*
X578463D03*
X581022D03*
X583581D03*
X598936Y187110D03*
X596376D03*
X593817D03*
X591258D03*
X588699D03*
X586140D03*
Y309157D03*
X588699D03*
X591258D03*
X593817D03*
X596376D03*
X598936D03*
X611731Y187110D03*
X609172D03*
X606613D03*
X604054D03*
X601494D03*
Y309157D03*
X604054D03*
X606613D03*
X609172D03*
X611731D03*
X627085Y187110D03*
X624526D03*
X621967D03*
X619408D03*
X616849D03*
X614290D03*
Y309157D03*
X616849D03*
X619408D03*
X621967D03*
X624526D03*
X627085D03*
X642439Y187110D03*
X639880D03*
X637321D03*
X634762D03*
X632203D03*
X629644D03*
Y309157D03*
X632203D03*
X634762D03*
X637321D03*
X639880D03*
X642439D03*
X655235Y187110D03*
X652676D03*
X650117D03*
X647558D03*
X644998D03*
Y309157D03*
X647558D03*
X650117D03*
X652676D03*
X655235D03*
X792681Y187175D03*
X790122D03*
Y309222D03*
X792681D03*
X808035Y187175D03*
X805476D03*
X802917D03*
X800358D03*
X797799D03*
X795240D03*
Y309222D03*
X797799D03*
X800358D03*
X802917D03*
X805476D03*
X808035D03*
X823390Y187175D03*
X820831D03*
X818272D03*
X815713D03*
X813154D03*
X810594D03*
Y309222D03*
X813154D03*
X815713D03*
X818272D03*
X820831D03*
X823390D03*
X836185Y187175D03*
X833626D03*
X831067D03*
X828508D03*
X825949D03*
Y309222D03*
X828508D03*
X831067D03*
X833626D03*
X836185D03*
X851539Y187175D03*
X848980D03*
X846421D03*
X843862D03*
X841303D03*
X838744D03*
Y309222D03*
X841303D03*
X843862D03*
X846421D03*
X848980D03*
X851539D03*
X866894Y187175D03*
X864335D03*
X861776D03*
X859217D03*
X856658D03*
X854098D03*
Y309222D03*
X856658D03*
X859217D03*
X861776D03*
X864335D03*
X866894D03*
X882248Y187175D03*
X879689D03*
X877130D03*
X874571D03*
X872012D03*
X869453D03*
Y309222D03*
X872012D03*
X874571D03*
X877130D03*
X879689D03*
X882248D03*
X889925Y187175D03*
X887366D03*
X884807D03*
Y309222D03*
X887366D03*
X889925D03*
G54D17*
X105200Y213100D03*
X96600Y244700D03*
X96700Y258800D03*
X129000Y244700D03*
Y258800D03*
X310050Y155300D03*
Y187700D03*
X344200Y206300D03*
X437700Y321050D03*
X454000Y54300D03*
X462586Y46371D03*
X458846Y66800D03*
X471100Y54300D03*
X471300Y60300D03*
X470200Y321050D03*
X543300Y144800D03*
Y177100D03*
X570700Y207000D03*
X678500Y317300D03*
X711000D03*
X779716Y156784D03*
Y189784D03*
X813600Y206700D03*
X906800Y311100D03*
X939600D03*
X964000Y77300D03*
X963500Y325800D03*
X970700Y402100D03*
X970800Y389100D03*
X982500Y6100D03*
X982700Y21500D03*
X981500Y35700D03*
X978500Y61300D03*
Y93900D03*
X991500Y6400D03*
X991900Y21900D03*
X991400Y35900D03*
X995900Y47000D03*
X1005800Y72300D03*
X992000Y91600D03*
X997500Y325800D03*
X1010200Y10700D03*
X1010600Y22800D03*
X1010400Y32000D03*
X1015926Y70774D03*
X1016900Y78300D03*
X1021700Y10400D03*
X1022300Y21700D03*
Y31700D03*
X1035900Y47000D03*
X1026100Y72000D03*
X1041100Y5800D03*
X1040500Y23100D03*
X1040700Y35800D03*
X1050300Y5800D03*
X1050400Y23400D03*
X1050500Y36000D03*
G54D26*
X1068300Y74850D03*
Y90450D03*
Y106050D03*
G54D27*
G01X-34000Y-18000D02*
X1122000D01*
Y485000D01*
X-34000D01*
Y-18000D01*
G54D18*
X174695Y120300D03*
Y140300D03*
X194695Y120300D03*
X184695Y130300D03*
X194695Y140300D03*
X409295Y120300D03*
X419295Y130300D03*
X409295Y140300D03*
X429295Y120300D03*
Y140300D03*
X643995Y120400D03*
Y140400D03*
X653995Y130400D03*
X663995Y120400D03*
Y140400D03*
X879900Y120700D03*
Y140700D03*
X899900Y120700D03*
X889900Y130700D03*
X899900Y140700D03*
G54D19*
X171620Y154154D03*
X180740D03*
X189900Y154254D03*
X406380Y155800D03*
X415480Y155840D03*
X424580Y155880D03*
X445074Y75503D03*
Y105503D03*
X465074Y75503D03*
X455074D03*
Y105503D03*
X465074D03*
X475074Y75503D03*
Y105503D03*
X640620Y155846D03*
X650100D03*
X659640D03*
X875400Y155504D03*
X884720Y155604D03*
X894140Y155704D03*
X926100Y131726D03*
Y141726D03*
X940900Y131726D03*
Y141726D03*
X943286Y357680D03*
X942900Y396700D03*
X955700Y131726D03*
Y141726D03*
X970500Y131726D03*
Y141726D03*
X985300Y131726D03*
Y141726D03*
X986306Y357780D03*
X986334Y396720D03*
X1000100Y131726D03*
Y141726D03*
M02*
