G04 ================== begin FILE IDENTIFICATION RECORD ==================*
G04 Layout Name:  Microroc_Hardroc2b_Test_Board.brd*
G04 Film Name:    soldbottom*
G04 File Format:  Gerber RS274X*
G04 File Origin:  Cadence Allegro 16.6-S025*
G04 Origin Date:  Wed Apr 20 17:19:35 2016*
G04 *
G04 Layer:  VIA CLASS/SOLDERMASK_BOTTOM*
G04 Layer:  PIN/SOLDERMASK_BOTTOM*
G04 Layer:  PACKAGE GEOMETRY/SOLDERMASK_BOTTOM*
G04 Layer:  BOARD GEOMETRY/OUTLINE*
G04 Layer:  BOARD GEOMETRY/SOLDERMASK_BOTTOM*
G04 *
G04 Offset:    (0.000 0.000)*
G04 Mirror:    Yes*
G04 Mode:      Positive*
G04 Rotation:  0*
G04 FullContactRelief:  No*
G04 UndefLineWidth:     6.000*
G04 ================== end FILE IDENTIFICATION RECORD ====================*
%FSLAX25Y25*MOIN*%
%IR0*IPPOS*OFA0.00000B0.00000*MIA1B0*SFA1.00000B1.00000*%
%ADD20R,.1X.09*%
%ADD15R,.09X.1*%
%ADD17C,.11*%
%ADD24C,.12*%
%ADD22R,.105X.065*%
%ADD23R,.12X.12*%
%ADD11R,.043X.04*%
%ADD16R,.04X.043*%
%ADD12R,.04X.038*%
%ADD19R,.038X.04*%
%ADD10C,.03*%
%ADD13C,.015*%
%ADD14C,.045*%
%ADD18C,.065*%
%ADD21R,.065X.065*%
%ADD25C,.006*%
G75*
%LPD*%
G75*
G54D10*
X30434Y38600D03*
X25434D03*
X30434Y33600D03*
X25434D03*
X24466Y428500D03*
X29466D03*
X24466Y433500D03*
X29466D03*
X45434Y38600D03*
X40434D03*
X35434D03*
X45434Y33600D03*
X40434D03*
X35434D03*
X34466Y428500D03*
X39466D03*
X44466D03*
X34466Y433500D03*
X39466D03*
X44466D03*
X60434Y38600D03*
X55434D03*
X50434D03*
X60434Y33600D03*
X55434D03*
X50434D03*
X49466Y428500D03*
X54466D03*
X59466D03*
X49466Y433500D03*
X54466D03*
X59466D03*
X75434Y38600D03*
X70434D03*
X65434D03*
X75434Y33600D03*
X70434D03*
X65434D03*
X64466Y428500D03*
X69466D03*
X74466D03*
X64466Y433500D03*
X69466D03*
X74466D03*
X90434Y38600D03*
X85434D03*
X80434D03*
X90434Y33600D03*
X85434D03*
X80434D03*
X79466Y428500D03*
X84466D03*
X89466D03*
X79466Y433500D03*
X84466D03*
X89466D03*
X105434Y38600D03*
X100434D03*
X95434D03*
X105434Y33600D03*
X100434D03*
X95434D03*
X94466Y428500D03*
X99466D03*
X104466D03*
X94466Y433500D03*
X99466D03*
X104466D03*
X120434Y38600D03*
X115434D03*
X110434D03*
X120434Y33600D03*
X115434D03*
X110434D03*
X109466Y428500D03*
X114466D03*
X119466D03*
X109466Y433500D03*
X114466D03*
X119466D03*
X135434Y38600D03*
X130434D03*
X125434D03*
X135434Y33600D03*
X130434D03*
X125434D03*
X124466Y428500D03*
X129466D03*
X134466D03*
X124466Y433500D03*
X129466D03*
X134466D03*
X150434Y38600D03*
X145434D03*
X140434D03*
X150434Y33600D03*
X145434D03*
X140434D03*
X139466Y428500D03*
X144466D03*
X149466D03*
X139466Y433500D03*
X144466D03*
X149466D03*
X165434Y38600D03*
X160434D03*
X155434D03*
X165434Y33600D03*
X160434D03*
X155434D03*
X154466Y428500D03*
X159466D03*
X164466D03*
X154466Y433500D03*
X159466D03*
X164466D03*
X180434Y38600D03*
X175434D03*
X170434D03*
X180434Y33600D03*
X175434D03*
X170434D03*
X169466Y428500D03*
X174466D03*
X179466D03*
X169466Y433500D03*
X174466D03*
X179466D03*
X190434Y38600D03*
X185434D03*
X190434Y33600D03*
X185434D03*
X184466Y428500D03*
X189466D03*
X184466Y433500D03*
X189466D03*
X270134Y38600D03*
X265134D03*
X260134D03*
X270134Y33600D03*
X265134D03*
X260134D03*
X259166Y428500D03*
X264166D03*
X269166D03*
X259166Y433500D03*
X264166D03*
X269166D03*
X285134Y38600D03*
X280134D03*
X275134D03*
X285134Y33600D03*
X280134D03*
X275134D03*
X274166Y428500D03*
X279166D03*
X284166D03*
X274166Y433500D03*
X279166D03*
X284166D03*
X300134Y38600D03*
X295134D03*
X290134D03*
X300134Y33600D03*
X295134D03*
X290134D03*
X289166Y428500D03*
X294166D03*
X299166D03*
X289166Y433500D03*
X294166D03*
X299166D03*
X315134Y38600D03*
X310134D03*
X305134D03*
X315134Y33600D03*
X310134D03*
X305134D03*
X304166Y428500D03*
X309166D03*
X314166D03*
X304166Y433500D03*
X309166D03*
X314166D03*
X330134Y38600D03*
X325134D03*
X320134D03*
X330134Y33600D03*
X325134D03*
X320134D03*
X319166Y428500D03*
X324166D03*
X329166D03*
X319166Y433500D03*
X324166D03*
X329166D03*
X345134Y38600D03*
X340134D03*
X335134D03*
X345134Y33600D03*
X340134D03*
X335134D03*
X334166Y428500D03*
X339166D03*
X344166D03*
X334166Y433500D03*
X339166D03*
X344166D03*
X360134Y38600D03*
X355134D03*
X350134D03*
X360134Y33600D03*
X355134D03*
X350134D03*
X349166Y428500D03*
X354166D03*
X359166D03*
X349166Y433500D03*
X354166D03*
X359166D03*
X375134Y38600D03*
X370134D03*
X365134D03*
X375134Y33600D03*
X370134D03*
X365134D03*
X364166Y428500D03*
X369166D03*
X374166D03*
X364166Y433500D03*
X369166D03*
X374166D03*
X390134Y38600D03*
X385134D03*
X380134D03*
X390134Y33600D03*
X385134D03*
X380134D03*
X379166Y428500D03*
X384166D03*
X389166D03*
X379166Y433500D03*
X384166D03*
X389166D03*
X405134Y38600D03*
X400134D03*
X395134D03*
X405134Y33600D03*
X400134D03*
X395134D03*
X394166Y428500D03*
X399166D03*
X404166D03*
X394166Y433500D03*
X399166D03*
X404166D03*
X420134Y38600D03*
X415134D03*
X410134D03*
X420134Y33600D03*
X415134D03*
X410134D03*
X409166Y428500D03*
X414166D03*
X419166D03*
X409166Y433500D03*
X414166D03*
X419166D03*
X425134Y38600D03*
Y33600D03*
X424166Y428500D03*
Y433500D03*
X494934Y38600D03*
Y33600D03*
X494066Y428500D03*
Y433500D03*
X509934Y38600D03*
X504934D03*
X499934D03*
X509934Y33600D03*
X504934D03*
X499934D03*
X499066Y428500D03*
X504066D03*
X509066D03*
X499066Y433500D03*
X504066D03*
X509066D03*
X524934Y38600D03*
X519934D03*
X514934D03*
X524934Y33600D03*
X519934D03*
X514934D03*
X514066Y428500D03*
X519066D03*
X524066D03*
X514066Y433500D03*
X519066D03*
X524066D03*
X539934Y38600D03*
X534934D03*
X529934D03*
X539934Y33600D03*
X534934D03*
X529934D03*
X529066Y428500D03*
X534066D03*
X539066D03*
X529066Y433500D03*
X534066D03*
X539066D03*
X554934Y38600D03*
X549934D03*
X544934D03*
X554934Y33600D03*
X549934D03*
X544934D03*
X544066Y428500D03*
X549066D03*
X554066D03*
X544066Y433500D03*
X549066D03*
X554066D03*
X569934Y38600D03*
X564934D03*
X559934D03*
X569934Y33600D03*
X564934D03*
X559934D03*
X559066Y428500D03*
X564066D03*
X569066D03*
X559066Y433500D03*
X564066D03*
X569066D03*
X584934Y38600D03*
X579934D03*
X574934D03*
X584934Y33600D03*
X579934D03*
X574934D03*
X574066Y428500D03*
X579066D03*
X584066D03*
X574066Y433500D03*
X579066D03*
X584066D03*
X594934Y38600D03*
X589934D03*
X594934Y33600D03*
X589934D03*
X589066Y428500D03*
X594066D03*
X599066D03*
X589066Y433500D03*
X594066D03*
X599066D03*
X609934Y38600D03*
X604934D03*
X599934D03*
X609934Y33600D03*
X604934D03*
X599934D03*
X604066Y428500D03*
X609066D03*
X614066D03*
X604066Y433500D03*
X609066D03*
X614066D03*
X624934Y38600D03*
X619934D03*
X614934D03*
X624934Y33600D03*
X619934D03*
X614934D03*
X619066Y428500D03*
X624066D03*
X629066D03*
X619066Y433500D03*
X624066D03*
X629066D03*
X639934Y38600D03*
X634934D03*
X629934D03*
X639934Y33600D03*
X634934D03*
X629934D03*
X634066Y428500D03*
X639066D03*
X644066D03*
X634066Y433500D03*
X639066D03*
X644066D03*
X654934Y38600D03*
X649934D03*
X644934D03*
X654934Y33600D03*
X649934D03*
X644934D03*
X649066Y428500D03*
X654066D03*
X659066D03*
X649066Y433500D03*
X654066D03*
X659066D03*
X659934Y38600D03*
Y33600D03*
X729700Y38600D03*
Y33600D03*
X729500Y428500D03*
X734500D03*
X729500Y433500D03*
X734500D03*
X744700Y38600D03*
X739700D03*
X734700D03*
X744700Y33600D03*
X739700D03*
X734700D03*
X739500Y428500D03*
X744500D03*
X749500D03*
X739500Y433500D03*
X744500D03*
X749500D03*
X759700Y38600D03*
X754700D03*
X749700D03*
X759700Y33600D03*
X754700D03*
X749700D03*
X754500Y428500D03*
X759500D03*
X764500D03*
X754500Y433500D03*
X759500D03*
X764500D03*
X774700Y38600D03*
X769700D03*
X764700D03*
X774700Y33600D03*
X769700D03*
X764700D03*
X769500Y428500D03*
X774500D03*
X779500D03*
X769500Y433500D03*
X774500D03*
X779500D03*
X789700Y38600D03*
X784700D03*
X779700D03*
X789700Y33600D03*
X784700D03*
X779700D03*
X784500Y428500D03*
X789500D03*
X784500Y433500D03*
X789500D03*
X804700Y38600D03*
X799700D03*
X794700D03*
X804700Y33600D03*
X799700D03*
X794700D03*
X794500Y428500D03*
X799500D03*
X804500D03*
X794500Y433500D03*
X799500D03*
X804500D03*
X819700Y38600D03*
X814700D03*
X809700D03*
X819700Y33600D03*
X814700D03*
X809700D03*
X809500Y428500D03*
X814500D03*
X819500D03*
X809500Y433500D03*
X814500D03*
X819500D03*
X834700Y38600D03*
X829700D03*
X824700D03*
X834700Y33600D03*
X829700D03*
X824700D03*
X824500Y428500D03*
X829500D03*
X834500D03*
X824500Y433500D03*
X829500D03*
X834500D03*
X849700Y38600D03*
X844700D03*
X839700D03*
X849700Y33600D03*
X844700D03*
X839700D03*
X839500Y428500D03*
X844500D03*
X849500D03*
X839500Y433500D03*
X844500D03*
X849500D03*
X864700Y38600D03*
X859700D03*
X854700D03*
X864700Y33600D03*
X859700D03*
X854700D03*
X854500Y428500D03*
X859500D03*
X864500D03*
X854500Y433500D03*
X859500D03*
X864500D03*
X879700Y38600D03*
X874700D03*
X869700D03*
X879700Y33600D03*
X874700D03*
X869700D03*
X869500Y428500D03*
X874500D03*
X879500D03*
X869500Y433500D03*
X874500D03*
X879500D03*
X894700Y38600D03*
X889700D03*
X884700D03*
X894700Y33600D03*
X889700D03*
X884700D03*
X884500Y428500D03*
X889500D03*
X894500D03*
X884500Y433500D03*
X889500D03*
X894500D03*
X1062500Y192100D03*
Y197100D03*
Y202100D03*
Y207100D03*
Y212100D03*
Y217100D03*
Y222100D03*
Y227100D03*
Y232100D03*
Y237100D03*
Y242100D03*
Y247100D03*
Y252100D03*
Y257100D03*
Y262100D03*
Y267100D03*
Y272100D03*
Y277100D03*
Y282100D03*
Y287100D03*
Y292100D03*
Y297100D03*
Y302100D03*
Y307100D03*
Y312100D03*
Y317100D03*
Y322100D03*
Y327100D03*
Y332100D03*
Y337100D03*
Y342100D03*
Y347100D03*
Y352100D03*
Y357100D03*
Y362100D03*
Y367100D03*
Y372100D03*
Y377100D03*
Y382100D03*
Y387100D03*
X1072500Y192100D03*
Y197100D03*
Y202100D03*
Y207100D03*
Y212100D03*
Y217100D03*
Y222100D03*
Y227100D03*
Y232100D03*
Y237100D03*
Y242100D03*
Y247100D03*
Y252100D03*
Y257100D03*
Y262100D03*
Y267100D03*
Y272100D03*
Y277100D03*
Y282100D03*
Y287100D03*
Y292100D03*
Y297100D03*
Y302100D03*
Y307100D03*
Y312100D03*
Y317100D03*
Y322100D03*
Y327100D03*
Y332100D03*
Y337100D03*
Y342100D03*
Y347100D03*
Y352100D03*
Y357100D03*
Y362100D03*
Y367100D03*
Y372100D03*
Y377100D03*
Y382100D03*
Y387100D03*
G54D11*
X29500Y381100D03*
Y387100D03*
X35400Y80000D03*
Y86000D03*
X45400Y80000D03*
Y86000D03*
X39500Y381100D03*
Y387100D03*
X55400Y80000D03*
Y86000D03*
X59500Y381100D03*
X49500D03*
X59500Y387100D03*
X49500D03*
X65400Y80000D03*
Y86000D03*
X75400Y80000D03*
Y86000D03*
X69500Y381100D03*
Y387100D03*
X85400Y80000D03*
Y86000D03*
X89500Y381100D03*
X79500D03*
X89500Y387100D03*
X79500D03*
X95400Y80000D03*
Y86000D03*
X105400Y80000D03*
Y86000D03*
X99500Y381100D03*
Y387100D03*
X115400Y80000D03*
Y86000D03*
X119500Y381100D03*
X109500D03*
X119500Y387100D03*
X109500D03*
X125400Y80000D03*
Y86000D03*
X135400Y80000D03*
Y86000D03*
X129600Y294100D03*
Y300100D03*
X129500Y381100D03*
Y387100D03*
X145400Y80000D03*
Y86000D03*
X139800Y205600D03*
Y199600D03*
X145400Y205600D03*
Y199600D03*
X147500Y292500D03*
Y298500D03*
X149500Y381100D03*
X139500D03*
X149500Y387100D03*
X139500D03*
X155400Y80000D03*
Y86000D03*
X165400Y80000D03*
Y86000D03*
X162800Y171500D03*
Y177500D03*
X153000Y292500D03*
Y298500D03*
X162800Y325200D03*
Y319200D03*
X155200Y325200D03*
Y319200D03*
X159500Y381100D03*
Y387100D03*
X175400Y80000D03*
Y86000D03*
X167500Y205600D03*
Y199600D03*
X169500Y292500D03*
Y298500D03*
X180800Y325200D03*
Y319200D03*
X169500Y381100D03*
X179500D03*
X169500Y387100D03*
X179500D03*
X185400Y80000D03*
Y86000D03*
X186600Y229800D03*
Y223800D03*
X191100Y302400D03*
Y308400D03*
X207700Y248500D03*
Y254500D03*
X213200Y248500D03*
Y254500D03*
X270100Y79800D03*
Y85800D03*
X264200Y381100D03*
Y387100D03*
X280100Y79800D03*
Y85800D03*
X284200Y381100D03*
X274200D03*
X284200Y387100D03*
X274200D03*
X300100Y79800D03*
Y85800D03*
X290100Y79800D03*
Y85800D03*
X294200Y381100D03*
Y387100D03*
X310100Y79800D03*
Y85800D03*
X314200Y381100D03*
X304200D03*
X314200Y387100D03*
X304200D03*
X330100Y79800D03*
Y85800D03*
X320100Y79800D03*
Y85800D03*
X324200Y381100D03*
Y387100D03*
X340100Y79800D03*
Y85800D03*
X344200Y381100D03*
X334200D03*
X344200Y387100D03*
X334200D03*
X360100Y79800D03*
Y85800D03*
X350100Y79800D03*
Y85800D03*
X354200Y381100D03*
Y387100D03*
X370100Y79800D03*
Y85800D03*
X374500Y201700D03*
Y207700D03*
X364200Y294400D03*
Y300400D03*
X374200Y381100D03*
X364200D03*
X374200Y387100D03*
X364200D03*
X380100Y79800D03*
Y85800D03*
X390100Y79800D03*
Y85800D03*
X380000Y201700D03*
Y207700D03*
X387600Y293200D03*
X382100D03*
X387600Y299200D03*
X382100D03*
X389800Y325200D03*
Y319200D03*
X384200Y381100D03*
Y387100D03*
X400100Y79800D03*
Y85800D03*
X397500Y171500D03*
Y177500D03*
X402000Y201700D03*
Y207700D03*
X404100Y293200D03*
Y299200D03*
X397400Y325200D03*
Y319200D03*
X404100Y381100D03*
X394200D03*
X404100Y387100D03*
X394200D03*
X410100Y79800D03*
Y85800D03*
X420100Y79800D03*
Y85800D03*
X415500Y325200D03*
Y319200D03*
X414200Y381100D03*
Y387100D03*
X426400Y302100D03*
Y308100D03*
X447850Y248500D03*
X442300D03*
X447850Y254500D03*
X442300D03*
X458800Y54300D03*
Y60300D03*
X466300Y54300D03*
Y60300D03*
X504900Y80100D03*
Y86100D03*
X509100Y381200D03*
X499100D03*
X509100Y387200D03*
X499100D03*
X514900Y80100D03*
Y86100D03*
X524900Y80100D03*
Y86100D03*
X519100Y381200D03*
Y387200D03*
X534900Y80100D03*
Y86100D03*
X539100Y381200D03*
X529100D03*
X539100Y387200D03*
X529100D03*
X544900Y80100D03*
Y86100D03*
X554900Y80100D03*
Y86100D03*
X549100Y381200D03*
Y387200D03*
X564900Y80100D03*
Y86100D03*
X569100Y381200D03*
X559100D03*
X569100Y387200D03*
X559100D03*
X574900Y80100D03*
Y86100D03*
X584900Y80100D03*
Y86100D03*
X579000Y381200D03*
Y387200D03*
X595000Y80100D03*
Y86100D03*
X598900Y294400D03*
Y300400D03*
X599100Y381200D03*
X589100D03*
X599100Y387200D03*
X589100D03*
X604900Y80100D03*
Y86100D03*
X614900Y80100D03*
Y86100D03*
X609200Y201800D03*
X614700D03*
X609200Y207800D03*
X614700D03*
X609100Y381200D03*
Y387200D03*
X625000Y80100D03*
Y86100D03*
X621600Y293900D03*
X616100D03*
X621600Y299900D03*
X616100D03*
X624500Y324600D03*
Y318600D03*
X629100Y381200D03*
X619100D03*
X629100Y387200D03*
X619100D03*
X645000Y80100D03*
Y86100D03*
X634900Y80100D03*
Y86100D03*
X632200Y171600D03*
Y177600D03*
X631200Y201800D03*
Y207800D03*
X638100Y293900D03*
Y299900D03*
X632300Y324600D03*
Y318600D03*
X639100Y381200D03*
Y387200D03*
X654900Y80100D03*
Y86100D03*
X650100Y324600D03*
Y318600D03*
X649100Y381200D03*
Y387200D03*
X660600Y301700D03*
Y307700D03*
X676200Y248500D03*
X681700D03*
X676200Y254500D03*
X681700D03*
X734450Y381111D03*
Y387111D03*
X739700Y80100D03*
Y86100D03*
X749700Y80100D03*
Y86100D03*
X744450Y381100D03*
Y387100D03*
X759700Y80100D03*
Y86100D03*
X764450Y381111D03*
X754450D03*
X764450Y387111D03*
X754450D03*
X779700Y80100D03*
Y86100D03*
X769700Y80100D03*
Y86100D03*
X774450Y381100D03*
Y387100D03*
X789700Y80100D03*
Y86100D03*
X794450Y381111D03*
X784450Y381100D03*
X794450Y387111D03*
X784450Y387100D03*
X799700Y80100D03*
Y86100D03*
X809700Y80100D03*
Y86100D03*
X804450Y381111D03*
Y387111D03*
X819700Y80100D03*
Y86100D03*
X824450Y381111D03*
X814450D03*
X824450Y387111D03*
X814450D03*
X839700Y80100D03*
Y86100D03*
X829700Y80100D03*
Y86100D03*
X833650Y294800D03*
Y300800D03*
X834450Y381111D03*
Y387111D03*
X849700Y80100D03*
Y86100D03*
X841350Y172300D03*
Y178300D03*
X843900Y202000D03*
X849500D03*
X843900Y208000D03*
X849500D03*
X850584Y293700D03*
Y299700D03*
X854550Y381111D03*
X844450D03*
X854550Y387111D03*
X844450D03*
X859700Y80100D03*
Y86100D03*
X869700Y80100D03*
Y86100D03*
X856150Y293700D03*
Y299700D03*
X866916Y324500D03*
Y318500D03*
X859216Y324500D03*
Y318500D03*
X864550Y381100D03*
Y387100D03*
X879700Y80100D03*
Y86100D03*
X872484Y172600D03*
Y178600D03*
X871766Y202000D03*
Y208000D03*
X872900Y293700D03*
Y299700D03*
X884450Y381111D03*
X874550Y381100D03*
X884450Y387111D03*
X874550Y387100D03*
X889700Y80100D03*
Y86100D03*
X896400Y301900D03*
Y307900D03*
X884816Y324500D03*
Y318500D03*
X911250Y248600D03*
Y254600D03*
X916750Y248600D03*
Y254600D03*
X968800Y83300D03*
Y77300D03*
X970000Y310300D03*
Y316300D03*
G54D20*
X310050Y177200D03*
Y164200D03*
X543300Y153700D03*
Y166700D03*
X779716Y166300D03*
Y179300D03*
X960600Y389100D03*
Y402100D03*
X978500Y70300D03*
Y83300D03*
X1005800Y47000D03*
Y60000D03*
X1026100Y47000D03*
Y60000D03*
G54D21*
X926100Y151726D03*
X940900D03*
X955700D03*
X970500D03*
X985300D03*
X1000100D03*
G54D12*
X29500Y409600D03*
Y415600D03*
X35400Y51500D03*
X45400D03*
X35400Y57500D03*
X45400D03*
X39500Y409600D03*
Y415600D03*
X55400Y51500D03*
Y57500D03*
X59500Y409600D03*
X49500D03*
X59500Y415600D03*
X49500D03*
X65400Y51500D03*
X75400D03*
X65400Y57500D03*
X75400D03*
X69500Y409600D03*
Y415600D03*
X85400Y51500D03*
Y57500D03*
X89500Y409600D03*
X79500D03*
X89500Y415600D03*
X79500D03*
X95400Y51500D03*
X105400D03*
X95400Y57500D03*
X105400D03*
X99500Y409600D03*
Y415600D03*
X115400Y51500D03*
Y57500D03*
X119500Y409600D03*
X109500D03*
X119500Y415600D03*
X109500D03*
X125400Y51500D03*
X135400D03*
X125400Y57500D03*
X135400D03*
X128600Y205600D03*
Y199600D03*
X134200D03*
Y205600D03*
X129500Y409600D03*
Y415600D03*
X145400Y51500D03*
Y57500D03*
X137300Y171500D03*
X142800D03*
X137300Y177500D03*
X142800D03*
X150900Y199600D03*
Y205600D03*
X136500Y292500D03*
X142000D03*
X136500Y298500D03*
X142000D03*
X149700Y319200D03*
Y325200D03*
X144200D03*
Y319200D03*
X149500Y409600D03*
X139500D03*
X149500Y415600D03*
X139500D03*
X155400Y51500D03*
X165400D03*
X155400Y57500D03*
X165400D03*
X161900Y199600D03*
Y205600D03*
X156400D03*
Y199600D03*
X164000Y292500D03*
X158500D03*
X164000Y298500D03*
X158500D03*
X159500Y409600D03*
Y415600D03*
X175400Y51500D03*
Y57500D03*
X168300Y171500D03*
X173800D03*
X168300Y177500D03*
X173800D03*
X173100Y205600D03*
Y199600D03*
X175600Y229800D03*
Y223800D03*
X181100D03*
Y229800D03*
X180500Y292500D03*
X175000D03*
X180500Y298500D03*
X175000D03*
X173800Y325200D03*
Y319200D03*
X168300D03*
Y325200D03*
X179500Y409600D03*
X169500D03*
X179500Y415600D03*
X169500D03*
X185400Y51500D03*
Y57500D03*
X186500Y243500D03*
Y237500D03*
X186300Y319200D03*
Y325200D03*
X191800D03*
Y319200D03*
X206500Y232400D03*
Y238400D03*
X218700Y248500D03*
Y254500D03*
X270100Y51300D03*
Y57300D03*
X264200Y409600D03*
Y415600D03*
X280100Y51300D03*
Y57300D03*
X284200Y409600D03*
X274200D03*
X284200Y415600D03*
X274200D03*
X290100Y51300D03*
X300100D03*
X290100Y57300D03*
X300100D03*
X294200Y409600D03*
Y415600D03*
X310100Y51300D03*
Y57300D03*
X314200Y409600D03*
X304200D03*
X314200Y415600D03*
X304200D03*
X320100Y51300D03*
X330100D03*
X320100Y57300D03*
X330100D03*
X324200Y409600D03*
Y415600D03*
X340100Y51300D03*
Y57300D03*
X344200Y409600D03*
X334200D03*
X344200Y415600D03*
X334200D03*
X360100Y51300D03*
X350100D03*
X360100Y57300D03*
X350100D03*
X354200Y409600D03*
Y415600D03*
X370100Y51300D03*
Y57300D03*
X371900Y171500D03*
Y177500D03*
X363500Y201700D03*
X369000D03*
X363500Y207700D03*
X369000D03*
X371100Y293200D03*
Y299200D03*
X374200Y409600D03*
X364200D03*
X374200Y415600D03*
X364200D03*
X380100Y51300D03*
X390100D03*
X380100Y57300D03*
X390100D03*
X377400Y171500D03*
Y177500D03*
X385500Y201700D03*
Y207700D03*
X376600Y293200D03*
Y299200D03*
X384300Y319200D03*
Y325200D03*
X378800D03*
Y319200D03*
X384200Y409600D03*
Y415600D03*
X400100Y51300D03*
Y57300D03*
X403000Y171500D03*
Y177500D03*
X396500Y201700D03*
X391000D03*
X396500Y207700D03*
X391000D03*
X398600Y293200D03*
X393100D03*
X398600Y299200D03*
X393100D03*
X403000Y319200D03*
Y325200D03*
X404100Y409600D03*
X394200D03*
X404100Y415600D03*
X394200D03*
X410100Y51300D03*
X420100D03*
X410100Y57300D03*
X420100D03*
X408500Y171500D03*
Y177500D03*
X407500Y201700D03*
Y207700D03*
X415100Y293200D03*
X409600D03*
X415100Y299200D03*
X409600D03*
X408500Y325200D03*
Y319200D03*
X414200Y409600D03*
Y415600D03*
X421100Y243500D03*
Y237500D03*
X421000Y319200D03*
Y325200D03*
X426500D03*
Y319200D03*
X441100Y232400D03*
Y238400D03*
X453400Y248500D03*
Y254500D03*
X504900Y51600D03*
Y57600D03*
X509100Y409600D03*
X499100D03*
X509100Y415600D03*
X499100D03*
X524900Y51600D03*
X514900D03*
X524900Y57600D03*
X514900D03*
X519100Y409600D03*
Y415600D03*
X534900Y51600D03*
Y57600D03*
X539100Y409600D03*
X529100D03*
X539100Y415600D03*
X529100D03*
X544900Y51600D03*
X554900D03*
X544900Y57600D03*
X554900D03*
X549100Y409600D03*
Y415600D03*
X564900Y51600D03*
Y57600D03*
X559100Y409600D03*
X569100D03*
X559100Y415600D03*
X569100D03*
X574900Y51600D03*
X584900D03*
X574900Y57600D03*
X584900D03*
X579000Y409600D03*
Y415600D03*
X595000Y51600D03*
Y57600D03*
X598100Y201800D03*
Y207800D03*
X599100Y409600D03*
X589100D03*
X599100Y415600D03*
X589100D03*
X604900Y51600D03*
X614900D03*
X604900Y57600D03*
X614900D03*
X606600Y171600D03*
X612200D03*
X606600Y177600D03*
X612200D03*
X603700Y201800D03*
Y207800D03*
X605100Y293900D03*
X610600D03*
X605100Y299900D03*
X610600D03*
X613400Y324600D03*
Y318600D03*
X609100Y409600D03*
Y415600D03*
X624900Y51600D03*
Y57600D03*
X620200Y201800D03*
X625700D03*
X620200Y207800D03*
X625700D03*
X627100Y293900D03*
Y299900D03*
X618900Y318600D03*
Y324600D03*
X629100Y409600D03*
X619100D03*
X629100Y415600D03*
X619100D03*
X645000Y51600D03*
X634900D03*
X645000Y57600D03*
X634900D03*
X637800Y171600D03*
X643400D03*
X637800Y177600D03*
X643400D03*
X636700Y201800D03*
X642200D03*
X636700Y207800D03*
X642200D03*
X643600Y293900D03*
X632600D03*
X643600Y299900D03*
X632600D03*
X643400Y324600D03*
Y318600D03*
X637800D03*
Y324600D03*
X639100Y409600D03*
Y415600D03*
X654900Y51600D03*
Y57600D03*
X656700Y243600D03*
Y237600D03*
X649100Y293900D03*
Y299900D03*
X655600Y318600D03*
Y324600D03*
X649100Y409600D03*
Y415600D03*
X661200Y324600D03*
Y318600D03*
X675300Y232400D03*
Y238400D03*
X687200Y248500D03*
Y254500D03*
X734500Y409600D03*
Y415600D03*
X739700Y51600D03*
X749700D03*
X739700Y57600D03*
X749700D03*
X744500Y409600D03*
Y415600D03*
X759700Y51600D03*
Y57600D03*
X764500Y409600D03*
X754500D03*
X764500Y415600D03*
X754500D03*
X769700Y51600D03*
X779700D03*
X769700Y57600D03*
X779700D03*
X774500Y409600D03*
Y415600D03*
X789700Y51600D03*
Y57600D03*
X784500Y409600D03*
X794500D03*
X784500Y415600D03*
X794500D03*
X799700Y51600D03*
X809700D03*
X799700Y57600D03*
X809700D03*
X804500Y409600D03*
Y415600D03*
X819700Y51600D03*
Y57600D03*
X824500Y409600D03*
X814500D03*
X824500Y415600D03*
X814500D03*
X829700Y51600D03*
Y57600D03*
X832900Y202000D03*
X838400D03*
X832900Y208000D03*
X838400D03*
X839500Y293700D03*
Y299700D03*
X834500Y409600D03*
Y415600D03*
X839700Y51600D03*
X849700D03*
X839700Y57600D03*
X849700D03*
X846900Y172300D03*
Y178300D03*
X845016Y293700D03*
Y299700D03*
X853700Y318500D03*
Y324500D03*
X848116D03*
Y318500D03*
X854500Y409600D03*
X844500D03*
X854500Y415600D03*
X844500D03*
X859700Y51600D03*
Y57600D03*
X866916Y172600D03*
Y178600D03*
X855100Y202000D03*
X866200D03*
X860700D03*
X855100Y208000D03*
X866200D03*
X860700D03*
X867284Y293700D03*
X861716D03*
X867284Y299700D03*
X861716D03*
X864500Y409600D03*
Y415600D03*
X879700Y51600D03*
X869700D03*
X879700Y57600D03*
X869700D03*
X878084Y172600D03*
Y178600D03*
X877400Y202000D03*
Y208000D03*
X884100Y293700D03*
X878500D03*
X884100Y299700D03*
X878500D03*
X878100Y324500D03*
Y318500D03*
X872484D03*
Y324500D03*
X874500Y409600D03*
X884500D03*
X874500Y415600D03*
X884500D03*
X889700Y51600D03*
Y57600D03*
X891900Y243600D03*
Y237600D03*
X890400Y318500D03*
Y324500D03*
X895900D03*
Y318500D03*
X909600Y232400D03*
Y238400D03*
X922284Y248600D03*
Y254600D03*
X951300Y368700D03*
Y374700D03*
X977300Y368700D03*
Y374700D03*
G54D13*
X43100Y67098D03*
X32900D03*
X32100Y398902D03*
X42300D03*
X52900Y67098D03*
X52100Y398902D03*
X63100Y67098D03*
X72600D03*
X72100Y398902D03*
X62300D03*
X82800Y67098D03*
X86065Y182460D03*
X88624Y191760D03*
X79593Y246854D03*
X86065Y304507D03*
X79593Y298035D03*
X82400Y398902D03*
X102800Y67098D03*
X92600D03*
X92100Y398902D03*
X102300D03*
X112600Y67098D03*
X112000Y398902D03*
X122800Y67098D03*
X132600D03*
X129569Y182460D03*
X127010D03*
X128700Y191743D03*
X134687Y191760D03*
X129600Y290300D03*
X134687Y305213D03*
X124451Y304649D03*
X129569Y304331D03*
X132128Y313472D03*
X127010Y313510D03*
X132000Y398902D03*
X122300D03*
X142800Y67098D03*
X144924Y182460D03*
X150042Y191760D03*
X142365Y304765D03*
X138900Y304800D03*
X139806Y313705D03*
X137246Y313746D03*
X144924Y313807D03*
X142300Y398902D03*
X162800Y67098D03*
X152600D03*
X151100Y167700D03*
X156600D03*
X155160Y181960D03*
X152601Y181899D03*
X160278Y195200D03*
X157719Y191760D03*
X152100Y398902D03*
X162300D03*
X172600Y67098D03*
X170514Y182460D03*
X175665Y181500D03*
X173073Y191760D03*
X175632Y304507D03*
X170514D03*
X173073Y313773D03*
X172100Y398902D03*
X182800Y67098D03*
X189600Y181500D03*
X192000Y198232D03*
X185868Y191760D03*
X192340Y249413D03*
X183309Y304507D03*
X191165Y298035D03*
X191100Y312100D03*
X185868Y313768D03*
X182200Y398902D03*
X195700Y187500D03*
X195800Y192900D03*
X201809Y200791D03*
X267491Y67168D03*
X266168Y398932D03*
X277336Y67168D03*
X276832Y398932D03*
X297900Y67168D03*
X287494D03*
X287068Y398932D03*
X296332D03*
X307300Y67168D03*
X314154Y246854D03*
X314260Y298035D03*
X306368Y398932D03*
X317500Y67168D03*
X327300D03*
X320732Y182460D03*
X323291Y191760D03*
X320732Y304507D03*
X325932Y398932D03*
X317232D03*
X337800Y67168D03*
X336932Y398932D03*
X357500Y67168D03*
X347300D03*
X359117Y304507D03*
X346668Y398932D03*
X356768D03*
X367300Y67168D03*
X364236Y182460D03*
X361676D03*
X363400Y191748D03*
X369354Y191760D03*
X364200Y290600D03*
X369354Y304507D03*
X373700Y304512D03*
X364236Y304507D03*
X371913Y313807D03*
X374472D03*
X361676D03*
X366795D03*
X366868Y398932D03*
X377500Y67168D03*
X387400D03*
X385850Y167650D03*
X379590Y182400D03*
X389826Y182174D03*
X387267Y182133D03*
X384708Y191760D03*
X377031Y304507D03*
X379590Y313807D03*
X387068Y398932D03*
X376432D03*
X397600Y67168D03*
X391300Y167600D03*
X394944Y196200D03*
X392385Y191760D03*
X396232Y398932D03*
X417500Y67168D03*
X407300D03*
X405180Y182460D03*
X410298Y181802D03*
X407739Y191760D03*
X417976Y304507D03*
X405180D03*
X410298D03*
X407739Y313807D03*
X406933Y398932D03*
X417231D03*
X430300Y187700D03*
X424400Y181800D03*
X426700Y198232D03*
X430600Y193100D03*
X420500Y191760D03*
X427013Y249413D03*
X426365Y298035D03*
X420535Y313807D03*
X426400Y311900D03*
X436609Y200791D03*
X548960Y246854D03*
Y298035D03*
X555432Y182460D03*
X557991Y191760D03*
X555432Y304507D03*
X598936Y182460D03*
X596376D03*
X598000Y191732D03*
X598900Y290600D03*
X593817Y304507D03*
X598936D03*
X596376Y313807D03*
X614290Y182460D03*
X604054Y191446D03*
X611731Y304507D03*
X608300Y304523D03*
X604054Y304507D03*
X609172Y313807D03*
X606613D03*
X601494D03*
X614290D03*
X620400Y167800D03*
X625900D03*
X629644Y195500D03*
X639880Y304507D03*
X642439Y313807D03*
X658500Y181900D03*
X655200Y191760D03*
X652676Y304507D03*
X644998D03*
X655235Y313807D03*
X665000Y187600D03*
X661600Y198232D03*
X665300Y193200D03*
X671291Y200791D03*
X661707Y249413D03*
X660565Y298035D03*
X660600Y311500D03*
X792681Y182525D03*
X790122Y191825D03*
X783650Y246919D03*
X790122Y304572D03*
X783650Y298100D03*
X833626Y182525D03*
X831067D03*
X832700Y191799D03*
X838744Y191825D03*
X833650Y291000D03*
X838744Y304572D03*
X828508D03*
X833626D03*
X836185Y313872D03*
X831067D03*
X848980Y182100D03*
X846421Y304572D03*
X843000Y304587D03*
X841303Y313872D03*
X843862D03*
X848980D03*
X860600Y168300D03*
X854900D03*
X856658Y182525D03*
X859217D03*
X864335Y196400D03*
X861776Y191825D03*
X854098D03*
X874571Y182525D03*
X879689D03*
X877130Y191825D03*
X879689Y304572D03*
X874571D03*
X877130Y313872D03*
X893500Y182550D03*
X895900Y198297D03*
X889900Y191900D03*
X896397Y249478D03*
X889925Y304572D03*
X896397Y298100D03*
X896400Y311700D03*
X887366Y313872D03*
X899700Y188316D03*
Y193300D03*
X905697Y200856D03*
X956358Y377242D03*
X963932Y310332D03*
X971958Y377242D03*
X967100Y373400D03*
X983900Y306395D03*
X973800Y316300D03*
X974732Y310332D03*
G54D22*
X992000Y72300D03*
Y83300D03*
G54D14*
X105200Y213100D03*
X96600Y244700D03*
X96700Y258800D03*
X129000Y244700D03*
Y258800D03*
X310050Y155300D03*
Y187700D03*
X344200Y206300D03*
X437700Y321050D03*
X454000Y54300D03*
X462586Y46371D03*
X458846Y66800D03*
X471100Y54300D03*
X471300Y60300D03*
X470200Y321050D03*
X543300Y144800D03*
Y177100D03*
X570700Y207000D03*
X678500Y317300D03*
X711000D03*
X779716Y156784D03*
Y189784D03*
X813600Y206700D03*
X906800Y311100D03*
X939600D03*
X964000Y77300D03*
X963500Y325800D03*
X970700Y402100D03*
X970800Y389100D03*
X982500Y6100D03*
X982700Y21500D03*
X981500Y35700D03*
X978500Y61300D03*
Y93900D03*
X991500Y6400D03*
X991900Y21900D03*
X991400Y35900D03*
X995900Y47000D03*
X1005800Y72300D03*
X992000Y91600D03*
X997500Y325800D03*
X1010200Y10700D03*
X1010600Y22800D03*
X1010400Y32000D03*
X1015926Y70774D03*
X1016900Y78300D03*
X1021700Y10400D03*
X1022300Y21700D03*
Y31700D03*
X1035900Y47000D03*
X1026100Y72000D03*
X1041100Y5800D03*
X1040500Y23100D03*
X1040700Y35800D03*
X1050300Y5800D03*
X1050400Y23400D03*
X1050500Y36000D03*
G54D23*
X1068300Y59250D03*
G54D24*
Y74850D03*
Y90450D03*
Y106050D03*
G54D15*
X105600Y244700D03*
Y258800D03*
X118600Y244700D03*
Y258800D03*
X448200Y321050D03*
X461200D03*
X689100Y317300D03*
X702100D03*
X917500Y311100D03*
X930500D03*
X973200Y325800D03*
X986200D03*
G54D25*
G01X-34000Y-18000D02*
X1122000D01*
Y485000D01*
X-34000D01*
Y-18000D01*
G54D16*
X134700Y187500D03*
X128700D03*
X144900Y309400D03*
X138900D03*
X179800Y181500D03*
X185800D03*
X185900Y187500D03*
X191900D03*
X195800Y196800D03*
X201800D03*
X369400Y187500D03*
X363400D03*
X373700Y309400D03*
X379700D03*
X414500Y181800D03*
X420500D03*
Y187700D03*
X416000Y223800D03*
X426500Y187700D03*
X430600Y196900D03*
X422000Y223800D03*
X436600Y196900D03*
X598000Y187600D03*
X604000D03*
X614300Y309600D03*
X608300D03*
X655200Y187600D03*
X648700Y181900D03*
X654700D03*
X651200Y223800D03*
X657200D03*
X661200Y187600D03*
X671300Y197000D03*
X665300D03*
X838700Y187684D03*
X832700D03*
X849000Y310000D03*
X843000D03*
X883700Y182550D03*
X889700D03*
X889900Y188316D03*
X895900D03*
X885800Y223850D03*
X891800D03*
X905700Y197100D03*
X899700D03*
X961100Y377200D03*
X967100D03*
X1005800Y78300D03*
X1011800D03*
G54D17*
X174695Y120300D03*
Y140300D03*
X194695Y120300D03*
X184695Y130300D03*
X194695Y140300D03*
X409295Y120300D03*
X419295Y130300D03*
X409295Y140300D03*
X429295Y120300D03*
Y140300D03*
X643995Y120400D03*
Y140400D03*
X653995Y130400D03*
X663995Y120400D03*
Y140400D03*
X879900Y120700D03*
Y140700D03*
X899900Y120700D03*
X889900Y130700D03*
X899900Y140700D03*
G54D18*
X171620Y154154D03*
X180740D03*
X189900Y154254D03*
X406380Y155800D03*
X415480Y155840D03*
X424580Y155880D03*
X445074Y75503D03*
Y105503D03*
X465074Y75503D03*
X455074D03*
Y105503D03*
X465074D03*
X475074Y75503D03*
Y105503D03*
X640620Y155846D03*
X650100D03*
X659640D03*
X875400Y155504D03*
X884720Y155604D03*
X894140Y155704D03*
X926100Y131726D03*
Y141726D03*
X940900Y131726D03*
Y141726D03*
X943286Y357680D03*
X942900Y396700D03*
X955700Y131726D03*
Y141726D03*
X970500Y131726D03*
Y141726D03*
X985300Y131726D03*
Y141726D03*
X986306Y357780D03*
X986334Y396720D03*
X1000100Y131726D03*
Y141726D03*
G54D19*
X179700Y262200D03*
Y251200D03*
Y256700D03*
Y273200D03*
Y267700D03*
X193400Y130300D03*
X181100Y200400D03*
X187100D03*
Y205900D03*
X181100D03*
Y211400D03*
X187100D03*
X185700Y262200D03*
Y251200D03*
Y256700D03*
Y273200D03*
Y267700D03*
X199400Y130300D03*
X416100Y200400D03*
Y205900D03*
Y211400D03*
X416000Y218300D03*
X415000Y262200D03*
Y251200D03*
Y256700D03*
Y273200D03*
Y267700D03*
X433700Y130300D03*
X427700D03*
X422100Y200400D03*
Y205900D03*
Y211400D03*
X422000Y218300D03*
X421000Y262200D03*
Y251200D03*
Y256700D03*
Y273200D03*
Y267700D03*
X447200Y223800D03*
X441200D03*
X650800Y200400D03*
X656800D03*
Y205900D03*
X650800D03*
Y211400D03*
X656800D03*
X657200Y218300D03*
X651200D03*
X650600Y262200D03*
X656600D03*
X650600Y251200D03*
X656600D03*
X650600Y256700D03*
X656600D03*
X650600Y273200D03*
X656600D03*
X650600Y267700D03*
X656600D03*
X669400Y130400D03*
X663400D03*
X681000Y223800D03*
X675000D03*
X898400Y130700D03*
X885200Y200500D03*
X891200D03*
Y206000D03*
X885200D03*
Y211500D03*
X891200D03*
X891800Y218300D03*
X885800D03*
X885400Y262300D03*
X891400D03*
X885400Y251300D03*
X891400D03*
X885400Y256800D03*
X891400D03*
X885400Y273300D03*
X891400D03*
X885400Y267800D03*
X891400D03*
X904400Y130700D03*
X909800Y223900D03*
X915800D03*
X937000Y379800D03*
X943000D03*
X986200D03*
X992200D03*
M02*
