G04 ================== begin FILE IDENTIFICATION RECORD ==================*
G04 Layout Name:  MR_HR2B_Connnect_Board_1V0.brd*
G04 Film Name:    art05*
G04 File Format:  Gerber RS274X*
G04 File Origin:  Cadence Allegro 16.6-S025*
G04 Origin Date:  Thu Jun 23 18:19:44 2016*
G04 *
G04 Layer:  VIA CLASS/SIG2*
G04 Layer:  PIN/SIG2*
G04 Layer:  ETCH/SIG2*
G04 Layer:  BOARD GEOMETRY/OUTLINE*
G04 *
G04 Offset:    (0.000 0.000)*
G04 Mirror:    No*
G04 Mode:      Positive*
G04 Rotation:  0*
G04 FullContactRelief:  No*
G04 UndefLineWidth:     0.000*
G04 ================== end FILE IDENTIFICATION RECORD ====================*
%FSLAX25Y25*MOIN*%
%IR0*IPPOS*OFA0.00000B0.00000*MIA0B0*SFA1.00000B1.00000*%
%ADD10C,.03*%
%ADD13C,.04*%
%ADD11C,.06*%
%ADD12C,.016*%
%ADD14C,.047244*%
%ADD15C,.006*%
G75*
%LPD*%
G75*
G54D10*
X30800Y37400D03*
Y42400D03*
Y47400D03*
Y52400D03*
Y57400D03*
Y62400D03*
Y67400D03*
Y72400D03*
Y77400D03*
Y82400D03*
Y87400D03*
Y92400D03*
Y97400D03*
Y102400D03*
Y107400D03*
Y112400D03*
Y117400D03*
Y122400D03*
Y127400D03*
Y132400D03*
Y137400D03*
Y142400D03*
Y147400D03*
Y152400D03*
Y157400D03*
Y162400D03*
Y167400D03*
Y172400D03*
Y177400D03*
Y182400D03*
Y187400D03*
Y192400D03*
Y197400D03*
Y202400D03*
Y207400D03*
Y212400D03*
Y217400D03*
Y222400D03*
Y227400D03*
Y232400D03*
X40800Y37400D03*
Y42400D03*
Y47400D03*
Y52400D03*
Y57400D03*
Y62400D03*
Y67400D03*
Y72400D03*
Y77400D03*
Y82400D03*
Y87400D03*
Y92400D03*
Y97400D03*
Y102400D03*
Y107400D03*
Y112400D03*
Y117400D03*
Y122400D03*
Y127400D03*
Y132400D03*
Y137400D03*
Y142400D03*
Y147400D03*
Y152400D03*
Y157400D03*
Y162400D03*
Y167400D03*
Y172400D03*
Y177400D03*
Y182400D03*
Y187400D03*
Y192400D03*
Y197400D03*
Y202400D03*
Y207400D03*
Y212400D03*
Y217400D03*
Y222400D03*
Y227400D03*
Y232400D03*
G54D11*
X454912Y64312D03*
X455900Y205650D03*
X476588Y64312D03*
X476200Y205650D03*
G54D12*
X459300Y80847D03*
Y84784D03*
Y76910D03*
X451238Y106438D03*
X459300Y100532D03*
Y92658D03*
Y104469D03*
Y96595D03*
X451501Y102501D03*
X452200Y123600D03*
X451912Y114312D03*
X459300Y108406D03*
Y122186D03*
X459700Y116280D03*
X452200Y117768D03*
Y120900D03*
Y139268D03*
Y132632D03*
X459300Y138000D03*
X452200Y126732D03*
Y129500D03*
X459300Y128091D03*
X451245Y149745D03*
X459300Y155650D03*
Y147776D03*
X451418Y153682D03*
X451392Y145808D03*
X452200Y142400D03*
X459300Y151713D03*
Y143839D03*
X451770Y169430D03*
X451133Y173367D03*
X459300Y175335D03*
Y167461D03*
X451744Y161556D03*
X451607Y165493D03*
X459300Y171398D03*
Y163524D03*
X451200Y185178D03*
X459300Y187146D03*
X451115Y189115D03*
X459300Y191084D03*
X452104Y177304D03*
X452200Y193052D03*
X479700Y82816D03*
Y78879D03*
Y90690D03*
Y102501D03*
X472700Y96595D03*
X472632Y100532D03*
X479700Y106438D03*
Y98564D03*
X472831Y104469D03*
X472949Y118249D03*
X479854Y124154D03*
X472706Y108406D03*
X472686Y122186D03*
X472888Y114312D03*
X479617Y120217D03*
X480180Y116280D03*
X480009Y128091D03*
X479728Y132028D03*
X472298Y139902D03*
X472577Y126123D03*
X472760Y130060D03*
X472950Y155650D03*
X472224Y147776D03*
X472700Y143839D03*
X479700Y145808D03*
Y153682D03*
X472413Y151713D03*
X479700Y141871D03*
Y149745D03*
X472635Y175335D03*
X472698Y171398D03*
X479700Y165493D03*
Y173367D03*
X472724Y163524D03*
X479700Y161556D03*
Y169430D03*
X472661Y167461D03*
X472400Y191100D03*
Y187100D03*
X472972Y179272D03*
X479700Y185178D03*
Y177304D03*
Y189115D03*
Y193052D03*
X481066Y137934D03*
G54D13*
X462637Y87737D03*
X463100Y111359D03*
X462019Y134981D03*
X462200Y158603D03*
X463300Y182225D03*
X482500Y87737D03*
X482159Y111359D03*
X468719Y134981D03*
X480942Y158499D03*
X481375Y182225D03*
G54D14*
X465998Y71202D03*
Y198761D03*
G54D15*
G01X472632Y100532D02*
X464000Y91900D01*
X462000D01*
X459600Y89500D01*
X87900D01*
X40800Y42400D01*
G01X472831Y104469D02*
X462961Y94600D01*
X457200D01*
X455400Y92800D01*
X81200D01*
X40800Y52400D01*
G01Y62400D02*
X77000Y98600D01*
X462900D01*
X472706Y108406D01*
G01X480180Y116280D02*
X475000Y111100D01*
X468600D01*
X463900Y106400D01*
X456500D01*
X454500Y104400D01*
X72800D01*
X40800Y72400D01*
G01Y87400D02*
X64800Y111400D01*
X415000D01*
X417800Y108600D01*
X455400D01*
X468986Y122186D01*
X472686D01*
G01X480009Y128091D02*
X468491D01*
X452300Y111900D01*
X430500D01*
X418500Y123900D01*
X62300D01*
X40800Y102400D01*
G01Y117400D02*
X58400Y135000D01*
X452900D01*
X457900Y140000D01*
X467700D01*
X469766Y137934D01*
X481066D01*
G01X40800Y142400D02*
X433300D01*
X434952Y144052D01*
X454552D01*
X456100Y145600D01*
X470047D01*
X472224Y147776D01*
G01X472413Y151713D02*
X470627Y153500D01*
X457100D01*
X455682Y152082D01*
X43418D01*
X43100Y152400D01*
X40800D01*
G01X472950Y155650D02*
X467197Y161403D01*
X457603D01*
X454400Y158200D01*
X45000D01*
X40800Y162400D01*
G01X472724Y163524D02*
X467576D01*
X465600Y165500D01*
X456200D01*
X454593Y163893D01*
X49307D01*
X40800Y172400D01*
G01X472661Y167461D02*
X467839D01*
X461800Y173500D01*
X457000D01*
X455000Y171500D01*
X450600D01*
X448000Y168900D01*
X54300D01*
X40800Y182400D01*
G01X472635Y175335D02*
X469065D01*
X465200Y179200D01*
X447100D01*
X444300Y176400D01*
X66800D01*
X40800Y202400D01*
G01X472698Y171398D02*
X468702D01*
X462700Y177400D01*
X456600D01*
X454700Y175500D01*
X448800D01*
X445800Y172500D01*
X60700D01*
X40800Y192400D01*
G01Y212400D02*
X72300Y180900D01*
X450700D01*
X455100Y185300D01*
X466945D01*
X472972Y179272D01*
G01X40800Y232400D02*
X82300Y190900D01*
X454800D01*
X456800Y192900D01*
X470600D01*
X472400Y191100D01*
G01X40800Y222400D02*
X77400Y185800D01*
X446000D01*
X446978Y186778D01*
X454478D01*
X456900Y189200D01*
X467500D01*
X469600Y187100D01*
X472400D01*
M02*
