G04 ================== begin FILE IDENTIFICATION RECORD ==================*
G04 Layout Name:  MR_HR2B_Connnect_Board_1V0.brd*
G04 Film Name:    art06*
G04 File Format:  Gerber RS274X*
G04 File Origin:  Cadence Allegro 16.6-S025*
G04 Origin Date:  Thu Jun 23 18:19:44 2016*
G04 *
G04 Layer:  VIA CLASS/BOTTOM*
G04 Layer:  PIN/BOTTOM*
G04 Layer:  ETCH/BOTTOM*
G04 Layer:  BOARD GEOMETRY/OUTLINE*
G04 *
G04 Offset:    (0.000 0.000)*
G04 Mirror:    Yes*
G04 Mode:      Positive*
G04 Rotation:  0*
G04 FullContactRelief:  No*
G04 UndefLineWidth:     0.000*
G04 ================== end FILE IDENTIFICATION RECORD ====================*
%FSLAX25Y25*MOIN*%
%IR0*IPPOS*OFA0.00000B0.00000*MIA1B0*SFA1.00000B1.00000*%
%ADD11R,.122047X.062992*%
%ADD10C,.03*%
%ADD16C,.04*%
%ADD12C,.06*%
%ADD15C,.016*%
%ADD14R,.043307X.011811*%
%ADD17C,.047244*%
%ADD13R,.059055X.027559*%
%ADD18C,.006*%
%ADD19C,.01*%
%ADD20C,.024*%
G75*
%LPD*%
G75*
G54D10*
X30800Y37400D03*
Y42400D03*
Y47400D03*
Y52400D03*
Y57400D03*
Y62400D03*
Y67400D03*
Y72400D03*
Y77400D03*
Y82400D03*
Y87400D03*
Y92400D03*
Y97400D03*
Y102400D03*
Y107400D03*
Y112400D03*
Y117400D03*
Y122400D03*
Y127400D03*
Y132400D03*
Y137400D03*
Y142400D03*
Y147400D03*
Y152400D03*
Y157400D03*
Y162400D03*
Y167400D03*
Y172400D03*
Y177400D03*
Y182400D03*
Y187400D03*
Y192400D03*
Y197400D03*
Y202400D03*
Y207400D03*
Y212400D03*
Y217400D03*
Y222400D03*
Y227400D03*
Y232400D03*
X40800Y37400D03*
Y42400D03*
Y47400D03*
Y52400D03*
Y57400D03*
Y62400D03*
Y67400D03*
Y72400D03*
Y77400D03*
Y82400D03*
Y87400D03*
Y92400D03*
Y97400D03*
Y102400D03*
Y107400D03*
Y112400D03*
Y117400D03*
Y122400D03*
Y127400D03*
Y132400D03*
Y137400D03*
Y142400D03*
Y147400D03*
Y152400D03*
Y157400D03*
Y162400D03*
Y167400D03*
Y172400D03*
Y177400D03*
Y182400D03*
Y187400D03*
Y192400D03*
Y197400D03*
Y202400D03*
Y207400D03*
Y212400D03*
Y217400D03*
Y222400D03*
Y227400D03*
Y232400D03*
G54D20*
G01X456550Y87737D02*
X462637D01*
G01X456550Y111359D02*
X463100D01*
G01X456550Y134981D02*
X462019D01*
G01X456550Y158603D02*
X462200D01*
G01X456550Y182225D02*
X463300D01*
G01X475447Y87737D02*
X482500D01*
G01X475447Y111359D02*
X482159D01*
G01X475447Y134981D02*
X468719D01*
G01X475447Y158603D02*
X480796D01*
X480900Y158499D01*
X480942D01*
G01X475447Y182225D02*
X481375D01*
G54D11*
X465998Y64312D03*
Y205650D03*
G54D12*
X454912Y64312D03*
X455900Y205650D03*
X476588Y64312D03*
X476200Y205650D03*
G54D13*
X456550Y87737D03*
Y111359D03*
Y134981D03*
Y158603D03*
Y182225D03*
X475447Y87737D03*
Y111359D03*
Y134981D03*
Y158603D03*
Y182225D03*
G54D14*
X455762Y76910D03*
Y78879D03*
Y80847D03*
Y82816D03*
Y84784D03*
Y90690D03*
Y92658D03*
Y94627D03*
Y96595D03*
Y98564D03*
Y100532D03*
Y102501D03*
Y104469D03*
Y106438D03*
Y108406D03*
Y114312D03*
Y116280D03*
Y118249D03*
Y120217D03*
Y122186D03*
Y124154D03*
Y126123D03*
Y128091D03*
Y130060D03*
Y132028D03*
Y137934D03*
Y139902D03*
Y141871D03*
Y143839D03*
Y145808D03*
Y147776D03*
Y149745D03*
Y151713D03*
Y153682D03*
Y155650D03*
Y161556D03*
Y163524D03*
Y165493D03*
Y167461D03*
Y169430D03*
Y171398D03*
Y173367D03*
Y175335D03*
Y177304D03*
Y179272D03*
Y185178D03*
Y187146D03*
Y189115D03*
Y191084D03*
Y193052D03*
X476235Y76910D03*
Y78879D03*
Y80847D03*
Y82816D03*
Y84784D03*
Y90690D03*
Y92658D03*
Y94627D03*
Y96595D03*
Y98564D03*
Y100532D03*
Y102501D03*
Y104469D03*
Y106438D03*
Y108406D03*
Y114312D03*
Y116280D03*
Y118249D03*
Y120217D03*
Y122186D03*
Y124154D03*
Y126123D03*
Y128091D03*
Y130060D03*
Y132028D03*
Y137934D03*
Y139902D03*
Y141871D03*
Y143839D03*
Y145808D03*
Y147776D03*
Y149745D03*
Y151713D03*
Y153682D03*
Y155650D03*
Y161556D03*
Y163524D03*
Y165493D03*
Y167461D03*
Y169430D03*
Y171398D03*
Y173367D03*
Y175335D03*
Y177304D03*
Y179272D03*
Y185178D03*
Y187146D03*
Y189115D03*
Y191084D03*
Y193052D03*
G54D15*
X459300Y80847D03*
Y84784D03*
Y76910D03*
X451238Y106438D03*
X459300Y100532D03*
Y92658D03*
Y104469D03*
Y96595D03*
X451501Y102501D03*
X452200Y123600D03*
X451912Y114312D03*
X459300Y108406D03*
Y122186D03*
X459700Y116280D03*
X452200Y117768D03*
Y120900D03*
Y139268D03*
Y132632D03*
X459300Y138000D03*
X452200Y126732D03*
Y129500D03*
X459300Y128091D03*
X451245Y149745D03*
X459300Y155650D03*
Y147776D03*
X451418Y153682D03*
X451392Y145808D03*
X452200Y142400D03*
X459300Y151713D03*
Y143839D03*
X451770Y169430D03*
X451133Y173367D03*
X459300Y175335D03*
Y167461D03*
X451744Y161556D03*
X451607Y165493D03*
X459300Y171398D03*
Y163524D03*
X451200Y185178D03*
X459300Y187146D03*
X451115Y189115D03*
X459300Y191084D03*
X452104Y177304D03*
X452200Y193052D03*
X479700Y82816D03*
Y78879D03*
Y90690D03*
Y102501D03*
X472700Y96595D03*
X472632Y100532D03*
X479700Y106438D03*
Y98564D03*
X472831Y104469D03*
X472949Y118249D03*
X479854Y124154D03*
X472706Y108406D03*
X472686Y122186D03*
X472888Y114312D03*
X479617Y120217D03*
X480180Y116280D03*
X480009Y128091D03*
X479728Y132028D03*
X472298Y139902D03*
X472577Y126123D03*
X472760Y130060D03*
X472950Y155650D03*
X472224Y147776D03*
X472700Y143839D03*
X479700Y145808D03*
Y153682D03*
X472413Y151713D03*
X479700Y141871D03*
Y149745D03*
X472635Y175335D03*
X472698Y171398D03*
X479700Y165493D03*
Y173367D03*
X472724Y163524D03*
X479700Y161556D03*
Y169430D03*
X472661Y167461D03*
X472400Y191100D03*
Y187100D03*
X472972Y179272D03*
X479700Y185178D03*
Y177304D03*
Y189115D03*
Y193052D03*
X481066Y137934D03*
G54D16*
G01X465998Y64312D02*
X454912D01*
G01X465998Y205650D02*
X455900D01*
G01X465998Y64312D02*
X476588D01*
G01X465998Y205650D02*
X476200D01*
X462637Y87737D03*
X463100Y111359D03*
X462019Y134981D03*
X462200Y158603D03*
X463300Y182225D03*
X482500Y87737D03*
X482159Y111359D03*
X468719Y134981D03*
X480942Y158499D03*
X481375Y182225D03*
G54D17*
X465998Y71202D03*
Y198761D03*
G54D18*
G01X455762Y106438D02*
X451238D01*
G01X455762Y102501D02*
X451501D01*
G01X452200Y123600D02*
X452754Y124154D01*
X455762D01*
G01Y114312D02*
X451912D01*
G01X452200Y117768D02*
X452681Y118249D01*
X455762D01*
G01X452200Y120900D02*
X452883Y120217D01*
X455762D01*
G01X452200Y139268D02*
X452834Y139902D01*
X455762D01*
G01X452200Y132632D02*
X452803Y132028D01*
X455762D01*
G01X452200Y126732D02*
X452809Y126123D01*
X455762D01*
G01X452200Y129500D02*
X452760Y130060D01*
X455762D01*
G01Y149745D02*
X451245D01*
G01X455762Y153682D02*
X451418D01*
G01X455762Y145808D02*
X451392D01*
G01X452200Y142400D02*
X452729Y141871D01*
X455762D01*
G01Y169430D02*
X451770D01*
G01X455762Y173367D02*
X451133D01*
G01X455762Y161556D02*
X451744D01*
G01X455762Y165493D02*
X451607D01*
G01X455762Y185178D02*
X451200D01*
G01X455762Y189115D02*
X451115D01*
G01X455762Y177304D02*
X452104D01*
G01X476235Y100532D02*
X472632D01*
G01X476235Y104469D02*
X472831D01*
G01X476235Y108406D02*
X472706D01*
G01X476235Y122186D02*
X472686D01*
G01X476235Y116280D02*
X480180D01*
G01X476235Y137934D02*
X481066D01*
G01X476235Y128091D02*
X480009D01*
G01X476235Y139902D02*
X472298D01*
G01X476235Y155650D02*
X472950D01*
G01X476235Y147776D02*
X472224D01*
G01X476235Y151713D02*
X472413D01*
G01X476235Y171398D02*
X472698D01*
G01X476235Y163524D02*
X472724D01*
G01X476235Y167461D02*
X472661D01*
G01X472400Y191100D02*
X476218D01*
X476235Y191084D01*
G01Y175335D02*
X472635D01*
G01X472400Y187100D02*
X476188D01*
X476235Y187146D01*
G01Y179272D02*
X472972D01*
G54D19*
G01X455762Y80847D02*
X459300D01*
G01X455762Y84784D02*
X459300D01*
G01X455762Y76910D02*
X459300D01*
G01X455762Y100532D02*
X459300D01*
G01X455762Y92658D02*
X459300D01*
G01X455762Y104469D02*
X459300D01*
G01X455762Y96595D02*
X459300D01*
G01X455762Y108406D02*
X459300D01*
G01X455762Y122186D02*
X459300D01*
G01X455762Y116280D02*
X459700D01*
G01X455762Y137934D02*
X459234D01*
X459300Y138000D01*
G01X455762Y128091D02*
X459300D01*
G01X455762Y155650D02*
X459300D01*
G01X455762Y147776D02*
X459300D01*
G01X455762Y151713D02*
X459300D01*
G01X455762Y143839D02*
X459300D01*
G01X455762Y167461D02*
X459300D01*
G01X455762Y171398D02*
X459300D01*
G01X455762Y163524D02*
X459300D01*
G01X455762Y187146D02*
X459300D01*
G01X455762Y175335D02*
X459300D01*
G01X463300Y182225D02*
X460347Y179272D01*
X455762D01*
G01Y191084D02*
X459300D01*
G01X455762Y193052D02*
X452200D01*
G01X476235Y82816D02*
X479700D01*
G01X476235Y78879D02*
X479700D01*
G01X476235Y102501D02*
X479700D01*
G01X476235Y96595D02*
X472700D01*
G01X476235Y106438D02*
X479700D01*
G01X476235Y90690D02*
X479700D01*
G01X476235Y98564D02*
X479700D01*
G01X476235Y118249D02*
X472949D01*
G01X476235Y114312D02*
X472888D01*
G01X476235Y120217D02*
X479617D01*
G01X476235Y132028D02*
X479728D01*
G01X476235Y124154D02*
X479854D01*
G01X476235Y126123D02*
X472577D01*
G01X476235Y130060D02*
X472760D01*
G01X476235Y143839D02*
X472700D01*
G01X476235Y145808D02*
X479700D01*
G01X476235Y153682D02*
X479700D01*
G01X476235Y141871D02*
X479700D01*
G01X476235Y149745D02*
X479700D01*
G01X476235Y165493D02*
X479700D01*
G01X476235Y173367D02*
X479700D01*
G01X476235Y161556D02*
X479700D01*
G01X476235Y169430D02*
X479700D01*
G01X476235Y185178D02*
X479700D01*
G01X476235Y177304D02*
X479700D01*
G01X476235Y189115D02*
X479700D01*
G01X476235Y193052D02*
X479700D01*
M02*
