G04 ================== begin FILE IDENTIFICATION RECORD ==================*
G04 Layout Name:  MR_HR2B_Connnect_Board_1V0.brd*
G04 Film Name:    art01*
G04 File Format:  Gerber RS274X*
G04 File Origin:  Cadence Allegro 16.6-S025*
G04 Origin Date:  Thu Jun 23 18:19:44 2016*
G04 *
G04 Layer:  VIA CLASS/TOP*
G04 Layer:  PIN/TOP*
G04 Layer:  ETCH/TOP*
G04 Layer:  BOARD GEOMETRY/OUTLINE*
G04 *
G04 Offset:    (0.000 0.000)*
G04 Mirror:    No*
G04 Mode:      Positive*
G04 Rotation:  0*
G04 FullContactRelief:  No*
G04 UndefLineWidth:     0.000*
G04 ================== end FILE IDENTIFICATION RECORD ====================*
%FSLAX25Y25*MOIN*%
%IR0*IPPOS*OFA0.00000B0.00000*MIA0B0*SFA1.00000B1.00000*%
%ADD10C,.03*%
%ADD13C,.04*%
%ADD11C,.06*%
%ADD12C,.016*%
%ADD14C,.047244*%
%LPD*%
G75*
G54D10*
X30800Y37400D03*
Y42400D03*
Y47400D03*
Y52400D03*
Y57400D03*
Y62400D03*
Y67400D03*
Y72400D03*
Y77400D03*
Y82400D03*
Y87400D03*
Y92400D03*
Y97400D03*
Y102400D03*
Y107400D03*
Y112400D03*
Y117400D03*
Y122400D03*
Y127400D03*
Y132400D03*
Y137400D03*
Y142400D03*
Y147400D03*
Y152400D03*
Y157400D03*
Y162400D03*
Y167400D03*
Y172400D03*
Y177400D03*
Y182400D03*
Y187400D03*
Y192400D03*
Y197400D03*
Y202400D03*
Y207400D03*
Y212400D03*
Y217400D03*
Y222400D03*
Y227400D03*
Y232400D03*
X40800Y37400D03*
Y42400D03*
Y47400D03*
Y52400D03*
Y57400D03*
Y62400D03*
Y67400D03*
Y72400D03*
Y77400D03*
Y82400D03*
Y87400D03*
Y92400D03*
Y97400D03*
Y102400D03*
Y107400D03*
Y112400D03*
Y117400D03*
Y122400D03*
Y127400D03*
Y132400D03*
Y137400D03*
Y142400D03*
Y147400D03*
Y152400D03*
Y157400D03*
Y162400D03*
Y167400D03*
Y172400D03*
Y177400D03*
Y182400D03*
Y187400D03*
Y192400D03*
Y197400D03*
Y202400D03*
Y207400D03*
Y212400D03*
Y217400D03*
Y222400D03*
Y227400D03*
Y232400D03*
G54D11*
X454912Y64312D03*
X455900Y205650D03*
X476588Y64312D03*
X476200Y205650D03*
G54D12*
X459300Y80847D03*
Y84784D03*
Y76910D03*
X451238Y106438D03*
X459300Y100532D03*
Y92658D03*
Y104469D03*
Y96595D03*
X451501Y102501D03*
X452200Y123600D03*
X451912Y114312D03*
X459300Y108406D03*
Y122186D03*
X459700Y116280D03*
X452200Y117768D03*
Y120900D03*
Y139268D03*
Y132632D03*
X459300Y138000D03*
X452200Y126732D03*
Y129500D03*
X459300Y128091D03*
X451245Y149745D03*
X459300Y155650D03*
Y147776D03*
X451418Y153682D03*
X451392Y145808D03*
X452200Y142400D03*
X459300Y151713D03*
Y143839D03*
X451770Y169430D03*
X451133Y173367D03*
X459300Y175335D03*
Y167461D03*
X451744Y161556D03*
X451607Y165493D03*
X459300Y171398D03*
Y163524D03*
X451200Y185178D03*
X459300Y187146D03*
X451115Y189115D03*
X459300Y191084D03*
X452104Y177304D03*
X452200Y193052D03*
X479700Y82816D03*
Y78879D03*
Y90690D03*
Y102501D03*
X472700Y96595D03*
X472632Y100532D03*
X479700Y106438D03*
Y98564D03*
X472831Y104469D03*
X472949Y118249D03*
X479854Y124154D03*
X472706Y108406D03*
X472686Y122186D03*
X472888Y114312D03*
X479617Y120217D03*
X480180Y116280D03*
X480009Y128091D03*
X479728Y132028D03*
X472298Y139902D03*
X472577Y126123D03*
X472760Y130060D03*
X472950Y155650D03*
X472224Y147776D03*
X472700Y143839D03*
X479700Y145808D03*
Y153682D03*
X472413Y151713D03*
X479700Y141871D03*
Y149745D03*
X472635Y175335D03*
X472698Y171398D03*
X479700Y165493D03*
Y173367D03*
X472724Y163524D03*
X479700Y161556D03*
Y169430D03*
X472661Y167461D03*
X472400Y191100D03*
Y187100D03*
X472972Y179272D03*
X479700Y185178D03*
Y177304D03*
Y189115D03*
Y193052D03*
X481066Y137934D03*
G54D13*
X462637Y87737D03*
X463100Y111359D03*
X462019Y134981D03*
X462200Y158603D03*
X463300Y182225D03*
X482500Y87737D03*
X482159Y111359D03*
X468719Y134981D03*
X480942Y158499D03*
X481375Y182225D03*
G54D14*
X465998Y71202D03*
Y198761D03*
M02*
