G04 ================== begin FILE IDENTIFICATION RECORD ==================*
G04 Layout Name:  MR_HR2B_Connnect_Board_1V0.brd*
G04 Film Name:    drill*
G04 File Format:  Gerber RS274X*
G04 File Origin:  Cadence Allegro 16.6-S025*
G04 Origin Date:  Thu Jun 23 18:19:45 2016*
G04 *
G04 Layer:  MANUFACTURING/NCLEGEND-1-6*
G04 Layer:  MANUFACTURING/NCDRILL_LEGEND*
G04 Layer:  MANUFACTURING/NCDRILL_FIGURE*
G04 Layer:  BOARD GEOMETRY/OUTLINE*
G04 Layer:  BOARD GEOMETRY/DIMENSION*
G04 *
G04 Offset:    (0.000 0.000)*
G04 Mirror:    No*
G04 Mode:      Positive*
G04 Rotation:  0*
G04 FullContactRelief:  No*
G04 UndefLineWidth:     6.000*
G04 ================== end FILE IDENTIFICATION RECORD ====================*
%FSLAX25Y25*MOIN*%
%IR0*IPPOS*OFA0.00000B0.00000*MIA0B0*SFA1.00000B1.00000*%
%AMMACRO13*
1,1,.006,.003937,0.0*
20,1,.006,.003937,0.0,.003877,-.000684,0.0*
1,1,.006,.003877,-.000684*
20,1,.006,.003877,-.000684,.0037,-.001347,0.0*
1,1,.006,.0037,-.001347*
20,1,.006,.0037,-.001347,.00341,-.001968,0.0*
1,1,.006,.00341,-.001968*
20,1,.006,.00341,-.001968,.003016,-.002531,0.0*
1,1,.006,.003016,-.002531*
20,1,.006,.003016,-.002531,.002531,-.003016,0.0*
1,1,.006,.002531,-.003016*
20,1,.006,.002531,-.003016,.001969,-.00341,0.0*
1,1,.006,.001969,-.00341*
20,1,.006,.001969,-.00341,.001347,-.0037,0.0*
1,1,.006,.001347,-.0037*
20,1,.006,.001347,-.0037,.000684,-.003877,0.0*
1,1,.006,.000684,-.003877*
20,1,.006,.000684,-.003877,0.0,-.003937,0.0*
1,1,.006,0.0,-.003937*
20,1,.006,0.0,-.003937,-.000684,-.003877,0.0*
1,1,.006,-.000684,-.003877*
20,1,.006,-.000684,-.003877,-.001347,-.0037,0.0*
1,1,.006,-.001347,-.0037*
20,1,.006,-.001347,-.0037,-.001968,-.00341,0.0*
1,1,.006,-.001968,-.00341*
20,1,.006,-.001968,-.00341,-.002531,-.003016,0.0*
1,1,.006,-.002531,-.003016*
20,1,.006,-.002531,-.003016,-.003016,-.002531,0.0*
1,1,.006,-.003016,-.002531*
20,1,.006,-.003016,-.002531,-.00341,-.001969,0.0*
1,1,.006,-.00341,-.001969*
20,1,.006,-.00341,-.001969,-.0037,-.001347,0.0*
1,1,.006,-.0037,-.001347*
20,1,.006,-.0037,-.001347,-.003877,-.000684,0.0*
1,1,.006,-.003877,-.000684*
20,1,.006,-.003877,-.000684,-.003937,0.0,0.0*
1,1,.006,-.003937,0.0*
20,1,.006,-.003937,0.0,-.003877,.000684,0.0*
1,1,.006,-.003877,.000684*
20,1,.006,-.003877,.000684,-.0037,.001347,0.0*
1,1,.006,-.0037,.001347*
20,1,.006,-.0037,.001347,-.00341,.001968,0.0*
1,1,.006,-.00341,.001968*
20,1,.006,-.00341,.001968,-.003016,.002531,0.0*
1,1,.006,-.003016,.002531*
20,1,.006,-.003016,.002531,-.002531,.003016,0.0*
1,1,.006,-.002531,.003016*
20,1,.006,-.002531,.003016,-.001969,.00341,0.0*
1,1,.006,-.001969,.00341*
20,1,.006,-.001969,.00341,-.001347,.0037,0.0*
1,1,.006,-.001347,.0037*
20,1,.006,-.001347,.0037,-.000684,.003877,0.0*
1,1,.006,-.000684,.003877*
20,1,.006,-.000684,.003877,0.0,.003937,0.0*
1,1,.006,0.0,.003937*
20,1,.006,0.0,.003937,.000684,.003877,0.0*
1,1,.006,.000684,.003877*
20,1,.006,.000684,.003877,.001347,.0037,0.0*
1,1,.006,.001347,.0037*
20,1,.006,.001347,.0037,.001968,.00341,0.0*
1,1,.006,.001968,.00341*
20,1,.006,.001968,.00341,.002531,.003016,0.0*
1,1,.006,.002531,.003016*
20,1,.006,.002531,.003016,.003016,.002531,0.0*
1,1,.006,.003016,.002531*
20,1,.006,.003016,.002531,.00341,.001969,0.0*
1,1,.006,.00341,.001969*
20,1,.006,.00341,.001969,.0037,.001347,0.0*
1,1,.006,.0037,.001347*
20,1,.006,.0037,.001347,.003877,.000684,0.0*
1,1,.006,.003877,.000684*
20,1,.006,.003877,.000684,.003937,0.0,0.0*
1,1,.006,.003937,0.0*
%
%ADD13MACRO13*%
%AMMACRO11*
1,1,.006,.05,0.0*
20,1,.006,.05,0.0,-.05,0.0,0.0*
1,1,.006,-.05,0.0*
1,1,.006,0.0,.05*
20,1,.006,0.0,.05,0.0,-.05,0.0*
1,1,.006,0.0,-.05*
1,1,.006,.040001,0.0*
20,1,.006,.040001,0.0,.040001,.033332,0.0*
1,1,.006,.040001,.033332*
1,1,.006,.040001,.0275*
20,1,.006,.040001,.0275,.036666,.030833,0.0*
1,1,.006,.036666,.030833*
20,1,.006,.036666,.030833,.031666,.032499,0.0*
1,1,.006,.031666,.032499*
20,1,.006,.031666,.032499,.025834,.033332,0.0*
1,1,.006,.025834,.033332*
20,1,.006,.025834,.033332,.02,.031666,0.0*
1,1,.006,.02,.031666*
20,1,.006,.02,.031666,.015,.028333,0.0*
1,1,.006,.015,.028333*
20,1,.006,.015,.028333,.011666,.023333,0.0*
1,1,.006,.011666,.023333*
20,1,.006,.011666,.023333,.009999,.016666,0.0*
1,1,.006,.009999,.016666*
20,1,.006,.009999,.016666,.011666,.009999,0.0*
1,1,.006,.011666,.009999*
20,1,.006,.011666,.009999,.015,.004999,0.0*
1,1,.006,.015,.004999*
20,1,.006,.015,.004999,.02,.001666,0.0*
1,1,.006,.02,.001666*
20,1,.006,.02,.001666,.025834,0.0,0.0*
1,1,.006,.025834,0.0*
20,1,.006,.025834,0.0,.031666,.000833,0.0*
1,1,.006,.031666,.000833*
20,1,.006,.031666,.000833,.036666,.003333,0.0*
1,1,.006,.036666,.003333*
20,1,.006,.036666,.003333,.040001,.006665,0.0*
1,1,.006,.040001,.006665*
%
%ADD11MACRO11*%
%AMMACRO12*
1,1,.006,.05,0.0*
20,1,.006,.05,0.0,-.05,0.0,0.0*
1,1,.006,-.05,0.0*
1,1,.006,0.0,.05*
20,1,.006,0.0,.05,0.0,-.05,0.0*
1,1,.006,0.0,-.05*
1,1,.006,.02,0.0*
20,1,.006,.02,0.0,.02,.0425,0.0*
1,1,.006,.02,.0425*
20,1,.006,.02,.0425,.021667,.046666,0.0*
1,1,.006,.021667,.046666*
20,1,.006,.021667,.046666,.024999,.049167,0.0*
1,1,.006,.024999,.049167*
20,1,.006,.024999,.049167,.03,.05,0.0*
1,1,.006,.03,.05*
20,1,.006,.03,.05,.035,.048334,0.0*
1,1,.006,.035,.048334*
20,1,.006,.035,.048334,.0375,.044166,0.0*
1,1,.006,.0375,.044166*
1,1,.006,.0275,.03*
20,1,.006,.0275,.03,.010833,.03,0.0*
1,1,.006,.010833,.03*
%
%ADD12MACRO12*%
%AMMACRO10*
1,1,.006,.05,0.0*
20,1,.006,.05,0.0,-.05,0.0,0.0*
1,1,.006,-.05,0.0*
1,1,.006,0.0,.05*
20,1,.006,0.0,.05,0.0,-.05,0.0*
1,1,.006,0.0,-.05*
1,1,.006,.010833,0.0*
20,1,.006,.010833,0.0,.010833,.05,0.0*
1,1,.006,.010833,.05*
1,1,.006,.0375,.033332*
20,1,.006,.0375,.033332,.010833,.014167,0.0*
1,1,.006,.010833,.014167*
1,1,.006,.021667,.021667*
20,1,.006,.021667,.021667,.039167,0.0,0.0*
1,1,.006,.039167,0.0*
%
%ADD10MACRO10*%
%ADD14C,.003*%
%ADD15C,.006*%
G75*
%LPD*%
G75*
G54D10*
X30800Y37400D03*
Y42400D03*
Y47400D03*
Y52400D03*
Y57400D03*
Y62400D03*
Y67400D03*
Y72400D03*
Y77400D03*
Y82400D03*
Y87400D03*
Y92400D03*
Y97400D03*
Y102400D03*
Y107400D03*
Y112400D03*
Y117400D03*
Y122400D03*
Y127400D03*
Y132400D03*
Y137400D03*
Y142400D03*
Y147400D03*
Y152400D03*
Y157400D03*
Y162400D03*
Y167400D03*
Y172400D03*
Y177400D03*
Y182400D03*
Y187400D03*
Y192400D03*
Y197400D03*
Y202400D03*
Y207400D03*
Y212400D03*
Y217400D03*
Y222400D03*
Y227400D03*
Y232400D03*
X40800Y37400D03*
Y42400D03*
Y47400D03*
Y52400D03*
Y57400D03*
Y62400D03*
Y67400D03*
Y72400D03*
Y77400D03*
Y82400D03*
Y87400D03*
Y92400D03*
Y97400D03*
Y102400D03*
Y107400D03*
Y112400D03*
Y117400D03*
Y122400D03*
Y127400D03*
Y132400D03*
Y137400D03*
Y142400D03*
Y147400D03*
Y152400D03*
Y157400D03*
Y162400D03*
Y167400D03*
Y172400D03*
Y177400D03*
Y182400D03*
Y187400D03*
Y192400D03*
Y197400D03*
Y202400D03*
Y207400D03*
Y212400D03*
Y217400D03*
Y222400D03*
Y227400D03*
Y232400D03*
X454912Y64312D03*
X455900Y205650D03*
X476588Y64312D03*
X476200Y205650D03*
X622050Y80850D03*
Y137050D03*
G54D11*
X459300Y80847D03*
Y84784D03*
Y76910D03*
X451238Y106438D03*
X459300Y100532D03*
Y92658D03*
Y104469D03*
Y96595D03*
X451501Y102501D03*
X452200Y123600D03*
X451912Y114312D03*
X459300Y108406D03*
Y122186D03*
X459700Y116280D03*
X452200Y117768D03*
Y120900D03*
Y139268D03*
Y132632D03*
X459300Y138000D03*
X452200Y126732D03*
Y129500D03*
X459300Y128091D03*
X451245Y149745D03*
X459300Y155650D03*
Y147776D03*
X451418Y153682D03*
X451392Y145808D03*
X452200Y142400D03*
X459300Y151713D03*
Y143839D03*
X451770Y169430D03*
X451133Y173367D03*
X459300Y175335D03*
Y167461D03*
X451744Y161556D03*
X451607Y165493D03*
X459300Y171398D03*
Y163524D03*
X451200Y185178D03*
X459300Y187146D03*
X451115Y189115D03*
X459300Y191084D03*
X452104Y177304D03*
X452200Y193052D03*
X479700Y82816D03*
Y78879D03*
Y90690D03*
Y102501D03*
X472700Y96595D03*
X472632Y100532D03*
X479700Y106438D03*
Y98564D03*
X472831Y104469D03*
X472949Y118249D03*
X479854Y124154D03*
X472706Y108406D03*
X472686Y122186D03*
X472888Y114312D03*
X479617Y120217D03*
X480180Y116280D03*
X480009Y128091D03*
X479728Y132028D03*
X472298Y139902D03*
X472577Y126123D03*
X472760Y130060D03*
X472950Y155650D03*
X472224Y147776D03*
X472700Y143839D03*
X479700Y145808D03*
Y153682D03*
X472413Y151713D03*
X479700Y141871D03*
Y149745D03*
X472635Y175335D03*
X472698Y171398D03*
X479700Y165493D03*
Y173367D03*
X472724Y163524D03*
X479700Y161556D03*
Y169430D03*
X472661Y167461D03*
X472400Y191100D03*
Y187100D03*
X472972Y179272D03*
X479700Y185178D03*
Y177304D03*
Y189115D03*
Y193052D03*
X481066Y137934D03*
X622050Y165150D03*
G54D12*
X462637Y87737D03*
X463100Y111359D03*
X462019Y134981D03*
X462200Y158603D03*
X463300Y182225D03*
X482500Y87737D03*
X482159Y111359D03*
X468719Y134981D03*
X480942Y158499D03*
X481375Y182225D03*
X622050Y108950D03*
G54D13*
X465998Y71202D03*
Y198761D03*
X622050Y52750D03*
G54D14*
G01X175500Y-23900D02*
Y-26400D01*
G01X174887Y-23900D02*
X176113D01*
G01X177247Y-26400D02*
Y-23900D01*
G01Y-25108D02*
X177380Y-24900D01*
X177513Y-24775D01*
X177727Y-24733D01*
X177887Y-24775D01*
X178073Y-24942D01*
X178153Y-25192D01*
Y-26400D01*
G01X179500Y-25275D02*
X180353D01*
X180273Y-24983D01*
X180140Y-24817D01*
X179953Y-24733D01*
X179767Y-24775D01*
X179607Y-24900D01*
X179500Y-25192D01*
X179447Y-25442D01*
Y-25692D01*
X179500Y-25942D01*
X179633Y-26192D01*
X179793Y-26358D01*
X179980Y-26400D01*
X180167Y-26317D01*
X180353Y-26067D01*
G01X181700Y-26108D02*
X181833Y-26275D01*
X182020Y-26400D01*
X182180D01*
X182340Y-26317D01*
X182447Y-26192D01*
X182500Y-26025D01*
X182473Y-25775D01*
X182367Y-25650D01*
X181887Y-25400D01*
X181780Y-25108D01*
X181833Y-24900D01*
X181940Y-24775D01*
X182100Y-24733D01*
X182260Y-24775D01*
X182420Y-24900D01*
G01X183900Y-25275D02*
X184753D01*
X184673Y-24983D01*
X184540Y-24817D01*
X184353Y-24733D01*
X184167Y-24775D01*
X184007Y-24900D01*
X183900Y-25192D01*
X183847Y-25442D01*
Y-25692D01*
X183900Y-25942D01*
X184033Y-26192D01*
X184193Y-26358D01*
X184380Y-26400D01*
X184567Y-26317D01*
X184753Y-26067D01*
G01X188193Y-24317D02*
X188353Y-24067D01*
X188540Y-23942D01*
X188753Y-23900D01*
X189020Y-23983D01*
X189207Y-24192D01*
X189260Y-24442D01*
X189233Y-24692D01*
X189127Y-24900D01*
X188593Y-25317D01*
X188353Y-25608D01*
X188193Y-26025D01*
X188140Y-26400D01*
X189260D01*
G01X193580Y-23900D02*
Y-26400D01*
G01Y-26025D02*
X193473Y-26233D01*
X193313Y-26358D01*
X193127Y-26400D01*
X192913Y-26317D01*
X192753Y-26108D01*
X192647Y-25858D01*
X192620Y-25567D01*
X192647Y-25275D01*
X192753Y-25025D01*
X192913Y-24817D01*
X193127Y-24733D01*
X193313Y-24775D01*
X193447Y-24858D01*
X193580Y-25025D01*
G01X194900Y-25275D02*
X195753D01*
X195673Y-24983D01*
X195540Y-24817D01*
X195353Y-24733D01*
X195167Y-24775D01*
X195007Y-24900D01*
X194900Y-25192D01*
X194847Y-25442D01*
Y-25692D01*
X194900Y-25942D01*
X195033Y-26192D01*
X195193Y-26358D01*
X195380Y-26400D01*
X195567Y-26317D01*
X195753Y-26067D01*
G01X196700Y-26400D02*
Y-24733D01*
G01Y-25192D02*
X196780Y-24983D01*
X196913Y-24817D01*
X197100Y-24733D01*
X197287Y-24817D01*
X197420Y-24983D01*
X197500Y-25192D01*
Y-26400D01*
G01Y-25192D02*
X197580Y-24983D01*
X197713Y-24817D01*
X197900Y-24733D01*
X198087Y-24817D01*
X198220Y-24983D01*
X198300Y-25233D01*
Y-26400D01*
G01X199700Y-24733D02*
Y-26400D01*
G01Y-24067D02*
X199647Y-24025D01*
Y-23942D01*
X199700Y-23900D01*
X199753Y-23942D01*
Y-24025D01*
X199700Y-24067D01*
G01X201500Y-26108D02*
X201633Y-26275D01*
X201820Y-26400D01*
X201980D01*
X202140Y-26317D01*
X202247Y-26192D01*
X202300Y-26025D01*
X202273Y-25775D01*
X202167Y-25650D01*
X201687Y-25400D01*
X201580Y-25108D01*
X201633Y-24900D01*
X201740Y-24775D01*
X201900Y-24733D01*
X202060Y-24775D01*
X202220Y-24900D01*
G01X203700Y-26108D02*
X203833Y-26275D01*
X204020Y-26400D01*
X204180D01*
X204340Y-26317D01*
X204447Y-26192D01*
X204500Y-26025D01*
X204473Y-25775D01*
X204367Y-25650D01*
X203887Y-25400D01*
X203780Y-25108D01*
X203833Y-24900D01*
X203940Y-24775D01*
X204100Y-24733D01*
X204260Y-24775D01*
X204420Y-24900D01*
G01X206300Y-24733D02*
Y-26400D01*
G01Y-24067D02*
X206247Y-24025D01*
Y-23942D01*
X206300Y-23900D01*
X206353Y-23942D01*
Y-24025D01*
X206300Y-24067D01*
G01X208500Y-26400D02*
X208340Y-26358D01*
X208180Y-26192D01*
X208073Y-25900D01*
X208020Y-25567D01*
X208073Y-25233D01*
X208180Y-24942D01*
X208340Y-24775D01*
X208500Y-24733D01*
X208660Y-24775D01*
X208820Y-24942D01*
X208927Y-25233D01*
X208953Y-25567D01*
X208927Y-25900D01*
X208820Y-26192D01*
X208660Y-26358D01*
X208500Y-26400D01*
G01X210247D02*
Y-24733D01*
G01Y-25150D02*
X210353Y-24942D01*
X210513Y-24775D01*
X210727Y-24733D01*
X210913Y-24775D01*
X211073Y-24942D01*
X211153Y-25233D01*
Y-26400D01*
G01X215580D02*
Y-24733D01*
G01Y-25025D02*
X215473Y-24858D01*
X215313Y-24775D01*
X215127Y-24733D01*
X214940Y-24817D01*
X214780Y-24983D01*
X214673Y-25233D01*
X214620Y-25567D01*
X214673Y-25900D01*
X214780Y-26150D01*
X214940Y-26317D01*
X215127Y-26400D01*
X215313Y-26358D01*
X215473Y-26233D01*
X215580Y-26067D01*
G01X216900Y-25275D02*
X217753D01*
X217673Y-24983D01*
X217540Y-24817D01*
X217353Y-24733D01*
X217167Y-24775D01*
X217007Y-24900D01*
X216900Y-25192D01*
X216847Y-25442D01*
Y-25692D01*
X216900Y-25942D01*
X217033Y-26192D01*
X217193Y-26358D01*
X217380Y-26400D01*
X217567Y-26317D01*
X217753Y-26067D01*
G01X219127Y-26400D02*
Y-24733D01*
G01Y-25067D02*
X219260Y-24900D01*
X219393Y-24775D01*
X219580Y-24733D01*
X219713Y-24775D01*
X219873Y-24900D01*
G01X222180Y-26400D02*
Y-24733D01*
G01Y-25025D02*
X222073Y-24858D01*
X221913Y-24775D01*
X221727Y-24733D01*
X221540Y-24817D01*
X221380Y-24983D01*
X221273Y-25233D01*
X221220Y-25567D01*
X221273Y-25900D01*
X221380Y-26150D01*
X221540Y-26317D01*
X221727Y-26400D01*
X221913Y-26358D01*
X222073Y-26233D01*
X222180Y-26067D01*
G01X223500Y-26108D02*
X223633Y-26275D01*
X223820Y-26400D01*
X223980D01*
X224140Y-26317D01*
X224247Y-26192D01*
X224300Y-26025D01*
X224273Y-25775D01*
X224167Y-25650D01*
X223687Y-25400D01*
X223580Y-25108D01*
X223633Y-24900D01*
X223740Y-24775D01*
X223900Y-24733D01*
X224060Y-24775D01*
X224220Y-24900D01*
G01X228780Y-26400D02*
Y-24733D01*
G01Y-25025D02*
X228673Y-24858D01*
X228513Y-24775D01*
X228327Y-24733D01*
X228140Y-24817D01*
X227980Y-24983D01*
X227873Y-25233D01*
X227820Y-25567D01*
X227873Y-25900D01*
X227980Y-26150D01*
X228140Y-26317D01*
X228327Y-26400D01*
X228513Y-26358D01*
X228673Y-26233D01*
X228780Y-26067D01*
G01X230127Y-26400D02*
Y-24733D01*
G01Y-25067D02*
X230260Y-24900D01*
X230393Y-24775D01*
X230580Y-24733D01*
X230713Y-24775D01*
X230873Y-24900D01*
G01X232300Y-25275D02*
X233153D01*
X233073Y-24983D01*
X232940Y-24817D01*
X232753Y-24733D01*
X232567Y-24775D01*
X232407Y-24900D01*
X232300Y-25192D01*
X232247Y-25442D01*
Y-25692D01*
X232300Y-25942D01*
X232433Y-26192D01*
X232593Y-26358D01*
X232780Y-26400D01*
X232967Y-26317D01*
X233153Y-26067D01*
G01X236647Y-26400D02*
Y-23900D01*
G01Y-25108D02*
X236780Y-24900D01*
X236913Y-24775D01*
X237127Y-24733D01*
X237287Y-24775D01*
X237473Y-24942D01*
X237553Y-25192D01*
Y-26400D01*
G01X239780D02*
Y-24733D01*
G01Y-25025D02*
X239673Y-24858D01*
X239513Y-24775D01*
X239327Y-24733D01*
X239140Y-24817D01*
X238980Y-24983D01*
X238873Y-25233D01*
X238820Y-25567D01*
X238873Y-25900D01*
X238980Y-26150D01*
X239140Y-26317D01*
X239327Y-26400D01*
X239513Y-26358D01*
X239673Y-26233D01*
X239780Y-26067D01*
G01X241127Y-26400D02*
Y-24733D01*
G01Y-25067D02*
X241260Y-24900D01*
X241393Y-24775D01*
X241580Y-24733D01*
X241713Y-24775D01*
X241873Y-24900D01*
G01X244180Y-23900D02*
Y-26400D01*
G01Y-26025D02*
X244073Y-26233D01*
X243913Y-26358D01*
X243727Y-26400D01*
X243513Y-26317D01*
X243353Y-26108D01*
X243247Y-25858D01*
X243220Y-25567D01*
X243247Y-25275D01*
X243353Y-25025D01*
X243513Y-24817D01*
X243727Y-24733D01*
X243913Y-24775D01*
X244047Y-24858D01*
X244180Y-25025D01*
G01X247620Y-26400D02*
Y-23900D01*
G01Y-25150D02*
X247753Y-24900D01*
X247913Y-24775D01*
X248073Y-24733D01*
X248313Y-24817D01*
X248473Y-24983D01*
X248580Y-25275D01*
Y-25608D01*
X248527Y-25942D01*
X248420Y-26192D01*
X248233Y-26358D01*
X248073Y-26400D01*
X247913Y-26358D01*
X247753Y-26233D01*
X247620Y-26025D01*
G01X250300Y-26400D02*
X250140Y-26358D01*
X249980Y-26192D01*
X249873Y-25900D01*
X249820Y-25567D01*
X249873Y-25233D01*
X249980Y-24942D01*
X250140Y-24775D01*
X250300Y-24733D01*
X250460Y-24775D01*
X250620Y-24942D01*
X250727Y-25233D01*
X250753Y-25567D01*
X250727Y-25900D01*
X250620Y-26192D01*
X250460Y-26358D01*
X250300Y-26400D01*
G01X252980D02*
Y-24733D01*
G01Y-25025D02*
X252873Y-24858D01*
X252713Y-24775D01*
X252527Y-24733D01*
X252340Y-24817D01*
X252180Y-24983D01*
X252073Y-25233D01*
X252020Y-25567D01*
X252073Y-25900D01*
X252180Y-26150D01*
X252340Y-26317D01*
X252527Y-26400D01*
X252713Y-26358D01*
X252873Y-26233D01*
X252980Y-26067D01*
G01X254327Y-26400D02*
Y-24733D01*
G01Y-25067D02*
X254460Y-24900D01*
X254593Y-24775D01*
X254780Y-24733D01*
X254913Y-24775D01*
X255073Y-24900D01*
G01X257380Y-23900D02*
Y-26400D01*
G01Y-26025D02*
X257273Y-26233D01*
X257113Y-26358D01*
X256927Y-26400D01*
X256713Y-26317D01*
X256553Y-26108D01*
X256447Y-25858D01*
X256420Y-25567D01*
X256447Y-25275D01*
X256553Y-25025D01*
X256713Y-24817D01*
X256927Y-24733D01*
X257113Y-24775D01*
X257247Y-24858D01*
X257380Y-25025D01*
G01X185500Y30400D02*
Y27900D01*
G01X184887Y30400D02*
X186113D01*
G01X187247Y27900D02*
Y30400D01*
G01Y29192D02*
X187380Y29400D01*
X187513Y29525D01*
X187727Y29567D01*
X187887Y29525D01*
X188073Y29358D01*
X188153Y29108D01*
Y27900D01*
G01X189900Y29567D02*
Y27900D01*
G01Y30233D02*
X189847Y30275D01*
Y30358D01*
X189900Y30400D01*
X189953Y30358D01*
Y30275D01*
X189900Y30233D01*
G01X191700Y28192D02*
X191833Y28025D01*
X192020Y27900D01*
X192180D01*
X192340Y27983D01*
X192447Y28108D01*
X192500Y28275D01*
X192473Y28525D01*
X192367Y28650D01*
X191887Y28900D01*
X191780Y29192D01*
X191833Y29400D01*
X191940Y29525D01*
X192100Y29567D01*
X192260Y29525D01*
X192420Y29400D01*
G01X196980Y30400D02*
Y27900D01*
G01Y28275D02*
X196873Y28067D01*
X196713Y27942D01*
X196527Y27900D01*
X196313Y27983D01*
X196153Y28192D01*
X196047Y28442D01*
X196020Y28733D01*
X196047Y29025D01*
X196153Y29275D01*
X196313Y29483D01*
X196527Y29567D01*
X196713Y29525D01*
X196847Y29442D01*
X196980Y29275D01*
G01X198300Y29025D02*
X199153D01*
X199073Y29317D01*
X198940Y29483D01*
X198753Y29567D01*
X198567Y29525D01*
X198407Y29400D01*
X198300Y29108D01*
X198247Y28858D01*
Y28608D01*
X198300Y28358D01*
X198433Y28108D01*
X198593Y27942D01*
X198780Y27900D01*
X198967Y27983D01*
X199153Y28233D01*
G01X200100Y27900D02*
Y29567D01*
G01Y29108D02*
X200180Y29317D01*
X200313Y29483D01*
X200500Y29567D01*
X200687Y29483D01*
X200820Y29317D01*
X200900Y29108D01*
Y27900D01*
G01Y29108D02*
X200980Y29317D01*
X201113Y29483D01*
X201300Y29567D01*
X201487Y29483D01*
X201620Y29317D01*
X201700Y29067D01*
Y27900D01*
G01X202700Y29025D02*
X203553D01*
X203473Y29317D01*
X203340Y29483D01*
X203153Y29567D01*
X202967Y29525D01*
X202807Y29400D01*
X202700Y29108D01*
X202647Y28858D01*
Y28608D01*
X202700Y28358D01*
X202833Y28108D01*
X202993Y27942D01*
X203180Y27900D01*
X203367Y27983D01*
X203553Y28233D01*
G01X204847Y27900D02*
Y29567D01*
G01Y29150D02*
X204953Y29358D01*
X205113Y29525D01*
X205327Y29567D01*
X205513Y29525D01*
X205673Y29358D01*
X205753Y29067D01*
Y27900D01*
G01X207980Y30400D02*
Y27900D01*
G01Y28275D02*
X207873Y28067D01*
X207713Y27942D01*
X207527Y27900D01*
X207313Y27983D01*
X207153Y28192D01*
X207047Y28442D01*
X207020Y28733D01*
X207047Y29025D01*
X207153Y29275D01*
X207313Y29483D01*
X207527Y29567D01*
X207713Y29525D01*
X207847Y29442D01*
X207980Y29275D01*
G01X209700Y29567D02*
Y27900D01*
G01Y30233D02*
X209647Y30275D01*
Y30358D01*
X209700Y30400D01*
X209753Y30358D01*
Y30275D01*
X209700Y30233D01*
G01X211900Y27900D02*
X211740Y27942D01*
X211580Y28108D01*
X211473Y28400D01*
X211420Y28733D01*
X211473Y29067D01*
X211580Y29358D01*
X211740Y29525D01*
X211900Y29567D01*
X212060Y29525D01*
X212220Y29358D01*
X212327Y29067D01*
X212353Y28733D01*
X212327Y28400D01*
X212220Y28108D01*
X212060Y27942D01*
X211900Y27900D01*
G01X213647D02*
Y29567D01*
G01Y29150D02*
X213753Y29358D01*
X213913Y29525D01*
X214127Y29567D01*
X214313Y29525D01*
X214473Y29358D01*
X214553Y29067D01*
Y27900D01*
G01X218980D02*
Y29567D01*
G01Y29275D02*
X218873Y29442D01*
X218713Y29525D01*
X218527Y29567D01*
X218340Y29483D01*
X218180Y29317D01*
X218073Y29067D01*
X218020Y28733D01*
X218073Y28400D01*
X218180Y28150D01*
X218340Y27983D01*
X218527Y27900D01*
X218713Y27942D01*
X218873Y28067D01*
X218980Y28233D01*
G01X220300Y29025D02*
X221153D01*
X221073Y29317D01*
X220940Y29483D01*
X220753Y29567D01*
X220567Y29525D01*
X220407Y29400D01*
X220300Y29108D01*
X220247Y28858D01*
Y28608D01*
X220300Y28358D01*
X220433Y28108D01*
X220593Y27942D01*
X220780Y27900D01*
X220967Y27983D01*
X221153Y28233D01*
G01X222527Y27900D02*
Y29567D01*
G01Y29233D02*
X222660Y29400D01*
X222793Y29525D01*
X222980Y29567D01*
X223113Y29525D01*
X223273Y29400D01*
G01X225580Y27900D02*
Y29567D01*
G01Y29275D02*
X225473Y29442D01*
X225313Y29525D01*
X225127Y29567D01*
X224940Y29483D01*
X224780Y29317D01*
X224673Y29067D01*
X224620Y28733D01*
X224673Y28400D01*
X224780Y28150D01*
X224940Y27983D01*
X225127Y27900D01*
X225313Y27942D01*
X225473Y28067D01*
X225580Y28233D01*
G01X229500Y29567D02*
Y27900D01*
G01Y30233D02*
X229447Y30275D01*
Y30358D01*
X229500Y30400D01*
X229553Y30358D01*
Y30275D01*
X229500Y30233D01*
G01X231300Y28192D02*
X231433Y28025D01*
X231620Y27900D01*
X231780D01*
X231940Y27983D01*
X232047Y28108D01*
X232100Y28275D01*
X232073Y28525D01*
X231967Y28650D01*
X231487Y28900D01*
X231380Y29192D01*
X231433Y29400D01*
X231540Y29525D01*
X231700Y29567D01*
X231860Y29525D01*
X232020Y29400D01*
G01X235700Y28192D02*
X235833Y28025D01*
X236020Y27900D01*
X236180D01*
X236340Y27983D01*
X236447Y28108D01*
X236500Y28275D01*
X236473Y28525D01*
X236367Y28650D01*
X235887Y28900D01*
X235780Y29192D01*
X235833Y29400D01*
X235940Y29525D01*
X236100Y29567D01*
X236260Y29525D01*
X236420Y29400D01*
G01X238300Y27900D02*
X238140Y27942D01*
X237980Y28108D01*
X237873Y28400D01*
X237820Y28733D01*
X237873Y29067D01*
X237980Y29358D01*
X238140Y29525D01*
X238300Y29567D01*
X238460Y29525D01*
X238620Y29358D01*
X238727Y29067D01*
X238753Y28733D01*
X238727Y28400D01*
X238620Y28108D01*
X238460Y27942D01*
X238300Y27900D01*
G01X240340D02*
Y30025D01*
X240393Y30233D01*
X240500Y30358D01*
X240660Y30400D01*
X240820Y30317D01*
X240900Y30108D01*
G01X240580Y29400D02*
X240047D01*
G01X242700Y30400D02*
Y27900D01*
G01X242327Y29567D02*
X243073D01*
G01X246620Y27900D02*
Y30400D01*
G01Y29150D02*
X246753Y29400D01*
X246913Y29525D01*
X247073Y29567D01*
X247313Y29483D01*
X247473Y29317D01*
X247580Y29025D01*
Y28692D01*
X247527Y28358D01*
X247420Y28108D01*
X247233Y27942D01*
X247073Y27900D01*
X246913Y27942D01*
X246753Y28067D01*
X246620Y28275D01*
G01X249300Y27900D02*
X249140Y27942D01*
X248980Y28108D01*
X248873Y28400D01*
X248820Y28733D01*
X248873Y29067D01*
X248980Y29358D01*
X249140Y29525D01*
X249300Y29567D01*
X249460Y29525D01*
X249620Y29358D01*
X249727Y29067D01*
X249753Y28733D01*
X249727Y28400D01*
X249620Y28108D01*
X249460Y27942D01*
X249300Y27900D01*
G01X251980D02*
Y29567D01*
G01Y29275D02*
X251873Y29442D01*
X251713Y29525D01*
X251527Y29567D01*
X251340Y29483D01*
X251180Y29317D01*
X251073Y29067D01*
X251020Y28733D01*
X251073Y28400D01*
X251180Y28150D01*
X251340Y27983D01*
X251527Y27900D01*
X251713Y27942D01*
X251873Y28067D01*
X251980Y28233D01*
G01X253327Y27900D02*
Y29567D01*
G01Y29233D02*
X253460Y29400D01*
X253593Y29525D01*
X253780Y29567D01*
X253913Y29525D01*
X254073Y29400D01*
G01X256380Y30400D02*
Y27900D01*
G01Y28275D02*
X256273Y28067D01*
X256113Y27942D01*
X255927Y27900D01*
X255713Y27983D01*
X255553Y28192D01*
X255447Y28442D01*
X255420Y28733D01*
X255447Y29025D01*
X255553Y29275D01*
X255713Y29483D01*
X255927Y29567D01*
X256113Y29525D01*
X256247Y29442D01*
X256380Y29275D01*
G01X308940Y49433D02*
X309153Y49225D01*
X309393Y49100D01*
X309607D01*
X309820Y49225D01*
X309980Y49433D01*
X310060Y49725D01*
X310007Y50017D01*
X309873Y50267D01*
X309633Y50433D01*
X309313Y50517D01*
X309127Y50683D01*
X309047Y50975D01*
X309100Y51267D01*
X309233Y51475D01*
X309420Y51600D01*
X309607D01*
X309793Y51517D01*
X309953Y51308D01*
G01X311380Y51600D02*
X312020D01*
G01X311700D02*
Y49100D01*
G01X311380D02*
X312020D01*
G01X314060Y50350D02*
X314593D01*
Y49600D01*
X314433Y49350D01*
X314247Y49183D01*
X313980Y49100D01*
X313713Y49183D01*
X313527Y49350D01*
X313367Y49600D01*
X313260Y49892D01*
X313207Y50225D01*
Y50517D01*
X313260Y50767D01*
X313367Y51058D01*
X313527Y51308D01*
X313687Y51475D01*
X313900Y51600D01*
X314087D01*
X314300Y51517D01*
X314460Y51350D01*
G01X316100Y49100D02*
Y51600D01*
X315780Y51100D01*
G01Y49100D02*
X316420D01*
G01X320980Y51600D02*
Y49100D01*
G01Y49475D02*
X320873Y49267D01*
X320713Y49142D01*
X320527Y49100D01*
X320313Y49183D01*
X320153Y49392D01*
X320047Y49642D01*
X320020Y49933D01*
X320047Y50225D01*
X320153Y50475D01*
X320313Y50683D01*
X320527Y50767D01*
X320713Y50725D01*
X320847Y50642D01*
X320980Y50475D01*
G01X322700Y50767D02*
Y49100D01*
G01Y51433D02*
X322647Y51475D01*
Y51558D01*
X322700Y51600D01*
X322753Y51558D01*
Y51475D01*
X322700Y51433D01*
G01X324740Y49100D02*
Y51225D01*
X324793Y51433D01*
X324900Y51558D01*
X325060Y51600D01*
X325220Y51517D01*
X325300Y51308D01*
G01X324980Y50600D02*
X324447D01*
G01X326940Y49100D02*
Y51225D01*
X326993Y51433D01*
X327100Y51558D01*
X327260Y51600D01*
X327420Y51517D01*
X327500Y51308D01*
G01X327180Y50600D02*
X326647D01*
G01X328900Y50225D02*
X329753D01*
X329673Y50517D01*
X329540Y50683D01*
X329353Y50767D01*
X329167Y50725D01*
X329007Y50600D01*
X328900Y50308D01*
X328847Y50058D01*
Y49808D01*
X328900Y49558D01*
X329033Y49308D01*
X329193Y49142D01*
X329380Y49100D01*
X329567Y49183D01*
X329753Y49433D01*
G01X331127Y49100D02*
Y50767D01*
G01Y50433D02*
X331260Y50600D01*
X331393Y50725D01*
X331580Y50767D01*
X331713Y50725D01*
X331873Y50600D01*
G01X333300Y50225D02*
X334153D01*
X334073Y50517D01*
X333940Y50683D01*
X333753Y50767D01*
X333567Y50725D01*
X333407Y50600D01*
X333300Y50308D01*
X333247Y50058D01*
Y49808D01*
X333300Y49558D01*
X333433Y49308D01*
X333593Y49142D01*
X333780Y49100D01*
X333967Y49183D01*
X334153Y49433D01*
G01X335447Y49100D02*
Y50767D01*
G01Y50350D02*
X335553Y50558D01*
X335713Y50725D01*
X335927Y50767D01*
X336113Y50725D01*
X336273Y50558D01*
X336353Y50267D01*
Y49100D01*
G01X338100Y51600D02*
Y49100D01*
G01X337727Y50767D02*
X338473D01*
G01X340300D02*
Y49100D01*
G01Y51433D02*
X340247Y51475D01*
Y51558D01*
X340300Y51600D01*
X340353Y51558D01*
Y51475D01*
X340300Y51433D01*
G01X342980Y49100D02*
Y50767D01*
G01Y50475D02*
X342873Y50642D01*
X342713Y50725D01*
X342527Y50767D01*
X342340Y50683D01*
X342180Y50517D01*
X342073Y50267D01*
X342020Y49933D01*
X342073Y49600D01*
X342180Y49350D01*
X342340Y49183D01*
X342527Y49100D01*
X342713Y49142D01*
X342873Y49267D01*
X342980Y49433D01*
G01X344700Y49100D02*
Y51600D01*
G01X348620Y48267D02*
Y50767D01*
G01Y50392D02*
X348753Y50600D01*
X348887Y50725D01*
X349100Y50767D01*
X349287Y50725D01*
X349473Y50517D01*
X349553Y50225D01*
X349580Y49933D01*
X349553Y49642D01*
X349473Y49350D01*
X349313Y49183D01*
X349100Y49100D01*
X348913Y49142D01*
X348727Y49267D01*
X348620Y49433D01*
G01X351780Y49100D02*
Y50767D01*
G01Y50475D02*
X351673Y50642D01*
X351513Y50725D01*
X351327Y50767D01*
X351140Y50683D01*
X350980Y50517D01*
X350873Y50267D01*
X350820Y49933D01*
X350873Y49600D01*
X350980Y49350D01*
X351140Y49183D01*
X351327Y49100D01*
X351513Y49142D01*
X351673Y49267D01*
X351780Y49433D01*
G01X353500Y50767D02*
Y49100D01*
G01Y51433D02*
X353447Y51475D01*
Y51558D01*
X353500Y51600D01*
X353553Y51558D01*
Y51475D01*
X353500Y51433D01*
G01X355327Y49100D02*
Y50767D01*
G01Y50433D02*
X355460Y50600D01*
X355593Y50725D01*
X355780Y50767D01*
X355913Y50725D01*
X356073Y50600D01*
G01X357500Y49392D02*
X357633Y49225D01*
X357820Y49100D01*
X357980D01*
X358140Y49183D01*
X358247Y49308D01*
X358300Y49475D01*
X358273Y49725D01*
X358167Y49850D01*
X357687Y50100D01*
X357580Y50392D01*
X357633Y50600D01*
X357740Y50725D01*
X357900Y50767D01*
X358060Y50725D01*
X358220Y50600D01*
G54D15*
G01X-54345Y148858D02*
X-53260Y150317D01*
X-52330Y151150D01*
X-51090Y151566D01*
X-50005Y151150D01*
X-49230Y150317D01*
X-48610Y149067D01*
X-48455Y147608D01*
X-48610Y146358D01*
X-49230Y145108D01*
X-50160Y144067D01*
X-51245Y143650D01*
X-52485Y144067D01*
X-53570Y145316D01*
X-54190Y147192D01*
X-54345Y149275D01*
X-54035Y151983D01*
X-53570Y153442D01*
X-52795Y154900D01*
X-51710Y155942D01*
X-50625Y156150D01*
X-49540Y155733D01*
X-48765Y154692D01*
G01X-42410Y146150D02*
X-41480Y144691D01*
X-40240Y143858D01*
X-38845Y143650D01*
X-37605Y143858D01*
X-36365Y144900D01*
X-35590Y146150D01*
X-35435Y147400D01*
X-35745Y148858D01*
X-36830Y149900D01*
X-37915Y150317D01*
X-39310D01*
G01X-37915D02*
X-36985Y150942D01*
X-36210Y151983D01*
X-35900Y153233D01*
X-36210Y154483D01*
X-36985Y155525D01*
X-38380Y156150D01*
X-39775Y155942D01*
X-41170Y155108D01*
G01X-26600Y143233D02*
X-26910Y143442D01*
Y143858D01*
X-26600Y144067D01*
X-26290Y143858D01*
Y143442D01*
X-26600Y143233D01*
G01X-17610Y145525D02*
X-16680Y144483D01*
X-15595Y143858D01*
X-14200Y143650D01*
X-12805Y144067D01*
X-11720Y144900D01*
X-10945Y146358D01*
X-10790Y148025D01*
X-11100Y149692D01*
X-11875Y150733D01*
X-12960Y151566D01*
X-14045Y151775D01*
X-15130Y151566D01*
X-16525Y150733D01*
X-16060Y156150D01*
X-11875D01*
G01X-44700Y280850D02*
Y293350D01*
X-46560Y290850D01*
G01Y280850D02*
X-42840D01*
G01X-35710Y283350D02*
X-34780Y281891D01*
X-33540Y281058D01*
X-32145Y280850D01*
X-30905Y281058D01*
X-29665Y282100D01*
X-28890Y283350D01*
X-28735Y284600D01*
X-29045Y286058D01*
X-30130Y287100D01*
X-31215Y287517D01*
X-32610D01*
G01X-31215D02*
X-30285Y288142D01*
X-29510Y289183D01*
X-29200Y290433D01*
X-29510Y291683D01*
X-30285Y292725D01*
X-31680Y293350D01*
X-33075Y293142D01*
X-34470Y292308D01*
G01X-19900Y280433D02*
X-20210Y280642D01*
Y281058D01*
X-19900Y281267D01*
X-19590Y281058D01*
Y280642D01*
X-19900Y280433D01*
G01X-7500Y280850D02*
Y293350D01*
X-9360Y290850D01*
G01Y280850D02*
X-5640D01*
G01X4900D02*
Y293350D01*
X3040Y290850D01*
G01Y280850D02*
X6760D01*
G01X0Y10000D02*
X-42800D01*
G01X-32800Y134275D02*
Y10000D01*
G01X-35300Y25000D02*
X-32800Y10000D01*
X-30300Y25000D01*
X-35300D01*
G01X-32800Y165525D02*
Y260000D01*
G01X-30300Y245000D02*
X-32800Y260000D01*
X-35300Y245000D01*
X-30300D01*
G01X0Y260000D02*
X-42800D01*
G01X-5100Y5900D02*
Y269700D01*
X61600D01*
Y5900D01*
X-5100D01*
G01X10000Y10000D02*
X61600D01*
Y48000D01*
X93600Y80000D01*
X442000D01*
Y50000D01*
X490000D01*
Y220000D01*
X442000D01*
Y198000D01*
X93600D01*
X61600Y230000D01*
Y260000D01*
X10000D01*
Y10000D01*
G01Y270000D02*
Y297100D01*
G01X18925Y287100D02*
X10000D01*
G01X25000Y289600D02*
X10000Y287100D01*
X25000Y284600D01*
Y289600D01*
G01X10000Y287100D02*
X61600D01*
G01X66762Y18838D02*
X51600Y20000D01*
X65566Y13984D01*
X66762Y18838D01*
G01X51600Y20000D02*
X205000Y-17800D01*
G01X46600Y284600D02*
X61600Y287100D01*
X46600Y289600D01*
Y284600D01*
G01X59500Y67600D02*
Y232800D01*
X444600D01*
Y67600D01*
X59500D01*
G01X61600Y270000D02*
Y297100D01*
G01X93600Y208000D02*
Y258700D01*
G01X231475Y248700D02*
X93600D01*
G01X108600Y251200D02*
X93600Y248700D01*
X108600Y246200D01*
Y251200D01*
G01X455000Y44500D02*
X219800Y-20000D01*
G01X212100Y87700D02*
X209200Y33900D01*
G01X213789Y72587D02*
X212100Y87700D01*
X208796Y72856D01*
X213789Y72587D01*
G01X245500Y242450D02*
X246585Y242658D01*
X247825Y243283D01*
X248600Y244325D01*
X248910Y245783D01*
X248600Y247241D01*
X247670Y248492D01*
X246275Y249117D01*
X244725D01*
X243795Y249533D01*
X243020Y250575D01*
X242710Y252033D01*
X243175Y253492D01*
X244260Y254533D01*
X245500Y254950D01*
X246740Y254533D01*
X247825Y253492D01*
X248290Y252033D01*
X247980Y250575D01*
X247205Y249533D01*
X246275Y249117D01*
X244725D01*
X243330Y248492D01*
X242400Y247241D01*
X242090Y245783D01*
X242400Y244325D01*
X243175Y243283D01*
X244415Y242658D01*
X245500Y242450D01*
G01X257900D02*
X258985Y242658D01*
X260225Y243283D01*
X261000Y244325D01*
X261310Y245783D01*
X261000Y247241D01*
X260070Y248492D01*
X258675Y249117D01*
X257125D01*
X256195Y249533D01*
X255420Y250575D01*
X255110Y252033D01*
X255575Y253492D01*
X256660Y254533D01*
X257900Y254950D01*
X259140Y254533D01*
X260225Y253492D01*
X260690Y252033D01*
X260380Y250575D01*
X259605Y249533D01*
X258675Y249117D01*
X257125D01*
X255730Y248492D01*
X254800Y247241D01*
X254490Y245783D01*
X254800Y244325D01*
X255575Y243283D01*
X256815Y242658D01*
X257900Y242450D01*
G01X270300Y242033D02*
X269990Y242242D01*
Y242658D01*
X270300Y242867D01*
X270610Y242658D01*
Y242242D01*
X270300Y242033D01*
G01X284560Y242450D02*
Y254950D01*
X278825Y245992D01*
X286575D01*
G01X292465Y243908D02*
X293550Y242867D01*
X294790Y242450D01*
X296030Y242867D01*
X297115Y244116D01*
X297890Y245992D01*
X298200Y247867D01*
Y250158D01*
X297890Y252033D01*
X297115Y253700D01*
X296185Y254533D01*
X295100Y254950D01*
X293860Y254533D01*
X292930Y253700D01*
X292310Y252450D01*
X292000Y250783D01*
X292310Y249325D01*
X293085Y247867D01*
X294015Y247033D01*
X295100Y246825D01*
X296340Y247241D01*
X297270Y248283D01*
X298200Y250158D01*
G01X314206Y100307D02*
X309600Y114800D01*
X309257Y99597D01*
X314206Y100307D01*
G01X309125Y248700D02*
X442000D01*
G01X309600Y114800D02*
X318400Y53500D01*
G01X316700Y116000D02*
X319800Y53500D01*
G01X331000Y120900D02*
X324700Y54500D01*
G01X338200Y122100D02*
X325600Y54600D01*
G01X319940Y101142D02*
X316700Y116000D01*
X314946Y100895D01*
X319940Y101142D01*
G01X370600Y130300D02*
X330700Y54500D01*
G01X383600Y131800D02*
X331100Y54400D01*
G01X399500Y138300D02*
X335900Y54300D01*
G01X407700Y139400D02*
X337400Y54300D01*
G01X332072Y105731D02*
X331000Y120900D01*
X327094Y106203D01*
X332072Y105731D01*
G01X337905Y106896D02*
X338200Y122100D01*
X332990Y107814D01*
X337905Y106896D01*
G01X365825Y115862D02*
X370600Y130300D01*
X361401Y118191D01*
X365825Y115862D01*
G01X377249Y117983D02*
X383600Y131800D01*
X373111Y120790D01*
X377249Y117983D01*
G01X392439Y124832D02*
X399500Y138300D01*
X388452Y127850D01*
X392439Y124832D01*
G01X400074Y126243D02*
X407700Y139400D01*
X396219Y129428D01*
X400074Y126243D01*
G01X427000Y246200D02*
X442000Y248700D01*
X427000Y251200D01*
Y246200D01*
G01X441195Y38122D02*
X455000Y44500D01*
X439873Y42944D01*
X441195Y38122D01*
G01X442000Y40800D02*
Y226600D01*
X498800D01*
Y40800D01*
X442000D01*
G01Y208000D02*
Y258700D01*
G01Y230000D02*
Y275200D01*
G01X490000Y265200D02*
X442000D01*
G01X457000Y267700D02*
X442000Y265200D01*
X457000Y262700D01*
Y267700D01*
G01X475000Y262700D02*
X490000Y265200D01*
X475000Y267700D01*
Y262700D01*
G01X490000Y230000D02*
Y275200D01*
G01X494600Y258950D02*
Y271450D01*
X492740Y268950D01*
G01Y258950D02*
X496460D01*
G01X504055Y269367D02*
X504985Y270616D01*
X506070Y271242D01*
X507310Y271450D01*
X508860Y271033D01*
X509945Y269992D01*
X510255Y268742D01*
X510100Y267491D01*
X509480Y266450D01*
X506380Y264367D01*
X504985Y262908D01*
X504055Y260825D01*
X503745Y258950D01*
X510255D01*
G01X519400Y258533D02*
X519090Y258742D01*
Y259158D01*
X519400Y259367D01*
X519710Y259158D01*
Y258742D01*
X519400Y258533D01*
G01X531800Y258950D02*
Y271450D01*
X529940Y268950D01*
G01Y258950D02*
X533660D01*
G01X541565Y260408D02*
X542650Y259367D01*
X543890Y258950D01*
X545130Y259367D01*
X546215Y260616D01*
X546990Y262492D01*
X547300Y264367D01*
Y266658D01*
X546990Y268533D01*
X546215Y270200D01*
X545285Y271033D01*
X544200Y271450D01*
X542960Y271033D01*
X542030Y270200D01*
X541410Y268950D01*
X541100Y267283D01*
X541410Y265825D01*
X542185Y264367D01*
X543115Y263533D01*
X544200Y263325D01*
X545440Y263741D01*
X546370Y264783D01*
X547300Y266658D01*
G01X480575Y265200D02*
X490000D01*
G01X500000Y50000D02*
X542700D01*
G01X509760Y132750D02*
Y145250D01*
X504025Y136292D01*
X511775D01*
G01X516890Y135250D02*
X517820Y133791D01*
X519060Y132958D01*
X520455Y132750D01*
X521695Y132958D01*
X522935Y134000D01*
X523710Y135250D01*
X523865Y136500D01*
X523555Y137958D01*
X522470Y139000D01*
X521385Y139417D01*
X519990D01*
G01X521385D02*
X522315Y140042D01*
X523090Y141083D01*
X523400Y142333D01*
X523090Y143583D01*
X522315Y144625D01*
X520920Y145250D01*
X519525Y145042D01*
X518130Y144208D01*
G01X532700Y132333D02*
X532390Y132542D01*
Y132958D01*
X532700Y133167D01*
X533010Y132958D01*
Y132542D01*
X532700Y132333D01*
G01X545100Y132750D02*
Y145250D01*
X543240Y142750D01*
G01Y132750D02*
X546960D01*
G01X557500D02*
X558585Y132958D01*
X559825Y133583D01*
X560600Y134625D01*
X560910Y136083D01*
X560600Y137541D01*
X559670Y138792D01*
X558275Y139417D01*
X556725D01*
X555795Y139833D01*
X555020Y140875D01*
X554710Y142333D01*
X555175Y143792D01*
X556260Y144833D01*
X557500Y145250D01*
X558740Y144833D01*
X559825Y143792D01*
X560290Y142333D01*
X559980Y140875D01*
X559205Y139833D01*
X558275Y139417D01*
X556725D01*
X555330Y138792D01*
X554400Y137541D01*
X554090Y136083D01*
X554400Y134625D01*
X555175Y133583D01*
X556415Y132958D01*
X557500Y132750D01*
G01X500000Y220000D02*
X542700D01*
G01X530200Y65000D02*
X532700Y50000D01*
X535200Y65000D01*
X530200D01*
G01X535200Y205000D02*
X532700Y220000D01*
X530200Y205000D01*
X535200D01*
G01X532700Y123375D02*
Y50000D01*
G01Y154625D02*
Y220000D01*
G01X577100Y38700D02*
Y260400D01*
X1060700D01*
Y38700D01*
X577100D01*
G01Y66800D02*
X1060700D01*
G01X577100Y94900D02*
X1060700D01*
G01X577100Y123000D02*
X1060700D01*
G01X577100Y151100D02*
X1060700D01*
G01X577100Y179200D02*
X1060700D01*
G01X577100Y207300D02*
X1060700D01*
G01X577100Y235400D02*
X1060700D01*
G01X588105Y188550D02*
Y201050D01*
X593995D01*
G01X591825Y195008D02*
X588105D01*
G01X601590Y201050D02*
X605310D01*
G01X603450D02*
Y188550D01*
G01X601590D02*
X605310D01*
G01X616780Y194800D02*
X619880D01*
Y191050D01*
X618950Y189800D01*
X617865Y188967D01*
X616315Y188550D01*
X614765Y188967D01*
X613680Y189800D01*
X612750Y191050D01*
X612130Y192508D01*
X611820Y194175D01*
Y195633D01*
X612130Y196883D01*
X612750Y198342D01*
X613680Y199592D01*
X614610Y200425D01*
X615850Y201050D01*
X616935D01*
X618175Y200633D01*
X619105Y199800D01*
G01X624840Y201050D02*
Y192092D01*
X625460Y190216D01*
X626700Y188967D01*
X628250Y188550D01*
X629800Y188967D01*
X631040Y190216D01*
X631660Y192092D01*
Y201050D01*
G01X637550Y188550D02*
Y201050D01*
X641425D01*
X642665Y200425D01*
X643440Y199592D01*
X643750Y197925D01*
X643440Y196258D01*
X642510Y195217D01*
X641425Y194592D01*
X637550D01*
G01X641425D02*
X643750Y188550D01*
G01X656150D02*
X649950D01*
Y201050D01*
X656150D01*
G01X653670Y195008D02*
X649950D01*
G01X660490Y241650D02*
Y254150D01*
X663590D01*
X664830Y253525D01*
X665760Y252692D01*
X666535Y251442D01*
X667155Y249983D01*
X667310Y247900D01*
X667155Y245817D01*
X666535Y244358D01*
X665760Y243108D01*
X664830Y242275D01*
X663590Y241650D01*
X660490D01*
G01X673200D02*
Y254150D01*
X677075D01*
X678315Y253525D01*
X679090Y252692D01*
X679400Y251025D01*
X679090Y249358D01*
X678160Y248317D01*
X677075Y247692D01*
X673200D01*
G01X677075D02*
X679400Y241650D01*
G01X686840Y254150D02*
X690560D01*
G01X688700D02*
Y241650D01*
G01X686840D02*
X690560D01*
G01X698000Y254150D02*
Y241650D01*
X704200D01*
G01X710400Y254150D02*
Y241650D01*
X716600D01*
G01X741710Y253108D02*
X740780Y253733D01*
X739695Y254150D01*
X738455D01*
X737060Y253525D01*
X735975Y252483D01*
X735200Y251233D01*
X734580Y249150D01*
X734425Y247275D01*
X734735Y245400D01*
X735200Y244150D01*
X736130Y242900D01*
X737215Y242067D01*
X738300Y241650D01*
X739385D01*
X740470Y242067D01*
X741400Y242691D01*
X742175Y243525D01*
G01X747445Y241650D02*
Y254150D01*
G01X753955D02*
Y241650D01*
G01Y247900D02*
X747445D01*
G01X759225Y241650D02*
X763100Y254150D01*
X766975Y241650D01*
G01X765580Y246025D02*
X760620D01*
G01X772400Y241650D02*
Y254150D01*
X776275D01*
X777515Y253525D01*
X778290Y252692D01*
X778600Y251025D01*
X778290Y249358D01*
X777360Y248317D01*
X776275Y247692D01*
X772400D01*
G01X776275D02*
X778600Y241650D01*
G01X787900Y254150D02*
Y241650D01*
G01X784335Y254150D02*
X791465D01*
G01X800300Y241233D02*
X799990Y241442D01*
Y241858D01*
X800300Y242067D01*
X800610Y241858D01*
Y241442D01*
X800300Y241233D01*
G01Y246858D02*
X799990Y247067D01*
Y247483D01*
X800300Y247692D01*
X800610Y247483D01*
Y247067D01*
X800300Y246858D01*
G01X825100Y254150D02*
Y241650D01*
G01X821535Y254150D02*
X828665D01*
G01X837500Y241650D02*
X836260Y241858D01*
X835175Y242691D01*
X834245Y243942D01*
X833625Y245400D01*
X833315Y247067D01*
Y248733D01*
X833625Y250400D01*
X834245Y251858D01*
X835175Y253108D01*
X836260Y253942D01*
X837500Y254150D01*
X838740Y253942D01*
X839825Y253108D01*
X840755Y251858D01*
X841375Y250400D01*
X841685Y248733D01*
Y247067D01*
X841375Y245400D01*
X840755Y243942D01*
X839825Y242691D01*
X838740Y241858D01*
X837500Y241650D01*
G01X846800D02*
Y254150D01*
X850520D01*
X851760Y253525D01*
X852690Y252067D01*
X853000Y250400D01*
X852690Y248733D01*
X851915Y247483D01*
X850520Y246858D01*
X846800D01*
G01X874700Y254150D02*
Y241650D01*
G01X872530Y249983D02*
X876870D01*
G01X887100Y241650D02*
X886170Y241858D01*
X885240Y242691D01*
X884620Y244150D01*
X884310Y245817D01*
X884620Y247483D01*
X885240Y248942D01*
X886170Y249775D01*
X887100Y249983D01*
X888030Y249775D01*
X888960Y248942D01*
X889580Y247483D01*
X889735Y245817D01*
X889580Y244150D01*
X888960Y242691D01*
X888030Y241858D01*
X887100Y241650D01*
G01X913140Y248317D02*
X913760Y248942D01*
X914225Y249983D01*
X914535Y251442D01*
X914225Y252692D01*
X913605Y253525D01*
X912520Y254150D01*
X908335D01*
Y241650D01*
X913450D01*
X914535Y242483D01*
X915155Y243733D01*
X915465Y245192D01*
X915155Y246650D01*
X914225Y247900D01*
X913140Y248317D01*
X908335D01*
G01X924300Y241650D02*
X923060Y241858D01*
X921975Y242691D01*
X921045Y243942D01*
X920425Y245400D01*
X920115Y247067D01*
Y248733D01*
X920425Y250400D01*
X921045Y251858D01*
X921975Y253108D01*
X923060Y253942D01*
X924300Y254150D01*
X925540Y253942D01*
X926625Y253108D01*
X927555Y251858D01*
X928175Y250400D01*
X928485Y248733D01*
Y247067D01*
X928175Y245400D01*
X927555Y243942D01*
X926625Y242691D01*
X925540Y241858D01*
X924300Y241650D01*
G01X936700Y254150D02*
Y241650D01*
G01X933135Y254150D02*
X940265D01*
G01X949100D02*
Y241650D01*
G01X945535Y254150D02*
X952665D01*
G01X961500Y241650D02*
X960260Y241858D01*
X959175Y242691D01*
X958245Y243942D01*
X957625Y245400D01*
X957315Y247067D01*
Y248733D01*
X957625Y250400D01*
X958245Y251858D01*
X959175Y253108D01*
X960260Y253942D01*
X961500Y254150D01*
X962740Y253942D01*
X963825Y253108D01*
X964755Y251858D01*
X965375Y250400D01*
X965685Y248733D01*
Y247067D01*
X965375Y245400D01*
X964755Y243942D01*
X963825Y242691D01*
X962740Y241858D01*
X961500Y241650D01*
G01X969870D02*
Y254150D01*
X973900Y243733D01*
X977930Y254150D01*
Y241650D01*
G01X667000Y207300D02*
Y38700D01*
G01X691025Y216650D02*
X694900Y229150D01*
X698775Y216650D01*
G01X697380Y221025D02*
X692420D01*
G01X704200Y229150D02*
Y216650D01*
X710400D01*
G01X716600Y229150D02*
Y216650D01*
X722800D01*
G01X741090Y229150D02*
Y220192D01*
X741710Y218316D01*
X742950Y217067D01*
X744500Y216650D01*
X746050Y217067D01*
X747290Y218316D01*
X747910Y220192D01*
Y229150D01*
G01X753335Y216650D02*
Y229150D01*
X760465Y216650D01*
Y229150D01*
G01X767440D02*
X771160D01*
G01X769300D02*
Y216650D01*
G01X767440D02*
X771160D01*
G01X781700Y229150D02*
Y216650D01*
G01X778135Y229150D02*
X785265D01*
G01X790845Y218316D02*
X792085Y217275D01*
X793480Y216650D01*
X794720D01*
X795960Y217275D01*
X796890Y218316D01*
X797355Y219775D01*
X797045Y221233D01*
X796270Y222483D01*
X794875Y223317D01*
X793015Y223733D01*
X791930Y224566D01*
X791465Y226025D01*
X791775Y227483D01*
X792550Y228525D01*
X793635Y229150D01*
X794720D01*
X795805Y228733D01*
X796735Y227692D01*
G01X815025Y216650D02*
X818900Y229150D01*
X822775Y216650D01*
G01X821380Y221025D02*
X816420D01*
G01X828200Y216650D02*
Y229150D01*
X832075D01*
X833315Y228525D01*
X834090Y227692D01*
X834400Y226025D01*
X834090Y224358D01*
X833160Y223317D01*
X832075Y222692D01*
X828200D01*
G01X832075D02*
X834400Y216650D01*
G01X846800D02*
X840600D01*
Y229150D01*
X846800D01*
G01X844320Y223109D02*
X840600D01*
G01X866640Y229150D02*
X870360D01*
G01X868500D02*
Y216650D01*
G01X866640D02*
X870360D01*
G01X877335D02*
Y229150D01*
X884465Y216650D01*
Y229150D01*
G01X901670Y216650D02*
Y229150D01*
X905700Y218733D01*
X909730Y229150D01*
Y216650D01*
G01X916240Y229150D02*
X919960D01*
G01X918100D02*
Y216650D01*
G01X916240D02*
X919960D01*
G01X927400Y229150D02*
Y216650D01*
X933600D01*
G01X939645Y218316D02*
X940885Y217275D01*
X942280Y216650D01*
X943520D01*
X944760Y217275D01*
X945690Y218316D01*
X946155Y219775D01*
X945845Y221233D01*
X945070Y222483D01*
X943675Y223317D01*
X941815Y223733D01*
X940730Y224566D01*
X940265Y226025D01*
X940575Y227483D01*
X941350Y228525D01*
X942435Y229150D01*
X943520D01*
X944605Y228733D01*
X945535Y227692D01*
G01X732410Y46500D02*
Y59000D01*
X726675Y50042D01*
X734425D01*
G01X742640Y46500D02*
X742950Y49208D01*
X743415Y51500D01*
X744035Y53583D01*
X744810Y55875D01*
X746050Y59000D01*
X739850D01*
G01X755350Y46083D02*
X755040Y46292D01*
Y46708D01*
X755350Y46917D01*
X755660Y46708D01*
Y46292D01*
X755350Y46083D01*
G01X764805Y56917D02*
X765735Y58166D01*
X766820Y58792D01*
X768060Y59000D01*
X769610Y58583D01*
X770695Y57542D01*
X771005Y56292D01*
X770850Y55041D01*
X770230Y54000D01*
X767130Y51917D01*
X765735Y50458D01*
X764805Y48375D01*
X764495Y46500D01*
X771005D01*
G01X782010D02*
Y59000D01*
X776275Y50042D01*
X784025D01*
G01X794410Y46500D02*
Y59000D01*
X788675Y50042D01*
X796425D01*
G01X744810Y74600D02*
Y87100D01*
X739075Y78142D01*
X746825D01*
G01X755350Y87100D02*
X754110Y86683D01*
X753180Y85642D01*
X752560Y84392D01*
X752095Y82725D01*
X751940Y80850D01*
X752095Y78975D01*
X752560Y77308D01*
X753180Y76058D01*
X754110Y75017D01*
X755350Y74600D01*
X756590Y75017D01*
X757520Y76058D01*
X758140Y77308D01*
X758605Y78975D01*
X758760Y80850D01*
X758605Y82725D01*
X758140Y84392D01*
X757520Y85642D01*
X756590Y86683D01*
X755350Y87100D01*
G01X767750Y74183D02*
X767440Y74392D01*
Y74808D01*
X767750Y75017D01*
X768060Y74808D01*
Y74392D01*
X767750Y74183D01*
G01X780150Y87100D02*
X778910Y86683D01*
X777980Y85642D01*
X777360Y84392D01*
X776895Y82725D01*
X776740Y80850D01*
X776895Y78975D01*
X777360Y77308D01*
X777980Y76058D01*
X778910Y75017D01*
X780150Y74600D01*
X781390Y75017D01*
X782320Y76058D01*
X782940Y77308D01*
X783405Y78975D01*
X783560Y80850D01*
X783405Y82725D01*
X782940Y84392D01*
X782320Y85642D01*
X781390Y86683D01*
X780150Y87100D01*
G01X740005Y113117D02*
X740935Y114366D01*
X742020Y114992D01*
X743260Y115200D01*
X744810Y114783D01*
X745895Y113742D01*
X746205Y112492D01*
X746050Y111241D01*
X745430Y110200D01*
X742330Y108117D01*
X740935Y106658D01*
X740005Y104575D01*
X739695Y102700D01*
X746205D01*
G01X757210D02*
Y115200D01*
X751475Y106242D01*
X759225D01*
G01X767750Y102283D02*
X767440Y102492D01*
Y102908D01*
X767750Y103117D01*
X768060Y102908D01*
Y102492D01*
X767750Y102283D01*
G01X780150Y115200D02*
X778910Y114783D01*
X777980Y113742D01*
X777360Y112492D01*
X776895Y110825D01*
X776740Y108950D01*
X776895Y107075D01*
X777360Y105408D01*
X777980Y104158D01*
X778910Y103117D01*
X780150Y102700D01*
X781390Y103117D01*
X782320Y104158D01*
X782940Y105408D01*
X783405Y107075D01*
X783560Y108950D01*
X783405Y110825D01*
X782940Y112492D01*
X782320Y113742D01*
X781390Y114783D01*
X780150Y115200D01*
G01X740005Y141217D02*
X740935Y142466D01*
X742020Y143092D01*
X743260Y143300D01*
X744810Y142883D01*
X745895Y141842D01*
X746205Y140592D01*
X746050Y139341D01*
X745430Y138300D01*
X742330Y136217D01*
X740935Y134758D01*
X740005Y132675D01*
X739695Y130800D01*
X746205D01*
G01X755350Y143300D02*
X754110Y142883D01*
X753180Y141842D01*
X752560Y140592D01*
X752095Y138925D01*
X751940Y137050D01*
X752095Y135175D01*
X752560Y133508D01*
X753180Y132258D01*
X754110Y131217D01*
X755350Y130800D01*
X756590Y131217D01*
X757520Y132258D01*
X758140Y133508D01*
X758605Y135175D01*
X758760Y137050D01*
X758605Y138925D01*
X758140Y140592D01*
X757520Y141842D01*
X756590Y142883D01*
X755350Y143300D01*
G01X767750Y130383D02*
X767440Y130592D01*
Y131008D01*
X767750Y131217D01*
X768060Y131008D01*
Y130592D01*
X767750Y130383D01*
G01X780150Y143300D02*
X778910Y142883D01*
X777980Y141842D01*
X777360Y140592D01*
X776895Y138925D01*
X776740Y137050D01*
X776895Y135175D01*
X777360Y133508D01*
X777980Y132258D01*
X778910Y131217D01*
X780150Y130800D01*
X781390Y131217D01*
X782320Y132258D01*
X782940Y133508D01*
X783405Y135175D01*
X783560Y137050D01*
X783405Y138925D01*
X782940Y140592D01*
X782320Y141842D01*
X781390Y142883D01*
X780150Y143300D01*
G01X749150Y158900D02*
X750235Y159108D01*
X751475Y159733D01*
X752250Y160775D01*
X752560Y162233D01*
X752250Y163691D01*
X751320Y164942D01*
X749925Y165567D01*
X748375D01*
X747445Y165983D01*
X746670Y167025D01*
X746360Y168483D01*
X746825Y169942D01*
X747910Y170983D01*
X749150Y171400D01*
X750390Y170983D01*
X751475Y169942D01*
X751940Y168483D01*
X751630Y167025D01*
X750855Y165983D01*
X749925Y165567D01*
X748375D01*
X746980Y164942D01*
X746050Y163691D01*
X745740Y162233D01*
X746050Y160775D01*
X746825Y159733D01*
X748065Y159108D01*
X749150Y158900D01*
G01X761550Y158483D02*
X761240Y158692D01*
Y159108D01*
X761550Y159317D01*
X761860Y159108D01*
Y158692D01*
X761550Y158483D01*
G01X773950Y171400D02*
X772710Y170983D01*
X771780Y169942D01*
X771160Y168692D01*
X770695Y167025D01*
X770540Y165150D01*
X770695Y163275D01*
X771160Y161608D01*
X771780Y160358D01*
X772710Y159317D01*
X773950Y158900D01*
X775190Y159317D01*
X776120Y160358D01*
X776740Y161608D01*
X777205Y163275D01*
X777360Y165150D01*
X777205Y167025D01*
X776740Y168692D01*
X776120Y169942D01*
X775190Y170983D01*
X773950Y171400D01*
G01X739695Y190216D02*
X740935Y189175D01*
X742330Y188550D01*
X743570D01*
X744810Y189175D01*
X745740Y190216D01*
X746205Y191675D01*
X745895Y193133D01*
X745120Y194383D01*
X743725Y195217D01*
X741865Y195633D01*
X740780Y196466D01*
X740315Y197925D01*
X740625Y199383D01*
X741400Y200425D01*
X742485Y201050D01*
X743570D01*
X744655Y200633D01*
X745585Y199592D01*
G01X753490Y201050D02*
X757210D01*
G01X755350D02*
Y188550D01*
G01X753490D02*
X757210D01*
G01X764805Y201050D02*
X770695D01*
X764805Y188550D01*
X770695D01*
G01X783250D02*
X777050D01*
Y201050D01*
X783250D01*
G01X780770Y195008D02*
X777050D01*
G01X860285Y46500D02*
Y59000D01*
X867415Y46500D01*
Y59000D01*
G01X876250Y46500D02*
X875010Y46708D01*
X873925Y47541D01*
X872995Y48792D01*
X872375Y50250D01*
X872065Y51917D01*
Y53583D01*
X872375Y55250D01*
X872995Y56708D01*
X873925Y57958D01*
X875010Y58792D01*
X876250Y59000D01*
X877490Y58792D01*
X878575Y57958D01*
X879505Y56708D01*
X880125Y55250D01*
X880435Y53583D01*
Y51917D01*
X880125Y50250D01*
X879505Y48792D01*
X878575Y47541D01*
X877490Y46708D01*
X876250Y46500D01*
G01X885085D02*
Y59000D01*
X892215Y46500D01*
Y59000D01*
G01X899035Y50666D02*
X903065D01*
G01X910350Y46500D02*
Y59000D01*
X914070D01*
X915310Y58375D01*
X916240Y56917D01*
X916550Y55250D01*
X916240Y53583D01*
X915465Y52333D01*
X914070Y51708D01*
X910350D01*
G01X922750Y59000D02*
Y46500D01*
X928950D01*
G01X934375D02*
X938250Y59000D01*
X942125Y46500D01*
G01X940730Y50875D02*
X935770D01*
G01X950650Y59000D02*
Y46500D01*
G01X947085Y59000D02*
X954215D01*
G01X966150Y46500D02*
X959950D01*
Y59000D01*
X966150D01*
G01X963670Y52959D02*
X959950D01*
G01X972040Y46500D02*
Y59000D01*
X975140D01*
X976380Y58375D01*
X977310Y57542D01*
X978085Y56292D01*
X978705Y54833D01*
X978860Y52750D01*
X978705Y50666D01*
X978085Y49208D01*
X977310Y47958D01*
X976380Y47125D01*
X975140Y46500D01*
X972040D01*
G01X856100Y207300D02*
Y38700D01*
G01X885550Y74600D02*
Y87100D01*
X889270D01*
X890510Y86475D01*
X891440Y85017D01*
X891750Y83350D01*
X891440Y81683D01*
X890665Y80433D01*
X889270Y79808D01*
X885550D01*
G01X897950Y87100D02*
Y74600D01*
X904150D01*
G01X909575D02*
X913450Y87100D01*
X917325Y74600D01*
G01X915930Y78975D02*
X910970D01*
G01X925850Y87100D02*
Y74600D01*
G01X922285Y87100D02*
X929415D01*
G01X941350Y74600D02*
X935150D01*
Y87100D01*
X941350D01*
G01X938870Y81058D02*
X935150D01*
G01X947240Y74600D02*
Y87100D01*
X950340D01*
X951580Y86475D01*
X952510Y85642D01*
X953285Y84392D01*
X953905Y82933D01*
X954060Y80850D01*
X953905Y78766D01*
X953285Y77308D01*
X952510Y76058D01*
X951580Y75225D01*
X950340Y74600D01*
X947240D01*
G01X885550Y102700D02*
Y115200D01*
X889270D01*
X890510Y114575D01*
X891440Y113117D01*
X891750Y111450D01*
X891440Y109783D01*
X890665Y108533D01*
X889270Y107908D01*
X885550D01*
G01X897950Y115200D02*
Y102700D01*
X904150D01*
G01X909575D02*
X913450Y115200D01*
X917325Y102700D01*
G01X915930Y107075D02*
X910970D01*
G01X925850Y115200D02*
Y102700D01*
G01X922285Y115200D02*
X929415D01*
G01X941350Y102700D02*
X935150D01*
Y115200D01*
X941350D01*
G01X938870Y109158D02*
X935150D01*
G01X947240Y102700D02*
Y115200D01*
X950340D01*
X951580Y114575D01*
X952510Y113742D01*
X953285Y112492D01*
X953905Y111033D01*
X954060Y108950D01*
X953905Y106866D01*
X953285Y105408D01*
X952510Y104158D01*
X951580Y103325D01*
X950340Y102700D01*
X947240D01*
G01X885550Y130800D02*
Y143300D01*
X889270D01*
X890510Y142675D01*
X891440Y141217D01*
X891750Y139550D01*
X891440Y137883D01*
X890665Y136633D01*
X889270Y136008D01*
X885550D01*
G01X897950Y143300D02*
Y130800D01*
X904150D01*
G01X909575D02*
X913450Y143300D01*
X917325Y130800D01*
G01X915930Y135175D02*
X910970D01*
G01X925850Y143300D02*
Y130800D01*
G01X922285Y143300D02*
X929415D01*
G01X941350Y130800D02*
X935150D01*
Y143300D01*
X941350D01*
G01X938870Y137259D02*
X935150D01*
G01X947240Y130800D02*
Y143300D01*
X950340D01*
X951580Y142675D01*
X952510Y141842D01*
X953285Y140592D01*
X953905Y139133D01*
X954060Y137050D01*
X953905Y134966D01*
X953285Y133508D01*
X952510Y132258D01*
X951580Y131425D01*
X950340Y130800D01*
X947240D01*
G01X885550Y158900D02*
Y171400D01*
X889270D01*
X890510Y170775D01*
X891440Y169317D01*
X891750Y167650D01*
X891440Y165983D01*
X890665Y164733D01*
X889270Y164108D01*
X885550D01*
G01X897950Y171400D02*
Y158900D01*
X904150D01*
G01X909575D02*
X913450Y171400D01*
X917325Y158900D01*
G01X915930Y163275D02*
X910970D01*
G01X925850Y171400D02*
Y158900D01*
G01X922285Y171400D02*
X929415D01*
G01X941350Y158900D02*
X935150D01*
Y171400D01*
X941350D01*
G01X938870Y165358D02*
X935150D01*
G01X947240Y158900D02*
Y171400D01*
X950340D01*
X951580Y170775D01*
X952510Y169942D01*
X953285Y168692D01*
X953905Y167233D01*
X954060Y165150D01*
X953905Y163066D01*
X953285Y161608D01*
X952510Y160358D01*
X951580Y159525D01*
X950340Y158900D01*
X947240D01*
G01X885550Y188550D02*
Y201050D01*
X889270D01*
X890510Y200425D01*
X891440Y198967D01*
X891750Y197300D01*
X891440Y195633D01*
X890665Y194383D01*
X889270Y193758D01*
X885550D01*
G01X897950Y201050D02*
Y188550D01*
X904150D01*
G01X909575D02*
X913450Y201050D01*
X917325Y188550D01*
G01X915930Y192925D02*
X910970D01*
G01X925850Y201050D02*
Y188550D01*
G01X922285Y201050D02*
X929415D01*
G01X941350Y188550D02*
X935150D01*
Y201050D01*
X941350D01*
G01X938870Y195008D02*
X935150D01*
G01X947240Y188550D02*
Y201050D01*
X950340D01*
X951580Y200425D01*
X952510Y199592D01*
X953285Y198342D01*
X953905Y196883D01*
X954060Y194800D01*
X953905Y192716D01*
X953285Y191258D01*
X952510Y190008D01*
X951580Y189175D01*
X950340Y188550D01*
X947240D01*
G01X983200Y207300D02*
Y38700D01*
G01X1009550Y188550D02*
X1008310Y188758D01*
X1007225Y189591D01*
X1006295Y190842D01*
X1005675Y192300D01*
X1005365Y193967D01*
Y195633D01*
X1005675Y197300D01*
X1006295Y198758D01*
X1007225Y200008D01*
X1008310Y200842D01*
X1009550Y201050D01*
X1010790Y200842D01*
X1011875Y200008D01*
X1012805Y198758D01*
X1013425Y197300D01*
X1013735Y195633D01*
Y193967D01*
X1013425Y192300D01*
X1012805Y190842D01*
X1011875Y189591D01*
X1010790Y188758D01*
X1009550Y188550D01*
G01X1010790Y191883D02*
X1012650Y188550D01*
G01X1021950Y201050D02*
Y188550D01*
G01X1018385Y201050D02*
X1025515D01*
G01X1034350Y188550D02*
Y194175D01*
X1031250Y201050D01*
G01X1037450D02*
X1034350Y194175D01*
G01X1019005Y56917D02*
X1019935Y58166D01*
X1021020Y58792D01*
X1022260Y59000D01*
X1023810Y58583D01*
X1024895Y57542D01*
X1025205Y56292D01*
X1025050Y55041D01*
X1024430Y54000D01*
X1021330Y51917D01*
X1019935Y50458D01*
X1019005Y48375D01*
X1018695Y46500D01*
X1025205D01*
G01X1023810Y74600D02*
Y87100D01*
X1018075Y78142D01*
X1025825D01*
G01X1015750Y102700D02*
Y115200D01*
X1013890Y112700D01*
G01Y102700D02*
X1017610D01*
G01X1028150Y115200D02*
X1026910Y114783D01*
X1025980Y113742D01*
X1025360Y112492D01*
X1024895Y110825D01*
X1024740Y108950D01*
X1024895Y107075D01*
X1025360Y105408D01*
X1025980Y104158D01*
X1026910Y103117D01*
X1028150Y102700D01*
X1029390Y103117D01*
X1030320Y104158D01*
X1030940Y105408D01*
X1031405Y107075D01*
X1031560Y108950D01*
X1031405Y110825D01*
X1030940Y112492D01*
X1030320Y113742D01*
X1029390Y114783D01*
X1028150Y115200D01*
G01X1015750Y130800D02*
X1016835Y131008D01*
X1018075Y131633D01*
X1018850Y132675D01*
X1019160Y134133D01*
X1018850Y135591D01*
X1017920Y136842D01*
X1016525Y137467D01*
X1014975D01*
X1014045Y137883D01*
X1013270Y138925D01*
X1012960Y140383D01*
X1013425Y141842D01*
X1014510Y142883D01*
X1015750Y143300D01*
X1016990Y142883D01*
X1018075Y141842D01*
X1018540Y140383D01*
X1018230Y138925D01*
X1017455Y137883D01*
X1016525Y137467D01*
X1014975D01*
X1013580Y136842D01*
X1012650Y135591D01*
X1012340Y134133D01*
X1012650Y132675D01*
X1013425Y131633D01*
X1014665Y131008D01*
X1015750Y130800D01*
G01X1028150Y143300D02*
X1026910Y142883D01*
X1025980Y141842D01*
X1025360Y140592D01*
X1024895Y138925D01*
X1024740Y137050D01*
X1024895Y135175D01*
X1025360Y133508D01*
X1025980Y132258D01*
X1026910Y131217D01*
X1028150Y130800D01*
X1029390Y131217D01*
X1030320Y132258D01*
X1030940Y133508D01*
X1031405Y135175D01*
X1031560Y137050D01*
X1031405Y138925D01*
X1030940Y140592D01*
X1030320Y141842D01*
X1029390Y142883D01*
X1028150Y143300D01*
G01X1015750Y158900D02*
X1016835Y159108D01*
X1018075Y159733D01*
X1018850Y160775D01*
X1019160Y162233D01*
X1018850Y163691D01*
X1017920Y164942D01*
X1016525Y165567D01*
X1014975D01*
X1014045Y165983D01*
X1013270Y167025D01*
X1012960Y168483D01*
X1013425Y169942D01*
X1014510Y170983D01*
X1015750Y171400D01*
X1016990Y170983D01*
X1018075Y169942D01*
X1018540Y168483D01*
X1018230Y167025D01*
X1017455Y165983D01*
X1016525Y165567D01*
X1014975D01*
X1013580Y164942D01*
X1012650Y163691D01*
X1012340Y162233D01*
X1012650Y160775D01*
X1013425Y159733D01*
X1014665Y159108D01*
X1015750Y158900D01*
G01X1025515Y160358D02*
X1026600Y159317D01*
X1027840Y158900D01*
X1029080Y159317D01*
X1030165Y160566D01*
X1030940Y162442D01*
X1031250Y164317D01*
Y166608D01*
X1030940Y168483D01*
X1030165Y170150D01*
X1029235Y170983D01*
X1028150Y171400D01*
X1026910Y170983D01*
X1025980Y170150D01*
X1025360Y168900D01*
X1025050Y167233D01*
X1025360Y165775D01*
X1026135Y164317D01*
X1027065Y163483D01*
X1028150Y163275D01*
X1029390Y163691D01*
X1030320Y164733D01*
X1031250Y166608D01*
M02*
