G04 ================== begin FILE IDENTIFICATION RECORD ==================*
G04 Layout Name:  MR_HR2B_Connnect_Board_1V0.brd*
G04 Film Name:    pastetop*
G04 File Format:  Gerber RS274X*
G04 File Origin:  Cadence Allegro 16.6-S025*
G04 Origin Date:  Thu Jun 23 18:19:45 2016*
G04 *
G04 Layer:  PIN/PASTEMASK_TOP*
G04 Layer:  PACKAGE GEOMETRY/DISPLAY_TOP*
G04 Layer:  BOARD GEOMETRY/OUTLINE*
G04 *
G04 Offset:    (0.000 0.000)*
G04 Mirror:    No*
G04 Mode:      Positive*
G04 Rotation:  0*
G04 FullContactRelief:  No*
G04 UndefLineWidth:     6.000*
G04 ================== end FILE IDENTIFICATION RECORD ====================*
%FSLAX25Y25*MOIN*%
%IR0*IPPOS*OFA0.00000B0.00000*MIA0B0*SFA1.00000B1.00000*%
%ADD10C,.03*%
%ADD11C,.006*%
G75*
%LPD*%
G75*
G54D10*
X30800Y37400D03*
Y42400D03*
Y47400D03*
Y52400D03*
Y57400D03*
Y62400D03*
Y67400D03*
Y72400D03*
Y77400D03*
Y82400D03*
Y87400D03*
Y92400D03*
Y97400D03*
Y102400D03*
Y107400D03*
Y112400D03*
Y117400D03*
Y122400D03*
Y127400D03*
Y132400D03*
Y137400D03*
Y142400D03*
Y147400D03*
Y152400D03*
Y157400D03*
Y162400D03*
Y167400D03*
Y172400D03*
Y177400D03*
Y182400D03*
Y187400D03*
Y192400D03*
Y197400D03*
Y202400D03*
Y207400D03*
Y212400D03*
Y217400D03*
Y222400D03*
Y227400D03*
Y232400D03*
X40800Y37400D03*
Y42400D03*
Y47400D03*
Y52400D03*
Y57400D03*
Y62400D03*
Y67400D03*
Y72400D03*
Y77400D03*
Y82400D03*
Y87400D03*
Y92400D03*
Y97400D03*
Y102400D03*
Y107400D03*
Y112400D03*
Y117400D03*
Y122400D03*
Y127400D03*
Y132400D03*
Y137400D03*
Y142400D03*
Y147400D03*
Y152400D03*
Y157400D03*
Y162400D03*
Y167400D03*
Y172400D03*
Y177400D03*
Y182400D03*
Y187400D03*
Y192400D03*
Y197400D03*
Y202400D03*
Y207400D03*
Y212400D03*
Y217400D03*
Y222400D03*
Y227400D03*
Y232400D03*
G54D11*
G01X10000Y10000D02*
X61600D01*
Y48000D01*
X93600Y80000D01*
X442000D01*
Y50000D01*
X490000D01*
Y220000D01*
X442000D01*
Y198000D01*
X93600D01*
X61600Y230000D01*
Y260000D01*
X10000D01*
Y10000D01*
M02*
