G04 ================== begin FILE IDENTIFICATION RECORD ==================*
G04 Layout Name:  MR_HR2B_Connnect_Board_1V0.brd*
G04 Film Name:    silkbottom*
G04 File Format:  Gerber RS274X*
G04 File Origin:  Cadence Allegro 16.6-S025*
G04 Origin Date:  Thu Jun 23 18:19:45 2016*
G04 *
G04 Layer:  REF DES/SILKSCREEN_BOTTOM*
G04 Layer:  PACKAGE GEOMETRY/SILKSCREEN_BOTTOM*
G04 Layer:  BOARD GEOMETRY/OUTLINE*
G04 Layer:  BOARD GEOMETRY/SILKSCREEN_BOTTOM*
G04 *
G04 Offset:    (0.000 0.000)*
G04 Mirror:    Yes*
G04 Mode:      Positive*
G04 Rotation:  0*
G04 FullContactRelief:  No*
G04 UndefLineWidth:     6.000*
G04 ================== end FILE IDENTIFICATION RECORD ====================*
%FSLAX25Y25*MOIN*%
%IR0*IPPOS*OFA0.00000B0.00000*MIA1B0*SFA1.00000B1.00000*%
%ADD10C,.003*%
%ADD11C,.007874*%
%ADD12C,.006*%
G75*
%LPD*%
G75*
G54D10*
G01X467000Y160707D02*
X464500D01*
Y159693D01*
G01X465708Y160067D02*
Y160707D01*
G01X467000Y158560D02*
X464500Y157440D01*
G01Y158560D02*
X467000Y157440D01*
G01Y155800D02*
X464500D01*
X465000Y156120D01*
G01X467000D02*
Y155480D01*
G01X464500Y153600D02*
X464583Y153813D01*
X464792Y153973D01*
X465042Y154080D01*
X465375Y154160D01*
X465750Y154187D01*
X466125Y154160D01*
X466458Y154080D01*
X466708Y153973D01*
X466917Y153813D01*
X467000Y153600D01*
X466917Y153387D01*
X466708Y153227D01*
X466458Y153120D01*
X466125Y153040D01*
X465750Y153013D01*
X465375Y153040D01*
X465042Y153120D01*
X464792Y153227D01*
X464583Y153387D01*
X464500Y153600D01*
G01X467000Y152067D02*
X464500Y151400D01*
X467000Y150733D01*
G01X466125Y150973D02*
Y151827D01*
G01X466167Y149547D02*
Y148853D01*
G01X467000Y147000D02*
X464500D01*
X465000Y147320D01*
G01X467000D02*
Y146680D01*
G01X464500Y144800D02*
X464583Y145013D01*
X464792Y145173D01*
X465042Y145280D01*
X465375Y145360D01*
X465750Y145387D01*
X466125Y145360D01*
X466458Y145280D01*
X466708Y145173D01*
X466917Y145013D01*
X467000Y144800D01*
X466917Y144587D01*
X466708Y144427D01*
X466458Y144320D01*
X466125Y144240D01*
X465750Y144213D01*
X465375Y144240D01*
X465042Y144320D01*
X464792Y144427D01*
X464583Y144587D01*
X464500Y144800D01*
G01Y142600D02*
X464583Y142813D01*
X464792Y142973D01*
X465042Y143080D01*
X465375Y143160D01*
X465750Y143187D01*
X466125Y143160D01*
X466458Y143080D01*
X466708Y142973D01*
X466917Y142813D01*
X467000Y142600D01*
X466917Y142387D01*
X466708Y142227D01*
X466458Y142120D01*
X466125Y142040D01*
X465750Y142013D01*
X465375Y142040D01*
X465042Y142120D01*
X464792Y142227D01*
X464583Y142387D01*
X464500Y142600D01*
G01X467000Y140933D02*
X464500D01*
Y140293D01*
X464625Y140080D01*
X464917Y139920D01*
X465250Y139867D01*
X465583Y139920D01*
X465833Y140053D01*
X465958Y140293D01*
Y140933D01*
G01X467083Y138680D02*
X464500Y137720D01*
G01X467000Y136000D02*
X464500D01*
X465000Y136320D01*
G01X467000D02*
Y135680D01*
G01X464500Y133800D02*
X464583Y134013D01*
X464792Y134173D01*
X465042Y134280D01*
X465375Y134360D01*
X465750Y134387D01*
X466125Y134360D01*
X466458Y134280D01*
X466708Y134173D01*
X466917Y134013D01*
X467000Y133800D01*
X466917Y133587D01*
X466708Y133427D01*
X466458Y133320D01*
X466125Y133240D01*
X465750Y133213D01*
X465375Y133240D01*
X465042Y133320D01*
X464792Y133427D01*
X464583Y133587D01*
X464500Y133800D01*
G01X466167Y131947D02*
Y131253D01*
G01X466667Y129960D02*
X466875Y129747D01*
X467000Y129507D01*
Y129293D01*
X466875Y129080D01*
X466667Y128920D01*
X466375Y128840D01*
X466083Y128893D01*
X465833Y129027D01*
X465667Y129267D01*
X465583Y129587D01*
X465417Y129773D01*
X465125Y129853D01*
X464833Y129800D01*
X464625Y129667D01*
X464500Y129480D01*
Y129293D01*
X464583Y129107D01*
X464792Y128947D01*
G01X464500Y127867D02*
X467000Y127200D01*
X464500Y126533D01*
G01X467833Y125133D02*
X467417Y125400D01*
X467000Y125533D01*
X465333D01*
X464917Y125400D01*
X464500Y125133D01*
G01X467000Y123360D02*
X464500D01*
G01Y122240D02*
X467000D01*
G01X465750D02*
Y123360D01*
G01X465875Y121000D02*
Y120147D01*
X465583Y120227D01*
X465417Y120360D01*
X465333Y120547D01*
X465375Y120733D01*
X465500Y120893D01*
X465792Y121000D01*
X466042Y121053D01*
X466292D01*
X466542Y121000D01*
X466792Y120867D01*
X466958Y120707D01*
X467000Y120520D01*
X466917Y120333D01*
X466667Y120147D01*
G01X467000Y117920D02*
X465333D01*
G01X465625D02*
X465458Y118027D01*
X465375Y118187D01*
X465333Y118373D01*
X465417Y118560D01*
X465583Y118720D01*
X465833Y118827D01*
X466167Y118880D01*
X466500Y118827D01*
X466750Y118720D01*
X466917Y118560D01*
X467000Y118373D01*
X466958Y118187D01*
X466833Y118027D01*
X466667Y117920D01*
G01X464500Y115720D02*
X467000D01*
G01X466625D02*
X466833Y115827D01*
X466958Y115987D01*
X467000Y116173D01*
X466917Y116387D01*
X466708Y116547D01*
X466458Y116653D01*
X466167Y116680D01*
X465875Y116653D01*
X465625Y116547D01*
X465417Y116387D01*
X465333Y116173D01*
X465375Y115987D01*
X465458Y115853D01*
X465625Y115720D01*
G01X465875Y114400D02*
Y113547D01*
X465583Y113627D01*
X465417Y113760D01*
X465333Y113947D01*
X465375Y114133D01*
X465500Y114293D01*
X465792Y114400D01*
X466042Y114453D01*
X466292D01*
X466542Y114400D01*
X466792Y114267D01*
X466958Y114107D01*
X467000Y113920D01*
X466917Y113733D01*
X466667Y113547D01*
G01X467000Y112173D02*
X465333D01*
G01X465667D02*
X465500Y112040D01*
X465375Y111907D01*
X465333Y111720D01*
X465375Y111587D01*
X465500Y111427D01*
G01X467833Y109467D02*
X467417Y109200D01*
X467000Y109067D01*
X465333D01*
X464917Y109200D01*
X464500Y109467D01*
G01X479087Y214800D02*
Y213008D01*
X478980Y212633D01*
X478767Y212383D01*
X478500Y212300D01*
X478233Y212383D01*
X478020Y212633D01*
X477913Y213008D01*
Y214800D01*
G01X476807Y214383D02*
X476647Y214633D01*
X476460Y214758D01*
X476247Y214800D01*
X475980Y214717D01*
X475793Y214508D01*
X475740Y214258D01*
X475767Y214008D01*
X475873Y213800D01*
X476407Y213383D01*
X476647Y213092D01*
X476807Y212675D01*
X476860Y212300D01*
X475740D01*
G54D11*
G01X479581Y209981D02*
Y59981D01*
X452416D01*
Y209981D01*
X479581D01*
G01X475100Y209900D02*
X479600Y205400D01*
G54D12*
G01X10000Y10000D02*
X61600D01*
Y48000D01*
X93600Y80000D01*
X442000D01*
Y50000D01*
X490000D01*
Y220000D01*
X442000D01*
Y198000D01*
X93600D01*
X61600Y230000D01*
Y260000D01*
X10000D01*
Y10000D01*
M02*
