G04 ================== begin FILE IDENTIFICATION RECORD ==================*
G04 Layout Name:  MR_HR2B_Connnect_Board_1V0.brd*
G04 Film Name:    silktop*
G04 File Format:  Gerber RS274X*
G04 File Origin:  Cadence Allegro 16.6-S025*
G04 Origin Date:  Thu Jun 23 18:19:45 2016*
G04 *
G04 Layer:  REF DES/SILKSCREEN_TOP*
G04 Layer:  PACKAGE GEOMETRY/SILKSCREEN_TOP*
G04 Layer:  BOARD GEOMETRY/OUTLINE*
G04 Layer:  BOARD GEOMETRY/SILKSCREEN_TOP*
G04 *
G04 Offset:    (0.000 0.000)*
G04 Mirror:    No*
G04 Mode:      Positive*
G04 Rotation:  0*
G04 FullContactRelief:  No*
G04 UndefLineWidth:     6.000*
G04 ================== end FILE IDENTIFICATION RECORD ====================*
%FSLAX25Y25*MOIN*%
%IR0*IPPOS*OFA0.00000B0.00000*MIA0B0*SFA1.00000B1.00000*%
%ADD10C,.003*%
%ADD11C,.006*%
%ADD12C,.007*%
G75*
%LPD*%
G75*
G54D10*
G01X20313Y254000D02*
Y252208D01*
X20420Y251833D01*
X20633Y251583D01*
X20900Y251500D01*
X21167Y251583D01*
X21380Y251833D01*
X21487Y252208D01*
Y254000D01*
G01X23100Y251500D02*
Y254000D01*
X22780Y253500D01*
G01Y251500D02*
X23420D01*
G01X29500Y28353D02*
X30042Y28300D01*
X30500Y28220D01*
X30917Y28113D01*
X31375Y27980D01*
X32000Y27767D01*
Y28833D01*
G01X29792Y26553D02*
X29583Y26367D01*
X29500Y26153D01*
X29583Y25940D01*
X29833Y25753D01*
X30208Y25620D01*
X30583Y25567D01*
X31042D01*
X31417Y25620D01*
X31750Y25753D01*
X31917Y25913D01*
X32000Y26100D01*
X31917Y26313D01*
X31750Y26473D01*
X31500Y26580D01*
X31167Y26633D01*
X30875Y26580D01*
X30583Y26447D01*
X30417Y26287D01*
X30375Y26100D01*
X30458Y25887D01*
X30667Y25727D01*
X31042Y25567D01*
G01X29600Y242600D02*
X32100D01*
X31600Y242920D01*
G01X29600D02*
Y242280D01*
G01X39700Y27800D02*
X39742Y27613D01*
X39867Y27400D01*
X40075Y27267D01*
X40367Y27213D01*
X40658Y27267D01*
X40908Y27427D01*
X41033Y27667D01*
Y27933D01*
X41117Y28093D01*
X41325Y28227D01*
X41617Y28280D01*
X41908Y28200D01*
X42117Y28013D01*
X42200Y27800D01*
X42117Y27587D01*
X41908Y27400D01*
X41617Y27320D01*
X41325Y27373D01*
X41117Y27507D01*
X41033Y27667D01*
Y27933D01*
X40908Y28173D01*
X40658Y28333D01*
X40367Y28387D01*
X40075Y28333D01*
X39867Y28200D01*
X39742Y27987D01*
X39700Y27800D01*
G01X42200Y25600D02*
X42117Y25813D01*
X41908Y25973D01*
X41658Y26080D01*
X41325Y26160D01*
X40950Y26187D01*
X40575Y26160D01*
X40242Y26080D01*
X39992Y25973D01*
X39783Y25813D01*
X39700Y25600D01*
X39783Y25387D01*
X39992Y25227D01*
X40242Y25120D01*
X40575Y25040D01*
X40950Y25013D01*
X41325Y25040D01*
X41658Y25120D01*
X41908Y25227D01*
X42117Y25387D01*
X42200Y25600D01*
G01X42183Y243307D02*
X42433Y243147D01*
X42558Y242960D01*
X42600Y242747D01*
X42517Y242480D01*
X42308Y242293D01*
X42058Y242240D01*
X41808Y242267D01*
X41600Y242373D01*
X41183Y242907D01*
X40892Y243147D01*
X40475Y243307D01*
X40100Y243360D01*
Y242240D01*
G54D11*
G01X234153Y117700D02*
Y122700D01*
X235800Y118533D01*
X237447Y122700D01*
Y117700D01*
G01X239633D02*
Y122700D01*
X241217D01*
X241723Y122450D01*
X242040Y122117D01*
X242167Y121450D01*
X242040Y120783D01*
X241660Y120367D01*
X241217Y120117D01*
X239633D01*
G01X241217D02*
X242167Y117700D01*
G01X247900Y116033D02*
X244733Y121033D01*
Y121867D01*
X245367Y122700D01*
X246000D01*
X246633Y121867D01*
Y121033D01*
X246000Y120200D01*
X244733Y119367D01*
X244100Y118533D01*
Y116867D01*
X244733Y116033D01*
X246633D01*
X247900Y117700D01*
G01X249770D02*
Y122700D01*
G01X252430D02*
Y117700D01*
G01Y120200D02*
X249770D01*
G01X254933Y117700D02*
Y122700D01*
X256517D01*
X257023Y122450D01*
X257340Y122117D01*
X257467Y121450D01*
X257340Y120783D01*
X256960Y120367D01*
X256517Y120117D01*
X254933D01*
G01X256517D02*
X257467Y117700D01*
G01X260097Y121867D02*
X260477Y122367D01*
X260920Y122617D01*
X261427Y122700D01*
X262060Y122533D01*
X262503Y122117D01*
X262630Y121617D01*
X262567Y121116D01*
X262313Y120700D01*
X261047Y119867D01*
X260477Y119283D01*
X260097Y118450D01*
X259970Y117700D01*
X262630D01*
G01X265260D02*
Y122700D01*
G01Y120200D02*
X265577Y120700D01*
X265957Y120950D01*
X266337Y121033D01*
X266907Y120867D01*
X267287Y120533D01*
X267540Y119950D01*
Y119283D01*
X267413Y118617D01*
X267160Y118117D01*
X266717Y117783D01*
X266337Y117700D01*
X265957Y117783D01*
X265577Y118033D01*
X265260Y118450D01*
G01X276600Y122700D02*
Y117700D01*
G01X275713Y121033D02*
X277487D01*
G01X281700Y117700D02*
X281320Y117783D01*
X280940Y118117D01*
X280687Y118700D01*
X280560Y119367D01*
X280687Y120033D01*
X280940Y120617D01*
X281320Y120950D01*
X281700Y121033D01*
X282080Y120950D01*
X282460Y120617D01*
X282713Y120033D01*
X282777Y119367D01*
X282713Y118700D01*
X282460Y118117D01*
X282080Y117783D01*
X281700Y117700D01*
G01X290507D02*
Y122700D01*
X291773D01*
X292280Y122450D01*
X292660Y122117D01*
X292977Y121617D01*
X293230Y121033D01*
X293293Y120200D01*
X293230Y119367D01*
X292977Y118783D01*
X292660Y118283D01*
X292280Y117950D01*
X291773Y117700D01*
X290507D01*
G01X295417D02*
X297000Y122700D01*
X298583Y117700D01*
G01X298013Y119450D02*
X295987D01*
G01X302100Y117700D02*
X301593Y117783D01*
X301150Y118117D01*
X300770Y118617D01*
X300517Y119200D01*
X300390Y119867D01*
Y120533D01*
X300517Y121200D01*
X300770Y121783D01*
X301150Y122283D01*
X301593Y122617D01*
X302100Y122700D01*
X302607Y122617D01*
X303050Y122283D01*
X303430Y121783D01*
X303683Y121200D01*
X303810Y120533D01*
Y119867D01*
X303683Y119200D01*
X303430Y118617D01*
X303050Y118117D01*
X302607Y117783D01*
X302100Y117700D01*
G01X302607Y119033D02*
X303367Y117700D01*
G01X313693Y122283D02*
X313313Y122533D01*
X312870Y122700D01*
X312363D01*
X311793Y122450D01*
X311350Y122033D01*
X311033Y121533D01*
X310780Y120700D01*
X310717Y119950D01*
X310843Y119200D01*
X311033Y118700D01*
X311413Y118200D01*
X311857Y117867D01*
X312300Y117700D01*
X312743D01*
X313187Y117867D01*
X313567Y118117D01*
X313883Y118450D01*
G01X317400Y117700D02*
X317020Y117783D01*
X316640Y118117D01*
X316387Y118700D01*
X316260Y119367D01*
X316387Y120033D01*
X316640Y120617D01*
X317020Y120950D01*
X317400Y121033D01*
X317780Y120950D01*
X318160Y120617D01*
X318413Y120033D01*
X318477Y119367D01*
X318413Y118700D01*
X318160Y118117D01*
X317780Y117783D01*
X317400Y117700D01*
G01X321423D02*
Y121033D01*
G01Y120200D02*
X321677Y120617D01*
X322057Y120950D01*
X322563Y121033D01*
X323007Y120950D01*
X323387Y120617D01*
X323577Y120033D01*
Y117700D01*
G01X326523D02*
Y121033D01*
G01Y120200D02*
X326777Y120617D01*
X327157Y120950D01*
X327663Y121033D01*
X328107Y120950D01*
X328487Y120617D01*
X328677Y120033D01*
Y117700D01*
G01X331750Y119950D02*
X333777D01*
X333587Y120533D01*
X333270Y120867D01*
X332827Y121033D01*
X332383Y120950D01*
X332003Y120700D01*
X331750Y120117D01*
X331623Y119617D01*
Y119117D01*
X331750Y118617D01*
X332067Y118117D01*
X332447Y117783D01*
X332890Y117700D01*
X333333Y117867D01*
X333777Y118366D01*
G01X338813Y120617D02*
X338370Y120950D01*
X337990Y121033D01*
X337483Y120867D01*
X337103Y120533D01*
X336850Y119950D01*
X336787Y119367D01*
X336850Y118783D01*
X337103Y118283D01*
X337483Y117867D01*
X337990Y117700D01*
X338433Y117867D01*
X338813Y118200D01*
G01X342900Y122700D02*
Y117700D01*
G01X342013Y121033D02*
X343787D01*
G01X348000Y117700D02*
X347620Y117783D01*
X347240Y118117D01*
X346987Y118700D01*
X346860Y119367D01*
X346987Y120033D01*
X347240Y120617D01*
X347620Y120950D01*
X348000Y121033D01*
X348380Y120950D01*
X348760Y120617D01*
X349013Y120033D01*
X349077Y119367D01*
X349013Y118700D01*
X348760Y118117D01*
X348380Y117783D01*
X348000Y117700D01*
G01X352213D02*
Y121033D01*
G01Y120367D02*
X352530Y120700D01*
X352847Y120950D01*
X353290Y121033D01*
X353607Y120950D01*
X353987Y120700D01*
G01X278807Y108100D02*
Y113100D01*
X280073D01*
X280580Y112850D01*
X280960Y112517D01*
X281277Y112017D01*
X281530Y111433D01*
X281593Y110600D01*
X281530Y109767D01*
X281277Y109183D01*
X280960Y108683D01*
X280580Y108350D01*
X280073Y108100D01*
X278807D01*
G01X284350Y110350D02*
X286377D01*
X286187Y110933D01*
X285870Y111267D01*
X285427Y111433D01*
X284983Y111350D01*
X284603Y111100D01*
X284350Y110517D01*
X284223Y110017D01*
Y109517D01*
X284350Y109017D01*
X284667Y108517D01*
X285047Y108183D01*
X285490Y108100D01*
X285933Y108267D01*
X286377Y108766D01*
G01X289450Y108683D02*
X289767Y108350D01*
X290210Y108100D01*
X290590D01*
X290970Y108267D01*
X291223Y108517D01*
X291350Y108850D01*
X291287Y109350D01*
X291033Y109600D01*
X289893Y110100D01*
X289640Y110683D01*
X289767Y111100D01*
X290020Y111350D01*
X290400Y111433D01*
X290780Y111350D01*
X291160Y111100D01*
G01X295500Y111433D02*
Y108100D01*
G01Y112767D02*
X295373Y112850D01*
Y113017D01*
X295500Y113100D01*
X295627Y113017D01*
Y112850D01*
X295500Y112767D01*
G01X299713Y106850D02*
X300157Y106517D01*
X300663Y106433D01*
X301107Y106517D01*
X301487Y106933D01*
X301740Y107517D01*
Y111433D01*
G01Y110767D02*
X301487Y111100D01*
X301107Y111350D01*
X300663Y111433D01*
X300157Y111267D01*
X299840Y110933D01*
X299587Y110350D01*
X299460Y109767D01*
X299523Y109267D01*
X299777Y108683D01*
X300157Y108267D01*
X300663Y108100D01*
X301043Y108183D01*
X301487Y108517D01*
X301740Y108850D01*
G01X304623Y108100D02*
Y111433D01*
G01Y110600D02*
X304877Y111017D01*
X305257Y111350D01*
X305763Y111433D01*
X306207Y111350D01*
X306587Y111017D01*
X306777Y110433D01*
Y108100D01*
G01X309850Y110350D02*
X311877D01*
X311687Y110933D01*
X311370Y111267D01*
X310927Y111433D01*
X310483Y111350D01*
X310103Y111100D01*
X309850Y110517D01*
X309723Y110017D01*
Y109517D01*
X309850Y109017D01*
X310167Y108517D01*
X310547Y108183D01*
X310990Y108100D01*
X311433Y108267D01*
X311877Y108766D01*
G01X317040Y113100D02*
Y108100D01*
G01Y108850D02*
X316787Y108433D01*
X316407Y108183D01*
X315963Y108100D01*
X315457Y108267D01*
X315077Y108683D01*
X314823Y109183D01*
X314760Y109767D01*
X314823Y110350D01*
X315077Y110850D01*
X315457Y111267D01*
X315963Y111433D01*
X316407Y111350D01*
X316723Y111183D01*
X317040Y110850D01*
G01X324960Y108100D02*
Y113100D01*
G01Y110600D02*
X325277Y111100D01*
X325657Y111350D01*
X326037Y111433D01*
X326607Y111267D01*
X326987Y110933D01*
X327240Y110350D01*
Y109683D01*
X327113Y109017D01*
X326860Y108517D01*
X326417Y108183D01*
X326037Y108100D01*
X325657Y108183D01*
X325277Y108433D01*
X324960Y108850D01*
G01X329870Y106600D02*
X330250Y106433D01*
X330757Y106600D01*
X331073Y106933D01*
X331327Y107350D01*
X331707Y108683D01*
X332530Y111433D01*
G01X330503D02*
X331707Y108683D01*
G01X339500Y113100D02*
X340387Y108100D01*
X341400Y113100D01*
X342413Y108100D01*
X343300Y113100D01*
G01X346500Y108100D02*
Y110350D01*
X345233Y113100D01*
G01X347767D02*
X346500Y110350D01*
G01X350523Y111433D02*
Y109100D01*
X350777Y108517D01*
X351157Y108183D01*
X351600Y108100D01*
X352043Y108183D01*
X352423Y108517D01*
X352677Y109100D01*
G01Y108100D02*
Y111433D01*
G01X304497Y102067D02*
X304877Y102567D01*
X305320Y102817D01*
X305827Y102900D01*
X306460Y102733D01*
X306903Y102317D01*
X307030Y101817D01*
X306967Y101317D01*
X306713Y100900D01*
X305447Y100067D01*
X304877Y99483D01*
X304497Y98650D01*
X304370Y97900D01*
X307030D01*
G01X310800Y102900D02*
X310293Y102733D01*
X309913Y102317D01*
X309660Y101817D01*
X309470Y101150D01*
X309407Y100400D01*
X309470Y99650D01*
X309660Y98983D01*
X309913Y98483D01*
X310293Y98067D01*
X310800Y97900D01*
X311307Y98067D01*
X311687Y98483D01*
X311940Y98983D01*
X312130Y99650D01*
X312193Y100400D01*
X312130Y101150D01*
X311940Y101817D01*
X311687Y102317D01*
X311307Y102733D01*
X310800Y102900D01*
G01X315900Y97900D02*
Y102900D01*
X315140Y101900D01*
G01Y97900D02*
X316660D01*
G01X319797Y99983D02*
X320240Y100567D01*
X320620Y100900D01*
X321127Y101067D01*
X321570Y100900D01*
X321887Y100567D01*
X322140Y100067D01*
X322203Y99483D01*
X322140Y98983D01*
X321887Y98483D01*
X321507Y98067D01*
X321063Y97900D01*
X320557Y98067D01*
X320113Y98566D01*
X319860Y99317D01*
X319797Y100150D01*
X319923Y101233D01*
X320113Y101817D01*
X320430Y102400D01*
X320873Y102817D01*
X321317Y102900D01*
X321760Y102733D01*
X322077Y102317D01*
G01X324960Y97733D02*
X327240Y102900D01*
G01X331200D02*
X330693Y102733D01*
X330313Y102317D01*
X330060Y101817D01*
X329870Y101150D01*
X329807Y100400D01*
X329870Y99650D01*
X330060Y98983D01*
X330313Y98483D01*
X330693Y98067D01*
X331200Y97900D01*
X331707Y98067D01*
X332087Y98483D01*
X332340Y98983D01*
X332530Y99650D01*
X332593Y100400D01*
X332530Y101150D01*
X332340Y101817D01*
X332087Y102317D01*
X331707Y102733D01*
X331200Y102900D01*
G01X335097Y99983D02*
X335540Y100567D01*
X335920Y100900D01*
X336427Y101067D01*
X336870Y100900D01*
X337187Y100567D01*
X337440Y100067D01*
X337503Y99483D01*
X337440Y98983D01*
X337187Y98483D01*
X336807Y98067D01*
X336363Y97900D01*
X335857Y98067D01*
X335413Y98566D01*
X335160Y99317D01*
X335097Y100150D01*
X335223Y101233D01*
X335413Y101817D01*
X335730Y102400D01*
X336173Y102817D01*
X336617Y102900D01*
X337060Y102733D01*
X337377Y102317D01*
G01X340260Y97733D02*
X342540Y102900D01*
G01X345297Y102067D02*
X345677Y102567D01*
X346120Y102817D01*
X346627Y102900D01*
X347260Y102733D01*
X347703Y102317D01*
X347830Y101817D01*
X347767Y101317D01*
X347513Y100900D01*
X346247Y100067D01*
X345677Y99483D01*
X345297Y98650D01*
X345170Y97900D01*
X347830D01*
G01X350207Y98900D02*
X350587Y98317D01*
X351093Y97983D01*
X351663Y97900D01*
X352170Y97983D01*
X352677Y98400D01*
X352993Y98900D01*
X353057Y99400D01*
X352930Y99983D01*
X352487Y100400D01*
X352043Y100567D01*
X351473D01*
G01X352043D02*
X352423Y100817D01*
X352740Y101233D01*
X352867Y101733D01*
X352740Y102233D01*
X352423Y102650D01*
X351853Y102900D01*
X351283Y102817D01*
X350713Y102483D01*
G01X10000Y10000D02*
X61600D01*
Y48000D01*
X93600Y80000D01*
X442000D01*
Y50000D01*
X490000D01*
Y220000D01*
X442000D01*
Y198000D01*
X93600D01*
X61600Y230000D01*
Y260000D01*
X10000D01*
Y10000D01*
G54D12*
G01X20000Y249800D02*
Y20000D01*
X51600D01*
Y133000D01*
X48400D01*
Y146800D01*
X51600D01*
Y249800D01*
X20000D01*
M02*
