G04 ================== begin FILE IDENTIFICATION RECORD ==================*
G04 Layout Name:  MR_HR2B_Connnect_Board_1V0.brd*
G04 Film Name:    soldbottom*
G04 File Format:  Gerber RS274X*
G04 File Origin:  Cadence Allegro 16.6-S025*
G04 Origin Date:  Thu Jun 23 18:19:45 2016*
G04 *
G04 Layer:  VIA CLASS/SOLDERMASK_BOTTOM*
G04 Layer:  PIN/SOLDERMASK_BOTTOM*
G04 Layer:  PACKAGE GEOMETRY/SOLDERMASK_BOTTOM*
G04 Layer:  BOARD GEOMETRY/OUTLINE*
G04 Layer:  BOARD GEOMETRY/SOLDERMASK_BOTTOM*
G04 *
G04 Offset:    (0.000 0.000)*
G04 Mirror:    Yes*
G04 Mode:      Positive*
G04 Rotation:  0*
G04 FullContactRelief:  No*
G04 UndefLineWidth:     6.000*
G04 ================== end FILE IDENTIFICATION RECORD ====================*
%FSLAX25Y25*MOIN*%
%IR0*IPPOS*OFA0.00000B0.00000*MIA1B0*SFA1.00000B1.00000*%
%ADD11R,.125984X.066929*%
%ADD10C,.03*%
%ADD13R,.047244X.015748*%
%ADD12R,.062992X.031496*%
%ADD14C,.006*%
G75*
%LPD*%
G75*
G54D10*
X30800Y37400D03*
Y42400D03*
Y47400D03*
Y52400D03*
Y57400D03*
Y62400D03*
Y67400D03*
Y72400D03*
Y77400D03*
Y82400D03*
Y87400D03*
Y92400D03*
Y97400D03*
Y102400D03*
Y107400D03*
Y112400D03*
Y117400D03*
Y122400D03*
Y127400D03*
Y132400D03*
Y137400D03*
Y142400D03*
Y147400D03*
Y152400D03*
Y157400D03*
Y162400D03*
Y167400D03*
Y172400D03*
Y177400D03*
Y182400D03*
Y187400D03*
Y192400D03*
Y197400D03*
Y202400D03*
Y207400D03*
Y212400D03*
Y217400D03*
Y222400D03*
Y227400D03*
Y232400D03*
X40800Y37400D03*
Y42400D03*
Y47400D03*
Y52400D03*
Y57400D03*
Y62400D03*
Y67400D03*
Y72400D03*
Y77400D03*
Y82400D03*
Y87400D03*
Y92400D03*
Y97400D03*
Y102400D03*
Y107400D03*
Y112400D03*
Y117400D03*
Y122400D03*
Y127400D03*
Y132400D03*
Y137400D03*
Y142400D03*
Y147400D03*
Y152400D03*
Y157400D03*
Y162400D03*
Y167400D03*
Y172400D03*
Y177400D03*
Y182400D03*
Y187400D03*
Y192400D03*
Y197400D03*
Y202400D03*
Y207400D03*
Y212400D03*
Y217400D03*
Y222400D03*
Y227400D03*
Y232400D03*
G54D11*
X465998Y64312D03*
Y205650D03*
G54D12*
X456550Y87737D03*
Y111359D03*
Y134981D03*
Y158603D03*
Y182225D03*
X475447Y87737D03*
Y111359D03*
Y134981D03*
Y158603D03*
Y182225D03*
G54D13*
X455762Y76910D03*
Y78879D03*
Y80847D03*
Y82816D03*
Y84784D03*
Y90690D03*
Y92658D03*
Y94627D03*
Y96595D03*
Y98564D03*
Y100532D03*
Y102501D03*
Y104469D03*
Y106438D03*
Y108406D03*
Y114312D03*
Y116280D03*
Y118249D03*
Y120217D03*
Y122186D03*
Y124154D03*
Y126123D03*
Y128091D03*
Y130060D03*
Y132028D03*
Y137934D03*
Y139902D03*
Y141871D03*
Y143839D03*
Y145808D03*
Y147776D03*
Y149745D03*
Y151713D03*
Y153682D03*
Y155650D03*
Y161556D03*
Y163524D03*
Y165493D03*
Y167461D03*
Y169430D03*
Y171398D03*
Y173367D03*
Y175335D03*
Y177304D03*
Y179272D03*
Y185178D03*
Y187146D03*
Y189115D03*
Y191084D03*
Y193052D03*
X476235Y76910D03*
Y78879D03*
Y80847D03*
Y82816D03*
Y84784D03*
Y90690D03*
Y92658D03*
Y94627D03*
Y96595D03*
Y98564D03*
Y100532D03*
Y102501D03*
Y104469D03*
Y106438D03*
Y108406D03*
Y114312D03*
Y116280D03*
Y118249D03*
Y120217D03*
Y122186D03*
Y124154D03*
Y126123D03*
Y128091D03*
Y130060D03*
Y132028D03*
Y137934D03*
Y139902D03*
Y141871D03*
Y143839D03*
Y145808D03*
Y147776D03*
Y149745D03*
Y151713D03*
Y153682D03*
Y155650D03*
Y161556D03*
Y163524D03*
Y165493D03*
Y167461D03*
Y169430D03*
Y171398D03*
Y173367D03*
Y175335D03*
Y177304D03*
Y179272D03*
Y185178D03*
Y187146D03*
Y189115D03*
Y191084D03*
Y193052D03*
G54D14*
G01X10000Y10000D02*
X61600D01*
Y48000D01*
X93600Y80000D01*
X442000D01*
Y50000D01*
X490000D01*
Y220000D01*
X442000D01*
Y198000D01*
X93600D01*
X61600Y230000D01*
Y260000D01*
X10000D01*
Y10000D01*
M02*
