G04 ================== begin FILE IDENTIFICATION RECORD ==================*
G04 Layout Name:  MR_HR2B_to_DET_Connector.brd*
G04 Film Name:    adtop*
G04 File Format:  Gerber RS274X*
G04 File Origin:  Cadence Allegro 16.6-S025*
G04 Origin Date:  Thu Jun 23 18:16:06 2016*
G04 *
G04 Layer:  REF DES/SILKSCREEN_TOP*
G04 Layer:  PIN/TOP*
G04 Layer:  PACKAGE GEOMETRY/SILKSCREEN_TOP*
G04 Layer:  BOARD GEOMETRY/OUTLINE*
G04 Layer:  BOARD GEOMETRY/SILKSCREEN_TOP*
G04 *
G04 Offset:    (0.0 0.0)*
G04 Mirror:    No*
G04 Mode:      Positive*
G04 Rotation:  0*
G04 FullContactRelief:  No*
G04 UndefLineWidth:     6.0*
G04 ================== end FILE IDENTIFICATION RECORD ====================*
%FSLAX25Y25*MOIN*%
%IR0*IPPOS*OFA0.00000B0.00000*MIA0B0*SFA1.00000B1.00000*%
%ADD10C,.03*%
%ADD11C,.003*%
%ADD12C,.006*%
%ADD13C,.007*%
G75*
%LPD*%
G75*
G54D10*
X1050200Y56670D03*
X1045200D03*
X1050200Y61670D03*
Y66670D03*
Y71670D03*
X1045200Y61670D03*
Y66670D03*
Y71670D03*
X1050200Y76670D03*
Y81670D03*
Y86670D03*
Y91670D03*
X1045200Y76670D03*
Y81670D03*
Y86670D03*
Y91670D03*
X1050200Y96670D03*
Y101670D03*
Y106670D03*
X1045200Y96670D03*
Y101670D03*
Y106670D03*
X1050200Y111670D03*
Y116670D03*
Y121670D03*
Y126670D03*
X1045200Y111670D03*
Y116670D03*
Y121670D03*
Y126670D03*
X1050200Y131670D03*
Y136670D03*
Y141670D03*
X1045200Y131670D03*
Y136670D03*
Y141670D03*
X1050200Y146670D03*
Y151670D03*
Y156670D03*
X1045200Y146670D03*
Y151670D03*
Y156670D03*
X1050200Y161670D03*
Y166670D03*
Y171670D03*
Y176670D03*
X1045200Y161670D03*
Y166670D03*
Y171670D03*
Y176670D03*
X1050200Y181670D03*
Y186670D03*
Y191670D03*
X1045200Y181670D03*
Y186670D03*
Y191670D03*
X1050200Y196670D03*
Y201670D03*
Y206670D03*
Y211670D03*
X1045200Y196670D03*
Y201670D03*
Y206670D03*
Y211670D03*
X1050200Y216670D03*
Y221670D03*
X1045200Y216670D03*
Y221670D03*
X1050200Y292100D03*
Y297100D03*
X1045200Y292100D03*
Y297100D03*
X1050200Y302100D03*
Y307100D03*
Y312100D03*
X1045200Y302100D03*
Y307100D03*
Y312100D03*
X1050200Y317100D03*
Y322100D03*
Y327100D03*
Y332100D03*
X1045200Y317100D03*
Y322100D03*
Y327100D03*
Y332100D03*
X1050200Y337100D03*
Y342100D03*
Y347100D03*
X1045200Y337100D03*
Y342100D03*
Y347100D03*
X1050200Y352100D03*
Y357100D03*
Y362100D03*
X1045200Y352100D03*
Y357100D03*
Y362100D03*
X1050200Y367100D03*
Y372100D03*
Y377100D03*
Y382100D03*
X1045200Y367100D03*
Y372100D03*
Y377100D03*
Y382100D03*
X1050200Y387100D03*
Y392100D03*
Y397100D03*
X1045200Y387100D03*
Y392100D03*
Y397100D03*
X1050200Y402100D03*
Y407100D03*
Y412100D03*
Y417100D03*
X1045200Y402100D03*
Y407100D03*
Y412100D03*
Y417100D03*
X1050200Y422100D03*
Y427100D03*
Y432100D03*
X1045200Y422100D03*
Y427100D03*
Y432100D03*
X1050200Y437100D03*
Y442100D03*
Y447100D03*
X1045200Y437100D03*
Y442100D03*
Y447100D03*
X1050200Y452100D03*
Y457100D03*
X1045200Y452100D03*
Y457100D03*
G54D11*
G01X1047980Y39770D02*
X1048620D01*
G01X1048300D02*
Y37270D01*
G01X1047980D02*
X1048620D01*
G01X1049890D02*
Y39770D01*
X1051110Y37270D01*
Y39770D01*
G01X1051900Y36440D02*
X1053500D01*
G01X1054390Y38310D02*
X1054580Y38600D01*
X1054740Y38770D01*
X1054950Y38850D01*
X1055140Y38770D01*
X1055270Y38600D01*
X1055380Y38350D01*
X1055410Y38060D01*
X1055380Y37810D01*
X1055270Y37560D01*
X1055110Y37350D01*
X1054930Y37270D01*
X1054710Y37350D01*
X1054530Y37600D01*
X1054420Y37980D01*
X1054390Y38390D01*
X1054450Y38940D01*
X1054530Y39230D01*
X1054660Y39520D01*
X1054850Y39730D01*
X1055030Y39770D01*
X1055220Y39690D01*
X1055350Y39480D01*
G01X1057420Y37270D02*
Y39770D01*
X1056430Y37980D01*
X1057770D01*
G01X1050710Y49580D02*
X1051000Y49390D01*
X1051170Y49230D01*
X1051250Y49020D01*
X1051170Y48830D01*
X1051000Y48700D01*
X1050750Y48590D01*
X1050460Y48560D01*
X1050210Y48590D01*
X1049960Y48700D01*
X1049750Y48860D01*
X1049670Y49040D01*
X1049750Y49260D01*
X1050000Y49440D01*
X1050380Y49550D01*
X1050790Y49580D01*
X1051340Y49520D01*
X1051630Y49440D01*
X1051920Y49310D01*
X1052130Y49120D01*
X1052170Y48940D01*
X1052090Y48750D01*
X1051880Y48620D01*
G01X1049670Y46870D02*
X1049710Y46680D01*
X1049840Y46470D01*
X1050040Y46340D01*
X1050340Y46280D01*
X1050630Y46340D01*
X1050880Y46500D01*
X1051000Y46740D01*
Y47000D01*
X1051090Y47160D01*
X1051290Y47300D01*
X1051590Y47350D01*
X1051880Y47270D01*
X1052090Y47080D01*
X1052170Y46870D01*
X1052090Y46660D01*
X1051880Y46470D01*
X1051590Y46390D01*
X1051290Y46440D01*
X1051090Y46580D01*
X1051000Y46740D01*
Y47000D01*
X1050880Y47240D01*
X1050630Y47400D01*
X1050340Y47460D01*
X1050040Y47400D01*
X1049840Y47270D01*
X1049710Y47060D01*
X1049670Y46870D01*
G01X1045010Y49580D02*
X1045300Y49390D01*
X1045470Y49230D01*
X1045550Y49020D01*
X1045470Y48830D01*
X1045300Y48700D01*
X1045050Y48590D01*
X1044760Y48560D01*
X1044510Y48590D01*
X1044260Y48700D01*
X1044050Y48860D01*
X1043970Y49040D01*
X1044050Y49260D01*
X1044300Y49440D01*
X1044680Y49550D01*
X1045090Y49580D01*
X1045640Y49520D01*
X1045930Y49440D01*
X1046220Y49310D01*
X1046430Y49120D01*
X1046470Y48940D01*
X1046390Y48750D01*
X1046180Y48620D01*
G01X1043970Y46920D02*
X1044510Y46870D01*
X1044970Y46790D01*
X1045390Y46680D01*
X1045840Y46550D01*
X1046470Y46340D01*
Y47400D01*
G01X1047780Y241870D02*
X1048420D01*
G01X1048100D02*
Y239370D01*
G01X1047780D02*
X1048420D01*
G01X1049690D02*
Y241870D01*
X1050910Y239370D01*
Y241870D01*
G01X1051700Y238540D02*
X1053300D01*
G01X1054110Y239870D02*
X1054270Y239580D01*
X1054490Y239410D01*
X1054730Y239370D01*
X1054940Y239410D01*
X1055150Y239620D01*
X1055290Y239870D01*
X1055310Y240120D01*
X1055260Y240410D01*
X1055070Y240620D01*
X1054890Y240700D01*
X1054650D01*
G01X1054890D02*
X1055050Y240830D01*
X1055180Y241040D01*
X1055230Y241290D01*
X1055180Y241540D01*
X1055050Y241740D01*
X1054810Y241870D01*
X1054570Y241830D01*
X1054330Y241660D01*
G01X1056310Y239870D02*
X1056470Y239580D01*
X1056690Y239410D01*
X1056930Y239370D01*
X1057140Y239410D01*
X1057350Y239620D01*
X1057490Y239870D01*
X1057510Y240120D01*
X1057460Y240410D01*
X1057270Y240620D01*
X1057090Y240700D01*
X1056850D01*
G01X1057090D02*
X1057250Y240830D01*
X1057380Y241040D01*
X1057430Y241290D01*
X1057380Y241540D01*
X1057250Y241740D01*
X1057010Y241870D01*
X1056770Y241830D01*
X1056530Y241660D01*
G01X1051450Y230280D02*
X1051700Y230120D01*
X1051830Y229930D01*
X1051870Y229720D01*
X1051790Y229450D01*
X1051580Y229260D01*
X1051330Y229210D01*
X1051080Y229240D01*
X1050870Y229340D01*
X1050450Y229880D01*
X1050160Y230120D01*
X1049740Y230280D01*
X1049370Y230330D01*
Y229210D01*
G01X1044070Y229770D02*
X1046570D01*
X1046070Y230090D01*
G01X1044070D02*
Y229450D01*
G01X1047780Y274670D02*
X1048420D01*
G01X1048100D02*
Y272170D01*
G01X1047780D02*
X1048420D01*
G01X1049690D02*
Y274670D01*
X1050910Y272170D01*
Y274670D01*
G01X1051700Y271340D02*
X1053300D01*
G01X1054110Y272670D02*
X1054270Y272380D01*
X1054490Y272210D01*
X1054730Y272170D01*
X1054940Y272210D01*
X1055150Y272420D01*
X1055290Y272670D01*
X1055310Y272920D01*
X1055260Y273210D01*
X1055070Y273420D01*
X1054890Y273500D01*
X1054650D01*
G01X1054890D02*
X1055050Y273630D01*
X1055180Y273840D01*
X1055230Y274090D01*
X1055180Y274340D01*
X1055050Y274540D01*
X1054810Y274670D01*
X1054570Y274630D01*
X1054330Y274460D01*
G01X1056390Y274250D02*
X1056550Y274500D01*
X1056740Y274630D01*
X1056950Y274670D01*
X1057220Y274590D01*
X1057410Y274380D01*
X1057460Y274130D01*
X1057430Y273880D01*
X1057330Y273670D01*
X1056790Y273250D01*
X1056550Y272960D01*
X1056390Y272540D01*
X1056340Y272170D01*
X1057460D01*
G01X1050710Y285010D02*
X1051000Y284820D01*
X1051170Y284660D01*
X1051250Y284450D01*
X1051170Y284260D01*
X1051000Y284130D01*
X1050750Y284020D01*
X1050460Y283990D01*
X1050210Y284020D01*
X1049960Y284130D01*
X1049750Y284290D01*
X1049670Y284470D01*
X1049750Y284690D01*
X1050000Y284870D01*
X1050380Y284980D01*
X1050790Y285010D01*
X1051340Y284950D01*
X1051630Y284870D01*
X1051920Y284740D01*
X1052130Y284550D01*
X1052170Y284370D01*
X1052090Y284180D01*
X1051880Y284050D01*
G01X1049670Y282300D02*
X1049710Y282110D01*
X1049840Y281900D01*
X1050040Y281770D01*
X1050340Y281710D01*
X1050630Y281770D01*
X1050880Y281930D01*
X1051000Y282170D01*
Y282430D01*
X1051090Y282590D01*
X1051290Y282730D01*
X1051590Y282780D01*
X1051880Y282700D01*
X1052090Y282510D01*
X1052170Y282300D01*
X1052090Y282090D01*
X1051880Y281900D01*
X1051590Y281820D01*
X1051290Y281870D01*
X1051090Y282010D01*
X1051000Y282170D01*
Y282430D01*
X1050880Y282670D01*
X1050630Y282830D01*
X1050340Y282890D01*
X1050040Y282830D01*
X1049840Y282700D01*
X1049710Y282490D01*
X1049670Y282300D01*
G01X1045010Y285010D02*
X1045300Y284820D01*
X1045470Y284660D01*
X1045550Y284450D01*
X1045470Y284260D01*
X1045300Y284130D01*
X1045050Y284020D01*
X1044760Y283990D01*
X1044510Y284020D01*
X1044260Y284130D01*
X1044050Y284290D01*
X1043970Y284470D01*
X1044050Y284690D01*
X1044300Y284870D01*
X1044680Y284980D01*
X1045090Y285010D01*
X1045640Y284950D01*
X1045930Y284870D01*
X1046220Y284740D01*
X1046430Y284550D01*
X1046470Y284370D01*
X1046390Y284180D01*
X1046180Y284050D01*
G01X1043970Y282350D02*
X1044510Y282300D01*
X1044970Y282220D01*
X1045390Y282110D01*
X1045840Y281980D01*
X1046470Y281770D01*
Y282830D01*
G01X1051450Y465710D02*
X1051700Y465550D01*
X1051830Y465360D01*
X1051870Y465150D01*
X1051790Y464880D01*
X1051580Y464690D01*
X1051330Y464640D01*
X1051080Y464670D01*
X1050870Y464770D01*
X1050450Y465310D01*
X1050160Y465550D01*
X1049740Y465710D01*
X1049370Y465760D01*
Y464640D01*
G01X1044070Y465200D02*
X1046570D01*
X1046070Y465520D01*
G01X1044070D02*
Y464880D01*
G01X1048180Y476470D02*
X1048820D01*
G01X1048500D02*
Y473970D01*
G01X1048180D02*
X1048820D01*
G01X1050090D02*
Y476470D01*
X1051310Y473970D01*
Y476470D01*
G01X1052100Y473140D02*
X1053700D01*
G01X1055100Y473970D02*
Y476470D01*
X1054780Y475970D01*
G01Y473970D02*
X1055420D01*
G01X1060370Y236130D02*
X1062870D01*
Y235490D01*
X1062740Y235280D01*
X1062450Y235120D01*
X1062120Y235070D01*
X1061790Y235120D01*
X1061540Y235250D01*
X1061410Y235490D01*
Y236130D01*
G01X1062450Y233910D02*
X1062700Y233750D01*
X1062830Y233560D01*
X1062870Y233350D01*
X1062790Y233080D01*
X1062580Y232890D01*
X1062330Y232840D01*
X1062080Y232870D01*
X1061870Y232970D01*
X1061450Y233510D01*
X1061160Y233750D01*
X1060740Y233910D01*
X1060370Y233960D01*
Y232840D01*
G01X1060970Y471530D02*
X1063470D01*
Y470890D01*
X1063340Y470680D01*
X1063050Y470520D01*
X1062720Y470470D01*
X1062390Y470520D01*
X1062140Y470650D01*
X1062010Y470890D01*
Y471530D01*
G01X1060970Y468800D02*
X1063470D01*
X1062970Y469120D01*
G01X1060970D02*
Y468480D01*
G54D12*
G01X351870Y228000D02*
X352380Y227580D01*
X352950Y227330D01*
X353450D01*
X353960Y227580D01*
X354340Y228000D01*
X354530Y228580D01*
X354400Y229160D01*
X354090Y229660D01*
X353520Y230000D01*
X352760Y230160D01*
X352310Y230500D01*
X352120Y231080D01*
X352250Y231660D01*
X352570Y232080D01*
X353010Y232330D01*
X353450D01*
X353900Y232160D01*
X354280Y231750D01*
G01X358300Y227330D02*
X357920Y227410D01*
X357540Y227750D01*
X357290Y228330D01*
X357160Y229000D01*
X357290Y229660D01*
X357540Y230250D01*
X357920Y230580D01*
X358300Y230660D01*
X358680Y230580D01*
X359060Y230250D01*
X359310Y229660D01*
X359380Y229000D01*
X359310Y228330D01*
X359060Y227750D01*
X358680Y227410D01*
X358300Y227330D01*
G01X363020D02*
Y231580D01*
X363150Y232000D01*
X363400Y232250D01*
X363780Y232330D01*
X364160Y232160D01*
X364350Y231750D01*
G01X363590Y230330D02*
X362320D01*
G01X368500Y232330D02*
Y227330D01*
G01X367610Y230660D02*
X369390D01*
G01X379210Y230000D02*
X379460Y230250D01*
X379650Y230660D01*
X379780Y231250D01*
X379650Y231750D01*
X379400Y232080D01*
X378950Y232330D01*
X377240D01*
Y227330D01*
X379330D01*
X379780Y227660D01*
X380030Y228160D01*
X380160Y228750D01*
X380030Y229330D01*
X379650Y229830D01*
X379210Y230000D01*
X377240D01*
G01X383800Y227330D02*
X383420Y227410D01*
X383040Y227750D01*
X382790Y228330D01*
X382660Y229000D01*
X382790Y229660D01*
X383040Y230250D01*
X383420Y230580D01*
X383800Y230660D01*
X384180Y230580D01*
X384560Y230250D01*
X384810Y229660D01*
X384880Y229000D01*
X384810Y228330D01*
X384560Y227750D01*
X384180Y227410D01*
X383800Y227330D01*
G01X390040D02*
Y230660D01*
G01Y230080D02*
X389790Y230410D01*
X389410Y230580D01*
X388960Y230660D01*
X388520Y230500D01*
X388140Y230160D01*
X387890Y229660D01*
X387760Y229000D01*
X387890Y228330D01*
X388140Y227830D01*
X388520Y227500D01*
X388960Y227330D01*
X389410Y227410D01*
X389790Y227660D01*
X390040Y228000D01*
G01X393110Y227330D02*
Y230660D01*
G01Y230000D02*
X393430Y230330D01*
X393750Y230580D01*
X394190Y230660D01*
X394510Y230580D01*
X394890Y230330D01*
G01X400240Y232330D02*
Y227330D01*
G01Y228080D02*
X399990Y227660D01*
X399610Y227410D01*
X399160Y227330D01*
X398660Y227500D01*
X398280Y227910D01*
X398020Y228410D01*
X397960Y229000D01*
X398020Y229580D01*
X398280Y230080D01*
X398660Y230500D01*
X399160Y230660D01*
X399610Y230580D01*
X399920Y230410D01*
X400240Y230080D01*
G01X408920Y227330D02*
Y231580D01*
X409050Y232000D01*
X409300Y232250D01*
X409680Y232330D01*
X410060Y232160D01*
X410250Y231750D01*
G01X409490Y230330D02*
X408220D01*
G01X414400Y227330D02*
X414020Y227410D01*
X413640Y227750D01*
X413390Y228330D01*
X413260Y229000D01*
X413390Y229660D01*
X413640Y230250D01*
X414020Y230580D01*
X414400Y230660D01*
X414780Y230580D01*
X415160Y230250D01*
X415410Y229660D01*
X415480Y229000D01*
X415410Y228330D01*
X415160Y227750D01*
X414780Y227410D01*
X414400Y227330D01*
G01X418610D02*
Y230660D01*
G01Y230000D02*
X418930Y230330D01*
X419250Y230580D01*
X419690Y230660D01*
X420010Y230580D01*
X420390Y230330D01*
G01X428050Y227330D02*
Y232330D01*
X429700Y228160D01*
X431350Y232330D01*
Y227330D01*
G01X433530D02*
Y232330D01*
X435120D01*
X435620Y232080D01*
X435940Y231750D01*
X436070Y231080D01*
X435940Y230410D01*
X435560Y230000D01*
X435120Y229750D01*
X433530D01*
G01X435120D02*
X436070Y227330D01*
G01X441800Y225660D02*
X438630Y230660D01*
Y231500D01*
X439270Y232330D01*
X439900D01*
X440530Y231500D01*
Y230660D01*
X439900Y229830D01*
X438630Y229000D01*
X438000Y228160D01*
Y226500D01*
X438630Y225660D01*
X440530D01*
X441800Y227330D01*
G01X443670D02*
Y232330D01*
G01X446330D02*
Y227330D01*
G01Y229830D02*
X443670D01*
G01X448830Y227330D02*
Y232330D01*
X450420D01*
X450920Y232080D01*
X451240Y231750D01*
X451370Y231080D01*
X451240Y230410D01*
X450860Y230000D01*
X450420Y229750D01*
X448830D01*
G01X450420D02*
X451370Y227330D01*
G01X454000Y231500D02*
X454380Y232000D01*
X454820Y232250D01*
X455330Y232330D01*
X455960Y232160D01*
X456400Y231750D01*
X456530Y231250D01*
X456470Y230750D01*
X456210Y230330D01*
X454950Y229500D01*
X454380Y228910D01*
X454000Y228080D01*
X453870Y227330D01*
X456530D01*
G01X460810Y230000D02*
X461060Y230250D01*
X461250Y230660D01*
X461380Y231250D01*
X461250Y231750D01*
X461000Y232080D01*
X460550Y232330D01*
X458840D01*
Y227330D01*
X460930D01*
X461380Y227660D01*
X461630Y228160D01*
X461760Y228750D01*
X461630Y229330D01*
X461250Y229830D01*
X460810Y230000D01*
X458840D01*
G01X470500Y232330D02*
Y227330D01*
G01X469040Y232330D02*
X471960D01*
G01X474650Y229580D02*
X476680D01*
X476490Y230160D01*
X476170Y230500D01*
X475730Y230660D01*
X475280Y230580D01*
X474900Y230330D01*
X474650Y229750D01*
X474520Y229250D01*
Y228750D01*
X474650Y228250D01*
X474970Y227750D01*
X475350Y227410D01*
X475790Y227330D01*
X476230Y227500D01*
X476680Y228000D01*
G01X479750Y227910D02*
X480070Y227580D01*
X480510Y227330D01*
X480890D01*
X481270Y227500D01*
X481520Y227750D01*
X481650Y228080D01*
X481590Y228580D01*
X481330Y228830D01*
X480190Y229330D01*
X479940Y229910D01*
X480070Y230330D01*
X480320Y230580D01*
X480700Y230660D01*
X481080Y230580D01*
X481460Y230330D01*
G01X485800Y232330D02*
Y227330D01*
G01X484910Y230660D02*
X486690D01*
G01X496510Y230000D02*
X496760Y230250D01*
X496950Y230660D01*
X497080Y231250D01*
X496950Y231750D01*
X496700Y232080D01*
X496250Y232330D01*
X494540D01*
Y227330D01*
X496630D01*
X497080Y227660D01*
X497330Y228160D01*
X497460Y228750D01*
X497330Y229330D01*
X496950Y229830D01*
X496510Y230000D01*
X494540D01*
G01X501100Y227330D02*
X500720Y227410D01*
X500340Y227750D01*
X500090Y228330D01*
X499960Y229000D01*
X500090Y229660D01*
X500340Y230250D01*
X500720Y230580D01*
X501100Y230660D01*
X501480Y230580D01*
X501860Y230250D01*
X502110Y229660D01*
X502180Y229000D01*
X502110Y228330D01*
X501860Y227750D01*
X501480Y227410D01*
X501100Y227330D01*
G01X507340D02*
Y230660D01*
G01Y230080D02*
X507090Y230410D01*
X506710Y230580D01*
X506260Y230660D01*
X505820Y230500D01*
X505440Y230160D01*
X505190Y229660D01*
X505060Y229000D01*
X505190Y228330D01*
X505440Y227830D01*
X505820Y227500D01*
X506260Y227330D01*
X506710Y227410D01*
X507090Y227660D01*
X507340Y228000D01*
G01X510410Y227330D02*
Y230660D01*
G01Y230000D02*
X510730Y230330D01*
X511050Y230580D01*
X511490Y230660D01*
X511810Y230580D01*
X512190Y230330D01*
G01X517540Y232330D02*
Y227330D01*
G01Y228080D02*
X517290Y227660D01*
X516910Y227410D01*
X516460Y227330D01*
X515960Y227500D01*
X515580Y227910D01*
X515320Y228410D01*
X515260Y229000D01*
X515320Y229580D01*
X515580Y230080D01*
X515960Y230500D01*
X516460Y230660D01*
X516910Y230580D01*
X517220Y230410D01*
X517540Y230080D01*
G01X353370Y286570D02*
X353880Y286150D01*
X354450Y285900D01*
X354950D01*
X355460Y286150D01*
X355840Y286570D01*
X356030Y287150D01*
X355900Y287730D01*
X355590Y288230D01*
X355020Y288570D01*
X354260Y288730D01*
X353810Y289070D01*
X353620Y289650D01*
X353750Y290230D01*
X354070Y290650D01*
X354510Y290900D01*
X354950D01*
X355400Y290730D01*
X355780Y290320D01*
G01X359800Y285900D02*
X359420Y285980D01*
X359040Y286320D01*
X358790Y286900D01*
X358660Y287570D01*
X358790Y288230D01*
X359040Y288820D01*
X359420Y289150D01*
X359800Y289230D01*
X360180Y289150D01*
X360560Y288820D01*
X360810Y288230D01*
X360880Y287570D01*
X360810Y286900D01*
X360560Y286320D01*
X360180Y285980D01*
X359800Y285900D01*
G01X364520D02*
Y290150D01*
X364650Y290570D01*
X364900Y290820D01*
X365280Y290900D01*
X365660Y290730D01*
X365850Y290320D01*
G01X365090Y288900D02*
X363820D01*
G01X370000Y290900D02*
Y285900D01*
G01X369110Y289230D02*
X370890D01*
G01X380710Y288570D02*
X380960Y288820D01*
X381150Y289230D01*
X381280Y289820D01*
X381150Y290320D01*
X380900Y290650D01*
X380450Y290900D01*
X378740D01*
Y285900D01*
X380830D01*
X381280Y286230D01*
X381530Y286730D01*
X381660Y287320D01*
X381530Y287900D01*
X381150Y288400D01*
X380710Y288570D01*
X378740D01*
G01X385300Y285900D02*
X384920Y285980D01*
X384540Y286320D01*
X384290Y286900D01*
X384160Y287570D01*
X384290Y288230D01*
X384540Y288820D01*
X384920Y289150D01*
X385300Y289230D01*
X385680Y289150D01*
X386060Y288820D01*
X386310Y288230D01*
X386380Y287570D01*
X386310Y286900D01*
X386060Y286320D01*
X385680Y285980D01*
X385300Y285900D01*
G01X391540D02*
Y289230D01*
G01Y288650D02*
X391290Y288980D01*
X390910Y289150D01*
X390460Y289230D01*
X390020Y289070D01*
X389640Y288730D01*
X389390Y288230D01*
X389260Y287570D01*
X389390Y286900D01*
X389640Y286400D01*
X390020Y286070D01*
X390460Y285900D01*
X390910Y285980D01*
X391290Y286230D01*
X391540Y286570D01*
G01X394610Y285900D02*
Y289230D01*
G01Y288570D02*
X394930Y288900D01*
X395250Y289150D01*
X395690Y289230D01*
X396010Y289150D01*
X396390Y288900D01*
G01X401740Y290900D02*
Y285900D01*
G01Y286650D02*
X401490Y286230D01*
X401110Y285980D01*
X400660Y285900D01*
X400160Y286070D01*
X399780Y286480D01*
X399520Y286980D01*
X399460Y287570D01*
X399520Y288150D01*
X399780Y288650D01*
X400160Y289070D01*
X400660Y289230D01*
X401110Y289150D01*
X401420Y288980D01*
X401740Y288650D01*
G01X410420Y285900D02*
Y290150D01*
X410550Y290570D01*
X410800Y290820D01*
X411180Y290900D01*
X411560Y290730D01*
X411750Y290320D01*
G01X410990Y288900D02*
X409720D01*
G01X415900Y285900D02*
X415520Y285980D01*
X415140Y286320D01*
X414890Y286900D01*
X414760Y287570D01*
X414890Y288230D01*
X415140Y288820D01*
X415520Y289150D01*
X415900Y289230D01*
X416280Y289150D01*
X416660Y288820D01*
X416910Y288230D01*
X416980Y287570D01*
X416910Y286900D01*
X416660Y286320D01*
X416280Y285980D01*
X415900Y285900D01*
G01X420110D02*
Y289230D01*
G01Y288570D02*
X420430Y288900D01*
X420750Y289150D01*
X421190Y289230D01*
X421510Y289150D01*
X421890Y288900D01*
G01X429550Y285900D02*
Y290900D01*
X431200Y286730D01*
X432850Y290900D01*
Y285900D01*
G01X435030D02*
Y290900D01*
X436620D01*
X437120Y290650D01*
X437440Y290320D01*
X437570Y289650D01*
X437440Y288980D01*
X437060Y288570D01*
X436620Y288320D01*
X435030D01*
G01X436620D02*
X437570Y285900D01*
G01X443300Y284230D02*
X440130Y289230D01*
Y290070D01*
X440770Y290900D01*
X441400D01*
X442030Y290070D01*
Y289230D01*
X441400Y288400D01*
X440130Y287570D01*
X439500Y286730D01*
Y285070D01*
X440130Y284230D01*
X442030D01*
X443300Y285900D01*
G01X445170D02*
Y290900D01*
G01X447830D02*
Y285900D01*
G01Y288400D02*
X445170D01*
G01X450330Y285900D02*
Y290900D01*
X451920D01*
X452420Y290650D01*
X452740Y290320D01*
X452870Y289650D01*
X452740Y288980D01*
X452360Y288570D01*
X451920Y288320D01*
X450330D01*
G01X451920D02*
X452870Y285900D01*
G01X455500Y290070D02*
X455880Y290570D01*
X456320Y290820D01*
X456830Y290900D01*
X457460Y290730D01*
X457900Y290320D01*
X458030Y289820D01*
X457970Y289320D01*
X457710Y288900D01*
X456450Y288070D01*
X455880Y287480D01*
X455500Y286650D01*
X455370Y285900D01*
X458030D01*
G01X462310Y288570D02*
X462560Y288820D01*
X462750Y289230D01*
X462880Y289820D01*
X462750Y290320D01*
X462500Y290650D01*
X462050Y290900D01*
X460340D01*
Y285900D01*
X462430D01*
X462880Y286230D01*
X463130Y286730D01*
X463260Y287320D01*
X463130Y287900D01*
X462750Y288400D01*
X462310Y288570D01*
X460340D01*
G01X472000Y290900D02*
Y285900D01*
G01X470540Y290900D02*
X473460D01*
G01X476150Y288150D02*
X478180D01*
X477990Y288730D01*
X477670Y289070D01*
X477230Y289230D01*
X476780Y289150D01*
X476400Y288900D01*
X476150Y288320D01*
X476020Y287820D01*
Y287320D01*
X476150Y286820D01*
X476470Y286320D01*
X476850Y285980D01*
X477290Y285900D01*
X477730Y286070D01*
X478180Y286570D01*
G01X481250Y286480D02*
X481570Y286150D01*
X482010Y285900D01*
X482390D01*
X482770Y286070D01*
X483020Y286320D01*
X483150Y286650D01*
X483090Y287150D01*
X482830Y287400D01*
X481690Y287900D01*
X481440Y288480D01*
X481570Y288900D01*
X481820Y289150D01*
X482200Y289230D01*
X482580Y289150D01*
X482960Y288900D01*
G01X487300Y290900D02*
Y285900D01*
G01X486410Y289230D02*
X488190D01*
G01X498010Y288570D02*
X498260Y288820D01*
X498450Y289230D01*
X498580Y289820D01*
X498450Y290320D01*
X498200Y290650D01*
X497750Y290900D01*
X496040D01*
Y285900D01*
X498130D01*
X498580Y286230D01*
X498830Y286730D01*
X498960Y287320D01*
X498830Y287900D01*
X498450Y288400D01*
X498010Y288570D01*
X496040D01*
G01X502600Y285900D02*
X502220Y285980D01*
X501840Y286320D01*
X501590Y286900D01*
X501460Y287570D01*
X501590Y288230D01*
X501840Y288820D01*
X502220Y289150D01*
X502600Y289230D01*
X502980Y289150D01*
X503360Y288820D01*
X503610Y288230D01*
X503680Y287570D01*
X503610Y286900D01*
X503360Y286320D01*
X502980Y285980D01*
X502600Y285900D01*
G01X508840D02*
Y289230D01*
G01Y288650D02*
X508590Y288980D01*
X508210Y289150D01*
X507760Y289230D01*
X507320Y289070D01*
X506940Y288730D01*
X506690Y288230D01*
X506560Y287570D01*
X506690Y286900D01*
X506940Y286400D01*
X507320Y286070D01*
X507760Y285900D01*
X508210Y285980D01*
X508590Y286230D01*
X508840Y286570D01*
G01X511910Y285900D02*
Y289230D01*
G01Y288570D02*
X512230Y288900D01*
X512550Y289150D01*
X512990Y289230D01*
X513310Y289150D01*
X513690Y288900D01*
G01X519040Y290900D02*
Y285900D01*
G01Y286650D02*
X518790Y286230D01*
X518410Y285980D01*
X517960Y285900D01*
X517460Y286070D01*
X517080Y286480D01*
X516820Y286980D01*
X516760Y287570D01*
X516820Y288150D01*
X517080Y288650D01*
X517460Y289070D01*
X517960Y289230D01*
X518410Y289150D01*
X518720Y288980D01*
X519040Y288650D01*
G01X565310Y225600D02*
Y230600D01*
X566570D01*
X567080Y230350D01*
X567460Y230020D01*
X567780Y229520D01*
X568030Y228930D01*
X568090Y228100D01*
X568030Y227270D01*
X567780Y226680D01*
X567460Y226180D01*
X567080Y225850D01*
X566570Y225600D01*
X565310D01*
G01X570850Y227850D02*
X572880D01*
X572690Y228430D01*
X572370Y228770D01*
X571930Y228930D01*
X571480Y228850D01*
X571100Y228600D01*
X570850Y228020D01*
X570720Y227520D01*
Y227020D01*
X570850Y226520D01*
X571170Y226020D01*
X571550Y225680D01*
X571990Y225600D01*
X572430Y225770D01*
X572880Y226270D01*
G01X575950Y226180D02*
X576270Y225850D01*
X576710Y225600D01*
X577090D01*
X577470Y225770D01*
X577720Y226020D01*
X577850Y226350D01*
X577790Y226850D01*
X577530Y227100D01*
X576390Y227600D01*
X576140Y228180D01*
X576270Y228600D01*
X576520Y228850D01*
X576900Y228930D01*
X577280Y228850D01*
X577660Y228600D01*
G01X582000Y228930D02*
Y225600D01*
G01Y230270D02*
X581870Y230350D01*
Y230520D01*
X582000Y230600D01*
X582130Y230520D01*
Y230350D01*
X582000Y230270D01*
G01X586210Y224350D02*
X586660Y224020D01*
X587160Y223930D01*
X587610Y224020D01*
X587990Y224430D01*
X588240Y225020D01*
Y228930D01*
G01Y228270D02*
X587990Y228600D01*
X587610Y228850D01*
X587160Y228930D01*
X586660Y228770D01*
X586340Y228430D01*
X586090Y227850D01*
X585960Y227270D01*
X586020Y226770D01*
X586280Y226180D01*
X586660Y225770D01*
X587160Y225600D01*
X587540Y225680D01*
X587990Y226020D01*
X588240Y226350D01*
G01X591120Y225600D02*
Y228930D01*
G01Y228100D02*
X591380Y228520D01*
X591760Y228850D01*
X592260Y228930D01*
X592710Y228850D01*
X593090Y228520D01*
X593280Y227930D01*
Y225600D01*
G01X596350Y227850D02*
X598380D01*
X598190Y228430D01*
X597870Y228770D01*
X597430Y228930D01*
X596980Y228850D01*
X596600Y228600D01*
X596350Y228020D01*
X596220Y227520D01*
Y227020D01*
X596350Y226520D01*
X596670Y226020D01*
X597050Y225680D01*
X597490Y225600D01*
X597930Y225770D01*
X598380Y226270D01*
G01X603540Y230600D02*
Y225600D01*
G01Y226350D02*
X603290Y225930D01*
X602910Y225680D01*
X602460Y225600D01*
X601960Y225770D01*
X601580Y226180D01*
X601320Y226680D01*
X601260Y227270D01*
X601320Y227850D01*
X601580Y228350D01*
X601960Y228770D01*
X602460Y228930D01*
X602910Y228850D01*
X603220Y228680D01*
X603540Y228350D01*
G01X611460Y225600D02*
Y230600D01*
G01Y228100D02*
X611780Y228600D01*
X612160Y228850D01*
X612540Y228930D01*
X613110Y228770D01*
X613490Y228430D01*
X613740Y227850D01*
Y227180D01*
X613610Y226520D01*
X613360Y226020D01*
X612920Y225680D01*
X612540Y225600D01*
X612160Y225680D01*
X611780Y225930D01*
X611460Y226350D01*
G01X616370Y224100D02*
X616750Y223930D01*
X617260Y224100D01*
X617570Y224430D01*
X617830Y224850D01*
X618210Y226180D01*
X619030Y228930D01*
G01X617000D02*
X618210Y226180D01*
G01X626000Y230600D02*
X626890Y225600D01*
X627900Y230600D01*
X628910Y225600D01*
X629800Y230600D01*
G01X633000Y225600D02*
Y227850D01*
X631730Y230600D01*
G01X634270D02*
X633000Y227850D01*
G01X637020Y228930D02*
Y226600D01*
X637280Y226020D01*
X637660Y225680D01*
X638100Y225600D01*
X638540Y225680D01*
X638920Y226020D01*
X639180Y226600D01*
G01Y225600D02*
Y228930D01*
G01X590400Y219870D02*
X590780Y220370D01*
X591220Y220620D01*
X591730Y220700D01*
X592360Y220530D01*
X592800Y220120D01*
X592930Y219620D01*
X592870Y219120D01*
X592610Y218700D01*
X591350Y217870D01*
X590780Y217280D01*
X590400Y216450D01*
X590270Y215700D01*
X592930D01*
G01X596700Y220700D02*
X596190Y220530D01*
X595810Y220120D01*
X595560Y219620D01*
X595370Y218950D01*
X595310Y218200D01*
X595370Y217450D01*
X595560Y216780D01*
X595810Y216280D01*
X596190Y215870D01*
X596700Y215700D01*
X597210Y215870D01*
X597590Y216280D01*
X597840Y216780D01*
X598030Y217450D01*
X598090Y218200D01*
X598030Y218950D01*
X597840Y219620D01*
X597590Y220120D01*
X597210Y220530D01*
X596700Y220700D01*
G01X601800Y215700D02*
Y220700D01*
X601040Y219700D01*
G01Y215700D02*
X602560D01*
G01X605700Y217780D02*
X606140Y218370D01*
X606520Y218700D01*
X607030Y218870D01*
X607470Y218700D01*
X607790Y218370D01*
X608040Y217870D01*
X608100Y217280D01*
X608040Y216780D01*
X607790Y216280D01*
X607410Y215870D01*
X606960Y215700D01*
X606460Y215870D01*
X606010Y216370D01*
X605760Y217120D01*
X605700Y217950D01*
X605820Y219030D01*
X606010Y219620D01*
X606330Y220200D01*
X606770Y220620D01*
X607220Y220700D01*
X607660Y220530D01*
X607980Y220120D01*
G01X610860Y215530D02*
X613140Y220700D01*
G01X617100D02*
X616590Y220530D01*
X616210Y220120D01*
X615960Y219620D01*
X615770Y218950D01*
X615710Y218200D01*
X615770Y217450D01*
X615960Y216780D01*
X616210Y216280D01*
X616590Y215870D01*
X617100Y215700D01*
X617610Y215870D01*
X617990Y216280D01*
X618240Y216780D01*
X618430Y217450D01*
X618490Y218200D01*
X618430Y218950D01*
X618240Y219620D01*
X617990Y220120D01*
X617610Y220530D01*
X617100Y220700D01*
G01X621000Y217780D02*
X621440Y218370D01*
X621820Y218700D01*
X622330Y218870D01*
X622770Y218700D01*
X623090Y218370D01*
X623340Y217870D01*
X623400Y217280D01*
X623340Y216780D01*
X623090Y216280D01*
X622710Y215870D01*
X622260Y215700D01*
X621760Y215870D01*
X621310Y216370D01*
X621060Y217120D01*
X621000Y217950D01*
X621120Y219030D01*
X621310Y219620D01*
X621630Y220200D01*
X622070Y220620D01*
X622520Y220700D01*
X622960Y220530D01*
X623280Y220120D01*
G01X626160Y215530D02*
X628440Y220700D01*
G01X631200Y219870D02*
X631580Y220370D01*
X632020Y220620D01*
X632530Y220700D01*
X633160Y220530D01*
X633600Y220120D01*
X633730Y219620D01*
X633670Y219120D01*
X633410Y218700D01*
X632150Y217870D01*
X631580Y217280D01*
X631200Y216450D01*
X631070Y215700D01*
X633730D01*
G01X636110Y216700D02*
X636490Y216120D01*
X636990Y215780D01*
X637560Y215700D01*
X638070Y215780D01*
X638580Y216200D01*
X638890Y216700D01*
X638960Y217200D01*
X638830Y217780D01*
X638390Y218200D01*
X637940Y218370D01*
X637370D01*
G01X637940D02*
X638320Y218620D01*
X638640Y219030D01*
X638770Y219530D01*
X638640Y220030D01*
X638320Y220450D01*
X637750Y220700D01*
X637180Y220620D01*
X636610Y220280D01*
G01X0Y183200D02*
X47800D01*
G01X0D02*
Y330400D01*
X48000D01*
Y311800D01*
X886000D01*
X1027300Y453100D01*
Y482400D01*
X1068100D01*
Y266900D01*
X1027300D01*
Y246900D01*
X1068100D01*
Y31400D01*
X1027300D01*
Y60700D01*
X886000Y202000D01*
X48000D01*
Y183200D01*
G01X47800D02*
X48000D01*
G54D13*
G01X1037700Y236570D02*
Y143870D01*
X1040700D01*
Y134470D01*
X1037700D01*
Y41770D01*
X1057700D01*
Y236570D01*
X1037700D01*
G01Y472000D02*
Y379300D01*
X1040700D01*
Y369900D01*
X1037700D01*
Y277200D01*
X1057700D01*
Y472000D01*
X1037700D01*
M02*
