G04 ================== begin FILE IDENTIFICATION RECORD ==================*
G04 Layout Name:  MR_HR2B_to_DET_Connector.brd*
G04 Film Name:    art06*
G04 File Format:  Gerber RS274X*
G04 File Origin:  Cadence Allegro 16.6-S025*
G04 Origin Date:  Thu Jun 23 18:16:06 2016*
G04 *
G04 Layer:  VIA CLASS/BOTTOM*
G04 Layer:  PIN/BOTTOM*
G04 Layer:  ETCH/BOTTOM*
G04 Layer:  BOARD GEOMETRY/OUTLINE*
G04 *
G04 Offset:    (0.0 0.0)*
G04 Mirror:    Yes*
G04 Mode:      Positive*
G04 Rotation:  0*
G04 FullContactRelief:  No*
G04 UndefLineWidth:     0.0*
G04 ================== end FILE IDENTIFICATION RECORD ====================*
%FSLAX25Y25*MOIN*%
%IR0*IPPOS*OFA0.00000B0.00000*MIA1B0*SFA1.00000B1.00000*%
%ADD10R,.122X.063*%
%ADD15C,.02*%
%ADD18C,.03*%
%ADD16C,.04*%
%ADD12C,.06*%
%ADD13C,.016*%
%ADD17C,.028*%
%ADD11R,.0433X.0118*%
%ADD14R,.0591X.0276*%
%ADD19C,.006*%
%ADD20C,.01*%
%ADD21C,.024*%
G75*
%LPD*%
G75*
G54D10*
X24000Y197940D03*
Y315660D03*
G54D20*
G01X13760Y214480D02*
X17500D01*
G01X13760Y238100D02*
X10000D01*
G01X13760Y228260D02*
X17500D01*
G01X13760Y261720D02*
X17500D01*
G01X13760Y251880D02*
X10000D01*
G01X13760Y275500D02*
X17500D01*
G01X13760Y285350D02*
X10000D01*
G01X13760Y299120D02*
X17600D01*
G01X34230Y214480D02*
X37900D01*
G01X34230Y228260D02*
X37900D01*
G01X34230Y238100D02*
X29200D01*
G01X34230Y251880D02*
X30500D01*
G01X34230Y261720D02*
X27700D01*
G01X34230Y275500D02*
X30500D01*
G01X34230Y285350D02*
X37900D01*
G01X34230Y299120D02*
X37900D01*
G54D11*
X13760Y210540D03*
Y212510D03*
Y214480D03*
Y216450D03*
Y218420D03*
Y224320D03*
Y226290D03*
Y228260D03*
Y230230D03*
Y232200D03*
Y234160D03*
Y236130D03*
Y238100D03*
Y240070D03*
Y242040D03*
Y247940D03*
Y249910D03*
Y251880D03*
Y253850D03*
Y255820D03*
Y257790D03*
Y259750D03*
Y261720D03*
Y263690D03*
Y265660D03*
Y271570D03*
Y273530D03*
Y275500D03*
Y277470D03*
Y279440D03*
Y281410D03*
Y283380D03*
Y285350D03*
Y287310D03*
Y289280D03*
Y295190D03*
Y297160D03*
Y299120D03*
Y301090D03*
Y303060D03*
X34230Y210540D03*
Y212510D03*
Y214480D03*
Y216450D03*
Y218420D03*
Y224320D03*
Y226290D03*
Y228260D03*
Y230230D03*
Y232200D03*
Y234160D03*
Y236130D03*
Y238100D03*
Y240070D03*
Y242040D03*
Y247940D03*
Y249910D03*
Y251880D03*
Y253850D03*
Y255820D03*
Y257790D03*
Y259750D03*
Y261720D03*
Y263690D03*
Y265660D03*
Y271570D03*
Y273530D03*
Y275500D03*
Y277470D03*
Y279440D03*
Y281410D03*
Y283380D03*
Y285350D03*
Y287310D03*
Y289280D03*
Y295190D03*
Y297160D03*
Y299120D03*
Y301090D03*
Y303060D03*
G54D21*
G01X14550Y221370D02*
X9000D01*
G01X14550Y244990D02*
X20090D01*
G01X14550Y268610D02*
X8700D01*
G01X14550Y292240D02*
X9600D01*
G01X33450Y221370D02*
X27900D01*
G01X33450Y244990D02*
X26700D01*
G01X33450Y268610D02*
X26010D01*
G01X33450Y292240D02*
X26500D01*
G54D12*
X13240Y197940D03*
X13440Y315660D03*
X35460Y197940D03*
X34560Y315660D03*
G54D13*
X17300Y210500D03*
X10200Y212510D03*
X17300Y224320D03*
X10200Y216450D03*
Y226290D03*
X17300Y218420D03*
X10200Y242040D03*
Y234160D03*
Y230230D03*
X17300Y240070D03*
Y236130D03*
Y232200D03*
X10200Y259750D03*
Y255820D03*
X17300Y257790D03*
Y253850D03*
X10200Y247940D03*
X17300Y249910D03*
Y279440D03*
Y265660D03*
Y271570D03*
X10200Y273530D03*
Y263690D03*
Y277470D03*
Y297160D03*
X17300Y295190D03*
X10200Y289280D03*
Y281410D03*
X17300Y287310D03*
Y283400D03*
Y303100D03*
X10200Y301090D03*
X37700Y210540D03*
Y224320D03*
X30700Y216450D03*
Y226290D03*
X37700Y218420D03*
X30700Y212510D03*
Y242040D03*
Y234160D03*
X37700Y236130D03*
X37800Y232200D03*
X37700Y240070D03*
X30700Y230230D03*
X27700Y261720D03*
X37700Y257790D03*
X30700Y259750D03*
X37700Y253850D03*
Y249910D03*
X30700Y255820D03*
Y247940D03*
X30740Y271530D03*
X30700Y263690D03*
X37700Y277470D03*
Y273530D03*
X30600Y279440D03*
X37700Y265660D03*
X30700Y287310D03*
X37700Y295190D03*
Y289280D03*
X30700Y297160D03*
Y283380D03*
X37700Y281410D03*
Y303060D03*
X30700Y301090D03*
X1038300Y354800D03*
G54D14*
X14550Y221370D03*
Y244990D03*
Y268610D03*
Y292240D03*
X33450Y221370D03*
Y244990D03*
Y268610D03*
Y292240D03*
G54D15*
X17500Y228260D03*
Y214480D03*
X10000Y238100D03*
X17500Y261720D03*
X10000Y251880D03*
X17500Y275500D03*
X10000Y285350D03*
X17600Y299120D03*
X37900Y228260D03*
Y214480D03*
X29200Y238100D03*
X30500Y251880D03*
Y275500D03*
X37900Y285350D03*
Y299120D03*
G54D16*
G01X24000Y197940D02*
X35460D01*
G01X24000D02*
X13240D01*
G01X24000Y315660D02*
X13440D01*
G01X24000D02*
X34560D01*
X9000Y221370D03*
X20090Y244990D03*
X8700Y268610D03*
X27900Y221370D03*
X26700Y244990D03*
X26010Y268610D03*
X26500Y292240D03*
G54D17*
X9600D03*
G54D18*
X1050200Y56670D03*
X1045200D03*
X1050200Y61670D03*
Y66670D03*
Y71670D03*
X1045200Y61670D03*
Y66670D03*
Y71670D03*
X1050200Y76670D03*
Y81670D03*
Y86670D03*
Y91670D03*
X1045200Y76670D03*
Y81670D03*
Y86670D03*
Y91670D03*
X1050200Y96670D03*
Y101670D03*
Y106670D03*
X1045200Y96670D03*
Y101670D03*
Y106670D03*
X1050200Y111670D03*
Y116670D03*
Y121670D03*
Y126670D03*
X1045200Y111670D03*
Y116670D03*
Y121670D03*
Y126670D03*
X1050200Y131670D03*
Y136670D03*
Y141670D03*
X1045200Y131670D03*
Y136670D03*
Y141670D03*
X1050200Y146670D03*
Y151670D03*
Y156670D03*
X1045200Y146670D03*
Y151670D03*
Y156670D03*
X1050200Y161670D03*
Y166670D03*
Y171670D03*
Y176670D03*
X1045200Y161670D03*
Y166670D03*
Y171670D03*
Y176670D03*
X1050200Y181670D03*
Y186670D03*
Y191670D03*
X1045200Y181670D03*
Y186670D03*
Y191670D03*
X1050200Y196670D03*
Y201670D03*
Y206670D03*
Y211670D03*
X1045200Y196670D03*
Y201670D03*
Y206670D03*
Y211670D03*
X1050200Y216670D03*
Y221670D03*
X1045200Y216670D03*
Y221670D03*
X1050200Y292100D03*
Y297100D03*
X1045200Y292100D03*
Y297100D03*
X1050200Y302100D03*
Y307100D03*
Y312100D03*
X1045200Y302100D03*
Y307100D03*
Y312100D03*
X1050200Y317100D03*
Y322100D03*
Y327100D03*
Y332100D03*
X1045200Y317100D03*
Y322100D03*
Y327100D03*
Y332100D03*
X1050200Y337100D03*
Y342100D03*
Y347100D03*
X1045200Y337100D03*
Y342100D03*
Y347100D03*
X1050200Y352100D03*
Y357100D03*
Y362100D03*
X1045200Y352100D03*
Y357100D03*
Y362100D03*
X1050200Y367100D03*
Y372100D03*
Y377100D03*
Y382100D03*
X1045200Y367100D03*
Y372100D03*
Y377100D03*
Y382100D03*
X1050200Y387100D03*
Y392100D03*
Y397100D03*
X1045200Y387100D03*
Y392100D03*
Y397100D03*
X1050200Y402100D03*
Y407100D03*
Y412100D03*
Y417100D03*
X1045200Y402100D03*
Y407100D03*
Y412100D03*
Y417100D03*
X1050200Y422100D03*
Y427100D03*
Y432100D03*
X1045200Y422100D03*
Y427100D03*
Y432100D03*
X1050200Y437100D03*
Y442100D03*
Y447100D03*
X1045200Y437100D03*
Y442100D03*
Y447100D03*
X1050200Y452100D03*
Y457100D03*
X1045200Y452100D03*
Y457100D03*
G54D19*
G01X13760Y210540D02*
X17260D01*
X17300Y210500D01*
G01X13760Y212510D02*
X10200D01*
G01X13760Y224320D02*
X17300D01*
G01X13760Y216450D02*
X10200D01*
G01X13760Y226290D02*
X10200D01*
G01X13760Y218420D02*
X17300D01*
G01X13760Y242040D02*
X10200D01*
G01X13760Y234160D02*
X10200D01*
G01X13760Y230230D02*
X10200D01*
G01X13760Y240070D02*
X17300D01*
G01X13760Y236130D02*
X17300D01*
G01X13760Y232200D02*
X17300D01*
G01X13760Y259750D02*
X10200D01*
G01X13760Y255820D02*
X10200D01*
G01X13760Y257790D02*
X17300D01*
G01X13760Y253850D02*
X17300D01*
G01X13760Y247940D02*
X10200D01*
G01X13760Y249910D02*
X17300D01*
G01X13760Y265660D02*
X17300D01*
G01X13760Y271570D02*
X17300D01*
G01X13760Y273530D02*
X10200D01*
G01X13760Y263690D02*
X10200D01*
G01X13760Y277470D02*
X10200D01*
G01X13760Y279440D02*
X17300D01*
G01X13760Y295190D02*
X17300D01*
G01X13760Y289280D02*
X10200D01*
G01X13760Y281410D02*
X10200D01*
G01X13760Y287310D02*
X17300D01*
G01X13760Y283380D02*
X17280D01*
X17300Y283400D01*
G01X13760Y297160D02*
X10200D01*
G01X13760Y303060D02*
X17260D01*
X17300Y303100D01*
G01X13760Y301090D02*
X10200D01*
G01X34230Y210540D02*
X37700D01*
G01X34230Y224320D02*
X37700D01*
G01X34230Y216450D02*
X30700D01*
G01X34230Y226290D02*
X30700D01*
G01X34230Y218420D02*
X37700D01*
G01X34230Y212510D02*
X30700D01*
G01X34230Y242040D02*
X30700D01*
G01X34230Y234160D02*
X30700D01*
G01X34230Y236130D02*
X37700D01*
G01X34230Y232200D02*
X37800D01*
G01X34230Y240070D02*
X37700D01*
G01X34230Y230230D02*
X30700D01*
G01X34230Y257790D02*
X37700D01*
G01X34230Y259750D02*
X30700D01*
G01X34230Y253850D02*
X37700D01*
G01X34230Y249910D02*
X37700D01*
G01X34230Y255820D02*
X30700D01*
G01X34230Y247940D02*
X30700D01*
G01X34230Y271570D02*
X30780D01*
X30740Y271530D01*
G01X34230Y263690D02*
X30700D01*
G01X34230Y277470D02*
X37700D01*
G01X34230Y273530D02*
X37700D01*
G01X34230Y265660D02*
X37700D01*
G01X34230Y287310D02*
X30700D01*
G01X34230Y295190D02*
X37700D01*
G01X34230Y289280D02*
X37700D01*
G01X34230Y283380D02*
X30700D01*
G01X34230Y281410D02*
X37700D01*
G01X34230Y279440D02*
X30600D01*
G01X34230Y303060D02*
X37700D01*
G01X34230Y301090D02*
X30700D01*
G01X34230Y297160D02*
X30700D01*
M02*
