G04 ================== begin FILE IDENTIFICATION RECORD ==================*
G04 Layout Name:  MR_HR2B_to_DET_Connector.brd*
G04 Film Name:    drill*
G04 File Format:  Gerber RS274X*
G04 File Origin:  Cadence Allegro 16.6-S025*
G04 Origin Date:  Thu Jun 23 18:16:06 2016*
G04 *
G04 Layer:  MANUFACTURING/NCLEGEND-1-6*
G04 Layer:  MANUFACTURING/NCDRILL_LEGEND*
G04 Layer:  MANUFACTURING/NCDRILL_FIGURE*
G04 Layer:  BOARD GEOMETRY/OUTLINE*
G04 Layer:  BOARD GEOMETRY/DIMENSION*
G04 *
G04 Offset:    (0.0 0.0)*
G04 Mirror:    No*
G04 Mode:      Positive*
G04 Rotation:  0*
G04 FullContactRelief:  No*
G04 UndefLineWidth:     6.0*
G04 ================== end FILE IDENTIFICATION RECORD ====================*
%FSLAX25Y25*MOIN*%
%IR0*IPPOS*OFA0.00000B0.00000*MIA0B0*SFA1.00000B1.00000*%
%AMMACRO11*
1,1,.006,.05,0.0*
20,1,.006,.05,0.0,-.05,0.0,0.0*
1,1,.006,-.05,0.0*
1,1,.006,0.0,.05*
20,1,.006,0.0,.05,0.0,-.05,0.0*
1,1,.006,0.0,-.05*
1,1,.006,.04,0.0*
20,1,.006,.04,0.0,.04,.0333,0.0*
1,1,.006,.04,.0333*
1,1,.006,.04,.0275*
20,1,.006,.04,.0275,.0367,.0308,0.0*
1,1,.006,.0367,.0308*
20,1,.006,.0367,.0308,.0317,.0325,0.0*
1,1,.006,.0317,.0325*
20,1,.006,.0317,.0325,.0258,.0333,0.0*
1,1,.006,.0258,.0333*
20,1,.006,.0258,.0333,.02,.0317,0.0*
1,1,.006,.02,.0317*
20,1,.006,.02,.0317,.015,.0283,0.0*
1,1,.006,.015,.0283*
20,1,.006,.015,.0283,.0117,.0233,0.0*
1,1,.006,.0117,.0233*
20,1,.006,.0117,.0233,.01,.0167,0.0*
1,1,.006,.01,.0167*
20,1,.006,.01,.0167,.0117,.01,0.0*
1,1,.006,.0117,.01*
20,1,.006,.0117,.01,.015,.005,0.0*
1,1,.006,.015,.005*
20,1,.006,.015,.005,.02,.0017,0.0*
1,1,.006,.02,.0017*
20,1,.006,.02,.0017,.0258,0.0,0.0*
1,1,.006,.0258,0.0*
20,1,.006,.0258,0.0,.0317,.0008,0.0*
1,1,.006,.0317,.0008*
20,1,.006,.0317,.0008,.0367,.0033,0.0*
1,1,.006,.0367,.0033*
20,1,.006,.0367,.0033,.04,.0067,0.0*
1,1,.006,.04,.0067*
%
%ADD11MACRO11*%
%AMMACRO12*
1,1,.006,.05,0.0*
20,1,.006,.05,0.0,-.05,0.0,0.0*
1,1,.006,-.05,0.0*
1,1,.006,0.0,.05*
20,1,.006,0.0,.05,0.0,-.05,0.0*
1,1,.006,0.0,-.05*
1,1,.006,.01,0.0*
20,1,.006,.01,0.0,.01,.05,0.0*
1,1,.006,.01,.05*
1,1,.006,.01,.025*
20,1,.006,.01,.025,.0142,.03,0.0*
1,1,.006,.0142,.03*
20,1,.006,.0142,.03,.0192,.0325,0.0*
1,1,.006,.0192,.0325*
20,1,.006,.0192,.0325,.0242,.0333,0.0*
1,1,.006,.0242,.0333*
20,1,.006,.0242,.0333,.0317,.0317,0.0*
1,1,.006,.0317,.0317*
20,1,.006,.0317,.0317,.0367,.0283,0.0*
1,1,.006,.0367,.0283*
20,1,.006,.0367,.0283,.04,.0225,0.0*
1,1,.006,.04,.0225*
20,1,.006,.04,.0225,.04,.0158,0.0*
1,1,.006,.04,.0158*
20,1,.006,.04,.0158,.0383,.0092,0.0*
1,1,.006,.0383,.0092*
20,1,.006,.0383,.0092,.035,.0042,0.0*
1,1,.006,.035,.0042*
20,1,.006,.035,.0042,.0292,.0008,0.0*
1,1,.006,.0292,.0008*
20,1,.006,.0292,.0008,.0242,0.0,0.0*
1,1,.006,.0242,0.0*
20,1,.006,.0242,0.0,.0192,.0008,0.0*
1,1,.006,.0192,.0008*
20,1,.006,.0192,.0008,.0142,.0033,0.0*
1,1,.006,.0142,.0033*
20,1,.006,.0142,.0033,.01,.0075,0.0*
1,1,.006,.01,.0075*
%
%ADD12MACRO12*%
%AMMACRO13*
1,1,.006,.05,0.0*
20,1,.006,.05,0.0,-.05,0.0,0.0*
1,1,.006,-.05,0.0*
1,1,.006,0.0,.05*
20,1,.006,0.0,.05,0.0,-.05,0.0*
1,1,.006,0.0,-.05*
1,1,.006,.02,0.0*
20,1,.006,.02,0.0,.02,.0425,0.0*
1,1,.006,.02,.0425*
20,1,.006,.02,.0425,.0217,.0467,0.0*
1,1,.006,.0217,.0467*
20,1,.006,.0217,.0467,.025,.0492,0.0*
1,1,.006,.025,.0492*
20,1,.006,.025,.0492,.03,.05,0.0*
1,1,.006,.03,.05*
20,1,.006,.03,.05,.035,.0483,0.0*
1,1,.006,.035,.0483*
20,1,.006,.035,.0483,.0375,.0442,0.0*
1,1,.006,.0375,.0442*
1,1,.006,.0275,.03*
20,1,.006,.0275,.03,.0108,.03,0.0*
1,1,.006,.0108,.03*
%
%ADD13MACRO13*%
%AMMACRO10*
1,1,.006,.05,0.0*
20,1,.006,.05,0.0,-.05,0.0,0.0*
1,1,.006,-.05,0.0*
1,1,.006,0.0,.05*
20,1,.006,0.0,.05,0.0,-.05,0.0*
1,1,.006,0.0,-.05*
1,1,.006,.0108,0.0*
20,1,.006,.0108,0.0,.0108,.05,0.0*
1,1,.006,.0108,.05*
1,1,.006,.0375,.0333*
20,1,.006,.0375,.0333,.0108,.0142,0.0*
1,1,.006,.0108,.0142*
1,1,.006,.0217,.0217*
20,1,.006,.0217,.0217,.0392,0.0,0.0*
1,1,.006,.0392,0.0*
%
%ADD10MACRO10*%
%ADD14C,.006*%
G75*
%LPD*%
G75*
G54D10*
X13240Y197940D03*
X13440Y315660D03*
X35460Y197940D03*
X34560Y315660D03*
X121850Y441950D03*
Y498150D03*
X1050200Y56670D03*
X1045200D03*
X1050200Y61670D03*
Y66670D03*
Y71670D03*
X1045200Y61670D03*
Y66670D03*
Y71670D03*
X1050200Y76670D03*
Y81670D03*
Y86670D03*
Y91670D03*
X1045200Y76670D03*
Y81670D03*
Y86670D03*
Y91670D03*
X1050200Y96670D03*
Y101670D03*
Y106670D03*
X1045200Y96670D03*
Y101670D03*
Y106670D03*
X1050200Y111670D03*
Y116670D03*
Y121670D03*
Y126670D03*
X1045200Y111670D03*
Y116670D03*
Y121670D03*
Y126670D03*
X1050200Y131670D03*
Y136670D03*
Y141670D03*
X1045200Y131670D03*
Y136670D03*
Y141670D03*
X1050200Y146670D03*
Y151670D03*
Y156670D03*
X1045200Y146670D03*
Y151670D03*
Y156670D03*
X1050200Y161670D03*
Y166670D03*
Y171670D03*
Y176670D03*
X1045200Y161670D03*
Y166670D03*
Y171670D03*
Y176670D03*
X1050200Y181670D03*
Y186670D03*
Y191670D03*
X1045200Y181670D03*
Y186670D03*
Y191670D03*
X1050200Y196670D03*
Y201670D03*
Y206670D03*
Y211670D03*
X1045200Y196670D03*
Y201670D03*
Y206670D03*
Y211670D03*
X1050200Y216670D03*
Y221670D03*
X1045200Y216670D03*
Y221670D03*
X1050200Y292100D03*
Y297100D03*
X1045200Y292100D03*
Y297100D03*
X1050200Y302100D03*
Y307100D03*
Y312100D03*
X1045200Y302100D03*
Y307100D03*
Y312100D03*
X1050200Y317100D03*
Y322100D03*
Y327100D03*
Y332100D03*
X1045200Y317100D03*
Y322100D03*
Y327100D03*
Y332100D03*
X1050200Y337100D03*
Y342100D03*
Y347100D03*
X1045200Y337100D03*
Y342100D03*
Y347100D03*
X1050200Y352100D03*
Y357100D03*
Y362100D03*
X1045200Y352100D03*
Y357100D03*
Y362100D03*
X1050200Y367100D03*
Y372100D03*
Y377100D03*
Y382100D03*
X1045200Y367100D03*
Y372100D03*
Y377100D03*
Y382100D03*
X1050200Y387100D03*
Y392100D03*
Y397100D03*
X1045200Y387100D03*
Y392100D03*
Y397100D03*
X1050200Y402100D03*
Y407100D03*
Y412100D03*
Y417100D03*
X1045200Y402100D03*
Y407100D03*
Y412100D03*
Y417100D03*
X1050200Y422100D03*
Y427100D03*
Y432100D03*
X1045200Y422100D03*
Y427100D03*
Y432100D03*
X1050200Y437100D03*
Y442100D03*
Y447100D03*
X1045200Y437100D03*
Y442100D03*
Y447100D03*
X1050200Y452100D03*
Y457100D03*
X1045200Y452100D03*
Y457100D03*
G54D11*
X17300Y210500D03*
X10200Y212510D03*
X17300Y224320D03*
X10200Y216450D03*
Y226290D03*
X17300Y218420D03*
X10200Y242040D03*
Y234160D03*
Y230230D03*
X17300Y240070D03*
Y236130D03*
Y232200D03*
X10200Y259750D03*
Y255820D03*
X17300Y257790D03*
Y253850D03*
X10200Y247940D03*
X17300Y249910D03*
Y279440D03*
Y265660D03*
Y271570D03*
X10200Y273530D03*
Y263690D03*
Y277470D03*
Y297160D03*
X17300Y295190D03*
X10200Y289280D03*
Y281410D03*
X17300Y287310D03*
Y283400D03*
Y303100D03*
X10200Y301090D03*
X37700Y210540D03*
Y224320D03*
X30700Y216450D03*
Y226290D03*
X37700Y218420D03*
X30700Y212510D03*
Y242040D03*
Y234160D03*
X37700Y236130D03*
X37800Y232200D03*
X37700Y240070D03*
X30700Y230230D03*
X27700Y261720D03*
X37700Y257790D03*
X30700Y259750D03*
X37700Y253850D03*
Y249910D03*
X30700Y255820D03*
Y247940D03*
X30740Y271530D03*
X30700Y263690D03*
X37700Y277470D03*
Y273530D03*
X30600Y279440D03*
X37700Y265660D03*
X30700Y287310D03*
X37700Y295190D03*
Y289280D03*
X30700Y297160D03*
Y283380D03*
X37700Y281410D03*
Y303060D03*
X30700Y301090D03*
X121850Y582450D03*
X1038300Y354800D03*
G54D12*
X17500Y228260D03*
Y214480D03*
X10000Y238100D03*
X17500Y261720D03*
X10000Y251880D03*
X17500Y275500D03*
X10000Y285350D03*
X17600Y299120D03*
X37900Y228260D03*
Y214480D03*
X29200Y238100D03*
X30500Y251880D03*
Y275500D03*
X37900Y285350D03*
Y299120D03*
X121850Y554350D03*
G54D13*
X9000Y221370D03*
X20090Y244990D03*
X8700Y268610D03*
X27900Y221370D03*
X26700Y244990D03*
X26010Y268610D03*
X26500Y292240D03*
X121850Y470050D03*
G54D14*
G01X51200Y131600D02*
Y126600D01*
G01X49740Y131600D02*
X52660D01*
G01X55220Y126600D02*
Y131600D01*
G01Y129180D02*
X55540Y129600D01*
X55860Y129850D01*
X56360Y129930D01*
X56740Y129850D01*
X57190Y129520D01*
X57380Y129020D01*
Y126600D01*
G01X61400Y129930D02*
Y126600D01*
G01Y131270D02*
X61270Y131350D01*
Y131520D01*
X61400Y131600D01*
X61530Y131520D01*
Y131350D01*
X61400Y131270D01*
G01X65550Y127180D02*
X65870Y126850D01*
X66310Y126600D01*
X66690D01*
X67070Y126770D01*
X67320Y127020D01*
X67450Y127350D01*
X67390Y127850D01*
X67130Y128100D01*
X65990Y128600D01*
X65740Y129180D01*
X65870Y129600D01*
X66120Y129850D01*
X66500Y129930D01*
X66880Y129850D01*
X67260Y129600D01*
G01X77840Y126600D02*
Y129930D01*
G01Y129350D02*
X77590Y129680D01*
X77210Y129850D01*
X76760Y129930D01*
X76320Y129770D01*
X75940Y129430D01*
X75690Y128930D01*
X75560Y128270D01*
X75690Y127600D01*
X75940Y127100D01*
X76320Y126770D01*
X76760Y126600D01*
X77210Y126680D01*
X77590Y126930D01*
X77840Y127270D01*
G01X80850Y128850D02*
X82880D01*
X82690Y129430D01*
X82370Y129770D01*
X81930Y129930D01*
X81480Y129850D01*
X81100Y129600D01*
X80850Y129020D01*
X80720Y128520D01*
Y128020D01*
X80850Y127520D01*
X81170Y127020D01*
X81550Y126680D01*
X81990Y126600D01*
X82430Y126770D01*
X82880Y127270D01*
G01X86010Y126600D02*
Y129930D01*
G01Y129270D02*
X86330Y129600D01*
X86650Y129850D01*
X87090Y129930D01*
X87410Y129850D01*
X87790Y129600D01*
G01X93140Y126600D02*
Y129930D01*
G01Y129350D02*
X92890Y129680D01*
X92510Y129850D01*
X92060Y129930D01*
X91620Y129770D01*
X91240Y129430D01*
X90990Y128930D01*
X90860Y128270D01*
X90990Y127600D01*
X91240Y127100D01*
X91620Y126770D01*
X92060Y126600D01*
X92510Y126680D01*
X92890Y126930D01*
X93140Y127270D01*
G01X102200Y129930D02*
Y126600D01*
G01Y131270D02*
X102070Y131350D01*
Y131520D01*
X102200Y131600D01*
X102330Y131520D01*
Y131350D01*
X102200Y131270D01*
G01X106350Y127180D02*
X106670Y126850D01*
X107110Y126600D01*
X107490D01*
X107870Y126770D01*
X108120Y127020D01*
X108250Y127350D01*
X108190Y127850D01*
X107930Y128100D01*
X106790Y128600D01*
X106540Y129180D01*
X106670Y129600D01*
X106920Y129850D01*
X107300Y129930D01*
X107680Y129850D01*
X108060Y129600D01*
G01X116420Y126600D02*
Y131600D01*
G01Y129180D02*
X116740Y129600D01*
X117060Y129850D01*
X117560Y129930D01*
X117940Y129850D01*
X118390Y129520D01*
X118580Y129020D01*
Y126600D01*
G01X123740D02*
Y129930D01*
G01Y129350D02*
X123490Y129680D01*
X123110Y129850D01*
X122660Y129930D01*
X122220Y129770D01*
X121840Y129430D01*
X121590Y128930D01*
X121460Y128270D01*
X121590Y127600D01*
X121840Y127100D01*
X122220Y126770D01*
X122660Y126600D01*
X123110Y126680D01*
X123490Y126930D01*
X123740Y127270D01*
G01X126810Y126600D02*
Y129930D01*
G01Y129270D02*
X127130Y129600D01*
X127450Y129850D01*
X127890Y129930D01*
X128210Y129850D01*
X128590Y129600D01*
G01X133940Y131600D02*
Y126600D01*
G01Y127350D02*
X133690Y126930D01*
X133310Y126680D01*
X132860Y126600D01*
X132360Y126770D01*
X131980Y127180D01*
X131720Y127680D01*
X131660Y128270D01*
X131720Y128850D01*
X131980Y129350D01*
X132360Y129770D01*
X132860Y129930D01*
X133310Y129850D01*
X133620Y129680D01*
X133940Y129350D01*
G01X141860Y126600D02*
Y131600D01*
G01Y129100D02*
X142180Y129600D01*
X142560Y129850D01*
X142940Y129930D01*
X143510Y129770D01*
X143890Y129430D01*
X144140Y128850D01*
Y128180D01*
X144010Y127520D01*
X143760Y127020D01*
X143320Y126680D01*
X142940Y126600D01*
X142560Y126680D01*
X142180Y126930D01*
X141860Y127350D01*
G01X148100Y126600D02*
X147720Y126680D01*
X147340Y127020D01*
X147090Y127600D01*
X146960Y128270D01*
X147090Y128930D01*
X147340Y129520D01*
X147720Y129850D01*
X148100Y129930D01*
X148480Y129850D01*
X148860Y129520D01*
X149110Y128930D01*
X149180Y128270D01*
X149110Y127600D01*
X148860Y127020D01*
X148480Y126680D01*
X148100Y126600D01*
G01X154340D02*
Y129930D01*
G01Y129350D02*
X154090Y129680D01*
X153710Y129850D01*
X153260Y129930D01*
X152820Y129770D01*
X152440Y129430D01*
X152190Y128930D01*
X152060Y128270D01*
X152190Y127600D01*
X152440Y127100D01*
X152820Y126770D01*
X153260Y126600D01*
X153710Y126680D01*
X154090Y126930D01*
X154340Y127270D01*
G01X157410Y126600D02*
Y129930D01*
G01Y129270D02*
X157730Y129600D01*
X158050Y129850D01*
X158490Y129930D01*
X158810Y129850D01*
X159190Y129600D01*
G01X164540Y131600D02*
Y126600D01*
G01Y127350D02*
X164290Y126930D01*
X163910Y126680D01*
X163460Y126600D01*
X162960Y126770D01*
X162580Y127180D01*
X162320Y127680D01*
X162260Y128270D01*
X162320Y128850D01*
X162580Y129350D01*
X162960Y129770D01*
X163460Y129930D01*
X163910Y129850D01*
X164220Y129680D01*
X164540Y129350D01*
G01X372000Y171700D02*
Y166700D01*
G01X370540Y171700D02*
X373460D01*
G01X376020Y166700D02*
Y171700D01*
G01Y169280D02*
X376340Y169700D01*
X376660Y169950D01*
X377160Y170030D01*
X377540Y169950D01*
X377990Y169620D01*
X378180Y169120D01*
Y166700D01*
G01X382200Y170030D02*
Y166700D01*
G01Y171370D02*
X382070Y171450D01*
Y171620D01*
X382200Y171700D01*
X382330Y171620D01*
Y171450D01*
X382200Y171370D01*
G01X386350Y167280D02*
X386670Y166950D01*
X387110Y166700D01*
X387490D01*
X387870Y166870D01*
X388120Y167120D01*
X388250Y167450D01*
X388190Y167950D01*
X387930Y168200D01*
X386790Y168700D01*
X386540Y169280D01*
X386670Y169700D01*
X386920Y169950D01*
X387300Y170030D01*
X387680Y169950D01*
X388060Y169700D01*
G01X398640Y166700D02*
Y170030D01*
G01Y169450D02*
X398390Y169780D01*
X398010Y169950D01*
X397560Y170030D01*
X397120Y169870D01*
X396740Y169530D01*
X396490Y169030D01*
X396360Y168370D01*
X396490Y167700D01*
X396740Y167200D01*
X397120Y166870D01*
X397560Y166700D01*
X398010Y166780D01*
X398390Y167030D01*
X398640Y167370D01*
G01X401650Y168950D02*
X403680D01*
X403490Y169530D01*
X403170Y169870D01*
X402730Y170030D01*
X402280Y169950D01*
X401900Y169700D01*
X401650Y169120D01*
X401520Y168620D01*
Y168120D01*
X401650Y167620D01*
X401970Y167120D01*
X402350Y166780D01*
X402790Y166700D01*
X403230Y166870D01*
X403680Y167370D01*
G01X406810Y166700D02*
Y170030D01*
G01Y169370D02*
X407130Y169700D01*
X407450Y169950D01*
X407890Y170030D01*
X408210Y169950D01*
X408590Y169700D01*
G01X413940Y166700D02*
Y170030D01*
G01Y169450D02*
X413690Y169780D01*
X413310Y169950D01*
X412860Y170030D01*
X412420Y169870D01*
X412040Y169530D01*
X411790Y169030D01*
X411660Y168370D01*
X411790Y167700D01*
X412040Y167200D01*
X412420Y166870D01*
X412860Y166700D01*
X413310Y166780D01*
X413690Y167030D01*
X413940Y167370D01*
G01X423000Y170030D02*
Y166700D01*
G01Y171370D02*
X422870Y171450D01*
Y171620D01*
X423000Y171700D01*
X423130Y171620D01*
Y171450D01*
X423000Y171370D01*
G01X427150Y167280D02*
X427470Y166950D01*
X427910Y166700D01*
X428290D01*
X428670Y166870D01*
X428920Y167120D01*
X429050Y167450D01*
X428990Y167950D01*
X428730Y168200D01*
X427590Y168700D01*
X427340Y169280D01*
X427470Y169700D01*
X427720Y169950D01*
X428100Y170030D01*
X428480Y169950D01*
X428860Y169700D01*
G01X437350Y167280D02*
X437670Y166950D01*
X438110Y166700D01*
X438490D01*
X438870Y166870D01*
X439120Y167120D01*
X439250Y167450D01*
X439190Y167950D01*
X438930Y168200D01*
X437790Y168700D01*
X437540Y169280D01*
X437670Y169700D01*
X437920Y169950D01*
X438300Y170030D01*
X438680Y169950D01*
X439060Y169700D01*
G01X443400Y166700D02*
X443020Y166780D01*
X442640Y167120D01*
X442390Y167700D01*
X442260Y168370D01*
X442390Y169030D01*
X442640Y169620D01*
X443020Y169950D01*
X443400Y170030D01*
X443780Y169950D01*
X444160Y169620D01*
X444410Y169030D01*
X444480Y168370D01*
X444410Y167700D01*
X444160Y167120D01*
X443780Y166780D01*
X443400Y166700D01*
G01X448120D02*
Y170950D01*
X448250Y171370D01*
X448500Y171620D01*
X448880Y171700D01*
X449260Y171530D01*
X449450Y171120D01*
G01X448690Y169700D02*
X447420D01*
G01X453600Y171700D02*
Y166700D01*
G01X452710Y170030D02*
X454490D01*
G01X462660Y166700D02*
Y171700D01*
G01Y169200D02*
X462980Y169700D01*
X463360Y169950D01*
X463740Y170030D01*
X464310Y169870D01*
X464690Y169530D01*
X464940Y168950D01*
Y168280D01*
X464810Y167620D01*
X464560Y167120D01*
X464120Y166780D01*
X463740Y166700D01*
X463360Y166780D01*
X462980Y167030D01*
X462660Y167450D01*
G01X468900Y166700D02*
X468520Y166780D01*
X468140Y167120D01*
X467890Y167700D01*
X467760Y168370D01*
X467890Y169030D01*
X468140Y169620D01*
X468520Y169950D01*
X468900Y170030D01*
X469280Y169950D01*
X469660Y169620D01*
X469910Y169030D01*
X469980Y168370D01*
X469910Y167700D01*
X469660Y167120D01*
X469280Y166780D01*
X468900Y166700D01*
G01X475140D02*
Y170030D01*
G01Y169450D02*
X474890Y169780D01*
X474510Y169950D01*
X474060Y170030D01*
X473620Y169870D01*
X473240Y169530D01*
X472990Y169030D01*
X472860Y168370D01*
X472990Y167700D01*
X473240Y167200D01*
X473620Y166870D01*
X474060Y166700D01*
X474510Y166780D01*
X474890Y167030D01*
X475140Y167370D01*
G01X478210Y166700D02*
Y170030D01*
G01Y169370D02*
X478530Y169700D01*
X478850Y169950D01*
X479290Y170030D01*
X479610Y169950D01*
X479990Y169700D01*
G01X485340Y171700D02*
Y166700D01*
G01Y167450D02*
X485090Y167030D01*
X484710Y166780D01*
X484260Y166700D01*
X483760Y166870D01*
X483380Y167280D01*
X483120Y167780D01*
X483060Y168370D01*
X483120Y168950D01*
X483380Y169450D01*
X483760Y169870D01*
X484260Y170030D01*
X484710Y169950D01*
X485020Y169780D01*
X485340Y169450D01*
G01X857800Y471800D02*
Y466800D01*
G01X856340Y471800D02*
X859260D01*
G01X861820Y466800D02*
Y471800D01*
G01Y469380D02*
X862140Y469800D01*
X862460Y470050D01*
X862960Y470130D01*
X863340Y470050D01*
X863790Y469720D01*
X863980Y469220D01*
Y466800D01*
G01X868000Y470130D02*
Y466800D01*
G01Y471470D02*
X867870Y471550D01*
Y471720D01*
X868000Y471800D01*
X868130Y471720D01*
Y471550D01*
X868000Y471470D01*
G01X872150Y467380D02*
X872470Y467050D01*
X872910Y466800D01*
X873290D01*
X873670Y466970D01*
X873920Y467220D01*
X874050Y467550D01*
X873990Y468050D01*
X873730Y468300D01*
X872590Y468800D01*
X872340Y469380D01*
X872470Y469800D01*
X872720Y470050D01*
X873100Y470130D01*
X873480Y470050D01*
X873860Y469800D01*
G01X884440Y466800D02*
Y470130D01*
G01Y469550D02*
X884190Y469880D01*
X883810Y470050D01*
X883360Y470130D01*
X882920Y469970D01*
X882540Y469630D01*
X882290Y469130D01*
X882160Y468470D01*
X882290Y467800D01*
X882540Y467300D01*
X882920Y466970D01*
X883360Y466800D01*
X883810Y466880D01*
X884190Y467130D01*
X884440Y467470D01*
G01X887450Y469050D02*
X889480D01*
X889290Y469630D01*
X888970Y469970D01*
X888530Y470130D01*
X888080Y470050D01*
X887700Y469800D01*
X887450Y469220D01*
X887320Y468720D01*
Y468220D01*
X887450Y467720D01*
X887770Y467220D01*
X888150Y466880D01*
X888590Y466800D01*
X889030Y466970D01*
X889480Y467470D01*
G01X892610Y466800D02*
Y470130D01*
G01Y469470D02*
X892930Y469800D01*
X893250Y470050D01*
X893690Y470130D01*
X894010Y470050D01*
X894390Y469800D01*
G01X899740Y466800D02*
Y470130D01*
G01Y469550D02*
X899490Y469880D01*
X899110Y470050D01*
X898660Y470130D01*
X898220Y469970D01*
X897840Y469630D01*
X897590Y469130D01*
X897460Y468470D01*
X897590Y467800D01*
X897840Y467300D01*
X898220Y466970D01*
X898660Y466800D01*
X899110Y466880D01*
X899490Y467130D01*
X899740Y467470D01*
G01X908800Y470130D02*
Y466800D01*
G01Y471470D02*
X908670Y471550D01*
Y471720D01*
X908800Y471800D01*
X908930Y471720D01*
Y471550D01*
X908800Y471470D01*
G01X912950Y467380D02*
X913270Y467050D01*
X913710Y466800D01*
X914090D01*
X914470Y466970D01*
X914720Y467220D01*
X914850Y467550D01*
X914790Y468050D01*
X914530Y468300D01*
X913390Y468800D01*
X913140Y469380D01*
X913270Y469800D01*
X913520Y470050D01*
X913900Y470130D01*
X914280Y470050D01*
X914660Y469800D01*
G01X923020Y466800D02*
Y471800D01*
G01Y469380D02*
X923340Y469800D01*
X923660Y470050D01*
X924160Y470130D01*
X924540Y470050D01*
X924990Y469720D01*
X925180Y469220D01*
Y466800D01*
G01X930340D02*
Y470130D01*
G01Y469550D02*
X930090Y469880D01*
X929710Y470050D01*
X929260Y470130D01*
X928820Y469970D01*
X928440Y469630D01*
X928190Y469130D01*
X928060Y468470D01*
X928190Y467800D01*
X928440Y467300D01*
X928820Y466970D01*
X929260Y466800D01*
X929710Y466880D01*
X930090Y467130D01*
X930340Y467470D01*
G01X933410Y466800D02*
Y470130D01*
G01Y469470D02*
X933730Y469800D01*
X934050Y470050D01*
X934490Y470130D01*
X934810Y470050D01*
X935190Y469800D01*
G01X940540Y471800D02*
Y466800D01*
G01Y467550D02*
X940290Y467130D01*
X939910Y466880D01*
X939460Y466800D01*
X938960Y466970D01*
X938580Y467380D01*
X938320Y467880D01*
X938260Y468470D01*
X938320Y469050D01*
X938580Y469550D01*
X938960Y469970D01*
X939460Y470130D01*
X939910Y470050D01*
X940220Y469880D01*
X940540Y469550D01*
G01X948460Y466800D02*
Y471800D01*
G01Y469300D02*
X948780Y469800D01*
X949160Y470050D01*
X949540Y470130D01*
X950110Y469970D01*
X950490Y469630D01*
X950740Y469050D01*
Y468380D01*
X950610Y467720D01*
X950360Y467220D01*
X949920Y466880D01*
X949540Y466800D01*
X949160Y466880D01*
X948780Y467130D01*
X948460Y467550D01*
G01X954700Y466800D02*
X954320Y466880D01*
X953940Y467220D01*
X953690Y467800D01*
X953560Y468470D01*
X953690Y469130D01*
X953940Y469720D01*
X954320Y470050D01*
X954700Y470130D01*
X955080Y470050D01*
X955460Y469720D01*
X955710Y469130D01*
X955780Y468470D01*
X955710Y467800D01*
X955460Y467220D01*
X955080Y466880D01*
X954700Y466800D01*
G01X960940D02*
Y470130D01*
G01Y469550D02*
X960690Y469880D01*
X960310Y470050D01*
X959860Y470130D01*
X959420Y469970D01*
X959040Y469630D01*
X958790Y469130D01*
X958660Y468470D01*
X958790Y467800D01*
X959040Y467300D01*
X959420Y466970D01*
X959860Y466800D01*
X960310Y466880D01*
X960690Y467130D01*
X960940Y467470D01*
G01X964010Y466800D02*
Y470130D01*
G01Y469470D02*
X964330Y469800D01*
X964650Y470050D01*
X965090Y470130D01*
X965410Y470050D01*
X965790Y469800D01*
G01X971140Y471800D02*
Y466800D01*
G01Y467550D02*
X970890Y467130D01*
X970510Y466880D01*
X970060Y466800D01*
X969560Y466970D01*
X969180Y467380D01*
X968920Y467880D01*
X968860Y468470D01*
X968920Y469050D01*
X969180Y469550D01*
X969560Y469970D01*
X970060Y470130D01*
X970510Y470050D01*
X970820Y469880D01*
X971140Y469550D01*
G01X874100Y52900D02*
Y47900D01*
G01X872640Y52900D02*
X875560D01*
G01X878120Y47900D02*
Y52900D01*
G01Y50480D02*
X878440Y50900D01*
X878760Y51150D01*
X879260Y51230D01*
X879640Y51150D01*
X880090Y50820D01*
X880280Y50320D01*
Y47900D01*
G01X884300Y51230D02*
Y47900D01*
G01Y52570D02*
X884170Y52650D01*
Y52820D01*
X884300Y52900D01*
X884430Y52820D01*
Y52650D01*
X884300Y52570D01*
G01X888450Y48480D02*
X888770Y48150D01*
X889210Y47900D01*
X889590D01*
X889970Y48070D01*
X890220Y48320D01*
X890350Y48650D01*
X890290Y49150D01*
X890030Y49400D01*
X888890Y49900D01*
X888640Y50480D01*
X888770Y50900D01*
X889020Y51150D01*
X889400Y51230D01*
X889780Y51150D01*
X890160Y50900D01*
G01X900740Y47900D02*
Y51230D01*
G01Y50650D02*
X900490Y50980D01*
X900110Y51150D01*
X899660Y51230D01*
X899220Y51070D01*
X898840Y50730D01*
X898590Y50230D01*
X898460Y49570D01*
X898590Y48900D01*
X898840Y48400D01*
X899220Y48070D01*
X899660Y47900D01*
X900110Y47980D01*
X900490Y48230D01*
X900740Y48570D01*
G01X903750Y50150D02*
X905780D01*
X905590Y50730D01*
X905270Y51070D01*
X904830Y51230D01*
X904380Y51150D01*
X904000Y50900D01*
X903750Y50320D01*
X903620Y49820D01*
Y49320D01*
X903750Y48820D01*
X904070Y48320D01*
X904450Y47980D01*
X904890Y47900D01*
X905330Y48070D01*
X905780Y48570D01*
G01X908910Y47900D02*
Y51230D01*
G01Y50570D02*
X909230Y50900D01*
X909550Y51150D01*
X909990Y51230D01*
X910310Y51150D01*
X910690Y50900D01*
G01X916040Y47900D02*
Y51230D01*
G01Y50650D02*
X915790Y50980D01*
X915410Y51150D01*
X914960Y51230D01*
X914520Y51070D01*
X914140Y50730D01*
X913890Y50230D01*
X913760Y49570D01*
X913890Y48900D01*
X914140Y48400D01*
X914520Y48070D01*
X914960Y47900D01*
X915410Y47980D01*
X915790Y48230D01*
X916040Y48570D01*
G01X925100Y51230D02*
Y47900D01*
G01Y52570D02*
X924970Y52650D01*
Y52820D01*
X925100Y52900D01*
X925230Y52820D01*
Y52650D01*
X925100Y52570D01*
G01X929250Y48480D02*
X929570Y48150D01*
X930010Y47900D01*
X930390D01*
X930770Y48070D01*
X931020Y48320D01*
X931150Y48650D01*
X931090Y49150D01*
X930830Y49400D01*
X929690Y49900D01*
X929440Y50480D01*
X929570Y50900D01*
X929820Y51150D01*
X930200Y51230D01*
X930580Y51150D01*
X930960Y50900D01*
G01X939320Y47900D02*
Y52900D01*
G01Y50480D02*
X939640Y50900D01*
X939960Y51150D01*
X940460Y51230D01*
X940840Y51150D01*
X941290Y50820D01*
X941480Y50320D01*
Y47900D01*
G01X946640D02*
Y51230D01*
G01Y50650D02*
X946390Y50980D01*
X946010Y51150D01*
X945560Y51230D01*
X945120Y51070D01*
X944740Y50730D01*
X944490Y50230D01*
X944360Y49570D01*
X944490Y48900D01*
X944740Y48400D01*
X945120Y48070D01*
X945560Y47900D01*
X946010Y47980D01*
X946390Y48230D01*
X946640Y48570D01*
G01X949710Y47900D02*
Y51230D01*
G01Y50570D02*
X950030Y50900D01*
X950350Y51150D01*
X950790Y51230D01*
X951110Y51150D01*
X951490Y50900D01*
G01X956840Y52900D02*
Y47900D01*
G01Y48650D02*
X956590Y48230D01*
X956210Y47980D01*
X955760Y47900D01*
X955260Y48070D01*
X954880Y48480D01*
X954620Y48980D01*
X954560Y49570D01*
X954620Y50150D01*
X954880Y50650D01*
X955260Y51070D01*
X955760Y51230D01*
X956210Y51150D01*
X956520Y50980D01*
X956840Y50650D01*
G01X964760Y47900D02*
Y52900D01*
G01Y50400D02*
X965080Y50900D01*
X965460Y51150D01*
X965840Y51230D01*
X966410Y51070D01*
X966790Y50730D01*
X967040Y50150D01*
Y49480D01*
X966910Y48820D01*
X966660Y48320D01*
X966220Y47980D01*
X965840Y47900D01*
X965460Y47980D01*
X965080Y48230D01*
X964760Y48650D01*
G01X971000Y47900D02*
X970620Y47980D01*
X970240Y48320D01*
X969990Y48900D01*
X969860Y49570D01*
X969990Y50230D01*
X970240Y50820D01*
X970620Y51150D01*
X971000Y51230D01*
X971380Y51150D01*
X971760Y50820D01*
X972010Y50230D01*
X972080Y49570D01*
X972010Y48900D01*
X971760Y48320D01*
X971380Y47980D01*
X971000Y47900D01*
G01X977240D02*
Y51230D01*
G01Y50650D02*
X976990Y50980D01*
X976610Y51150D01*
X976160Y51230D01*
X975720Y51070D01*
X975340Y50730D01*
X975090Y50230D01*
X974960Y49570D01*
X975090Y48900D01*
X975340Y48400D01*
X975720Y48070D01*
X976160Y47900D01*
X976610Y47980D01*
X976990Y48230D01*
X977240Y48570D01*
G01X980310Y47900D02*
Y51230D01*
G01Y50570D02*
X980630Y50900D01*
X980950Y51150D01*
X981390Y51230D01*
X981710Y51150D01*
X982090Y50900D01*
G01X987440Y52900D02*
Y47900D01*
G01Y48650D02*
X987190Y48230D01*
X986810Y47980D01*
X986360Y47900D01*
X985860Y48070D01*
X985480Y48480D01*
X985220Y48980D01*
X985160Y49570D01*
X985220Y50150D01*
X985480Y50650D01*
X985860Y51070D01*
X986360Y51230D01*
X986810Y51150D01*
X987120Y50980D01*
X987440Y50650D01*
G01X1164790Y257310D02*
X1164410Y257560D01*
X1163970Y257730D01*
X1163460D01*
X1162890Y257480D01*
X1162450Y257060D01*
X1162130Y256560D01*
X1161880Y255730D01*
X1161820Y254980D01*
X1161940Y254230D01*
X1162130Y253730D01*
X1162510Y253230D01*
X1162960Y252900D01*
X1163400Y252730D01*
X1163840D01*
X1164290Y252900D01*
X1164670Y253150D01*
X1164980Y253480D01*
G01X1167420Y256060D02*
Y253730D01*
X1167680Y253150D01*
X1168060Y252810D01*
X1168500Y252730D01*
X1168940Y252810D01*
X1169320Y253150D01*
X1169580Y253730D01*
G01Y252730D02*
Y256060D01*
G01X1173600Y257730D02*
Y252730D01*
G01X1172710Y256060D02*
X1174490D01*
G01X1183800Y257730D02*
Y252730D01*
G01X1182910Y256060D02*
X1184690D01*
G01X1187820Y252730D02*
Y257730D01*
G01Y255310D02*
X1188140Y255730D01*
X1188460Y255980D01*
X1188960Y256060D01*
X1189340Y255980D01*
X1189790Y255650D01*
X1189980Y255150D01*
Y252730D01*
G01X1193050Y254980D02*
X1195080D01*
X1194890Y255560D01*
X1194570Y255900D01*
X1194130Y256060D01*
X1193680Y255980D01*
X1193300Y255730D01*
X1193050Y255150D01*
X1192920Y254650D01*
Y254150D01*
X1193050Y253650D01*
X1193370Y253150D01*
X1193750Y252810D01*
X1194190Y252730D01*
X1194630Y252900D01*
X1195080Y253400D01*
G01X1203060Y252730D02*
Y257730D01*
G01Y255230D02*
X1203380Y255730D01*
X1203760Y255980D01*
X1204140Y256060D01*
X1204710Y255900D01*
X1205090Y255560D01*
X1205340Y254980D01*
Y254310D01*
X1205210Y253650D01*
X1204960Y253150D01*
X1204520Y252810D01*
X1204140Y252730D01*
X1203760Y252810D01*
X1203380Y253060D01*
X1203060Y253480D01*
G01X1209300Y252730D02*
X1208920Y252810D01*
X1208540Y253150D01*
X1208290Y253730D01*
X1208160Y254400D01*
X1208290Y255060D01*
X1208540Y255650D01*
X1208920Y255980D01*
X1209300Y256060D01*
X1209680Y255980D01*
X1210060Y255650D01*
X1210310Y255060D01*
X1210380Y254400D01*
X1210310Y253730D01*
X1210060Y253150D01*
X1209680Y252810D01*
X1209300Y252730D01*
G01X1215540D02*
Y256060D01*
G01Y255480D02*
X1215290Y255810D01*
X1214910Y255980D01*
X1214460Y256060D01*
X1214020Y255900D01*
X1213640Y255560D01*
X1213390Y255060D01*
X1213260Y254400D01*
X1213390Y253730D01*
X1213640Y253230D01*
X1214020Y252900D01*
X1214460Y252730D01*
X1214910Y252810D01*
X1215290Y253060D01*
X1215540Y253400D01*
G01X1218610Y252730D02*
Y256060D01*
G01Y255400D02*
X1218930Y255730D01*
X1219250Y255980D01*
X1219690Y256060D01*
X1220010Y255980D01*
X1220390Y255730D01*
G01X1225740Y257730D02*
Y252730D01*
G01Y253480D02*
X1225490Y253060D01*
X1225110Y252810D01*
X1224660Y252730D01*
X1224160Y252900D01*
X1223780Y253310D01*
X1223520Y253810D01*
X1223460Y254400D01*
X1223520Y254980D01*
X1223780Y255480D01*
X1224160Y255900D01*
X1224660Y256060D01*
X1225110Y255980D01*
X1225420Y255810D01*
X1225740Y255480D01*
G01X1235940Y252730D02*
Y256060D01*
G01Y255480D02*
X1235690Y255810D01*
X1235310Y255980D01*
X1234860Y256060D01*
X1234420Y255900D01*
X1234040Y255560D01*
X1233790Y255060D01*
X1233660Y254400D01*
X1233790Y253730D01*
X1234040Y253230D01*
X1234420Y252900D01*
X1234860Y252730D01*
X1235310Y252810D01*
X1235690Y253060D01*
X1235940Y253400D01*
G01X1239900Y252730D02*
Y257730D01*
G01X1245000Y252730D02*
X1244620Y252810D01*
X1244240Y253150D01*
X1243990Y253730D01*
X1243860Y254400D01*
X1243990Y255060D01*
X1244240Y255650D01*
X1244620Y255980D01*
X1245000Y256060D01*
X1245380Y255980D01*
X1245760Y255650D01*
X1246010Y255060D01*
X1246080Y254400D01*
X1246010Y253730D01*
X1245760Y253150D01*
X1245380Y252810D01*
X1245000Y252730D01*
G01X1249020D02*
Y256060D01*
G01Y255230D02*
X1249280Y255650D01*
X1249660Y255980D01*
X1250160Y256060D01*
X1250610Y255980D01*
X1250990Y255650D01*
X1251180Y255060D01*
Y252730D01*
G01X1254310Y251480D02*
X1254760Y251150D01*
X1255260Y251060D01*
X1255710Y251150D01*
X1256090Y251560D01*
X1256340Y252150D01*
Y256060D01*
G01Y255400D02*
X1256090Y255730D01*
X1255710Y255980D01*
X1255260Y256060D01*
X1254760Y255900D01*
X1254440Y255560D01*
X1254190Y254980D01*
X1254060Y254400D01*
X1254120Y253900D01*
X1254380Y253310D01*
X1254760Y252900D01*
X1255260Y252730D01*
X1255640Y252810D01*
X1256090Y253150D01*
X1256340Y253480D01*
G01X1265400Y257730D02*
Y252730D01*
G01X1264510Y256060D02*
X1266290D01*
G01X1269420Y252730D02*
Y257730D01*
G01Y255310D02*
X1269740Y255730D01*
X1270060Y255980D01*
X1270560Y256060D01*
X1270940Y255980D01*
X1271390Y255650D01*
X1271580Y255150D01*
Y252730D01*
G01X1275600Y256060D02*
Y252730D01*
G01Y257400D02*
X1275470Y257480D01*
Y257650D01*
X1275600Y257730D01*
X1275730Y257650D01*
Y257480D01*
X1275600Y257400D01*
G01X1279750Y253310D02*
X1280070Y252980D01*
X1280510Y252730D01*
X1280890D01*
X1281270Y252900D01*
X1281520Y253150D01*
X1281650Y253480D01*
X1281590Y253980D01*
X1281330Y254230D01*
X1280190Y254730D01*
X1279940Y255310D01*
X1280070Y255730D01*
X1280320Y255980D01*
X1280700Y256060D01*
X1281080Y255980D01*
X1281460Y255730D01*
G01X1290900Y252730D02*
Y257730D01*
G01X1296000Y256060D02*
Y252730D01*
G01Y257400D02*
X1295870Y257480D01*
Y257650D01*
X1296000Y257730D01*
X1296130Y257650D01*
Y257480D01*
X1296000Y257400D01*
G01X1300020Y252730D02*
Y256060D01*
G01Y255230D02*
X1300280Y255650D01*
X1300660Y255980D01*
X1301160Y256060D01*
X1301610Y255980D01*
X1301990Y255650D01*
X1302180Y255060D01*
Y252730D01*
G01X1305250Y254980D02*
X1307280D01*
X1307090Y255560D01*
X1306770Y255900D01*
X1306330Y256060D01*
X1305880Y255980D01*
X1305500Y255730D01*
X1305250Y255150D01*
X1305120Y254650D01*
Y254150D01*
X1305250Y253650D01*
X1305570Y253150D01*
X1305950Y252810D01*
X1306390Y252730D01*
X1306830Y252900D01*
X1307280Y253400D01*
G01X-58310Y259050D02*
X-57380Y257590D01*
X-56140Y256760D01*
X-54740Y256550D01*
X-53500Y256760D01*
X-52260Y257800D01*
X-51490Y259050D01*
X-51340Y260300D01*
X-51640Y261760D01*
X-52730Y262800D01*
X-53820Y263220D01*
X-55210D01*
G01X-53820D02*
X-52890Y263840D01*
X-52110Y264880D01*
X-51800Y266130D01*
X-52110Y267380D01*
X-52890Y268420D01*
X-54280Y269050D01*
X-55670Y268840D01*
X-57070Y268010D01*
G01X-42810Y256550D02*
X-42500Y259260D01*
X-42030Y261550D01*
X-41420Y263630D01*
X-40640Y265920D01*
X-39400Y269050D01*
X-45600D01*
G01X-30100Y256130D02*
X-30410Y256340D01*
Y256760D01*
X-30100Y256970D01*
X-29790Y256760D01*
Y256340D01*
X-30100Y256130D01*
G01X-21110Y259050D02*
X-20180Y257590D01*
X-18940Y256760D01*
X-17540Y256550D01*
X-16300Y256760D01*
X-15060Y257800D01*
X-14290Y259050D01*
X-14140Y260300D01*
X-14440Y261760D01*
X-15530Y262800D01*
X-16620Y263220D01*
X-18010D01*
G01X-16620D02*
X-15690Y263840D01*
X-14910Y264880D01*
X-14600Y266130D01*
X-14910Y267380D01*
X-15690Y268420D01*
X-17080Y269050D01*
X-18470Y268840D01*
X-19870Y268010D01*
G01X-7940Y258010D02*
X-6850Y256970D01*
X-5610Y256550D01*
X-4370Y256970D01*
X-3290Y258220D01*
X-2510Y260090D01*
X-2200Y261970D01*
Y264260D01*
X-2510Y266130D01*
X-3290Y267800D01*
X-4220Y268630D01*
X-5300Y269050D01*
X-6540Y268630D01*
X-7470Y267800D01*
X-8090Y266550D01*
X-8400Y264880D01*
X-8090Y263430D01*
X-7310Y261970D01*
X-6380Y261130D01*
X-5300Y260920D01*
X-4060Y261340D01*
X-3130Y262380D01*
X-2200Y264260D01*
G01X-52500Y360350D02*
Y372850D01*
X-54360Y370350D01*
G01Y360350D02*
X-50640D01*
G01X-43050Y370770D02*
X-42110Y372020D01*
X-41030Y372640D01*
X-39790Y372850D01*
X-38240Y372430D01*
X-37150Y371390D01*
X-36840Y370140D01*
X-37000Y368890D01*
X-37620Y367850D01*
X-40720Y365770D01*
X-42110Y364310D01*
X-43050Y362220D01*
X-43360Y360350D01*
X-36840D01*
G01X-27700Y359930D02*
X-28010Y360140D01*
Y360560D01*
X-27700Y360770D01*
X-27390Y360560D01*
Y360140D01*
X-27700Y359930D01*
G01X-15300Y360350D02*
Y372850D01*
X-17160Y370350D01*
G01Y360350D02*
X-13440D01*
G01X-5540Y361810D02*
X-4450Y360770D01*
X-3210Y360350D01*
X-1970Y360770D01*
X-890Y362020D01*
X-110Y363890D01*
X200Y365770D01*
Y368060D01*
X-110Y369930D01*
X-890Y371600D01*
X-1820Y372430D01*
X-2900Y372850D01*
X-4140Y372430D01*
X-5070Y371600D01*
X-5690Y370350D01*
X-6000Y368680D01*
X-5690Y367230D01*
X-4910Y365770D01*
X-3980Y364930D01*
X-2900Y364720D01*
X-1660Y365140D01*
X-730Y366180D01*
X200Y368060D01*
G01X-10000Y183200D02*
X-40100D01*
G01X-30100Y247180D02*
Y183200D01*
G01X-32600Y198200D02*
X-30100Y183200D01*
X-27600Y198200D01*
X-32600D01*
G01X-30100Y278420D02*
Y330400D01*
G01X-10000D02*
X-40100D01*
G01X-27600Y315400D02*
X-30100Y330400D01*
X-32600Y315400D01*
X-27600D01*
G01X-4500Y170600D02*
Y337400D01*
X48000D01*
Y170600D01*
X-4500D01*
G01X0Y183200D02*
X47800D01*
G01X0D02*
Y330400D01*
X48000D01*
Y311800D01*
X886000D01*
X1027300Y453100D01*
Y482400D01*
X1068100D01*
Y266900D01*
X1027300D01*
Y246900D01*
X1068100D01*
Y31400D01*
X1027300D01*
Y60700D01*
X886000Y202000D01*
X48000D01*
Y183200D01*
G01X0Y340400D02*
Y376600D01*
G01X11120Y366600D02*
X0D01*
G01X15000Y369100D02*
X0Y366600D01*
X15000Y364100D01*
Y369100D01*
G01X0Y366600D02*
X48000D01*
G01X41730Y162720D02*
X33500Y175500D01*
X37140Y160740D01*
X41730Y162720D01*
G01X33500Y175500D02*
X50100Y137000D01*
G01X33000Y364100D02*
X48000Y366600D01*
X33000Y369100D01*
Y364100D01*
G01X47800Y183200D02*
X48000D01*
G01X45800Y314900D02*
X876000D01*
X1023100Y462000D01*
X1030500D01*
X1031400Y461100D01*
Y54700D01*
X1019800D01*
X881300Y193200D01*
X42400D01*
X42300Y193300D01*
Y314800D01*
X42400Y314900D01*
X45800D01*
G01X48000Y321800D02*
Y380800D01*
G01Y340400D02*
Y376600D01*
G01X440880Y370800D02*
X48000D01*
G01X63000Y373300D02*
X48000Y370800D01*
X63000Y368300D01*
Y373300D01*
G01X76900Y427900D02*
Y677700D01*
X560500D01*
Y427900D01*
X76900D01*
G01Y456000D02*
X560500D01*
G01X76900Y484100D02*
X560500D01*
G01X76900Y512200D02*
X560500D01*
G01X76900Y540300D02*
X560500D01*
G01X76900Y568400D02*
X560500D01*
G01X87900Y605850D02*
Y618350D01*
X93800D01*
G01X91620Y612310D02*
X87900D01*
G01X101390Y618350D02*
X105110D01*
G01X103250D02*
Y605850D01*
G01X101390D02*
X105110D01*
G01X116580Y612100D02*
X119680D01*
Y608350D01*
X118750Y607100D01*
X117660Y606270D01*
X116120Y605850D01*
X114570Y606270D01*
X113480Y607100D01*
X112550Y608350D01*
X111930Y609810D01*
X111620Y611470D01*
Y612930D01*
X111930Y614180D01*
X112550Y615640D01*
X113480Y616890D01*
X114410Y617720D01*
X115650Y618350D01*
X116730D01*
X117970Y617930D01*
X118910Y617100D01*
G01X124640Y618350D02*
Y609390D01*
X125260Y607520D01*
X126500Y606270D01*
X128050Y605850D01*
X129600Y606270D01*
X130840Y607520D01*
X131460Y609390D01*
Y618350D01*
G01X137350Y605850D02*
Y618350D01*
X141220D01*
X142460Y617720D01*
X143240Y616890D01*
X143550Y615220D01*
X143240Y613560D01*
X142310Y612520D01*
X141220Y611890D01*
X137350D01*
G01X141220D02*
X143550Y605850D01*
G01X155950D02*
X149750D01*
Y618350D01*
X155950D01*
G01X153470Y612310D02*
X149750D01*
G01X76900Y596500D02*
X560500D01*
G01X76900Y624600D02*
X560500D01*
G01X76900Y652700D02*
X560500D01*
G01X1081700Y256800D02*
X91800D01*
G01X160290Y658950D02*
Y671450D01*
X163390D01*
X164630Y670820D01*
X165560Y669990D01*
X166340Y668740D01*
X166960Y667280D01*
X167110Y665200D01*
X166960Y663120D01*
X166340Y661660D01*
X165560Y660410D01*
X164630Y659570D01*
X163390Y658950D01*
X160290D01*
G01X173000D02*
Y671450D01*
X176870D01*
X178110Y670820D01*
X178890Y669990D01*
X179200Y668320D01*
X178890Y666660D01*
X177960Y665620D01*
X176870Y664990D01*
X173000D01*
G01X176870D02*
X179200Y658950D01*
G01X186640Y671450D02*
X190360D01*
G01X188500D02*
Y658950D01*
G01X186640D02*
X190360D01*
G01X197800Y671450D02*
Y658950D01*
X204000D01*
G01X210200Y671450D02*
Y658950D01*
X216400D01*
G01X241510Y670410D02*
X240580Y671030D01*
X239500Y671450D01*
X238260D01*
X236860Y670820D01*
X235780Y669780D01*
X235000Y668530D01*
X234380Y666450D01*
X234220Y664570D01*
X234540Y662700D01*
X235000Y661450D01*
X235930Y660200D01*
X237020Y659370D01*
X238100Y658950D01*
X239180D01*
X240270Y659370D01*
X241200Y659990D01*
X241980Y660820D01*
G01X247240Y658950D02*
Y671450D01*
G01X253760D02*
Y658950D01*
G01Y665200D02*
X247240D01*
G01X259020Y658950D02*
X262900Y671450D01*
X266780Y658950D01*
G01X265380Y663320D02*
X260420D01*
G01X272200Y658950D02*
Y671450D01*
X276070D01*
X277310Y670820D01*
X278090Y669990D01*
X278400Y668320D01*
X278090Y666660D01*
X277160Y665620D01*
X276070Y664990D01*
X272200D01*
G01X276070D02*
X278400Y658950D01*
G01X287700Y671450D02*
Y658950D01*
G01X284140Y671450D02*
X291260D01*
G01X300100Y658530D02*
X299790Y658740D01*
Y659160D01*
X300100Y659370D01*
X300410Y659160D01*
Y658740D01*
X300100Y658530D01*
G01Y664160D02*
X299790Y664370D01*
Y664780D01*
X300100Y664990D01*
X300410Y664780D01*
Y664370D01*
X300100Y664160D01*
G01X324900Y671450D02*
Y658950D01*
G01X321340Y671450D02*
X328460D01*
G01X337300Y658950D02*
X336060Y659160D01*
X334980Y659990D01*
X334040Y661240D01*
X333420Y662700D01*
X333110Y664370D01*
Y666030D01*
X333420Y667700D01*
X334040Y669160D01*
X334980Y670410D01*
X336060Y671240D01*
X337300Y671450D01*
X338540Y671240D01*
X339620Y670410D01*
X340560Y669160D01*
X341180Y667700D01*
X341490Y666030D01*
Y664370D01*
X341180Y662700D01*
X340560Y661240D01*
X339620Y659990D01*
X338540Y659160D01*
X337300Y658950D01*
G01X346600D02*
Y671450D01*
X350320D01*
X351560Y670820D01*
X352490Y669370D01*
X352800Y667700D01*
X352490Y666030D01*
X351710Y664780D01*
X350320Y664160D01*
X346600D01*
G01X374500Y671450D02*
Y658950D01*
G01X372330Y667280D02*
X376670D01*
G01X386900Y658950D02*
X385970Y659160D01*
X385040Y659990D01*
X384420Y661450D01*
X384110Y663120D01*
X384420Y664780D01*
X385040Y666240D01*
X385970Y667070D01*
X386900Y667280D01*
X387830Y667070D01*
X388760Y666240D01*
X389380Y664780D01*
X389540Y663120D01*
X389380Y661450D01*
X388760Y659990D01*
X387830Y659160D01*
X386900Y658950D01*
G01X412940Y665620D02*
X413560Y666240D01*
X414020Y667280D01*
X414340Y668740D01*
X414020Y669990D01*
X413410Y670820D01*
X412320Y671450D01*
X408140D01*
Y658950D01*
X413250D01*
X414340Y659780D01*
X414960Y661030D01*
X415260Y662490D01*
X414960Y663950D01*
X414020Y665200D01*
X412940Y665620D01*
X408140D01*
G01X424100Y658950D02*
X422860Y659160D01*
X421780Y659990D01*
X420840Y661240D01*
X420220Y662700D01*
X419910Y664370D01*
Y666030D01*
X420220Y667700D01*
X420840Y669160D01*
X421780Y670410D01*
X422860Y671240D01*
X424100Y671450D01*
X425340Y671240D01*
X426420Y670410D01*
X427360Y669160D01*
X427980Y667700D01*
X428290Y666030D01*
Y664370D01*
X427980Y662700D01*
X427360Y661240D01*
X426420Y659990D01*
X425340Y659160D01*
X424100Y658950D01*
G01X436500Y671450D02*
Y658950D01*
G01X432940Y671450D02*
X440060D01*
G01X448900D02*
Y658950D01*
G01X445340Y671450D02*
X452460D01*
G01X461300Y658950D02*
X460060Y659160D01*
X458980Y659990D01*
X458040Y661240D01*
X457420Y662700D01*
X457110Y664370D01*
Y666030D01*
X457420Y667700D01*
X458040Y669160D01*
X458980Y670410D01*
X460060Y671240D01*
X461300Y671450D01*
X462540Y671240D01*
X463620Y670410D01*
X464560Y669160D01*
X465180Y667700D01*
X465490Y666030D01*
Y664370D01*
X465180Y662700D01*
X464560Y661240D01*
X463620Y659990D01*
X462540Y659160D01*
X461300Y658950D01*
G01X469670D02*
Y671450D01*
X473700Y661030D01*
X477730Y671450D01*
Y658950D01*
G01X166800Y624600D02*
Y427900D01*
G01X190820Y633950D02*
X194700Y646450D01*
X198580Y633950D01*
G01X197180Y638320D02*
X192220D01*
G01X204000Y646450D02*
Y633950D01*
X210200D01*
G01X216400Y646450D02*
Y633950D01*
X222600D01*
G01X240890Y646450D02*
Y637490D01*
X241510Y635620D01*
X242750Y634370D01*
X244300Y633950D01*
X245850Y634370D01*
X247090Y635620D01*
X247710Y637490D01*
Y646450D01*
G01X253140Y633950D02*
Y646450D01*
X260260Y633950D01*
Y646450D01*
G01X267240D02*
X270960D01*
G01X269100D02*
Y633950D01*
G01X267240D02*
X270960D01*
G01X281500Y646450D02*
Y633950D01*
G01X277940Y646450D02*
X285060D01*
G01X290640Y635620D02*
X291890Y634570D01*
X293280Y633950D01*
X294520D01*
X295760Y634570D01*
X296690Y635620D01*
X297160Y637080D01*
X296850Y638530D01*
X296070Y639780D01*
X294670Y640620D01*
X292820Y641030D01*
X291730Y641870D01*
X291260Y643320D01*
X291580Y644780D01*
X292350Y645820D01*
X293430Y646450D01*
X294520D01*
X295610Y646030D01*
X296540Y644990D01*
G01X314820Y633950D02*
X318700Y646450D01*
X322580Y633950D01*
G01X321180Y638320D02*
X316220D01*
G01X328000Y633950D02*
Y646450D01*
X331870D01*
X333110Y645820D01*
X333890Y644990D01*
X334200Y643320D01*
X333890Y641660D01*
X332960Y640620D01*
X331870Y639990D01*
X328000D01*
G01X331870D02*
X334200Y633950D01*
G01X346600D02*
X340400D01*
Y646450D01*
X346600D01*
G01X344120Y640410D02*
X340400D01*
G01X366440Y646450D02*
X370160D01*
G01X368300D02*
Y633950D01*
G01X366440D02*
X370160D01*
G01X377140D02*
Y646450D01*
X384260Y633950D01*
Y646450D01*
G01X401470Y633950D02*
Y646450D01*
X405500Y636030D01*
X409530Y646450D01*
Y633950D01*
G01X416040Y646450D02*
X419760D01*
G01X417900D02*
Y633950D01*
G01X416040D02*
X419760D01*
G01X427200Y646450D02*
Y633950D01*
X433400D01*
G01X439440Y635620D02*
X440690Y634570D01*
X442080Y633950D01*
X443320D01*
X444560Y634570D01*
X445490Y635620D01*
X445960Y637080D01*
X445650Y638530D01*
X444870Y639780D01*
X443470Y640620D01*
X441620Y641030D01*
X440530Y641870D01*
X440060Y643320D01*
X440380Y644780D01*
X441150Y645820D01*
X442230Y646450D01*
X443320D01*
X444410Y646030D01*
X445340Y644990D01*
G01X244610Y435700D02*
Y448200D01*
X238870Y439240D01*
X246630D01*
G01X255150Y448200D02*
X253910Y447780D01*
X252980Y446740D01*
X252360Y445490D01*
X251890Y443820D01*
X251740Y441950D01*
X251890Y440070D01*
X252360Y438410D01*
X252980Y437160D01*
X253910Y436120D01*
X255150Y435700D01*
X256390Y436120D01*
X257320Y437160D01*
X257940Y438410D01*
X258410Y440070D01*
X258560Y441950D01*
X258410Y443820D01*
X257940Y445490D01*
X257320Y446740D01*
X256390Y447780D01*
X255150Y448200D01*
G01X267550Y435280D02*
X267240Y435490D01*
Y435910D01*
X267550Y436120D01*
X267860Y435910D01*
Y435490D01*
X267550Y435280D01*
G01X279950Y448200D02*
X278710Y447780D01*
X277780Y446740D01*
X277160Y445490D01*
X276690Y443820D01*
X276540Y441950D01*
X276690Y440070D01*
X277160Y438410D01*
X277780Y437160D01*
X278710Y436120D01*
X279950Y435700D01*
X281190Y436120D01*
X282120Y437160D01*
X282740Y438410D01*
X283210Y440070D01*
X283360Y441950D01*
X283210Y443820D01*
X282740Y445490D01*
X282120Y446740D01*
X281190Y447780D01*
X279950Y448200D01*
G01X239800Y474220D02*
X240740Y475470D01*
X241820Y476090D01*
X243060Y476300D01*
X244610Y475880D01*
X245700Y474840D01*
X246010Y473590D01*
X245850Y472340D01*
X245230Y471300D01*
X242130Y469220D01*
X240740Y467760D01*
X239800Y465670D01*
X239490Y463800D01*
X246010D01*
G01X257010D02*
Y476300D01*
X251270Y467340D01*
X259030D01*
G01X267550Y463380D02*
X267240Y463590D01*
Y464010D01*
X267550Y464220D01*
X267860Y464010D01*
Y463590D01*
X267550Y463380D01*
G01X279950Y476300D02*
X278710Y475880D01*
X277780Y474840D01*
X277160Y473590D01*
X276690Y471920D01*
X276540Y470050D01*
X276690Y468170D01*
X277160Y466510D01*
X277780Y465260D01*
X278710Y464220D01*
X279950Y463800D01*
X281190Y464220D01*
X282120Y465260D01*
X282740Y466510D01*
X283210Y468170D01*
X283360Y470050D01*
X283210Y471920D01*
X282740Y473590D01*
X282120Y474840D01*
X281190Y475880D01*
X279950Y476300D01*
G01X239800Y502320D02*
X240740Y503570D01*
X241820Y504190D01*
X243060Y504400D01*
X244610Y503980D01*
X245700Y502940D01*
X246010Y501690D01*
X245850Y500440D01*
X245230Y499400D01*
X242130Y497320D01*
X240740Y495860D01*
X239800Y493770D01*
X239490Y491900D01*
X246010D01*
G01X255150Y504400D02*
X253910Y503980D01*
X252980Y502940D01*
X252360Y501690D01*
X251890Y500020D01*
X251740Y498150D01*
X251890Y496270D01*
X252360Y494610D01*
X252980Y493360D01*
X253910Y492320D01*
X255150Y491900D01*
X256390Y492320D01*
X257320Y493360D01*
X257940Y494610D01*
X258410Y496270D01*
X258560Y498150D01*
X258410Y500020D01*
X257940Y501690D01*
X257320Y502940D01*
X256390Y503980D01*
X255150Y504400D01*
G01X267550Y491480D02*
X267240Y491690D01*
Y492110D01*
X267550Y492320D01*
X267860Y492110D01*
Y491690D01*
X267550Y491480D01*
G01X279950Y504400D02*
X278710Y503980D01*
X277780Y502940D01*
X277160Y501690D01*
X276690Y500020D01*
X276540Y498150D01*
X276690Y496270D01*
X277160Y494610D01*
X277780Y493360D01*
X278710Y492320D01*
X279950Y491900D01*
X281190Y492320D01*
X282120Y493360D01*
X282740Y494610D01*
X283210Y496270D01*
X283360Y498150D01*
X283210Y500020D01*
X282740Y501690D01*
X282120Y502940D01*
X281190Y503980D01*
X279950Y504400D01*
G01X242750Y520000D02*
Y532500D01*
X240890Y530000D01*
G01Y520000D02*
X244610D01*
G01X252200Y525210D02*
X253290Y526670D01*
X254220Y527500D01*
X255460Y527920D01*
X256550Y527500D01*
X257320Y526670D01*
X257940Y525420D01*
X258100Y523960D01*
X257940Y522710D01*
X257320Y521460D01*
X256390Y520420D01*
X255310Y520000D01*
X254070Y520420D01*
X252980Y521670D01*
X252360Y523540D01*
X252200Y525620D01*
X252510Y528330D01*
X252980Y529790D01*
X253750Y531250D01*
X254840Y532290D01*
X255920Y532500D01*
X257010Y532080D01*
X257790Y531040D01*
G01X267550Y519580D02*
X267240Y519790D01*
Y520210D01*
X267550Y520420D01*
X267860Y520210D01*
Y519790D01*
X267550Y519580D01*
G01X279950Y532500D02*
X278710Y532080D01*
X277780Y531040D01*
X277160Y529790D01*
X276690Y528120D01*
X276540Y526250D01*
X276690Y524370D01*
X277160Y522710D01*
X277780Y521460D01*
X278710Y520420D01*
X279950Y520000D01*
X281190Y520420D01*
X282120Y521460D01*
X282740Y522710D01*
X283210Y524370D01*
X283360Y526250D01*
X283210Y528120D01*
X282740Y529790D01*
X282120Y531040D01*
X281190Y532080D01*
X279950Y532500D01*
G01X242750Y548100D02*
Y560600D01*
X240890Y558100D01*
G01Y548100D02*
X244610D01*
G01X255150Y560600D02*
X253910Y560180D01*
X252980Y559140D01*
X252360Y557890D01*
X251890Y556220D01*
X251740Y554350D01*
X251890Y552470D01*
X252360Y550810D01*
X252980Y549560D01*
X253910Y548520D01*
X255150Y548100D01*
X256390Y548520D01*
X257320Y549560D01*
X257940Y550810D01*
X258410Y552470D01*
X258560Y554350D01*
X258410Y556220D01*
X257940Y557890D01*
X257320Y559140D01*
X256390Y560180D01*
X255150Y560600D01*
G01X267550Y547680D02*
X267240Y547890D01*
Y548310D01*
X267550Y548520D01*
X267860Y548310D01*
Y547890D01*
X267550Y547680D01*
G01X279950Y560600D02*
X278710Y560180D01*
X277780Y559140D01*
X277160Y557890D01*
X276690Y556220D01*
X276540Y554350D01*
X276690Y552470D01*
X277160Y550810D01*
X277780Y549560D01*
X278710Y548520D01*
X279950Y548100D01*
X281190Y548520D01*
X282120Y549560D01*
X282740Y550810D01*
X283210Y552470D01*
X283360Y554350D01*
X283210Y556220D01*
X282740Y557890D01*
X282120Y559140D01*
X281190Y560180D01*
X279950Y560600D01*
G01X248950Y576200D02*
X250030Y576410D01*
X251270Y577030D01*
X252050Y578070D01*
X252360Y579530D01*
X252050Y580990D01*
X251120Y582240D01*
X249720Y582870D01*
X248180D01*
X247240Y583280D01*
X246470Y584320D01*
X246160Y585780D01*
X246630Y587240D01*
X247710Y588280D01*
X248950Y588700D01*
X250190Y588280D01*
X251270Y587240D01*
X251740Y585780D01*
X251430Y584320D01*
X250660Y583280D01*
X249720Y582870D01*
X248180D01*
X246780Y582240D01*
X245850Y580990D01*
X245540Y579530D01*
X245850Y578070D01*
X246630Y577030D01*
X247870Y576410D01*
X248950Y576200D01*
G01X261350Y575780D02*
X261040Y575990D01*
Y576410D01*
X261350Y576620D01*
X261660Y576410D01*
Y575990D01*
X261350Y575780D01*
G01X273750Y588700D02*
X272510Y588280D01*
X271580Y587240D01*
X270960Y585990D01*
X270490Y584320D01*
X270340Y582450D01*
X270490Y580570D01*
X270960Y578910D01*
X271580Y577660D01*
X272510Y576620D01*
X273750Y576200D01*
X274990Y576620D01*
X275920Y577660D01*
X276540Y578910D01*
X277010Y580570D01*
X277160Y582450D01*
X277010Y584320D01*
X276540Y585990D01*
X275920Y587240D01*
X274990Y588280D01*
X273750Y588700D01*
G01X239490Y607520D02*
X240740Y606470D01*
X242130Y605850D01*
X243370D01*
X244610Y606470D01*
X245540Y607520D01*
X246010Y608980D01*
X245700Y610430D01*
X244920Y611680D01*
X243520Y612520D01*
X241670Y612930D01*
X240580Y613770D01*
X240110Y615220D01*
X240430Y616680D01*
X241200Y617720D01*
X242280Y618350D01*
X243370D01*
X244460Y617930D01*
X245390Y616890D01*
G01X253290Y618350D02*
X257010D01*
G01X255150D02*
Y605850D01*
G01X253290D02*
X257010D01*
G01X264600Y618350D02*
X270500D01*
X264600Y605850D01*
X270500D01*
G01X283050D02*
X276850D01*
Y618350D01*
X283050D01*
G01X280570Y612310D02*
X276850D01*
G01X355900Y624600D02*
Y427900D01*
G01X383000Y197400D02*
X399400Y172800D01*
G01X393400Y186310D02*
X383000Y197400D01*
X389240Y183530D01*
X393400Y186310D01*
G01X385350Y435700D02*
Y448200D01*
X389070D01*
X390310Y447570D01*
X391240Y446120D01*
X391550Y444450D01*
X391240Y442780D01*
X390460Y441530D01*
X389070Y440910D01*
X385350D01*
G01X397750Y448200D02*
Y435700D01*
X403950D01*
G01X409370D02*
X413250Y448200D01*
X417130Y435700D01*
G01X415730Y440070D02*
X410770D01*
G01X425650Y448200D02*
Y435700D01*
G01X422090Y448200D02*
X429210D01*
G01X441150Y435700D02*
X434950D01*
Y448200D01*
X441150D01*
G01X438670Y442160D02*
X434950D01*
G01X447040Y435700D02*
Y448200D01*
X450140D01*
X451380Y447570D01*
X452310Y446740D01*
X453090Y445490D01*
X453710Y444030D01*
X453860Y441950D01*
X453710Y439870D01*
X453090Y438410D01*
X452310Y437160D01*
X451380Y436320D01*
X450140Y435700D01*
X447040D01*
G01X385350Y463800D02*
Y476300D01*
X389070D01*
X390310Y475670D01*
X391240Y474220D01*
X391550Y472550D01*
X391240Y470880D01*
X390460Y469630D01*
X389070Y469010D01*
X385350D01*
G01X397750Y476300D02*
Y463800D01*
X403950D01*
G01X409370D02*
X413250Y476300D01*
X417130Y463800D01*
G01X415730Y468170D02*
X410770D01*
G01X425650Y476300D02*
Y463800D01*
G01X422090Y476300D02*
X429210D01*
G01X441150Y463800D02*
X434950D01*
Y476300D01*
X441150D01*
G01X438670Y470260D02*
X434950D01*
G01X447040Y463800D02*
Y476300D01*
X450140D01*
X451380Y475670D01*
X452310Y474840D01*
X453090Y473590D01*
X453710Y472130D01*
X453860Y470050D01*
X453710Y467970D01*
X453090Y466510D01*
X452310Y465260D01*
X451380Y464420D01*
X450140Y463800D01*
X447040D01*
G01X385350Y491900D02*
Y504400D01*
X389070D01*
X390310Y503770D01*
X391240Y502320D01*
X391550Y500650D01*
X391240Y498980D01*
X390460Y497730D01*
X389070Y497110D01*
X385350D01*
G01X397750Y504400D02*
Y491900D01*
X403950D01*
G01X409370D02*
X413250Y504400D01*
X417130Y491900D01*
G01X415730Y496270D02*
X410770D01*
G01X425650Y504400D02*
Y491900D01*
G01X422090Y504400D02*
X429210D01*
G01X441150Y491900D02*
X434950D01*
Y504400D01*
X441150D01*
G01X438670Y498360D02*
X434950D01*
G01X447040Y491900D02*
Y504400D01*
X450140D01*
X451380Y503770D01*
X452310Y502940D01*
X453090Y501690D01*
X453710Y500230D01*
X453860Y498150D01*
X453710Y496070D01*
X453090Y494610D01*
X452310Y493360D01*
X451380Y492520D01*
X450140Y491900D01*
X447040D01*
G01X385350Y520000D02*
Y532500D01*
X389070D01*
X390310Y531870D01*
X391240Y530420D01*
X391550Y528750D01*
X391240Y527080D01*
X390460Y525830D01*
X389070Y525210D01*
X385350D01*
G01X397750Y532500D02*
Y520000D01*
X403950D01*
G01X409370D02*
X413250Y532500D01*
X417130Y520000D01*
G01X415730Y524370D02*
X410770D01*
G01X425650Y532500D02*
Y520000D01*
G01X422090Y532500D02*
X429210D01*
G01X441150Y520000D02*
X434950D01*
Y532500D01*
X441150D01*
G01X438670Y526460D02*
X434950D01*
G01X447040Y520000D02*
Y532500D01*
X450140D01*
X451380Y531870D01*
X452310Y531040D01*
X453090Y529790D01*
X453710Y528330D01*
X453860Y526250D01*
X453710Y524170D01*
X453090Y522710D01*
X452310Y521460D01*
X451380Y520620D01*
X450140Y520000D01*
X447040D01*
G01X385350Y548100D02*
Y560600D01*
X389070D01*
X390310Y559970D01*
X391240Y558520D01*
X391550Y556850D01*
X391240Y555180D01*
X390460Y553930D01*
X389070Y553310D01*
X385350D01*
G01X397750Y560600D02*
Y548100D01*
X403950D01*
G01X409370D02*
X413250Y560600D01*
X417130Y548100D01*
G01X415730Y552470D02*
X410770D01*
G01X425650Y560600D02*
Y548100D01*
G01X422090Y560600D02*
X429210D01*
G01X441150Y548100D02*
X434950D01*
Y560600D01*
X441150D01*
G01X438670Y554560D02*
X434950D01*
G01X447040Y548100D02*
Y560600D01*
X450140D01*
X451380Y559970D01*
X452310Y559140D01*
X453090Y557890D01*
X453710Y556430D01*
X453860Y554350D01*
X453710Y552270D01*
X453090Y550810D01*
X452310Y549560D01*
X451380Y548720D01*
X450140Y548100D01*
X447040D01*
G01X385350Y576200D02*
Y588700D01*
X389070D01*
X390310Y588070D01*
X391240Y586620D01*
X391550Y584950D01*
X391240Y583280D01*
X390460Y582030D01*
X389070Y581410D01*
X385350D01*
G01X397750Y588700D02*
Y576200D01*
X403950D01*
G01X409370D02*
X413250Y588700D01*
X417130Y576200D01*
G01X415730Y580570D02*
X410770D01*
G01X425650Y588700D02*
Y576200D01*
G01X422090Y588700D02*
X429210D01*
G01X441150Y576200D02*
X434950D01*
Y588700D01*
X441150D01*
G01X438670Y582660D02*
X434950D01*
G01X447040Y576200D02*
Y588700D01*
X450140D01*
X451380Y588070D01*
X452310Y587240D01*
X453090Y585990D01*
X453710Y584530D01*
X453860Y582450D01*
X453710Y580370D01*
X453090Y578910D01*
X452310Y577660D01*
X451380Y576820D01*
X450140Y576200D01*
X447040D01*
G01X385350Y605850D02*
Y618350D01*
X389070D01*
X390310Y617720D01*
X391240Y616270D01*
X391550Y614600D01*
X391240Y612930D01*
X390460Y611680D01*
X389070Y611060D01*
X385350D01*
G01X397750Y618350D02*
Y605850D01*
X403950D01*
G01X409370D02*
X413250Y618350D01*
X417130Y605850D01*
G01X415730Y610220D02*
X410770D01*
G01X425650Y618350D02*
Y605850D01*
G01X422090Y618350D02*
X429210D01*
G01X441150Y605850D02*
X434950D01*
Y618350D01*
X441150D01*
G01X438670Y612310D02*
X434950D01*
G01X447040Y605850D02*
Y618350D01*
X450140D01*
X451380Y617720D01*
X452310Y616890D01*
X453090Y615640D01*
X453710Y614180D01*
X453860Y612100D01*
X453710Y610020D01*
X453090Y608560D01*
X452310Y607310D01*
X451380Y606470D01*
X450140Y605850D01*
X447040D01*
G01X451950Y374970D02*
X452890Y376220D01*
X453970Y376840D01*
X455210Y377050D01*
X456760Y376630D01*
X457850Y375590D01*
X458160Y374340D01*
X458000Y373090D01*
X457380Y372050D01*
X454280Y369970D01*
X452890Y368510D01*
X451950Y366420D01*
X451640Y364550D01*
X458160D01*
G01X467300D02*
Y377050D01*
X465440Y374550D01*
G01Y364550D02*
X469160D01*
G01X476750Y374970D02*
X477690Y376220D01*
X478770Y376840D01*
X480010Y377050D01*
X481560Y376630D01*
X482650Y375590D01*
X482960Y374340D01*
X482800Y373090D01*
X482180Y372050D01*
X479080Y369970D01*
X477690Y368510D01*
X476750Y366420D01*
X476440Y364550D01*
X482960D01*
G01X492100Y364130D02*
X491790Y364340D01*
Y364760D01*
X492100Y364970D01*
X492410Y364760D01*
Y364340D01*
X492100Y364130D01*
G01X504500Y364550D02*
X505580Y364760D01*
X506820Y365380D01*
X507600Y366420D01*
X507910Y367880D01*
X507600Y369340D01*
X506670Y370590D01*
X505270Y371220D01*
X503730D01*
X502790Y371630D01*
X502020Y372670D01*
X501710Y374130D01*
X502180Y375590D01*
X503260Y376630D01*
X504500Y377050D01*
X505740Y376630D01*
X506820Y375590D01*
X507290Y374130D01*
X506980Y372670D01*
X506210Y371630D01*
X505270Y371220D01*
X503730D01*
X502330Y370590D01*
X501400Y369340D01*
X501090Y367880D01*
X501400Y366420D01*
X502180Y365380D01*
X503420Y364760D01*
X504500Y364550D01*
G01X513490Y366420D02*
X514420Y365380D01*
X515500Y364760D01*
X516900Y364550D01*
X518300Y364970D01*
X519380Y365800D01*
X520160Y367260D01*
X520310Y368920D01*
X520000Y370590D01*
X519220Y371630D01*
X518140Y372470D01*
X517060Y372670D01*
X515970Y372470D01*
X514580Y371630D01*
X515040Y377050D01*
X519220D01*
G01X483000Y624600D02*
Y427900D01*
G01X523610Y435700D02*
Y448200D01*
X517870Y439240D01*
X525630D01*
G01X521440Y463800D02*
X521750Y466510D01*
X522220Y468800D01*
X522830Y470880D01*
X523610Y473170D01*
X524850Y476300D01*
X518650D01*
G01X509350Y491900D02*
Y504400D01*
X507490Y501900D01*
G01Y491900D02*
X511210D01*
G01X518340Y494400D02*
X519270Y492940D01*
X520510Y492110D01*
X521910Y491900D01*
X523150Y492110D01*
X524390Y493150D01*
X525160Y494400D01*
X525310Y495650D01*
X525010Y497110D01*
X523920Y498150D01*
X522830Y498570D01*
X521440D01*
G01X522830D02*
X523760Y499190D01*
X524540Y500230D01*
X524850Y501480D01*
X524540Y502730D01*
X523760Y503770D01*
X522370Y504400D01*
X520980Y504190D01*
X519580Y503360D01*
G01X531200Y497110D02*
X532290Y498570D01*
X533220Y499400D01*
X534460Y499820D01*
X535550Y499400D01*
X536320Y498570D01*
X536940Y497320D01*
X537100Y495860D01*
X536940Y494610D01*
X536320Y493360D01*
X535390Y492320D01*
X534310Y491900D01*
X533070Y492320D01*
X531980Y493570D01*
X531360Y495440D01*
X531200Y497520D01*
X531510Y500230D01*
X531980Y501690D01*
X532750Y503150D01*
X533840Y504190D01*
X534920Y504400D01*
X536010Y503980D01*
X536790Y502940D01*
G01X521750Y520000D02*
Y532500D01*
X519890Y530000D01*
G01Y520000D02*
X523610D01*
G01X515550Y548100D02*
Y560600D01*
X513690Y558100D01*
G01Y548100D02*
X517410D01*
G01X524540Y549970D02*
X525470Y548930D01*
X526550Y548310D01*
X527950Y548100D01*
X529350Y548520D01*
X530430Y549350D01*
X531210Y550810D01*
X531360Y552470D01*
X531050Y554140D01*
X530270Y555180D01*
X529190Y556020D01*
X528110Y556220D01*
X527020Y556020D01*
X525630Y555180D01*
X526090Y560600D01*
X530270D01*
G01X512600Y581410D02*
X513690Y582870D01*
X514620Y583700D01*
X515860Y584120D01*
X516950Y583700D01*
X517720Y582870D01*
X518340Y581620D01*
X518500Y580160D01*
X518340Y578910D01*
X517720Y577660D01*
X516790Y576620D01*
X515710Y576200D01*
X514470Y576620D01*
X513380Y577870D01*
X512760Y579740D01*
X512600Y581820D01*
X512910Y584530D01*
X513380Y585990D01*
X514150Y587450D01*
X515240Y588490D01*
X516320Y588700D01*
X517410Y588280D01*
X518190Y587240D01*
G01X525000Y581410D02*
X526090Y582870D01*
X527020Y583700D01*
X528260Y584120D01*
X529350Y583700D01*
X530120Y582870D01*
X530740Y581620D01*
X530900Y580160D01*
X530740Y578910D01*
X530120Y577660D01*
X529190Y576620D01*
X528110Y576200D01*
X526870Y576620D01*
X525780Y577870D01*
X525160Y579740D01*
X525000Y581820D01*
X525310Y584530D01*
X525780Y585990D01*
X526550Y587450D01*
X527640Y588490D01*
X528720Y588700D01*
X529810Y588280D01*
X530590Y587240D01*
G01X509350Y605850D02*
X508110Y606060D01*
X507030Y606890D01*
X506090Y608140D01*
X505470Y609600D01*
X505160Y611270D01*
Y612930D01*
X505470Y614600D01*
X506090Y616060D01*
X507030Y617310D01*
X508110Y618140D01*
X509350Y618350D01*
X510590Y618140D01*
X511670Y617310D01*
X512610Y616060D01*
X513230Y614600D01*
X513540Y612930D01*
Y611270D01*
X513230Y609600D01*
X512610Y608140D01*
X511670Y606890D01*
X510590Y606060D01*
X509350Y605850D01*
G01X510590Y609180D02*
X512450Y605850D01*
G01X521750Y618350D02*
Y605850D01*
G01X518190Y618350D02*
X525310D01*
G01X534150Y605850D02*
Y611470D01*
X531050Y618350D01*
G01X537250D02*
X534150Y611470D01*
G01X530920Y370800D02*
X886000D01*
G01X871000Y368300D02*
X886000Y370800D01*
X871000Y373300D01*
Y368300D01*
G01X886000Y321800D02*
Y380800D01*
G01X1033700Y468300D02*
X974900Y468700D01*
G01X1031500Y42300D02*
X990800Y48800D01*
G01X1027300Y19500D02*
Y252300D01*
X1080100D01*
Y19500D01*
X1027300D01*
G01X1016290Y42200D02*
X1031500Y42300D01*
X1017080Y47130D01*
X1016290Y42200D01*
G01X1027300Y262500D02*
Y490300D01*
X1082000D01*
Y262500D01*
X1027300D01*
G01X1018680Y465900D02*
X1033700Y468300D01*
X1018720Y470900D01*
X1018680Y465900D01*
G01X1027300Y492400D02*
Y523800D01*
G01X1068100Y513800D02*
X1027300D01*
G01X1042300Y516300D02*
X1027300Y513800D01*
X1042300Y511300D01*
Y516300D01*
G01X1053100Y511300D02*
X1068100Y513800D01*
X1053100Y516300D01*
Y511300D01*
G01X1078100Y31400D02*
X1112500D01*
G01X1074290Y125320D02*
X1075220Y124280D01*
X1076300Y123660D01*
X1077700Y123450D01*
X1079100Y123870D01*
X1080180Y124700D01*
X1080960Y126160D01*
X1081110Y127820D01*
X1080800Y129490D01*
X1080020Y130530D01*
X1078940Y131370D01*
X1077860Y131570D01*
X1076770Y131370D01*
X1075380Y130530D01*
X1075840Y135950D01*
X1080020D01*
G01X1091960Y123450D02*
Y135950D01*
X1086220Y126990D01*
X1093980D01*
G01X1102500Y123030D02*
X1102190Y123240D01*
Y123660D01*
X1102500Y123870D01*
X1102810Y123660D01*
Y123240D01*
X1102500Y123030D01*
G01X1114590Y123450D02*
X1114900Y126160D01*
X1115370Y128450D01*
X1115980Y130530D01*
X1116760Y132820D01*
X1118000Y135950D01*
X1111800D01*
G01X1129160Y123450D02*
Y135950D01*
X1123420Y126990D01*
X1131180D01*
G01X1096720Y258850D02*
X1081650Y256800D01*
X1096570Y253850D01*
X1096720Y258850D01*
G01X1081650Y256800D02*
X1158800Y254500D01*
G01X1078100Y246900D02*
X1112500D01*
G01X1078100Y266900D02*
X1110300D01*
G01X1072090Y381320D02*
X1073020Y380280D01*
X1074100Y379660D01*
X1075500Y379450D01*
X1076900Y379870D01*
X1077980Y380700D01*
X1078760Y382160D01*
X1078910Y383820D01*
X1078600Y385490D01*
X1077820Y386530D01*
X1076740Y387370D01*
X1075660Y387570D01*
X1074570Y387370D01*
X1073180Y386530D01*
X1073640Y391950D01*
X1077820D01*
G01X1089760Y379450D02*
Y391950D01*
X1084020Y382990D01*
X1091780D01*
G01X1100300Y379030D02*
X1099990Y379240D01*
Y379660D01*
X1100300Y379870D01*
X1100610Y379660D01*
Y379240D01*
X1100300Y379030D01*
G01X1112390Y379450D02*
X1112700Y382160D01*
X1113170Y384450D01*
X1113780Y386530D01*
X1114560Y388820D01*
X1115800Y391950D01*
X1109600D01*
G01X1126960Y379450D02*
Y391950D01*
X1121220Y382990D01*
X1128980D01*
G01X1078100Y482400D02*
X1110300D01*
G01X1068100Y492400D02*
Y523800D01*
G01X1096980Y513800D02*
X1068100D01*
G01X1100000Y46400D02*
X1102500Y31400D01*
X1105000Y46400D01*
X1100000D01*
G01X1105000Y231900D02*
X1102500Y246900D01*
X1100000Y231900D01*
X1105000D01*
G01X1100300Y370080D02*
Y266900D01*
G01X1097800Y281900D02*
X1100300Y266900D01*
X1102800Y281900D01*
X1097800D01*
G01X1100300Y401320D02*
Y482400D01*
G01X1102800Y467400D02*
X1100300Y482400D01*
X1097800Y467400D01*
X1102800D01*
G01X1102500Y114080D02*
Y31400D01*
G01Y145320D02*
Y246900D01*
G01X1111000Y507550D02*
Y520050D01*
X1109140Y517550D01*
G01Y507550D02*
X1112860D01*
G01X1123400Y520050D02*
X1122160Y519630D01*
X1121230Y518590D01*
X1120610Y517340D01*
X1120140Y515670D01*
X1119990Y513800D01*
X1120140Y511920D01*
X1120610Y510260D01*
X1121230Y509010D01*
X1122160Y507970D01*
X1123400Y507550D01*
X1124640Y507970D01*
X1125570Y509010D01*
X1126190Y510260D01*
X1126660Y511920D01*
X1126810Y513800D01*
X1126660Y515670D01*
X1126190Y517340D01*
X1125570Y518590D01*
X1124640Y519630D01*
X1123400Y520050D01*
G01X1135800Y507130D02*
X1135490Y507340D01*
Y507760D01*
X1135800Y507970D01*
X1136110Y507760D01*
Y507340D01*
X1135800Y507130D01*
G01X1144790Y510050D02*
X1145720Y508590D01*
X1146960Y507760D01*
X1148360Y507550D01*
X1149600Y507760D01*
X1150840Y508800D01*
X1151610Y510050D01*
X1151760Y511300D01*
X1151460Y512760D01*
X1150370Y513800D01*
X1149280Y514220D01*
X1147890D01*
G01X1149280D02*
X1150210Y514840D01*
X1150990Y515880D01*
X1151300Y517130D01*
X1150990Y518380D01*
X1150210Y519420D01*
X1148820Y520050D01*
X1147430Y519840D01*
X1146030Y519010D01*
G01X1157650Y512760D02*
X1158740Y514220D01*
X1159670Y515050D01*
X1160910Y515470D01*
X1162000Y515050D01*
X1162770Y514220D01*
X1163390Y512970D01*
X1163550Y511510D01*
X1163390Y510260D01*
X1162770Y509010D01*
X1161840Y507970D01*
X1160760Y507550D01*
X1159520Y507970D01*
X1158430Y509220D01*
X1157810Y511090D01*
X1157650Y513170D01*
X1157960Y515880D01*
X1158430Y517340D01*
X1159200Y518800D01*
X1160290Y519840D01*
X1161370Y520050D01*
X1162460Y519630D01*
X1163240Y518590D01*
M02*
