G04 ================== begin FILE IDENTIFICATION RECORD ==================*
G04 Layout Name:  MR_HR2B_to_DET_Connector.brd*
G04 Film Name:    plane04*
G04 File Format:  Gerber RS274X*
G04 File Origin:  Cadence Allegro 16.6-S025*
G04 Origin Date:  Thu Jun 23 18:16:06 2016*
G04 *
G04 Layer:  ANTI ETCH/ALL*
G04 Layer:  ANTI ETCH/GND1*
G04 Layer:  VIA CLASS/GND1*
G04 Layer:  PIN/GND1*
G04 Layer:  ETCH/GND1*
G04 Layer:  BOARD GEOMETRY/OUTLINE*
G04 *
G04 Offset:    (0.0 0.0)*
G04 Mirror:    No*
G04 Mode:      Negative*
G04 Rotation:  0*
G04 FullContactRelief:  No*
G04 UndefLineWidth:     0.0*
G04 ================== end FILE IDENTIFICATION RECORD ====================*
%FSLAX25Y25*MOIN*%
%IR0*IPPOS*OFA0.00000B0.00000*MIA0B0*SFA1.00000B1.00000*%
%AMMACRO12*
4,1,13,-.004,.009,
-.002366,.009557,
-.00066,.009822,
.001066,.009786,
.002759,.009452,
.004,.009,
.006,.012,
.003853,.012862,
.001589,.013338,
-.000724,.013414,
-.003014,.013087,
-.005213,.012367,
-.006,.012,
-.004,.009,
0.0*
4,1,13,-.009,-.004,
-.009557,-.002366,
-.009822,-.00066,
-.009786,.001066,
-.009452,.002759,
-.009,.004,
-.012,.006,
-.012862,.003853,
-.013338,.001589,
-.013414,-.000724,
-.013087,-.003014,
-.012367,-.005213,
-.012,-.006,
-.009,-.004,
0.0*
4,1,13,.004,-.009,
.002366,-.009557,
.00066,-.009822,
-.001066,-.009786,
-.002759,-.009452,
-.004,-.009,
-.006,-.012,
-.003853,-.012862,
-.001589,-.013338,
.000724,-.013414,
.003014,-.013087,
.005213,-.012367,
.006,-.012,
.004,-.009,
0.0*
4,1,13,.009,.004,
.009557,.002366,
.009822,.00066,
.009786,-.001066,
.009452,-.002759,
.009,-.004,
.012,-.006,
.012862,-.003853,
.013338,-.001589,
.013414,.000724,
.013087,.003014,
.012367,.005213,
.012,.006,
.009,.004,
0.0*
%
%ADD12MACRO12*%
%AMMACRO10*
4,1,15,.029,.015,
.031164,.009734,
.032381,.004173,
.032613,-.001516,
.031854,-.007158,
.030127,-.012583,
.029,-.015,
.034,-.02,
.036957,-.013794,
.038791,-.007169,
.039446,-.000326,
.038904,.006527,
.03718,.013181,
.034326,.019435,
.034,.02,
.029,.015,
0.0*
4,1,15,.015,-.029,
.009734,-.031164,
.004173,-.032381,
-.001516,-.032613,
-.007158,-.031854,
-.012583,-.030127,
-.015,-.029,
-.02,-.034,
-.013794,-.036957,
-.007169,-.038791,
-.000326,-.039446,
.006527,-.038904,
.013181,-.03718,
.019435,-.034326,
.02,-.034,
.015,-.029,
0.0*
4,1,15,-.029,-.015,
-.031164,-.009734,
-.032381,-.004173,
-.032613,.001516,
-.031854,.007158,
-.030127,.012583,
-.029,.015,
-.034,.02,
-.036957,.013794,
-.038791,.007169,
-.039446,.000326,
-.038904,-.006527,
-.03718,-.013181,
-.034326,-.019435,
-.034,-.02,
-.029,-.015,
0.0*
4,1,15,-.015,.029,
-.009734,.031164,
-.004173,.032381,
.001516,.032613,
.007158,.031854,
.012583,.030127,
.015,.029,
.02,.034,
.013794,.036957,
.007169,.038791,
.000326,.039446,
-.006527,.038904,
-.013181,.03718,
-.019435,.034326,
-.02,.034,
-.015,.029,
0.0*
%
%ADD10MACRO10*%
%ADD16C,.034*%
%ADD11C,.025*%
%AMMACRO13*
4,1,16,-.0102,.0172,
-.007058,.01871,
-.003702,.019651,
-.000233,.019996,
.003242,.019732,
.00662,.01887,
.009796,.017433,
.0102,.0172,
.0138,.0209,
.009961,.022979,
.00582,.024359,
.001501,.025,
-.002863,.024881,
-.00714,.024006,
-.0112,.022401,
-.0138,.0209,
-.0102,.0172,
0.0*
4,1,16,-.0172,-.0102,
-.01871,-.007058,
-.019651,-.003702,
-.019996,-.000233,
-.019732,.003242,
-.01887,.00662,
-.017433,.009796,
-.0172,.0102,
-.0209,.0138,
-.022979,.009961,
-.024359,.00582,
-.025,.001501,
-.024881,-.002863,
-.024006,-.00714,
-.022401,-.0112,
-.0209,-.0138,
-.0172,-.0102,
0.0*
4,1,16,.0102,-.0172,
.007058,-.01871,
.003702,-.019651,
.000233,-.019996,
-.003242,-.019732,
-.00662,-.01887,
-.009796,-.017433,
-.0102,-.0172,
-.0138,-.0209,
-.009961,-.022979,
-.00582,-.024359,
-.001501,-.025,
.002863,-.024881,
.00714,-.024006,
.0112,-.022401,
.0138,-.0209,
.0102,-.0172,
0.0*
4,1,16,.0172,.0102,
.01871,.007058,
.019651,.003702,
.019996,.000233,
.019732,-.003242,
.01887,-.00662,
.017433,-.009796,
.0172,-.0102,
.0209,-.0138,
.022979,-.009961,
.024359,-.00582,
.025,-.001501,
.024881,.002863,
.024006,.00714,
.022401,.0112,
.0209,.0138,
.0172,.0102,
0.0*
%
%ADD13MACRO13*%
%AMMACRO14*
4,1,13,-.0057,.0128,
-.003391,.013595,
-.000978,.013978,
.001464,.013935,
.003861,.013469,
.0057,.0128,
.0087,.0158,
.005824,.017071,
.002771,.017823,
-.000366,.018033,
-.003491,.017696,
-.006511,.016821,
-.0087,.0158,
-.0057,.0128,
0.0*
4,1,13,-.0128,-.0057,
-.013595,-.003391,
-.013978,-.000978,
-.013935,.001464,
-.013469,.003861,
-.0128,.0057,
-.0158,.0087,
-.017071,.005824,
-.017823,.002771,
-.018033,-.000366,
-.017696,-.003491,
-.016821,-.006511,
-.0158,-.0087,
-.0128,-.0057,
0.0*
4,1,13,.0057,-.0128,
.003391,-.013595,
.000978,-.013978,
-.001464,-.013935,
-.003861,-.013469,
-.0057,-.0128,
-.0087,-.0158,
-.005824,-.017071,
-.002771,-.017823,
.000366,-.018033,
.003491,-.017696,
.006511,-.016821,
.0087,-.0158,
.0057,-.0128,
0.0*
4,1,13,.0128,.0057,
.013595,.003391,
.013978,.000978,
.013935,-.001464,
.013469,-.003861,
.0128,-.0057,
.0158,-.0087,
.017071,-.005824,
.017823,-.002771,
.018033,.000366,
.017696,.003491,
.016821,.006511,
.0158,.0087,
.0128,.0057,
0.0*
%
%ADD14MACRO14*%
%AMMACRO15*
4,1,14,.0116,.0059,
.012448,.003796,
.012918,.001577,
.012996,-.00069,
.012679,-.002937,
.011976,-.005094,
.0116,-.0059,
.0131,-.0074,
.014186,-.005013,
.014841,-.002473,
.015045,.000141,
.014792,.002752,
.014089,.005279,
.0131,.0074,
.0116,.0059,
270.*
4,1,14,.0059,-.0116,
.003796,-.012448,
.001577,-.012918,
-.00069,-.012996,
-.002937,-.012679,
-.005094,-.011976,
-.0059,-.0116,
-.0074,-.0131,
-.005013,-.014186,
-.002473,-.014841,
.000141,-.015045,
.002752,-.014792,
.005279,-.014089,
.0074,-.0131,
.0059,-.0116,
270.*
4,1,14,-.0116,-.0059,
-.012448,-.003796,
-.012918,-.001577,
-.012996,.00069,
-.012679,.002937,
-.011976,.005094,
-.0116,.0059,
-.0131,.0074,
-.014186,.005013,
-.014841,.002473,
-.015045,-.000141,
-.014792,-.002752,
-.014089,-.005279,
-.0131,-.0074,
-.0116,-.0059,
270.*
4,1,14,-.0059,.0116,
-.003796,.012448,
-.001577,.012918,
.00069,.012996,
.002937,.012679,
.005094,.011976,
.0059,.0116,
.0074,.0131,
.005013,.014186,
.002473,.014841,
-.000141,.015045,
-.002752,.014792,
-.005279,.014089,
-.0074,.0131,
-.0059,.0116,
270.*
%
%ADD15MACRO15*%
G75*
%LPD*%
G75*
G36*
G01X-10000Y21400D02*
X1078100D01*
Y492400D01*
X-10000D01*
Y21400D01*
G37*
%LPC*%
G75*
G36*
G01X44000Y206000D02*
Y187200D01*
X4000D01*
Y326400D01*
X44000D01*
Y307800D01*
X887660D01*
X1031300Y451440D01*
Y478400D01*
X1064100D01*
Y270900D01*
X1023300D01*
Y242900D01*
X1064100D01*
Y35400D01*
X1031300D01*
Y62360D01*
X887660Y206000D01*
X44000D01*
G37*
%LPD*%
G75*
G54D10*
X13240Y197940D03*
X13440Y315660D03*
X35460Y197940D03*
X34560Y315660D03*
G54D12*
X17500Y228260D03*
Y214480D03*
X10000Y238100D03*
X17500Y261720D03*
X10000Y251880D03*
X17500Y275500D03*
X10000Y285350D03*
X17600Y299120D03*
X37900Y228260D03*
Y214480D03*
X29200Y238100D03*
X30500Y251880D03*
X27700Y261720D03*
X30500Y275500D03*
X37900Y285350D03*
Y299120D03*
G54D11*
X17300Y210500D03*
X10200Y212510D03*
X17300Y224320D03*
X10200Y216450D03*
Y226290D03*
X17300Y218420D03*
X10200Y242040D03*
Y234160D03*
Y230230D03*
X17300Y240070D03*
Y236130D03*
Y232200D03*
X10200Y259750D03*
Y255820D03*
X17300Y257790D03*
Y253850D03*
X10200Y247940D03*
X17300Y249910D03*
Y279440D03*
Y265660D03*
Y271570D03*
X10200Y273530D03*
Y263690D03*
Y277470D03*
Y297160D03*
X17300Y295190D03*
X10200Y289280D03*
Y281410D03*
X17300Y287310D03*
Y283400D03*
Y303100D03*
X10200Y301090D03*
X37700Y210540D03*
Y224320D03*
X30700Y216450D03*
Y226290D03*
X37700Y218420D03*
X30700Y212510D03*
Y242040D03*
Y234160D03*
X37700Y236130D03*
X37800Y232200D03*
X37700Y240070D03*
X30700Y230230D03*
X37700Y257790D03*
X30700Y259750D03*
X37700Y253850D03*
Y249910D03*
X30700Y255820D03*
Y247940D03*
X30740Y271530D03*
X30700Y263690D03*
X37700Y277470D03*
Y273530D03*
X30600Y279440D03*
X37700Y265660D03*
X30700Y287310D03*
X37700Y295190D03*
Y289280D03*
X30700Y297160D03*
Y283380D03*
X37700Y281410D03*
Y303060D03*
X30700Y301090D03*
X1038300Y354800D03*
G54D16*
X1050200Y61670D03*
Y66670D03*
Y71670D03*
Y76670D03*
Y81670D03*
Y86670D03*
Y91670D03*
Y96670D03*
Y101670D03*
Y106670D03*
Y111670D03*
Y116670D03*
Y121670D03*
Y126670D03*
Y131670D03*
Y136670D03*
Y141670D03*
Y146670D03*
Y151670D03*
Y156670D03*
Y161670D03*
Y166670D03*
Y171670D03*
Y176670D03*
Y181670D03*
Y186670D03*
Y191670D03*
Y196670D03*
Y201670D03*
Y206670D03*
Y211670D03*
Y216670D03*
Y297100D03*
Y302100D03*
Y307100D03*
Y312100D03*
Y317100D03*
Y322100D03*
Y327100D03*
Y332100D03*
Y337100D03*
Y342100D03*
Y347100D03*
Y352100D03*
Y357100D03*
Y362100D03*
Y367100D03*
Y372100D03*
Y377100D03*
Y382100D03*
Y387100D03*
Y392100D03*
Y397100D03*
Y402100D03*
Y407100D03*
Y412100D03*
Y417100D03*
Y422100D03*
Y427100D03*
Y432100D03*
Y437100D03*
Y442100D03*
Y447100D03*
Y452100D03*
G54D13*
X9000Y221370D03*
X20090Y244990D03*
X8700Y268610D03*
X27900Y221370D03*
X26700Y244990D03*
X26010Y268610D03*
X26500Y292240D03*
G54D14*
X9600D03*
G54D15*
X1050200Y56670D03*
X1045200D03*
Y61670D03*
Y66670D03*
Y71670D03*
Y76670D03*
Y81670D03*
Y86670D03*
Y91670D03*
Y96670D03*
Y101670D03*
Y106670D03*
Y111670D03*
Y116670D03*
Y121670D03*
Y126670D03*
Y131670D03*
Y136670D03*
Y141670D03*
Y146670D03*
Y151670D03*
Y156670D03*
Y161670D03*
Y166670D03*
Y171670D03*
Y176670D03*
Y181670D03*
Y186670D03*
Y191670D03*
Y196670D03*
Y201670D03*
Y206670D03*
Y211670D03*
X1050200Y221670D03*
X1045200Y216670D03*
Y221670D03*
X1050200Y292100D03*
X1045200D03*
Y297100D03*
Y302100D03*
Y307100D03*
Y312100D03*
Y317100D03*
Y322100D03*
Y327100D03*
Y332100D03*
Y337100D03*
Y342100D03*
Y347100D03*
Y352100D03*
Y357100D03*
Y362100D03*
Y367100D03*
Y372100D03*
Y377100D03*
Y382100D03*
Y387100D03*
Y392100D03*
Y397100D03*
Y402100D03*
Y407100D03*
Y412100D03*
Y417100D03*
Y422100D03*
Y427100D03*
Y432100D03*
Y437100D03*
Y442100D03*
Y447100D03*
X1050200Y457100D03*
X1045200Y452100D03*
Y457100D03*
M02*
