G04 ================== begin FILE IDENTIFICATION RECORD ==================*
G04 Layout Name:  MR_HR2B_to_DET_Connector.brd*
G04 Film Name:    soldbottom*
G04 File Format:  Gerber RS274X*
G04 File Origin:  Cadence Allegro 16.6-S025*
G04 Origin Date:  Thu Jun 23 18:16:06 2016*
G04 *
G04 Layer:  VIA CLASS/SOLDERMASK_BOTTOM*
G04 Layer:  PIN/SOLDERMASK_BOTTOM*
G04 Layer:  PACKAGE GEOMETRY/SOLDERMASK_BOTTOM*
G04 Layer:  BOARD GEOMETRY/OUTLINE*
G04 Layer:  BOARD GEOMETRY/SOLDERMASK_BOTTOM*
G04 *
G04 Offset:    (0.0 0.0)*
G04 Mirror:    Yes*
G04 Mode:      Positive*
G04 Rotation:  0*
G04 FullContactRelief:  No*
G04 UndefLineWidth:     6.0*
G04 ================== end FILE IDENTIFICATION RECORD ====================*
%FSLAX25Y25*MOIN*%
%IR0*IPPOS*OFA0.00000B0.00000*MIA1B0*SFA1.00000B1.00000*%
%ADD10R,.126X.0669*%
%ADD14C,.03*%
%ADD13C,.015*%
%ADD12R,.063X.0315*%
%ADD11R,.0472X.0157*%
%ADD15C,.006*%
G75*
%LPD*%
G75*
G54D10*
X24000Y197940D03*
Y315660D03*
G54D11*
X13760Y210540D03*
Y212510D03*
Y214480D03*
Y216450D03*
Y218420D03*
Y224320D03*
Y226290D03*
Y228260D03*
Y230230D03*
Y232200D03*
Y234160D03*
Y236130D03*
Y238100D03*
Y240070D03*
Y242040D03*
Y247940D03*
Y249910D03*
Y251880D03*
Y253850D03*
Y255820D03*
Y257790D03*
Y259750D03*
Y261720D03*
Y263690D03*
Y265660D03*
Y271570D03*
Y273530D03*
Y275500D03*
Y277470D03*
Y279440D03*
Y281410D03*
Y283380D03*
Y285350D03*
Y287310D03*
Y289280D03*
Y295190D03*
Y297160D03*
Y299120D03*
Y301090D03*
Y303060D03*
X34230Y210540D03*
Y212510D03*
Y214480D03*
Y216450D03*
Y218420D03*
Y224320D03*
Y226290D03*
Y228260D03*
Y230230D03*
Y232200D03*
Y234160D03*
Y236130D03*
Y238100D03*
Y240070D03*
Y242040D03*
Y247940D03*
Y249910D03*
Y251880D03*
Y253850D03*
Y255820D03*
Y257790D03*
Y259750D03*
Y261720D03*
Y263690D03*
Y265660D03*
Y271570D03*
Y273530D03*
Y275500D03*
Y277470D03*
Y279440D03*
Y281410D03*
Y283380D03*
Y285350D03*
Y287310D03*
Y289280D03*
Y295190D03*
Y297160D03*
Y299120D03*
Y301090D03*
Y303060D03*
G54D12*
X14550Y221370D03*
Y244990D03*
Y268610D03*
Y292240D03*
X33450Y221370D03*
Y244990D03*
Y268610D03*
Y292240D03*
G54D13*
X17500Y228260D03*
Y214480D03*
X10000Y238100D03*
X17500Y261720D03*
X10000Y251880D03*
X17500Y275500D03*
X10000Y285350D03*
X17600Y299120D03*
X37900Y228260D03*
Y214480D03*
X29200Y238100D03*
X30500Y251880D03*
Y275500D03*
X37900Y285350D03*
Y299120D03*
G54D14*
X1050200Y56670D03*
X1045200D03*
X1050200Y61670D03*
Y66670D03*
Y71670D03*
X1045200Y61670D03*
Y66670D03*
Y71670D03*
X1050200Y76670D03*
Y81670D03*
Y86670D03*
Y91670D03*
X1045200Y76670D03*
Y81670D03*
Y86670D03*
Y91670D03*
X1050200Y96670D03*
Y101670D03*
Y106670D03*
X1045200Y96670D03*
Y101670D03*
Y106670D03*
X1050200Y111670D03*
Y116670D03*
Y121670D03*
Y126670D03*
X1045200Y111670D03*
Y116670D03*
Y121670D03*
Y126670D03*
X1050200Y131670D03*
Y136670D03*
Y141670D03*
X1045200Y131670D03*
Y136670D03*
Y141670D03*
X1050200Y146670D03*
Y151670D03*
Y156670D03*
X1045200Y146670D03*
Y151670D03*
Y156670D03*
X1050200Y161670D03*
Y166670D03*
Y171670D03*
Y176670D03*
X1045200Y161670D03*
Y166670D03*
Y171670D03*
Y176670D03*
X1050200Y181670D03*
Y186670D03*
Y191670D03*
X1045200Y181670D03*
Y186670D03*
Y191670D03*
X1050200Y196670D03*
Y201670D03*
Y206670D03*
Y211670D03*
X1045200Y196670D03*
Y201670D03*
Y206670D03*
Y211670D03*
X1050200Y216670D03*
Y221670D03*
X1045200Y216670D03*
Y221670D03*
X1050200Y292100D03*
Y297100D03*
X1045200Y292100D03*
Y297100D03*
X1050200Y302100D03*
Y307100D03*
Y312100D03*
X1045200Y302100D03*
Y307100D03*
Y312100D03*
X1050200Y317100D03*
Y322100D03*
Y327100D03*
Y332100D03*
X1045200Y317100D03*
Y322100D03*
Y327100D03*
Y332100D03*
X1050200Y337100D03*
Y342100D03*
Y347100D03*
X1045200Y337100D03*
Y342100D03*
Y347100D03*
X1050200Y352100D03*
Y357100D03*
Y362100D03*
X1045200Y352100D03*
Y357100D03*
Y362100D03*
X1050200Y367100D03*
Y372100D03*
Y377100D03*
Y382100D03*
X1045200Y367100D03*
Y372100D03*
Y377100D03*
Y382100D03*
X1050200Y387100D03*
Y392100D03*
Y397100D03*
X1045200Y387100D03*
Y392100D03*
Y397100D03*
X1050200Y402100D03*
Y407100D03*
Y412100D03*
Y417100D03*
X1045200Y402100D03*
Y407100D03*
Y412100D03*
Y417100D03*
X1050200Y422100D03*
Y427100D03*
Y432100D03*
X1045200Y422100D03*
Y427100D03*
Y432100D03*
X1050200Y437100D03*
Y442100D03*
Y447100D03*
X1045200Y437100D03*
Y442100D03*
Y447100D03*
X1050200Y452100D03*
Y457100D03*
X1045200Y452100D03*
Y457100D03*
G54D15*
G01X0Y183200D02*
X47800D01*
G01X0D02*
Y330400D01*
X48000D01*
Y311800D01*
X886000D01*
X1027300Y453100D01*
Y482400D01*
X1068100D01*
Y266900D01*
X1027300D01*
Y246900D01*
X1068100D01*
Y31400D01*
X1027300D01*
Y60700D01*
X886000Y202000D01*
X48000D01*
Y183200D01*
G01X47800D02*
X48000D01*
M02*
