G04 ================== begin FILE IDENTIFICATION RECORD ==================*
G04 Layout Name:  D:/MyProject/SDHCAL_DAQ/PCB&Schematic/SDHCalFEB/Allegro/SDHCalFEB.brd*
G04 Film Name:    pastebottom*
G04 File Format:  Gerber RS274X*
G04 File Origin:  Cadence Allegro 16.6-S025*
G04 Origin Date:  Thu Jan 25 16:25:14 2018*
G04 *
G04 Layer:  PIN/PASTEMASK_BOTTOM*
G04 Layer:  PACKAGE GEOMETRY/DISPLAY_BOTTOM*
G04 Layer:  BOARD GEOMETRY/OUTLINE*
G04 *
G04 Offset:    (0.00 0.00)*
G04 Mirror:    Yes*
G04 Mode:      Positive*
G04 Rotation:  0*
G04 FullContactRelief:  No*
G04 UndefLineWidth:     5.00*
G04 ================== end FILE IDENTIFICATION RECORD ====================*
%FSLAX25Y25*MOIN*%
%IR0*IPPOS*OFA0.00000B0.00000*MIA1B0*SFA1.00000B1.00000*%
%ADD15R,.125X.06*%
%ADD10C,.09*%
%ADD18C,.0709*%
%ADD13R,.032X.03*%
%ADD19R,.03X.032*%
%ADD16R,.035X.032*%
%ADD12R,.032X.035*%
%ADD14R,.09X.08*%
%ADD17C,.176*%
%ADD11R,.37795X.37795*%
%ADD20C,.005*%
G75*
%LPD*%
G75*
G54D10*
X6692Y6692D03*
X6693Y1467323D03*
X1467323Y6693D03*
Y1467323D03*
G54D20*
G01X0Y0D02*
X1474016D01*
G01D02*
Y303150D01*
X1575787D01*
Y1170866D01*
X1474016D01*
Y1474016D01*
X0D01*
Y0D01*
G54D11*
X166142Y166142D03*
Y205512D03*
Y244882D03*
Y284252D03*
Y323622D03*
Y362992D03*
Y402363D03*
Y441733D03*
Y481103D03*
Y520473D03*
Y559843D03*
Y599213D03*
Y638583D03*
Y677953D03*
Y717323D03*
Y756693D03*
Y796063D03*
Y835433D03*
Y874803D03*
Y914173D03*
Y953544D03*
Y992914D03*
Y1032284D03*
Y1071654D03*
Y1111024D03*
Y1150394D03*
Y1189764D03*
Y1229134D03*
Y1268504D03*
Y1307874D03*
X205512Y166142D03*
Y205512D03*
Y244882D03*
Y284252D03*
Y323622D03*
Y362992D03*
Y402363D03*
Y441733D03*
Y481103D03*
Y520473D03*
Y559843D03*
Y599213D03*
Y638583D03*
Y677953D03*
Y717323D03*
Y756693D03*
Y796063D03*
Y835433D03*
Y874803D03*
Y914173D03*
Y953544D03*
Y992914D03*
Y1032284D03*
Y1071654D03*
Y1111024D03*
Y1150394D03*
Y1189764D03*
Y1229134D03*
Y1268504D03*
Y1307874D03*
X244882Y166142D03*
Y205512D03*
Y244882D03*
Y284252D03*
Y323622D03*
Y362992D03*
Y402363D03*
Y441733D03*
Y481103D03*
Y520473D03*
Y559843D03*
Y599213D03*
Y638583D03*
Y677953D03*
Y717323D03*
Y756693D03*
Y796063D03*
Y835433D03*
Y874803D03*
Y914173D03*
Y953544D03*
Y992914D03*
Y1032284D03*
Y1071654D03*
Y1111024D03*
Y1150394D03*
Y1189764D03*
Y1229134D03*
Y1268504D03*
Y1307874D03*
X284252Y166142D03*
Y205512D03*
Y244882D03*
Y284252D03*
Y323622D03*
Y362992D03*
Y402363D03*
Y441733D03*
Y481103D03*
Y520473D03*
Y559843D03*
Y599213D03*
Y638583D03*
Y677953D03*
Y717323D03*
Y756693D03*
Y796063D03*
Y835433D03*
Y874803D03*
Y914173D03*
Y953544D03*
Y992914D03*
Y1032284D03*
Y1071654D03*
Y1111024D03*
Y1150394D03*
Y1189764D03*
Y1229134D03*
Y1268504D03*
Y1307874D03*
X323622Y166142D03*
Y205512D03*
Y244882D03*
Y284252D03*
Y323622D03*
Y362992D03*
Y402363D03*
Y441733D03*
Y481103D03*
Y520473D03*
Y559843D03*
Y599213D03*
Y638583D03*
Y677953D03*
Y717323D03*
Y756693D03*
Y796063D03*
Y835433D03*
Y874803D03*
Y914173D03*
Y953544D03*
Y992914D03*
Y1032284D03*
Y1071654D03*
Y1111024D03*
Y1150394D03*
Y1189764D03*
Y1229134D03*
Y1268504D03*
Y1307874D03*
X362992Y166142D03*
Y205512D03*
Y244882D03*
Y284252D03*
Y323622D03*
Y362992D03*
Y402363D03*
Y441733D03*
Y481103D03*
Y520473D03*
Y559843D03*
Y599213D03*
Y638583D03*
Y677953D03*
Y717323D03*
Y756693D03*
Y796063D03*
Y835433D03*
Y874803D03*
Y914173D03*
Y953544D03*
Y992914D03*
Y1032284D03*
Y1071654D03*
Y1111024D03*
Y1150394D03*
Y1189764D03*
Y1229134D03*
Y1268504D03*
Y1307874D03*
X402362Y166142D03*
Y205512D03*
Y244882D03*
Y284252D03*
Y323622D03*
Y362992D03*
Y402363D03*
Y441733D03*
Y481103D03*
Y520473D03*
Y559843D03*
Y599213D03*
Y638583D03*
Y677953D03*
Y717323D03*
Y756693D03*
Y796063D03*
Y835433D03*
Y874803D03*
Y914173D03*
Y953544D03*
Y992914D03*
Y1032284D03*
Y1071654D03*
Y1111024D03*
Y1150394D03*
Y1189764D03*
Y1229134D03*
Y1268504D03*
Y1307874D03*
X441732Y166142D03*
Y205512D03*
Y244882D03*
Y284252D03*
Y323622D03*
Y362992D03*
Y402363D03*
Y441733D03*
Y481103D03*
Y520473D03*
Y559843D03*
Y599213D03*
Y638583D03*
Y677953D03*
Y717323D03*
Y756693D03*
Y796063D03*
Y835433D03*
Y874803D03*
Y914173D03*
Y953544D03*
Y992914D03*
Y1032284D03*
Y1071654D03*
Y1111024D03*
Y1150394D03*
Y1189764D03*
Y1229134D03*
Y1268504D03*
Y1307874D03*
X481102Y166142D03*
Y205512D03*
Y244882D03*
Y284252D03*
Y323622D03*
Y362992D03*
Y402363D03*
Y441733D03*
Y481103D03*
Y520473D03*
Y559843D03*
Y599213D03*
Y638583D03*
Y677953D03*
Y717323D03*
Y756693D03*
Y796063D03*
Y835433D03*
Y874803D03*
Y914173D03*
Y953544D03*
Y992914D03*
Y1032284D03*
Y1071654D03*
Y1111024D03*
Y1150394D03*
Y1189764D03*
Y1229134D03*
Y1268504D03*
Y1307874D03*
X520472Y166142D03*
Y205512D03*
Y244882D03*
Y284252D03*
Y323622D03*
Y362992D03*
Y402363D03*
Y441733D03*
Y481103D03*
Y520473D03*
Y559843D03*
Y599213D03*
Y638583D03*
Y677953D03*
Y717323D03*
Y756693D03*
Y796063D03*
Y835433D03*
Y874803D03*
Y914173D03*
Y953544D03*
Y992914D03*
Y1032284D03*
Y1071654D03*
Y1111024D03*
Y1150394D03*
Y1189764D03*
Y1229134D03*
Y1268504D03*
Y1307874D03*
X559843Y166142D03*
Y205512D03*
Y244882D03*
Y284252D03*
Y323622D03*
Y362992D03*
Y402363D03*
Y441733D03*
Y481103D03*
Y520473D03*
Y559843D03*
Y599213D03*
Y638583D03*
Y677953D03*
Y717323D03*
Y756693D03*
Y796063D03*
Y835433D03*
Y874803D03*
Y914173D03*
Y953544D03*
Y992914D03*
Y1032284D03*
Y1071654D03*
Y1111024D03*
Y1150394D03*
Y1189764D03*
Y1229134D03*
Y1268504D03*
Y1307874D03*
X599213Y166142D03*
Y205512D03*
Y244882D03*
Y284252D03*
Y323622D03*
Y362992D03*
Y402363D03*
Y441733D03*
Y481103D03*
Y520473D03*
Y559843D03*
Y599213D03*
Y638583D03*
Y677953D03*
Y717323D03*
Y756693D03*
Y796063D03*
Y835433D03*
Y874803D03*
Y914173D03*
Y953544D03*
Y992914D03*
Y1032284D03*
Y1071654D03*
Y1111024D03*
Y1150394D03*
Y1189764D03*
Y1229134D03*
Y1268504D03*
Y1307874D03*
X638583Y166142D03*
Y205512D03*
Y244882D03*
Y284252D03*
Y323622D03*
Y362992D03*
Y402363D03*
Y441733D03*
Y481103D03*
Y520473D03*
Y559843D03*
Y599213D03*
Y638583D03*
Y677953D03*
Y717323D03*
Y756693D03*
Y796063D03*
Y835433D03*
Y874803D03*
Y914173D03*
Y953544D03*
Y992914D03*
Y1032284D03*
Y1071654D03*
Y1111024D03*
Y1150394D03*
Y1189764D03*
Y1229134D03*
Y1268504D03*
Y1307874D03*
X677953Y166142D03*
Y205512D03*
Y244882D03*
Y284252D03*
Y323622D03*
Y362992D03*
Y402363D03*
Y441733D03*
Y481103D03*
Y520473D03*
Y559843D03*
Y599213D03*
Y638583D03*
Y677953D03*
Y717323D03*
Y756693D03*
Y796063D03*
Y835433D03*
Y874803D03*
Y914173D03*
Y953544D03*
Y992914D03*
Y1032284D03*
Y1071654D03*
Y1111024D03*
Y1150394D03*
Y1189764D03*
Y1229134D03*
Y1268504D03*
Y1307874D03*
X717323Y166142D03*
Y205512D03*
Y244882D03*
Y284252D03*
Y323622D03*
Y362992D03*
Y402363D03*
Y441733D03*
Y481103D03*
Y520473D03*
Y559843D03*
Y599213D03*
Y638583D03*
Y677953D03*
Y717323D03*
Y756693D03*
Y796063D03*
Y835433D03*
Y874803D03*
Y914173D03*
Y953544D03*
Y992914D03*
Y1032284D03*
Y1071654D03*
Y1111024D03*
Y1150394D03*
Y1189764D03*
Y1229134D03*
Y1268504D03*
Y1307874D03*
X756693Y166142D03*
Y205512D03*
Y244882D03*
Y284252D03*
Y323622D03*
Y362992D03*
Y402363D03*
Y441733D03*
Y481103D03*
Y520473D03*
Y559843D03*
Y599213D03*
Y638583D03*
Y677953D03*
Y717323D03*
Y756693D03*
Y796063D03*
Y835433D03*
Y874803D03*
Y914173D03*
Y953544D03*
Y992914D03*
Y1032284D03*
Y1071654D03*
Y1111024D03*
Y1150394D03*
Y1189764D03*
Y1229134D03*
Y1268504D03*
Y1307874D03*
X796063Y166142D03*
Y205512D03*
Y244882D03*
Y284252D03*
Y323622D03*
Y362992D03*
Y402363D03*
Y441733D03*
Y481103D03*
Y520473D03*
Y559843D03*
Y599213D03*
Y638583D03*
Y677953D03*
Y717323D03*
Y756693D03*
Y796063D03*
Y835433D03*
Y874803D03*
Y914173D03*
Y953544D03*
Y992914D03*
Y1032284D03*
Y1071654D03*
Y1111024D03*
Y1150394D03*
Y1189764D03*
Y1229134D03*
Y1268504D03*
Y1307874D03*
X835433Y166142D03*
Y205512D03*
Y244882D03*
Y284252D03*
Y323622D03*
Y362992D03*
Y402363D03*
Y441733D03*
Y481103D03*
Y520473D03*
Y559843D03*
Y599213D03*
Y638583D03*
Y677953D03*
Y717323D03*
Y756693D03*
Y796063D03*
Y835433D03*
Y874803D03*
Y914173D03*
Y953544D03*
Y992914D03*
Y1032284D03*
Y1071654D03*
Y1111024D03*
Y1150394D03*
Y1189764D03*
Y1229134D03*
Y1268504D03*
Y1307874D03*
X874803Y166142D03*
Y205512D03*
Y244882D03*
Y284252D03*
Y323622D03*
Y362992D03*
Y402363D03*
Y441733D03*
Y481103D03*
Y520473D03*
Y559843D03*
Y599213D03*
Y638583D03*
Y677953D03*
Y717323D03*
Y756693D03*
Y796063D03*
Y835433D03*
Y874803D03*
Y914173D03*
Y953544D03*
Y992914D03*
Y1032284D03*
Y1071654D03*
Y1111024D03*
Y1150394D03*
Y1189764D03*
Y1229134D03*
Y1268504D03*
Y1307874D03*
X914173Y166142D03*
Y205512D03*
Y244882D03*
Y284252D03*
Y323622D03*
Y362992D03*
Y402363D03*
Y441733D03*
Y481103D03*
Y520473D03*
Y559843D03*
Y599213D03*
Y638583D03*
Y677953D03*
Y717323D03*
Y756693D03*
Y796063D03*
Y835433D03*
Y874803D03*
Y914173D03*
Y953544D03*
Y992914D03*
Y1032284D03*
Y1071654D03*
Y1111024D03*
Y1150394D03*
Y1189764D03*
Y1229134D03*
Y1268504D03*
Y1307874D03*
X953543Y166142D03*
Y205512D03*
Y244882D03*
Y284252D03*
Y323622D03*
Y362992D03*
Y402363D03*
Y441733D03*
Y481103D03*
Y520473D03*
Y559843D03*
Y599213D03*
Y638583D03*
Y677953D03*
Y717323D03*
Y756693D03*
Y796063D03*
Y835433D03*
Y874803D03*
Y914173D03*
Y953544D03*
Y992914D03*
Y1032284D03*
Y1071654D03*
Y1111024D03*
Y1150394D03*
Y1189764D03*
Y1229134D03*
Y1268504D03*
Y1307874D03*
X992913Y166142D03*
Y205512D03*
Y244882D03*
Y284252D03*
Y323622D03*
Y362992D03*
Y402363D03*
Y441733D03*
Y481103D03*
Y520473D03*
Y559843D03*
Y599213D03*
Y638583D03*
Y677953D03*
Y717323D03*
Y756693D03*
Y796063D03*
Y835433D03*
Y874803D03*
Y914173D03*
Y953544D03*
Y992914D03*
Y1032284D03*
Y1071654D03*
Y1111024D03*
Y1150394D03*
Y1189764D03*
Y1229134D03*
Y1268504D03*
Y1307874D03*
X1032283Y166142D03*
Y205512D03*
Y244882D03*
Y284252D03*
Y323622D03*
Y362992D03*
Y402363D03*
Y441733D03*
Y481103D03*
Y520473D03*
Y559843D03*
Y599213D03*
Y638583D03*
Y677953D03*
Y717323D03*
Y756693D03*
Y796063D03*
Y835433D03*
Y874803D03*
Y914173D03*
Y953544D03*
Y992914D03*
Y1032284D03*
Y1071654D03*
Y1111024D03*
Y1150394D03*
Y1189764D03*
Y1229134D03*
Y1268504D03*
Y1307874D03*
X1071653Y166142D03*
Y205512D03*
Y244882D03*
Y284252D03*
Y323622D03*
Y362992D03*
Y402363D03*
Y441733D03*
Y481103D03*
Y520473D03*
Y559843D03*
Y599213D03*
Y638583D03*
Y677953D03*
Y717323D03*
Y756693D03*
Y796063D03*
Y835433D03*
Y874803D03*
Y914173D03*
Y953544D03*
Y992914D03*
Y1032284D03*
Y1071654D03*
Y1111024D03*
Y1150394D03*
Y1189764D03*
Y1229134D03*
Y1268504D03*
Y1307874D03*
X1111024Y166142D03*
Y205512D03*
Y244882D03*
Y284252D03*
Y323622D03*
Y362992D03*
Y402363D03*
Y441733D03*
Y481103D03*
Y520473D03*
Y559843D03*
Y599213D03*
Y638583D03*
Y677953D03*
Y717323D03*
Y756693D03*
Y796063D03*
Y835433D03*
Y874803D03*
Y914173D03*
Y953544D03*
Y992914D03*
Y1032284D03*
Y1071654D03*
Y1111024D03*
Y1150394D03*
Y1189764D03*
Y1229134D03*
Y1268504D03*
Y1307874D03*
X1150394Y166142D03*
Y205512D03*
Y244882D03*
Y284252D03*
Y323622D03*
Y362992D03*
Y402363D03*
Y441733D03*
Y481103D03*
Y520473D03*
Y559843D03*
Y599213D03*
Y638583D03*
Y677953D03*
Y717323D03*
Y756693D03*
Y796063D03*
Y835433D03*
Y874803D03*
Y914173D03*
Y953544D03*
Y992914D03*
Y1032284D03*
Y1071654D03*
Y1111024D03*
Y1150394D03*
Y1189764D03*
Y1229134D03*
Y1268504D03*
Y1307874D03*
X1189764Y166142D03*
Y205512D03*
Y244882D03*
Y284252D03*
Y323622D03*
Y362992D03*
Y402363D03*
Y441733D03*
Y481103D03*
Y520473D03*
Y559843D03*
Y599213D03*
Y638583D03*
Y677953D03*
Y717323D03*
Y756693D03*
Y796063D03*
Y835433D03*
Y874803D03*
Y914173D03*
Y953544D03*
Y992914D03*
Y1032284D03*
Y1071654D03*
Y1111024D03*
Y1150394D03*
Y1189764D03*
Y1229134D03*
Y1268504D03*
Y1307874D03*
X1229134Y166142D03*
Y205512D03*
Y244882D03*
Y284252D03*
Y323622D03*
Y362992D03*
Y402363D03*
Y441733D03*
Y481103D03*
Y520473D03*
Y559843D03*
Y599213D03*
Y638583D03*
Y677953D03*
Y717323D03*
Y756693D03*
Y796063D03*
Y835433D03*
Y874803D03*
Y914173D03*
Y953544D03*
Y992914D03*
Y1032284D03*
Y1071654D03*
Y1111024D03*
Y1150394D03*
Y1189764D03*
Y1229134D03*
Y1268504D03*
Y1307874D03*
X1268504Y166142D03*
Y205512D03*
Y244882D03*
Y284252D03*
Y323622D03*
Y362992D03*
Y402363D03*
Y441733D03*
Y481103D03*
Y520473D03*
Y559843D03*
Y599213D03*
Y638583D03*
Y677953D03*
Y717323D03*
Y756693D03*
Y796063D03*
Y835433D03*
Y874803D03*
Y914173D03*
Y953544D03*
Y992914D03*
Y1032284D03*
Y1071654D03*
Y1111024D03*
Y1150394D03*
Y1189764D03*
Y1229134D03*
Y1268504D03*
Y1307874D03*
X1307874Y166142D03*
Y205512D03*
Y244882D03*
Y284252D03*
Y323622D03*
Y362992D03*
Y402363D03*
Y441733D03*
Y481103D03*
Y520473D03*
Y559843D03*
Y599213D03*
Y638583D03*
Y677953D03*
Y717323D03*
Y756693D03*
Y796063D03*
Y835433D03*
Y874803D03*
Y914173D03*
Y953544D03*
Y992914D03*
Y1032284D03*
Y1071654D03*
Y1111024D03*
Y1150394D03*
Y1189764D03*
Y1229134D03*
Y1268504D03*
Y1307874D03*
G54D12*
X1490500Y357100D03*
X1496500D03*
G54D13*
X1499400Y443500D03*
Y437500D03*
X1493400Y443500D03*
Y437500D03*
X1487500Y443500D03*
Y437500D03*
X1499300Y454430D03*
Y460430D03*
X1493300Y454430D03*
Y460430D03*
X1487458Y454422D03*
Y460422D03*
X1511300Y443500D03*
Y437500D03*
X1505400Y443500D03*
Y437500D03*
X1517200Y443500D03*
Y437500D03*
X1523200Y443500D03*
Y437500D03*
X1529100Y443500D03*
Y437500D03*
X1511200Y454430D03*
Y460430D03*
X1505200Y454430D03*
Y460430D03*
X1517158Y454422D03*
Y460422D03*
X1523058Y454422D03*
Y460422D03*
X1528958Y454392D03*
Y460392D03*
G54D14*
X1532600Y361000D03*
Y374000D03*
X1557000Y362200D03*
Y349200D03*
G54D15*
X1515800Y356000D03*
Y374000D03*
G54D16*
X1526600Y385800D03*
Y391800D03*
G54D17*
X1558300Y324000D03*
Y1150000D03*
G54D18*
X1558941Y379808D03*
Y592208D03*
Y630808D03*
Y843208D03*
Y881808D03*
Y1094208D03*
G54D19*
X1557900Y418500D03*
Y408500D03*
Y398500D03*
X1558000Y478500D03*
X1557900Y488500D03*
X1558900Y538500D03*
X1557900Y689500D03*
Y699500D03*
Y779500D03*
Y789500D03*
Y799500D03*
Y829500D03*
X1558000Y819500D03*
Y940500D03*
X1557900Y950500D03*
X1557600Y1070500D03*
X1558000Y1080500D03*
Y1060500D03*
X1563900Y418500D03*
Y408500D03*
Y398500D03*
X1564000Y478500D03*
X1563900Y488500D03*
X1564900Y538500D03*
X1563900Y689500D03*
Y699500D03*
Y779500D03*
Y789500D03*
Y799500D03*
Y829500D03*
X1564000Y819500D03*
Y940500D03*
X1563900Y950500D03*
X1563600Y1070500D03*
X1564000Y1080500D03*
Y1060500D03*
M02*
