G04 ================== begin FILE IDENTIFICATION RECORD ==================*
G04 Layout Name:  AGET_ERNI2HRS_HardBoard.brd*
G04 Film Name:    adbottom*
G04 File Format:  Gerber RS274X*
G04 File Origin:  Cadence Allegro 16.6-S025*
G04 Origin Date:  Thu Sep 14 22:18:52 2017*
G04 *
G04 Layer:  REF DES/SILKSCREEN_BOTTOM*
G04 Layer:  PIN/BOTTOM*
G04 Layer:  PACKAGE GEOMETRY/SILKSCREEN_BOTTOM*
G04 Layer:  BOARD GEOMETRY/OUTLINE*
G04 Layer:  BOARD GEOMETRY/SILKSCREEN_BOTTOM*
G04 *
G04 Offset:    (0.0 0.0)*
G04 Mirror:    Yes*
G04 Mode:      Positive*
G04 Rotation:  0*
G04 FullContactRelief:  No*
G04 UndefLineWidth:     6.0*
G04 ================== end FILE IDENTIFICATION RECORD ====================*
%FSLAX25Y25*MOIN*%
%IR0*IPPOS*OFA0.00000B0.00000*MIA1B0*SFA1.00000B1.00000*%
%ADD15R,.122X.063*%
%ADD10C,.176*%
%ADD11R,.03X.032*%
%ADD14C,.06*%
%ADD12R,.0433X.0118*%
%ADD16C,.0709*%
%ADD13R,.0591X.0276*%
%ADD17C,.002*%
%ADD18C,.005*%
%ADD19C,.0079*%
%ADD20C,.006*%
G75*
%LPD*%
G75*
G54D10*
X20000Y20000D03*
Y240000D03*
X180000Y20000D03*
Y240000D03*
G54D20*
G01X2500Y0D02*
X248700D01*
G03X251200Y2500I0J2500D01*
G01Y257500D01*
G03X248700Y260000I-2500J0D01*
G01X2500D01*
G03X0Y257500I0J-2500D01*
G01Y2500D01*
G03X2500Y0I2500J0D01*
G54D11*
X13300Y85800D03*
Y92200D03*
Y98700D03*
Y104600D03*
Y110500D03*
Y116400D03*
Y122400D03*
Y133800D03*
Y139700D03*
Y145900D03*
Y127900D03*
Y151800D03*
Y157700D03*
Y163600D03*
Y169500D03*
Y175400D03*
X19300Y85800D03*
Y92200D03*
Y98700D03*
Y104600D03*
Y110500D03*
Y116400D03*
Y122400D03*
Y133800D03*
Y139700D03*
Y145900D03*
Y127900D03*
Y151800D03*
Y157700D03*
Y163600D03*
Y169500D03*
Y175400D03*
X239300Y32500D03*
X233300D03*
X234900Y48000D03*
Y42000D03*
Y60000D03*
Y54000D03*
Y66000D03*
Y72000D03*
Y78000D03*
Y84000D03*
Y90000D03*
Y96000D03*
Y102000D03*
Y108000D03*
Y114000D03*
Y120000D03*
Y126000D03*
Y144000D03*
Y138000D03*
Y132000D03*
Y150000D03*
Y156000D03*
Y162000D03*
Y168000D03*
Y174000D03*
Y180000D03*
Y186000D03*
Y192000D03*
Y198000D03*
Y204000D03*
Y210000D03*
Y216000D03*
Y222000D03*
Y228000D03*
X240900Y48000D03*
Y42000D03*
Y60000D03*
Y54000D03*
Y66000D03*
Y72000D03*
Y78000D03*
Y84000D03*
Y90000D03*
Y96000D03*
Y102000D03*
Y108000D03*
Y114000D03*
Y120000D03*
Y126000D03*
Y144000D03*
Y138000D03*
Y132000D03*
Y150000D03*
Y156000D03*
Y162000D03*
Y168000D03*
Y174000D03*
Y180000D03*
Y186000D03*
Y192000D03*
Y198000D03*
Y204000D03*
Y210000D03*
Y216000D03*
Y222000D03*
Y228000D03*
G54D12*
X29770Y87680D03*
Y85710D03*
Y83740D03*
Y107360D03*
Y105390D03*
Y103420D03*
Y101450D03*
Y99490D03*
Y97520D03*
Y91610D03*
Y89640D03*
Y125080D03*
Y123110D03*
Y121140D03*
Y115230D03*
Y113270D03*
Y111300D03*
Y109330D03*
Y144760D03*
Y138860D03*
Y136890D03*
Y134920D03*
Y132950D03*
Y130980D03*
Y129010D03*
Y127050D03*
Y162480D03*
Y160510D03*
Y158540D03*
Y156570D03*
Y154600D03*
Y152640D03*
Y150670D03*
Y148700D03*
Y146730D03*
Y176260D03*
Y174290D03*
Y172320D03*
Y170350D03*
Y168380D03*
X50240Y87680D03*
Y85710D03*
Y83740D03*
Y107360D03*
Y105390D03*
Y103420D03*
Y101450D03*
Y99490D03*
Y97520D03*
Y91610D03*
Y89640D03*
Y125080D03*
Y123110D03*
Y121140D03*
Y115230D03*
Y113270D03*
Y111300D03*
Y109330D03*
Y144760D03*
Y138860D03*
Y136890D03*
Y134920D03*
Y132950D03*
Y130980D03*
Y129010D03*
Y127050D03*
Y162480D03*
Y160510D03*
Y158540D03*
Y156570D03*
Y154600D03*
Y152640D03*
Y150670D03*
Y148700D03*
Y146730D03*
Y176260D03*
Y174290D03*
Y172320D03*
Y170350D03*
Y168380D03*
G54D13*
X30550Y94560D03*
Y118190D03*
Y141810D03*
Y165430D03*
X49450Y94560D03*
Y118190D03*
Y141810D03*
Y165430D03*
G54D14*
X20000Y217500D03*
X54400Y30900D03*
X72200Y29600D03*
X60000Y217500D03*
X140000Y212400D03*
X150900Y32100D03*
X161100Y214700D03*
X180400Y54300D03*
G54D15*
X40000Y71140D03*
Y188860D03*
G54D16*
X234370Y23800D03*
Y236200D03*
G54D17*
G01X9220Y84500D02*
Y87600D01*
X8260D01*
X7950Y87440D01*
X7760Y87240D01*
X7680Y86820D01*
X7760Y86410D01*
X7990Y86150D01*
X8260Y86000D01*
X9220D01*
G01X8260D02*
X7680Y84500D01*
G01X6000Y84860D02*
X5730Y84600D01*
X5430Y84500D01*
X5120Y84600D01*
X4850Y84910D01*
X4660Y85380D01*
X4580Y85840D01*
Y86410D01*
X4660Y86880D01*
X4850Y87290D01*
X5080Y87500D01*
X5350Y87600D01*
X5660Y87500D01*
X5890Y87290D01*
X6040Y86980D01*
X6120Y86570D01*
X6040Y86210D01*
X5850Y85840D01*
X5620Y85640D01*
X5350Y85580D01*
X5040Y85690D01*
X4810Y85950D01*
X4580Y86410D01*
G01X9220Y90900D02*
Y94000D01*
X8260D01*
X7950Y93840D01*
X7760Y93640D01*
X7680Y93220D01*
X7760Y92810D01*
X7990Y92550D01*
X8260Y92400D01*
X9220D01*
G01X8260D02*
X7680Y90900D01*
G01X5350D02*
Y94000D01*
X5810Y93380D01*
G01Y90900D02*
X4890D01*
G01X2330D02*
X2250Y91570D01*
X2130Y92140D01*
X1980Y92660D01*
X1790Y93220D01*
X1480Y94000D01*
X3020D01*
G01X9220Y97400D02*
Y100500D01*
X8260D01*
X7950Y100340D01*
X7760Y100140D01*
X7680Y99720D01*
X7760Y99310D01*
X7990Y99050D01*
X8260Y98900D01*
X9220D01*
G01X8260D02*
X7680Y97400D01*
G01X6080Y99980D02*
X5850Y100290D01*
X5580Y100450D01*
X5270Y100500D01*
X4890Y100400D01*
X4620Y100140D01*
X4540Y99830D01*
X4580Y99520D01*
X4740Y99260D01*
X5500Y98740D01*
X5850Y98380D01*
X6080Y97860D01*
X6160Y97400D01*
X4540D01*
G01X3090Y97860D02*
X2860Y97610D01*
X2600Y97450D01*
X2250Y97400D01*
X1900Y97500D01*
X1640Y97710D01*
X1440Y98070D01*
X1410Y98480D01*
X1480Y98900D01*
X1680Y99160D01*
X1940Y99360D01*
X2210Y99410D01*
X2480Y99360D01*
X2820Y99160D01*
X2710Y100500D01*
X1680D01*
G01X9220Y103300D02*
Y106400D01*
X8260D01*
X7950Y106240D01*
X7760Y106040D01*
X7680Y105620D01*
X7760Y105210D01*
X7990Y104950D01*
X8260Y104800D01*
X9220D01*
G01X8260D02*
X7680Y103300D01*
G01X6190Y103920D02*
X5960Y103560D01*
X5660Y103350D01*
X5310Y103300D01*
X5000Y103350D01*
X4700Y103610D01*
X4510Y103920D01*
X4470Y104230D01*
X4540Y104590D01*
X4810Y104850D01*
X5080Y104950D01*
X5430D01*
G01X5080D02*
X4850Y105110D01*
X4660Y105370D01*
X4580Y105680D01*
X4660Y105990D01*
X4850Y106240D01*
X5200Y106400D01*
X5540Y106350D01*
X5890Y106140D01*
G01X3090Y103920D02*
X2860Y103560D01*
X2560Y103350D01*
X2210Y103300D01*
X1900Y103350D01*
X1600Y103610D01*
X1410Y103920D01*
X1370Y104230D01*
X1440Y104590D01*
X1710Y104850D01*
X1980Y104950D01*
X2330D01*
G01X1980D02*
X1750Y105110D01*
X1560Y105370D01*
X1480Y105680D01*
X1560Y105990D01*
X1750Y106240D01*
X2100Y106400D01*
X2440Y106350D01*
X2790Y106140D01*
G01X9220Y109200D02*
Y112300D01*
X8260D01*
X7950Y112140D01*
X7760Y111940D01*
X7680Y111520D01*
X7760Y111110D01*
X7990Y110850D01*
X8260Y110700D01*
X9220D01*
G01X8260D02*
X7680Y109200D01*
G01X4890D02*
Y112300D01*
X6310Y110080D01*
X4390D01*
G01X2250Y109200D02*
Y112300D01*
X2710Y111680D01*
G01Y109200D02*
X1790D01*
G01X9220Y115100D02*
Y118200D01*
X8260D01*
X7950Y118040D01*
X7760Y117840D01*
X7680Y117420D01*
X7760Y117010D01*
X7990Y116750D01*
X8260Y116600D01*
X9220D01*
G01X8260D02*
X7680Y115100D01*
G01X4890D02*
Y118200D01*
X6310Y115980D01*
X4390D01*
G01X2900Y115460D02*
X2630Y115200D01*
X2330Y115100D01*
X2020Y115200D01*
X1750Y115510D01*
X1560Y115980D01*
X1480Y116440D01*
Y117010D01*
X1560Y117480D01*
X1750Y117890D01*
X1980Y118100D01*
X2250Y118200D01*
X2560Y118100D01*
X2790Y117890D01*
X2940Y117580D01*
X3020Y117170D01*
X2940Y116810D01*
X2750Y116440D01*
X2520Y116240D01*
X2250Y116180D01*
X1940Y116290D01*
X1710Y116550D01*
X1480Y117010D01*
G01X9220Y121100D02*
Y124200D01*
X8260D01*
X7950Y124040D01*
X7760Y123840D01*
X7680Y123420D01*
X7760Y123010D01*
X7990Y122750D01*
X8260Y122600D01*
X9220D01*
G01X8260D02*
X7680Y121100D01*
G01X6190Y121560D02*
X5960Y121310D01*
X5700Y121150D01*
X5350Y121100D01*
X5000Y121200D01*
X4740Y121410D01*
X4540Y121770D01*
X4510Y122180D01*
X4580Y122600D01*
X4780Y122860D01*
X5040Y123060D01*
X5310Y123110D01*
X5580Y123060D01*
X5920Y122860D01*
X5810Y124200D01*
X4780D01*
G01X2330Y121100D02*
X2250Y121770D01*
X2130Y122340D01*
X1980Y122860D01*
X1790Y123420D01*
X1480Y124200D01*
X3020D01*
G01X9220Y126600D02*
Y129700D01*
X8260D01*
X7950Y129540D01*
X7760Y129340D01*
X7680Y128920D01*
X7760Y128510D01*
X7990Y128250D01*
X8260Y128100D01*
X9220D01*
G01X8260D02*
X7680Y126600D01*
G01X6080Y127890D02*
X5810Y128250D01*
X5580Y128460D01*
X5270Y128560D01*
X5000Y128460D01*
X4810Y128250D01*
X4660Y127940D01*
X4620Y127580D01*
X4660Y127270D01*
X4810Y126960D01*
X5040Y126700D01*
X5310Y126600D01*
X5620Y126700D01*
X5890Y127010D01*
X6040Y127480D01*
X6080Y127990D01*
X6000Y128670D01*
X5890Y129030D01*
X5700Y129390D01*
X5430Y129650D01*
X5160Y129700D01*
X4890Y129600D01*
X4700Y129340D01*
G01X3090Y127060D02*
X2860Y126810D01*
X2600Y126650D01*
X2250Y126600D01*
X1900Y126700D01*
X1640Y126910D01*
X1440Y127270D01*
X1410Y127680D01*
X1480Y128100D01*
X1680Y128360D01*
X1940Y128560D01*
X2210Y128610D01*
X2480Y128560D01*
X2820Y128360D01*
X2710Y129700D01*
X1680D01*
G01X9220Y132500D02*
Y135600D01*
X8260D01*
X7950Y135440D01*
X7760Y135240D01*
X7680Y134820D01*
X7760Y134410D01*
X7990Y134150D01*
X8260Y134000D01*
X9220D01*
G01X8260D02*
X7680Y132500D01*
G01X5350D02*
Y135600D01*
X5810Y134980D01*
G01Y132500D02*
X4890D01*
G01X2250Y135600D02*
X2560Y135500D01*
X2790Y135240D01*
X2940Y134930D01*
X3060Y134510D01*
X3090Y134050D01*
X3060Y133580D01*
X2940Y133170D01*
X2790Y132860D01*
X2560Y132600D01*
X2250Y132500D01*
X1940Y132600D01*
X1710Y132860D01*
X1560Y133170D01*
X1440Y133580D01*
X1410Y134050D01*
X1440Y134510D01*
X1560Y134930D01*
X1710Y135240D01*
X1940Y135500D01*
X2250Y135600D01*
G01X9220Y138400D02*
Y141500D01*
X8260D01*
X7950Y141340D01*
X7760Y141140D01*
X7680Y140720D01*
X7760Y140310D01*
X7990Y140050D01*
X8260Y139900D01*
X9220D01*
G01X8260D02*
X7680Y138400D01*
G01X5350D02*
Y141500D01*
X5810Y140880D01*
G01Y138400D02*
X4890D01*
G01X2250D02*
X1980Y138450D01*
X1680Y138610D01*
X1480Y138860D01*
X1410Y139230D01*
X1480Y139590D01*
X1710Y139900D01*
X2060Y140050D01*
X2440D01*
X2670Y140160D01*
X2860Y140410D01*
X2940Y140780D01*
X2820Y141140D01*
X2560Y141400D01*
X2250Y141500D01*
X1940Y141400D01*
X1680Y141140D01*
X1560Y140780D01*
X1640Y140410D01*
X1830Y140160D01*
X2060Y140050D01*
X2440D01*
X2790Y139900D01*
X3020Y139590D01*
X3090Y139230D01*
X3020Y138860D01*
X2820Y138610D01*
X2520Y138450D01*
X2250Y138400D01*
G01X9220Y144600D02*
Y147700D01*
X8260D01*
X7950Y147540D01*
X7760Y147340D01*
X7680Y146920D01*
X7760Y146510D01*
X7990Y146250D01*
X8260Y146100D01*
X9220D01*
G01X8260D02*
X7680Y144600D01*
G01X6080Y147180D02*
X5850Y147490D01*
X5580Y147650D01*
X5270Y147700D01*
X4890Y147600D01*
X4620Y147340D01*
X4540Y147030D01*
X4580Y146720D01*
X4740Y146460D01*
X5500Y145940D01*
X5850Y145580D01*
X6080Y145060D01*
X6160Y144600D01*
X4540D01*
G01X2980Y145890D02*
X2710Y146250D01*
X2480Y146460D01*
X2170Y146560D01*
X1900Y146460D01*
X1710Y146250D01*
X1560Y145940D01*
X1520Y145580D01*
X1560Y145270D01*
X1710Y144960D01*
X1940Y144700D01*
X2210Y144600D01*
X2520Y144700D01*
X2790Y145010D01*
X2940Y145480D01*
X2980Y145990D01*
X2900Y146670D01*
X2790Y147030D01*
X2600Y147390D01*
X2330Y147650D01*
X2060Y147700D01*
X1790Y147600D01*
X1600Y147340D01*
G01X9220Y150500D02*
Y153600D01*
X8260D01*
X7950Y153440D01*
X7760Y153240D01*
X7680Y152820D01*
X7760Y152410D01*
X7990Y152150D01*
X8260Y152000D01*
X9220D01*
G01X8260D02*
X7680Y150500D01*
G01X6190Y151120D02*
X5960Y150760D01*
X5660Y150550D01*
X5310Y150500D01*
X5000Y150550D01*
X4700Y150810D01*
X4510Y151120D01*
X4470Y151430D01*
X4540Y151790D01*
X4810Y152050D01*
X5080Y152150D01*
X5430D01*
G01X5080D02*
X4850Y152310D01*
X4660Y152570D01*
X4580Y152880D01*
X4660Y153190D01*
X4850Y153440D01*
X5200Y153600D01*
X5540Y153550D01*
X5890Y153340D01*
G01X1790Y150500D02*
Y153600D01*
X3210Y151380D01*
X1290D01*
G01X9220Y156400D02*
Y159500D01*
X8260D01*
X7950Y159340D01*
X7760Y159140D01*
X7680Y158720D01*
X7760Y158310D01*
X7990Y158050D01*
X8260Y157900D01*
X9220D01*
G01X8260D02*
X7680Y156400D01*
G01X4890D02*
Y159500D01*
X6310Y157280D01*
X4390D01*
G01X2980Y158980D02*
X2750Y159290D01*
X2480Y159450D01*
X2170Y159500D01*
X1790Y159400D01*
X1520Y159140D01*
X1440Y158830D01*
X1480Y158520D01*
X1640Y158260D01*
X2400Y157740D01*
X2750Y157380D01*
X2980Y156860D01*
X3060Y156400D01*
X1440D01*
G01X9220Y162300D02*
Y165400D01*
X8260D01*
X7950Y165240D01*
X7760Y165040D01*
X7680Y164620D01*
X7760Y164210D01*
X7990Y163950D01*
X8260Y163800D01*
X9220D01*
G01X8260D02*
X7680Y162300D01*
G01X6190Y162760D02*
X5960Y162510D01*
X5700Y162350D01*
X5350Y162300D01*
X5000Y162400D01*
X4740Y162610D01*
X4540Y162970D01*
X4510Y163380D01*
X4580Y163800D01*
X4780Y164060D01*
X5040Y164260D01*
X5310Y164310D01*
X5580Y164260D01*
X5920Y164060D01*
X5810Y165400D01*
X4780D01*
G01X2250D02*
X2560Y165300D01*
X2790Y165040D01*
X2940Y164730D01*
X3060Y164310D01*
X3090Y163850D01*
X3060Y163380D01*
X2940Y162970D01*
X2790Y162660D01*
X2560Y162400D01*
X2250Y162300D01*
X1940Y162400D01*
X1710Y162660D01*
X1560Y162970D01*
X1440Y163380D01*
X1410Y163850D01*
X1440Y164310D01*
X1560Y164730D01*
X1710Y165040D01*
X1940Y165300D01*
X2250Y165400D01*
G01X9220Y168200D02*
Y171300D01*
X8260D01*
X7950Y171140D01*
X7760Y170940D01*
X7680Y170520D01*
X7760Y170110D01*
X7990Y169850D01*
X8260Y169700D01*
X9220D01*
G01X8260D02*
X7680Y168200D01*
G01X6190Y168660D02*
X5960Y168410D01*
X5700Y168250D01*
X5350Y168200D01*
X5000Y168300D01*
X4740Y168510D01*
X4540Y168870D01*
X4510Y169280D01*
X4580Y169700D01*
X4780Y169960D01*
X5040Y170160D01*
X5310Y170210D01*
X5580Y170160D01*
X5920Y169960D01*
X5810Y171300D01*
X4780D01*
G01X2250Y168200D02*
X1980Y168250D01*
X1680Y168410D01*
X1480Y168660D01*
X1410Y169030D01*
X1480Y169390D01*
X1710Y169700D01*
X2060Y169850D01*
X2440D01*
X2670Y169960D01*
X2860Y170210D01*
X2940Y170580D01*
X2820Y170940D01*
X2560Y171200D01*
X2250Y171300D01*
X1940Y171200D01*
X1680Y170940D01*
X1560Y170580D01*
X1640Y170210D01*
X1830Y169960D01*
X2060Y169850D01*
X2440D01*
X2790Y169700D01*
X3020Y169390D01*
X3090Y169030D01*
X3020Y168660D01*
X2820Y168410D01*
X2520Y168250D01*
X2250Y168200D01*
G01X9220Y174100D02*
Y177200D01*
X8260D01*
X7950Y177040D01*
X7760Y176840D01*
X7680Y176420D01*
X7760Y176010D01*
X7990Y175750D01*
X8260Y175600D01*
X9220D01*
G01X8260D02*
X7680Y174100D01*
G01X6080Y175390D02*
X5810Y175750D01*
X5580Y175960D01*
X5270Y176060D01*
X5000Y175960D01*
X4810Y175750D01*
X4660Y175440D01*
X4620Y175080D01*
X4660Y174770D01*
X4810Y174460D01*
X5040Y174200D01*
X5310Y174100D01*
X5620Y174200D01*
X5890Y174510D01*
X6040Y174980D01*
X6080Y175490D01*
X6000Y176170D01*
X5890Y176530D01*
X5700Y176890D01*
X5430Y177150D01*
X5160Y177200D01*
X4890Y177100D01*
X4700Y176840D01*
G01X2980Y175390D02*
X2710Y175750D01*
X2480Y175960D01*
X2170Y176060D01*
X1900Y175960D01*
X1710Y175750D01*
X1560Y175440D01*
X1520Y175080D01*
X1560Y174770D01*
X1710Y174460D01*
X1940Y174200D01*
X2210Y174100D01*
X2520Y174200D01*
X2790Y174510D01*
X2940Y174980D01*
X2980Y175490D01*
X2900Y176170D01*
X2790Y176530D01*
X2600Y176890D01*
X2330Y177150D01*
X2060Y177200D01*
X1790Y177100D01*
X1600Y176840D01*
G01X52490Y200970D02*
Y198750D01*
X52340Y198280D01*
X52030Y197970D01*
X51650Y197870D01*
X51270Y197970D01*
X50960Y198280D01*
X50810Y198750D01*
Y200970D01*
G01X48550Y197870D02*
Y200970D01*
X49010Y200350D01*
G01Y197870D02*
X48090D01*
G01X58570Y95420D02*
X61670D01*
Y96880D01*
G01X60170Y96340D02*
Y95420D01*
G01X58570Y98440D02*
X61670Y100060D01*
G01Y98440D02*
X58570Y100060D01*
G01Y102350D02*
X61670D01*
X61050Y101890D01*
G01X58570D02*
Y102810D01*
G01X61670Y105450D02*
X61570Y105140D01*
X61310Y104910D01*
X61000Y104760D01*
X60580Y104640D01*
X60120Y104610D01*
X59650Y104640D01*
X59240Y104760D01*
X58930Y104910D01*
X58670Y105140D01*
X58570Y105450D01*
X58670Y105760D01*
X58930Y105990D01*
X59240Y106140D01*
X59650Y106260D01*
X60120Y106290D01*
X60580Y106260D01*
X61000Y106140D01*
X61310Y105990D01*
X61570Y105760D01*
X61670Y105450D01*
G01X60220Y108860D02*
X60380Y109010D01*
X60640Y109120D01*
X61000Y109200D01*
X61310Y109120D01*
X61510Y108970D01*
X61670Y108700D01*
Y107670D01*
X58570D01*
Y108930D01*
X58780Y109200D01*
X59090Y109360D01*
X59450Y109430D01*
X59810Y109360D01*
X60120Y109120D01*
X60220Y108860D01*
Y107670D01*
G01X59600Y111150D02*
Y112150D01*
G01X58570Y114750D02*
X58620Y115020D01*
X58780Y115320D01*
X59030Y115520D01*
X59400Y115590D01*
X59760Y115520D01*
X60070Y115290D01*
X60220Y114940D01*
Y114560D01*
X60330Y114330D01*
X60580Y114140D01*
X60950Y114060D01*
X61310Y114180D01*
X61570Y114440D01*
X61670Y114750D01*
X61570Y115060D01*
X61310Y115320D01*
X60950Y115440D01*
X60580Y115360D01*
X60330Y115170D01*
X60220Y114940D01*
Y114560D01*
X60070Y114210D01*
X59760Y113980D01*
X59400Y113910D01*
X59030Y113980D01*
X58780Y114180D01*
X58620Y114480D01*
X58570Y114750D01*
G01X61670Y117850D02*
X61570Y117540D01*
X61310Y117310D01*
X61000Y117160D01*
X60580Y117040D01*
X60120Y117010D01*
X59650Y117040D01*
X59240Y117160D01*
X58930Y117310D01*
X58670Y117540D01*
X58570Y117850D01*
X58670Y118160D01*
X58930Y118390D01*
X59240Y118540D01*
X59650Y118660D01*
X60120Y118690D01*
X60580Y118660D01*
X61000Y118540D01*
X61310Y118390D01*
X61570Y118160D01*
X61670Y117850D01*
G01X58570Y120180D02*
X61670D01*
Y121100D01*
X61510Y121410D01*
X61150Y121640D01*
X60740Y121720D01*
X60330Y121640D01*
X60020Y121450D01*
X59860Y121100D01*
Y120180D01*
G01X58470Y123360D02*
X61670Y124740D01*
G01X58570Y127150D02*
X58620Y127420D01*
X58780Y127720D01*
X59030Y127920D01*
X59400Y127990D01*
X59760Y127920D01*
X60070Y127690D01*
X60220Y127340D01*
Y126960D01*
X60330Y126730D01*
X60580Y126540D01*
X60950Y126460D01*
X61310Y126580D01*
X61570Y126840D01*
X61670Y127150D01*
X61570Y127460D01*
X61310Y127720D01*
X60950Y127840D01*
X60580Y127760D01*
X60330Y127570D01*
X60220Y127340D01*
Y126960D01*
X60070Y126610D01*
X59760Y126380D01*
X59400Y126310D01*
X59030Y126380D01*
X58780Y126580D01*
X58620Y126880D01*
X58570Y127150D01*
G01X59600Y129750D02*
Y130750D01*
G01X58980Y132540D02*
X58720Y132850D01*
X58570Y133200D01*
Y133500D01*
X58720Y133810D01*
X58980Y134040D01*
X59350Y134160D01*
X59710Y134080D01*
X60020Y133890D01*
X60220Y133540D01*
X60330Y133080D01*
X60530Y132810D01*
X60890Y132700D01*
X61260Y132780D01*
X61510Y132970D01*
X61670Y133230D01*
Y133500D01*
X61570Y133770D01*
X61310Y134000D01*
G01X61670Y135490D02*
X58570Y136450D01*
X61670Y137410D01*
G01X57540Y139360D02*
X58050Y138980D01*
X58570Y138780D01*
X60640D01*
X61150Y138980D01*
X61670Y139360D01*
G01X58570Y141840D02*
X61670D01*
G01Y143460D02*
X58570D01*
G01X60120D02*
Y141840D01*
G01X59960Y145180D02*
Y146400D01*
X60330Y146290D01*
X60530Y146100D01*
X60640Y145830D01*
X60580Y145560D01*
X60430Y145330D01*
X60070Y145180D01*
X59760Y145100D01*
X59450D01*
X59140Y145180D01*
X58830Y145370D01*
X58620Y145600D01*
X58570Y145870D01*
X58670Y146130D01*
X58980Y146400D01*
G01X58570Y149540D02*
X60640D01*
G01X60280D02*
X60480Y149390D01*
X60580Y149160D01*
X60640Y148890D01*
X60530Y148620D01*
X60330Y148390D01*
X60020Y148240D01*
X59600Y148160D01*
X59190Y148240D01*
X58880Y148390D01*
X58670Y148620D01*
X58570Y148890D01*
X58620Y149160D01*
X58780Y149390D01*
X58980Y149540D01*
G01X61670Y152640D02*
X58570D01*
G01X59030D02*
X58780Y152490D01*
X58620Y152260D01*
X58570Y151990D01*
X58670Y151680D01*
X58930Y151450D01*
X59240Y151300D01*
X59600Y151260D01*
X59960Y151300D01*
X60280Y151450D01*
X60530Y151680D01*
X60640Y151990D01*
X60580Y152260D01*
X60480Y152450D01*
X60280Y152640D01*
G01X59960Y154480D02*
Y155700D01*
X60330Y155590D01*
X60530Y155400D01*
X60640Y155130D01*
X60580Y154860D01*
X60430Y154630D01*
X60070Y154480D01*
X59760Y154400D01*
X59450D01*
X59140Y154480D01*
X58830Y154670D01*
X58620Y154900D01*
X58570Y155170D01*
X58670Y155430D01*
X58980Y155700D01*
G01X58570Y157610D02*
X60640D01*
G01X60220D02*
X60430Y157800D01*
X60580Y158000D01*
X60640Y158270D01*
X60580Y158460D01*
X60430Y158690D01*
G01X57540Y161440D02*
X58050Y161820D01*
X58570Y162020D01*
X60640D01*
X61150Y161820D01*
X61670Y161440D01*
G01X222520Y46920D02*
Y50020D01*
X221560D01*
X221250Y49860D01*
X221060Y49660D01*
X220980Y49240D01*
X221060Y48830D01*
X221290Y48570D01*
X221560Y48420D01*
X222520D01*
G01X221560D02*
X220980Y46920D01*
G01X218650D02*
X218380Y46970D01*
X218080Y47130D01*
X217880Y47380D01*
X217810Y47750D01*
X217880Y48110D01*
X218110Y48420D01*
X218460Y48570D01*
X218840D01*
X219070Y48680D01*
X219260Y48930D01*
X219340Y49300D01*
X219220Y49660D01*
X218960Y49920D01*
X218650Y50020D01*
X218340Y49920D01*
X218080Y49660D01*
X217960Y49300D01*
X218040Y48930D01*
X218230Y48680D01*
X218460Y48570D01*
X218840D01*
X219190Y48420D01*
X219420Y48110D01*
X219490Y47750D01*
X219420Y47380D01*
X219220Y47130D01*
X218920Y46970D01*
X218650Y46920D01*
G01X222520Y41620D02*
Y44720D01*
X221560D01*
X221250Y44560D01*
X221060Y44360D01*
X220980Y43940D01*
X221060Y43530D01*
X221290Y43270D01*
X221560Y43120D01*
X222520D01*
G01X221560D02*
X220980Y41620D01*
G01X218650D02*
Y44720D01*
X219110Y44100D01*
G01Y41620D02*
X218190D01*
G01X225620Y58920D02*
Y62020D01*
X224660D01*
X224350Y61860D01*
X224160Y61660D01*
X224080Y61240D01*
X224160Y60830D01*
X224390Y60570D01*
X224660Y60420D01*
X225620D01*
G01X224660D02*
X224080Y58920D01*
G01X221750D02*
Y62020D01*
X222210Y61400D01*
G01Y58920D02*
X221290D01*
G01X219490Y59380D02*
X219260Y59130D01*
X219000Y58970D01*
X218650Y58920D01*
X218300Y59020D01*
X218040Y59230D01*
X217840Y59590D01*
X217810Y60000D01*
X217880Y60420D01*
X218080Y60680D01*
X218340Y60880D01*
X218610Y60930D01*
X218880Y60880D01*
X219220Y60680D01*
X219110Y62020D01*
X218080D01*
G01X225620Y53620D02*
Y56720D01*
X224660D01*
X224350Y56560D01*
X224160Y56360D01*
X224080Y55940D01*
X224160Y55530D01*
X224390Y55270D01*
X224660Y55120D01*
X225620D01*
G01X224660D02*
X224080Y53620D01*
G01X221750D02*
Y56720D01*
X222210Y56100D01*
G01Y53620D02*
X221290D01*
G01X218650D02*
Y56720D01*
X219110Y56100D01*
G01Y53620D02*
X218190D01*
G01X225620Y65620D02*
Y68720D01*
X224660D01*
X224350Y68560D01*
X224160Y68360D01*
X224080Y67940D01*
X224160Y67530D01*
X224390Y67270D01*
X224660Y67120D01*
X225620D01*
G01X224660D02*
X224080Y65620D01*
G01X221750D02*
Y68720D01*
X222210Y68100D01*
G01Y65620D02*
X221290D01*
G01X219300Y65980D02*
X219030Y65720D01*
X218730Y65620D01*
X218420Y65720D01*
X218150Y66030D01*
X217960Y66500D01*
X217880Y66960D01*
Y67530D01*
X217960Y68000D01*
X218150Y68410D01*
X218380Y68620D01*
X218650Y68720D01*
X218960Y68620D01*
X219190Y68410D01*
X219340Y68100D01*
X219420Y67690D01*
X219340Y67330D01*
X219150Y66960D01*
X218920Y66760D01*
X218650Y66700D01*
X218340Y66810D01*
X218110Y67070D01*
X217880Y67530D01*
G01X225620Y70920D02*
Y74020D01*
X224660D01*
X224350Y73860D01*
X224160Y73660D01*
X224080Y73240D01*
X224160Y72830D01*
X224390Y72570D01*
X224660Y72420D01*
X225620D01*
G01X224660D02*
X224080Y70920D01*
G01X222480Y73500D02*
X222250Y73810D01*
X221980Y73970D01*
X221670Y74020D01*
X221290Y73920D01*
X221020Y73660D01*
X220940Y73350D01*
X220980Y73040D01*
X221140Y72780D01*
X221900Y72260D01*
X222250Y71900D01*
X222480Y71380D01*
X222560Y70920D01*
X220940D01*
G01X219490Y71540D02*
X219260Y71180D01*
X218960Y70970D01*
X218610Y70920D01*
X218300Y70970D01*
X218000Y71230D01*
X217810Y71540D01*
X217770Y71850D01*
X217840Y72210D01*
X218110Y72470D01*
X218380Y72570D01*
X218730D01*
G01X218380D02*
X218150Y72730D01*
X217960Y72990D01*
X217880Y73300D01*
X217960Y73610D01*
X218150Y73860D01*
X218500Y74020D01*
X218840Y73970D01*
X219190Y73760D01*
G01X225620Y77620D02*
Y80720D01*
X224660D01*
X224350Y80560D01*
X224160Y80360D01*
X224080Y79940D01*
X224160Y79530D01*
X224390Y79270D01*
X224660Y79120D01*
X225620D01*
G01X224660D02*
X224080Y77620D01*
G01X222480Y80200D02*
X222250Y80510D01*
X221980Y80670D01*
X221670Y80720D01*
X221290Y80620D01*
X221020Y80360D01*
X220940Y80050D01*
X220980Y79740D01*
X221140Y79480D01*
X221900Y78960D01*
X222250Y78600D01*
X222480Y78080D01*
X222560Y77620D01*
X220940D01*
G01X218730D02*
X218650Y78290D01*
X218530Y78860D01*
X218380Y79380D01*
X218190Y79940D01*
X217880Y80720D01*
X219420D01*
G01X225620Y82920D02*
Y86020D01*
X224660D01*
X224350Y85860D01*
X224160Y85660D01*
X224080Y85240D01*
X224160Y84830D01*
X224390Y84570D01*
X224660Y84420D01*
X225620D01*
G01X224660D02*
X224080Y82920D01*
G01X222590Y83540D02*
X222360Y83180D01*
X222060Y82970D01*
X221710Y82920D01*
X221400Y82970D01*
X221100Y83230D01*
X220910Y83540D01*
X220870Y83850D01*
X220940Y84210D01*
X221210Y84470D01*
X221480Y84570D01*
X221830D01*
G01X221480D02*
X221250Y84730D01*
X221060Y84990D01*
X220980Y85300D01*
X221060Y85610D01*
X221250Y85860D01*
X221600Y86020D01*
X221940Y85970D01*
X222290Y85760D01*
G01X218650Y82920D02*
Y86020D01*
X219110Y85400D01*
G01Y82920D02*
X218190D01*
G01X225620Y89620D02*
Y92720D01*
X224660D01*
X224350Y92560D01*
X224160Y92360D01*
X224080Y91940D01*
X224160Y91530D01*
X224390Y91270D01*
X224660Y91120D01*
X225620D01*
G01X224660D02*
X224080Y89620D01*
G01X222590Y90240D02*
X222360Y89880D01*
X222060Y89670D01*
X221710Y89620D01*
X221400Y89670D01*
X221100Y89930D01*
X220910Y90240D01*
X220870Y90550D01*
X220940Y90910D01*
X221210Y91170D01*
X221480Y91270D01*
X221830D01*
G01X221480D02*
X221250Y91430D01*
X221060Y91690D01*
X220980Y92000D01*
X221060Y92310D01*
X221250Y92560D01*
X221600Y92720D01*
X221940Y92670D01*
X222290Y92460D01*
G01X219490Y90080D02*
X219260Y89830D01*
X219000Y89670D01*
X218650Y89620D01*
X218300Y89720D01*
X218040Y89930D01*
X217840Y90290D01*
X217810Y90700D01*
X217880Y91120D01*
X218080Y91380D01*
X218340Y91580D01*
X218610Y91630D01*
X218880Y91580D01*
X219220Y91380D01*
X219110Y92720D01*
X218080D01*
G01X225620Y94920D02*
Y98020D01*
X224660D01*
X224350Y97860D01*
X224160Y97660D01*
X224080Y97240D01*
X224160Y96830D01*
X224390Y96570D01*
X224660Y96420D01*
X225620D01*
G01X224660D02*
X224080Y94920D01*
G01X222590Y95540D02*
X222360Y95180D01*
X222060Y94970D01*
X221710Y94920D01*
X221400Y94970D01*
X221100Y95230D01*
X220910Y95540D01*
X220870Y95850D01*
X220940Y96210D01*
X221210Y96470D01*
X221480Y96570D01*
X221830D01*
G01X221480D02*
X221250Y96730D01*
X221060Y96990D01*
X220980Y97300D01*
X221060Y97610D01*
X221250Y97860D01*
X221600Y98020D01*
X221940Y97970D01*
X222290Y97760D01*
G01X219300Y95280D02*
X219030Y95020D01*
X218730Y94920D01*
X218420Y95020D01*
X218150Y95330D01*
X217960Y95800D01*
X217880Y96260D01*
Y96830D01*
X217960Y97300D01*
X218150Y97710D01*
X218380Y97920D01*
X218650Y98020D01*
X218960Y97920D01*
X219190Y97710D01*
X219340Y97400D01*
X219420Y96990D01*
X219340Y96630D01*
X219150Y96260D01*
X218920Y96060D01*
X218650Y96000D01*
X218340Y96110D01*
X218110Y96370D01*
X217880Y96830D01*
G01X225620Y101620D02*
Y104720D01*
X224660D01*
X224350Y104560D01*
X224160Y104360D01*
X224080Y103940D01*
X224160Y103530D01*
X224390Y103270D01*
X224660Y103120D01*
X225620D01*
G01X224660D02*
X224080Y101620D01*
G01X221290D02*
Y104720D01*
X222710Y102500D01*
X220790D01*
G01X219490Y102240D02*
X219260Y101880D01*
X218960Y101670D01*
X218610Y101620D01*
X218300Y101670D01*
X218000Y101930D01*
X217810Y102240D01*
X217770Y102550D01*
X217840Y102910D01*
X218110Y103170D01*
X218380Y103270D01*
X218730D01*
G01X218380D02*
X218150Y103430D01*
X217960Y103690D01*
X217880Y104000D01*
X217960Y104310D01*
X218150Y104560D01*
X218500Y104720D01*
X218840Y104670D01*
X219190Y104460D01*
G01X225620Y106920D02*
Y110020D01*
X224660D01*
X224350Y109860D01*
X224160Y109660D01*
X224080Y109240D01*
X224160Y108830D01*
X224390Y108570D01*
X224660Y108420D01*
X225620D01*
G01X224660D02*
X224080Y106920D01*
G01X221290D02*
Y110020D01*
X222710Y107800D01*
X220790D01*
G01X218730Y106920D02*
X218650Y107590D01*
X218530Y108160D01*
X218380Y108680D01*
X218190Y109240D01*
X217880Y110020D01*
X219420D01*
G01X225620Y113620D02*
Y116720D01*
X224660D01*
X224350Y116560D01*
X224160Y116360D01*
X224080Y115940D01*
X224160Y115530D01*
X224390Y115270D01*
X224660Y115120D01*
X225620D01*
G01X224660D02*
X224080Y113620D01*
G01X222590Y114080D02*
X222360Y113830D01*
X222100Y113670D01*
X221750Y113620D01*
X221400Y113720D01*
X221140Y113930D01*
X220940Y114290D01*
X220910Y114700D01*
X220980Y115120D01*
X221180Y115380D01*
X221440Y115580D01*
X221710Y115630D01*
X221980Y115580D01*
X222320Y115380D01*
X222210Y116720D01*
X221180D01*
G01X218650Y113620D02*
Y116720D01*
X219110Y116100D01*
G01Y113620D02*
X218190D01*
G01X225620Y118920D02*
Y122020D01*
X224660D01*
X224350Y121860D01*
X224160Y121660D01*
X224080Y121240D01*
X224160Y120830D01*
X224390Y120570D01*
X224660Y120420D01*
X225620D01*
G01X224660D02*
X224080Y118920D01*
G01X222590Y119380D02*
X222360Y119130D01*
X222100Y118970D01*
X221750Y118920D01*
X221400Y119020D01*
X221140Y119230D01*
X220940Y119590D01*
X220910Y120000D01*
X220980Y120420D01*
X221180Y120680D01*
X221440Y120880D01*
X221710Y120930D01*
X221980Y120880D01*
X222320Y120680D01*
X222210Y122020D01*
X221180D01*
G01X219490Y119380D02*
X219260Y119130D01*
X219000Y118970D01*
X218650Y118920D01*
X218300Y119020D01*
X218040Y119230D01*
X217840Y119590D01*
X217810Y120000D01*
X217880Y120420D01*
X218080Y120680D01*
X218340Y120880D01*
X218610Y120930D01*
X218880Y120880D01*
X219220Y120680D01*
X219110Y122020D01*
X218080D01*
G01X225620Y125620D02*
Y128720D01*
X224660D01*
X224350Y128560D01*
X224160Y128360D01*
X224080Y127940D01*
X224160Y127530D01*
X224390Y127270D01*
X224660Y127120D01*
X225620D01*
G01X224660D02*
X224080Y125620D01*
G01X222590Y126080D02*
X222360Y125830D01*
X222100Y125670D01*
X221750Y125620D01*
X221400Y125720D01*
X221140Y125930D01*
X220940Y126290D01*
X220910Y126700D01*
X220980Y127120D01*
X221180Y127380D01*
X221440Y127580D01*
X221710Y127630D01*
X221980Y127580D01*
X222320Y127380D01*
X222210Y128720D01*
X221180D01*
G01X219300Y125980D02*
X219030Y125720D01*
X218730Y125620D01*
X218420Y125720D01*
X218150Y126030D01*
X217960Y126500D01*
X217880Y126960D01*
Y127530D01*
X217960Y128000D01*
X218150Y128410D01*
X218380Y128620D01*
X218650Y128720D01*
X218960Y128620D01*
X219190Y128410D01*
X219340Y128100D01*
X219420Y127690D01*
X219340Y127330D01*
X219150Y126960D01*
X218920Y126760D01*
X218650Y126700D01*
X218340Y126810D01*
X218110Y127070D01*
X217880Y127530D01*
G01X222520Y142920D02*
Y146020D01*
X221560D01*
X221250Y145860D01*
X221060Y145660D01*
X220980Y145240D01*
X221060Y144830D01*
X221290Y144570D01*
X221560Y144420D01*
X222520D01*
G01X221560D02*
X220980Y142920D01*
G01X219380Y145500D02*
X219150Y145810D01*
X218880Y145970D01*
X218570Y146020D01*
X218190Y145920D01*
X217920Y145660D01*
X217840Y145350D01*
X217880Y145040D01*
X218040Y144780D01*
X218800Y144260D01*
X219150Y143900D01*
X219380Y143380D01*
X219460Y142920D01*
X217840D01*
G01X222520Y137620D02*
Y140720D01*
X221560D01*
X221250Y140560D01*
X221060Y140360D01*
X220980Y139940D01*
X221060Y139530D01*
X221290Y139270D01*
X221560Y139120D01*
X222520D01*
G01X221560D02*
X220980Y137620D01*
G01X218190D02*
Y140720D01*
X219610Y138500D01*
X217690D01*
G01X225620Y130920D02*
Y134020D01*
X224660D01*
X224350Y133860D01*
X224160Y133660D01*
X224080Y133240D01*
X224160Y132830D01*
X224390Y132570D01*
X224660Y132420D01*
X225620D01*
G01X224660D02*
X224080Y130920D01*
G01X222480Y132210D02*
X222210Y132570D01*
X221980Y132780D01*
X221670Y132880D01*
X221400Y132780D01*
X221210Y132570D01*
X221060Y132260D01*
X221020Y131900D01*
X221060Y131590D01*
X221210Y131280D01*
X221440Y131020D01*
X221710Y130920D01*
X222020Y131020D01*
X222290Y131330D01*
X222440Y131800D01*
X222480Y132310D01*
X222400Y132990D01*
X222290Y133350D01*
X222100Y133710D01*
X221830Y133970D01*
X221560Y134020D01*
X221290Y133920D01*
X221100Y133660D01*
G01X219490Y131540D02*
X219260Y131180D01*
X218960Y130970D01*
X218610Y130920D01*
X218300Y130970D01*
X218000Y131230D01*
X217810Y131540D01*
X217770Y131850D01*
X217840Y132210D01*
X218110Y132470D01*
X218380Y132570D01*
X218730D01*
G01X218380D02*
X218150Y132730D01*
X217960Y132990D01*
X217880Y133300D01*
X217960Y133610D01*
X218150Y133860D01*
X218500Y134020D01*
X218840Y133970D01*
X219190Y133760D01*
G01X225620Y149620D02*
Y152720D01*
X224660D01*
X224350Y152560D01*
X224160Y152360D01*
X224080Y151940D01*
X224160Y151530D01*
X224390Y151270D01*
X224660Y151120D01*
X225620D01*
G01X224660D02*
X224080Y149620D01*
G01X221750D02*
Y152720D01*
X222210Y152100D01*
G01Y149620D02*
X221290D01*
G01X219380Y152200D02*
X219150Y152510D01*
X218880Y152670D01*
X218570Y152720D01*
X218190Y152620D01*
X217920Y152360D01*
X217840Y152050D01*
X217880Y151740D01*
X218040Y151480D01*
X218800Y150960D01*
X219150Y150600D01*
X219380Y150080D01*
X219460Y149620D01*
X217840D01*
G01X225620Y154920D02*
Y158020D01*
X224660D01*
X224350Y157860D01*
X224160Y157660D01*
X224080Y157240D01*
X224160Y156830D01*
X224390Y156570D01*
X224660Y156420D01*
X225620D01*
G01X224660D02*
X224080Y154920D01*
G01X221750D02*
Y158020D01*
X222210Y157400D01*
G01Y154920D02*
X221290D01*
G01X219380Y156210D02*
X219110Y156570D01*
X218880Y156780D01*
X218570Y156880D01*
X218300Y156780D01*
X218110Y156570D01*
X217960Y156260D01*
X217920Y155900D01*
X217960Y155590D01*
X218110Y155280D01*
X218340Y155020D01*
X218610Y154920D01*
X218920Y155020D01*
X219190Y155330D01*
X219340Y155800D01*
X219380Y156310D01*
X219300Y156990D01*
X219190Y157350D01*
X219000Y157710D01*
X218730Y157970D01*
X218460Y158020D01*
X218190Y157920D01*
X218000Y157660D01*
G01X225620Y161620D02*
Y164720D01*
X224660D01*
X224350Y164560D01*
X224160Y164360D01*
X224080Y163940D01*
X224160Y163530D01*
X224390Y163270D01*
X224660Y163120D01*
X225620D01*
G01X224660D02*
X224080Y161620D01*
G01X222480Y164200D02*
X222250Y164510D01*
X221980Y164670D01*
X221670Y164720D01*
X221290Y164620D01*
X221020Y164360D01*
X220940Y164050D01*
X220980Y163740D01*
X221140Y163480D01*
X221900Y162960D01*
X222250Y162600D01*
X222480Y162080D01*
X222560Y161620D01*
X220940D01*
G01X218650Y164720D02*
X218960Y164620D01*
X219190Y164360D01*
X219340Y164050D01*
X219460Y163630D01*
X219490Y163170D01*
X219460Y162700D01*
X219340Y162290D01*
X219190Y161980D01*
X218960Y161720D01*
X218650Y161620D01*
X218340Y161720D01*
X218110Y161980D01*
X217960Y162290D01*
X217840Y162700D01*
X217810Y163170D01*
X217840Y163630D01*
X217960Y164050D01*
X218110Y164360D01*
X218340Y164620D01*
X218650Y164720D01*
G01X225620Y166920D02*
Y170020D01*
X224660D01*
X224350Y169860D01*
X224160Y169660D01*
X224080Y169240D01*
X224160Y168830D01*
X224390Y168570D01*
X224660Y168420D01*
X225620D01*
G01X224660D02*
X224080Y166920D01*
G01X222480Y169500D02*
X222250Y169810D01*
X221980Y169970D01*
X221670Y170020D01*
X221290Y169920D01*
X221020Y169660D01*
X220940Y169350D01*
X220980Y169040D01*
X221140Y168780D01*
X221900Y168260D01*
X222250Y167900D01*
X222480Y167380D01*
X222560Y166920D01*
X220940D01*
G01X218190D02*
Y170020D01*
X219610Y167800D01*
X217690D01*
G01X225620Y173620D02*
Y176720D01*
X224660D01*
X224350Y176560D01*
X224160Y176360D01*
X224080Y175940D01*
X224160Y175530D01*
X224390Y175270D01*
X224660Y175120D01*
X225620D01*
G01X224660D02*
X224080Y173620D01*
G01X222480Y176200D02*
X222250Y176510D01*
X221980Y176670D01*
X221670Y176720D01*
X221290Y176620D01*
X221020Y176360D01*
X220940Y176050D01*
X220980Y175740D01*
X221140Y175480D01*
X221900Y174960D01*
X222250Y174600D01*
X222480Y174080D01*
X222560Y173620D01*
X220940D01*
G01X218650D02*
X218380Y173670D01*
X218080Y173830D01*
X217880Y174080D01*
X217810Y174450D01*
X217880Y174810D01*
X218110Y175120D01*
X218460Y175270D01*
X218840D01*
X219070Y175380D01*
X219260Y175630D01*
X219340Y176000D01*
X219220Y176360D01*
X218960Y176620D01*
X218650Y176720D01*
X218340Y176620D01*
X218080Y176360D01*
X217960Y176000D01*
X218040Y175630D01*
X218230Y175380D01*
X218460Y175270D01*
X218840D01*
X219190Y175120D01*
X219420Y174810D01*
X219490Y174450D01*
X219420Y174080D01*
X219220Y173830D01*
X218920Y173670D01*
X218650Y173620D01*
G01X225620Y178920D02*
Y182020D01*
X224660D01*
X224350Y181860D01*
X224160Y181660D01*
X224080Y181240D01*
X224160Y180830D01*
X224390Y180570D01*
X224660Y180420D01*
X225620D01*
G01X224660D02*
X224080Y178920D01*
G01X222590Y179540D02*
X222360Y179180D01*
X222060Y178970D01*
X221710Y178920D01*
X221400Y178970D01*
X221100Y179230D01*
X220910Y179540D01*
X220870Y179850D01*
X220940Y180210D01*
X221210Y180470D01*
X221480Y180570D01*
X221830D01*
G01X221480D02*
X221250Y180730D01*
X221060Y180990D01*
X220980Y181300D01*
X221060Y181610D01*
X221250Y181860D01*
X221600Y182020D01*
X221940Y181970D01*
X222290Y181760D01*
G01X219380Y181500D02*
X219150Y181810D01*
X218880Y181970D01*
X218570Y182020D01*
X218190Y181920D01*
X217920Y181660D01*
X217840Y181350D01*
X217880Y181040D01*
X218040Y180780D01*
X218800Y180260D01*
X219150Y179900D01*
X219380Y179380D01*
X219460Y178920D01*
X217840D01*
G01X225620Y185620D02*
Y188720D01*
X224660D01*
X224350Y188560D01*
X224160Y188360D01*
X224080Y187940D01*
X224160Y187530D01*
X224390Y187270D01*
X224660Y187120D01*
X225620D01*
G01X224660D02*
X224080Y185620D01*
G01X222590Y186240D02*
X222360Y185880D01*
X222060Y185670D01*
X221710Y185620D01*
X221400Y185670D01*
X221100Y185930D01*
X220910Y186240D01*
X220870Y186550D01*
X220940Y186910D01*
X221210Y187170D01*
X221480Y187270D01*
X221830D01*
G01X221480D02*
X221250Y187430D01*
X221060Y187690D01*
X220980Y188000D01*
X221060Y188310D01*
X221250Y188560D01*
X221600Y188720D01*
X221940Y188670D01*
X222290Y188460D01*
G01X219380Y186910D02*
X219110Y187270D01*
X218880Y187480D01*
X218570Y187580D01*
X218300Y187480D01*
X218110Y187270D01*
X217960Y186960D01*
X217920Y186600D01*
X217960Y186290D01*
X218110Y185980D01*
X218340Y185720D01*
X218610Y185620D01*
X218920Y185720D01*
X219190Y186030D01*
X219340Y186500D01*
X219380Y187010D01*
X219300Y187690D01*
X219190Y188050D01*
X219000Y188410D01*
X218730Y188670D01*
X218460Y188720D01*
X218190Y188620D01*
X218000Y188360D01*
G01X225620Y190920D02*
Y194020D01*
X224660D01*
X224350Y193860D01*
X224160Y193660D01*
X224080Y193240D01*
X224160Y192830D01*
X224390Y192570D01*
X224660Y192420D01*
X225620D01*
G01X224660D02*
X224080Y190920D01*
G01X221290D02*
Y194020D01*
X222710Y191800D01*
X220790D01*
G01X218650Y194020D02*
X218960Y193920D01*
X219190Y193660D01*
X219340Y193350D01*
X219460Y192930D01*
X219490Y192470D01*
X219460Y192000D01*
X219340Y191590D01*
X219190Y191280D01*
X218960Y191020D01*
X218650Y190920D01*
X218340Y191020D01*
X218110Y191280D01*
X217960Y191590D01*
X217840Y192000D01*
X217810Y192470D01*
X217840Y192930D01*
X217960Y193350D01*
X218110Y193660D01*
X218340Y193920D01*
X218650Y194020D01*
G01X225620Y197620D02*
Y200720D01*
X224660D01*
X224350Y200560D01*
X224160Y200360D01*
X224080Y199940D01*
X224160Y199530D01*
X224390Y199270D01*
X224660Y199120D01*
X225620D01*
G01X224660D02*
X224080Y197620D01*
G01X221290D02*
Y200720D01*
X222710Y198500D01*
X220790D01*
G01X218190Y197620D02*
Y200720D01*
X219610Y198500D01*
X217690D01*
G01X225620Y202920D02*
Y206020D01*
X224660D01*
X224350Y205860D01*
X224160Y205660D01*
X224080Y205240D01*
X224160Y204830D01*
X224390Y204570D01*
X224660Y204420D01*
X225620D01*
G01X224660D02*
X224080Y202920D01*
G01X221290D02*
Y206020D01*
X222710Y203800D01*
X220790D01*
G01X218650Y202920D02*
X218380Y202970D01*
X218080Y203130D01*
X217880Y203380D01*
X217810Y203750D01*
X217880Y204110D01*
X218110Y204420D01*
X218460Y204570D01*
X218840D01*
X219070Y204680D01*
X219260Y204930D01*
X219340Y205300D01*
X219220Y205660D01*
X218960Y205920D01*
X218650Y206020D01*
X218340Y205920D01*
X218080Y205660D01*
X217960Y205300D01*
X218040Y204930D01*
X218230Y204680D01*
X218460Y204570D01*
X218840D01*
X219190Y204420D01*
X219420Y204110D01*
X219490Y203750D01*
X219420Y203380D01*
X219220Y203130D01*
X218920Y202970D01*
X218650Y202920D01*
G01X225620Y209620D02*
Y212720D01*
X224660D01*
X224350Y212560D01*
X224160Y212360D01*
X224080Y211940D01*
X224160Y211530D01*
X224390Y211270D01*
X224660Y211120D01*
X225620D01*
G01X224660D02*
X224080Y209620D01*
G01X222590Y210080D02*
X222360Y209830D01*
X222100Y209670D01*
X221750Y209620D01*
X221400Y209720D01*
X221140Y209930D01*
X220940Y210290D01*
X220910Y210700D01*
X220980Y211120D01*
X221180Y211380D01*
X221440Y211580D01*
X221710Y211630D01*
X221980Y211580D01*
X222320Y211380D01*
X222210Y212720D01*
X221180D01*
G01X219380Y212200D02*
X219150Y212510D01*
X218880Y212670D01*
X218570Y212720D01*
X218190Y212620D01*
X217920Y212360D01*
X217840Y212050D01*
X217880Y211740D01*
X218040Y211480D01*
X218800Y210960D01*
X219150Y210600D01*
X219380Y210080D01*
X219460Y209620D01*
X217840D01*
G01X225620Y214920D02*
Y218020D01*
X224660D01*
X224350Y217860D01*
X224160Y217660D01*
X224080Y217240D01*
X224160Y216830D01*
X224390Y216570D01*
X224660Y216420D01*
X225620D01*
G01X224660D02*
X224080Y214920D01*
G01X222590Y215380D02*
X222360Y215130D01*
X222100Y214970D01*
X221750Y214920D01*
X221400Y215020D01*
X221140Y215230D01*
X220940Y215590D01*
X220910Y216000D01*
X220980Y216420D01*
X221180Y216680D01*
X221440Y216880D01*
X221710Y216930D01*
X221980Y216880D01*
X222320Y216680D01*
X222210Y218020D01*
X221180D01*
G01X219380Y216210D02*
X219110Y216570D01*
X218880Y216780D01*
X218570Y216880D01*
X218300Y216780D01*
X218110Y216570D01*
X217960Y216260D01*
X217920Y215900D01*
X217960Y215590D01*
X218110Y215280D01*
X218340Y215020D01*
X218610Y214920D01*
X218920Y215020D01*
X219190Y215330D01*
X219340Y215800D01*
X219380Y216310D01*
X219300Y216990D01*
X219190Y217350D01*
X219000Y217710D01*
X218730Y217970D01*
X218460Y218020D01*
X218190Y217920D01*
X218000Y217660D01*
G01X225620Y221620D02*
Y224720D01*
X224660D01*
X224350Y224560D01*
X224160Y224360D01*
X224080Y223940D01*
X224160Y223530D01*
X224390Y223270D01*
X224660Y223120D01*
X225620D01*
G01X224660D02*
X224080Y221620D01*
G01X222480Y222910D02*
X222210Y223270D01*
X221980Y223480D01*
X221670Y223580D01*
X221400Y223480D01*
X221210Y223270D01*
X221060Y222960D01*
X221020Y222600D01*
X221060Y222290D01*
X221210Y221980D01*
X221440Y221720D01*
X221710Y221620D01*
X222020Y221720D01*
X222290Y222030D01*
X222440Y222500D01*
X222480Y223010D01*
X222400Y223690D01*
X222290Y224050D01*
X222100Y224410D01*
X221830Y224670D01*
X221560Y224720D01*
X221290Y224620D01*
X221100Y224360D01*
G01X218650Y224720D02*
X218960Y224620D01*
X219190Y224360D01*
X219340Y224050D01*
X219460Y223630D01*
X219490Y223170D01*
X219460Y222700D01*
X219340Y222290D01*
X219190Y221980D01*
X218960Y221720D01*
X218650Y221620D01*
X218340Y221720D01*
X218110Y221980D01*
X217960Y222290D01*
X217840Y222700D01*
X217810Y223170D01*
X217840Y223630D01*
X217960Y224050D01*
X218110Y224360D01*
X218340Y224620D01*
X218650Y224720D01*
G01X225620Y226920D02*
Y230020D01*
X224660D01*
X224350Y229860D01*
X224160Y229660D01*
X224080Y229240D01*
X224160Y228830D01*
X224390Y228570D01*
X224660Y228420D01*
X225620D01*
G01X224660D02*
X224080Y226920D01*
G01X222480Y228210D02*
X222210Y228570D01*
X221980Y228780D01*
X221670Y228880D01*
X221400Y228780D01*
X221210Y228570D01*
X221060Y228260D01*
X221020Y227900D01*
X221060Y227590D01*
X221210Y227280D01*
X221440Y227020D01*
X221710Y226920D01*
X222020Y227020D01*
X222290Y227330D01*
X222440Y227800D01*
X222480Y228310D01*
X222400Y228990D01*
X222290Y229350D01*
X222100Y229710D01*
X221830Y229970D01*
X221560Y230020D01*
X221290Y229920D01*
X221100Y229660D01*
G01X218190Y226920D02*
Y230020D01*
X219610Y227800D01*
X217690D01*
G01X239420Y35470D02*
Y38570D01*
X238460D01*
X238150Y38410D01*
X237960Y38210D01*
X237880Y37790D01*
X237960Y37380D01*
X238190Y37120D01*
X238460Y36970D01*
X239420D01*
G01X238460D02*
X237880Y35470D01*
G01X235630D02*
X235550Y36140D01*
X235430Y36710D01*
X235280Y37230D01*
X235090Y37790D01*
X234780Y38570D01*
X236320D01*
G54D18*
G01X21800Y88300D02*
X10800D01*
Y83300D01*
X21800D01*
Y88300D01*
G01Y94700D02*
X10800D01*
Y89700D01*
X21800D01*
Y94700D01*
G01Y101200D02*
X10800D01*
Y96200D01*
X21800D01*
Y101200D01*
G01Y107100D02*
X10800D01*
Y102100D01*
X21800D01*
Y107100D01*
G01Y113000D02*
X10800D01*
Y108000D01*
X21800D01*
Y113000D01*
G01Y118900D02*
X10800D01*
Y113900D01*
X21800D01*
Y118900D01*
G01Y124900D02*
X10800D01*
Y119900D01*
X21800D01*
Y124900D01*
G01Y130400D02*
X10800D01*
Y125400D01*
X21800D01*
Y130400D01*
G01Y136300D02*
X10800D01*
Y131300D01*
X21800D01*
Y136300D01*
G01Y142200D02*
X10800D01*
Y137200D01*
X21800D01*
Y142200D01*
G01Y148400D02*
X10800D01*
Y143400D01*
X21800D01*
Y148400D01*
G01Y154300D02*
X10800D01*
Y149300D01*
X21800D01*
Y154300D01*
G01Y160200D02*
X10800D01*
Y155200D01*
X21800D01*
Y160200D01*
G01Y166100D02*
X10800D01*
Y161100D01*
X21800D01*
Y166100D01*
G01Y172000D02*
X10800D01*
Y167000D01*
X21800D01*
Y172000D01*
G01Y177900D02*
X10800D01*
Y172900D01*
X21800D01*
Y177900D01*
G01X241800Y35000D02*
X230800D01*
Y30000D01*
X241800D01*
Y35000D01*
G01X232400Y45500D02*
X243400D01*
Y50500D01*
X232400D01*
Y45500D01*
G01Y39500D02*
X243400D01*
Y44500D01*
X232400D01*
Y39500D01*
G01Y57500D02*
X243400D01*
Y62500D01*
X232400D01*
Y57500D01*
G01Y51500D02*
X243400D01*
Y56500D01*
X232400D01*
Y51500D01*
G01Y63500D02*
X243400D01*
Y68500D01*
X232400D01*
Y63500D01*
G01Y69500D02*
X243400D01*
Y74500D01*
X232400D01*
Y69500D01*
G01Y75500D02*
X243400D01*
Y80500D01*
X232400D01*
Y75500D01*
G01Y81500D02*
X243400D01*
Y86500D01*
X232400D01*
Y81500D01*
G01Y87500D02*
X243400D01*
Y92500D01*
X232400D01*
Y87500D01*
G01Y93500D02*
X243400D01*
Y98500D01*
X232400D01*
Y93500D01*
G01Y99500D02*
X243400D01*
Y104500D01*
X232400D01*
Y99500D01*
G01Y105500D02*
X243400D01*
Y110500D01*
X232400D01*
Y105500D01*
G01Y111500D02*
X243400D01*
Y116500D01*
X232400D01*
Y111500D01*
G01Y117500D02*
X243400D01*
Y122500D01*
X232400D01*
Y117500D01*
G01Y123500D02*
X243400D01*
Y128500D01*
X232400D01*
Y123500D01*
G01Y141500D02*
X243400D01*
Y146500D01*
X232400D01*
Y141500D01*
G01Y135500D02*
X243400D01*
Y140500D01*
X232400D01*
Y135500D01*
G01Y129500D02*
X243400D01*
Y134500D01*
X232400D01*
Y129500D01*
G01Y147500D02*
X243400D01*
Y152500D01*
X232400D01*
Y147500D01*
G01Y153500D02*
X243400D01*
Y158500D01*
X232400D01*
Y153500D01*
G01Y159500D02*
X243400D01*
Y164500D01*
X232400D01*
Y159500D01*
G01Y165500D02*
X243400D01*
Y170500D01*
X232400D01*
Y165500D01*
G01Y171500D02*
X243400D01*
Y176500D01*
X232400D01*
Y171500D01*
G01Y177500D02*
X243400D01*
Y182500D01*
X232400D01*
Y177500D01*
G01Y183500D02*
X243400D01*
Y188500D01*
X232400D01*
Y183500D01*
G01Y189500D02*
X243400D01*
Y194500D01*
X232400D01*
Y189500D01*
G01Y195500D02*
X243400D01*
Y200500D01*
X232400D01*
Y195500D01*
G01Y201500D02*
X243400D01*
Y206500D01*
X232400D01*
Y201500D01*
G01Y207500D02*
X243400D01*
Y212500D01*
X232400D01*
Y207500D01*
G01Y213500D02*
X243400D01*
Y218500D01*
X232400D01*
Y213500D01*
G01Y219500D02*
X243400D01*
Y224500D01*
X232400D01*
Y219500D01*
G01Y225500D02*
X243400D01*
Y230500D01*
X232400D01*
Y225500D01*
G54D19*
G01X31100Y66890D02*
X26600Y71390D01*
G01X26420Y66810D02*
Y193190D01*
X53580D01*
Y66810D01*
X26420D01*
M02*
