G04 ================== begin FILE IDENTIFICATION RECORD ==================*
G04 Layout Name:  AGET_ERNI2HRS_HardBoard.brd*
G04 Film Name:    adtop*
G04 File Format:  Gerber RS274X*
G04 File Origin:  Cadence Allegro 16.6-S025*
G04 Origin Date:  Thu Sep 14 22:18:52 2017*
G04 *
G04 Layer:  REF DES/SILKSCREEN_TOP*
G04 Layer:  PIN/TOP*
G04 Layer:  PACKAGE GEOMETRY/SILKSCREEN_TOP*
G04 Layer:  BOARD GEOMETRY/OUTLINE*
G04 Layer:  BOARD GEOMETRY/SILKSCREEN_TOP*
G04 *
G04 Offset:    (0.0 0.0)*
G04 Mirror:    No*
G04 Mode:      Positive*
G04 Rotation:  0*
G04 FullContactRelief:  No*
G04 UndefLineWidth:     6.0*
G04 ================== end FILE IDENTIFICATION RECORD ====================*
%FSLAX25Y25*MOIN*%
%IR0*IPPOS*OFA0.00000B0.00000*MIA0B0*SFA1.00000B1.00000*%
%ADD10C,.176*%
%ADD14R,.1063X.0472*%
%ADD11R,.03X.032*%
%ADD12C,.06*%
%ADD15C,.0709*%
%ADD13R,.0315X.0315*%
%ADD16C,.002*%
%ADD17C,.004*%
%ADD18C,.005*%
%ADD19C,.006*%
%ADD20C,.007*%
G75*
%LPD*%
G75*
G36*
G01X65200Y46800D02*
G02X65700Y46810I2356J-105318D01*
G02X66290I295J-46434D01*
G02X66960Y46800I-861J-80147D01*
G02X68210Y46770I-137J-31771D01*
G02X69010Y46670I-306J-5695D01*
G02X69580Y46490I-541J-2707D01*
G02X70080Y46200I-937J-2192D01*
G02X70360Y45910I-778J-1031D01*
G02X70630Y45460I-3136J-2188D01*
G02X70830Y44980I-3398J-1697D01*
G02X70890Y44600I-1085J-366D01*
G02X70650Y43800I-1486J10D01*
G02X69950Y42980I-3342J2144D01*
G02X68860Y42220I-3963J4523D01*
G02X67490Y41600I-4780J8738D01*
G03X67150Y41470I6897J-18547D01*
G03X66800Y41330I9045J-23120D01*
G03X66470Y41200I8309J-21575D01*
G03X66240Y41090I2575J-5679D01*
G02X65600Y40850I-1801J3830D01*
G02X65120Y40830I-284J1041D01*
G02X64790Y41010I103J581D01*
G02X64570Y41380I678J654D01*
G02X64530Y41610I1003J293D01*
G02Y41900I2377J145D01*
G02X64570Y42320I5791J-340D01*
G02X64660Y43010I40018J-4869D01*
G02X64740Y43550I41737J-5907D01*
G02X64840Y44130I52465J-8747D01*
G02X64930Y44650I46670J-7810D01*
G02X65000Y45010I11386J-2027D01*
G03X65080Y45420I-18113J3747D01*
G03X65110Y45620I-1272J293D01*
G03X65090Y45740I-345J4D01*
G03X65030Y45830I-187J-60D01*
G02X64900Y45980I411J487D01*
G02X64830Y46150I428J276D01*
G02Y46330I491J90D01*
G02X64890Y46520I634J-96D01*
G02X64940Y46610I819J-396D01*
G02X65000Y46690I702J-464D01*
G02X65070Y46760I597J-527D01*
G02X65120Y46790I97J-105D01*
G02X65200Y46800I72J-247D01*
G37*
G36*
G01X81990Y47420D02*
G02X82150Y47450I164J-430D01*
G02X82300Y47410I-24J-390D01*
G02X82470Y47320I-338J-845D01*
G02X82610Y47150I-250J-348D01*
G02X82660Y46930I-449J-218D01*
G02X82610Y46680I-651J0D01*
G02X82460Y46450I-836J381D01*
G02X82340Y46320I-921J730D01*
G02X82220Y46260I-238J327D01*
G02X82090Y46220I-195J402D01*
G02X81890I-100J1799D01*
G02X81630Y46250I64J1695D01*
G02X81440Y46320I124J630D01*
G02X81320Y46430I180J317D01*
G02X81280Y46560I187J129D01*
G02X81320Y46750I487J-3D01*
G02X81440Y46980I1333J-549D01*
G02X81610Y47190I1257J-843D01*
G02X81780Y47320I497J-473D01*
G02X81990Y47420I815J-1441D01*
G37*
G36*
G01X73790Y45610D02*
G02X74150Y45600I158J-800D01*
G02X74440Y45450I-153J-651D01*
G02X74650Y45160I-620J-670D01*
G02X74750Y44890I-1346J-652D01*
G02X74780Y44630I-912J-237D01*
G02X74740Y44380I-935J21D01*
G02X74620Y44100I-1678J553D01*
G02X74430Y43810I-1252J613D01*
G02X74010Y43360I-8717J7715D01*
G02X73520Y42890I-8361J8227D01*
G02X73060Y42510I-4802J5345D01*
G03X72880Y42350I3364J-3965D01*
G03X72830Y42280I97J-122D01*
G03Y42200I97J-40D01*
G03X72920Y42050I1422J751D01*
G03X73410Y41730I607J394D01*
G03X74150Y41780I263J1608D01*
G03X75090Y42230I-1075J3452D01*
G03X76160Y43060I-5589J8310D01*
G03X76620Y43480I-14266J16086D01*
G03X76860Y43740I-1801J1903D01*
G03X77010Y43970I-1017J827D01*
G03X77130Y44250I-1788J932D01*
G02X77310Y44650I1917J-622D01*
G02X77570Y44990I1519J-892D01*
G02X77870Y45220I977J-963D01*
G02X78160Y45290I278J-518D01*
G02X78350Y45250I-5J-497D01*
G02X78490Y45150I-118J-313D01*
G02X78570Y44970I-366J-271D01*
G02X78600Y44730I-1061J-255D01*
G02X78570Y44600I-368J17D01*
G02X78500Y44460I-767J296D01*
G02X78380Y44290I-1205J723D01*
G02X78210Y44110I-2462J2155D01*
G03X78000Y43880I5199J-4958D01*
G03X77910Y43740I445J-385D01*
G03X77880Y43630I191J-111D01*
G03X77910Y43490I489J32D01*
G03X78010Y43290I1500J625D01*
G03X78270Y42830I33963J18893D01*
G03X78530Y42360I35193J19162D01*
G03X78650Y42190I1261J763D01*
G03X78680Y42180I20J11D01*
G03X78860Y42300I-10036J15249D01*
G03X79070Y42450I-4242J6160D01*
G03X79310Y42640I-9035J11660D01*
G03X79860Y43090I-5751J7590D01*
G03X80400Y43600I-7497J8479D01*
G03X80860Y44090I-11560J11313D01*
G03X80930Y44280I-212J186D01*
G02X81000Y44440I240J-10D01*
G02X81220Y44650I1352J-1197D01*
G02X81470Y44810I1057J-1377D01*
G02X81660Y44840I141J-278D01*
G02X81770Y44770I-24J-160D01*
G02X81820Y44620I-249J-166D01*
G02X81830Y44280I-3569J-275D01*
G02X81790Y42910I-451142J12486D01*
G03X81780Y42440I17157J-600D01*
G03X81790Y42160I2369J-56D01*
G03X81830Y41970I967J104D01*
G03X81910Y41810I635J218D01*
G03X81980Y41720I752J512D01*
G03X82050Y41640I582J438D01*
G03X82120Y41590I351J417D01*
G03X82180Y41570I65J94D01*
G03X82250Y41580I8J196D01*
G03X82420Y41650I-2176J5525D01*
G03X82620Y41740I-2141J5024D01*
G03X82840Y41850I-3504J7282D01*
G03X83150Y42030I-1250J2510D01*
G03X83480Y42270I-2625J3956D01*
G03X83850Y42590I-4447J5515D01*
G03X84300Y43020I-12142J13157D01*
G02X84640Y43360I65105J-64765D01*
G02X84940Y43650I34060J-34934D01*
G01X85200Y43900D01*
G02X85220Y43910I22J-20D01*
G03X85240I10J24D01*
G03X85400Y44070I-57941J58101D01*
G03X85580Y44250I-12690J12870D01*
G03X85790Y44470I-25105J24174D01*
G02X86440Y45040I3589J-3437D01*
G02X87060Y45340I1153J-1592D01*
G02X87600Y45360I310J-1068D01*
G02X88050Y45120I-182J-883D01*
G02X88190Y44960I-1509J-1462D01*
G02X88260Y44840I-295J-253D01*
G02X88280Y44700I-373J-125D01*
G02X88260Y44490I-2051J89D01*
G03X88230Y44280I5278J-861D01*
G03X88190Y43890I54348J-5771D01*
G03X88150Y43430I59474J-5403D01*
G03X88110Y42960I67134J-5950D01*
G02X87960Y41390I-33546J2413D01*
G02X87750Y40320I-8186J1051D01*
G02X87470Y39560I-4070J1068D01*
G02X87080Y39020I-1734J842D01*
G02X86860Y38820I-2370J2386D01*
G02X86700Y38730I-383J494D01*
G02X86500Y38680I-288J726D01*
G02X86170Y38640I-808J5282D01*
G02X85850Y38630I-306J4667D01*
G02X85620Y38660I51J1290D01*
G02X85410Y38720I212J1140D01*
G02X85140Y38840I1335J3367D01*
G02X84710Y39100I1164J2411D01*
G02X84320Y39450I1780J2376D01*
G02X84050Y39800I1715J1602D01*
G02X83960Y40100I474J306D01*
G02X84010Y40290I444J-15D01*
G02X84120Y40360I111J-54D01*
G02X84300Y40300I1J-298D01*
G02X84520Y40110I-979J-1356D01*
G03X84830Y39850I1196J1112D01*
G03X85230Y39660I1194J1997D01*
G03X85650Y39540I841J2150D01*
G03X86060Y39510I331J1711D01*
G03X86320Y39540I-262J3416D01*
G03X86470Y39580I-49J485D01*
G03X86580Y39670I-176J327D01*
G03X86700Y39820I-1017J936D01*
G03X86840Y40100I-1132J741D01*
G03X86960Y40460I-2980J1193D01*
G03X87050Y40940I-5165J1217D01*
G03X87130Y41570I-14242J2129D01*
G01X87190Y42130D01*
X86900Y41880D01*
G02X86520Y41610I-1746J2055D01*
G02X86040Y41370I-2307J4014D01*
G02X85560Y41190I-1782J4023D01*
G02X85200Y41140I-348J1186D01*
G02X84930Y41180I6J971D01*
G02X84740Y41290I125J435D01*
G02X84610Y41490I394J398D01*
G02X84520Y41800I1633J642D01*
G01X84460Y42090D01*
X83890Y41570D01*
G02X83340Y41120I-4919J5451D01*
G02X82860Y40820I-1885J2482D01*
G02X82420Y40660I-915J1832D01*
G02X82010Y40640I-263J1183D01*
G02X81550Y40790I119J1145D01*
G02X81190Y41120I610J1026D01*
G02X80940Y41640I1430J1007D01*
G02X80800Y42320I3701J1116D01*
G01X80740Y42860D01*
X80080Y42270D01*
G02X78790Y41150I-28873J31953D01*
G02X77790Y40400I-8216J9913D01*
G02X77020Y39940I-4298J6320D01*
G02X76580Y39890I-286J555D01*
G02X76360Y39970I239J1001D01*
G02X76240Y40080I126J258D01*
G02X76210Y40240I232J126D01*
G02X76260Y40440I716J-73D01*
G02X76350Y40590I494J-195D01*
G02X76490Y40720I663J-573D01*
G02X76720Y40860I1106J-1559D01*
G02X77080Y41040I4439J-8429D01*
G03X77590Y41310I-3244J6744D01*
G03X77820Y41520I-373J640D01*
G03X77870Y41730I-223J164D01*
G03X77760Y41990I-684J-136D01*
G02X77690Y42110I6007J3584D01*
G02X77570Y42280I25845J18371D01*
G02X77450Y42480I30579J18484D01*
G02X77330Y42670I25554J16273D01*
G01X77060Y43130D01*
X76730Y42730D01*
G02X76570Y42540I-2499J1942D01*
G02X76340Y42310I-6677J6447D01*
G02X76090Y42080I-6766J7104D01*
G02X75850Y41870I-4643J5064D01*
G02X74980Y41270I-4075J4977D01*
G02X74140Y40910I-1865J3193D01*
G02X73370Y40810I-716J2497D01*
G02X72710Y40980I36J1506D01*
G02X72400Y41200I731J1358D01*
G02X72170Y41470I721J847D01*
G02X72030Y41830I1177J665D01*
G02X71960Y42290I2878J673D01*
G02X72000Y43240I3602J324D01*
G02X72300Y44180I4013J-763D01*
G02X72780Y44960I3261J-1469D01*
G02X73400Y45470I1561J-1266D01*
G02X73790Y45610I692J-1313D01*
G37*
G36*
G01X95850Y74160D02*
G02X96170Y74200I254J-733D01*
G02X96420Y74120I-29J-521D01*
G02X96580Y73920I-222J-342D01*
G02X96730Y73030I-2065J-806D01*
G02X96580Y71350I-22009J1118D01*
G02X96240Y69230I-29603J3660D01*
G02X95690Y66720I-58962J11605D01*
G03X95440Y65630I74061J-17560D01*
G03X95180Y64450I102231J-23144D01*
G03X94950Y63360I94054J-20416D01*
G03X94800Y62550I28067J-5616D01*
G03X94310Y59610I309619J-53114D01*
G03X94140Y58280I16537J-2790D01*
G03X94150Y57490I4185J-342D01*
G03X94340Y56950I1281J147D01*
G02X94430Y56730I-603J-375D01*
G02X94420Y56530I-365J-82D01*
G02X94300Y56290I-836J268D01*
G02X94000Y55890I-6965J4911D01*
G02X93470Y55340I-3535J2876D01*
G02X92950Y55020I-1171J1320D01*
G02X92510Y54970I-310J770D01*
G02X92180Y55170I80J505D01*
G02X92030Y55610I646J466D01*
G02X92010Y56770I22094J961D01*
G02X92060Y58000I16895J-71D01*
G02X92200Y59010I7859J-575D01*
G03X92230Y59400I-1232J291D01*
G03X92080Y59470I-95J-7D01*
G03X91790Y59200I447J-770D01*
G03X91370Y58520I9513J-6346D01*
G02X90520Y57330I-6068J3436D01*
G02X89480Y56430I-4038J3615D01*
G02X88400Y55930I-2212J3362D01*
G02X87430Y55910I-521J1750D01*
G02X86640Y56380I411J1590D01*
G02X85940Y57350I3187J3037D01*
G02X85410Y58730I5933J3070D01*
G02X85100Y60380I10996J2920D01*
G02X84810Y64570I47178J5370D01*
G02X84880Y68850I51644J1296D01*
G02X85200Y72520I66970J-3990D01*
G02X85830Y72890I453J-50D01*
G02X85910Y72840I-99J-248D01*
G02X86130Y72620I-10763J-10983D01*
G02X86390Y72350I-8552J-8495D01*
G02X86680Y72040I-13521J-12939D01*
G02X87150Y71410I-3332J-2976D01*
G02X87350Y70850I-1170J-734D01*
G02X87360Y70070I-3467J-435D01*
G02X87150Y68240I-78972J8135D01*
G03X86910Y65610I41898J-5149D01*
G03X86890Y63400I20633J-1292D01*
G03X87100Y61530I14784J713D01*
G03X87540Y59930I8904J1588D01*
G03X87910Y59090I7760J2916D01*
G03X88280Y58580I1768J894D01*
G03X88700Y58320I759J757D01*
G03X89210Y58260I398J1183D01*
G03X90320Y58950I-147J1474D01*
G03X91520Y61270I-14469J8954D01*
G03X92700Y64610I-24979J10703D01*
G03X93740Y68890I-62023J17337D01*
G02X94130Y70490I22816J-4714D01*
G02X94640Y72110I25630J-7179D01*
G02X95180Y73520I30202J-10758D01*
G02X95540Y73980I1006J-416D01*
G02X95850Y74160I778J-983D01*
G37*
G36*
G01X104710Y47510D02*
G02X104950Y47540I235J-903D01*
G02X105190Y47510I5J-934D01*
G02X105340Y47410I-82J-286D01*
G02X105390Y47290I-153J-134D01*
G02X105380Y47050I-1793J-45D01*
G02X105330Y46660I-5106J456D01*
G02X105210Y45960I-48970J8035D01*
G03X104990Y44520I22530J-4179D01*
G03X104910Y43290I11451J-1362D01*
G03X104950Y42380I8805J-69D01*
G03X105160Y42180I215J15D01*
G03X105400Y42240I13J456D01*
G03X105870Y42550I-4930J7985D01*
G03X106410Y42960I-5439J7724D01*
G03X106960Y43430I-7384J9197D01*
G02X107200Y43640I8046J-8953D01*
G02X107420Y43830I4939J-5497D01*
G02X107610Y43980I7009J-8683D01*
G02X107660Y43990I40J-69D01*
G02X107760Y43940I7J-112D01*
G02X107810Y43790I-312J-187D01*
G02X107790Y43590I-649J-36D01*
G02X107720Y43380I-857J169D01*
G02X107460Y43020I-1491J803D01*
G02X106890Y42420I-12894J11678D01*
G02X106270Y41840I-11275J11431D01*
G02X105820Y41490I-2316J2514D01*
G02X105250Y41260I-959J1557D01*
G02X104790Y41330I-141J619D01*
G02X104450Y41710I423J721D01*
G02X104210Y42430I3229J1476D01*
G01X104120Y42860D01*
X103610Y42230D01*
G02X103010Y41560I-5445J4272D01*
G02X102400Y41090I-2570J2705D01*
G02X101800Y40800I-1482J2300D01*
G02X101190Y40710I-585J1855D01*
G02X100930I-130J4003D01*
G02X100800Y40750I41J363D01*
G02X100710Y40820I92J211D01*
G02X100620Y40970I923J656D01*
G02X100560Y41130I772J381D01*
G02X100520Y41310I1243J371D01*
G02X100500Y41520I1747J272D01*
G02X100510Y41780I3727J-13D01*
G01X100540Y42320D01*
X99970Y41850D01*
G02X99150Y41270I-3940J4701D01*
G02X98330Y40920I-1865J3234D01*
G02X97570Y40810I-764J2600D01*
G02X96920Y40950I3J1595D01*
G02X96600Y41140I604J1382D01*
G02X96370Y41390I710J884D01*
G02X96210Y41710I1042J721D01*
G02X96110Y42110I2047J724D01*
G01X96060Y42530D01*
X95650Y42150D01*
G02X94770Y41470I-3926J4171D01*
G02X93970Y41180I-1074J1714D01*
G02X93330Y41300I-137J1038D01*
G02X92890Y41770I507J915D01*
G02X92810Y41950I1455J754D01*
G02X92730Y42210I5217J1748D01*
G02X92660Y42480I5507J1572D01*
G02X92610Y42740I4225J947D01*
G03X92530Y43180I-9795J-1554D01*
G03X92440Y43450I-1597J-382D01*
G03X92350Y43600I-502J-199D01*
G03X92240Y43650I-110J-95D01*
G03X92100Y43590I6J-207D01*
G03X91820Y43310I4242J-4522D01*
G03X91510Y42950I4405J-4107D01*
G03X91180Y42520I7126J-5811D01*
G02X91030Y42310I-5365J3674D01*
G02X90830Y42070I-10064J8183D01*
G02X90640Y41830I-10045J7757D01*
G02X90470Y41640I-4577J3924D01*
G02X90160Y41350I-2207J2048D01*
G02X89920Y41240I-350J446D01*
G02X89720Y41270I-61J273D01*
G02X89540Y41440I269J465D01*
G02X89400Y41910I730J473D01*
G02X89430Y42870I9756J176D01*
G02X89580Y43870I9053J-847D01*
G02X89820Y44590I2941J-580D01*
G02X89910Y44750I1368J-664D01*
G02X90000Y44840I319J-229D01*
G02X90110Y44900I213J-260D01*
G02X90260Y44930I226J-741D01*
G02X90410Y44940I161J-1285D01*
G02X90500Y44910I-11J-183D01*
G02X90550Y44850I-71J-110D01*
G02X90590Y44730I-669J-290D01*
G02X90610Y44590I-442J-135D01*
G02X90580Y44350I-3594J327D01*
G02X90540Y44060I-4481J470D01*
G02X90470Y43740I-6814J1323D01*
G03X90390Y43440I16978J-4688D01*
G03X90340Y43170I12013J-2364D01*
G03X90290Y42930I13469J-2931D01*
G03X90280Y42830I541J-105D01*
G03X90320Y42820I23J6D01*
G03X90430Y42910I-462J676D01*
G03X90600Y43090I-1811J1880D01*
G03X90830Y43360I-7733J6820D01*
G02X91490Y44110I10006J-8140D01*
G02X91990Y44520I1772J-1651D01*
G02X92420Y44660I518J-860D01*
G02X92850Y44590I88J-814D01*
G02X93060Y44420I-314J-602D01*
G02X93220Y44180I-671J-620D01*
G02X93340Y43800I-1837J-789D01*
G02X93450Y43190I-10375J-2186D01*
G03X93610Y42440I6221J935D01*
G03X93840Y42140I479J129D01*
G03X94190Y42120I195J338D01*
G03X94760Y42440I-1539J3410D01*
G03X95250Y42820I-2580J3833D01*
G03X95750Y43300I-4841J5543D01*
G03X96190Y43810I-5118J4860D01*
G03X96470Y44260I-2234J1702D01*
G02X96810Y44790I3025J-1567D01*
G02X97230Y45240I2429J-1846D01*
G02X97670Y45540I1542J-1790D01*
G02X98060Y45640I396J-732D01*
G02X98510Y45500I-10J-825D01*
G02X98820Y45140I-471J-719D01*
G02X98920Y44630I-956J-452D01*
G02X98770Y44100I-1357J98D01*
G02X98570Y43810I-1257J653D01*
G02X98150Y43360I-8717J7715D01*
G02X97670Y42890I-8356J8054D01*
G02X97210Y42510I-4802J5345D01*
G03X97020Y42350I3359J-4181D01*
G03X96970Y42280I97J-122D01*
G03X96980Y42200I102J-28D01*
G03X97060Y42050I1417J659D01*
G03X97360Y41780I671J444D01*
G03X97750Y41690I377J744D01*
G03X98260Y41770I16J1561D01*
G03X98920Y42050I-1781J5117D01*
G03X99410Y42350I-1563J3103D01*
G03X100110Y42890I-10895J14846D01*
G03X100800Y43470I-11244J14076D01*
G03X101280Y43960I-4076J4473D01*
G02X102040Y44780I27885J-25083D01*
G02X102470Y45150I2089J-1992D01*
G02X102840Y45320I645J-915D01*
G02X103290Y45380I464J-1763D01*
G02X103580Y45340I-5J-1110D01*
G02X103820Y45230I-223J-804D01*
G02X103980Y45070I-338J-498D01*
G02X104040Y44890I-256J-185D01*
G03X104050Y44840I171J8D01*
G03X104070Y44810I94J41D01*
G03X104100Y44780I89J59D01*
G03X104130Y44770I34J52D01*
G03X104160Y44780I1J48D01*
G03X104190Y44820I-92J100D01*
G03X104210Y44870I-158J92D01*
G03X104220Y44920I-221J70D01*
G02X104250Y45480I5781J-29D01*
G02X104360Y46350I31622J-3556D01*
G02X104490Y47250I82570J-11467D01*
G02X104560Y47410I322J-45D01*
G02X104710Y47510I231J-184D01*
G37*
G36*
G01X104700Y73470D02*
G02X105350Y73630I996J-2648D01*
G02X105770Y73570I90J-872D01*
G02X106040Y73330I-188J-483D01*
G03X106190Y73170I429J252D01*
G03X106390Y73080I279J353D01*
G03X106720Y73070I209J1459D01*
G03X107380Y73140I-1710J19265D01*
G02X109220Y73340I9315J-77133D01*
G02X110480Y73410I1623J-17838D01*
G02X111490Y73380I194J-10491D01*
G02X112490Y73260I-710J-10146D01*
G01X113870Y73020D01*
X113930Y71940D01*
X113980Y70850D01*
X113010Y70990D01*
G03X111750Y71120I-2702J-20017D01*
G03X111060Y71060I-166J-2092D01*
G03X110870Y70820I67J-248D01*
G03X111010Y70470I495J-5D01*
G02X111410Y69770I-1278J-1195D01*
G02X111510Y68890I-2467J-726D01*
G02X111330Y67420I-10998J601D01*
G02X110650Y64020I-238771J45986D01*
G03X110320Y62270I48884J-10124D01*
G03X110070Y60600I40138J-6862D01*
G03X109900Y58960I38354J-4805D01*
G03X109790Y57310I38929J-3424D01*
G02X109730Y56200I-50272J2161D01*
G02X109660Y55650I-3784J202D01*
G02X109530Y55320I-1146J261D01*
G02X109310Y55060I-780J437D01*
G02X108910Y54810I-1221J1508D01*
G02X108610I-150J337D01*
G02X108410Y55020I128J322D01*
G02X108340Y55480I1659J488D01*
G03X108320Y55820I-10193J-429D01*
G03X108280Y56400I-70394J-4563D01*
G03X108230Y57060I-78621J-5624D01*
G03X108170Y57730I-79605J-6791D01*
G02X108120Y59100I12757J1152D01*
G02X108200Y60990I44370J-931D01*
G02X108380Y63240I59570J-3633D01*
G02X108660Y65760I95818J-9371D01*
G03X109060Y69030I-905272J112396D01*
G03X109150Y70060I-14994J1829D01*
G03X109110Y70560I-1970J94D01*
G03X108920Y70790I-304J-57D01*
G03X108780Y70830I-294J-764D01*
G03X108640Y70840I-131J-850D01*
G03X108520Y70830I-1J-714D01*
G03X108430Y70800I26J-228D01*
G02X108180Y70690I-535J876D01*
G02X106700Y70270I-92314J322479D01*
G02X105220Y69850I-86701J302700D01*
G02X104930Y69810I-303J1127D01*
G02X104880Y69830I1J76D01*
G02X104820Y69880I158J251D01*
G02X104780Y69970I381J223D01*
G02X104740Y70070I561J282D01*
G03X104650Y70150I-97J-19D01*
G03X104460Y70110I-2J-460D01*
G03X104130Y69950I762J-1991D01*
G03X103610Y69610I8803J-14030D01*
G02X103170Y69330I-5254J7771D01*
G02X102750Y69100I-3677J6216D01*
G02X102380Y68930I-2914J5855D01*
G02X102190Y68890I-194J451D01*
G02X101930Y69000I-5J349D01*
G02X101860Y69250I207J193D01*
G02X102030Y69640I992J-200D01*
G02X102420Y70120I3378J-2346D01*
G03X102690Y70400I-5231J5314D01*
G03X102800Y70580I-639J514D01*
G03Y70680I-88J50D01*
G03X102720Y70720I-76J-52D01*
G03X102550Y70670I-11J-276D01*
G03X102190Y70370I5574J-7054D01*
G03X101760Y69980I5599J-6605D01*
G03X101310Y69520I9379J-9625D01*
G03X100370Y68230I4705J-4416D01*
G03X100210Y67160I1335J-747D01*
G03X100800Y65900I3182J722D01*
G03X102610Y63650I38070J28772D01*
G02X103950Y62060I-71587J-61691D01*
G02X104510Y61250I-4650J-3813D01*
G02X104790Y60550I-2313J-1331D01*
G02X104950Y59610I-6668J-1619D01*
G03X105010Y59130I8573J828D01*
G03X105090Y58800I2274J377D01*
G03X105180Y58590I943J280D01*
G03X105280Y58550I80J55D01*
G02X105490Y58470I41J-209D01*
G02X105770Y58070I-2543J-2078D01*
G02X105980Y57640I-2825J-1646D01*
G02X105940Y57430I-176J-75D01*
G02X105850Y57380I-129J126D01*
G02X105540Y57320I-2092J9976D01*
G02X105170Y57250I-1720J8078D01*
G02X104740Y57200I-1735J13047D01*
G03X104140Y57100I793J-6607D01*
G03X103700Y56960I472J-2245D01*
G03X103290Y56740I899J-2168D01*
G03X102790Y56360I4078J-5884D01*
G02X101790Y55650I-5260J6350D01*
G02X100470Y54920I-9535J15683D01*
G02X99190Y54330I-8797J17402D01*
G02X98440Y54190I-729J1825D01*
G02X97920Y54280I-6J1513D01*
G02X97400Y54550I765J2110D01*
G02X97010Y54920I1102J1552D01*
G02X96880Y55300I467J372D01*
G02X97020Y55660I542J-4D01*
G02X97480Y56070I2036J-1821D01*
G02X98280Y56550I4050J-5844D01*
G02X99630Y57220I19531J-37659D01*
G02X100430Y57580I11925J-25432D01*
G02X101000Y57790I2476J-5841D01*
G02X101390Y57900I1116J-3211D01*
G02X101560Y57840I31J-184D01*
G02X101600Y57730I-128J-109D01*
G02X101570Y57590I-288J-12D01*
G02X101450Y57410I-689J330D01*
G02X101220Y57200I-2368J2363D01*
G03X101020Y57010I2465J-2795D01*
G03X100870Y56850I1307J-1375D01*
G03X100780Y56710I1119J-818D01*
G03X100790Y56650I42J-24D01*
G03X100940Y56640I81J80D01*
G03X101530Y57130I-12880J16108D01*
G03X102110Y57650I-12632J14673D01*
G03X102160Y57830I-126J132D01*
G02Y57900I109J35D01*
G02X102230Y58070I2381J-881D01*
G02X102340Y58260I2393J-1259D01*
G02X102460Y58460I3552J-1995D01*
G03X102660Y58800I-3029J2010D01*
G03X102710Y59010I-407J208D01*
G03X102670Y59250I-671J11D01*
G03X102460Y59750I-10472J-4104D01*
G03X102230Y60140I-2014J-925D01*
G03X101780Y60720I-11518J-8472D01*
G03X101230Y61370I-12703J-10191D01*
G03X100650Y61990I-12451J-11066D01*
G02X99540Y63140I32911J32877D01*
G02X98700Y64110I14623J13512D01*
G02X98100Y64920I10084J8097D01*
G02X97780Y65510I2278J1617D01*
G02X97620Y66560I2438J909D01*
G02X97840Y67790I4832J-230D01*
G02X98400Y69040I5522J-1723D01*
G02X99250Y70140I5254J-3181D01*
G02X100100Y70910I6181J-5969D01*
G02X101200Y71700I10007J-12773D01*
G02X102420Y72430I9713J-14848D01*
G02X103660Y73040I7436J-13551D01*
G02X104700Y73470I8453J-18971D01*
G37*
G36*
G01X121550Y45150D02*
G02X121730Y45200I214J-421D01*
G02X121910Y45170I21J-430D01*
G02X122050Y45070I-124J-322D01*
G02X122130Y44830I-284J-228D01*
G02X122100Y43800I-41253J686D01*
G02X122030Y42730I-21347J859D01*
G02X121910Y41830I-10871J991D01*
G02X121520Y40220I-12193J2101D01*
G02X120960Y39180I-3096J996D01*
G02X120240Y38670I-1245J994D01*
G02X119340Y38610I-559J1605D01*
G02X118660Y38810I908J4344D01*
G02X118110Y39090I863J2376D01*
G02X117750Y39440I929J1315D01*
G02X117630Y39790I457J352D01*
G02X117640Y39910I734J-1D01*
G02X117670Y40030I783J-132D01*
G02X117710Y40120I561J-195D01*
G02X117760Y40190I201J-91D01*
G02X117840Y40220I95J-131D01*
G02X117930Y40210I28J-158D01*
G02X118050Y40140I-197J-476D01*
G02X118250Y39970I-3388J-4188D01*
G03X118570Y39710I2153J2323D01*
G03X118890Y39540I991J1478D01*
G03X119220Y39440I620J1452D01*
G03X119580Y39410I345J1962D01*
G03X119880Y39450I1J1136D01*
G03X120130Y39570I-181J699D01*
G03X120340Y39790I-584J768D01*
G03X120560Y40160I-2761J1892D01*
G03X120760Y40670I-2781J1385D01*
G03X120940Y41340I-7346J2333D01*
G03X121050Y41980I-11348J2280D01*
G03X120960Y42090I-92J16D01*
G03X120930Y42080I5J-64D01*
G03X120820Y42020I3545J-6629D01*
G03X120700Y41950I2223J-3948D01*
G03X120550Y41860I4218J-7201D01*
G02X119520Y41310I-4413J7026D01*
G02X118750Y41150I-751J1679D01*
G02X118220Y41350I-2J798D01*
G02X117900Y41890I754J812D01*
G02X117860Y42530I1594J421D01*
G02X118040Y43550I9762J-1197D01*
G02X118330Y44530I10678J-2627D01*
G02X118620Y44910I697J-232D01*
G02X118820Y45000I421J-669D01*
G02X118990Y45010I103J-308D01*
G02X119140Y44930I-70J-311D01*
G02X119270Y44760I-515J-528D01*
G02X119330Y44610I-539J-303D01*
G02Y44470I-315J-70D01*
G02X119280Y44290I-851J139D01*
G02X119100Y43900I-14703J6550D01*
G03X118950Y43550I5899J-2735D01*
G03X118870Y43280I2041J-752D01*
G03X118820Y43010I1853J-483D01*
G03X118800Y42700I3436J-377D01*
G01Y42130D01*
X119160Y42140D01*
G03X119540Y42200I-9J1291D01*
G03X119990Y42390I-1068J3157D01*
G03X120430Y42660I-1666J3208D01*
G03X120790Y42960I-1398J2043D01*
G03X120990Y43180I-1872J1902D01*
G03X121080Y43360I-499J362D01*
G03X121130Y43590I-1015J341D01*
G03X121180Y44080I-15853J1865D01*
G02X121220Y44460I9589J-817D01*
G02X121270Y44730I2707J-362D01*
G02X121330Y44920I1406J-339D01*
G02X121400Y45040I351J-125D01*
G02X121550Y45150I359J-332D01*
G37*
G36*
G01X113980Y47110D02*
G02X114640Y47200I841J-3699D01*
G02X115180Y47160I97J-2356D01*
G02X115650Y46990I-325J-1633D01*
G02X115930Y46810I-797J-1548D01*
G02X116110Y46600I-480J-593D01*
G02X116210Y46330I-705J-415D01*
G02X116240Y45970I-2071J-354D01*
G02X116200Y45660I-1023J-26D01*
G02X116050Y45340I-1416J468D01*
G02X115820Y45030I-1603J949D01*
G02X115490Y44730I-2243J2136D01*
G01X115270Y44550D01*
X115630Y44390D01*
G02X115970Y44180I-687J-1493D01*
G02X116310Y43870I-1921J-2449D01*
G02X116590Y43520I-2215J-2059D01*
G02X116720Y43230I-667J-473D01*
G02X116670Y42490I-1292J-284D01*
G02X116210Y41640I-3196J1180D01*
G02X115490Y40900I-3111J2307D01*
G02X114660Y40450I-1704J2152D01*
G02X113850Y40260I-1456J4385D01*
G02X113180Y40280I-278J1918D01*
G02X112730Y40510I204J954D01*
G02X112540Y40890I385J430D01*
G02X112600Y41210I576J58D01*
G02X112820Y41400I356J-190D01*
G02X113200Y41440I272J-757D01*
G02X113710Y41320I-377J-2746D01*
G03X114100Y41250I426J1251D01*
G03X114460Y41320I-4J979D01*
G03X114810Y41520I-451J1195D01*
G03X115200Y41880I-2133J2702D01*
G03X115540Y42300I-3240J2970D01*
G03X115720Y42660I-1220J835D01*
G03X115770Y42970I-766J283D01*
G03X115690Y43240I-531J-10D01*
G03X115500Y43440I-643J-421D01*
G03X115180Y43630I-1366J-1936D01*
G03X114840Y43780I-1122J-2084D01*
G03X114550Y43820I-271J-897D01*
G03X114430Y43810I3J-755D01*
G03X114250Y43780I415J-3045D01*
G03X114060Y43730I761J-3277D01*
G03X113890Y43670I791J-2513D01*
G02X113520Y43580I-660J1909D01*
G02X113240Y43600I-98J599D01*
G02X113060Y43740I114J332D01*
G02X112970Y43970I405J291D01*
G02X113000Y44210I593J48D01*
G02X113120Y44410I466J-144D01*
G02X113340Y44560I481J-469D01*
G02X113660Y44640I536J-1465D01*
G03X114000Y44720I-446J2656D01*
G03X114280Y44840I-442J1419D01*
G03X114560Y45030I-973J1735D01*
G03X114930Y45340I-4798J6103D01*
G03X115320Y45770I-1988J2195D01*
G03X115340Y46050I-205J155D01*
G03X115080Y46220I-288J-157D01*
G03X114430I-325J-4125D01*
G03X113910Y46150I487J-5585D01*
G03X113440Y46030I781J-4038D01*
G03X113040Y45880I936J-3104D01*
G03X112740Y45690I613J-1300D01*
G03X112570Y45460I360J-444D01*
G03X112480Y45110I1312J-524D01*
G03X112410Y44420I9849J-1348D01*
G03X112280Y42150I653509J-38564D01*
G02X112240Y41530I-35649J1989D01*
G02X112200Y41210I-2896J199D01*
G02X112140Y41030I-789J163D01*
G02X112050Y40910I-271J109D01*
G02X111880Y40820I-407J562D01*
G02X111720Y40800I-126J359D01*
G02X111560Y40850I35J393D01*
G02X111400Y40960I306J617D01*
G02X111240Y41190I529J538D01*
G02X111170Y41480I854J360D01*
G02Y41900I2258J210D01*
G02X111260Y42600I16664J-1787D01*
G03X111410Y43730I-85451J11918D01*
G03X111500Y44550I-23669J3013D01*
G03X111540Y45140I-13953J1242D01*
G03X111520Y45470I-1563J71D01*
G02Y45770I962J150D01*
G02X111600Y46090I1370J-172D01*
G02X111750Y46360I1130J-451D01*
G02X111930Y46490I315J-246D01*
G02X112060Y46540I1066J-2577D01*
G02X112370Y46640I20188J-62054D01*
G02X112730Y46760I19332J-57395D01*
G02X113130Y46880I24324J-80355D01*
G02X113980Y47110I3307J-10536D01*
G37*
G36*
G01X122430Y72880D02*
G02X123720Y72780I317J-4275D01*
G02X124750Y72350I-681J-3081D01*
G02X125300Y71640I-762J-1159D01*
G02X125540Y70240I-4128J-1428D01*
G02X125430Y68260I-16200J-93D01*
G02X125040Y66090I-18497J2204D01*
G02X124410Y64070I-15546J3740D01*
G02X124070Y63220I-24927J9478D01*
G02X123840Y62840I-1621J721D01*
G02X123590Y62620I-620J453D01*
G02X123190Y62460I-960J1819D01*
G02X122400Y62280I-2588J9535D01*
G02X122140Y62380I-50J259D01*
G02X122040Y62690I397J299D01*
G02X122100Y63880I39344J-1387D01*
G02X122260Y65260I12572J-758D01*
G02X122580Y66640I13019J-2292D01*
G02X122990Y67820I10815J-3097D01*
G02X123450Y68580I2653J-1087D01*
G03X123820Y69210I-1640J1387D01*
G03Y69780I-776J285D01*
G03X123450Y70240I-852J-306D01*
G03X122740Y70550I-1391J-2217D01*
G03X121260Y70620I-896J-3273D01*
G03X119840Y70060I697J-3848D01*
G03X118540Y68890I2845J-4469D01*
G03X117450Y67170I7525J-5974D01*
G03X116640Y65070I11308J-5568D01*
G03X116180Y62780I13961J-3996D01*
G03X116110Y60680I12287J-1461D01*
G03X116510Y59200I3657J194D01*
G02X116660Y58890I-6226J-3204D01*
G02X116790Y58580I-5262J-2389D01*
G02X116880Y58310I-4874J-1775D01*
G02X116900Y58170I-457J-137D01*
G03X117040Y57820I501J-2D01*
G03X117690Y57200I7822J7550D01*
G03X118430Y56620I5919J6789D01*
G03X119070Y56270I1910J2733D01*
G03X120100Y56090I907J2154D01*
G03X121400Y56310I-290J5665D01*
G03X122830Y56900I-2189J7332D01*
G03X124230Y57800I-5033J9368D01*
G02X124550Y58040I8526J-11035D01*
G02X124840Y58230I4851J-7088D01*
G02X125090Y58390I6307J-9580D01*
G02X125170Y58410I76J-134D01*
G02X125230Y58390I5J-85D01*
G02X125320Y58280I-862J-797D01*
G02X125420Y58130I-1183J-897D01*
G02X125510Y57950I-2016J-1120D01*
G02X125590Y57670I-1023J-444D01*
G02X125550Y57470I-294J-45D01*
G02X125370Y57250I-696J386D01*
G02X124850Y56860I-10002J12794D01*
G02X124400Y56560I-4774J6674D01*
G02X123750Y56150I-17560J27119D01*
G02X123020Y55730I-18201J30791D01*
G02X122320Y55350I-13992J24939D01*
G02X121350Y54850I-14725J27376D01*
G02X120750Y54610I-1874J3814D01*
G02X120200Y54500I-816J2649D01*
G02X119480Y54470I-676J7560D01*
G02X117560Y54680I-57J8365D01*
G02X116030Y55340I1069J4582D01*
G02X114900Y56450I2312J3483D01*
G02X114150Y57990I4662J3223D01*
G02X113870Y59130I9331J2896D01*
G02X113700Y60360I11975J2282D01*
G02X113670Y61550I11409J883D01*
G02X113780Y62570I6470J-182D01*
G02X114060Y63970I43432J-7958D01*
G02X114320Y64920I10061J-2243D01*
G02X114640Y65780I8309J-2602D01*
G02X115160Y66860I22615J-10223D01*
G02X116290Y68690I10625J-5297D01*
G02X117780Y70370I11249J-8476D01*
G02X119460Y71730I9046J-9457D01*
G02X121130Y72590I4358J-6411D01*
G02X122430Y72880I1687J-4502D01*
G37*
G36*
G01X120100Y106700D02*
Y89100D01*
X172000D01*
Y106700D01*
X120100D01*
G37*
G36*
G01X131560Y47650D02*
G02X131870Y48000I3969J-3203D01*
G02X132070Y48180I982J-890D01*
G02X132250Y48230I169J-260D01*
G02X132350I50J-534D01*
G02X132450Y48200I-132J-623D01*
G02X132540Y48160I-186J-540D01*
G02X132600Y48110I-110J-192D01*
G02X132680Y47860I-257J-220D01*
G02X132580Y47530I-982J118D01*
G02X132290Y47060I-2763J1380D01*
G02X131730Y46330I-17476J12826D01*
G03X131370Y45870I20077J-16084D01*
G03X131000Y45380I24814J-19122D01*
G03X130670Y44920I23117J-16932D01*
G03X130460Y44600I5504J-3841D01*
G01X130060Y43950D01*
X129960Y42360D01*
G02X129900Y41380I-107390J6083D01*
G02X129850Y40980I-4081J307D01*
G02X129790Y40760I-850J114D01*
G02X129670Y40610I-382J183D01*
G02X129460Y40480I-539J635D01*
G02X129250Y40450I-169J435D01*
G02X129060Y40520I41J403D01*
G02X128910Y40670I286J436D01*
G02X128840Y40840I479J296D01*
G02X128810Y41040I776J219D01*
G02X128830Y41370I3154J-26D01*
G02X128910Y42110I64280J-6575D01*
G03X129050Y43350I-69650J8492D01*
G03X129030Y43780I-1640J139D01*
G03X128890Y44100I-700J-115D01*
G03X128510Y44530I-3782J-2959D01*
G02X127870Y45200I17984J17820D01*
G02X127250Y45900I19612J17995D01*
G02X126690Y46560I46061J39650D01*
G02X126630Y46720I191J163D01*
G02X126670Y46830I164J2D01*
G02X126810Y46950I645J-611D01*
G02X126990Y47060I683J-915D01*
G02X127210Y47150I667J-1317D01*
G02X127420Y47120I69J-267D01*
G02X127710Y46930I-726J-1424D01*
G02X128080Y46550I-2548J-2851D01*
G02X128580Y45950I-13449J-11716D01*
G03X128810Y45670I9308J7411D01*
G03X129030Y45420I6872J5826D01*
G03X129220Y45220I6319J5813D01*
G03X129320Y45130I415J360D01*
G03X129490Y45110I108J185D01*
G03X129660Y45210I-93J352D01*
G03X129940Y45540I-3146J2953D01*
G03X130960Y46870I-390276J300366D01*
G02X131560Y47650I62716J-47623D01*
G37*
G36*
G01X147760Y47770D02*
G02X147870Y47790I94J-202D01*
G02X147980Y47760I1J-214D01*
G02X148110Y47660I-549J-848D01*
G02X148180Y47570I-234J-254D01*
G02X148230Y47440I-496J-266D01*
G02X148260Y47280I-865J-245D01*
G02X148270Y47050I-3087J-249D01*
G02X148220Y46500I-3400J32D01*
G02X148060Y45630I-19889J3208D01*
G02X147850Y44710I-19940J4068D01*
G02X147620Y43950I-9955J2598D01*
G02X147350Y43240I-11851J4101D01*
G02X146890Y42160I-60364J25073D01*
G02X146410Y41060I-131269J56626D01*
G02X146260Y40810I-976J416D01*
G02X146140Y40740I-176J163D01*
G02X145960Y40710I-204J667D01*
G02X145760Y40730I-17J835D01*
G02X145580Y40800I160J679D01*
G02X145410Y40950I188J385D01*
G02X145160Y41400I7160J4272D01*
G02X144850Y42040I10752J5603D01*
G02X144460Y42930I37353J16899D01*
G03X144310Y43270I-18505J-7961D01*
G03X144180Y43560I-9792J-4216D01*
G03X144060Y43800I-25291J-12495D01*
G03X144030Y43820I-31J-14D01*
G03X144000Y43800I3J-36D01*
G03X143810Y43460I77209J-43369D01*
G03X143590Y43060I20243J-11394D01*
G03X143340Y42590I38733J-20904D01*
G02X142720Y41430I-62365J32587D01*
G02X142330Y40760I-8492J4495D01*
G02X142030Y40370I-3420J2321D01*
G02X141830Y40270I-207J165D01*
G02X141560Y40380I8J407D01*
G02X141320Y40680I743J840D01*
G02X141090Y41220I2782J1504D01*
G02X140820Y42140I19008J6078D01*
G03X140710Y42540I-53602J-14525D01*
G03X140620Y42880I-28905J-7469D01*
G03X140530Y43180I-101753J-30363D01*
G03X140520Y43200I-47J-11D01*
G03X140490Y43210I-20J-11D01*
G03X140310Y43050I15291J-17384D01*
G03X140090Y42870I5464J-6903D01*
G03X139850Y42640I11741J-12492D01*
G02X139290Y42170I-4886J5253D01*
G02X138740Y41820I-2626J3520D01*
G02X138240Y41600I-1512J2758D01*
G02X137810Y41530I-428J1271D01*
G02X137600Y41540I-20J1782D01*
G02X137460Y41580I62J481D01*
G02X137330Y41660I197J466D01*
G02X137190Y41810I1182J1244D01*
G02X137080Y41940I863J842D01*
G02X136980Y42100I1762J1212D01*
G02X136900Y42280I1994J994D01*
G02X136840Y42430I981J479D01*
G03X136810Y42570I-4346J-858D01*
G03X136770Y42680I-2144J-717D01*
G03X136730Y42770I-3368J-1443D01*
G01X136720Y42780D01*
G03X136700Y42770I0J-26D01*
G03X136580Y42620I22380J-18027D01*
G03X136450Y42440I7643J-5657D01*
G03X136290Y42230I14295J-11057D01*
G02X135780Y41610I-4888J3501D01*
G02X135260Y41160I-2339J2177D01*
G02X134730Y40890I-1309J1915D01*
G02X134200Y40790I-557J1497D01*
G02X133760Y40910I0J866D01*
G02X133470Y41230I358J616D01*
G02X133350Y41760I1149J539D01*
G02X133420Y42490I3960J-11D01*
G03X133470Y42790I-5589J1086D01*
G03X133520Y43150I-10323J1617D01*
G03X133550Y43500I-9986J1032D01*
G03Y43780I-4252J140D01*
G02X133580Y44250I4138J-28D01*
G02X133670Y44550I853J-93D01*
G02X133830Y44710I343J-183D01*
G02X134070Y44770I237J-440D01*
G02X134390Y44670I3J-553D01*
G02X134560Y44410I-246J-346D01*
G02X134570Y43930I-1315J-268D01*
G02X134420Y43130I-9851J1433D01*
G03X134230Y42230I16334J-3918D01*
G03X134250Y41830I817J-160D01*
G03X134440Y41710I167J54D01*
G03X134830Y41830I-130J1115D01*
G03X135270Y42150I-926J1735D01*
G03X135730Y42660I-3123J3279D01*
G03X136170Y43320I-4816J3687D01*
G03X136580Y44120I-8629J4928D01*
G02X136800Y44570I14586J-6852D01*
G02X136970Y44890I4062J-1953D01*
G02X137110Y45100I2265J-1358D01*
G02X137220Y45170I164J-136D01*
G02X137390I85J-252D01*
G02X137520Y45060I-81J-228D01*
G02X137580Y44850I-409J-230D01*
G02X137560Y44560I-1338J-53D01*
G03X137500Y44060I3828J-713D01*
G03Y43510I5372J-275D01*
G03X137550Y43020I4831J245D01*
G03X137660Y42710I978J173D01*
G03X137760Y42540I1774J929D01*
G03X137830Y42470I171J101D01*
G03X137940Y42450I92J193D01*
G03X138120Y42470I-88J1611D01*
G03X138450Y42570I-160J1122D01*
G03X138870Y42820I-2030J3889D01*
G03X139340Y43160I-3187J4900D01*
G03X139840Y43590I-5681J7112D01*
G01X140340Y44060D01*
X140140Y44950D01*
G02X139910Y46020I240302J52213D01*
G02X139860Y46340I3416J698D01*
G02X139870Y46520I532J61D01*
G02X139940Y46680I438J-96D01*
G02X140000Y46750I317J-211D01*
G02X140080Y46800I234J-285D01*
G02X140160Y46830I150J-278D01*
G02X140250I45J-268D01*
G02X140500Y46690I-44J-373D01*
G02X140710Y46300I-1415J-1013D01*
G02X140940Y45620I-5129J-2114D01*
G02X141260Y44360I-48815J-13068D01*
G03X141440Y43610I159245J37822D01*
G03X141600Y42930I111716J25927D01*
G03X141750Y42360I123782J32269D01*
G03X141810Y42140I4114J1004D01*
G01X141920Y41800D01*
X142490Y42790D01*
G03X142730Y43220I-14774J8528D01*
G03X142990Y43710I-22995J12515D01*
G03X143230Y44180I-21826J11442D01*
G03X143390Y44540I-7524J3560D01*
G02X143840Y45330I4072J-1796D01*
G02X144200Y45390I208J-139D01*
G02X144610Y44860I-892J-1114D01*
G02X145460Y42890I-77468J-34594D01*
G03X145590Y42580I10700J4305D01*
G03X145720Y42330I5484J2693D01*
G03X145830Y42110I9887J4806D01*
G03X145870Y42090I37J23D01*
G03X145970Y42160I-5J113D01*
G03X146250Y42780I-29938J13894D01*
G03X146540Y43480I-13846J6146D01*
G03X146780Y44170I-12886J4869D01*
G03X147000Y44910I-15333J4961D01*
G03X147170Y45640I-14375J3732D01*
G03X147300Y46330I-12937J2795D01*
G03X147380Y46960I-8569J1408D01*
G02X147410Y47260I5995J-448D01*
G02X147450Y47460I1154J-127D01*
G02X147520Y47580I461J-188D01*
G02X147610Y47680I313J-191D01*
G02X147760Y47770I727J-1041D01*
G37*
%LPC*%
G75*
G36*
G01X68890Y45730D02*
G03X68620Y45800I-518J-1442D01*
G03X68280Y45840I-499J-2773D01*
G03X67660Y45860I-1133J-25490D01*
G03X66640Y45870I-1026J-52644D01*
G03X66330Y45820I-16J-887D01*
G03X66160Y45650I104J-274D01*
G03X66050Y45270I1927J-764D01*
G03X65850Y44120I167986J-29807D01*
G03X65720Y43310I41971J-7152D01*
G03X65640Y42740I24240J-3693D01*
G03X65610Y42430I2368J-386D01*
G03X65620Y42230I2921J46D01*
G03X65650Y42150I176J20D01*
G03X65710Y42100I91J48D01*
G03X65820Y42090I98J465D01*
G03X66190Y42150I0J1170D01*
G03X67280Y42520I-19193J58333D01*
G03X68330Y42910I-14079J39513D01*
G03X68850Y43160I-1272J3312D01*
G03X69200Y43440I-824J1389D01*
G03X69570Y43880I-3097J2980D01*
G03X69860Y44340I-3443J2492D01*
G03X69940Y44660I-586J317D01*
G03X69900Y44940I-848J22D01*
G03X69760Y45190I-816J-293D01*
G03X69530Y45410I-888J-698D01*
G03X69200Y45600I-1309J-1892D01*
G03X68890Y45730I-1384J-2865D01*
G37*
G36*
G01X73800Y44750D02*
G03X73720I-40J-85D01*
G03X73600Y44660I183J-369D01*
G03X73410Y44450I3212J-3097D01*
G03X73220Y44170I1420J-1168D01*
G03X73040Y43800I3434J-1899D01*
G03X72910Y43460I4135J-1776D01*
G03X72960Y43390I50J-17D01*
G03X73000Y43400I6J62D01*
G03X73130Y43510I-3949J4799D01*
G03X73270Y43630I-2572J3142D01*
G03X73430Y43790I-5099J5259D01*
G03X73690Y44070I-2494J2576D01*
G03X73850Y44310I-1005J843D01*
G03X73920Y44520I-628J326D01*
G03X73880Y44680I-237J26D01*
G03X73800Y44750I-156J-98D01*
G37*
G36*
G01X87270Y44580D02*
G03X87120I-75J-242D01*
G03X86910Y44460I294J-759D01*
G03X86650Y44240I1837J-2435D01*
G03X86190Y43710I2914J-2993D01*
G03X85770Y43060I4819J-3575D01*
G03X85470Y42450I5348J-3009D01*
G03X85490Y42150I301J-131D01*
G03X85700Y42080I148J95D01*
G03X86250Y42320I-1571J4350D01*
G03X86800Y42650I-1950J3873D01*
G03X87120Y42990I-749J1025D01*
G03X87220Y43220I-556J379D01*
G03X87310Y43740I-9877J1977D01*
G03X87380Y44270I-10618J1672D01*
G03X87360Y44500I-543J69D01*
G03X87270Y44580I-118J-42D01*
G37*
G36*
G01X103250Y44600D02*
G03X103200Y44650I-1322J-1272D01*
G03X103160Y44680I-1715J-2245D01*
G01X103150D01*
G03X102750Y44440I100J-620D01*
G03X102090Y43480I12485J-9291D01*
G03X101510Y42470I11272J-7144D01*
G03X101360Y41870I1154J-607D01*
G03X101370Y41710I1808J33D01*
G03X101390Y41630I169J0D01*
G03X101450Y41590I81J57D01*
G03X101550Y41570I127J374D01*
G03X102000Y41730I-9J738D01*
G03X102790Y42420I-8156J10135D01*
G03X103530Y43160I-10860J11600D01*
G03X103520Y43420I-140J125D01*
G02X103490Y43480I93J84D01*
G02X103460Y43620I1650J427D01*
G02X103440Y43780I1796J306D01*
G02Y43960I2554J90D01*
G03X103430Y44170I-2539J-16D01*
G03X103400Y44330I-1122J-128D01*
G03X103360Y44460I-746J-159D01*
G03X103300Y44550I-264J-111D01*
G03X103250Y44600I-2037J-1987D01*
G37*
G36*
G01X97950Y44750D02*
G03X97860I-45J-95D01*
G03X97740Y44660I183J-369D01*
G03X97560Y44450I3217J-2940D01*
G03X97370Y44170I1420J-1168D01*
G03X97190Y43800I3434J-1899D01*
G03X97060Y43460I4135J-1776D01*
G03X97110Y43390I50J-17D01*
G03X97150Y43400I6J62D01*
G03X97280Y43510I-3949J4799D01*
G03X97420Y43630I-2572J3142D01*
G03X97580Y43790I-5099J5259D01*
G03X97840Y44070I-2494J2576D01*
G03X98000Y44310I-1005J843D01*
G03X98060Y44520I-633J294D01*
G03X98030Y44680I-232J39D01*
G03X97950Y44750I-156J-98D01*
G37*
%LPD*%
G75*
G54D10*
X20000Y20000D03*
Y240000D03*
X180000Y20000D03*
Y240000D03*
G54D20*
G01X20000Y221700D02*
G02X24200Y217500I0J-4200D01*
G02X20000Y213300I-4200J0D01*
G02X15800Y217500I0J4200D01*
G02X20000Y221700I4200J0D01*
G01Y224300D01*
X24000D01*
G01X20000D02*
X16000D01*
G01X54400Y26700D02*
G02X50200Y30900I0J4200D01*
G02X54400Y35100I4200J0D01*
G02X58600Y30900I0J-4200D01*
G02X54400Y26700I-4200J0D01*
G01Y24100D01*
X50400D01*
G01X72200Y25400D02*
G02X68000Y29600I0J4200D01*
G02X72200Y33800I4200J0D01*
G02X76400Y29600I0J-4200D01*
G02X72200Y25400I-4200J0D01*
G01Y22800D01*
X68200D01*
G01X54400Y24100D02*
X58400D01*
G01X60000Y221700D02*
G02X64200Y217500I0J-4200D01*
G02X60000Y213300I-4200J0D01*
G02X55800Y217500I0J4200D01*
G02X60000Y221700I4200J0D01*
G01Y224300D01*
X64000D01*
G01X60000D02*
X56000D01*
G01X72200Y22800D02*
X76200D01*
G01X140000Y219200D02*
X136000D01*
G01X140000Y216600D02*
G02X144200Y212400I0J-4200D01*
G02X140000Y208200I-4200J0D01*
G02X135800Y212400I0J4200D01*
G02X140000Y216600I4200J0D01*
G01Y219200D01*
X144000D01*
G01X150900Y25300D02*
X154900D01*
G01X150900Y27900D02*
G02X146700Y32100I0J4200D01*
G02X150900Y36300I4200J0D01*
G02X155100Y32100I0J-4200D01*
G02X150900Y27900I-4200J0D01*
G01Y25300D01*
X146900D01*
G01X161100Y218900D02*
G02X165300Y214700I0J-4200D01*
G02X161100Y210500I-4200J0D01*
G02X156900Y214700I0J4200D01*
G02X161100Y218900I4200J0D01*
G01Y221500D01*
X165100D01*
G01X161100D02*
X157100D01*
G01X180400Y47500D02*
X184400D01*
G01X180400Y50100D02*
G02X176200Y54300I0J4200D01*
G02X180400Y58500I4200J0D01*
G02X184600Y54300I0J-4200D01*
G02X180400Y50100I-4200J0D01*
G01Y47500D01*
X176400D01*
G54D11*
X13300Y83700D03*
Y89600D03*
Y96700D03*
Y102600D03*
Y108500D03*
Y114400D03*
Y120300D03*
Y126300D03*
Y138100D03*
Y144300D03*
Y132200D03*
Y150200D03*
Y156100D03*
Y162000D03*
Y168400D03*
Y174300D03*
X19300Y83700D03*
Y89600D03*
Y96700D03*
Y102600D03*
Y108500D03*
Y114400D03*
Y120300D03*
Y126300D03*
Y138100D03*
Y144300D03*
Y132200D03*
Y150200D03*
Y156100D03*
Y162000D03*
Y168400D03*
Y174300D03*
X211300Y37500D03*
X205300D03*
G54D12*
X20000Y217500D03*
X54400Y30900D03*
X72200Y29600D03*
X60000Y217500D03*
X140000Y212400D03*
X150900Y32100D03*
X161100Y214700D03*
X180400Y54300D03*
G54D13*
X221500Y32500D03*
Y47500D03*
Y42500D03*
Y37500D03*
Y67500D03*
Y62500D03*
Y57500D03*
Y52500D03*
Y87500D03*
Y82500D03*
Y77500D03*
Y72500D03*
Y107500D03*
Y102500D03*
Y97500D03*
Y92500D03*
Y127500D03*
Y122500D03*
Y117500D03*
Y112500D03*
Y142500D03*
Y137500D03*
Y132500D03*
Y162500D03*
Y157500D03*
Y152500D03*
Y147500D03*
Y182500D03*
Y177500D03*
Y172500D03*
Y167500D03*
Y202500D03*
Y197500D03*
Y192500D03*
Y187500D03*
Y217500D03*
Y212500D03*
Y207500D03*
Y227500D03*
Y222500D03*
X226500Y32500D03*
Y47500D03*
Y42500D03*
Y37500D03*
Y67500D03*
Y62500D03*
Y57500D03*
Y52500D03*
Y87500D03*
Y82500D03*
Y77500D03*
Y72500D03*
Y107500D03*
Y102500D03*
Y97500D03*
Y92500D03*
Y127500D03*
Y122500D03*
Y117500D03*
Y112500D03*
Y142500D03*
Y137500D03*
Y132500D03*
Y162500D03*
Y157500D03*
Y152500D03*
Y147500D03*
Y182500D03*
Y177500D03*
Y172500D03*
Y167500D03*
Y202500D03*
Y197500D03*
Y192500D03*
Y187500D03*
Y217500D03*
Y212500D03*
Y207500D03*
Y227500D03*
Y222500D03*
G54D14*
X224000Y23010D03*
Y236990D03*
X245260Y23010D03*
Y236990D03*
G54D15*
X234370Y23800D03*
Y236200D03*
G54D16*
G01X27280Y81960D02*
Y85060D01*
X28240D01*
X28550Y84900D01*
X28740Y84700D01*
X28820Y84280D01*
X28740Y83870D01*
X28510Y83610D01*
X28240Y83460D01*
X27280D01*
G01X28240D02*
X28820Y81960D01*
G01X30310Y82420D02*
X30540Y82170D01*
X30800Y82010D01*
X31150Y81960D01*
X31500Y82060D01*
X31760Y82270D01*
X31960Y82630D01*
X31990Y83040D01*
X31920Y83460D01*
X31720Y83720D01*
X31460Y83920D01*
X31190Y83970D01*
X30920Y83920D01*
X30580Y83720D01*
X30690Y85060D01*
X31720D01*
G01X26430Y87560D02*
Y90660D01*
X27390D01*
X27700Y90500D01*
X27890Y90300D01*
X27970Y89880D01*
X27890Y89470D01*
X27660Y89210D01*
X27390Y89060D01*
X26430D01*
G01X27390D02*
X27970Y87560D01*
G01X30300D02*
Y90660D01*
X29840Y90040D01*
G01Y87560D02*
X30760D01*
G01X32560Y88180D02*
X32790Y87820D01*
X33090Y87610D01*
X33440Y87560D01*
X33750Y87610D01*
X34050Y87870D01*
X34240Y88180D01*
X34280Y88490D01*
X34210Y88850D01*
X33940Y89110D01*
X33670Y89210D01*
X33320D01*
G01X33670D02*
X33900Y89370D01*
X34090Y89630D01*
X34170Y89940D01*
X34090Y90250D01*
X33900Y90500D01*
X33550Y90660D01*
X33210Y90610D01*
X32860Y90400D01*
G01X26280Y95620D02*
Y98720D01*
X27240D01*
X27550Y98560D01*
X27740Y98360D01*
X27820Y97940D01*
X27740Y97530D01*
X27510Y97270D01*
X27240Y97120D01*
X26280D01*
G01X27240D02*
X27820Y95620D01*
G01X29420Y98200D02*
X29650Y98510D01*
X29920Y98670D01*
X30230Y98720D01*
X30610Y98620D01*
X30880Y98360D01*
X30960Y98050D01*
X30920Y97740D01*
X30760Y97480D01*
X30000Y96960D01*
X29650Y96600D01*
X29420Y96080D01*
X29340Y95620D01*
X30960D01*
G01X33250D02*
Y98720D01*
X32790Y98100D01*
G01Y95620D02*
X33710D01*
G01X26280Y101520D02*
Y104620D01*
X27240D01*
X27550Y104460D01*
X27740Y104260D01*
X27820Y103840D01*
X27740Y103430D01*
X27510Y103170D01*
X27240Y103020D01*
X26280D01*
G01X27240D02*
X27820Y101520D01*
G01X29420Y104100D02*
X29650Y104410D01*
X29920Y104570D01*
X30230Y104620D01*
X30610Y104520D01*
X30880Y104260D01*
X30960Y103950D01*
X30920Y103640D01*
X30760Y103380D01*
X30000Y102860D01*
X29650Y102500D01*
X29420Y101980D01*
X29340Y101520D01*
X30960D01*
G01X32600Y101880D02*
X32870Y101620D01*
X33170Y101520D01*
X33480Y101620D01*
X33750Y101930D01*
X33940Y102400D01*
X34020Y102860D01*
Y103430D01*
X33940Y103900D01*
X33750Y104310D01*
X33520Y104520D01*
X33250Y104620D01*
X32940Y104520D01*
X32710Y104310D01*
X32560Y104000D01*
X32480Y103590D01*
X32560Y103230D01*
X32750Y102860D01*
X32980Y102660D01*
X33250Y102600D01*
X33560Y102710D01*
X33790Y102970D01*
X34020Y103430D01*
G01X26280Y107420D02*
Y110520D01*
X27240D01*
X27550Y110360D01*
X27740Y110160D01*
X27820Y109740D01*
X27740Y109330D01*
X27510Y109070D01*
X27240Y108920D01*
X26280D01*
G01X27240D02*
X27820Y107420D01*
G01X29310Y108040D02*
X29540Y107680D01*
X29840Y107470D01*
X30190Y107420D01*
X30500Y107470D01*
X30800Y107730D01*
X30990Y108040D01*
X31030Y108350D01*
X30960Y108710D01*
X30690Y108970D01*
X30420Y109070D01*
X30070D01*
G01X30420D02*
X30650Y109230D01*
X30840Y109490D01*
X30920Y109800D01*
X30840Y110110D01*
X30650Y110360D01*
X30300Y110520D01*
X29960Y110470D01*
X29610Y110260D01*
G01X33170Y107420D02*
X33250Y108090D01*
X33370Y108660D01*
X33520Y109180D01*
X33710Y109740D01*
X34020Y110520D01*
X32480D01*
G01X26280Y113320D02*
Y116420D01*
X27240D01*
X27550Y116260D01*
X27740Y116060D01*
X27820Y115640D01*
X27740Y115230D01*
X27510Y114970D01*
X27240Y114820D01*
X26280D01*
G01X27240D02*
X27820Y113320D01*
G01X30610D02*
Y116420D01*
X29190Y114200D01*
X31110D01*
G01X32410Y113780D02*
X32640Y113530D01*
X32900Y113370D01*
X33250Y113320D01*
X33600Y113420D01*
X33860Y113630D01*
X34060Y113990D01*
X34090Y114400D01*
X34020Y114820D01*
X33820Y115080D01*
X33560Y115280D01*
X33290Y115330D01*
X33020Y115280D01*
X32680Y115080D01*
X32790Y116420D01*
X33820D01*
G01X26280Y119220D02*
Y122320D01*
X27240D01*
X27550Y122160D01*
X27740Y121960D01*
X27820Y121540D01*
X27740Y121130D01*
X27510Y120870D01*
X27240Y120720D01*
X26280D01*
G01X27240D02*
X27820Y119220D01*
G01X29310Y119680D02*
X29540Y119430D01*
X29800Y119270D01*
X30150Y119220D01*
X30500Y119320D01*
X30760Y119530D01*
X30960Y119890D01*
X30990Y120300D01*
X30920Y120720D01*
X30720Y120980D01*
X30460Y121180D01*
X30190Y121230D01*
X29920Y121180D01*
X29580Y120980D01*
X29690Y122320D01*
X30720D01*
G01X32410Y119840D02*
X32640Y119480D01*
X32940Y119270D01*
X33290Y119220D01*
X33600Y119270D01*
X33900Y119530D01*
X34090Y119840D01*
X34130Y120150D01*
X34060Y120510D01*
X33790Y120770D01*
X33520Y120870D01*
X33170D01*
G01X33520D02*
X33750Y121030D01*
X33940Y121290D01*
X34020Y121600D01*
X33940Y121910D01*
X33750Y122160D01*
X33400Y122320D01*
X33060Y122270D01*
X32710Y122060D01*
G01X26280Y125220D02*
Y128320D01*
X27240D01*
X27550Y128160D01*
X27740Y127960D01*
X27820Y127540D01*
X27740Y127130D01*
X27510Y126870D01*
X27240Y126720D01*
X26280D01*
G01X27240D02*
X27820Y125220D01*
G01X29420Y126510D02*
X29690Y126870D01*
X29920Y127080D01*
X30230Y127180D01*
X30500Y127080D01*
X30690Y126870D01*
X30840Y126560D01*
X30880Y126200D01*
X30840Y125890D01*
X30690Y125580D01*
X30460Y125320D01*
X30190Y125220D01*
X29880Y125320D01*
X29610Y125630D01*
X29460Y126100D01*
X29420Y126610D01*
X29500Y127290D01*
X29610Y127650D01*
X29800Y128010D01*
X30070Y128270D01*
X30340Y128320D01*
X30610Y128220D01*
X30800Y127960D01*
G01X33250Y125220D02*
Y128320D01*
X32790Y127700D01*
G01Y125220D02*
X33710D01*
G01X26280Y137020D02*
Y140120D01*
X27240D01*
X27550Y139960D01*
X27740Y139760D01*
X27820Y139340D01*
X27740Y138930D01*
X27510Y138670D01*
X27240Y138520D01*
X26280D01*
G01X27240D02*
X27820Y137020D01*
G01X30150D02*
Y140120D01*
X29690Y139500D01*
G01Y137020D02*
X30610D01*
G01X33710D02*
Y140120D01*
X32290Y137900D01*
X34210D01*
G01X26280Y143220D02*
Y146320D01*
X27240D01*
X27550Y146160D01*
X27740Y145960D01*
X27820Y145540D01*
X27740Y145130D01*
X27510Y144870D01*
X27240Y144720D01*
X26280D01*
G01X27240D02*
X27820Y143220D01*
G01X29420Y145800D02*
X29650Y146110D01*
X29920Y146270D01*
X30230Y146320D01*
X30610Y146220D01*
X30880Y145960D01*
X30960Y145650D01*
X30920Y145340D01*
X30760Y145080D01*
X30000Y144560D01*
X29650Y144200D01*
X29420Y143680D01*
X29340Y143220D01*
X30960D01*
G01X32520Y145800D02*
X32750Y146110D01*
X33020Y146270D01*
X33330Y146320D01*
X33710Y146220D01*
X33980Y145960D01*
X34060Y145650D01*
X34020Y145340D01*
X33860Y145080D01*
X33100Y144560D01*
X32750Y144200D01*
X32520Y143680D01*
X32440Y143220D01*
X34060D01*
G01X26280Y131070D02*
Y134170D01*
X27240D01*
X27550Y134010D01*
X27740Y133810D01*
X27820Y133390D01*
X27740Y132980D01*
X27510Y132720D01*
X27240Y132570D01*
X26280D01*
G01X27240D02*
X27820Y131070D01*
G01X29420Y132360D02*
X29690Y132720D01*
X29920Y132930D01*
X30230Y133030D01*
X30500Y132930D01*
X30690Y132720D01*
X30840Y132410D01*
X30880Y132050D01*
X30840Y131740D01*
X30690Y131430D01*
X30460Y131170D01*
X30190Y131070D01*
X29880Y131170D01*
X29610Y131480D01*
X29460Y131950D01*
X29420Y132460D01*
X29500Y133140D01*
X29610Y133500D01*
X29800Y133860D01*
X30070Y134120D01*
X30340Y134170D01*
X30610Y134070D01*
X30800Y133810D01*
G01X26280Y149120D02*
Y152220D01*
X27240D01*
X27550Y152060D01*
X27740Y151860D01*
X27820Y151440D01*
X27740Y151030D01*
X27510Y150770D01*
X27240Y150620D01*
X26280D01*
G01X27240D02*
X27820Y149120D01*
G01X29310Y149740D02*
X29540Y149380D01*
X29840Y149170D01*
X30190Y149120D01*
X30500Y149170D01*
X30800Y149430D01*
X30990Y149740D01*
X31030Y150050D01*
X30960Y150410D01*
X30690Y150670D01*
X30420Y150770D01*
X30070D01*
G01X30420D02*
X30650Y150930D01*
X30840Y151190D01*
X30920Y151500D01*
X30840Y151810D01*
X30650Y152060D01*
X30300Y152220D01*
X29960Y152170D01*
X29610Y151960D01*
G01X33250Y152220D02*
X32940Y152120D01*
X32710Y151860D01*
X32560Y151550D01*
X32440Y151130D01*
X32410Y150670D01*
X32440Y150200D01*
X32560Y149790D01*
X32710Y149480D01*
X32940Y149220D01*
X33250Y149120D01*
X33560Y149220D01*
X33790Y149480D01*
X33940Y149790D01*
X34060Y150200D01*
X34090Y150670D01*
X34060Y151130D01*
X33940Y151550D01*
X33790Y151860D01*
X33560Y152120D01*
X33250Y152220D01*
G01X26280Y155020D02*
Y158120D01*
X27240D01*
X27550Y157960D01*
X27740Y157760D01*
X27820Y157340D01*
X27740Y156930D01*
X27510Y156670D01*
X27240Y156520D01*
X26280D01*
G01X27240D02*
X27820Y155020D01*
G01X29310Y155640D02*
X29540Y155280D01*
X29840Y155070D01*
X30190Y155020D01*
X30500Y155070D01*
X30800Y155330D01*
X30990Y155640D01*
X31030Y155950D01*
X30960Y156310D01*
X30690Y156570D01*
X30420Y156670D01*
X30070D01*
G01X30420D02*
X30650Y156830D01*
X30840Y157090D01*
X30920Y157400D01*
X30840Y157710D01*
X30650Y157960D01*
X30300Y158120D01*
X29960Y158070D01*
X29610Y157860D01*
G01X33250Y155020D02*
X33520Y155070D01*
X33820Y155230D01*
X34020Y155480D01*
X34090Y155850D01*
X34020Y156210D01*
X33790Y156520D01*
X33440Y156670D01*
X33060D01*
X32830Y156780D01*
X32640Y157030D01*
X32560Y157400D01*
X32680Y157760D01*
X32940Y158020D01*
X33250Y158120D01*
X33560Y158020D01*
X33820Y157760D01*
X33940Y157400D01*
X33860Y157030D01*
X33670Y156780D01*
X33440Y156670D01*
X33060D01*
X32710Y156520D01*
X32480Y156210D01*
X32410Y155850D01*
X32480Y155480D01*
X32680Y155230D01*
X32980Y155070D01*
X33250Y155020D01*
G01X26280Y160920D02*
Y164020D01*
X27240D01*
X27550Y163860D01*
X27740Y163660D01*
X27820Y163240D01*
X27740Y162830D01*
X27510Y162570D01*
X27240Y162420D01*
X26280D01*
G01X27240D02*
X27820Y160920D01*
G01X30610D02*
Y164020D01*
X29190Y161800D01*
X31110D01*
G01X32520Y162210D02*
X32790Y162570D01*
X33020Y162780D01*
X33330Y162880D01*
X33600Y162780D01*
X33790Y162570D01*
X33940Y162260D01*
X33980Y161900D01*
X33940Y161590D01*
X33790Y161280D01*
X33560Y161020D01*
X33290Y160920D01*
X32980Y161020D01*
X32710Y161330D01*
X32560Y161800D01*
X32520Y162310D01*
X32600Y162990D01*
X32710Y163350D01*
X32900Y163710D01*
X33170Y163970D01*
X33440Y164020D01*
X33710Y163920D01*
X33900Y163660D01*
G01X26280Y167320D02*
Y170420D01*
X27240D01*
X27550Y170260D01*
X27740Y170060D01*
X27820Y169640D01*
X27740Y169230D01*
X27510Y168970D01*
X27240Y168820D01*
X26280D01*
G01X27240D02*
X27820Y167320D01*
G01X29310Y167780D02*
X29540Y167530D01*
X29800Y167370D01*
X30150Y167320D01*
X30500Y167420D01*
X30760Y167630D01*
X30960Y167990D01*
X30990Y168400D01*
X30920Y168820D01*
X30720Y169080D01*
X30460Y169280D01*
X30190Y169330D01*
X29920Y169280D01*
X29580Y169080D01*
X29690Y170420D01*
X30720D01*
G01X33710Y167320D02*
Y170420D01*
X32290Y168200D01*
X34210D01*
G01X26280Y173220D02*
Y176320D01*
X27240D01*
X27550Y176160D01*
X27740Y175960D01*
X27820Y175540D01*
X27740Y175130D01*
X27510Y174870D01*
X27240Y174720D01*
X26280D01*
G01X27240D02*
X27820Y173220D01*
G01X29420Y174510D02*
X29690Y174870D01*
X29920Y175080D01*
X30230Y175180D01*
X30500Y175080D01*
X30690Y174870D01*
X30840Y174560D01*
X30880Y174200D01*
X30840Y173890D01*
X30690Y173580D01*
X30460Y173320D01*
X30190Y173220D01*
X29880Y173320D01*
X29610Y173630D01*
X29460Y174100D01*
X29420Y174610D01*
X29500Y175290D01*
X29610Y175650D01*
X29800Y176010D01*
X30070Y176270D01*
X30340Y176320D01*
X30610Y176220D01*
X30800Y175960D01*
G01X32520Y175800D02*
X32750Y176110D01*
X33020Y176270D01*
X33330Y176320D01*
X33710Y176220D01*
X33980Y175960D01*
X34060Y175650D01*
X34020Y175340D01*
X33860Y175080D01*
X33100Y174560D01*
X32750Y174200D01*
X32520Y173680D01*
X32440Y173220D01*
X34060D01*
G01X17780Y207850D02*
X18550D01*
Y206920D01*
X18320Y206610D01*
X18050Y206400D01*
X17670Y206300D01*
X17280Y206400D01*
X17010Y206610D01*
X16780Y206920D01*
X16630Y207280D01*
X16550Y207690D01*
Y208060D01*
X16630Y208370D01*
X16780Y208730D01*
X17010Y209040D01*
X17240Y209240D01*
X17550Y209400D01*
X17820D01*
X18120Y209300D01*
X18360Y209090D01*
G01X19770Y206300D02*
Y209400D01*
X21530Y206300D01*
Y209400D01*
G01X22910Y206300D02*
Y209400D01*
X23670D01*
X23980Y209240D01*
X24210Y209040D01*
X24400Y208730D01*
X24560Y208370D01*
X24590Y207850D01*
X24560Y207330D01*
X24400Y206970D01*
X24210Y206660D01*
X23980Y206450D01*
X23670Y206300D01*
X22910D01*
G01X50630Y19820D02*
X51400D01*
Y18890D01*
X51170Y18580D01*
X50900Y18370D01*
X50520Y18270D01*
X50130Y18370D01*
X49860Y18580D01*
X49630Y18890D01*
X49480Y19250D01*
X49400Y19660D01*
Y20030D01*
X49480Y20340D01*
X49630Y20700D01*
X49860Y21010D01*
X50090Y21210D01*
X50400Y21370D01*
X50670D01*
X50970Y21270D01*
X51210Y21060D01*
G01X52620Y18270D02*
Y21370D01*
X54380Y18270D01*
Y21370D01*
G01X55760Y18270D02*
Y21370D01*
X56520D01*
X56830Y21210D01*
X57060Y21010D01*
X57250Y20700D01*
X57410Y20340D01*
X57440Y19820D01*
X57410Y19300D01*
X57250Y18940D01*
X57060Y18630D01*
X56830Y18420D01*
X56520Y18270D01*
X55760D01*
G01X69030Y18620D02*
X69800D01*
Y17690D01*
X69570Y17380D01*
X69300Y17170D01*
X68920Y17070D01*
X68530Y17170D01*
X68260Y17380D01*
X68030Y17690D01*
X67880Y18050D01*
X67800Y18460D01*
Y18830D01*
X67880Y19140D01*
X68030Y19500D01*
X68260Y19810D01*
X68490Y20010D01*
X68800Y20170D01*
X69070D01*
X69370Y20070D01*
X69610Y19860D01*
G01X71020Y17070D02*
Y20170D01*
X72780Y17070D01*
Y20170D01*
G01X74160Y17070D02*
Y20170D01*
X74920D01*
X75230Y20010D01*
X75460Y19810D01*
X75650Y19500D01*
X75810Y19140D01*
X75840Y18620D01*
X75810Y18100D01*
X75650Y17740D01*
X75460Y17430D01*
X75230Y17220D01*
X74920Y17070D01*
X74160D01*
G01X62510Y135830D02*
Y140830D01*
X63770D01*
X64280Y140580D01*
X64660Y140250D01*
X64980Y139750D01*
X65230Y139160D01*
X65290Y138330D01*
X65230Y137500D01*
X64980Y136910D01*
X64660Y136410D01*
X64280Y136080D01*
X63770Y135830D01*
X62510D01*
G01X70270D02*
X67730D01*
Y140830D01*
X70270D01*
G01X69250Y138410D02*
X67730D01*
G01X74100Y140830D02*
Y135830D01*
G01X72640Y140830D02*
X75560D01*
G01X84300D02*
Y135830D01*
G01X82840Y140830D02*
X85760D01*
G01X89400Y135830D02*
X89020Y135910D01*
X88640Y136250D01*
X88390Y136830D01*
X88260Y137500D01*
X88390Y138160D01*
X88640Y138750D01*
X89020Y139080D01*
X89400Y139160D01*
X89780Y139080D01*
X90160Y138750D01*
X90410Y138160D01*
X90480Y137500D01*
X90410Y136830D01*
X90160Y136250D01*
X89780Y135910D01*
X89400Y135830D01*
G01X98020D02*
X99600Y140830D01*
X101180Y135830D01*
G01X100610Y137580D02*
X98590D01*
G01X105080Y138330D02*
X106350D01*
Y136830D01*
X105970Y136330D01*
X105520Y136000D01*
X104890Y135830D01*
X104260Y136000D01*
X103810Y136330D01*
X103430Y136830D01*
X103180Y137410D01*
X103050Y138080D01*
Y138660D01*
X103180Y139160D01*
X103430Y139750D01*
X103810Y140250D01*
X104190Y140580D01*
X104700Y140830D01*
X105140D01*
X105650Y140660D01*
X106030Y140330D01*
G01X111070Y135830D02*
X108530D01*
Y140830D01*
X111070D01*
G01X110050Y138410D02*
X108530D01*
G01X114900Y140830D02*
Y135830D01*
G01X113440Y140830D02*
X116360D01*
G01X123900Y135830D02*
Y140830D01*
X126300D01*
G01X125420Y138410D02*
X123900D01*
G01X131470Y135830D02*
X128930D01*
Y140830D01*
X131470D01*
G01X130450Y138410D02*
X128930D01*
G01X136690Y140410D02*
X136310Y140660D01*
X135870Y140830D01*
X135360D01*
X134790Y140580D01*
X134350Y140160D01*
X134030Y139660D01*
X133780Y138830D01*
X133720Y138080D01*
X133840Y137330D01*
X134030Y136830D01*
X134410Y136330D01*
X134860Y136000D01*
X135300Y135830D01*
X135740D01*
X136190Y136000D01*
X136570Y136250D01*
X136880Y136580D01*
G01X146890Y140410D02*
X146510Y140660D01*
X146070Y140830D01*
X145560D01*
X144990Y140580D01*
X144550Y140160D01*
X144230Y139660D01*
X143980Y138830D01*
X143920Y138080D01*
X144040Y137330D01*
X144230Y136830D01*
X144610Y136330D01*
X145060Y136000D01*
X145500Y135830D01*
X145940D01*
X146390Y136000D01*
X146770Y136250D01*
X147080Y136580D01*
G01X150600Y135830D02*
X150220Y135910D01*
X149840Y136250D01*
X149590Y136830D01*
X149460Y137500D01*
X149590Y138160D01*
X149840Y138750D01*
X150220Y139080D01*
X150600Y139160D01*
X150980Y139080D01*
X151360Y138750D01*
X151610Y138160D01*
X151680Y137500D01*
X151610Y136830D01*
X151360Y136250D01*
X150980Y135910D01*
X150600Y135830D01*
G01X154620D02*
Y139160D01*
G01Y138330D02*
X154880Y138750D01*
X155260Y139080D01*
X155760Y139160D01*
X156210Y139080D01*
X156590Y138750D01*
X156780Y138160D01*
Y135830D01*
G01X159720D02*
Y139160D01*
G01Y138330D02*
X159980Y138750D01*
X160360Y139080D01*
X160860Y139160D01*
X161310Y139080D01*
X161690Y138750D01*
X161880Y138160D01*
Y135830D01*
G01X164950Y138080D02*
X166980D01*
X166790Y138660D01*
X166470Y139000D01*
X166030Y139160D01*
X165580Y139080D01*
X165200Y138830D01*
X164950Y138250D01*
X164820Y137750D01*
Y137250D01*
X164950Y136750D01*
X165270Y136250D01*
X165650Y135910D01*
X166090Y135830D01*
X166530Y136000D01*
X166980Y136500D01*
G01X172010Y138750D02*
X171570Y139080D01*
X171190Y139160D01*
X170680Y139000D01*
X170300Y138660D01*
X170050Y138080D01*
X169990Y137500D01*
X170050Y136910D01*
X170300Y136410D01*
X170680Y136000D01*
X171190Y135830D01*
X171630Y136000D01*
X172010Y136330D01*
G01X176100Y140830D02*
Y135830D01*
G01X175210Y139160D02*
X176990D01*
G01X181200Y135830D02*
X180820Y135910D01*
X180440Y136250D01*
X180190Y136830D01*
X180060Y137500D01*
X180190Y138160D01*
X180440Y138750D01*
X180820Y139080D01*
X181200Y139160D01*
X181580Y139080D01*
X181960Y138750D01*
X182210Y138160D01*
X182280Y137500D01*
X182210Y136830D01*
X181960Y136250D01*
X181580Y135910D01*
X181200Y135830D01*
G01X185410D02*
Y139160D01*
G01Y138500D02*
X185730Y138830D01*
X186050Y139080D01*
X186490Y139160D01*
X186810Y139080D01*
X187190Y138830D01*
G01X57780Y208250D02*
X58550D01*
Y207320D01*
X58320Y207010D01*
X58050Y206800D01*
X57670Y206700D01*
X57280Y206800D01*
X57010Y207010D01*
X56780Y207320D01*
X56630Y207680D01*
X56550Y208090D01*
Y208460D01*
X56630Y208770D01*
X56780Y209130D01*
X57010Y209440D01*
X57240Y209640D01*
X57550Y209800D01*
X57820D01*
X58120Y209700D01*
X58360Y209490D01*
G01X59770Y206700D02*
Y209800D01*
X61530Y206700D01*
Y209800D01*
G01X62910Y206700D02*
Y209800D01*
X63670D01*
X63980Y209640D01*
X64210Y209440D01*
X64400Y209130D01*
X64560Y208770D01*
X64590Y208250D01*
X64560Y207730D01*
X64400Y207370D01*
X64210Y207060D01*
X63980Y206850D01*
X63670Y206700D01*
X62910D01*
G01X112620Y33150D02*
X112850Y33460D01*
X113120Y33620D01*
X113430Y33670D01*
X113810Y33570D01*
X114080Y33310D01*
X114160Y33000D01*
X114120Y32690D01*
X113960Y32430D01*
X113200Y31910D01*
X112850Y31550D01*
X112620Y31030D01*
X112540Y30570D01*
X114160D01*
G01X116450Y33670D02*
X116140Y33570D01*
X115910Y33310D01*
X115760Y33000D01*
X115640Y32580D01*
X115610Y32120D01*
X115640Y31650D01*
X115760Y31240D01*
X115910Y30930D01*
X116140Y30670D01*
X116450Y30570D01*
X116760Y30670D01*
X116990Y30930D01*
X117140Y31240D01*
X117260Y31650D01*
X117290Y32120D01*
X117260Y32580D01*
X117140Y33000D01*
X116990Y33310D01*
X116760Y33570D01*
X116450Y33670D01*
G01X119550Y30570D02*
Y33670D01*
X119090Y33050D01*
G01Y30570D02*
X120010D01*
G01X122570D02*
X122650Y31240D01*
X122770Y31810D01*
X122920Y32330D01*
X123110Y32890D01*
X123420Y33670D01*
X121880D01*
G01X125060Y30470D02*
X126440Y33670D01*
G01X128850D02*
X128540Y33570D01*
X128310Y33310D01*
X128160Y33000D01*
X128040Y32580D01*
X128010Y32120D01*
X128040Y31650D01*
X128160Y31240D01*
X128310Y30930D01*
X128540Y30670D01*
X128850Y30570D01*
X129160Y30670D01*
X129390Y30930D01*
X129540Y31240D01*
X129660Y31650D01*
X129690Y32120D01*
X129660Y32580D01*
X129540Y33000D01*
X129390Y33310D01*
X129160Y33570D01*
X128850Y33670D01*
G01X131300Y30930D02*
X131570Y30670D01*
X131870Y30570D01*
X132180Y30670D01*
X132450Y30980D01*
X132640Y31450D01*
X132720Y31910D01*
Y32480D01*
X132640Y32950D01*
X132450Y33360D01*
X132220Y33570D01*
X131950Y33670D01*
X131640Y33570D01*
X131410Y33360D01*
X131260Y33050D01*
X131180Y32640D01*
X131260Y32280D01*
X131450Y31910D01*
X131680Y31710D01*
X131950Y31650D01*
X132260Y31760D01*
X132490Y32020D01*
X132720Y32480D01*
G01X134360Y30470D02*
X135740Y33670D01*
G01X138150Y30570D02*
Y33670D01*
X137690Y33050D01*
G01Y30570D02*
X138610D01*
G01X141710D02*
Y33670D01*
X140290Y31450D01*
X142210D01*
G01X137630Y203920D02*
X138400D01*
Y202990D01*
X138170Y202680D01*
X137900Y202470D01*
X137520Y202370D01*
X137130Y202470D01*
X136860Y202680D01*
X136630Y202990D01*
X136480Y203350D01*
X136400Y203760D01*
Y204130D01*
X136480Y204440D01*
X136630Y204800D01*
X136860Y205110D01*
X137090Y205310D01*
X137400Y205470D01*
X137670D01*
X137970Y205370D01*
X138210Y205160D01*
G01X139620Y202370D02*
Y205470D01*
X141380Y202370D01*
Y205470D01*
G01X142760Y202370D02*
Y205470D01*
X143520D01*
X143830Y205310D01*
X144060Y205110D01*
X144250Y204800D01*
X144410Y204440D01*
X144440Y203920D01*
X144410Y203400D01*
X144250Y203040D01*
X144060Y202730D01*
X143830Y202520D01*
X143520Y202370D01*
X142760D01*
G01X147730Y20120D02*
X148500D01*
Y19190D01*
X148270Y18880D01*
X148000Y18670D01*
X147620Y18570D01*
X147230Y18670D01*
X146960Y18880D01*
X146730Y19190D01*
X146580Y19550D01*
X146500Y19960D01*
Y20330D01*
X146580Y20640D01*
X146730Y21000D01*
X146960Y21310D01*
X147190Y21510D01*
X147500Y21670D01*
X147770D01*
X148070Y21570D01*
X148310Y21360D01*
G01X149720Y18570D02*
Y21670D01*
X151480Y18570D01*
Y21670D01*
G01X152860Y18570D02*
Y21670D01*
X153620D01*
X153930Y21510D01*
X154160Y21310D01*
X154350Y21000D01*
X154510Y20640D01*
X154540Y20120D01*
X154510Y19600D01*
X154350Y19240D01*
X154160Y18930D01*
X153930Y18720D01*
X153620Y18570D01*
X152860D01*
G01X159230Y204220D02*
X160000D01*
Y203290D01*
X159770Y202980D01*
X159500Y202770D01*
X159120Y202670D01*
X158730Y202770D01*
X158460Y202980D01*
X158230Y203290D01*
X158080Y203650D01*
X158000Y204060D01*
Y204430D01*
X158080Y204740D01*
X158230Y205100D01*
X158460Y205410D01*
X158690Y205610D01*
X159000Y205770D01*
X159270D01*
X159570Y205670D01*
X159810Y205460D01*
G01X161220Y202670D02*
Y205770D01*
X162980Y202670D01*
Y205770D01*
G01X164360Y202670D02*
Y205770D01*
X165120D01*
X165430Y205610D01*
X165660Y205410D01*
X165850Y205100D01*
X166010Y204740D01*
X166040Y204220D01*
X166010Y203700D01*
X165850Y203340D01*
X165660Y203030D01*
X165430Y202820D01*
X165120Y202670D01*
X164360D01*
G01X177930Y43920D02*
X178700D01*
Y42990D01*
X178470Y42680D01*
X178200Y42470D01*
X177820Y42370D01*
X177430Y42470D01*
X177160Y42680D01*
X176930Y42990D01*
X176780Y43350D01*
X176700Y43760D01*
Y44130D01*
X176780Y44440D01*
X176930Y44800D01*
X177160Y45110D01*
X177390Y45310D01*
X177700Y45470D01*
X177970D01*
X178270Y45370D01*
X178510Y45160D01*
G01X179920Y42370D02*
Y45470D01*
X181680Y42370D01*
Y45470D01*
G01X183060Y42370D02*
Y45470D01*
X183820D01*
X184130Y45310D01*
X184360Y45110D01*
X184550Y44800D01*
X184710Y44440D01*
X184740Y43920D01*
X184710Y43400D01*
X184550Y43040D01*
X184360Y42730D01*
X184130Y42520D01*
X183820Y42370D01*
X183060D01*
G01X197380Y40370D02*
Y43470D01*
X198340D01*
X198650Y43310D01*
X198840Y43110D01*
X198920Y42690D01*
X198840Y42280D01*
X198610Y42020D01*
X198340Y41870D01*
X197380D01*
G01X198340D02*
X198920Y40370D01*
G01X200410Y40990D02*
X200640Y40630D01*
X200940Y40420D01*
X201290Y40370D01*
X201600Y40420D01*
X201900Y40680D01*
X202090Y40990D01*
X202130Y41300D01*
X202060Y41660D01*
X201790Y41920D01*
X201520Y42020D01*
X201170D01*
G01X201520D02*
X201750Y42180D01*
X201940Y42440D01*
X202020Y42750D01*
X201940Y43060D01*
X201750Y43310D01*
X201400Y43470D01*
X201060Y43420D01*
X200710Y43210D01*
G01X205540Y49910D02*
X205310Y50070D01*
X205050Y50170D01*
X204740D01*
X204390Y50010D01*
X204130Y49760D01*
X203930Y49450D01*
X203780Y48930D01*
X203740Y48460D01*
X203820Y48000D01*
X203930Y47690D01*
X204160Y47380D01*
X204430Y47170D01*
X204700Y47070D01*
X204970D01*
X205240Y47170D01*
X205470Y47330D01*
X205660Y47530D01*
G01X207150Y47070D02*
Y50170D01*
G01Y48670D02*
X207340Y48930D01*
X207530Y49080D01*
X207840Y49140D01*
X208070Y49080D01*
X208340Y48880D01*
X208450Y48570D01*
Y47070D01*
G01X210900D02*
Y50170D01*
X210440Y49550D01*
G01Y47070D02*
X211360D01*
G01X208940Y109120D02*
Y107580D01*
X205840D01*
Y109120D01*
G01X207340Y108500D02*
Y107580D01*
G01X208940Y110680D02*
X205840D01*
Y111640D01*
X206000Y111950D01*
X206200Y112140D01*
X206620Y112220D01*
X207030Y112140D01*
X207290Y111910D01*
X207440Y111640D01*
Y110680D01*
G01Y111640D02*
X208940Y112220D01*
G01Y113670D02*
X205840D01*
X208940Y115430D01*
X205840D01*
G01Y117190D02*
Y118110D01*
G01Y117650D02*
X208940D01*
G01Y117190D02*
Y118110D01*
G01Y123850D02*
X205840D01*
X206460Y123390D01*
G01X208940D02*
Y124310D01*
G01X208480Y126110D02*
X208730Y126340D01*
X208890Y126600D01*
X208940Y126950D01*
X208840Y127300D01*
X208630Y127560D01*
X208270Y127760D01*
X207860Y127790D01*
X207440Y127720D01*
X207180Y127520D01*
X206980Y127260D01*
X206930Y126990D01*
X206980Y126720D01*
X207180Y126380D01*
X205840Y126490D01*
Y127520D01*
G01X208940Y130510D02*
X205840D01*
X208060Y129090D01*
Y131010D01*
G01X208940Y133070D02*
X208270Y133150D01*
X207700Y133270D01*
X207180Y133420D01*
X206620Y133610D01*
X205840Y133920D01*
Y132380D01*
G01X207650Y135520D02*
X207290Y135790D01*
X207080Y136020D01*
X206980Y136330D01*
X207080Y136600D01*
X207290Y136790D01*
X207600Y136940D01*
X207960Y136980D01*
X208270Y136940D01*
X208580Y136790D01*
X208840Y136560D01*
X208940Y136290D01*
X208840Y135980D01*
X208530Y135710D01*
X208060Y135560D01*
X207550Y135520D01*
X206870Y135600D01*
X206510Y135710D01*
X206150Y135900D01*
X205890Y136170D01*
X205840Y136440D01*
X205940Y136710D01*
X206200Y136900D01*
G01X208940Y139270D02*
X208270Y139350D01*
X207700Y139470D01*
X207180Y139620D01*
X206620Y139810D01*
X205840Y140120D01*
Y138580D01*
G01X208940Y144550D02*
X205840D01*
X208420Y145550D01*
X205840Y146550D01*
X208940D01*
G01Y147690D02*
X205840Y148650D01*
X208940Y149610D01*
G01X207860Y149260D02*
Y148040D01*
G01X205840Y150980D02*
X208940D01*
Y152520D01*
G01Y155620D02*
Y154080D01*
X205840D01*
Y155620D01*
G01X207340Y155000D02*
Y154080D01*
G01X203890Y228710D02*
X203660Y228870D01*
X203400Y228970D01*
X203090D01*
X202740Y228810D01*
X202480Y228560D01*
X202280Y228250D01*
X202130Y227730D01*
X202090Y227260D01*
X202170Y226800D01*
X202280Y226490D01*
X202510Y226180D01*
X202780Y225970D01*
X203050Y225870D01*
X203320D01*
X203590Y225970D01*
X203820Y226130D01*
X204010Y226330D01*
G01X205500Y225870D02*
Y228970D01*
G01Y227470D02*
X205690Y227730D01*
X205880Y227880D01*
X206190Y227940D01*
X206420Y227880D01*
X206690Y227680D01*
X206800Y227370D01*
Y225870D01*
G01X208520Y227160D02*
X208790Y227520D01*
X209020Y227730D01*
X209330Y227830D01*
X209600Y227730D01*
X209790Y227520D01*
X209940Y227210D01*
X209980Y226850D01*
X209940Y226540D01*
X209790Y226230D01*
X209560Y225970D01*
X209290Y225870D01*
X208980Y225970D01*
X208710Y226280D01*
X208560Y226750D01*
X208520Y227260D01*
X208600Y227940D01*
X208710Y228300D01*
X208900Y228660D01*
X209170Y228920D01*
X209440Y228970D01*
X209710Y228870D01*
X209900Y228610D01*
G01X212810Y225870D02*
Y228970D01*
X211390Y226750D01*
X213310D01*
G01X219880Y247120D02*
X220080Y246810D01*
X220300Y246600D01*
X220570Y246500D01*
X220880Y246600D01*
X221110Y246810D01*
X221340Y247120D01*
X221420Y247530D01*
Y249600D01*
G01X223750Y246500D02*
Y249600D01*
X223290Y248980D01*
G01Y246500D02*
X224210D01*
G54D17*
G01X216500Y242500D02*
X263500D01*
Y17500D01*
X216500D01*
Y242500D01*
G54D18*
G01X21800Y81200D02*
X10800D01*
Y86200D01*
X21800D01*
Y81200D01*
G01Y87100D02*
X10800D01*
Y92100D01*
X21800D01*
Y87100D01*
G01Y94200D02*
X10800D01*
Y99200D01*
X21800D01*
Y94200D01*
G01Y100100D02*
X10800D01*
Y105100D01*
X21800D01*
Y100100D01*
G01Y106000D02*
X10800D01*
Y111000D01*
X21800D01*
Y106000D01*
G01Y111900D02*
X10800D01*
Y116900D01*
X21800D01*
Y111900D01*
G01Y117800D02*
X10800D01*
Y122800D01*
X21800D01*
Y117800D01*
G01Y123800D02*
X10800D01*
Y128800D01*
X21800D01*
Y123800D01*
G01Y135600D02*
X10800D01*
Y140600D01*
X21800D01*
Y135600D01*
G01Y141800D02*
X10800D01*
Y146800D01*
X21800D01*
Y141800D01*
G01Y129700D02*
X10800D01*
Y134700D01*
X21800D01*
Y129700D01*
G01Y147700D02*
X10800D01*
Y152700D01*
X21800D01*
Y147700D01*
G01Y153600D02*
X10800D01*
Y158600D01*
X21800D01*
Y153600D01*
G01Y159500D02*
X10800D01*
Y164500D01*
X21800D01*
Y159500D01*
G01Y165900D02*
X10800D01*
Y170900D01*
X21800D01*
Y165900D01*
G01Y171800D02*
X10800D01*
Y176800D01*
X21800D01*
Y171800D01*
G01X213800Y35000D02*
X202800D01*
Y40000D01*
X213800D01*
Y35000D01*
G54D19*
G01X251200Y242400D02*
Y17600D01*
G01X2500Y0D02*
X248700D01*
G03X251200Y2500I0J2500D01*
G01Y257500D01*
G03X248700Y260000I-2500J0D01*
G01X2500D01*
G03X0Y257500I0J-2500D01*
G01Y2500D01*
G03X2500Y0I2500J0D01*
G01X29530Y20000D02*
G03I-9530J0D01*
G01Y240000D02*
G03I-9530J0D01*
G01X189530Y20000D02*
G03I-9530J0D01*
G01Y240000D02*
G03I-9530J0D01*
G01X216500Y17500D02*
Y242500D01*
X263500D01*
Y17500D01*
X216500D01*
M02*
