G04 ================== begin FILE IDENTIFICATION RECORD ==================*
G04 Layout Name:  AGET_ERNI2HRS_HardBoard.brd*
G04 Film Name:    art04*
G04 File Format:  Gerber RS274X*
G04 File Origin:  Cadence Allegro 16.6-S025*
G04 Origin Date:  Thu Sep 14 22:18:52 2017*
G04 *
G04 Layer:  VIA CLASS/BOTTOM*
G04 Layer:  PIN/BOTTOM*
G04 Layer:  ETCH/BOTTOM*
G04 Layer:  BOARD GEOMETRY/OUTLINE*
G04 *
G04 Offset:    (0.0 0.0)*
G04 Mirror:    Yes*
G04 Mode:      Positive*
G04 Rotation:  0*
G04 FullContactRelief:  No*
G04 UndefLineWidth:     6.0*
G04 ================== end FILE IDENTIFICATION RECORD ====================*
%FSLAX25Y25*MOIN*%
%IR0*IPPOS*OFA0.00000B0.00000*MIA1B0*SFA1.00000B1.00000*%
%ADD17R,.122X.063*%
%ADD10C,.176*%
%ADD12R,.03X.032*%
%ADD16C,.06*%
%ADD13C,.016*%
%ADD11C,.028*%
%ADD14R,.0433X.0118*%
%ADD18C,.0709*%
%ADD15R,.0591X.0276*%
%ADD19C,.006*%
%ADD23R,.1322X.0732*%
%ADD22R,.0402X.0422*%
%ADD20C,.0264*%
%ADD21C,.0384*%
G75*
%LPD*%
G75*
G36*
G01X4000Y4000D02*
Y256000D01*
X247200D01*
Y4000D01*
X4000D01*
G37*
%LPC*%
G75*
G36*
G01X27090Y125320D02*
G03X26610Y125710I-397J2D01*
G02X24960Y127570I-310J1387D01*
G03X24580Y128100I-378J130D01*
G01X23090D01*
X21980Y126990D01*
X21410D01*
Y125690D01*
X17190D01*
Y130110D01*
X21410D01*
Y129960D01*
G03X22090Y129680I399J4D01*
G01X22330Y129920D01*
X24600D01*
G03X24980Y130470I7J401D01*
G02Y131490I1320J510D01*
G03X24600Y132040I-373J149D01*
G01X22070D01*
G03X21410Y131740I-260J-303D01*
G01Y131590D01*
X17190D01*
Y136010D01*
X21410D01*
Y134710D01*
X21980D01*
X22830Y133860D01*
X26990D01*
Y134150D01*
X27090D01*
Y135110D01*
G03X26610Y135500I-397J2D01*
G02X24980Y137400I-306J1386D01*
G03X24600Y137950I-373J149D01*
G01X22060D01*
G03X21410Y137640I-250J-313D01*
G01Y137490D01*
X17190D01*
Y141910D01*
X21410D01*
Y140610D01*
X21980D01*
X22820Y139770D01*
X26990D01*
Y140060D01*
X27080D01*
Y142980D01*
G03X26600Y143370I-398J1D01*
G02X24980Y145270I-297J1388D01*
G03X24600Y145820I-373J149D01*
G01X22810D01*
X21980Y144990D01*
X21410D01*
Y143690D01*
X17190D01*
Y148110D01*
X21410D01*
Y147960D01*
G03X22050Y147640I401J1D01*
G01X26990D01*
Y147930D01*
X27090D01*
Y148890D01*
G03X26610Y149280I-397J2D01*
G02X24980Y151180I-306J1386D01*
G03X24600Y151730I-373J149D01*
G01X22820D01*
X21980Y150890D01*
X21410D01*
Y149590D01*
X17190D01*
Y154010D01*
X21410D01*
Y153860D01*
G03X22060Y153550I400J3D01*
G01X24600D01*
G03X24970Y154090I-2J398D01*
G02X24980Y155110I1330J497D01*
G03X24600Y155660I-373J149D01*
G01X22350D01*
X22090Y155920D01*
G03X21410Y155640I-281J-284D01*
G01Y155490D01*
X17190D01*
Y159910D01*
X21410D01*
Y158610D01*
X21980D01*
X23110Y157480D01*
X26990D01*
Y157770D01*
X27090D01*
Y158730D01*
G03X26610Y159120I-397J2D01*
G02X24980Y161020I-306J1386D01*
G03X24600Y161570I-373J149D01*
G01X22340D01*
X22090Y161820D01*
G03X21410Y161540I-281J-284D01*
G01Y161390D01*
X17190D01*
Y165810D01*
X21410D01*
Y164510D01*
X21980D01*
X23100Y163390D01*
X26990D01*
Y163680D01*
X27080D01*
Y166600D01*
G03X26600Y166990I-398J1D01*
G02X24980Y168890I-297J1388D01*
G03X24600Y169440I-373J149D01*
G01X22830D01*
X21980Y168590D01*
X21410D01*
Y167290D01*
X17190D01*
Y171710D01*
X21410D01*
Y171560D01*
G03X22070Y171260I400J3D01*
G01X26990D01*
Y171550D01*
X27090D01*
Y172510D01*
G03X26610Y172900I-397J2D01*
G02X24980Y174800I-306J1386D01*
G03X24600Y175350I-373J149D01*
G01X22840D01*
X21980Y174490D01*
X21410D01*
Y173190D01*
X17190D01*
Y177610D01*
X21410D01*
Y177460D01*
G03X22080Y177170I399J4D01*
G01X26990D01*
Y177460D01*
X32540D01*
G02X33020Y174870I760J-1199D01*
G03X32550Y174480I-71J-393D01*
G01Y173090D01*
X32450D01*
Y172110D01*
G03X32950Y171720I400J-2D01*
G02X33020Y168960I356J-1372D01*
G03X32550Y168570I-71J-393D01*
G01Y167320D01*
X34020D01*
Y163710D01*
G02X33020Y161090I-716J-1228D01*
G03X32550Y160700I-71J-393D01*
G01Y159310D01*
X32450D01*
Y158330D01*
G03X32950Y157940I400J-2D01*
G02X33020Y155180I356J-1372D01*
G03X32550Y154790I-71J-393D01*
G01Y154420D01*
G03X33020Y154030I399J3D01*
G02Y151250I280J-1390D01*
G03X32550Y150860I-71J-393D01*
G01Y149470D01*
X32450D01*
Y148490D01*
G03X32950Y148100I400J-2D01*
G02X33020Y145340I356J-1372D01*
G03X32550Y144950I-71J-393D01*
G01Y143700D01*
X34020D01*
Y140090D01*
G02X33020Y137470I-716J-1228D01*
G03X32550Y137080I-71J-393D01*
G01Y135690D01*
X32450D01*
Y134710D01*
G03X32950Y134320I400J-2D01*
G02X33020Y131560I356J-1372D01*
G03X32550Y131170I-71J-393D01*
G01Y130790D01*
G03X33020Y130400I399J3D01*
G02Y127620I280J-1390D01*
G03X32550Y127230I-71J-393D01*
G01Y125850D01*
X32450D01*
Y124870D01*
G03X32950Y124480I400J-2D01*
G02X33020Y121720I356J-1372D01*
G03X32550Y121330I-71J-393D01*
G01Y120080D01*
X34020D01*
Y116460D01*
G02X33020Y113840I-716J-1228D01*
G03X32550Y113450I-71J-393D01*
G01Y112070D01*
X32450D01*
Y111090D01*
G03X32950Y110700I400J-2D01*
G02X33020Y107940I356J-1372D01*
G03X32550Y107550I-71J-393D01*
G01Y107170D01*
G03X33020Y106780I399J3D01*
G02Y104000I280J-1390D01*
G03X32550Y103610I-71J-393D01*
G01Y102220D01*
X32450D01*
Y101250D01*
G03X32950Y100860I400J-2D01*
G02X33020Y98100I356J-1372D01*
G03X32550Y97710I-71J-393D01*
G01Y96450D01*
X34020D01*
Y92840D01*
G02X33020Y90220I-716J-1228D01*
G03X32550Y89830I-71J-393D01*
G01Y88440D01*
X32450D01*
Y87470D01*
G03X32950Y87080I400J-2D01*
G02X33020Y84320I356J-1372D01*
G03X32550Y83930I-71J-393D01*
G01Y82540D01*
X27060D01*
G02X25010Y84330I-759J1200D01*
G03X24640Y84890I-367J160D01*
G01X21410D01*
Y83590D01*
X17190D01*
Y88010D01*
X21410D01*
Y86710D01*
X26990D01*
Y86910D01*
X27090D01*
Y87860D01*
G03X26610Y88250I-397J2D01*
G02X24980Y90150I-306J1386D01*
G03X24600Y90700I-373J149D01*
G01X21810D01*
X21750Y90760D01*
G03X21410Y90620I-141J-142D01*
G01Y89990D01*
X17190D01*
Y94410D01*
X21410D01*
Y93110D01*
X21980D01*
X22570Y92520D01*
X26990D01*
Y92810D01*
X27080D01*
Y95740D01*
G03X26600Y96130I-398J1D01*
G02X24980Y98030I-297J1388D01*
G03X24600Y98580I-373J149D01*
G01X22770D01*
X21980Y97790D01*
X21410D01*
Y96490D01*
X17190D01*
Y100910D01*
X21410D01*
Y100280D01*
G03X21750Y100140I199J2D01*
G01X22010Y100400D01*
X26990D01*
Y100690D01*
X27090D01*
Y101640D01*
G03X26610Y102030I-397J2D01*
G02X24980Y103930I-306J1386D01*
G03X24600Y104480I-373J149D01*
G01X22770D01*
X21980Y103690D01*
X21410D01*
Y102390D01*
X17190D01*
Y106810D01*
X21410D01*
Y106180D01*
G03X21750Y106040I199J2D01*
G01X22010Y106300D01*
X24600D01*
G03X24980Y106850I7J401D01*
G02Y107870I1320J510D01*
G03X24600Y108420I-373J149D01*
G01X22390D01*
X22090Y108720D01*
G03X21410Y108440I-281J-284D01*
G01Y108290D01*
X17190D01*
Y112710D01*
X21410D01*
Y111410D01*
X21980D01*
X23150Y110240D01*
X26990D01*
Y110530D01*
X27090D01*
Y111490D01*
G03X26610Y111880I-397J2D01*
G02X24970Y113780I-312J1388D01*
G03X24600Y114320I-372J142D01*
G01X22390D01*
X22090Y114620D01*
G03X21410Y114340I-281J-284D01*
G01Y114190D01*
X17190D01*
Y118610D01*
X21410D01*
Y117310D01*
X21980D01*
X23150Y116140D01*
X26990D01*
Y116430D01*
X27080D01*
Y119360D01*
G03X26600Y119750I-398J1D01*
G02X24980Y121650I-297J1388D01*
G03X24600Y122200I-373J149D01*
G01X22690D01*
X21980Y121490D01*
X21410D01*
Y120190D01*
X17190D01*
Y124610D01*
X21410D01*
Y123980D01*
G03X21750Y123840I199J2D01*
G01X21930Y124020D01*
X26990D01*
Y124310D01*
X27090D01*
Y125320D01*
G37*
G36*
G01X235410Y34710D02*
Y30290D01*
X231190D01*
Y31590D01*
X230470D01*
G02Y33410I-1090J910D01*
G01X231190D01*
Y34710D01*
X235410D01*
G37*
G36*
G01X242910Y225890D02*
X238890D01*
Y230110D01*
X242910D01*
Y229140D01*
G03X243610Y228870I401J-4D01*
G02Y227130I990J-870D01*
G03X242910Y226860I-299J-266D01*
G01Y225890D01*
G37*
G36*
G01Y219890D02*
X238890D01*
Y224110D01*
X242910D01*
Y223140D01*
G03X243610Y222870I401J-4D01*
G02Y221130I990J-870D01*
G03X242910Y220860I-299J-266D01*
G01Y219890D01*
G37*
G36*
G01Y213890D02*
X238890D01*
Y218110D01*
X242910D01*
Y217140D01*
G03X243610Y216870I401J-4D01*
G02Y215130I990J-870D01*
G03X242910Y214860I-299J-266D01*
G01Y213890D01*
G37*
G36*
G01Y207890D02*
X238890D01*
Y212110D01*
X242910D01*
Y211140D01*
G03X243610Y210870I401J-4D01*
G02Y209130I990J-870D01*
G03X242910Y208860I-299J-266D01*
G01Y207890D01*
G37*
G36*
G01Y201890D02*
X238890D01*
Y206110D01*
X242910D01*
Y205140D01*
G03X243610Y204870I401J-4D01*
G02Y203130I990J-870D01*
G03X242910Y202860I-299J-266D01*
G01Y201890D01*
G37*
G36*
G01Y195890D02*
X238890D01*
Y200110D01*
X242910D01*
Y199140D01*
G03X243610Y198870I401J-4D01*
G02Y197130I990J-870D01*
G03X242910Y196860I-299J-266D01*
G01Y195890D01*
G37*
G36*
G01Y189890D02*
X238890D01*
Y194110D01*
X242910D01*
Y193140D01*
G03X243610Y192870I401J-4D01*
G02Y191130I990J-870D01*
G03X242910Y190860I-299J-266D01*
G01Y189890D01*
G37*
G36*
G01Y183890D02*
X238890D01*
Y188110D01*
X242910D01*
Y187140D01*
G03X243610Y186870I401J-4D01*
G02Y185130I990J-870D01*
G03X242910Y184860I-299J-266D01*
G01Y183890D01*
G37*
G36*
G01X37120Y184590D02*
G02X34880I-1120J-690D01*
G03X34530Y185200I-343J209D01*
G01X33390D01*
Y192520D01*
X34260D01*
G03X34570Y193170I0J399D01*
G02X36630I1030J830D01*
G03X36940Y192520I310J-251D01*
G01X41850D01*
G03X42140Y193190I-3J399D01*
G02X44060I960J910D01*
G03X44350Y192520I293J-271D01*
G01X46610D01*
Y192330D01*
G03X47260Y192020I399J1D01*
G02Y189980I840J-1020D01*
G03X46610Y189670I-251J-311D01*
G01Y188370D01*
G03X47220Y188030I400J1D01*
G02Y185770I680J-1130D01*
G03X46610Y185430I-210J-341D01*
G01Y185200D01*
X43870D01*
G03X43520Y184590I-7J-401D01*
G02X41280I-1120J-690D01*
G03X40930Y185200I-343J209D01*
G01X37470D01*
G03X37120Y184590I-7J-401D01*
G37*
G36*
G01X242910Y177890D02*
X238890D01*
Y182110D01*
X242910D01*
Y181140D01*
G03X243610Y180870I401J-4D01*
G02Y179130I990J-870D01*
G03X242910Y178860I-299J-266D01*
G01Y177890D01*
G37*
G36*
G01Y171890D02*
X238890D01*
Y176110D01*
X242910D01*
Y175140D01*
G03X243610Y174870I401J-4D01*
G02Y173130I990J-870D01*
G03X242910Y172860I-299J-266D01*
G01Y171890D01*
G37*
G36*
G01Y165890D02*
X238890D01*
Y170110D01*
X242910D01*
Y169140D01*
G03X243610Y168870I401J-4D01*
G02Y167130I990J-870D01*
G03X242910Y166860I-299J-266D01*
G01Y165890D01*
G37*
G36*
G01Y159890D02*
X238890D01*
Y164110D01*
X242910D01*
Y163140D01*
G03X243610Y162870I401J-4D01*
G02Y161130I990J-870D01*
G03X242910Y160860I-299J-266D01*
G01Y159890D01*
G37*
G36*
G01Y153890D02*
X238890D01*
Y158110D01*
X242910D01*
Y157140D01*
G03X243610Y156870I401J-4D01*
G02Y155130I990J-870D01*
G03X242910Y154860I-299J-266D01*
G01Y153890D01*
G37*
G36*
G01Y147890D02*
X238890D01*
Y152110D01*
X242910D01*
Y151140D01*
G03X243610Y150870I401J-4D01*
G02Y149130I990J-870D01*
G03X242910Y148860I-299J-266D01*
G01Y147890D01*
G37*
G36*
G01Y141890D02*
X238890D01*
Y146110D01*
X242910D01*
Y145140D01*
G03X243610Y144870I401J-4D01*
G02Y143130I990J-870D01*
G03X242910Y142860I-299J-266D01*
G01Y141890D01*
G37*
G36*
G01Y135890D02*
X238890D01*
Y140110D01*
X242910D01*
Y139140D01*
G03X243610Y138870I401J-4D01*
G02Y137130I990J-870D01*
G03X242910Y136860I-299J-266D01*
G01Y135890D01*
G37*
G36*
G01Y129890D02*
X238890D01*
Y134110D01*
X242910D01*
Y133140D01*
G03X243610Y132870I401J-4D01*
G02Y131130I990J-870D01*
G03X242910Y130860I-299J-266D01*
G01Y129890D01*
G37*
G36*
G01Y123890D02*
X238890D01*
Y128110D01*
X242910D01*
Y127140D01*
G03X243610Y126870I401J-4D01*
G02Y125130I990J-870D01*
G03X242910Y124860I-299J-266D01*
G01Y123890D01*
G37*
G36*
G01Y117890D02*
X238890D01*
Y122110D01*
X242910D01*
Y121140D01*
G03X243610Y120870I401J-4D01*
G02Y119130I990J-870D01*
G03X242910Y118860I-299J-266D01*
G01Y117890D01*
G37*
G36*
G01Y111890D02*
X238890D01*
Y116110D01*
X242910D01*
Y115140D01*
G03X243610Y114870I401J-4D01*
G02Y113130I990J-870D01*
G03X242910Y112860I-299J-266D01*
G01Y111890D01*
G37*
G36*
G01Y105890D02*
X238890D01*
Y110110D01*
X242910D01*
Y109140D01*
G03X243610Y108870I401J-4D01*
G02Y107130I990J-870D01*
G03X242910Y106860I-299J-266D01*
G01Y105890D01*
G37*
G36*
G01Y99890D02*
X238890D01*
Y104110D01*
X242910D01*
Y103140D01*
G03X243610Y102870I401J-4D01*
G02Y101130I990J-870D01*
G03X242910Y100860I-299J-266D01*
G01Y99890D01*
G37*
G36*
G01Y93890D02*
X238890D01*
Y98110D01*
X242910D01*
Y97140D01*
G03X243610Y96870I401J-4D01*
G02Y95130I990J-870D01*
G03X242910Y94860I-299J-266D01*
G01Y93890D01*
G37*
G36*
G01Y87890D02*
X238890D01*
Y92110D01*
X242910D01*
Y91140D01*
G03X243610Y90870I401J-4D01*
G02Y89130I990J-870D01*
G03X242910Y88860I-299J-266D01*
G01Y87890D01*
G37*
G36*
G01Y81890D02*
X238890D01*
Y86110D01*
X242910D01*
Y85140D01*
G03X243610Y84870I401J-4D01*
G02Y83130I990J-870D01*
G03X242910Y82860I-299J-266D01*
G01Y81890D01*
G37*
G36*
G01Y75890D02*
X238890D01*
Y80110D01*
X242910D01*
Y79140D01*
G03X243610Y78870I401J-4D01*
G02Y77130I990J-870D01*
G03X242910Y76860I-299J-266D01*
G01Y75890D01*
G37*
G36*
G01Y69890D02*
X238890D01*
Y74110D01*
X242910D01*
Y73140D01*
G03X243610Y72870I401J-4D01*
G02Y71130I990J-870D01*
G03X242910Y70860I-299J-266D01*
G01Y69890D01*
G37*
G36*
G01Y63890D02*
X238890D01*
Y68110D01*
X242910D01*
Y67140D01*
G03X243610Y66870I401J-4D01*
G02Y65130I990J-870D01*
G03X242910Y64860I-299J-266D01*
G01Y63890D01*
G37*
G36*
G01Y57890D02*
X238890D01*
Y62110D01*
X242910D01*
Y61140D01*
G03X243610Y60870I401J-4D01*
G02Y59130I990J-870D01*
G03X242910Y58860I-299J-266D01*
G01Y57890D01*
G37*
G36*
G01Y51890D02*
X238890D01*
Y56110D01*
X242910D01*
Y55140D01*
G03X243610Y54870I401J-4D01*
G02Y53130I990J-870D01*
G03X242910Y52860I-299J-266D01*
G01Y51890D01*
G37*
G36*
G01Y45890D02*
X238890D01*
Y50110D01*
X242910D01*
Y49140D01*
G03X243610Y48870I401J-4D01*
G02Y47130I990J-870D01*
G03X242910Y46860I-299J-266D01*
G01Y45890D01*
G37*
G36*
G01Y39890D02*
X238890D01*
Y44110D01*
X242910D01*
Y43140D01*
G03X243610Y42870I401J-4D01*
G02Y41130I990J-870D01*
G03X242910Y40860I-299J-266D01*
G01Y39890D01*
G37*
G36*
G01X231720Y39000D02*
G03X231410Y38340I-2J-402D01*
G02X229390I-1010J-840D01*
G03X229080Y39000I-308J258D01*
G01X228700D01*
X187900Y79800D01*
X48500D01*
Y82530D01*
X47460D01*
Y86920D01*
X47560D01*
Y88430D01*
X47460D01*
Y92670D01*
X45980D01*
Y96450D01*
X47460D01*
Y100700D01*
X47560D01*
Y102210D01*
X47460D01*
Y110540D01*
X47560D01*
Y112060D01*
X47460D01*
Y116300D01*
X45980D01*
Y120080D01*
X47460D01*
Y124320D01*
X47560D01*
Y125840D01*
X47460D01*
Y134160D01*
X47560D01*
Y135680D01*
X47460D01*
Y139920D01*
X45980D01*
Y143700D01*
X47460D01*
Y147940D01*
X47560D01*
Y149460D01*
X47460D01*
Y157780D01*
X47560D01*
Y159300D01*
X47460D01*
Y163540D01*
X45980D01*
Y167320D01*
X47460D01*
Y171560D01*
X47560D01*
Y173080D01*
X47460D01*
Y177470D01*
X48500D01*
Y182500D01*
X168280D01*
G03X168590Y183160I2J402D01*
G02X170610I1010J840D01*
G03X170920Y182500I308J-258D01*
G01X172100D01*
X221000Y231400D01*
X237900D01*
Y39000D01*
X231720D01*
G37*
G54D23*
X40000Y71140D03*
G54D22*
X13300Y85800D03*
Y92200D03*
Y98700D03*
Y104600D03*
Y110500D03*
Y116400D03*
Y122400D03*
Y133800D03*
Y139700D03*
Y145900D03*
Y127900D03*
Y151800D03*
Y157700D03*
Y163600D03*
Y169500D03*
Y175400D03*
X239300Y32500D03*
G54D20*
X209100Y49300D03*
X212800Y46600D03*
X204500Y53600D03*
X193500Y66500D03*
X197100Y63400D03*
X189300Y71400D03*
X8300Y80800D03*
Y85800D03*
Y90800D03*
Y95800D03*
Y100800D03*
Y105800D03*
Y110800D03*
Y115800D03*
Y120800D03*
Y125800D03*
Y130800D03*
Y135800D03*
Y140800D03*
Y145800D03*
Y150800D03*
Y155800D03*
Y160800D03*
Y165800D03*
Y170800D03*
Y175800D03*
X30500Y181300D03*
X31500Y187100D03*
X31600Y191400D03*
X42700Y87800D03*
X36900D03*
X43300Y145000D03*
X36100D03*
X42200Y166100D03*
X36100Y166000D03*
X43000Y176200D03*
X37300D03*
X67900Y69500D03*
X57900D03*
X67700Y77500D03*
X57700D03*
X70500Y193600D03*
X60500D03*
X70300Y184600D03*
X60300D03*
X85700Y11200D03*
X87900Y69500D03*
X77900D03*
X87700Y77500D03*
X77700D03*
X80500Y193600D03*
X80300Y184600D03*
X81900Y205400D03*
X81200Y218900D03*
X102200Y11700D03*
X92800Y22100D03*
X107900Y69500D03*
X97900D03*
X107700Y77500D03*
X97700D03*
X100500Y193600D03*
X90500D03*
X100300Y184600D03*
X90300D03*
X105800Y206500D03*
X93100Y205700D03*
X107100Y218400D03*
X92100Y219200D03*
X125900Y9700D03*
X117000Y20400D03*
X117900Y69500D03*
X117700Y77500D03*
X120500Y193600D03*
X110500D03*
X120300Y184600D03*
X110300D03*
X116300Y207500D03*
X119600Y218400D03*
X136100Y20400D03*
X137900Y69500D03*
X127900D03*
X137700Y77500D03*
X127700D03*
X140500Y193600D03*
X130500D03*
X140300Y184600D03*
X130300D03*
X130600Y226800D03*
X131900Y244400D03*
X158600Y69800D03*
X147900Y69500D03*
X147700Y77500D03*
X150500Y193600D03*
X150300Y184600D03*
X152500Y226100D03*
X149400Y244400D03*
X176100Y36000D03*
X175600Y69600D03*
X166800Y69800D03*
X179400Y193900D03*
X186600Y36700D03*
X200700Y37500D03*
X194200Y56000D03*
X189500Y60600D03*
X183900Y69400D03*
X187100Y76800D03*
X196900Y211600D03*
X188500Y202600D03*
X205400Y32800D03*
X218500Y32500D03*
X205300Y41800D03*
X218700Y42500D03*
X213800Y228200D03*
X206900Y221400D03*
X243500Y32500D03*
X201000Y58100D03*
G54D21*
X12900Y39500D03*
Y49500D03*
X12400Y69000D03*
X12900Y59500D03*
X10600Y75800D03*
X32900Y39500D03*
X22900D03*
X32900Y49500D03*
X22900D03*
X20000Y71800D03*
X28000Y71400D03*
X32900Y59500D03*
X22900D03*
X52900Y39500D03*
X42900D03*
X52900Y49500D03*
X42900D03*
X50000Y71400D03*
X52900Y59500D03*
X42900D03*
X39900Y79200D03*
X40000Y205000D03*
X48200Y230300D03*
X38200D03*
X48200Y240300D03*
X38200D03*
X48200Y250300D03*
X38200D03*
X64600Y50100D03*
X64100Y59600D03*
X68200Y230300D03*
X58200D03*
X68200Y240300D03*
X58200D03*
X68200Y250300D03*
X58200D03*
X84300Y39100D03*
X74300D03*
X84300Y49100D03*
X74300D03*
X84300Y59100D03*
X74300D03*
X88200Y230300D03*
X78200D03*
X88200Y240300D03*
X78200D03*
X88200Y250300D03*
X78200D03*
X104300Y39100D03*
X94300D03*
X104300Y49100D03*
X94300D03*
X104300Y59100D03*
X94300D03*
X108200Y230300D03*
X98200D03*
X108200Y240300D03*
X98200D03*
X108200Y250300D03*
X98200D03*
X124300Y39100D03*
X114300D03*
X124300Y49100D03*
X114300D03*
X124300Y59100D03*
X114300D03*
X144300Y39100D03*
X134300D03*
X144300Y49100D03*
X134300D03*
X144300Y59100D03*
X134300D03*
X164300Y39100D03*
X154300D03*
X164300Y49100D03*
X154300D03*
X164300Y59100D03*
X154300D03*
%LPD*%
G75*
G54D10*
X20000Y20000D03*
Y240000D03*
X180000Y20000D03*
Y240000D03*
G54D11*
X12900Y39500D03*
Y49500D03*
X12400Y69000D03*
X12900Y59500D03*
X10600Y75800D03*
X32900Y39500D03*
X22900D03*
X32900Y49500D03*
X22900D03*
X20000Y71800D03*
X28000Y71400D03*
X32900Y59500D03*
X22900D03*
X52900Y39500D03*
X42900D03*
X52900Y49500D03*
X42900D03*
X50000Y71400D03*
X52900Y59500D03*
X42900D03*
X39900Y79200D03*
X40000Y205000D03*
X48200Y230300D03*
X38200D03*
X48200Y240300D03*
X38200D03*
X48200Y250300D03*
X38200D03*
X64600Y50100D03*
X64100Y59600D03*
X68200Y230300D03*
X58200D03*
X68200Y240300D03*
X58200D03*
X68200Y250300D03*
X58200D03*
X84300Y39100D03*
X74300D03*
X84300Y49100D03*
X74300D03*
X84300Y59100D03*
X74300D03*
X88200Y230300D03*
X78200D03*
X88200Y240300D03*
X78200D03*
X88200Y250300D03*
X78200D03*
X104300Y39100D03*
X94300D03*
X104300Y49100D03*
X94300D03*
X104300Y59100D03*
X94300D03*
X108200Y230300D03*
X98200D03*
X108200Y240300D03*
X98200D03*
X108200Y250300D03*
X98200D03*
X124300Y39100D03*
X114300D03*
X124300Y49100D03*
X114300D03*
X124300Y59100D03*
X114300D03*
X144300Y39100D03*
X134300D03*
X144300Y49100D03*
X134300D03*
X144300Y59100D03*
X134300D03*
X164300Y39100D03*
X154300D03*
X164300Y49100D03*
X154300D03*
X164300Y59100D03*
X154300D03*
G54D12*
X13300Y85800D03*
Y92200D03*
Y98700D03*
Y104600D03*
Y110500D03*
Y116400D03*
Y122400D03*
Y133800D03*
Y139700D03*
Y145900D03*
Y127900D03*
Y151800D03*
Y157700D03*
Y163600D03*
Y169500D03*
Y175400D03*
X19300Y85800D03*
Y92200D03*
Y98700D03*
Y104600D03*
Y110500D03*
Y116400D03*
Y122400D03*
Y133800D03*
Y139700D03*
Y145900D03*
Y127900D03*
Y151800D03*
Y157700D03*
Y163600D03*
Y169500D03*
Y175400D03*
X239300Y32500D03*
X233300D03*
X234900Y48000D03*
Y42000D03*
Y60000D03*
Y54000D03*
Y66000D03*
Y72000D03*
Y78000D03*
Y84000D03*
Y90000D03*
Y96000D03*
Y102000D03*
Y108000D03*
Y114000D03*
Y120000D03*
Y126000D03*
Y144000D03*
Y138000D03*
Y132000D03*
Y150000D03*
Y156000D03*
Y162000D03*
Y168000D03*
Y174000D03*
Y180000D03*
Y186000D03*
Y192000D03*
Y198000D03*
Y204000D03*
Y210000D03*
Y216000D03*
Y222000D03*
Y228000D03*
X240900Y48000D03*
Y42000D03*
Y60000D03*
Y54000D03*
Y66000D03*
Y72000D03*
Y78000D03*
Y84000D03*
Y90000D03*
Y96000D03*
Y102000D03*
Y108000D03*
Y114000D03*
Y120000D03*
Y126000D03*
Y144000D03*
Y138000D03*
Y132000D03*
Y150000D03*
Y156000D03*
Y162000D03*
Y168000D03*
Y174000D03*
Y180000D03*
Y186000D03*
Y192000D03*
Y198000D03*
Y204000D03*
Y210000D03*
Y216000D03*
Y222000D03*
Y228000D03*
G54D13*
X8300Y80800D03*
Y85800D03*
Y90800D03*
Y95800D03*
Y100800D03*
Y105800D03*
Y110800D03*
Y115800D03*
Y120800D03*
Y125800D03*
Y130800D03*
Y135800D03*
Y140800D03*
Y145800D03*
Y150800D03*
Y155800D03*
Y160800D03*
Y165800D03*
Y170800D03*
Y175800D03*
X26300Y83740D03*
Y97520D03*
Y89640D03*
Y103420D03*
Y107360D03*
Y113270D03*
Y127100D03*
Y121140D03*
Y130980D03*
Y136890D03*
Y144760D03*
Y160510D03*
Y150670D03*
Y154600D03*
X30500Y181300D03*
X26300Y174290D03*
Y168380D03*
X31500Y187100D03*
X31600Y191400D03*
X42700Y87800D03*
X36900D03*
X33300Y85710D03*
Y105390D03*
Y99490D03*
Y91610D03*
Y109330D03*
Y115230D03*
Y123110D03*
Y138860D03*
X43300Y145000D03*
X36100D03*
X33300Y132950D03*
Y129010D03*
Y162480D03*
Y146730D03*
Y156570D03*
Y152640D03*
X42200Y166100D03*
X36100Y166000D03*
X43000Y176200D03*
X37300D03*
X33300Y170350D03*
Y176260D03*
X43100Y194100D03*
X35600Y194000D03*
X48100Y191000D03*
X47900Y186900D03*
X42400Y183900D03*
X36000D03*
X67900Y69500D03*
X57900D03*
X67700Y77500D03*
X57700D03*
X70500Y193600D03*
X60500D03*
X70300Y184600D03*
X60300D03*
X85700Y11200D03*
X87900Y69500D03*
X77900D03*
X87700Y77500D03*
X77700D03*
X80500Y193600D03*
X80300Y184600D03*
X81900Y205400D03*
X81200Y218900D03*
X102200Y11700D03*
X92800Y22100D03*
X107900Y69500D03*
X97900D03*
X107700Y77500D03*
X97700D03*
X100500Y193600D03*
X90500D03*
X100300Y184600D03*
X90300D03*
X105800Y206500D03*
X93100Y205700D03*
X107100Y218400D03*
X92100Y219200D03*
X125900Y9700D03*
X117000Y20400D03*
X117900Y69500D03*
X117700Y77500D03*
X120500Y193600D03*
X110500D03*
X120300Y184600D03*
X110300D03*
X116300Y207500D03*
X119600Y218400D03*
X136100Y20400D03*
X137900Y69500D03*
X127900D03*
X137700Y77500D03*
X127700D03*
X140500Y193600D03*
X130500D03*
X140300Y184600D03*
X130300D03*
X130600Y226800D03*
X131900Y244400D03*
X158600Y69800D03*
X147900Y69500D03*
X147700Y77500D03*
X150500Y193600D03*
X150300Y184600D03*
X152500Y226100D03*
X149400Y244400D03*
X176100Y36000D03*
X175600Y69600D03*
X166800Y69800D03*
X179400Y193900D03*
X169600Y184000D03*
X186600Y36700D03*
X200700Y37500D03*
X194200Y56000D03*
X189500Y60600D03*
X183900Y69400D03*
X201000Y58100D03*
X197100Y63400D03*
X193500Y66500D03*
X189300Y71400D03*
X187100Y76800D03*
X196900Y211600D03*
X188500Y202600D03*
X205400Y32800D03*
X218500Y32500D03*
X212800Y46600D03*
X209100Y49300D03*
X205300Y41800D03*
X218700Y42500D03*
X204500Y53600D03*
X207900Y87600D03*
X213400Y81600D03*
X217850Y76750D03*
X203000Y92300D03*
X218500Y106000D03*
X218100Y132500D03*
X218620Y192500D03*
X213800Y228200D03*
X206900Y221400D03*
X229380Y32500D03*
X230400Y37500D03*
X229500Y42500D03*
X229380Y47500D03*
X230000Y67500D03*
X229380Y52500D03*
Y62500D03*
Y57500D03*
Y87500D03*
Y77500D03*
Y72500D03*
Y82500D03*
X229700Y97500D03*
X229380Y92500D03*
Y102500D03*
Y107500D03*
Y122500D03*
Y112500D03*
Y117500D03*
X229800Y127500D03*
X229380Y132500D03*
Y137500D03*
Y142500D03*
X229400Y157500D03*
X229380Y147500D03*
Y162500D03*
Y152500D03*
Y177500D03*
Y167500D03*
Y182500D03*
Y172500D03*
Y192500D03*
X229400Y187500D03*
X229380Y197500D03*
X229700Y217500D03*
X229380Y212500D03*
Y207500D03*
Y202500D03*
Y222500D03*
Y227500D03*
X243500Y32500D03*
X244600Y48000D03*
Y42000D03*
Y66000D03*
Y60000D03*
Y54000D03*
Y84000D03*
Y78000D03*
Y72000D03*
Y108000D03*
Y102000D03*
Y96000D03*
Y90000D03*
Y126000D03*
Y120000D03*
Y114000D03*
Y144000D03*
Y138000D03*
Y132000D03*
Y162000D03*
Y156000D03*
Y150000D03*
Y180000D03*
Y174000D03*
Y168000D03*
Y198000D03*
Y192000D03*
Y186000D03*
Y216000D03*
Y210000D03*
Y204000D03*
Y228000D03*
Y222000D03*
G54D14*
X29770Y87680D03*
Y85710D03*
Y83740D03*
Y107360D03*
Y105390D03*
Y103420D03*
Y101450D03*
Y99490D03*
Y97520D03*
Y91610D03*
Y89640D03*
Y125080D03*
Y123110D03*
Y121140D03*
Y115230D03*
Y113270D03*
Y111300D03*
Y109330D03*
Y144760D03*
Y138860D03*
Y136890D03*
Y134920D03*
Y132950D03*
Y130980D03*
Y129010D03*
Y127050D03*
Y162480D03*
Y160510D03*
Y158540D03*
Y156570D03*
Y154600D03*
Y152640D03*
Y150670D03*
Y148700D03*
Y146730D03*
Y176260D03*
Y174290D03*
Y172320D03*
Y170350D03*
Y168380D03*
X50240Y87680D03*
Y85710D03*
Y83740D03*
Y107360D03*
Y105390D03*
Y103420D03*
Y101450D03*
Y99490D03*
Y97520D03*
Y91610D03*
Y89640D03*
Y125080D03*
Y123110D03*
Y121140D03*
Y115230D03*
Y113270D03*
Y111300D03*
Y109330D03*
Y144760D03*
Y138860D03*
Y136890D03*
Y134920D03*
Y132950D03*
Y130980D03*
Y129010D03*
Y127050D03*
Y162480D03*
Y160510D03*
Y158540D03*
Y156570D03*
Y154600D03*
Y152640D03*
Y150670D03*
Y148700D03*
Y146730D03*
Y176260D03*
Y174290D03*
Y172320D03*
Y170350D03*
Y168380D03*
G54D15*
X30550Y94560D03*
Y118190D03*
Y141810D03*
Y165430D03*
X49450Y94560D03*
Y118190D03*
Y141810D03*
Y165430D03*
G54D16*
X20000Y217500D03*
X54400Y30900D03*
X72200Y29600D03*
X60000Y217500D03*
X140000Y212400D03*
X150900Y32100D03*
X161100Y214700D03*
X180400Y54300D03*
G54D17*
X40000Y71140D03*
Y188860D03*
G54D18*
X234370Y23800D03*
Y236200D03*
G54D19*
G01X12900Y47390D02*
Y49500D01*
G01D02*
Y51610D01*
G01X10790Y49500D02*
X12900D01*
G01D02*
X15010D01*
G01X12900Y37390D02*
Y39500D01*
G01D02*
Y41610D01*
G01X10790Y39500D02*
X12900D01*
G01D02*
X15010D01*
G01X12900Y57390D02*
Y59500D01*
G01D02*
Y61610D01*
G01X10790Y59500D02*
X12900D01*
G01D02*
X15010D01*
G01X12400Y66890D02*
Y69000D01*
G01D02*
Y71110D01*
G01X10290Y69000D02*
X12400D01*
G01D02*
X14510D01*
G01X8300Y84290D02*
Y85800D01*
G01D02*
Y87310D01*
G01X6790Y85800D02*
X8300D01*
G01D02*
X9810D01*
G01X8300Y79290D02*
Y80800D01*
G01D02*
Y82310D01*
G01X6790Y80800D02*
X8300D01*
G01D02*
X9810D01*
G01X10600Y73690D02*
Y75800D01*
G01D02*
Y77910D01*
G01X8490Y75800D02*
X10600D01*
G01D02*
X12710D01*
G01X11090Y85800D02*
X13300D01*
G01X8300Y104290D02*
Y105800D01*
G01D02*
Y107310D01*
G01X6790Y105800D02*
X8300D01*
G01D02*
X9810D01*
G01X8300Y99290D02*
Y100800D01*
G01D02*
Y102310D01*
G01X6790Y100800D02*
X8300D01*
G01D02*
X9810D01*
G01X8300Y94290D02*
Y95800D01*
G01D02*
Y97310D01*
G01X6790Y95800D02*
X8300D01*
G01D02*
X9810D01*
G01X8300Y89290D02*
Y90800D01*
G01D02*
Y92310D01*
G01X6790Y90800D02*
X8300D01*
G01D02*
X9810D01*
G01X11090Y104600D02*
X13300D01*
G01X11090Y98700D02*
X13300D01*
G01X11090Y92200D02*
X13300D01*
G01X8300Y124290D02*
Y125800D01*
G01D02*
Y127310D01*
G01X6790Y125800D02*
X8300D01*
G01D02*
X9810D01*
G01X8300Y119290D02*
Y120800D01*
G01D02*
Y122310D01*
G01X6790Y120800D02*
X8300D01*
G01D02*
X9810D01*
G01X8300Y114290D02*
Y115800D01*
G01D02*
Y117310D01*
G01X6790Y115800D02*
X8300D01*
G01D02*
X9810D01*
G01X8300Y109290D02*
Y110800D01*
G01D02*
Y112310D01*
G01X6790Y110800D02*
X8300D01*
G01D02*
X9810D01*
G01X11090Y122400D02*
X13300D01*
G01X11090Y116400D02*
X13300D01*
G01X11090Y110500D02*
X13300D01*
G01X8300Y144290D02*
Y145800D01*
G01Y139290D02*
Y140800D01*
G01D02*
Y142310D01*
G01X6790Y140800D02*
X8300D01*
G01D02*
X9810D01*
G01X8300Y134290D02*
Y135800D01*
G01D02*
Y137310D01*
G01X6790Y135800D02*
X8300D01*
G01D02*
X9810D01*
G01X8300Y129290D02*
Y130800D01*
G01D02*
Y132310D01*
G01X6790Y130800D02*
X8300D01*
G01D02*
X9810D01*
G01X11090Y127900D02*
X13300D01*
G01X11090Y139700D02*
X13300D01*
G01X11090Y133800D02*
X13300D01*
G01X8300Y159290D02*
Y160800D01*
G01D02*
Y162310D01*
G01X6790Y160800D02*
X8300D01*
G01D02*
X9810D01*
G01X8300Y154290D02*
Y155800D01*
G01D02*
Y157310D01*
G01X6790Y155800D02*
X8300D01*
G01D02*
X9810D01*
G01X8300Y149290D02*
Y150800D01*
G01D02*
Y152310D01*
G01X6790Y150800D02*
X8300D01*
G01D02*
X9810D01*
G01X11090Y163600D02*
X13300D01*
G01X11090Y157700D02*
X13300D01*
G01X11090Y151800D02*
X13300D01*
G01X8300Y145800D02*
Y147310D01*
G01X6790Y145800D02*
X8300D01*
G01D02*
X9810D01*
G01X11090Y145900D02*
X13300D01*
G01X8300Y174290D02*
Y175800D01*
G01D02*
Y177310D01*
G01X6790Y175800D02*
X8300D01*
G01D02*
X9810D01*
G01X8300Y169290D02*
Y170800D01*
G01D02*
Y172310D01*
G01X6790Y170800D02*
X8300D01*
G01D02*
X9810D01*
G01X8300Y164290D02*
Y165800D01*
G01D02*
Y167310D01*
G01X6790Y165800D02*
X8300D01*
G01D02*
X9810D01*
G01X11090Y175400D02*
X13300D01*
G01X11090Y169500D02*
X13300D01*
G01X22900Y47390D02*
Y49500D01*
G01D02*
Y51610D01*
G01X20790Y49500D02*
X22900D01*
G01D02*
X25010D01*
G01X30790D02*
X32900D01*
G01X22900Y37390D02*
Y39500D01*
G01D02*
Y41610D01*
G01X20790Y39500D02*
X22900D01*
G01D02*
X25010D01*
G01X30790D02*
X32900D01*
G01X22900Y57390D02*
Y59500D01*
G01D02*
Y61610D01*
G01X20790Y59500D02*
X22900D01*
G01D02*
X25010D01*
G01X30790D02*
X32900D01*
G01X28000Y69290D02*
Y71400D01*
G01X26890Y87680D02*
X29770D01*
G01D02*
X32650D01*
G01X28000Y71400D02*
Y73510D01*
G01X25890Y71400D02*
X28000D01*
G01D02*
X30110D01*
G01X20000Y69690D02*
Y71800D01*
G01D02*
Y73910D01*
G01X17890Y71800D02*
X20000D01*
G01D02*
X22110D01*
G01X13300Y83490D02*
Y85800D01*
G01D02*
Y88110D01*
G01Y85800D02*
X15510D01*
G01X19300D02*
X26710D01*
X26800Y85710D01*
X29770D01*
G01D02*
X33300D01*
G01X29770Y83740D02*
X26300D01*
G01X29770Y105390D02*
X22390D01*
X21600Y104600D01*
X19300D01*
G01X29770Y105390D02*
X33300D01*
G01X29770Y97520D02*
X26300D01*
G01X26880Y94560D02*
X30550D01*
G01D02*
X34220D01*
G01X26890Y101450D02*
X29770D01*
G01D02*
X32650D01*
G01X13300Y102290D02*
Y104600D01*
G01D02*
Y106910D01*
G01Y104600D02*
X15510D01*
G01X13300Y96390D02*
Y98700D01*
G01D02*
Y101010D01*
G01Y98700D02*
X15510D01*
G01X13300Y89890D02*
Y92200D01*
G01D02*
Y94510D01*
G01Y92200D02*
X15510D01*
G01X29770Y89640D02*
X26300D01*
G01X29770Y99490D02*
X22390D01*
X21600Y98700D01*
X19300D01*
G01X29770Y99490D02*
X33300D01*
G01X29770Y103420D02*
X26300D01*
G01X29770Y91610D02*
X22190D01*
X21600Y92200D01*
X19300D01*
G01X29770Y91610D02*
X33300D01*
G01X29770Y113270D02*
X26300D01*
G01X26890Y111300D02*
X29770D01*
G01D02*
X32650D01*
G01X26890Y125080D02*
X29770D01*
G01D02*
X32650D01*
G01X26880Y118190D02*
X30550D01*
G01D02*
X34220D01*
G01X13300Y125590D02*
Y127900D01*
G01Y120090D02*
Y122400D01*
G01D02*
Y124710D01*
G01Y122400D02*
X15510D01*
G01X13300Y114090D02*
Y116400D01*
G01D02*
Y118710D01*
G01Y116400D02*
X15510D01*
G01X13300Y108190D02*
Y110500D01*
G01D02*
Y112810D01*
G01Y110500D02*
X15510D01*
G01X29770Y109330D02*
X22770D01*
X21600Y110500D01*
X19300D01*
G01X29770Y109330D02*
X33300D01*
G01X29770Y121140D02*
X26300D01*
G01X29770Y107360D02*
X26300D01*
G01X29770Y115230D02*
X22770D01*
X21600Y116400D01*
X19300D01*
G01X29770Y115230D02*
X33300D01*
G01X29770Y123110D02*
X22310D01*
X21600Y122400D01*
X19300D01*
G01X29770Y123110D02*
X33300D01*
G01X29770Y138860D02*
X22440D01*
X21600Y139700D01*
X19300D01*
G01X29770Y138860D02*
X33300D01*
G01X29770Y130980D02*
X26300D01*
G01X26890Y134920D02*
X29770D01*
G01D02*
X32650D01*
G01X26880Y141810D02*
X30550D01*
G01D02*
X34220D01*
G01X13300Y127900D02*
Y130210D01*
G01Y127900D02*
X15510D01*
G01X13300Y143590D02*
Y145900D01*
G01Y137390D02*
Y139700D01*
G01D02*
Y142010D01*
G01Y139700D02*
X15510D01*
G01X13300Y131490D02*
Y133800D01*
G01D02*
Y136110D01*
G01Y133800D02*
X15510D01*
G01X29770Y127050D02*
X26350D01*
X26300Y127100D01*
G01X29770Y132950D02*
X22450D01*
X21600Y133800D01*
X19300D01*
G01X29770Y132950D02*
X33300D01*
G01X29770Y129010D02*
X22710D01*
X21600Y127900D01*
X19300D01*
G01X29770Y129010D02*
X33300D01*
G01X29770Y136890D02*
X26300D01*
G01X29770Y144760D02*
X26300D01*
G01X29770Y160510D02*
X26300D01*
G01X26890Y148700D02*
X29770D01*
G01D02*
X32650D01*
G01X26890Y158540D02*
X29770D01*
G01D02*
X32650D01*
G01X13300Y161290D02*
Y163600D01*
G01D02*
Y165910D01*
G01Y163600D02*
X15510D01*
G01X13300Y155390D02*
Y157700D01*
G01D02*
Y160010D01*
G01Y157700D02*
X15510D01*
G01X13300Y149490D02*
Y151800D01*
G01D02*
Y154110D01*
G01Y151800D02*
X15510D01*
G01X13300Y145900D02*
Y148210D01*
G01Y145900D02*
X15510D01*
G01X29770Y162480D02*
X22720D01*
X21600Y163600D01*
X19300D01*
G01X29770Y162480D02*
X33300D01*
G01X29770Y150670D02*
X26300D01*
G01X29770Y146730D02*
X22430D01*
X21600Y145900D01*
X19300D01*
G01X29770Y146730D02*
X33300D01*
G01X29770Y156570D02*
X22730D01*
X21600Y157700D01*
X19300D01*
G01X29770Y156570D02*
X33300D01*
G01X29770Y154600D02*
X26300D01*
G01X29770Y152640D02*
X22440D01*
X21600Y151800D01*
X19300D01*
G01X29770Y152640D02*
X33300D01*
G01X30500Y179790D02*
Y181300D01*
G01D02*
Y182810D01*
G01X28990Y181300D02*
X30500D01*
G01D02*
X32010D01*
G01X26890Y172320D02*
X29770D01*
G01D02*
X32650D01*
G01X26880Y165430D02*
X30550D01*
G01D02*
X34220D01*
G01X13300Y173090D02*
Y175400D01*
G01D02*
Y177710D01*
G01Y175400D02*
X15510D01*
G01X13300Y167190D02*
Y169500D01*
G01D02*
Y171810D01*
G01Y169500D02*
X15510D01*
G01X29770Y174290D02*
X26300D01*
G01X29770Y170350D02*
X22450D01*
X21600Y169500D01*
X19300D01*
G01X29770Y170350D02*
X33300D01*
G01X29770Y168380D02*
X26300D01*
G01X29770Y176260D02*
X22460D01*
X21600Y175400D01*
X19300D01*
G01X29770Y176260D02*
X33300D01*
G01X31600Y189890D02*
Y191400D01*
G01D02*
Y192910D01*
G01X30090Y191400D02*
X31600D01*
G01D02*
X33110D01*
G01X31500Y185590D02*
Y187100D01*
G01D02*
Y188610D01*
G01X29990Y187100D02*
X31500D01*
G01D02*
X33010D01*
G01X42900Y47390D02*
Y49500D01*
G01D02*
Y51610D01*
G01X40790Y49500D02*
X42900D01*
G01D02*
X45010D01*
G01X50790D02*
X52900D01*
G01X42900Y37390D02*
Y39500D01*
G01D02*
Y41610D01*
G01X40790Y39500D02*
X42900D01*
G01D02*
X45010D01*
G01X50790D02*
X52900D01*
G01X32900Y47390D02*
Y49500D01*
G01D02*
Y51610D01*
G01Y49500D02*
X35010D01*
G01X32900Y37390D02*
Y39500D01*
G01D02*
Y41610D01*
G01Y39500D02*
X35010D01*
G01X42900Y57390D02*
Y59500D01*
G01D02*
Y61610D01*
G01X40790Y59500D02*
X42900D01*
G01D02*
X45010D01*
G01X50790D02*
X52900D01*
G01X50000Y69290D02*
Y71400D01*
G01X40000Y67280D02*
Y71140D01*
G01X32900Y57390D02*
Y59500D01*
G01D02*
Y61610D01*
G01Y59500D02*
X35010D01*
G01X36900Y86290D02*
Y87800D01*
G01D02*
Y89310D01*
G01X35390Y87800D02*
X36900D01*
G01D02*
X38410D01*
G01X42700Y86290D02*
Y87800D01*
G01D02*
Y89310D01*
G01X41190Y87800D02*
X42700D01*
G01D02*
X44210D01*
G01X39900Y77090D02*
Y79200D01*
G01D02*
Y81310D01*
G01X37790Y79200D02*
X39900D01*
G01D02*
X42010D01*
G01X50000Y71400D02*
Y73510D01*
G01X47890Y71400D02*
X50000D01*
G01D02*
X52110D01*
G01X40000Y71140D02*
Y75000D01*
G01X33190Y71140D02*
X40000D01*
G01D02*
X46810D01*
G01X47360Y87680D02*
X50240D01*
G01Y83740D02*
X51820D01*
X53960Y81600D01*
X190400D01*
X229500Y42500D01*
G01X50240Y85710D02*
X191170D01*
X229380Y47500D01*
G01X45780Y94560D02*
X49450D01*
G01X47360Y101450D02*
X50240D01*
G01X229380Y77500D02*
X204680Y102200D01*
X54430D01*
X53210Y103420D01*
X50240D01*
G01Y99490D02*
X202390D01*
X229380Y72500D01*
G01X50240Y105390D02*
X206490D01*
X229380Y82500D01*
G01X50240Y89640D02*
X192240D01*
X229380Y52500D01*
G01Y62500D02*
X195380Y96500D01*
X54230D01*
X53210Y97520D01*
X50240D01*
G01X229380Y57500D02*
X193780Y93100D01*
X54700D01*
X53210Y91610D01*
X50240D01*
G01Y107360D02*
X209520D01*
X229380Y87500D01*
G01X47360Y111300D02*
X50240D01*
G01X47360Y125080D02*
X50240D01*
G01X45780Y118190D02*
X49450D01*
G01X229380Y92500D02*
X211480Y110400D01*
X54280D01*
X53210Y109330D01*
X50240D01*
G01Y113270D02*
X218610D01*
X229380Y102500D01*
G01Y112500D02*
X221880Y120000D01*
X54350D01*
X53210Y121140D01*
X50240D01*
G01Y115230D02*
X53210D01*
X54180Y116200D01*
X220680D01*
X229380Y107500D01*
G01X50240Y123110D02*
X223770D01*
X229380Y117500D01*
G01Y122500D02*
X226080Y125800D01*
X54460D01*
X53210Y127050D01*
X50240D01*
G01X36100Y143490D02*
Y145000D01*
G01X43300Y143490D02*
Y145000D01*
G01X47360Y134920D02*
X50240D01*
G01X45780Y141810D02*
X49450D01*
G01X229380Y132500D02*
X225080Y128200D01*
X54020D01*
X53210Y129010D01*
X50240D01*
G01X229380Y137500D02*
X222380Y130500D01*
X53690D01*
X53210Y130980D01*
X50240D01*
G01X229380Y142500D02*
X221280Y134400D01*
X54660D01*
X53210Y132950D01*
X50240D01*
G01Y136890D02*
X218770D01*
X229380Y147500D01*
G01Y162500D02*
X210580Y143700D01*
X54270D01*
X53210Y144760D01*
X50240D01*
G01X229380Y152500D02*
X216880Y140000D01*
X54350D01*
X53210Y138860D01*
X50240D01*
G01Y152640D02*
X202920D01*
X227780Y177500D01*
X229380D01*
G01Y192500D02*
X194180Y157300D01*
X53940D01*
X53210Y156570D01*
X50240D01*
G01X36100Y145000D02*
Y146510D01*
G01X34590Y145000D02*
X36100D01*
G01D02*
X37610D01*
G01X43300D02*
Y146510D01*
G01X41790Y145000D02*
X43300D01*
G01D02*
X44810D01*
G01X47360Y148700D02*
X50240D01*
G01X47360Y158540D02*
X50240D01*
G01Y146730D02*
X208610D01*
X229380Y167500D01*
G01Y197500D02*
X192390Y160510D01*
X50240D01*
G01X229380Y202500D02*
X225490D01*
X186490Y163500D01*
X54230D01*
X53210Y162480D01*
X50240D01*
G01Y154600D02*
X198800D01*
X226700Y182500D01*
X229380D01*
G01Y172500D02*
X206380Y149500D01*
X54380D01*
X53210Y150670D01*
X50240D01*
G01X229380Y222500D02*
X227780D01*
X178280Y173000D01*
X54500D01*
X53210Y174290D01*
X50240D01*
G01X36000Y182390D02*
Y183900D01*
G01X42400Y182390D02*
Y183900D01*
G01X37300Y174690D02*
Y176200D01*
G01D02*
Y177710D01*
G01X35790Y176200D02*
X37300D01*
G01D02*
X38810D01*
G01X43000Y174690D02*
Y176200D01*
G01D02*
Y177710D01*
G01X41490Y176200D02*
X43000D01*
G01D02*
X44510D01*
G01X36100Y164490D02*
Y166000D01*
G01D02*
Y167510D01*
G01X34590Y166000D02*
X36100D01*
G01D02*
X37610D01*
G01X42200Y164590D02*
Y166100D01*
G01D02*
Y167610D01*
G01X40690Y166100D02*
X42200D01*
G01D02*
X43710D01*
G01X47360Y172320D02*
X50240D01*
G01X45780Y165430D02*
X49450D01*
G01X229380Y227500D02*
X226700D01*
X175460Y176260D01*
X50240D01*
G01Y170350D02*
X183050D01*
X225200Y212500D01*
X229380D01*
G01Y207500D02*
X225400D01*
X184900Y167000D01*
X54590D01*
X53210Y168380D01*
X50240D01*
G01X34490Y183900D02*
X36000D01*
G01D02*
X37510D01*
G01X40890D02*
X42400D01*
G01D02*
X43910D01*
G01X47900Y185390D02*
Y186900D01*
G01D02*
Y188410D01*
G01Y186900D02*
X49410D01*
G01X48100Y189490D02*
Y191000D01*
G01D02*
Y192510D01*
G01Y191000D02*
X49610D01*
G01X35600Y194000D02*
Y195510D01*
G01X34090Y194000D02*
X35600D01*
G01D02*
X37110D01*
G01X43100Y194100D02*
Y195610D01*
G01X41590Y194100D02*
X43100D01*
G01D02*
X44610D01*
G01X40000Y185000D02*
Y188860D01*
G01D02*
Y192720D01*
G01X33190Y188860D02*
X40000D01*
G01D02*
X46810D01*
G01X40000Y202890D02*
Y205000D01*
G01D02*
Y207110D01*
G01X37890Y205000D02*
X40000D01*
G01D02*
X42110D01*
G01X38200Y238190D02*
Y240300D01*
G01X48200Y238190D02*
Y240300D01*
G01X38200Y228190D02*
Y230300D01*
G01D02*
Y232410D01*
G01X36090Y230300D02*
X38200D01*
G01D02*
X40310D01*
G01X48200Y228190D02*
Y230300D01*
G01D02*
Y232410D01*
G01X46090Y230300D02*
X48200D01*
G01D02*
X50310D01*
G01X38200Y248190D02*
Y250300D01*
G01D02*
Y252410D01*
G01X36090Y250300D02*
X38200D01*
G01D02*
X40310D01*
G01X48200Y248190D02*
Y250300D01*
G01D02*
Y252410D01*
G01X46090Y250300D02*
X48200D01*
G01D02*
X50310D01*
G01X38200Y240300D02*
Y242410D01*
G01X36090Y240300D02*
X38200D01*
G01D02*
X40310D01*
G01X48200D02*
Y242410D01*
G01X46090Y240300D02*
X48200D01*
G01D02*
X50310D01*
G01X64600Y47990D02*
Y50100D01*
G01D02*
Y52210D01*
G01X62490Y50100D02*
X64600D01*
G01D02*
X66710D01*
G01X52900Y47390D02*
Y49500D01*
G01D02*
Y51610D01*
G01Y49500D02*
X55010D01*
G01X52900Y37390D02*
Y39500D01*
G01D02*
Y41610D01*
G01Y39500D02*
X55010D01*
G01X57900Y67990D02*
Y69500D01*
G01D02*
Y71010D01*
G01X56390Y69500D02*
X57900D01*
G01D02*
X59410D01*
G01X67900Y67990D02*
Y69500D01*
G01D02*
Y71010D01*
G01X66390Y69500D02*
X67900D01*
G01D02*
X69410D01*
G01X64100Y57490D02*
Y59600D01*
G01D02*
Y61710D01*
G01X61990Y59600D02*
X64100D01*
G01D02*
X66210D01*
G01X52900Y57390D02*
Y59500D01*
G01D02*
Y61610D01*
G01Y59500D02*
X55010D01*
G01X57700Y75990D02*
Y77500D01*
G01D02*
Y79010D01*
G01X56190Y77500D02*
X57700D01*
G01D02*
X59210D01*
G01X67700Y75990D02*
Y77500D01*
G01D02*
Y79010D01*
G01X66190Y77500D02*
X67700D01*
G01D02*
X69210D01*
G01X60300Y183090D02*
Y184600D01*
G01D02*
Y186110D01*
G01X58790Y184600D02*
X60300D01*
G01D02*
X61810D01*
G01X68790D02*
X70300D01*
G01X60500Y192090D02*
Y193600D01*
G01D02*
Y195110D01*
G01X58990Y193600D02*
X60500D01*
G01D02*
X62010D01*
G01X68990D02*
X70500D01*
G01X58200Y238190D02*
Y240300D01*
G01X68200Y238190D02*
Y240300D01*
G01X58200Y228190D02*
Y230300D01*
G01D02*
Y232410D01*
G01X56090Y230300D02*
X58200D01*
G01D02*
X60310D01*
G01X68200Y228190D02*
Y230300D01*
G01D02*
Y232410D01*
G01X66090Y230300D02*
X68200D01*
G01D02*
X70310D01*
G01X58200Y248190D02*
Y250300D01*
G01D02*
Y252410D01*
G01X56090Y250300D02*
X58200D01*
G01D02*
X60310D01*
G01X68200Y248190D02*
Y250300D01*
G01D02*
Y252410D01*
G01X66090Y250300D02*
X68200D01*
G01D02*
X70310D01*
G01X58200Y240300D02*
Y242410D01*
G01X56090Y240300D02*
X58200D01*
G01D02*
X60310D01*
G01X68200D02*
Y242410D01*
G01X66090Y240300D02*
X68200D01*
G01D02*
X70310D01*
G01X85700Y9690D02*
Y11200D01*
G01D02*
Y12710D01*
G01X84190Y11200D02*
X85700D01*
G01D02*
X87210D01*
G01X74300Y46990D02*
Y49100D01*
G01D02*
Y51210D01*
G01X72190Y49100D02*
X74300D01*
G01D02*
X76410D01*
G01X84300Y46990D02*
Y49100D01*
G01D02*
Y51210D01*
G01X82190Y49100D02*
X84300D01*
G01D02*
X86410D01*
G01X74300Y36990D02*
Y39100D01*
G01D02*
Y41210D01*
G01X72190Y39100D02*
X74300D01*
G01D02*
X76410D01*
G01X84300Y36990D02*
Y39100D01*
G01D02*
Y41210D01*
G01X82190Y39100D02*
X84300D01*
G01D02*
X86410D01*
G01X77900Y67990D02*
Y69500D01*
G01D02*
Y71010D01*
G01X76390Y69500D02*
X77900D01*
G01D02*
X79410D01*
G01X87900Y67990D02*
Y69500D01*
G01D02*
Y71010D01*
G01X86390Y69500D02*
X87900D01*
G01D02*
X89410D01*
G01X74300Y56990D02*
Y59100D01*
G01D02*
Y61210D01*
G01X72190Y59100D02*
X74300D01*
G01D02*
X76410D01*
G01X84300Y56990D02*
Y59100D01*
G01D02*
Y61210D01*
G01X82190Y59100D02*
X84300D01*
G01D02*
X86410D01*
G01X77700Y75990D02*
Y77500D01*
G01D02*
Y79010D01*
G01X76190Y77500D02*
X77700D01*
G01D02*
X79210D01*
G01X87700Y75990D02*
Y77500D01*
G01D02*
Y79010D01*
G01X86190Y77500D02*
X87700D01*
G01D02*
X89210D01*
G01X80300Y183090D02*
Y184600D01*
G01D02*
Y186110D01*
G01X78790Y184600D02*
X80300D01*
G01D02*
X81810D01*
G01X80500Y192090D02*
Y193600D01*
G01D02*
Y195110D01*
G01X78990Y193600D02*
X80500D01*
G01D02*
X82010D01*
G01X70300Y183090D02*
Y184600D01*
G01D02*
Y186110D01*
G01Y184600D02*
X71810D01*
G01X70500Y192090D02*
Y193600D01*
G01D02*
Y195110D01*
G01Y193600D02*
X72010D01*
G01X81200Y217390D02*
Y218900D01*
G01D02*
Y220410D01*
G01X79690Y218900D02*
X81200D01*
G01D02*
X82710D01*
G01X81900Y203890D02*
Y205400D01*
G01D02*
Y206910D01*
G01X80390Y205400D02*
X81900D01*
G01D02*
X83410D01*
G01X78200Y238190D02*
Y240300D01*
G01X88200Y238190D02*
Y240300D01*
G01X78200Y228190D02*
Y230300D01*
G01D02*
Y232410D01*
G01X76090Y230300D02*
X78200D01*
G01D02*
X80310D01*
G01X88200Y228190D02*
Y230300D01*
G01D02*
Y232410D01*
G01X86090Y230300D02*
X88200D01*
G01D02*
X90310D01*
G01X78200Y248190D02*
Y250300D01*
G01D02*
Y252410D01*
G01X76090Y250300D02*
X78200D01*
G01D02*
X80310D01*
G01X88200Y248190D02*
Y250300D01*
G01D02*
Y252410D01*
G01X86090Y250300D02*
X88200D01*
G01D02*
X90310D01*
G01X78200Y240300D02*
Y242410D01*
G01X76090Y240300D02*
X78200D01*
G01D02*
X80310D01*
G01X88200D02*
Y242410D01*
G01X86090Y240300D02*
X88200D01*
G01D02*
X90310D01*
G01X102200Y10190D02*
Y11700D01*
G01D02*
Y13210D01*
G01X100690Y11700D02*
X102200D01*
G01D02*
X103710D01*
G01X92800Y20590D02*
Y22100D01*
G01D02*
Y23610D01*
G01X91290Y22100D02*
X92800D01*
G01D02*
X94310D01*
G01X94300Y46990D02*
Y49100D01*
G01D02*
Y51210D01*
G01X92190Y49100D02*
X94300D01*
G01D02*
X96410D01*
G01X104300Y46990D02*
Y49100D01*
G01D02*
Y51210D01*
G01X102190Y49100D02*
X104300D01*
G01D02*
X106410D01*
G01X94300Y36990D02*
Y39100D01*
G01D02*
Y41210D01*
G01X92190Y39100D02*
X94300D01*
G01D02*
X96410D01*
G01X104300Y36990D02*
Y39100D01*
G01D02*
Y41210D01*
G01X102190Y39100D02*
X104300D01*
G01D02*
X106410D01*
G01X97900Y67990D02*
Y69500D01*
G01D02*
Y71010D01*
G01X96390Y69500D02*
X97900D01*
G01D02*
X99410D01*
G01X106390D02*
X107900D01*
G01X94300Y56990D02*
Y59100D01*
G01D02*
Y61210D01*
G01X92190Y59100D02*
X94300D01*
G01D02*
X96410D01*
G01X104300Y56990D02*
Y59100D01*
G01D02*
Y61210D01*
G01X102190Y59100D02*
X104300D01*
G01D02*
X106410D01*
G01X97700Y75990D02*
Y77500D01*
G01D02*
Y79010D01*
G01X96190Y77500D02*
X97700D01*
G01D02*
X99210D01*
G01X106190D02*
X107700D01*
G01X90300Y183090D02*
Y184600D01*
G01D02*
Y186110D01*
G01X88790Y184600D02*
X90300D01*
G01D02*
X91810D01*
G01X100300Y183090D02*
Y184600D01*
G01D02*
Y186110D01*
G01X98790Y184600D02*
X100300D01*
G01D02*
X101810D01*
G01X90500Y192090D02*
Y193600D01*
G01D02*
Y195110D01*
G01X88990Y193600D02*
X90500D01*
G01D02*
X92010D01*
G01X100500Y192090D02*
Y193600D01*
G01D02*
Y195110D01*
G01X98990Y193600D02*
X100500D01*
G01D02*
X102010D01*
G01X92100Y217690D02*
Y219200D01*
G01D02*
Y220710D01*
G01X90590Y219200D02*
X92100D01*
G01D02*
X93610D01*
G01X107100Y216890D02*
Y218400D01*
G01D02*
Y219910D01*
G01X105590Y218400D02*
X107100D01*
G01D02*
X108610D01*
G01X93100Y204190D02*
Y205700D01*
G01D02*
Y207210D01*
G01X91590Y205700D02*
X93100D01*
G01D02*
X94610D01*
G01X105800Y204990D02*
Y206500D01*
G01D02*
Y208010D01*
G01X104290Y206500D02*
X105800D01*
G01D02*
X107310D01*
G01X98200Y238190D02*
Y240300D01*
G01Y228190D02*
Y230300D01*
G01D02*
Y232410D01*
G01X96090Y230300D02*
X98200D01*
G01D02*
X100310D01*
G01X106090D02*
X108200D01*
G01X98200Y248190D02*
Y250300D01*
G01D02*
Y252410D01*
G01X96090Y250300D02*
X98200D01*
G01D02*
X100310D01*
G01X106090D02*
X108200D01*
G01X98200Y240300D02*
Y242410D01*
G01X96090Y240300D02*
X98200D01*
G01D02*
X100310D01*
G01X106090D02*
X108200D01*
G01X125900Y8190D02*
Y9700D01*
G01D02*
Y11210D01*
G01X124390Y9700D02*
X125900D01*
G01D02*
X127410D01*
G01X117000Y18890D02*
Y20400D01*
G01D02*
Y21910D01*
G01X115490Y20400D02*
X117000D01*
G01D02*
X118510D01*
G01X114300Y46990D02*
Y49100D01*
G01D02*
Y51210D01*
G01X112190Y49100D02*
X114300D01*
G01D02*
X116410D01*
G01X124300Y46990D02*
Y49100D01*
G01D02*
Y51210D01*
G01X122190Y49100D02*
X124300D01*
G01D02*
X126410D01*
G01X114300Y36990D02*
Y39100D01*
G01D02*
Y41210D01*
G01X112190Y39100D02*
X114300D01*
G01D02*
X116410D01*
G01X124300Y36990D02*
Y39100D01*
G01D02*
Y41210D01*
G01X122190Y39100D02*
X124300D01*
G01D02*
X126410D01*
G01X117900Y67990D02*
Y69500D01*
G01D02*
Y71010D01*
G01X116390Y69500D02*
X117900D01*
G01D02*
X119410D01*
G01X114300Y56990D02*
Y59100D01*
G01D02*
Y61210D01*
G01X112190Y59100D02*
X114300D01*
G01D02*
X116410D01*
G01X124300Y56990D02*
Y59100D01*
G01D02*
Y61210D01*
G01X122190Y59100D02*
X124300D01*
G01D02*
X126410D01*
G01X107900Y67990D02*
Y69500D01*
G01D02*
Y71010D01*
G01Y69500D02*
X109410D01*
G01X117700Y75990D02*
Y77500D01*
G01D02*
Y79010D01*
G01X116190Y77500D02*
X117700D01*
G01D02*
X119210D01*
G01X107700Y75990D02*
Y77500D01*
G01D02*
Y79010D01*
G01Y77500D02*
X109210D01*
G01X110300Y183090D02*
Y184600D01*
G01D02*
Y186110D01*
G01X108790Y184600D02*
X110300D01*
G01D02*
X111810D01*
G01X120300Y183090D02*
Y184600D01*
G01D02*
Y186110D01*
G01X118790Y184600D02*
X120300D01*
G01D02*
X121810D01*
G01X110500Y192090D02*
Y193600D01*
G01D02*
Y195110D01*
G01X108990Y193600D02*
X110500D01*
G01D02*
X112010D01*
G01X120500Y192090D02*
Y193600D01*
G01D02*
Y195110D01*
G01X118990Y193600D02*
X120500D01*
G01D02*
X122010D01*
G01X119600Y216890D02*
Y218400D01*
G01D02*
Y219910D01*
G01X118090Y218400D02*
X119600D01*
G01D02*
X121110D01*
G01X116300Y205990D02*
Y207500D01*
G01D02*
Y209010D01*
G01X114790Y207500D02*
X116300D01*
G01D02*
X117810D01*
G01X108200Y238190D02*
Y240300D01*
G01Y228190D02*
Y230300D01*
G01D02*
Y232410D01*
G01Y230300D02*
X110310D01*
G01X108200Y248190D02*
Y250300D01*
G01D02*
Y252410D01*
G01Y250300D02*
X110310D01*
G01X108200Y240300D02*
Y242410D01*
G01Y240300D02*
X110310D01*
G01X136100Y18890D02*
Y20400D01*
G01D02*
Y21910D01*
G01X134590Y20400D02*
X136100D01*
G01D02*
X137610D01*
G01X134300Y46990D02*
Y49100D01*
G01D02*
Y51210D01*
G01X132190Y49100D02*
X134300D01*
G01D02*
X136410D01*
G01X144300Y46990D02*
Y49100D01*
G01D02*
Y51210D01*
G01X142190Y49100D02*
X144300D01*
G01D02*
X146410D01*
G01X134300Y36990D02*
Y39100D01*
G01D02*
Y41210D01*
G01X132190Y39100D02*
X134300D01*
G01D02*
X136410D01*
G01X144300Y36990D02*
Y39100D01*
G01D02*
Y41210D01*
G01X142190Y39100D02*
X144300D01*
G01D02*
X146410D01*
G01X127900Y67990D02*
Y69500D01*
G01D02*
Y71010D01*
G01X126390Y69500D02*
X127900D01*
G01D02*
X129410D01*
G01X137900Y67990D02*
Y69500D01*
G01D02*
Y71010D01*
G01X136390Y69500D02*
X137900D01*
G01D02*
X139410D01*
G01X134300Y56990D02*
Y59100D01*
G01D02*
Y61210D01*
G01X132190Y59100D02*
X134300D01*
G01D02*
X136410D01*
G01X144300Y56990D02*
Y59100D01*
G01D02*
Y61210D01*
G01X142190Y59100D02*
X144300D01*
G01D02*
X146410D01*
G01X127700Y75990D02*
Y77500D01*
G01D02*
Y79010D01*
G01X126190Y77500D02*
X127700D01*
G01D02*
X129210D01*
G01X137700Y75990D02*
Y77500D01*
G01D02*
Y79010D01*
G01X136190Y77500D02*
X137700D01*
G01D02*
X139210D01*
G01X130300Y183090D02*
Y184600D01*
G01D02*
Y186110D01*
G01X128790Y184600D02*
X130300D01*
G01D02*
X131810D01*
G01X140300Y183090D02*
Y184600D01*
G01D02*
Y186110D01*
G01X138790Y184600D02*
X140300D01*
G01D02*
X141810D01*
G01X130500Y192090D02*
Y193600D01*
G01D02*
Y195110D01*
G01X128990Y193600D02*
X130500D01*
G01D02*
X132010D01*
G01X140500Y192090D02*
Y193600D01*
G01D02*
Y195110D01*
G01X138990Y193600D02*
X140500D01*
G01D02*
X142010D01*
G01X130600Y225290D02*
Y226800D01*
G01D02*
Y228310D01*
G01X129090Y226800D02*
X130600D01*
G01D02*
X132110D01*
G01X131900Y242890D02*
Y244400D01*
G01D02*
Y245910D01*
G01X130390Y244400D02*
X131900D01*
G01D02*
X133410D01*
G01X154300Y46990D02*
Y49100D01*
G01D02*
Y51210D01*
G01X152190Y49100D02*
X154300D01*
G01D02*
X156410D01*
G01X162190D02*
X164300D01*
G01X154300Y36990D02*
Y39100D01*
G01D02*
Y41210D01*
G01X152190Y39100D02*
X154300D01*
G01D02*
X156410D01*
G01X162190D02*
X164300D01*
G01X147900Y67990D02*
Y69500D01*
G01D02*
Y71010D01*
G01X146390Y69500D02*
X147900D01*
G01D02*
X149410D01*
G01X154300Y56990D02*
Y59100D01*
G01D02*
Y61210D01*
G01X152190Y59100D02*
X154300D01*
G01D02*
X156410D01*
G01X162190D02*
X164300D01*
G01X158600Y68290D02*
Y69800D01*
G01X147700Y75990D02*
Y77500D01*
G01D02*
Y79010D01*
G01X146190Y77500D02*
X147700D01*
G01D02*
X149210D01*
G01X158600Y69800D02*
Y71310D01*
G01X157090Y69800D02*
X158600D01*
G01D02*
X160110D01*
G01X150300Y183090D02*
Y184600D01*
G01D02*
Y186110D01*
G01X148790Y184600D02*
X150300D01*
G01D02*
X151810D01*
G01X150500Y192090D02*
Y193600D01*
G01D02*
Y195110D01*
G01X148990Y193600D02*
X150500D01*
G01D02*
X152010D01*
G01X152500Y224590D02*
Y226100D01*
G01D02*
Y227610D01*
G01X150990Y226100D02*
X152500D01*
G01D02*
X154010D01*
G01X149400Y242890D02*
Y244400D01*
G01D02*
Y245910D01*
G01X147890Y244400D02*
X149400D01*
G01D02*
X150910D01*
G01X176100Y34490D02*
Y36000D01*
G01D02*
Y37510D01*
G01X174590Y36000D02*
X176100D01*
G01D02*
X177610D01*
G01X164300Y46990D02*
Y49100D01*
G01D02*
Y51210D01*
G01Y49100D02*
X166410D01*
G01X164300Y36990D02*
Y39100D01*
G01D02*
Y41210D01*
G01Y39100D02*
X166410D01*
G01X182390Y69400D02*
X183900D01*
G01X166800Y68290D02*
Y69800D01*
G01X175600Y68090D02*
Y69600D01*
G01D02*
Y71110D01*
G01X174090Y69600D02*
X175600D01*
G01D02*
X177110D01*
G01X164300Y56990D02*
Y59100D01*
G01D02*
Y61210D01*
G01Y59100D02*
X166410D01*
G01X166800Y69800D02*
Y71310D01*
G01X165290Y69800D02*
X166800D01*
G01D02*
X168310D01*
G01X169600Y184000D02*
Y185510D01*
G01X168090Y184000D02*
X169600D01*
G01D02*
X171110D01*
G01X179400Y192390D02*
Y193900D01*
G01D02*
Y195410D01*
G01X177890Y193900D02*
X179400D01*
G01D02*
X180910D01*
G01X200700Y35990D02*
Y37500D01*
G01D02*
Y39010D01*
G01X199190Y37500D02*
X200700D01*
G01D02*
X202210D01*
G01X186600Y35190D02*
Y36700D01*
G01D02*
Y38210D01*
G01X185090Y36700D02*
X186600D01*
G01D02*
X188110D01*
G01X183900Y67890D02*
Y69400D01*
G01D02*
Y70910D01*
G01Y69400D02*
X185410D01*
G01X189500Y59090D02*
Y60600D01*
G01D02*
Y62110D01*
G01X187990Y60600D02*
X189500D01*
G01D02*
X191010D01*
G01X194200Y54490D02*
Y56000D01*
G01D02*
Y57510D01*
G01X192690Y56000D02*
X194200D01*
G01D02*
X195710D01*
G01X193500Y64990D02*
Y66500D01*
G01D02*
Y68010D01*
G01X191990Y66500D02*
X193500D01*
G01D02*
X195010D01*
G01X197100Y61890D02*
Y63400D01*
G01D02*
Y64910D01*
G01X195590Y63400D02*
X197100D01*
G01D02*
X198610D01*
G01X201000Y56590D02*
Y58100D01*
G01D02*
Y59610D01*
G01X199490Y58100D02*
X201000D01*
G01D02*
X202510D01*
G01X187100Y75290D02*
Y76800D01*
G01D02*
Y78310D01*
G01X185590Y76800D02*
X187100D01*
G01D02*
X188610D01*
G01X189300Y69890D02*
Y71400D01*
G01D02*
Y72910D01*
G01X187790Y71400D02*
X189300D01*
G01D02*
X190810D01*
G01X188500Y201090D02*
Y202600D01*
G01D02*
Y204110D01*
G01X186990Y202600D02*
X188500D01*
G01D02*
X190010D01*
G01X196900Y210090D02*
Y211600D01*
G01D02*
Y213110D01*
G01X195390Y211600D02*
X196900D01*
G01D02*
X198410D01*
G01X218500Y30990D02*
Y32500D01*
G01X205400Y31290D02*
Y32800D01*
G01X218700Y40990D02*
Y42500D01*
G01D02*
Y44010D01*
G01X217190Y42500D02*
X218700D01*
G01D02*
X220210D01*
G01X205300Y40290D02*
Y41800D01*
G01D02*
Y43310D01*
G01X203790Y41800D02*
X205300D01*
G01D02*
X206810D01*
G01X218500Y32500D02*
Y34010D01*
G01X216990Y32500D02*
X218500D01*
G01D02*
X220010D01*
G01X205400Y32800D02*
Y34310D01*
G01X203890Y32800D02*
X205400D01*
G01D02*
X206910D01*
G01X209100Y47790D02*
Y49300D01*
G01D02*
Y50810D01*
G01X207590Y49300D02*
X209100D01*
G01D02*
X210610D01*
G01X212800Y45090D02*
Y46600D01*
G01D02*
Y48110D01*
G01X211290Y46600D02*
X212800D01*
G01D02*
X214310D01*
G01X204500Y52090D02*
Y53600D01*
G01D02*
Y55110D01*
G01X202990Y53600D02*
X204500D01*
G01D02*
X206010D01*
G01X206900Y219890D02*
Y221400D01*
G01D02*
Y222910D01*
G01X205390Y221400D02*
X206900D01*
G01D02*
X208410D01*
G01X213800Y226690D02*
Y228200D01*
G01D02*
Y229710D01*
G01X212290Y228200D02*
X213800D01*
G01D02*
X215310D01*
G01X238690Y42000D02*
X240900D01*
G01X238690Y48000D02*
X240900D01*
G01X230400Y35990D02*
Y37500D01*
G01X228890D02*
X230400D01*
G01D02*
X231910D01*
G01X237090Y32500D02*
X239300D01*
G01X229500Y42500D02*
X232100D01*
X232600Y42000D01*
X234900D01*
G01X229380Y47500D02*
X232100D01*
X232600Y48000D01*
X234900D01*
G01X229380Y32500D02*
X233300D01*
G01X238690Y66000D02*
X240900D01*
G01X238690Y54000D02*
X240900D01*
G01X238690Y60000D02*
X240900D01*
G01X229380Y52500D02*
X231000D01*
X232500Y54000D01*
X234900D01*
G01Y66000D02*
Y65900D01*
X231500Y62500D01*
X229380D01*
G01Y57500D02*
X232500D01*
X234900Y59900D01*
Y60000D01*
G01X229380Y87500D02*
X231880Y90000D01*
X234900D01*
G01X238690Y84000D02*
X240900D01*
G01X238690Y78000D02*
X240900D01*
G01X238690Y72000D02*
X240900D01*
G01X229380Y77500D02*
X232100D01*
X232600Y78000D01*
X234900D01*
G01X229380Y72500D02*
X232100D01*
X232600Y72000D01*
X234900D01*
G01Y84000D02*
X230880D01*
X229380Y82500D01*
G01X238690Y102000D02*
X240900D01*
G01X238690Y96000D02*
X240900D01*
G01X238690Y90000D02*
X240900D01*
G01X234900Y96000D02*
Y95900D01*
X231500Y92500D01*
X229380D01*
G01X234900Y102000D02*
X231480D01*
X230980Y102500D01*
X229380D01*
G01X234900Y126000D02*
Y125900D01*
X231500Y122500D01*
X229380D01*
G01X238690Y126000D02*
X240900D01*
G01X238690Y120000D02*
X240900D01*
G01X238690Y114000D02*
X240900D01*
G01X238690Y108000D02*
X240900D01*
G01X234900Y114000D02*
X230880D01*
X229380Y112500D01*
G01X234900Y108000D02*
X231480D01*
X230980Y107500D01*
X229380D01*
G01X234900Y120000D02*
X231880D01*
X229380Y117500D01*
G01X238690Y132000D02*
X240900D01*
G01X238690Y138000D02*
X240900D01*
G01X238690Y144000D02*
X240900D01*
G01X234900Y132000D02*
X231480D01*
X230980Y132500D01*
X229380D01*
G01X234900Y138000D02*
X231480D01*
X230980Y137500D01*
X229380D01*
G01X234900Y144000D02*
X230880D01*
X229380Y142500D01*
G01X238690Y162000D02*
X240900D01*
G01X238690Y156000D02*
X240900D01*
G01X238690Y150000D02*
X240900D01*
G01X234900D02*
X231880D01*
X229380Y147500D01*
G01X234900Y162000D02*
X231480D01*
X230980Y162500D01*
X229380D01*
G01X234900Y156000D02*
Y155900D01*
X231500Y152500D01*
X229380D01*
G01X234900Y180000D02*
X231880D01*
X229380Y177500D01*
G01X238690Y180000D02*
X240900D01*
G01X238690Y174000D02*
X240900D01*
G01X238690Y168000D02*
X240900D01*
G01X234900D02*
X231480D01*
X230980Y167500D01*
X229380D01*
G01X234900Y186000D02*
X231280D01*
X229380Y184100D01*
Y182500D01*
G01X234900Y174000D02*
X230880D01*
X229380Y172500D01*
G01X234900Y192000D02*
X231480D01*
X230980Y192500D01*
X229380D01*
G01X238690Y198000D02*
X240900D01*
G01X238690Y192000D02*
X240900D01*
G01X238690Y186000D02*
X240900D01*
G01X234900Y198000D02*
X231480D01*
X230980Y197500D01*
X229380D01*
G01X238690Y216000D02*
X240900D01*
G01X238690Y210000D02*
X240900D01*
G01X238690Y204000D02*
X240900D01*
G01X234900Y216000D02*
Y215900D01*
X231500Y212500D01*
X229380D01*
G01X234900Y210000D02*
X231880D01*
X229380Y207500D01*
G01X234900Y204000D02*
X230880D01*
X229380Y202500D01*
G01X234900Y222000D02*
X231480D01*
X230980Y222500D01*
X229380D01*
G01X238690Y228000D02*
X240900D01*
G01X238690Y222000D02*
X240900D01*
G01X234900Y228000D02*
X231480D01*
X230980Y227500D01*
X229380D01*
G01X243500Y30990D02*
Y32500D01*
G01X239300Y30190D02*
Y32500D01*
G01X240900Y48000D02*
X244600D01*
G01X240900Y42000D02*
X244600D01*
G01X239300Y32500D02*
X243500D01*
G01X244600Y40490D02*
Y42000D01*
G01D02*
Y43510D01*
G01Y42000D02*
X246110D01*
G01X244600Y46490D02*
Y48000D01*
G01D02*
Y49510D01*
G01Y48000D02*
X246110D01*
G01X240900Y39690D02*
Y42000D01*
G01D02*
Y44310D01*
G01Y45690D02*
Y48000D01*
G01D02*
Y50310D01*
G01X243500Y32500D02*
Y34010D01*
G01Y32500D02*
X245010D01*
G01X239300D02*
Y34810D01*
G01X240900Y66000D02*
X244600D01*
G01X240900Y60000D02*
X244600D01*
G01X240900Y54000D02*
X244600D01*
G01Y52490D02*
Y54000D01*
G01D02*
Y55510D01*
G01Y54000D02*
X246110D01*
G01X244600Y58490D02*
Y60000D01*
G01D02*
Y61510D01*
G01Y60000D02*
X246110D01*
G01X244600Y64490D02*
Y66000D01*
G01D02*
Y67510D01*
G01Y66000D02*
X246110D01*
G01X240900Y63690D02*
Y66000D01*
G01D02*
Y68310D01*
G01Y51690D02*
Y54000D01*
G01D02*
Y56310D01*
G01Y57690D02*
Y60000D01*
G01D02*
Y62310D01*
G01Y84000D02*
X244600D01*
G01X240900Y78000D02*
X244600D01*
G01X240900Y72000D02*
X244600D01*
G01Y88490D02*
Y90000D01*
G01Y70490D02*
Y72000D01*
G01D02*
Y73510D01*
G01Y72000D02*
X246110D01*
G01X244600Y76490D02*
Y78000D01*
G01D02*
Y79510D01*
G01Y78000D02*
X246110D01*
G01X244600Y82490D02*
Y84000D01*
G01D02*
Y85510D01*
G01Y84000D02*
X246110D01*
G01X240900Y87690D02*
Y90000D01*
G01Y81690D02*
Y84000D01*
G01D02*
Y86310D01*
G01Y75690D02*
Y78000D01*
G01D02*
Y80310D01*
G01Y69690D02*
Y72000D01*
G01D02*
Y74310D01*
G01Y102000D02*
X244600D01*
G01X240900Y96000D02*
X244600D01*
G01X240900Y90000D02*
X244600D01*
G01D02*
Y91510D01*
G01Y90000D02*
X246110D01*
G01X244600Y94490D02*
Y96000D01*
G01D02*
Y97510D01*
G01Y96000D02*
X246110D01*
G01X244600Y100490D02*
Y102000D01*
G01D02*
Y103510D01*
G01Y102000D02*
X246110D01*
G01X244600Y106490D02*
Y108000D01*
G01X240900Y105690D02*
Y108000D01*
G01Y99690D02*
Y102000D01*
G01D02*
Y104310D01*
G01Y93690D02*
Y96000D01*
G01D02*
Y98310D01*
G01Y90000D02*
Y92310D01*
G01Y126000D02*
X244600D01*
G01X240900Y120000D02*
X244600D01*
G01X240900Y114000D02*
X244600D01*
G01X240900Y108000D02*
X244600D01*
G01Y112490D02*
Y114000D01*
G01D02*
Y115510D01*
G01Y114000D02*
X246110D01*
G01X244600Y118490D02*
Y120000D01*
G01D02*
Y121510D01*
G01Y120000D02*
X246110D01*
G01X244600Y124490D02*
Y126000D01*
G01D02*
Y127510D01*
G01Y126000D02*
X246110D01*
G01X240900Y123690D02*
Y126000D01*
G01D02*
Y128310D01*
G01Y117690D02*
Y120000D01*
G01D02*
Y122310D01*
G01Y111690D02*
Y114000D01*
G01D02*
Y116310D01*
G01X244600Y108000D02*
Y109510D01*
G01Y108000D02*
X246110D01*
G01X240900D02*
Y110310D01*
G01Y144000D02*
X244600D01*
G01X240900Y138000D02*
X244600D01*
G01X240900Y132000D02*
X244600D01*
G01Y130490D02*
Y132000D01*
G01D02*
Y133510D01*
G01Y132000D02*
X246110D01*
G01X244600Y136490D02*
Y138000D01*
G01D02*
Y139510D01*
G01Y138000D02*
X246110D01*
G01X244600Y142490D02*
Y144000D01*
G01D02*
Y145510D01*
G01Y144000D02*
X246110D01*
G01X240900Y129690D02*
Y132000D01*
G01D02*
Y134310D01*
G01Y135690D02*
Y138000D01*
G01D02*
Y140310D01*
G01Y141690D02*
Y144000D01*
G01D02*
Y146310D01*
G01Y162000D02*
X244600D01*
G01X240900Y156000D02*
X244600D01*
G01X240900Y150000D02*
X244600D01*
G01Y148490D02*
Y150000D01*
G01D02*
Y151510D01*
G01Y150000D02*
X246110D01*
G01X244600Y154490D02*
Y156000D01*
G01D02*
Y157510D01*
G01Y156000D02*
X246110D01*
G01X244600Y160490D02*
Y162000D01*
G01D02*
Y163510D01*
G01Y162000D02*
X246110D01*
G01X240900Y159690D02*
Y162000D01*
G01D02*
Y164310D01*
G01Y153690D02*
Y156000D01*
G01D02*
Y158310D01*
G01Y147690D02*
Y150000D01*
G01D02*
Y152310D01*
G01Y180000D02*
X244600D01*
G01X240900Y174000D02*
X244600D01*
G01X240900Y168000D02*
X244600D01*
G01Y166490D02*
Y168000D01*
G01D02*
Y169510D01*
G01Y168000D02*
X246110D01*
G01X244600Y172490D02*
Y174000D01*
G01D02*
Y175510D01*
G01Y174000D02*
X246110D01*
G01X244600Y178490D02*
Y180000D01*
G01D02*
Y181510D01*
G01Y180000D02*
X246110D01*
G01X240900Y177690D02*
Y180000D01*
G01D02*
Y182310D01*
G01Y171690D02*
Y174000D01*
G01D02*
Y176310D01*
G01Y165690D02*
Y168000D01*
G01D02*
Y170310D01*
G01Y198000D02*
X244600D01*
G01X240900Y192000D02*
X244600D01*
G01X240900Y186000D02*
X244600D01*
G01Y184490D02*
Y186000D01*
G01D02*
Y187510D01*
G01Y186000D02*
X246110D01*
G01X244600Y190490D02*
Y192000D01*
G01D02*
Y193510D01*
G01Y192000D02*
X246110D01*
G01X244600Y196490D02*
Y198000D01*
G01D02*
Y199510D01*
G01Y198000D02*
X246110D01*
G01X240900Y195690D02*
Y198000D01*
G01D02*
Y200310D01*
G01Y189690D02*
Y192000D01*
G01D02*
Y194310D01*
G01Y183690D02*
Y186000D01*
G01D02*
Y188310D01*
G01Y216000D02*
X244600D01*
G01X240900Y210000D02*
X244600D01*
G01X240900Y204000D02*
X244600D01*
G01X240900Y219690D02*
Y222000D01*
G01X244600Y202490D02*
Y204000D01*
G01D02*
Y205510D01*
G01Y204000D02*
X246110D01*
G01X244600Y208490D02*
Y210000D01*
G01D02*
Y211510D01*
G01Y210000D02*
X246110D01*
G01X244600Y214490D02*
Y216000D01*
G01D02*
Y217510D01*
G01Y216000D02*
X246110D01*
G01X240900Y213690D02*
Y216000D01*
G01D02*
Y218310D01*
G01Y207690D02*
Y210000D01*
G01D02*
Y212310D01*
G01Y201690D02*
Y204000D01*
G01D02*
Y206310D01*
G01Y228000D02*
X244600D01*
G01X240900Y222000D02*
X244600D01*
G01Y220490D02*
Y222000D01*
G01D02*
Y223510D01*
G01Y222000D02*
X246110D01*
G01X244600Y226490D02*
Y228000D01*
G01D02*
Y229510D01*
G01Y228000D02*
X246110D01*
G01X240900Y225690D02*
Y228000D01*
G01D02*
Y230310D01*
G01Y222000D02*
Y224310D01*
G01X2500Y0D02*
X248700D01*
G03X251200Y2500I0J2500D01*
G01Y257500D01*
G03X248700Y260000I-2500J0D01*
G01X2500D01*
G03X0Y257500I0J-2500D01*
G01Y2500D01*
G03X2500Y0I2500J0D01*
M02*
