G04 ================== begin FILE IDENTIFICATION RECORD ==================*
G04 Layout Name:  AGET_ERNI2HRS_HardBoard.brd*
G04 Film Name:    art01*
G04 File Format:  Gerber RS274X*
G04 File Origin:  Cadence Allegro 16.6-S025*
G04 Origin Date:  Thu Sep 14 22:18:52 2017*
G04 *
G04 Layer:  VIA CLASS/TOP*
G04 Layer:  PIN/TOP*
G04 Layer:  ETCH/TOP*
G04 Layer:  BOARD GEOMETRY/OUTLINE*
G04 *
G04 Offset:    (0.0 0.0)*
G04 Mirror:    No*
G04 Mode:      Positive*
G04 Rotation:  0*
G04 FullContactRelief:  No*
G04 UndefLineWidth:     6.0*
G04 ================== end FILE IDENTIFICATION RECORD ====================*
%FSLAX25Y25*MOIN*%
%IR0*IPPOS*OFA0.00000B0.00000*MIA0B0*SFA1.00000B1.00000*%
%ADD10C,.176*%
%ADD16R,.1063X.0472*%
%ADD12R,.03X.032*%
%ADD14C,.06*%
%ADD13C,.016*%
%ADD11C,.028*%
%ADD17C,.0709*%
%ADD15R,.0315X.0315*%
%ADD18C,.006*%
%ADD22R,.1166X.0574*%
%ADD21R,.0402X.0422*%
%ADD19C,.0264*%
%ADD20C,.0384*%
%ADD23R,.0418X.0418*%
G75*
%LPD*%
G75*
G36*
G01X247200Y20140D02*
Y4000D01*
X4000D01*
Y256000D01*
X247200D01*
Y239860D01*
X239430D01*
Y234120D01*
X247200D01*
Y25880D01*
X239430D01*
Y20140D01*
X247200D01*
G37*
%LPC*%
G75*
G36*
G01X228690Y225700D02*
Y225310D01*
X224310D01*
Y229690D01*
X228690D01*
Y229300D01*
G03X229150Y228900I399J-6D01*
G02Y226100I230J-1400D01*
G03X228690Y225700I-61J-394D01*
G37*
G36*
G01Y220700D02*
Y220310D01*
X224310D01*
Y224690D01*
X228690D01*
Y224300D01*
G03X229150Y223900I399J-6D01*
G02Y221100I230J-1400D01*
G03X228690Y220700I-61J-394D01*
G37*
G36*
G01X228590Y215940D02*
Y215410D01*
X224410D01*
Y219590D01*
X228590D01*
Y219060D01*
G03X229150Y218700I398J4D01*
G02Y216300I550J-1200D01*
G03X228590Y215940I-162J-364D01*
G37*
G36*
G01X228690Y210700D02*
Y210310D01*
X224310D01*
Y214690D01*
X228690D01*
Y214300D01*
G03X229150Y213900I399J-6D01*
G02Y211100I230J-1400D01*
G03X228690Y210700I-61J-394D01*
G37*
G36*
G01Y205700D02*
Y205310D01*
X224310D01*
Y209690D01*
X228690D01*
Y209300D01*
G03X229150Y208900I399J-6D01*
G02Y206100I230J-1400D01*
G03X228690Y205700I-61J-394D01*
G37*
G36*
G01Y200700D02*
Y200310D01*
X224310D01*
Y204690D01*
X228690D01*
Y204300D01*
G03X229150Y203900I399J-6D01*
G02Y201100I230J-1400D01*
G03X228690Y200700I-61J-394D01*
G37*
G36*
G01Y195700D02*
Y195310D01*
X224310D01*
Y199690D01*
X228690D01*
Y199300D01*
G03X229150Y198900I399J-6D01*
G02Y196100I230J-1400D01*
G03X228690Y195700I-61J-394D01*
G37*
G36*
G01Y190700D02*
Y190310D01*
X224310D01*
Y194690D01*
X228690D01*
Y194300D01*
G03X229150Y193900I399J-6D01*
G02Y191100I230J-1400D01*
G03X228690Y190700I-61J-394D01*
G37*
G36*
G01X228590Y185830D02*
Y185410D01*
X224410D01*
Y189590D01*
X228590D01*
Y189170D01*
G03X229080Y188780I398J-2D01*
G02Y186220I320J-1280D01*
G03X228590Y185830I-92J-388D01*
G37*
G36*
G01X228690Y180700D02*
Y180310D01*
X224310D01*
Y184690D01*
X228690D01*
Y184300D01*
G03X229150Y183900I399J-6D01*
G02Y181100I230J-1400D01*
G03X228690Y180700I-61J-394D01*
G37*
G36*
G01Y175700D02*
Y175310D01*
X224310D01*
Y179690D01*
X228690D01*
Y179300D01*
G03X229150Y178900I399J-6D01*
G02Y176100I230J-1400D01*
G03X228690Y175700I-61J-394D01*
G37*
G36*
G01Y170700D02*
Y170310D01*
X224310D01*
Y174690D01*
X228690D01*
Y174300D01*
G03X229150Y173900I399J-6D01*
G02Y171100I230J-1400D01*
G03X228690Y170700I-61J-394D01*
G37*
G36*
G01Y165700D02*
Y165310D01*
X224310D01*
Y169690D01*
X228690D01*
Y169300D01*
G03X229150Y168900I399J-6D01*
G02Y166100I230J-1400D01*
G03X228690Y165700I-61J-394D01*
G37*
G36*
G01Y160700D02*
Y160310D01*
X224310D01*
Y164690D01*
X228690D01*
Y164300D01*
G03X229150Y163900I399J-6D01*
G02Y161100I230J-1400D01*
G03X228690Y160700I-61J-394D01*
G37*
G36*
G01X228590Y155830D02*
Y155410D01*
X224410D01*
Y159590D01*
X228590D01*
Y159170D01*
G03X229080Y158780I398J-2D01*
G02Y156220I320J-1280D01*
G03X228590Y155830I-92J-388D01*
G37*
G36*
G01X228690Y150700D02*
Y150310D01*
X224310D01*
Y154690D01*
X228690D01*
Y154300D01*
G03X229150Y153900I399J-6D01*
G02Y151100I230J-1400D01*
G03X228690Y150700I-61J-394D01*
G37*
G36*
G01Y145700D02*
Y145310D01*
X224310D01*
Y149690D01*
X228690D01*
Y149300D01*
G03X229150Y148900I399J-6D01*
G02Y146100I230J-1400D01*
G03X228690Y145700I-61J-394D01*
G37*
G36*
G01Y140700D02*
Y140310D01*
X224310D01*
Y144690D01*
X228690D01*
Y144300D01*
G03X229150Y143900I399J-6D01*
G02Y141100I230J-1400D01*
G03X228690Y140700I-61J-394D01*
G37*
G36*
G01Y135700D02*
Y135310D01*
X224310D01*
Y139690D01*
X228690D01*
Y139300D01*
G03X229150Y138900I399J-6D01*
G02Y136100I230J-1400D01*
G03X228690Y135700I-61J-394D01*
G37*
G36*
G01Y130700D02*
Y130310D01*
X224310D01*
Y134690D01*
X228690D01*
Y134300D01*
G03X229150Y133900I399J-6D01*
G02Y131100I230J-1400D01*
G03X228690Y130700I-61J-394D01*
G37*
G36*
G01X228590Y125990D02*
Y125410D01*
X224410D01*
Y129590D01*
X228590D01*
Y129010D01*
G03X229170Y128660I398J4D01*
G02Y126340I630J-1160D01*
G03X228590Y125990I-182J-354D01*
G37*
G36*
G01X228690Y120700D02*
Y120310D01*
X224310D01*
Y124690D01*
X228690D01*
Y124300D01*
G03X229150Y123900I399J-6D01*
G02Y121100I230J-1400D01*
G03X228690Y120700I-61J-394D01*
G37*
G36*
G01Y115700D02*
Y115310D01*
X224310D01*
Y119690D01*
X228690D01*
Y119300D01*
G03X229150Y118900I399J-6D01*
G02Y116100I230J-1400D01*
G03X228690Y115700I-61J-394D01*
G37*
G36*
G01Y110700D02*
Y110310D01*
X224310D01*
Y114690D01*
X228690D01*
Y114300D01*
G03X229150Y113900I399J-6D01*
G02Y111100I230J-1400D01*
G03X228690Y110700I-61J-394D01*
G37*
G36*
G01Y105700D02*
Y105310D01*
X224310D01*
Y109690D01*
X228690D01*
Y109300D01*
G03X229150Y108900I399J-6D01*
G02Y106100I230J-1400D01*
G03X228690Y105700I-61J-394D01*
G37*
G36*
G01Y100700D02*
Y100310D01*
X224310D01*
Y104690D01*
X228690D01*
Y104300D01*
G03X229150Y103900I399J-6D01*
G02Y101100I230J-1400D01*
G03X228690Y100700I-61J-394D01*
G37*
G36*
G01X228590Y95940D02*
Y95410D01*
X224410D01*
Y99590D01*
X228590D01*
Y99060D01*
G03X229150Y98700I398J4D01*
G02Y96300I550J-1200D01*
G03X228590Y95940I-162J-364D01*
G37*
G36*
G01X228690Y90700D02*
Y90310D01*
X224310D01*
Y94690D01*
X228690D01*
Y94300D01*
G03X229150Y93900I399J-6D01*
G02Y91100I230J-1400D01*
G03X228690Y90700I-61J-394D01*
G37*
G36*
G01Y85700D02*
Y85310D01*
X224310D01*
Y89690D01*
X228690D01*
Y89300D01*
G03X229150Y88900I399J-6D01*
G02Y86100I230J-1400D01*
G03X228690Y85700I-61J-394D01*
G37*
G36*
G01Y80700D02*
Y80310D01*
X224310D01*
Y84690D01*
X228690D01*
Y84300D01*
G03X229150Y83900I399J-6D01*
G02Y81100I230J-1400D01*
G03X228690Y80700I-61J-394D01*
G37*
G36*
G01Y75700D02*
Y75310D01*
X224310D01*
Y79690D01*
X228690D01*
Y79300D01*
G03X229150Y78900I399J-6D01*
G02Y76100I230J-1400D01*
G03X228690Y75700I-61J-394D01*
G37*
G36*
G01Y70700D02*
Y70310D01*
X224310D01*
Y74690D01*
X228690D01*
Y74300D01*
G03X229150Y73900I399J-6D01*
G02Y71100I230J-1400D01*
G03X228690Y70700I-61J-394D01*
G37*
G36*
G01Y60700D02*
Y60310D01*
X224310D01*
Y64690D01*
X228690D01*
Y64300D01*
G03X229150Y63900I399J-6D01*
G02Y61100I230J-1400D01*
G03X228690Y60700I-61J-394D01*
G37*
G36*
G01Y55700D02*
Y55310D01*
X224310D01*
Y59690D01*
X228690D01*
Y59300D01*
G03X229150Y58900I399J-6D01*
G02Y56100I230J-1400D01*
G03X228690Y55700I-61J-394D01*
G37*
G36*
G01Y50700D02*
Y50310D01*
X224310D01*
Y54690D01*
X228690D01*
Y54300D01*
G03X229150Y53900I399J-6D01*
G02Y51100I230J-1400D01*
G03X228690Y50700I-61J-394D01*
G37*
G36*
G01Y45700D02*
Y45310D01*
X224310D01*
Y49690D01*
X228690D01*
Y49300D01*
G03X229150Y48900I399J-6D01*
G02Y46100I230J-1400D01*
G03X228690Y45700I-61J-394D01*
G37*
G36*
G01Y40730D02*
Y40310D01*
X224310D01*
Y44690D01*
X228690D01*
Y44270D01*
G03X229180Y43880I399J-1D01*
G02Y41120I320J-1380D01*
G03X228690Y40730I-91J-389D01*
G37*
G36*
G01Y30700D02*
Y30310D01*
X224310D01*
Y34690D01*
X228690D01*
Y34300D01*
G03X229150Y33900I399J-6D01*
G02Y31100I230J-1400D01*
G03X228690Y30700I-61J-394D01*
G37*
G36*
G01X228590Y65410D02*
X224410D01*
Y69590D01*
X228590D01*
Y68890D01*
G03X229220Y68570I397J1D01*
G02Y66430I780J-1070D01*
G03X228590Y66110I-233J-321D01*
G01Y65410D01*
G37*
G36*
G01X221400Y30100D02*
X219200D01*
Y30810D01*
G03X218730Y31200I-400J-3D01*
G02Y33800I-230J1300D01*
G03X219200Y34190I70J393D01*
G01Y36590D01*
X213410D01*
Y35290D01*
X209190D01*
Y39710D01*
X213410D01*
Y38410D01*
X219200D01*
Y40780D01*
G03X218780Y41180I-399J2D01*
G02Y43820I-80J1320D01*
G03X219200Y44220I21J398D01*
G01Y47100D01*
X191400Y74900D01*
X16300D01*
Y182500D01*
X29950D01*
X29990Y182520D01*
G02X31010I510J-1220D01*
G01X31050Y182500D01*
X34600D01*
G03X34930Y183130I2J400D01*
G02X37070I1070J770D01*
G03X37400Y182500I328J-230D01*
G01X41000D01*
G03X41330Y183130I2J400D01*
G02X43470I1070J770D01*
G03X43800Y182500I328J-230D01*
G01X168280D01*
G03X168590Y183160I2J402D01*
G02X170280Y182870I1014J841D01*
G01X170190Y182810D01*
Y182500D01*
X170900D01*
X218200Y229800D01*
X221400D01*
Y229690D01*
X223690D01*
Y225310D01*
X221400D01*
Y224690D01*
X223690D01*
Y220310D01*
X221400D01*
Y219690D01*
X223690D01*
Y215310D01*
X221400D01*
Y214690D01*
X223690D01*
Y210310D01*
X221400D01*
Y209690D01*
X223690D01*
Y205310D01*
X221400D01*
Y204690D01*
X223690D01*
Y200310D01*
X221400D01*
Y199690D01*
X223690D01*
Y195310D01*
X221400D01*
Y194590D01*
X223590D01*
Y190410D01*
X221400D01*
Y189690D01*
X223690D01*
Y185310D01*
X221400D01*
Y184690D01*
X223690D01*
Y180310D01*
X221400D01*
Y179690D01*
X223690D01*
Y175310D01*
X221400D01*
Y174690D01*
X223690D01*
Y170310D01*
X221400D01*
Y169690D01*
X223690D01*
Y165310D01*
X221400D01*
Y164590D01*
X223590D01*
Y160410D01*
X221400D01*
Y159690D01*
X223690D01*
Y155310D01*
X221400D01*
Y154690D01*
X223690D01*
Y150310D01*
X221400D01*
Y149690D01*
X223690D01*
Y145310D01*
X221400D01*
Y144690D01*
X223690D01*
Y140310D01*
X221400D01*
Y139690D01*
X223690D01*
Y135310D01*
X221400D01*
Y134590D01*
X223590D01*
Y130410D01*
X221400D01*
Y129690D01*
X223690D01*
Y125310D01*
X221400D01*
Y124690D01*
X223690D01*
Y120310D01*
X221400D01*
Y119690D01*
X223690D01*
Y115310D01*
X221400D01*
Y114690D01*
X223690D01*
Y110310D01*
X221400D01*
Y109690D01*
X223690D01*
Y105310D01*
X221400D01*
Y104590D01*
X223590D01*
Y100410D01*
X221400D01*
Y99690D01*
X223690D01*
Y95310D01*
X221400D01*
Y94690D01*
X223690D01*
Y90310D01*
X221400D01*
Y89690D01*
X223690D01*
Y85310D01*
X221400D01*
Y84690D01*
X223690D01*
Y80310D01*
X221400D01*
Y79690D01*
X223690D01*
Y75310D01*
X221400D01*
Y74590D01*
X223590D01*
Y70410D01*
X221400D01*
Y69690D01*
X223690D01*
Y65310D01*
X221400D01*
Y64690D01*
X223690D01*
Y60310D01*
X221400D01*
Y59690D01*
X223690D01*
Y55310D01*
X221400D01*
Y54690D01*
X223690D01*
Y50310D01*
X221400D01*
Y49690D01*
X223690D01*
Y45310D01*
X221400D01*
Y44590D01*
X223590D01*
Y40410D01*
X221400D01*
Y39690D01*
X223690D01*
Y35310D01*
X221400D01*
Y34590D01*
X223590D01*
Y30410D01*
X221400D01*
Y30100D01*
G37*
G54D22*
X224000Y23010D03*
Y236990D03*
G54D21*
X13300Y83700D03*
Y89600D03*
Y96700D03*
Y102600D03*
Y108500D03*
Y114400D03*
Y120300D03*
Y126300D03*
Y138100D03*
Y144300D03*
Y132200D03*
Y150200D03*
Y156100D03*
Y162000D03*
Y168400D03*
Y174300D03*
X205300Y37500D03*
G54D19*
X201000Y58100D03*
X194200Y56000D03*
X8300Y80800D03*
Y85800D03*
Y90800D03*
Y95800D03*
Y100800D03*
Y105800D03*
Y110800D03*
Y115800D03*
Y120800D03*
Y125800D03*
Y130800D03*
Y135800D03*
Y140800D03*
Y145800D03*
Y150800D03*
Y155800D03*
Y160800D03*
Y165800D03*
Y170800D03*
Y175800D03*
X31500Y187100D03*
X31600Y191400D03*
X43100Y194100D03*
X35600Y194000D03*
X48100Y191000D03*
X47900Y186900D03*
X67900Y69500D03*
X57900D03*
X70500Y193600D03*
X60500D03*
X70300Y184600D03*
X60300D03*
X85700Y11200D03*
X87900Y69500D03*
X77900D03*
X80500Y193600D03*
X80300Y184600D03*
X81900Y205400D03*
X81200Y218900D03*
X102200Y11700D03*
X92800Y22100D03*
X107900Y69500D03*
X97900D03*
X100500Y193600D03*
X90500D03*
X100300Y184600D03*
X90300D03*
X105800Y206500D03*
X93100Y205700D03*
X107100Y218400D03*
X92100Y219200D03*
X125900Y9700D03*
X117000Y20400D03*
X117900Y69500D03*
X120500Y193600D03*
X110500D03*
X120300Y184600D03*
X110300D03*
X116300Y207500D03*
X119600Y218400D03*
X136100Y20400D03*
X137900Y69500D03*
X127900D03*
X140500Y193600D03*
X130500D03*
X140300Y184600D03*
X130300D03*
X130600Y226800D03*
X131900Y244400D03*
X158600Y69800D03*
X147900Y69500D03*
X150500Y193600D03*
X150300Y184600D03*
X152500Y226100D03*
X149400Y244400D03*
X176100Y36000D03*
X175600Y69600D03*
X166800Y69800D03*
X179400Y193900D03*
X186600Y36700D03*
X200700Y37500D03*
X189500Y60600D03*
X183900Y69400D03*
X196900Y211600D03*
X188500Y202600D03*
X205400Y32800D03*
X205300Y41800D03*
X213800Y228200D03*
X206900Y221400D03*
X230400Y37500D03*
X243500Y32500D03*
X244600Y48000D03*
Y42000D03*
Y66000D03*
Y60000D03*
Y54000D03*
Y84000D03*
Y78000D03*
Y72000D03*
Y108000D03*
Y102000D03*
Y96000D03*
Y90000D03*
Y126000D03*
Y120000D03*
Y114000D03*
Y144000D03*
Y138000D03*
Y132000D03*
Y162000D03*
Y156000D03*
Y150000D03*
Y180000D03*
Y174000D03*
Y168000D03*
Y198000D03*
Y192000D03*
Y186000D03*
Y216000D03*
Y210000D03*
Y204000D03*
Y228000D03*
Y222000D03*
X189300Y71400D03*
X197100Y63400D03*
X193500Y66500D03*
X204500Y53600D03*
X212800Y46600D03*
X209100Y49300D03*
G54D20*
X12900Y39500D03*
Y49500D03*
X12400Y69000D03*
X12900Y59500D03*
X10600Y75800D03*
X32900Y39500D03*
X22900D03*
X32900Y49500D03*
X22900D03*
X20000Y71800D03*
X28000Y71400D03*
X32900Y59500D03*
X22900D03*
X52900Y39500D03*
X42900D03*
X52900Y49500D03*
X42900D03*
X50000Y71400D03*
X52900Y59500D03*
X42900D03*
X40000Y205000D03*
X48200Y230300D03*
X38200D03*
X48200Y240300D03*
X38200D03*
X48200Y250300D03*
X38200D03*
X64600Y50100D03*
X64100Y59600D03*
X68200Y230300D03*
X58200D03*
X68200Y240300D03*
X58200D03*
X68200Y250300D03*
X58200D03*
X84300Y39100D03*
X74300D03*
X84300Y49100D03*
X74300D03*
X84300Y59100D03*
X74300D03*
X88200Y230300D03*
X78200D03*
X88200Y240300D03*
X78200D03*
X88200Y250300D03*
X78200D03*
X104300Y39100D03*
X94300D03*
X104300Y49100D03*
X94300D03*
X104300Y59100D03*
X94300D03*
X108200Y230300D03*
X98200D03*
X108200Y240300D03*
X98200D03*
X108200Y250300D03*
X98200D03*
X124300Y39100D03*
X114300D03*
X124300Y49100D03*
X114300D03*
X124300Y59100D03*
X114300D03*
X144300Y39100D03*
X134300D03*
X144300Y49100D03*
X134300D03*
X144300Y59100D03*
X134300D03*
X164300Y39100D03*
X154300D03*
X164300Y49100D03*
X154300D03*
X164300Y59100D03*
X154300D03*
G54D23*
X226500Y37500D03*
%LPD*%
G75*
G54D10*
X20000Y20000D03*
Y240000D03*
X180000Y20000D03*
Y240000D03*
G54D11*
X12900Y39500D03*
Y49500D03*
X12400Y69000D03*
X12900Y59500D03*
X10600Y75800D03*
X32900Y39500D03*
X22900D03*
X32900Y49500D03*
X22900D03*
X20000Y71800D03*
X28000Y71400D03*
X32900Y59500D03*
X22900D03*
X52900Y39500D03*
X42900D03*
X52900Y49500D03*
X42900D03*
X50000Y71400D03*
X52900Y59500D03*
X42900D03*
X39900Y79200D03*
X40000Y205000D03*
X48200Y230300D03*
X38200D03*
X48200Y240300D03*
X38200D03*
X48200Y250300D03*
X38200D03*
X64600Y50100D03*
X64100Y59600D03*
X68200Y230300D03*
X58200D03*
X68200Y240300D03*
X58200D03*
X68200Y250300D03*
X58200D03*
X84300Y39100D03*
X74300D03*
X84300Y49100D03*
X74300D03*
X84300Y59100D03*
X74300D03*
X88200Y230300D03*
X78200D03*
X88200Y240300D03*
X78200D03*
X88200Y250300D03*
X78200D03*
X104300Y39100D03*
X94300D03*
X104300Y49100D03*
X94300D03*
X104300Y59100D03*
X94300D03*
X108200Y230300D03*
X98200D03*
X108200Y240300D03*
X98200D03*
X108200Y250300D03*
X98200D03*
X124300Y39100D03*
X114300D03*
X124300Y49100D03*
X114300D03*
X124300Y59100D03*
X114300D03*
X144300Y39100D03*
X134300D03*
X144300Y49100D03*
X134300D03*
X144300Y59100D03*
X134300D03*
X164300Y39100D03*
X154300D03*
X164300Y49100D03*
X154300D03*
X164300Y59100D03*
X154300D03*
G54D12*
X13300Y83700D03*
Y89600D03*
Y96700D03*
Y102600D03*
Y108500D03*
Y114400D03*
Y120300D03*
Y126300D03*
Y138100D03*
Y144300D03*
Y132200D03*
Y150200D03*
Y156100D03*
Y162000D03*
Y168400D03*
Y174300D03*
X19300Y83700D03*
Y89600D03*
Y96700D03*
Y102600D03*
Y108500D03*
Y114400D03*
Y120300D03*
Y126300D03*
Y138100D03*
Y144300D03*
Y132200D03*
Y150200D03*
Y156100D03*
Y162000D03*
Y168400D03*
Y174300D03*
X211300Y37500D03*
X205300D03*
G54D13*
X8300Y80800D03*
Y85800D03*
Y90800D03*
Y95800D03*
Y100800D03*
Y105800D03*
Y110800D03*
Y115800D03*
Y120800D03*
Y125800D03*
Y130800D03*
Y135800D03*
Y140800D03*
Y145800D03*
Y150800D03*
Y155800D03*
Y160800D03*
Y165800D03*
Y170800D03*
Y175800D03*
X26300Y83740D03*
Y97520D03*
Y89640D03*
Y103420D03*
Y107360D03*
Y113270D03*
Y127100D03*
Y121140D03*
Y130980D03*
Y136890D03*
Y144760D03*
Y160510D03*
Y150670D03*
Y154600D03*
X30500Y181300D03*
X26300Y174290D03*
Y168380D03*
X31500Y187100D03*
X31600Y191400D03*
X42700Y87800D03*
X36900D03*
X33300Y85710D03*
Y105390D03*
Y99490D03*
Y91610D03*
Y109330D03*
Y115230D03*
Y123110D03*
Y138860D03*
X43300Y145000D03*
X36100D03*
X33300Y132950D03*
Y129010D03*
Y162480D03*
Y146730D03*
Y156570D03*
Y152640D03*
X42200Y166100D03*
X36100Y166000D03*
X43000Y176200D03*
X37300D03*
X33300Y170350D03*
Y176260D03*
X43100Y194100D03*
X35600Y194000D03*
X48100Y191000D03*
X47900Y186900D03*
X42400Y183900D03*
X36000D03*
X67900Y69500D03*
X57900D03*
X67700Y77500D03*
X57700D03*
X70500Y193600D03*
X60500D03*
X70300Y184600D03*
X60300D03*
X85700Y11200D03*
X87900Y69500D03*
X77900D03*
X87700Y77500D03*
X77700D03*
X80500Y193600D03*
X80300Y184600D03*
X81900Y205400D03*
X81200Y218900D03*
X102200Y11700D03*
X92800Y22100D03*
X107900Y69500D03*
X97900D03*
X107700Y77500D03*
X97700D03*
X100500Y193600D03*
X90500D03*
X100300Y184600D03*
X90300D03*
X105800Y206500D03*
X93100Y205700D03*
X107100Y218400D03*
X92100Y219200D03*
X125900Y9700D03*
X117000Y20400D03*
X117900Y69500D03*
X117700Y77500D03*
X120500Y193600D03*
X110500D03*
X120300Y184600D03*
X110300D03*
X116300Y207500D03*
X119600Y218400D03*
X136100Y20400D03*
X137900Y69500D03*
X127900D03*
X137700Y77500D03*
X127700D03*
X140500Y193600D03*
X130500D03*
X140300Y184600D03*
X130300D03*
X130600Y226800D03*
X131900Y244400D03*
X158600Y69800D03*
X147900Y69500D03*
X147700Y77500D03*
X150500Y193600D03*
X150300Y184600D03*
X152500Y226100D03*
X149400Y244400D03*
X176100Y36000D03*
X175600Y69600D03*
X166800Y69800D03*
X179400Y193900D03*
X169600Y184000D03*
X186600Y36700D03*
X200700Y37500D03*
X194200Y56000D03*
X189500Y60600D03*
X183900Y69400D03*
X201000Y58100D03*
X197100Y63400D03*
X193500Y66500D03*
X189300Y71400D03*
X187100Y76800D03*
X196900Y211600D03*
X188500Y202600D03*
X205400Y32800D03*
X218500Y32500D03*
X212800Y46600D03*
X209100Y49300D03*
X205300Y41800D03*
X218700Y42500D03*
X204500Y53600D03*
X207900Y87600D03*
X213400Y81600D03*
X217850Y76750D03*
X203000Y92300D03*
X218500Y106000D03*
X218100Y132500D03*
X218620Y192500D03*
X213800Y228200D03*
X206900Y221400D03*
X229380Y32500D03*
X230400Y37500D03*
X229500Y42500D03*
X229380Y47500D03*
X230000Y67500D03*
X229380Y52500D03*
Y62500D03*
Y57500D03*
Y87500D03*
Y77500D03*
Y72500D03*
Y82500D03*
X229700Y97500D03*
X229380Y92500D03*
Y102500D03*
Y107500D03*
Y122500D03*
Y112500D03*
Y117500D03*
X229800Y127500D03*
X229380Y132500D03*
Y137500D03*
Y142500D03*
X229400Y157500D03*
X229380Y147500D03*
Y162500D03*
Y152500D03*
Y177500D03*
Y167500D03*
Y182500D03*
Y172500D03*
Y192500D03*
X229400Y187500D03*
X229380Y197500D03*
X229700Y217500D03*
X229380Y212500D03*
Y207500D03*
Y202500D03*
Y222500D03*
Y227500D03*
X243500Y32500D03*
X244600Y48000D03*
Y42000D03*
Y66000D03*
Y60000D03*
Y54000D03*
Y84000D03*
Y78000D03*
Y72000D03*
Y108000D03*
Y102000D03*
Y96000D03*
Y90000D03*
Y126000D03*
Y120000D03*
Y114000D03*
Y144000D03*
Y138000D03*
Y132000D03*
Y162000D03*
Y156000D03*
Y150000D03*
Y180000D03*
Y174000D03*
Y168000D03*
Y198000D03*
Y192000D03*
Y186000D03*
Y216000D03*
Y210000D03*
Y204000D03*
Y228000D03*
Y222000D03*
G54D14*
X20000Y217500D03*
X54400Y30900D03*
X72200Y29600D03*
X60000Y217500D03*
X140000Y212400D03*
X150900Y32100D03*
X161100Y214700D03*
X180400Y54300D03*
G54D15*
X221500Y32500D03*
Y47500D03*
Y42500D03*
Y37500D03*
Y67500D03*
Y62500D03*
Y57500D03*
Y52500D03*
Y87500D03*
Y82500D03*
Y77500D03*
Y72500D03*
Y107500D03*
Y102500D03*
Y97500D03*
Y92500D03*
Y127500D03*
Y122500D03*
Y117500D03*
Y112500D03*
Y142500D03*
Y137500D03*
Y132500D03*
Y162500D03*
Y157500D03*
Y152500D03*
Y147500D03*
Y182500D03*
Y177500D03*
Y172500D03*
Y167500D03*
Y202500D03*
Y197500D03*
Y192500D03*
Y187500D03*
Y217500D03*
Y212500D03*
Y207500D03*
Y227500D03*
Y222500D03*
X226500Y32500D03*
Y47500D03*
Y42500D03*
Y37500D03*
Y67500D03*
Y62500D03*
Y57500D03*
Y52500D03*
Y87500D03*
Y82500D03*
Y77500D03*
Y72500D03*
Y107500D03*
Y102500D03*
Y97500D03*
Y92500D03*
Y127500D03*
Y122500D03*
Y117500D03*
Y112500D03*
Y142500D03*
Y137500D03*
Y132500D03*
Y162500D03*
Y157500D03*
Y152500D03*
Y147500D03*
Y182500D03*
Y177500D03*
Y172500D03*
Y167500D03*
Y202500D03*
Y197500D03*
Y192500D03*
Y187500D03*
Y217500D03*
Y212500D03*
Y207500D03*
Y227500D03*
Y222500D03*
G54D16*
X224000Y23010D03*
Y236990D03*
X245260Y23010D03*
Y236990D03*
G54D17*
X234370Y23800D03*
Y236200D03*
G54D18*
G01X12900Y47390D02*
Y49500D01*
G01D02*
Y51610D01*
G01X10790Y49500D02*
X12900D01*
G01D02*
X15010D01*
G01X12900Y37390D02*
Y39500D01*
G01D02*
Y41610D01*
G01X10790Y39500D02*
X12900D01*
G01D02*
X15010D01*
G01X12900Y57390D02*
Y59500D01*
G01D02*
Y61610D01*
G01X10790Y59500D02*
X12900D01*
G01D02*
X15010D01*
G01X12400Y66890D02*
Y69000D01*
G01D02*
Y71110D01*
G01X10290Y69000D02*
X12400D01*
G01D02*
X14510D01*
G01X8300Y84290D02*
Y85800D01*
G01D02*
Y87310D01*
G01X6790Y85800D02*
X8300D01*
G01D02*
X9810D01*
G01X8300Y79290D02*
Y80800D01*
G01D02*
Y82310D01*
G01X6790Y80800D02*
X8300D01*
G01D02*
X9810D01*
G01X10600Y73690D02*
Y75800D01*
G01D02*
Y77910D01*
G01X8490Y75800D02*
X10600D01*
G01D02*
X12710D01*
G01X11090Y83700D02*
X13300D01*
G01X8300Y104290D02*
Y105800D01*
G01D02*
Y107310D01*
G01X6790Y105800D02*
X8300D01*
G01D02*
X9810D01*
G01X8300Y99290D02*
Y100800D01*
G01D02*
Y102310D01*
G01X6790Y100800D02*
X8300D01*
G01D02*
X9810D01*
G01X8300Y94290D02*
Y95800D01*
G01D02*
Y97310D01*
G01X6790Y95800D02*
X8300D01*
G01D02*
X9810D01*
G01X8300Y89290D02*
Y90800D01*
G01D02*
Y92310D01*
G01X6790Y90800D02*
X8300D01*
G01D02*
X9810D01*
G01X11090Y102600D02*
X13300D01*
G01X11090Y96700D02*
X13300D01*
G01X11090Y89600D02*
X13300D01*
G01X8300Y124290D02*
Y125800D01*
G01D02*
Y127310D01*
G01X6790Y125800D02*
X8300D01*
G01D02*
X9810D01*
G01X8300Y119290D02*
Y120800D01*
G01D02*
Y122310D01*
G01X6790Y120800D02*
X8300D01*
G01D02*
X9810D01*
G01X8300Y114290D02*
Y115800D01*
G01D02*
Y117310D01*
G01X6790Y115800D02*
X8300D01*
G01D02*
X9810D01*
G01X8300Y109290D02*
Y110800D01*
G01D02*
Y112310D01*
G01X6790Y110800D02*
X8300D01*
G01D02*
X9810D01*
G01X11090Y120300D02*
X13300D01*
G01X11090Y114400D02*
X13300D01*
G01X11090Y108500D02*
X13300D01*
G01X8300Y144290D02*
Y145800D01*
G01Y139290D02*
Y140800D01*
G01D02*
Y142310D01*
G01X6790Y140800D02*
X8300D01*
G01D02*
X9810D01*
G01X8300Y134290D02*
Y135800D01*
G01D02*
Y137310D01*
G01X6790Y135800D02*
X8300D01*
G01D02*
X9810D01*
G01X8300Y129290D02*
Y130800D01*
G01D02*
Y132310D01*
G01X6790Y130800D02*
X8300D01*
G01D02*
X9810D01*
G01X11090Y132200D02*
X13300D01*
G01X11090Y144300D02*
X13300D01*
G01X11090Y138100D02*
X13300D01*
G01X11090Y126300D02*
X13300D01*
G01X8300Y159290D02*
Y160800D01*
G01D02*
Y162310D01*
G01X6790Y160800D02*
X8300D01*
G01D02*
X9810D01*
G01X8300Y154290D02*
Y155800D01*
G01D02*
Y157310D01*
G01X6790Y155800D02*
X8300D01*
G01D02*
X9810D01*
G01X8300Y149290D02*
Y150800D01*
G01D02*
Y152310D01*
G01X6790Y150800D02*
X8300D01*
G01D02*
X9810D01*
G01X11090Y162000D02*
X13300D01*
G01X11090Y156100D02*
X13300D01*
G01X11090Y150200D02*
X13300D01*
G01X8300Y145800D02*
Y147310D01*
G01X6790Y145800D02*
X8300D01*
G01D02*
X9810D01*
G01X8300Y174290D02*
Y175800D01*
G01D02*
Y177310D01*
G01X6790Y175800D02*
X8300D01*
G01D02*
X9810D01*
G01X8300Y169290D02*
Y170800D01*
G01D02*
Y172310D01*
G01X6790Y170800D02*
X8300D01*
G01D02*
X9810D01*
G01X8300Y164290D02*
Y165800D01*
G01D02*
Y167310D01*
G01X6790Y165800D02*
X8300D01*
G01D02*
X9810D01*
G01X11090Y174300D02*
X13300D01*
G01X11090Y168400D02*
X13300D01*
G01X22900Y47390D02*
Y49500D01*
G01D02*
Y51610D01*
G01X20790Y49500D02*
X22900D01*
G01D02*
X25010D01*
G01X30790D02*
X32900D01*
G01X22900Y37390D02*
Y39500D01*
G01D02*
Y41610D01*
G01X20790Y39500D02*
X22900D01*
G01D02*
X25010D01*
G01X30790D02*
X32900D01*
G01X22900Y57390D02*
Y59500D01*
G01D02*
Y61610D01*
G01X20790Y59500D02*
X22900D01*
G01D02*
X25010D01*
G01X30790D02*
X32900D01*
G01X28000Y69290D02*
Y71400D01*
G01D02*
Y73510D01*
G01X25890Y71400D02*
X28000D01*
G01D02*
X30110D01*
G01X20000Y69690D02*
Y71800D01*
G01D02*
Y73910D01*
G01X17890Y71800D02*
X20000D01*
G01D02*
X22110D01*
G01X13300Y87290D02*
Y89600D01*
G01Y81390D02*
Y83700D01*
G01D02*
Y86010D01*
G01Y83700D02*
X15510D01*
G01X19300D02*
X21600D01*
X21640Y83740D01*
X26300D01*
G01D02*
X27440Y82600D01*
X186400D01*
X221500Y47500D01*
G01X19300Y96700D02*
X21600D01*
X22420Y97520D01*
X26300D01*
G01D02*
X27920Y95900D01*
X193100D01*
X221500Y67500D01*
G01X13300Y106190D02*
Y108500D01*
G01Y100290D02*
Y102600D01*
G01D02*
Y104910D01*
G01Y102600D02*
X15510D01*
G01X13300Y94390D02*
Y96700D01*
G01D02*
Y99010D01*
G01Y96700D02*
X15510D01*
G01X13300Y89600D02*
Y91910D01*
G01Y89600D02*
X15510D01*
G01X19300D02*
X21600D01*
X21640Y89640D01*
X26300D01*
G01D02*
X189360D01*
X221500Y57500D01*
G01X19300Y102600D02*
X21600D01*
X22420Y103420D01*
X26300D01*
G01D02*
X27440Y102280D01*
X201720D01*
X221500Y82500D01*
G01X26300Y107360D02*
X25160Y108500D01*
X19300D01*
G01X26300Y113270D02*
X215730D01*
X221500Y107500D01*
G01X26300Y113270D02*
X22730D01*
X21600Y114400D01*
X19300D01*
G01X13300Y123990D02*
Y126300D01*
G01Y117990D02*
Y120300D01*
G01D02*
Y122610D01*
G01Y120300D02*
X15510D01*
G01X13300Y112090D02*
Y114400D01*
G01D02*
Y116710D01*
G01Y114400D02*
X15510D01*
G01X13300Y108500D02*
Y110810D01*
G01Y108500D02*
X15510D01*
G01X26300Y127100D02*
X27440Y125960D01*
X217580D01*
X219120Y127500D01*
X221500D01*
G01X26300Y121140D02*
X22440D01*
X21600Y120300D01*
X19300D01*
G01X26300Y121140D02*
X27440Y120000D01*
X219000D01*
X221500Y117500D01*
G01X26300Y107360D02*
X206640D01*
X221500Y92500D01*
G01X26300Y130980D02*
X24700D01*
X23480Y132200D01*
X19300D01*
G01X26300Y130980D02*
X207600D01*
X219120Y142500D01*
X221500D01*
G01X13300Y129890D02*
Y132200D01*
G01D02*
Y134510D01*
G01Y132200D02*
X15510D01*
G01X13300Y141990D02*
Y144300D01*
G01D02*
Y146610D01*
G01Y144300D02*
X15510D01*
G01X13300Y135790D02*
Y138100D01*
G01D02*
Y140410D01*
G01Y138100D02*
X15510D01*
G01X13300Y126300D02*
Y128610D01*
G01Y126300D02*
X15510D01*
G01X26300Y127100D02*
X22400D01*
X21600Y126300D01*
X19300D01*
G01X26300Y136890D02*
X24700D01*
X23490Y138100D01*
X19300D01*
G01X26300Y136890D02*
X203510D01*
X219120Y152500D01*
X221500D01*
G01X26300Y144760D02*
X22060D01*
X21600Y144300D01*
X19300D01*
G01X26300Y144760D02*
X27860Y143200D01*
X194820D01*
X219120Y167500D01*
X221500D01*
G01X26300Y160510D02*
X24700D01*
X23210Y162000D01*
X19300D01*
G01X26300Y160510D02*
X177130D01*
X219120Y202500D01*
X221500D01*
G01X13300Y159690D02*
Y162000D01*
G01D02*
Y164310D01*
G01Y162000D02*
X15510D01*
G01X13300Y153790D02*
Y156100D01*
G01D02*
Y158410D01*
G01Y156100D02*
X15510D01*
G01X13300Y147890D02*
Y150200D01*
G01D02*
Y152510D01*
G01Y150200D02*
X15510D01*
G01X26300Y150670D02*
X22070D01*
X21600Y150200D01*
X19300D01*
G01X221500Y177500D02*
X219120D01*
X191150Y149530D01*
X27440D01*
X26300Y150670D01*
G01Y154600D02*
X24700D01*
X23200Y156100D01*
X19300D01*
G01X26300Y154600D02*
X186220D01*
X219120Y187500D01*
X221500D01*
G01X13300Y171990D02*
Y174300D01*
G01D02*
Y176610D01*
G01Y174300D02*
X15510D01*
G01X13300Y166090D02*
Y168400D01*
G01D02*
Y170710D01*
G01Y168400D02*
X15510D01*
G01X26300Y174290D02*
X21610D01*
X21600Y174300D01*
X19300D01*
G01X26300Y174290D02*
X170910D01*
X219120Y222500D01*
X221500D01*
G01X26300Y168380D02*
X21620D01*
X21600Y168400D01*
X19300D01*
G01X26300Y168380D02*
X175000D01*
X219120Y212500D01*
X221500D01*
G01X31600Y189890D02*
Y191400D01*
G01D02*
Y192910D01*
G01X30090Y191400D02*
X31600D01*
G01D02*
X33110D01*
G01X31500Y185590D02*
Y187100D01*
G01D02*
Y188610D01*
G01X29990Y187100D02*
X31500D01*
G01D02*
X33010D01*
G01X42900Y47390D02*
Y49500D01*
G01D02*
Y51610D01*
G01X40790Y49500D02*
X42900D01*
G01D02*
X45010D01*
G01X50790D02*
X52900D01*
G01X42900Y37390D02*
Y39500D01*
G01D02*
Y41610D01*
G01X40790Y39500D02*
X42900D01*
G01D02*
X45010D01*
G01X50790D02*
X52900D01*
G01X32900Y47390D02*
Y49500D01*
G01D02*
Y51610D01*
G01Y49500D02*
X35010D01*
G01X32900Y37390D02*
Y39500D01*
G01D02*
Y41610D01*
G01Y39500D02*
X35010D01*
G01X42900Y57390D02*
Y59500D01*
G01D02*
Y61610D01*
G01X40790Y59500D02*
X42900D01*
G01D02*
X45010D01*
G01X50790D02*
X52900D01*
G01X50000Y69290D02*
Y71400D01*
G01X32900Y57390D02*
Y59500D01*
G01D02*
Y61610D01*
G01Y59500D02*
X35010D01*
G01X50000Y71400D02*
Y73510D01*
G01X47890Y71400D02*
X50000D01*
G01D02*
X52110D01*
G01X33300Y85710D02*
X188290D01*
X221500Y52500D01*
G01X33300Y105390D02*
X203610D01*
X221500Y87500D01*
G01X33300Y99490D02*
X199510D01*
X221500Y77500D01*
G01X33300Y91610D02*
X34440Y92750D01*
X191250D01*
X221500Y62500D01*
G01X33300Y109330D02*
X34470Y110500D01*
X208500D01*
X221500Y97500D01*
G01X33300Y115230D02*
X34570Y116500D01*
X217500D01*
X221500Y112500D01*
G01X33300Y123110D02*
X218510D01*
X219120Y122500D01*
X221500D01*
G01X33300Y138860D02*
X34440Y140000D01*
X201620D01*
X219120Y157500D01*
X221500D01*
G01Y147500D02*
X219120D01*
X205710Y134090D01*
X34440D01*
X33300Y132950D01*
G01X221500Y137500D02*
X218900D01*
X210410Y129010D01*
X33300D01*
G01X221500Y207500D02*
X219120D01*
X175320Y163700D01*
X34520D01*
X33300Y162480D01*
G01Y146730D02*
X193350D01*
X219120Y172500D01*
X221500D01*
G01Y197500D02*
X219120D01*
X179330Y157710D01*
X34440D01*
X33300Y156570D01*
G01Y152640D02*
X189260D01*
X219120Y182500D01*
X221500D01*
G01Y217500D02*
X219120D01*
X173110Y171490D01*
X34440D01*
X33300Y170350D01*
G01X221500Y227500D02*
X219120D01*
X169620Y178000D01*
X35040D01*
X33300Y176260D01*
G01X47900Y185390D02*
Y186900D01*
G01D02*
Y188410D01*
G01X46390Y186900D02*
X47900D01*
G01D02*
X49410D01*
G01X48100Y189490D02*
Y191000D01*
G01D02*
Y192510D01*
G01X46590Y191000D02*
X48100D01*
G01D02*
X49610D01*
G01X35600Y192490D02*
Y194000D01*
G01D02*
Y195510D01*
G01X34090Y194000D02*
X35600D01*
G01D02*
X37110D01*
G01X43100Y192590D02*
Y194100D01*
G01D02*
Y195610D01*
G01X41590Y194100D02*
X43100D01*
G01D02*
X44610D01*
G01X36000Y183900D02*
Y185410D01*
G01X34490Y183900D02*
X36000D01*
G01D02*
X37510D01*
G01X42400D02*
Y185410D01*
G01X40890Y183900D02*
X42400D01*
G01D02*
X43910D01*
G01X40000Y202890D02*
Y205000D01*
G01D02*
Y207110D01*
G01X37890Y205000D02*
X40000D01*
G01D02*
X42110D01*
G01X38200Y238190D02*
Y240300D01*
G01X48200Y238190D02*
Y240300D01*
G01X38200Y228190D02*
Y230300D01*
G01D02*
Y232410D01*
G01X36090Y230300D02*
X38200D01*
G01D02*
X40310D01*
G01X48200Y228190D02*
Y230300D01*
G01D02*
Y232410D01*
G01X46090Y230300D02*
X48200D01*
G01D02*
X50310D01*
G01X38200Y248190D02*
Y250300D01*
G01D02*
Y252410D01*
G01X36090Y250300D02*
X38200D01*
G01D02*
X40310D01*
G01X48200Y248190D02*
Y250300D01*
G01D02*
Y252410D01*
G01X46090Y250300D02*
X48200D01*
G01D02*
X50310D01*
G01X38200Y240300D02*
Y242410D01*
G01X36090Y240300D02*
X38200D01*
G01D02*
X40310D01*
G01X48200D02*
Y242410D01*
G01X46090Y240300D02*
X48200D01*
G01D02*
X50310D01*
G01X64600Y47990D02*
Y50100D01*
G01D02*
Y52210D01*
G01X62490Y50100D02*
X64600D01*
G01D02*
X66710D01*
G01X52900Y47390D02*
Y49500D01*
G01D02*
Y51610D01*
G01Y49500D02*
X55010D01*
G01X52900Y37390D02*
Y39500D01*
G01D02*
Y41610D01*
G01Y39500D02*
X55010D01*
G01X57900Y67990D02*
Y69500D01*
G01D02*
Y71010D01*
G01X56390Y69500D02*
X57900D01*
G01D02*
X59410D01*
G01X67900Y67990D02*
Y69500D01*
G01D02*
Y71010D01*
G01X66390Y69500D02*
X67900D01*
G01D02*
X69410D01*
G01X64100Y57490D02*
Y59600D01*
G01D02*
Y61710D01*
G01X61990Y59600D02*
X64100D01*
G01D02*
X66210D01*
G01X52900Y57390D02*
Y59500D01*
G01D02*
Y61610D01*
G01Y59500D02*
X55010D01*
G01X60300Y183090D02*
Y184600D01*
G01D02*
Y186110D01*
G01X58790Y184600D02*
X60300D01*
G01D02*
X61810D01*
G01X68790D02*
X70300D01*
G01X60500Y192090D02*
Y193600D01*
G01D02*
Y195110D01*
G01X58990Y193600D02*
X60500D01*
G01D02*
X62010D01*
G01X68990D02*
X70500D01*
G01X58200Y238190D02*
Y240300D01*
G01X68200Y238190D02*
Y240300D01*
G01X58200Y228190D02*
Y230300D01*
G01D02*
Y232410D01*
G01X56090Y230300D02*
X58200D01*
G01D02*
X60310D01*
G01X68200Y228190D02*
Y230300D01*
G01D02*
Y232410D01*
G01X66090Y230300D02*
X68200D01*
G01D02*
X70310D01*
G01X58200Y248190D02*
Y250300D01*
G01D02*
Y252410D01*
G01X56090Y250300D02*
X58200D01*
G01D02*
X60310D01*
G01X68200Y248190D02*
Y250300D01*
G01D02*
Y252410D01*
G01X66090Y250300D02*
X68200D01*
G01D02*
X70310D01*
G01X58200Y240300D02*
Y242410D01*
G01X56090Y240300D02*
X58200D01*
G01D02*
X60310D01*
G01X68200D02*
Y242410D01*
G01X66090Y240300D02*
X68200D01*
G01D02*
X70310D01*
G01X85700Y9690D02*
Y11200D01*
G01D02*
Y12710D01*
G01X84190Y11200D02*
X85700D01*
G01D02*
X87210D01*
G01X74300Y46990D02*
Y49100D01*
G01D02*
Y51210D01*
G01X72190Y49100D02*
X74300D01*
G01D02*
X76410D01*
G01X84300Y46990D02*
Y49100D01*
G01D02*
Y51210D01*
G01X82190Y49100D02*
X84300D01*
G01D02*
X86410D01*
G01X74300Y36990D02*
Y39100D01*
G01D02*
Y41210D01*
G01X72190Y39100D02*
X74300D01*
G01D02*
X76410D01*
G01X84300Y36990D02*
Y39100D01*
G01D02*
Y41210D01*
G01X82190Y39100D02*
X84300D01*
G01D02*
X86410D01*
G01X77900Y67990D02*
Y69500D01*
G01D02*
Y71010D01*
G01X76390Y69500D02*
X77900D01*
G01D02*
X79410D01*
G01X87900Y67990D02*
Y69500D01*
G01D02*
Y71010D01*
G01X86390Y69500D02*
X87900D01*
G01D02*
X89410D01*
G01X74300Y56990D02*
Y59100D01*
G01D02*
Y61210D01*
G01X72190Y59100D02*
X74300D01*
G01D02*
X76410D01*
G01X84300Y56990D02*
Y59100D01*
G01D02*
Y61210D01*
G01X82190Y59100D02*
X84300D01*
G01D02*
X86410D01*
G01X80300Y183090D02*
Y184600D01*
G01D02*
Y186110D01*
G01X78790Y184600D02*
X80300D01*
G01D02*
X81810D01*
G01X80500Y192090D02*
Y193600D01*
G01D02*
Y195110D01*
G01X78990Y193600D02*
X80500D01*
G01D02*
X82010D01*
G01X70300Y183090D02*
Y184600D01*
G01D02*
Y186110D01*
G01Y184600D02*
X71810D01*
G01X70500Y192090D02*
Y193600D01*
G01D02*
Y195110D01*
G01Y193600D02*
X72010D01*
G01X81200Y217390D02*
Y218900D01*
G01D02*
Y220410D01*
G01X79690Y218900D02*
X81200D01*
G01D02*
X82710D01*
G01X81900Y203890D02*
Y205400D01*
G01D02*
Y206910D01*
G01X80390Y205400D02*
X81900D01*
G01D02*
X83410D01*
G01X78200Y238190D02*
Y240300D01*
G01X88200Y238190D02*
Y240300D01*
G01X78200Y228190D02*
Y230300D01*
G01D02*
Y232410D01*
G01X76090Y230300D02*
X78200D01*
G01D02*
X80310D01*
G01X88200Y228190D02*
Y230300D01*
G01D02*
Y232410D01*
G01X86090Y230300D02*
X88200D01*
G01D02*
X90310D01*
G01X78200Y248190D02*
Y250300D01*
G01D02*
Y252410D01*
G01X76090Y250300D02*
X78200D01*
G01D02*
X80310D01*
G01X88200Y248190D02*
Y250300D01*
G01D02*
Y252410D01*
G01X86090Y250300D02*
X88200D01*
G01D02*
X90310D01*
G01X78200Y240300D02*
Y242410D01*
G01X76090Y240300D02*
X78200D01*
G01D02*
X80310D01*
G01X88200D02*
Y242410D01*
G01X86090Y240300D02*
X88200D01*
G01D02*
X90310D01*
G01X102200Y10190D02*
Y11700D01*
G01D02*
Y13210D01*
G01X100690Y11700D02*
X102200D01*
G01D02*
X103710D01*
G01X92800Y20590D02*
Y22100D01*
G01D02*
Y23610D01*
G01X91290Y22100D02*
X92800D01*
G01D02*
X94310D01*
G01X94300Y46990D02*
Y49100D01*
G01D02*
Y51210D01*
G01X92190Y49100D02*
X94300D01*
G01D02*
X96410D01*
G01X104300Y46990D02*
Y49100D01*
G01D02*
Y51210D01*
G01X102190Y49100D02*
X104300D01*
G01D02*
X106410D01*
G01X94300Y36990D02*
Y39100D01*
G01D02*
Y41210D01*
G01X92190Y39100D02*
X94300D01*
G01D02*
X96410D01*
G01X104300Y36990D02*
Y39100D01*
G01D02*
Y41210D01*
G01X102190Y39100D02*
X104300D01*
G01D02*
X106410D01*
G01X97900Y67990D02*
Y69500D01*
G01D02*
Y71010D01*
G01X96390Y69500D02*
X97900D01*
G01D02*
X99410D01*
G01X106390D02*
X107900D01*
G01X94300Y56990D02*
Y59100D01*
G01D02*
Y61210D01*
G01X92190Y59100D02*
X94300D01*
G01D02*
X96410D01*
G01X104300Y56990D02*
Y59100D01*
G01D02*
Y61210D01*
G01X102190Y59100D02*
X104300D01*
G01D02*
X106410D01*
G01X90300Y183090D02*
Y184600D01*
G01D02*
Y186110D01*
G01X88790Y184600D02*
X90300D01*
G01D02*
X91810D01*
G01X100300Y183090D02*
Y184600D01*
G01D02*
Y186110D01*
G01X98790Y184600D02*
X100300D01*
G01D02*
X101810D01*
G01X90500Y192090D02*
Y193600D01*
G01D02*
Y195110D01*
G01X88990Y193600D02*
X90500D01*
G01D02*
X92010D01*
G01X100500Y192090D02*
Y193600D01*
G01D02*
Y195110D01*
G01X98990Y193600D02*
X100500D01*
G01D02*
X102010D01*
G01X92100Y217690D02*
Y219200D01*
G01D02*
Y220710D01*
G01X90590Y219200D02*
X92100D01*
G01D02*
X93610D01*
G01X107100Y216890D02*
Y218400D01*
G01D02*
Y219910D01*
G01X105590Y218400D02*
X107100D01*
G01D02*
X108610D01*
G01X93100Y204190D02*
Y205700D01*
G01D02*
Y207210D01*
G01X91590Y205700D02*
X93100D01*
G01D02*
X94610D01*
G01X105800Y204990D02*
Y206500D01*
G01D02*
Y208010D01*
G01X104290Y206500D02*
X105800D01*
G01D02*
X107310D01*
G01X98200Y238190D02*
Y240300D01*
G01Y228190D02*
Y230300D01*
G01D02*
Y232410D01*
G01X96090Y230300D02*
X98200D01*
G01D02*
X100310D01*
G01X106090D02*
X108200D01*
G01X98200Y248190D02*
Y250300D01*
G01D02*
Y252410D01*
G01X96090Y250300D02*
X98200D01*
G01D02*
X100310D01*
G01X106090D02*
X108200D01*
G01X98200Y240300D02*
Y242410D01*
G01X96090Y240300D02*
X98200D01*
G01D02*
X100310D01*
G01X106090D02*
X108200D01*
G01X125900Y8190D02*
Y9700D01*
G01D02*
Y11210D01*
G01X124390Y9700D02*
X125900D01*
G01D02*
X127410D01*
G01X117000Y18890D02*
Y20400D01*
G01D02*
Y21910D01*
G01X115490Y20400D02*
X117000D01*
G01D02*
X118510D01*
G01X114300Y46990D02*
Y49100D01*
G01D02*
Y51210D01*
G01X112190Y49100D02*
X114300D01*
G01D02*
X116410D01*
G01X124300Y46990D02*
Y49100D01*
G01D02*
Y51210D01*
G01X122190Y49100D02*
X124300D01*
G01D02*
X126410D01*
G01X114300Y36990D02*
Y39100D01*
G01D02*
Y41210D01*
G01X112190Y39100D02*
X114300D01*
G01D02*
X116410D01*
G01X124300Y36990D02*
Y39100D01*
G01D02*
Y41210D01*
G01X122190Y39100D02*
X124300D01*
G01D02*
X126410D01*
G01X117900Y67990D02*
Y69500D01*
G01D02*
Y71010D01*
G01X116390Y69500D02*
X117900D01*
G01D02*
X119410D01*
G01X114300Y56990D02*
Y59100D01*
G01D02*
Y61210D01*
G01X112190Y59100D02*
X114300D01*
G01D02*
X116410D01*
G01X124300Y56990D02*
Y59100D01*
G01D02*
Y61210D01*
G01X122190Y59100D02*
X124300D01*
G01D02*
X126410D01*
G01X107900Y67990D02*
Y69500D01*
G01D02*
Y71010D01*
G01Y69500D02*
X109410D01*
G01X110300Y183090D02*
Y184600D01*
G01D02*
Y186110D01*
G01X108790Y184600D02*
X110300D01*
G01D02*
X111810D01*
G01X120300Y183090D02*
Y184600D01*
G01D02*
Y186110D01*
G01X118790Y184600D02*
X120300D01*
G01D02*
X121810D01*
G01X110500Y192090D02*
Y193600D01*
G01D02*
Y195110D01*
G01X108990Y193600D02*
X110500D01*
G01D02*
X112010D01*
G01X120500Y192090D02*
Y193600D01*
G01D02*
Y195110D01*
G01X118990Y193600D02*
X120500D01*
G01D02*
X122010D01*
G01X119600Y216890D02*
Y218400D01*
G01D02*
Y219910D01*
G01X118090Y218400D02*
X119600D01*
G01D02*
X121110D01*
G01X116300Y205990D02*
Y207500D01*
G01D02*
Y209010D01*
G01X114790Y207500D02*
X116300D01*
G01D02*
X117810D01*
G01X108200Y238190D02*
Y240300D01*
G01Y228190D02*
Y230300D01*
G01D02*
Y232410D01*
G01Y230300D02*
X110310D01*
G01X108200Y248190D02*
Y250300D01*
G01D02*
Y252410D01*
G01Y250300D02*
X110310D01*
G01X108200Y240300D02*
Y242410D01*
G01Y240300D02*
X110310D01*
G01X136100Y18890D02*
Y20400D01*
G01D02*
Y21910D01*
G01X134590Y20400D02*
X136100D01*
G01D02*
X137610D01*
G01X134300Y46990D02*
Y49100D01*
G01D02*
Y51210D01*
G01X132190Y49100D02*
X134300D01*
G01D02*
X136410D01*
G01X144300Y46990D02*
Y49100D01*
G01D02*
Y51210D01*
G01X142190Y49100D02*
X144300D01*
G01D02*
X146410D01*
G01X134300Y36990D02*
Y39100D01*
G01D02*
Y41210D01*
G01X132190Y39100D02*
X134300D01*
G01D02*
X136410D01*
G01X144300Y36990D02*
Y39100D01*
G01D02*
Y41210D01*
G01X142190Y39100D02*
X144300D01*
G01D02*
X146410D01*
G01X127900Y67990D02*
Y69500D01*
G01D02*
Y71010D01*
G01X126390Y69500D02*
X127900D01*
G01D02*
X129410D01*
G01X137900Y67990D02*
Y69500D01*
G01D02*
Y71010D01*
G01X136390Y69500D02*
X137900D01*
G01D02*
X139410D01*
G01X134300Y56990D02*
Y59100D01*
G01D02*
Y61210D01*
G01X132190Y59100D02*
X134300D01*
G01D02*
X136410D01*
G01X144300Y56990D02*
Y59100D01*
G01D02*
Y61210D01*
G01X142190Y59100D02*
X144300D01*
G01D02*
X146410D01*
G01X130300Y183090D02*
Y184600D01*
G01D02*
Y186110D01*
G01X128790Y184600D02*
X130300D01*
G01D02*
X131810D01*
G01X140300Y183090D02*
Y184600D01*
G01D02*
Y186110D01*
G01X138790Y184600D02*
X140300D01*
G01D02*
X141810D01*
G01X130500Y192090D02*
Y193600D01*
G01D02*
Y195110D01*
G01X128990Y193600D02*
X130500D01*
G01D02*
X132010D01*
G01X140500Y192090D02*
Y193600D01*
G01D02*
Y195110D01*
G01X138990Y193600D02*
X140500D01*
G01D02*
X142010D01*
G01X130600Y225290D02*
Y226800D01*
G01D02*
Y228310D01*
G01X129090Y226800D02*
X130600D01*
G01D02*
X132110D01*
G01X131900Y242890D02*
Y244400D01*
G01D02*
Y245910D01*
G01X130390Y244400D02*
X131900D01*
G01D02*
X133410D01*
G01X154300Y46990D02*
Y49100D01*
G01D02*
Y51210D01*
G01X152190Y49100D02*
X154300D01*
G01D02*
X156410D01*
G01X162190D02*
X164300D01*
G01X154300Y36990D02*
Y39100D01*
G01D02*
Y41210D01*
G01X152190Y39100D02*
X154300D01*
G01D02*
X156410D01*
G01X162190D02*
X164300D01*
G01X147900Y67990D02*
Y69500D01*
G01D02*
Y71010D01*
G01X146390Y69500D02*
X147900D01*
G01D02*
X149410D01*
G01X154300Y56990D02*
Y59100D01*
G01D02*
Y61210D01*
G01X152190Y59100D02*
X154300D01*
G01D02*
X156410D01*
G01X162190D02*
X164300D01*
G01X158600Y68290D02*
Y69800D01*
G01D02*
Y71310D01*
G01X157090Y69800D02*
X158600D01*
G01D02*
X160110D01*
G01X150300Y183090D02*
Y184600D01*
G01D02*
Y186110D01*
G01X148790Y184600D02*
X150300D01*
G01D02*
X151810D01*
G01X150500Y192090D02*
Y193600D01*
G01D02*
Y195110D01*
G01X148990Y193600D02*
X150500D01*
G01D02*
X152010D01*
G01X152500Y224590D02*
Y226100D01*
G01D02*
Y227610D01*
G01X150990Y226100D02*
X152500D01*
G01D02*
X154010D01*
G01X149400Y242890D02*
Y244400D01*
G01D02*
Y245910D01*
G01X147890Y244400D02*
X149400D01*
G01D02*
X150910D01*
G01X176100Y34490D02*
Y36000D01*
G01D02*
Y37510D01*
G01X174590Y36000D02*
X176100D01*
G01D02*
X177610D01*
G01X164300Y46990D02*
Y49100D01*
G01D02*
Y51210D01*
G01Y49100D02*
X166410D01*
G01X164300Y36990D02*
Y39100D01*
G01D02*
Y41210D01*
G01Y39100D02*
X166410D01*
G01X182390Y69400D02*
X183900D01*
G01X166800Y68290D02*
Y69800D01*
G01X175600Y68090D02*
Y69600D01*
G01D02*
Y71110D01*
G01X174090Y69600D02*
X175600D01*
G01D02*
X177110D01*
G01X164300Y56990D02*
Y59100D01*
G01D02*
Y61210D01*
G01Y59100D02*
X166410D01*
G01X166800Y69800D02*
Y71310D01*
G01X165290Y69800D02*
X166800D01*
G01D02*
X168310D01*
G01X179400Y192390D02*
Y193900D01*
G01D02*
Y195410D01*
G01X177890Y193900D02*
X179400D01*
G01D02*
X180910D01*
G01X169600Y184000D02*
Y185510D01*
G01X168090Y184000D02*
X169600D01*
G01D02*
X171110D01*
G01X200700Y35990D02*
Y37500D01*
G01D02*
Y39010D01*
G01X199190Y37500D02*
X200700D01*
G01D02*
X202210D01*
G01X186600Y35190D02*
Y36700D01*
G01D02*
Y38210D01*
G01X185090Y36700D02*
X186600D01*
G01D02*
X188110D01*
G01X183900Y67890D02*
Y69400D01*
G01D02*
Y70910D01*
G01Y69400D02*
X185410D01*
G01X189500Y59090D02*
Y60600D01*
G01D02*
Y62110D01*
G01X187990Y60600D02*
X189500D01*
G01D02*
X191010D01*
G01X194200Y54490D02*
Y56000D01*
G01D02*
Y57510D01*
G01X192690Y56000D02*
X194200D01*
G01D02*
X195710D01*
G01X193500Y64990D02*
Y66500D01*
G01D02*
Y68010D01*
G01X191990Y66500D02*
X193500D01*
G01D02*
X195010D01*
G01X197100Y61890D02*
Y63400D01*
G01D02*
Y64910D01*
G01X195590Y63400D02*
X197100D01*
G01D02*
X198610D01*
G01X201000Y56590D02*
Y58100D01*
G01D02*
Y59610D01*
G01X199490Y58100D02*
X201000D01*
G01D02*
X202510D01*
G01X189300Y69890D02*
Y71400D01*
G01D02*
Y72910D01*
G01X187790Y71400D02*
X189300D01*
G01D02*
X190810D01*
G01X188500Y201090D02*
Y202600D01*
G01D02*
Y204110D01*
G01X186990Y202600D02*
X188500D01*
G01D02*
X190010D01*
G01X196900Y210090D02*
Y211600D01*
G01D02*
Y213110D01*
G01X195390Y211600D02*
X196900D01*
G01D02*
X198410D01*
G01X205400Y31290D02*
Y32800D01*
G01X217970Y23010D02*
X224000D01*
G01X218500Y30990D02*
Y32500D01*
G01X221500D02*
X218500D01*
G01X221500Y42500D02*
X218700D01*
G01X205300Y40290D02*
Y41800D01*
G01D02*
Y43310D01*
G01X203790Y41800D02*
X205300D01*
G01D02*
X206810D01*
G01X205300Y35190D02*
Y37500D01*
G01D02*
Y39810D01*
G01X203090Y37500D02*
X205300D01*
G01D02*
X207510D01*
G01X205400Y32800D02*
Y34310D01*
G01X203890Y32800D02*
X205400D01*
G01D02*
X206910D01*
G01X218700Y40990D02*
Y42500D01*
G01D02*
Y44010D01*
G01X217190Y42500D02*
X218700D01*
G01X218500Y32500D02*
Y34010D01*
G01X216990Y32500D02*
X218500D01*
G01X209100Y47790D02*
Y49300D01*
G01D02*
Y50810D01*
G01X207590Y49300D02*
X209100D01*
G01D02*
X210610D01*
G01X212800Y45090D02*
Y46600D01*
G01D02*
Y48110D01*
G01X211290Y46600D02*
X212800D01*
G01D02*
X214310D01*
G01X211300Y37500D02*
X221500D01*
G01X204500Y52090D02*
Y53600D01*
G01D02*
Y55110D01*
G01X202990Y53600D02*
X204500D01*
G01D02*
X206010D01*
G01X221500Y132500D02*
X218100D01*
G01X221500Y192500D02*
X218620D01*
G01X206900Y219890D02*
Y221400D01*
G01D02*
Y222910D01*
G01X205390Y221400D02*
X206900D01*
G01D02*
X208410D01*
G01X213800Y226690D02*
Y228200D01*
G01D02*
Y229710D01*
G01X212290Y228200D02*
X213800D01*
G01D02*
X215310D01*
G01X217970Y236990D02*
X224000D01*
G01Y19940D02*
Y23010D01*
G01D02*
Y26080D01*
G01Y23010D02*
X230030D01*
G01X221500Y30210D02*
Y32500D01*
G01X226500Y37500D02*
X230400D01*
G01Y35990D02*
Y37500D01*
G01D02*
Y39010D01*
G01Y37500D02*
X231910D01*
G01X226500Y35210D02*
Y37500D01*
G01D02*
Y39790D01*
G01X224210Y37500D02*
X226500D01*
G01X221500Y40210D02*
Y42500D01*
G01D02*
Y44790D01*
G01Y42500D02*
X223790D01*
G01X221500Y32500D02*
Y34790D01*
G01Y32500D02*
X223790D01*
G01X226500Y42500D02*
X229500D01*
G01X229380Y47500D02*
X226500D01*
G01Y32500D02*
X229380D01*
G01X226500Y67500D02*
X230000D01*
G01Y65990D02*
Y67500D01*
G01D02*
Y69010D01*
G01Y67500D02*
X231510D01*
G01X226500Y65210D02*
Y67500D01*
G01D02*
Y69790D01*
G01X224210Y67500D02*
X226500D01*
G01Y52500D02*
X229380D01*
G01X226500Y62500D02*
X229380D01*
G01X226500Y57500D02*
X229380D01*
G01X226500Y87500D02*
X229380D01*
G01X221500Y70210D02*
Y72500D01*
G01D02*
Y74790D01*
G01Y72500D02*
X223790D01*
G01X226500Y77500D02*
X229380D01*
G01X226500Y72500D02*
X229380D01*
G01X226500Y82500D02*
X229380D01*
G01X226500Y97500D02*
X229700D01*
G01Y95990D02*
Y97500D01*
G01D02*
Y99010D01*
G01Y97500D02*
X231210D01*
G01X226500Y95210D02*
Y97500D01*
G01D02*
Y99790D01*
G01X224210Y97500D02*
X226500D01*
G01X221500Y100210D02*
Y102500D01*
G01D02*
Y104790D01*
G01Y102500D02*
X223790D01*
G01X226500Y92500D02*
X229380D01*
G01X226500Y102500D02*
X229380D01*
G01X226500Y122500D02*
X229380D01*
G01X229800Y125990D02*
Y127500D01*
G01X226500Y125210D02*
Y127500D01*
G01Y112500D02*
X229380D01*
G01X226500Y107500D02*
X229380D01*
G01X226500Y117500D02*
X229380D01*
G01X226500Y127500D02*
X229800D01*
G01D02*
Y129010D01*
G01Y127500D02*
X231310D01*
G01X226500D02*
Y129790D01*
G01X224210Y127500D02*
X226500D01*
G01X221500Y130210D02*
Y132500D01*
G01D02*
Y134790D01*
G01Y132500D02*
X223790D01*
G01X226500D02*
X229380D01*
G01X226500Y137500D02*
X229380D01*
G01X226500Y142500D02*
X229380D01*
G01X226500Y157500D02*
X229400D01*
G01Y155990D02*
Y157500D01*
G01D02*
Y159010D01*
G01Y157500D02*
X230910D01*
G01X226500Y155210D02*
Y157500D01*
G01D02*
Y159790D01*
G01X224210Y157500D02*
X226500D01*
G01X221500Y160210D02*
Y162500D01*
G01D02*
Y164790D01*
G01Y162500D02*
X223790D01*
G01X226500Y147500D02*
X229380D01*
G01X226500Y162500D02*
X229380D01*
G01X226500Y152500D02*
X229380D01*
G01X226500Y177500D02*
X229380D01*
G01X226500Y167500D02*
X229380D01*
G01X226500Y182500D02*
X229380D01*
G01X226500Y172500D02*
X229380D01*
G01X226500Y192500D02*
X229380D01*
G01X226500Y187500D02*
X229400D01*
G01Y185990D02*
Y187500D01*
G01D02*
Y189010D01*
G01Y187500D02*
X230910D01*
G01X226500Y185210D02*
Y187500D01*
G01D02*
Y189790D01*
G01X224210Y187500D02*
X226500D01*
G01X221500Y190210D02*
Y192500D01*
G01D02*
Y194790D01*
G01Y192500D02*
X223790D01*
G01X226500Y197500D02*
X229380D01*
G01X226500Y217500D02*
X229700D01*
G01Y215990D02*
Y217500D01*
G01D02*
Y219010D01*
G01Y217500D02*
X231210D01*
G01X226500Y215210D02*
Y217500D01*
G01D02*
Y219790D01*
G01X224210Y217500D02*
X226500D01*
G01Y212500D02*
X229380D01*
G01X226500Y207500D02*
X229380D01*
G01X226500Y202500D02*
X229380D01*
G01X226500Y222500D02*
X229380D01*
G01X224000Y233920D02*
Y236990D01*
G01D02*
Y240060D01*
G01Y236990D02*
X230030D01*
G01X226500Y227500D02*
X229380D01*
G01X243500Y30990D02*
Y32500D01*
G01X245260Y19940D02*
Y23010D01*
G01D02*
Y26080D01*
G01X239230Y23010D02*
X245260D01*
G01X244600Y40490D02*
Y42000D01*
G01D02*
Y43510D01*
G01X243090Y42000D02*
X244600D01*
G01D02*
X246110D01*
G01X244600Y46490D02*
Y48000D01*
G01D02*
Y49510D01*
G01X243090Y48000D02*
X244600D01*
G01D02*
X246110D01*
G01X243500Y32500D02*
Y34010D01*
G01X241990Y32500D02*
X243500D01*
G01D02*
X245010D01*
G01X244600Y52490D02*
Y54000D01*
G01D02*
Y55510D01*
G01X243090Y54000D02*
X244600D01*
G01D02*
X246110D01*
G01X244600Y58490D02*
Y60000D01*
G01D02*
Y61510D01*
G01X243090Y60000D02*
X244600D01*
G01D02*
X246110D01*
G01X244600Y64490D02*
Y66000D01*
G01D02*
Y67510D01*
G01X243090Y66000D02*
X244600D01*
G01D02*
X246110D01*
G01X244600Y88490D02*
Y90000D01*
G01Y70490D02*
Y72000D01*
G01D02*
Y73510D01*
G01X243090Y72000D02*
X244600D01*
G01D02*
X246110D01*
G01X244600Y76490D02*
Y78000D01*
G01D02*
Y79510D01*
G01X243090Y78000D02*
X244600D01*
G01D02*
X246110D01*
G01X244600Y82490D02*
Y84000D01*
G01D02*
Y85510D01*
G01X243090Y84000D02*
X244600D01*
G01D02*
X246110D01*
G01X244600Y90000D02*
Y91510D01*
G01X243090Y90000D02*
X244600D01*
G01D02*
X246110D01*
G01X244600Y94490D02*
Y96000D01*
G01D02*
Y97510D01*
G01X243090Y96000D02*
X244600D01*
G01D02*
X246110D01*
G01X244600Y100490D02*
Y102000D01*
G01D02*
Y103510D01*
G01X243090Y102000D02*
X244600D01*
G01D02*
X246110D01*
G01X244600Y106490D02*
Y108000D01*
G01Y112490D02*
Y114000D01*
G01D02*
Y115510D01*
G01X243090Y114000D02*
X244600D01*
G01D02*
X246110D01*
G01X244600Y118490D02*
Y120000D01*
G01D02*
Y121510D01*
G01X243090Y120000D02*
X244600D01*
G01D02*
X246110D01*
G01X244600Y124490D02*
Y126000D01*
G01D02*
Y127510D01*
G01X243090Y126000D02*
X244600D01*
G01D02*
X246110D01*
G01X244600Y108000D02*
Y109510D01*
G01X243090Y108000D02*
X244600D01*
G01D02*
X246110D01*
G01X244600Y130490D02*
Y132000D01*
G01D02*
Y133510D01*
G01X243090Y132000D02*
X244600D01*
G01D02*
X246110D01*
G01X244600Y136490D02*
Y138000D01*
G01D02*
Y139510D01*
G01X243090Y138000D02*
X244600D01*
G01D02*
X246110D01*
G01X244600Y142490D02*
Y144000D01*
G01D02*
Y145510D01*
G01X243090Y144000D02*
X244600D01*
G01D02*
X246110D01*
G01X244600Y148490D02*
Y150000D01*
G01D02*
Y151510D01*
G01X243090Y150000D02*
X244600D01*
G01D02*
X246110D01*
G01X244600Y154490D02*
Y156000D01*
G01D02*
Y157510D01*
G01X243090Y156000D02*
X244600D01*
G01D02*
X246110D01*
G01X244600Y160490D02*
Y162000D01*
G01D02*
Y163510D01*
G01X243090Y162000D02*
X244600D01*
G01D02*
X246110D01*
G01X244600Y166490D02*
Y168000D01*
G01D02*
Y169510D01*
G01X243090Y168000D02*
X244600D01*
G01D02*
X246110D01*
G01X244600Y172490D02*
Y174000D01*
G01D02*
Y175510D01*
G01X243090Y174000D02*
X244600D01*
G01D02*
X246110D01*
G01X244600Y178490D02*
Y180000D01*
G01D02*
Y181510D01*
G01X243090Y180000D02*
X244600D01*
G01D02*
X246110D01*
G01X244600Y184490D02*
Y186000D01*
G01D02*
Y187510D01*
G01X243090Y186000D02*
X244600D01*
G01D02*
X246110D01*
G01X244600Y190490D02*
Y192000D01*
G01D02*
Y193510D01*
G01X243090Y192000D02*
X244600D01*
G01D02*
X246110D01*
G01X244600Y196490D02*
Y198000D01*
G01D02*
Y199510D01*
G01X243090Y198000D02*
X244600D01*
G01D02*
X246110D01*
G01X244600Y202490D02*
Y204000D01*
G01D02*
Y205510D01*
G01X243090Y204000D02*
X244600D01*
G01D02*
X246110D01*
G01X244600Y208490D02*
Y210000D01*
G01D02*
Y211510D01*
G01X243090Y210000D02*
X244600D01*
G01D02*
X246110D01*
G01X244600Y214490D02*
Y216000D01*
G01D02*
Y217510D01*
G01X243090Y216000D02*
X244600D01*
G01D02*
X246110D01*
G01X244600Y220490D02*
Y222000D01*
G01D02*
Y223510D01*
G01X243090Y222000D02*
X244600D01*
G01D02*
X246110D01*
G01X244600Y226490D02*
Y228000D01*
G01D02*
Y229510D01*
G01X243090Y228000D02*
X244600D01*
G01D02*
X246110D01*
G01X245260Y233920D02*
Y236990D01*
G01D02*
Y240060D01*
G01X239230Y236990D02*
X245260D01*
G01X2500Y0D02*
X248700D01*
G03X251200Y2500I0J2500D01*
G01Y257500D01*
G03X248700Y260000I-2500J0D01*
G01X2500D01*
G03X0Y257500I0J-2500D01*
G01Y2500D01*
G03X2500Y0I2500J0D01*
M02*
