G04 ================== begin FILE IDENTIFICATION RECORD ==================*
G04 Layout Name:  AGET_ERNI2HRS_HardBoard.brd*
G04 Film Name:    pastetop*
G04 File Format:  Gerber RS274X*
G04 File Origin:  Cadence Allegro 16.6-S025*
G04 Origin Date:  Thu Sep 14 22:18:52 2017*
G04 *
G04 Layer:  PIN/PASTEMASK_TOP*
G04 Layer:  PACKAGE GEOMETRY/DISPLAY_TOP*
G04 Layer:  BOARD GEOMETRY/OUTLINE*
G04 *
G04 Offset:    (0.0 0.0)*
G04 Mirror:    No*
G04 Mode:      Positive*
G04 Rotation:  0*
G04 FullContactRelief:  No*
G04 UndefLineWidth:     6.0*
G04 ================== end FILE IDENTIFICATION RECORD ====================*
%FSLAX25Y25*MOIN*%
%IR0*IPPOS*OFA0.00000B0.00000*MIA0B0*SFA1.00000B1.00000*%
%ADD10C,.176*%
%ADD13R,.1063X.0472*%
%ADD11R,.03X.032*%
%ADD14C,.0709*%
%ADD12R,.0315X.0315*%
%ADD15C,.006*%
G75*
%LPD*%
G75*
G54D10*
X20000Y20000D03*
Y240000D03*
X180000Y20000D03*
Y240000D03*
G54D11*
X13300Y83700D03*
Y89600D03*
Y96700D03*
Y102600D03*
Y108500D03*
Y114400D03*
Y120300D03*
Y126300D03*
Y138100D03*
Y144300D03*
Y132200D03*
Y150200D03*
Y156100D03*
Y162000D03*
Y168400D03*
Y174300D03*
X19300Y83700D03*
Y89600D03*
Y96700D03*
Y102600D03*
Y108500D03*
Y114400D03*
Y120300D03*
Y126300D03*
Y138100D03*
Y144300D03*
Y132200D03*
Y150200D03*
Y156100D03*
Y162000D03*
Y168400D03*
Y174300D03*
X211300Y37500D03*
X205300D03*
G54D12*
X221500Y32500D03*
Y47500D03*
Y42500D03*
Y37500D03*
Y67500D03*
Y62500D03*
Y57500D03*
Y52500D03*
Y87500D03*
Y82500D03*
Y77500D03*
Y72500D03*
Y107500D03*
Y102500D03*
Y97500D03*
Y92500D03*
Y127500D03*
Y122500D03*
Y117500D03*
Y112500D03*
Y142500D03*
Y137500D03*
Y132500D03*
Y162500D03*
Y157500D03*
Y152500D03*
Y147500D03*
Y182500D03*
Y177500D03*
Y172500D03*
Y167500D03*
Y202500D03*
Y197500D03*
Y192500D03*
Y187500D03*
Y217500D03*
Y212500D03*
Y207500D03*
Y227500D03*
Y222500D03*
X226500Y32500D03*
Y47500D03*
Y42500D03*
Y37500D03*
Y67500D03*
Y62500D03*
Y57500D03*
Y52500D03*
Y87500D03*
Y82500D03*
Y77500D03*
Y72500D03*
Y107500D03*
Y102500D03*
Y97500D03*
Y92500D03*
Y127500D03*
Y122500D03*
Y117500D03*
Y112500D03*
Y142500D03*
Y137500D03*
Y132500D03*
Y162500D03*
Y157500D03*
Y152500D03*
Y147500D03*
Y182500D03*
Y177500D03*
Y172500D03*
Y167500D03*
Y202500D03*
Y197500D03*
Y192500D03*
Y187500D03*
Y217500D03*
Y212500D03*
Y207500D03*
Y227500D03*
Y222500D03*
G54D13*
X224000Y23010D03*
Y236990D03*
X245260Y23010D03*
Y236990D03*
G54D14*
X234370Y23800D03*
Y236200D03*
G54D15*
G01X2500Y0D02*
X248700D01*
G03X251200Y2500I0J2500D01*
G01Y257500D01*
G03X248700Y260000I-2500J0D01*
G01X2500D01*
G03X0Y257500I0J-2500D01*
G01Y2500D01*
G03X2500Y0I2500J0D01*
M02*
