G04 ================== begin FILE IDENTIFICATION RECORD ==================*
G04 Layout Name:  AGET_ERNI2HRS_HardBoard.brd*
G04 Film Name:    pastebottom*
G04 File Format:  Gerber RS274X*
G04 File Origin:  Cadence Allegro 16.6-S025*
G04 Origin Date:  Thu Sep 14 22:18:52 2017*
G04 *
G04 Layer:  PIN/PASTEMASK_BOTTOM*
G04 Layer:  PACKAGE GEOMETRY/DISPLAY_BOTTOM*
G04 Layer:  BOARD GEOMETRY/OUTLINE*
G04 *
G04 Offset:    (0.0 0.0)*
G04 Mirror:    Yes*
G04 Mode:      Positive*
G04 Rotation:  0*
G04 FullContactRelief:  No*
G04 UndefLineWidth:     6.0*
G04 ================== end FILE IDENTIFICATION RECORD ====================*
%FSLAX25Y25*MOIN*%
%IR0*IPPOS*OFA0.00000B0.00000*MIA1B0*SFA1.00000B1.00000*%
%ADD14R,.122X.063*%
%ADD10C,.176*%
%ADD11R,.03X.032*%
%ADD12R,.0433X.0118*%
%ADD15C,.0709*%
%ADD13R,.0591X.0276*%
%ADD16C,.006*%
G75*
%LPD*%
G75*
G54D10*
X20000Y20000D03*
Y240000D03*
X180000Y20000D03*
Y240000D03*
G54D11*
X13300Y85800D03*
Y92200D03*
Y98700D03*
Y104600D03*
Y110500D03*
Y116400D03*
Y122400D03*
Y133800D03*
Y139700D03*
Y145900D03*
Y127900D03*
Y151800D03*
Y157700D03*
Y163600D03*
Y169500D03*
Y175400D03*
X19300Y85800D03*
Y92200D03*
Y98700D03*
Y104600D03*
Y110500D03*
Y116400D03*
Y122400D03*
Y133800D03*
Y139700D03*
Y145900D03*
Y127900D03*
Y151800D03*
Y157700D03*
Y163600D03*
Y169500D03*
Y175400D03*
X239300Y32500D03*
X233300D03*
X234900Y48000D03*
Y42000D03*
Y60000D03*
Y54000D03*
Y66000D03*
Y72000D03*
Y78000D03*
Y84000D03*
Y90000D03*
Y96000D03*
Y102000D03*
Y108000D03*
Y114000D03*
Y120000D03*
Y126000D03*
Y144000D03*
Y138000D03*
Y132000D03*
Y150000D03*
Y156000D03*
Y162000D03*
Y168000D03*
Y174000D03*
Y180000D03*
Y186000D03*
Y192000D03*
Y198000D03*
Y204000D03*
Y210000D03*
Y216000D03*
Y222000D03*
Y228000D03*
X240900Y48000D03*
Y42000D03*
Y60000D03*
Y54000D03*
Y66000D03*
Y72000D03*
Y78000D03*
Y84000D03*
Y90000D03*
Y96000D03*
Y102000D03*
Y108000D03*
Y114000D03*
Y120000D03*
Y126000D03*
Y144000D03*
Y138000D03*
Y132000D03*
Y150000D03*
Y156000D03*
Y162000D03*
Y168000D03*
Y174000D03*
Y180000D03*
Y186000D03*
Y192000D03*
Y198000D03*
Y204000D03*
Y210000D03*
Y216000D03*
Y222000D03*
Y228000D03*
G54D12*
X29770Y87680D03*
Y85710D03*
Y83740D03*
Y107360D03*
Y105390D03*
Y103420D03*
Y101450D03*
Y99490D03*
Y97520D03*
Y91610D03*
Y89640D03*
Y125080D03*
Y123110D03*
Y121140D03*
Y115230D03*
Y113270D03*
Y111300D03*
Y109330D03*
Y144760D03*
Y138860D03*
Y136890D03*
Y134920D03*
Y132950D03*
Y130980D03*
Y129010D03*
Y127050D03*
Y162480D03*
Y160510D03*
Y158540D03*
Y156570D03*
Y154600D03*
Y152640D03*
Y150670D03*
Y148700D03*
Y146730D03*
Y176260D03*
Y174290D03*
Y172320D03*
Y170350D03*
Y168380D03*
X50240Y87680D03*
Y85710D03*
Y83740D03*
Y107360D03*
Y105390D03*
Y103420D03*
Y101450D03*
Y99490D03*
Y97520D03*
Y91610D03*
Y89640D03*
Y125080D03*
Y123110D03*
Y121140D03*
Y115230D03*
Y113270D03*
Y111300D03*
Y109330D03*
Y144760D03*
Y138860D03*
Y136890D03*
Y134920D03*
Y132950D03*
Y130980D03*
Y129010D03*
Y127050D03*
Y162480D03*
Y160510D03*
Y158540D03*
Y156570D03*
Y154600D03*
Y152640D03*
Y150670D03*
Y148700D03*
Y146730D03*
Y176260D03*
Y174290D03*
Y172320D03*
Y170350D03*
Y168380D03*
G54D13*
X30550Y94560D03*
Y118190D03*
Y141810D03*
Y165430D03*
X49450Y94560D03*
Y118190D03*
Y141810D03*
Y165430D03*
G54D14*
X40000Y71140D03*
Y188860D03*
G54D15*
X234370Y23800D03*
Y236200D03*
G54D16*
G01X2500Y0D02*
X248700D01*
G03X251200Y2500I0J2500D01*
G01Y257500D01*
G03X248700Y260000I-2500J0D01*
G01X2500D01*
G03X0Y257500I0J-2500D01*
G01Y2500D01*
G03X2500Y0I2500J0D01*
M02*
