G04 ================== begin FILE IDENTIFICATION RECORD ==================*
G04 Layout Name:  AGET_ERNI2HRS_HardBoard.brd*
G04 Film Name:    plane02*
G04 File Format:  Gerber RS274X*
G04 File Origin:  Cadence Allegro 16.6-S025*
G04 Origin Date:  Thu Sep 14 22:18:52 2017*
G04 *
G04 Layer:  VIA CLASS/GND1*
G04 Layer:  PIN/GND1*
G04 Layer:  ETCH/GND1*
G04 Layer:  BOARD GEOMETRY/OUTLINE*
G04 *
G04 Offset:    (0.0 0.0)*
G04 Mirror:    No*
G04 Mode:      Negative*
G04 Rotation:  0*
G04 FullContactRelief:  No*
G04 UndefLineWidth:     6.0*
G04 ================== end FILE IDENTIFICATION RECORD ====================*
%FSLAX25Y25*MOIN*%
%IR0*IPPOS*OFA0.00000B0.00000*MIA0B0*SFA1.00000B1.00000*%
%AMMACRO10*
4,1,18,.0597,.042,
.066086,.030995,
.070464,.019048,
.072702,.006523,
.07273,-.006201,
.070548,-.018736,
.066223,-.030702,
.059886,-.041735,
.0597,-.042,
.0704,-.0528,
.078499,-.039773,
.084213,-.025538,
.087368,-.010526,
.087869,.004805,
.085699,.01999,
.080926,.034568,
.073694,.048096,
.0704,.0528,
.0597,.042,
0.0*
4,1,18,.042,-.0597,
.030995,-.066086,
.019048,-.070464,
.006523,-.072702,
-.006201,-.07273,
-.018736,-.070548,
-.030702,-.066223,
-.041735,-.059886,
-.042,-.0597,
-.0528,-.0704,
-.039773,-.078499,
-.025538,-.084213,
-.010526,-.087368,
.004805,-.087869,
.01999,-.085699,
.034568,-.080926,
.048096,-.073694,
.0528,-.0704,
.042,-.0597,
0.0*
4,1,18,-.0597,-.042,
-.066086,-.030995,
-.070464,-.019048,
-.072702,-.006523,
-.07273,.006201,
-.070548,.018736,
-.066223,.030702,
-.059886,.041735,
-.0597,.042,
-.0704,.0528,
-.078499,.039773,
-.084213,.025538,
-.087368,.010526,
-.087869,-.004805,
-.085699,-.01999,
-.080926,-.034568,
-.073694,-.048096,
-.0704,-.0528,
-.0597,-.042,
0.0*
4,1,18,-.042,.0597,
-.030995,.066086,
-.019048,.070464,
-.006523,.072702,
.006201,.07273,
.018736,.070548,
.030702,.066223,
.041735,.059886,
.042,.0597,
.0528,.0704,
.039773,.078499,
.025538,.084213,
.010526,.087368,
-.004805,.087869,
-.01999,.085699,
-.034568,.080926,
-.048096,.073694,
-.0528,.0704,
-.042,.0597,
0.0*
%
%ADD10MACRO10*%
%AMMACRO15*
4,1,18,-.017,.024,
-.012574,.026587,
-.007766,.028367,
-.002722,.029285,
.002404,.029312,
.007458,.02845,
.012285,.026722,
.016738,.024183,
.017,.024,
.025,.032,
.019063,.035855,
.012548,.038621,
.005651,.040213,
-.001418,.040583,
-.008444,.03972,
-.015213,.037651,
-.02152,.034437,
-.025,.032,
-.017,.024,
180.*
4,1,18,-.024,-.017,
-.026587,-.012574,
-.028367,-.007766,
-.029285,-.002722,
-.029312,.002404,
-.02845,.007458,
-.026722,.012285,
-.024183,.016738,
-.024,.017,
-.032,.025,
-.035855,.019063,
-.038621,.012548,
-.040213,.005651,
-.040583,-.001418,
-.03972,-.008444,
-.037651,-.015213,
-.034437,-.02152,
-.032,-.025,
-.024,-.017,
180.*
4,1,18,.017,-.024,
.012574,-.026587,
.007766,-.028367,
.002722,-.029285,
-.002404,-.029312,
-.007458,-.02845,
-.012285,-.026722,
-.016738,-.024183,
-.017,-.024,
-.025,-.032,
-.019063,-.035855,
-.012548,-.038621,
-.005651,-.040213,
.001418,-.040583,
.008444,-.03972,
.015213,-.037651,
.02152,-.034437,
.025,-.032,
.017,-.024,
180.*
4,1,18,.024,.017,
.026587,.012574,
.028367,.007766,
.029285,.002722,
.029312,-.002404,
.02845,-.007458,
.026722,-.012285,
.024183,-.016738,
.024,-.017,
.032,-.025,
.035855,-.019063,
.038621,-.012548,
.040213,-.005651,
.040583,.001418,
.03972,.008444,
.037651,.015213,
.034437,.02152,
.032,.025,
.024,.017,
180.*
%
%ADD15MACRO15*%
%AMMACRO12*
4,1,13,-.004,.009,
-.002366,.009557,
-.00066,.009822,
.001066,.009786,
.002759,.009452,
.004,.009,
.006,.012,
.003853,.012862,
.001589,.013338,
-.000724,.013414,
-.003014,.013087,
-.005213,.012367,
-.006,.012,
-.004,.009,
0.0*
4,1,13,-.009,-.004,
-.009557,-.002366,
-.009822,-.00066,
-.009786,.001066,
-.009452,.002759,
-.009,.004,
-.012,.006,
-.012862,.003853,
-.013338,.001589,
-.013414,-.000724,
-.013087,-.003014,
-.012367,-.005213,
-.012,-.006,
-.009,-.004,
0.0*
4,1,13,.004,-.009,
.002366,-.009557,
.00066,-.009822,
-.001066,-.009786,
-.002759,-.009452,
-.004,-.009,
-.006,-.012,
-.003853,-.012862,
-.001589,-.013338,
.000724,-.013414,
.003014,-.013087,
.005213,-.012367,
.006,-.012,
.004,-.009,
0.0*
4,1,13,.009,.004,
.009557,.002366,
.009822,.00066,
.009786,-.001066,
.009452,-.002759,
.009,-.004,
.012,-.006,
.012862,-.003853,
.013338,-.001589,
.013414,.000724,
.013087,.003014,
.012367,.005213,
.012,.006,
.009,.004,
0.0*
%
%ADD12MACRO12*%
%AMMACRO16*
4,1,15,.0282,.0141,
.03022,.008989,
.031322,.003605,
.031472,-.001889,
.030666,-.007325,
.028928,-.012539,
.0282,-.0141,
.0345,-.0203,
.037501,-.014001,
.039362,-.007276,
.040028,-.00033,
.039477,.006625,
.037727,.01338,
.03483,.019728,
.0345,.0203,
.0282,.0141,
0.0*
4,1,15,.0141,-.0282,
.008989,-.03022,
.003605,-.031322,
-.001889,-.031472,
-.007325,-.030666,
-.012539,-.028928,
-.0141,-.0282,
-.0203,-.0345,
-.014001,-.037501,
-.007276,-.039362,
-.00033,-.040028,
.006625,-.039477,
.01338,-.037727,
.019728,-.03483,
.0203,-.0345,
.0141,-.0282,
0.0*
4,1,15,-.0282,-.0141,
-.03022,-.008989,
-.031322,-.003605,
-.031472,.001889,
-.030666,.007325,
-.028928,.012539,
-.0282,.0141,
-.0345,.0203,
-.037501,.014001,
-.039362,.007276,
-.040028,.00033,
-.039477,-.006625,
-.037727,-.01338,
-.03483,-.019728,
-.0345,-.0203,
-.0282,-.0141,
0.0*
4,1,15,-.0141,.0282,
-.008989,.03022,
-.003605,.031322,
.001889,.031472,
.007325,.030666,
.012539,.028928,
.0141,.0282,
.0203,.0345,
.014001,.037501,
.007276,.039362,
.00033,.040028,
-.006625,.039477,
-.01338,.037727,
-.019728,.03483,
-.0203,.0345,
-.0141,.0282,
0.0*
%
%ADD16MACRO16*%
%ADD13C,.025*%
%AMMACRO14*
4,1,18,-.017,.024,
-.012574,.026587,
-.007766,.028367,
-.002722,.029285,
.002404,.029312,
.007458,.02845,
.012285,.026722,
.016738,.024183,
.017,.024,
.025,.032,
.019063,.035855,
.012548,.038621,
.005651,.040213,
-.001418,.040583,
-.008444,.03972,
-.015213,.037651,
-.02152,.034437,
-.025,.032,
-.017,.024,
0.0*
4,1,18,-.024,-.017,
-.026587,-.012574,
-.028367,-.007766,
-.029285,-.002722,
-.029312,.002404,
-.02845,.007458,
-.026722,.012285,
-.024183,.016738,
-.024,.017,
-.032,.025,
-.035855,.019063,
-.038621,.012548,
-.040213,.005651,
-.040583,-.001418,
-.03972,-.008444,
-.037651,-.015213,
-.034437,-.02152,
-.032,-.025,
-.024,-.017,
0.0*
4,1,18,.017,-.024,
.012574,-.026587,
.007766,-.028367,
.002722,-.029285,
-.002404,-.029312,
-.007458,-.02845,
-.012285,-.026722,
-.016738,-.024183,
-.017,-.024,
-.025,-.032,
-.019063,-.035855,
-.012548,-.038621,
-.005651,-.040213,
.001418,-.040583,
.008444,-.03972,
.015213,-.037651,
.02152,-.034437,
.025,-.032,
.017,-.024,
0.0*
4,1,18,.024,.017,
.026587,.012574,
.028367,.007766,
.029285,.002722,
.029312,-.002404,
.02845,-.007458,
.026722,-.012285,
.024183,-.016738,
.024,-.017,
.032,-.025,
.035855,-.019063,
.038621,-.012548,
.040213,-.005651,
.040583,.001418,
.03972,.008444,
.037651,.015213,
.034437,.02152,
.032,.025,
.024,.017,
0.0*
%
%ADD14MACRO14*%
%AMMACRO11*
4,1,13,-.0057,.0128,
-.003391,.013595,
-.000978,.013978,
.001464,.013935,
.003861,.013469,
.0057,.0128,
.0087,.0158,
.005824,.017071,
.002771,.017823,
-.000366,.018033,
-.003491,.017696,
-.006511,.016821,
-.0087,.0158,
-.0057,.0128,
0.0*
4,1,13,-.0128,-.0057,
-.013595,-.003391,
-.013978,-.000978,
-.013935,.001464,
-.013469,.003861,
-.0128,.0057,
-.0158,.0087,
-.017071,.005824,
-.017823,.002771,
-.018033,-.000366,
-.017696,-.003491,
-.016821,-.006511,
-.0158,-.0087,
-.0128,-.0057,
0.0*
4,1,13,.0057,-.0128,
.003391,-.013595,
.000978,-.013978,
-.001464,-.013935,
-.003861,-.013469,
-.0057,-.0128,
-.0087,-.0158,
-.005824,-.017071,
-.002771,-.017823,
.000366,-.018033,
.003491,-.017696,
.006511,-.016821,
.0087,-.0158,
.0057,-.0128,
0.0*
4,1,13,.0128,.0057,
.013595,.003391,
.013978,.000978,
.013935,-.001464,
.013469,-.003861,
.0128,-.0057,
.0158,-.0087,
.017071,-.005824,
.017823,-.002771,
.018033,.000366,
.017696,.003491,
.016821,.006511,
.0158,.0087,
.0128,.0057,
0.0*
%
%ADD11MACRO11*%
%ADD17C,.006*%
G75*
%LPD*%
G75*
G36*
G01X-10000Y-10000D02*
X261200D01*
Y270000D01*
X-10000D01*
Y-10000D01*
G37*
%LPC*%
G75*
G36*
G01X4000Y4000D02*
Y256000D01*
X247200D01*
Y4000D01*
X4000D01*
G37*
%LPD*%
G75*
G54D10*
X20000Y20000D03*
Y240000D03*
X180000Y20000D03*
Y240000D03*
G54D15*
X54400Y30900D03*
X72200Y29600D03*
X150900Y32100D03*
X180400Y54300D03*
G54D12*
X8300Y80800D03*
Y85800D03*
Y90800D03*
Y95800D03*
Y100800D03*
Y105800D03*
Y110800D03*
Y115800D03*
Y120800D03*
Y125800D03*
Y130800D03*
Y135800D03*
Y140800D03*
Y145800D03*
Y150800D03*
Y155800D03*
Y160800D03*
Y165800D03*
Y170800D03*
Y175800D03*
X30500Y181300D03*
X31500Y187100D03*
X31600Y191400D03*
X42700Y87800D03*
X36900D03*
X43300Y145000D03*
X36100D03*
X42200Y166100D03*
X36100Y166000D03*
X43000Y176200D03*
X37300D03*
X43100Y194100D03*
X35600Y194000D03*
X48100Y191000D03*
X47900Y186900D03*
X42400Y183900D03*
X36000D03*
X67900Y69500D03*
X57900D03*
X67700Y77500D03*
X57700D03*
X70500Y193600D03*
X60500D03*
X70300Y184600D03*
X60300D03*
X85700Y11200D03*
X87900Y69500D03*
X77900D03*
X87700Y77500D03*
X77700D03*
X80500Y193600D03*
X80300Y184600D03*
X81900Y205400D03*
X81200Y218900D03*
X102200Y11700D03*
X92800Y22100D03*
X107900Y69500D03*
X97900D03*
X107700Y77500D03*
X97700D03*
X100500Y193600D03*
X90500D03*
X100300Y184600D03*
X90300D03*
X105800Y206500D03*
X93100Y205700D03*
X107100Y218400D03*
X92100Y219200D03*
X125900Y9700D03*
X117000Y20400D03*
X117900Y69500D03*
X117700Y77500D03*
X120500Y193600D03*
X110500D03*
X120300Y184600D03*
X110300D03*
X116300Y207500D03*
X119600Y218400D03*
X136100Y20400D03*
X137900Y69500D03*
X127900D03*
X137700Y77500D03*
X127700D03*
X140500Y193600D03*
X130500D03*
X140300Y184600D03*
X130300D03*
X130600Y226800D03*
X131900Y244400D03*
X158600Y69800D03*
X147900Y69500D03*
X147700Y77500D03*
X150500Y193600D03*
X150300Y184600D03*
X152500Y226100D03*
X149400Y244400D03*
X176100Y36000D03*
X175600Y69600D03*
X166800Y69800D03*
X179400Y193900D03*
X169600Y184000D03*
X186600Y36700D03*
X200700Y37500D03*
X194200Y56000D03*
X189500Y60600D03*
X183900Y69400D03*
X201000Y58100D03*
X197100Y63400D03*
X193500Y66500D03*
X189300Y71400D03*
X187100Y76800D03*
X196900Y211600D03*
X188500Y202600D03*
X205400Y32800D03*
X218500Y32500D03*
X212800Y46600D03*
X209100Y49300D03*
X205300Y41800D03*
X218700Y42500D03*
X204500Y53600D03*
X207900Y87600D03*
X213400Y81600D03*
X217850Y76750D03*
X203000Y92300D03*
X218500Y106000D03*
X218100Y132500D03*
X218620Y192500D03*
X213800Y228200D03*
X206900Y221400D03*
X230400Y37500D03*
X230000Y67500D03*
X229700Y97500D03*
X229800Y127500D03*
X229400Y157500D03*
Y187500D03*
X229700Y217500D03*
X243500Y32500D03*
X244600Y48000D03*
Y42000D03*
Y66000D03*
Y60000D03*
Y54000D03*
Y84000D03*
Y78000D03*
Y72000D03*
Y108000D03*
Y102000D03*
Y96000D03*
Y90000D03*
Y126000D03*
Y120000D03*
Y114000D03*
Y144000D03*
Y138000D03*
Y132000D03*
Y162000D03*
Y156000D03*
Y150000D03*
Y180000D03*
Y174000D03*
Y168000D03*
Y198000D03*
Y192000D03*
Y186000D03*
Y216000D03*
Y210000D03*
Y204000D03*
Y228000D03*
Y222000D03*
G54D16*
X234370Y23800D03*
Y236200D03*
G54D13*
X26300Y83740D03*
Y97520D03*
Y89640D03*
Y103420D03*
Y107360D03*
Y113270D03*
Y127100D03*
Y121140D03*
Y130980D03*
Y136890D03*
Y144760D03*
Y160510D03*
Y150670D03*
Y154600D03*
Y174290D03*
Y168380D03*
X33300Y85710D03*
Y105390D03*
Y99490D03*
Y91610D03*
Y109330D03*
Y115230D03*
Y123110D03*
Y138860D03*
Y132950D03*
Y129010D03*
Y162480D03*
Y146730D03*
Y156570D03*
Y152640D03*
Y170350D03*
Y176260D03*
X229380Y32500D03*
X229500Y42500D03*
X229380Y47500D03*
Y52500D03*
Y62500D03*
Y57500D03*
Y87500D03*
Y77500D03*
Y72500D03*
Y82500D03*
Y92500D03*
Y102500D03*
Y107500D03*
Y122500D03*
Y112500D03*
Y117500D03*
Y132500D03*
Y137500D03*
Y142500D03*
Y147500D03*
Y162500D03*
Y152500D03*
Y177500D03*
Y167500D03*
Y182500D03*
Y172500D03*
Y192500D03*
Y197500D03*
Y212500D03*
Y207500D03*
Y202500D03*
Y222500D03*
Y227500D03*
G54D14*
X20000Y217500D03*
X60000D03*
X140000Y212400D03*
X161100Y214700D03*
G54D11*
X12900Y39500D03*
Y49500D03*
X12400Y69000D03*
X12900Y59500D03*
X10600Y75800D03*
X32900Y39500D03*
X22900D03*
X32900Y49500D03*
X22900D03*
X20000Y71800D03*
X28000Y71400D03*
X32900Y59500D03*
X22900D03*
X52900Y39500D03*
X42900D03*
X52900Y49500D03*
X42900D03*
X50000Y71400D03*
X52900Y59500D03*
X42900D03*
X39900Y79200D03*
X40000Y205000D03*
X48200Y230300D03*
X38200D03*
X48200Y240300D03*
X38200D03*
X48200Y250300D03*
X38200D03*
X64600Y50100D03*
X64100Y59600D03*
X68200Y230300D03*
X58200D03*
X68200Y240300D03*
X58200D03*
X68200Y250300D03*
X58200D03*
X84300Y39100D03*
X74300D03*
X84300Y49100D03*
X74300D03*
X84300Y59100D03*
X74300D03*
X88200Y230300D03*
X78200D03*
X88200Y240300D03*
X78200D03*
X88200Y250300D03*
X78200D03*
X104300Y39100D03*
X94300D03*
X104300Y49100D03*
X94300D03*
X104300Y59100D03*
X94300D03*
X108200Y230300D03*
X98200D03*
X108200Y240300D03*
X98200D03*
X108200Y250300D03*
X98200D03*
X124300Y39100D03*
X114300D03*
X124300Y49100D03*
X114300D03*
X124300Y59100D03*
X114300D03*
X144300Y39100D03*
X134300D03*
X144300Y49100D03*
X134300D03*
X144300Y59100D03*
X134300D03*
X164300Y39100D03*
X154300D03*
X164300Y49100D03*
X154300D03*
X164300Y59100D03*
X154300D03*
%LPC*%
G75*
G54D17*
G01X2500Y0D02*
X248700D01*
G03X251200Y2500I0J2500D01*
G01Y257500D01*
G03X248700Y260000I-2500J0D01*
G01X2500D01*
G03X0Y257500I0J-2500D01*
G01Y2500D01*
G03X2500Y0I2500J0D01*
M02*
