G04 ================== begin FILE IDENTIFICATION RECORD ==================*
G04 Layout Name:  AGET_ERNI2HRS.brd*
G04 Film Name:    adbottom*
G04 File Format:  Gerber RS274X*
G04 File Origin:  Cadence Allegro 16.6-S025*
G04 Origin Date:  Thu Sep 14 22:35:07 2017*
G04 *
G04 Layer:  REF DES/SILKSCREEN_BOTTOM*
G04 Layer:  PIN/BOTTOM*
G04 Layer:  PACKAGE GEOMETRY/SILKSCREEN_BOTTOM*
G04 Layer:  BOARD GEOMETRY/OUTLINE*
G04 Layer:  BOARD GEOMETRY/SILKSCREEN_BOTTOM*
G04 *
G04 Offset:    (0.0 0.0)*
G04 Mirror:    Yes*
G04 Mode:      Positive*
G04 Rotation:  0*
G04 FullContactRelief:  No*
G04 UndefLineWidth:     6.0*
G04 ================== end FILE IDENTIFICATION RECORD ====================*
%FSLAX25Y25*MOIN*%
%IR0*IPPOS*OFA0.00000B0.00000*MIA1B0*SFA1.00000B1.00000*%
%ADD13R,.122X.063*%
%ADD12C,.176*%
%ADD11R,.03X.032*%
%ADD10C,.06*%
%ADD14R,.0433X.0118*%
%ADD16C,.0709*%
%ADD15R,.0591X.0276*%
%ADD17C,.002*%
%ADD18C,.005*%
%ADD19C,.006*%
%ADD20C,.0079*%
G75*
%LPD*%
G75*
G54D10*
X20000Y42500D03*
Y217500D03*
X60000Y42500D03*
Y217500D03*
X369900Y10800D03*
X363400Y249200D03*
X390400Y11300D03*
X389300Y249600D03*
G54D20*
G01X31100Y66890D02*
X26600Y71390D01*
G01X26420Y66810D02*
Y193190D01*
X53580D01*
Y66810D01*
X26420D01*
G54D11*
X19300Y92200D03*
X13300D03*
X19300Y85800D03*
X13300D03*
X19300Y98700D03*
X13300D03*
X19300Y104600D03*
X13300D03*
X19300Y110500D03*
X13300D03*
X19300Y116400D03*
X13300D03*
X19300Y133800D03*
X13300D03*
X19300Y122400D03*
X13300D03*
X19300Y127900D03*
X13300D03*
X19300Y139700D03*
X13300D03*
X19300Y145900D03*
X13300D03*
X19300Y151800D03*
X13300D03*
X19300Y157700D03*
X13300D03*
X19300Y163600D03*
X13300D03*
X19300Y169500D03*
X13300D03*
X19300Y175400D03*
X13300D03*
X59100Y91600D03*
Y85700D03*
Y98500D03*
Y104400D03*
Y110300D03*
Y116200D03*
Y134100D03*
Y122300D03*
Y128200D03*
Y140000D03*
Y146200D03*
Y152100D03*
Y158000D03*
Y163900D03*
Y170300D03*
Y176300D03*
X65100Y91600D03*
Y85700D03*
Y98500D03*
Y104400D03*
Y110300D03*
Y116200D03*
Y134100D03*
Y122300D03*
Y128200D03*
Y140000D03*
Y146200D03*
Y152100D03*
Y158000D03*
Y163900D03*
Y170300D03*
Y176300D03*
X382600Y32500D03*
X388600D03*
G54D12*
X40000Y50000D03*
Y210000D03*
X340000Y20000D03*
Y240000D03*
G54D13*
X40000Y71140D03*
Y188860D03*
G54D14*
X29770Y97520D03*
Y91610D03*
Y89640D03*
Y87680D03*
Y85710D03*
Y83740D03*
Y115230D03*
Y113270D03*
Y111300D03*
Y109330D03*
Y107360D03*
Y105390D03*
Y103420D03*
Y101450D03*
Y99490D03*
Y132950D03*
Y130980D03*
Y129010D03*
Y127050D03*
Y125080D03*
Y123110D03*
Y121140D03*
Y150670D03*
Y148700D03*
Y146730D03*
Y144760D03*
Y138860D03*
Y136890D03*
Y134920D03*
Y168380D03*
Y162480D03*
Y160510D03*
Y158540D03*
Y156570D03*
Y154600D03*
Y152640D03*
Y176260D03*
Y174290D03*
Y172320D03*
Y170350D03*
X50240Y97520D03*
Y91610D03*
Y89640D03*
Y87680D03*
Y85710D03*
Y83740D03*
Y115230D03*
Y113270D03*
Y111300D03*
Y109330D03*
Y107360D03*
Y105390D03*
Y103420D03*
Y101450D03*
Y99490D03*
Y132950D03*
Y130980D03*
Y129010D03*
Y127050D03*
Y125080D03*
Y123110D03*
Y121140D03*
Y150670D03*
Y148700D03*
Y146730D03*
Y144760D03*
Y138860D03*
Y136890D03*
Y134920D03*
Y168380D03*
Y162480D03*
Y160510D03*
Y158540D03*
Y156570D03*
Y154600D03*
Y152640D03*
Y176260D03*
Y174290D03*
Y172320D03*
Y170350D03*
G54D15*
X30550Y94560D03*
Y118190D03*
Y141810D03*
Y165430D03*
X49450Y94560D03*
Y118190D03*
Y141810D03*
Y165430D03*
G54D16*
X383170Y23800D03*
Y236200D03*
G54D17*
G01X9220Y90900D02*
Y94000D01*
X8260D01*
X7950Y93840D01*
X7760Y93640D01*
X7680Y93220D01*
X7760Y92810D01*
X7990Y92550D01*
X8260Y92400D01*
X9220D01*
G01X8260D02*
X7680Y90900D01*
G01X5350D02*
Y94000D01*
X5810Y93380D01*
G01Y90900D02*
X4890D01*
G01X2330D02*
X2250Y91570D01*
X2130Y92140D01*
X1980Y92660D01*
X1790Y93220D01*
X1480Y94000D01*
X3020D01*
G01X9220Y84500D02*
Y87600D01*
X8260D01*
X7950Y87440D01*
X7760Y87240D01*
X7680Y86820D01*
X7760Y86410D01*
X7990Y86150D01*
X8260Y86000D01*
X9220D01*
G01X8260D02*
X7680Y84500D01*
G01X6000Y84860D02*
X5730Y84600D01*
X5430Y84500D01*
X5120Y84600D01*
X4850Y84910D01*
X4660Y85380D01*
X4580Y85840D01*
Y86410D01*
X4660Y86880D01*
X4850Y87290D01*
X5080Y87500D01*
X5350Y87600D01*
X5660Y87500D01*
X5890Y87290D01*
X6040Y86980D01*
X6120Y86570D01*
X6040Y86210D01*
X5850Y85840D01*
X5620Y85640D01*
X5350Y85580D01*
X5040Y85690D01*
X4810Y85950D01*
X4580Y86410D01*
G01X9220Y97400D02*
Y100500D01*
X8260D01*
X7950Y100340D01*
X7760Y100140D01*
X7680Y99720D01*
X7760Y99310D01*
X7990Y99050D01*
X8260Y98900D01*
X9220D01*
G01X8260D02*
X7680Y97400D01*
G01X6080Y99980D02*
X5850Y100290D01*
X5580Y100450D01*
X5270Y100500D01*
X4890Y100400D01*
X4620Y100140D01*
X4540Y99830D01*
X4580Y99520D01*
X4740Y99260D01*
X5500Y98740D01*
X5850Y98380D01*
X6080Y97860D01*
X6160Y97400D01*
X4540D01*
G01X3090Y97860D02*
X2860Y97610D01*
X2600Y97450D01*
X2250Y97400D01*
X1900Y97500D01*
X1640Y97710D01*
X1440Y98070D01*
X1410Y98480D01*
X1480Y98900D01*
X1680Y99160D01*
X1940Y99360D01*
X2210Y99410D01*
X2480Y99360D01*
X2820Y99160D01*
X2710Y100500D01*
X1680D01*
G01X9220Y103300D02*
Y106400D01*
X8260D01*
X7950Y106240D01*
X7760Y106040D01*
X7680Y105620D01*
X7760Y105210D01*
X7990Y104950D01*
X8260Y104800D01*
X9220D01*
G01X8260D02*
X7680Y103300D01*
G01X6190Y103920D02*
X5960Y103560D01*
X5660Y103350D01*
X5310Y103300D01*
X5000Y103350D01*
X4700Y103610D01*
X4510Y103920D01*
X4470Y104230D01*
X4540Y104590D01*
X4810Y104850D01*
X5080Y104950D01*
X5430D01*
G01X5080D02*
X4850Y105110D01*
X4660Y105370D01*
X4580Y105680D01*
X4660Y105990D01*
X4850Y106240D01*
X5200Y106400D01*
X5540Y106350D01*
X5890Y106140D01*
G01X3090Y103920D02*
X2860Y103560D01*
X2560Y103350D01*
X2210Y103300D01*
X1900Y103350D01*
X1600Y103610D01*
X1410Y103920D01*
X1370Y104230D01*
X1440Y104590D01*
X1710Y104850D01*
X1980Y104950D01*
X2330D01*
G01X1980D02*
X1750Y105110D01*
X1560Y105370D01*
X1480Y105680D01*
X1560Y105990D01*
X1750Y106240D01*
X2100Y106400D01*
X2440Y106350D01*
X2790Y106140D01*
G01X9220Y109200D02*
Y112300D01*
X8260D01*
X7950Y112140D01*
X7760Y111940D01*
X7680Y111520D01*
X7760Y111110D01*
X7990Y110850D01*
X8260Y110700D01*
X9220D01*
G01X8260D02*
X7680Y109200D01*
G01X4890D02*
Y112300D01*
X6310Y110080D01*
X4390D01*
G01X2250Y109200D02*
Y112300D01*
X2710Y111680D01*
G01Y109200D02*
X1790D01*
G01X9220Y115100D02*
Y118200D01*
X8260D01*
X7950Y118040D01*
X7760Y117840D01*
X7680Y117420D01*
X7760Y117010D01*
X7990Y116750D01*
X8260Y116600D01*
X9220D01*
G01X8260D02*
X7680Y115100D01*
G01X4890D02*
Y118200D01*
X6310Y115980D01*
X4390D01*
G01X2900Y115460D02*
X2630Y115200D01*
X2330Y115100D01*
X2020Y115200D01*
X1750Y115510D01*
X1560Y115980D01*
X1480Y116440D01*
Y117010D01*
X1560Y117480D01*
X1750Y117890D01*
X1980Y118100D01*
X2250Y118200D01*
X2560Y118100D01*
X2790Y117890D01*
X2940Y117580D01*
X3020Y117170D01*
X2940Y116810D01*
X2750Y116440D01*
X2520Y116240D01*
X2250Y116180D01*
X1940Y116290D01*
X1710Y116550D01*
X1480Y117010D01*
G01X9220Y132500D02*
Y135600D01*
X8260D01*
X7950Y135440D01*
X7760Y135240D01*
X7680Y134820D01*
X7760Y134410D01*
X7990Y134150D01*
X8260Y134000D01*
X9220D01*
G01X8260D02*
X7680Y132500D01*
G01X5350D02*
Y135600D01*
X5810Y134980D01*
G01Y132500D02*
X4890D01*
G01X2250Y135600D02*
X2560Y135500D01*
X2790Y135240D01*
X2940Y134930D01*
X3060Y134510D01*
X3090Y134050D01*
X3060Y133580D01*
X2940Y133170D01*
X2790Y132860D01*
X2560Y132600D01*
X2250Y132500D01*
X1940Y132600D01*
X1710Y132860D01*
X1560Y133170D01*
X1440Y133580D01*
X1410Y134050D01*
X1440Y134510D01*
X1560Y134930D01*
X1710Y135240D01*
X1940Y135500D01*
X2250Y135600D01*
G01X9220Y121100D02*
Y124200D01*
X8260D01*
X7950Y124040D01*
X7760Y123840D01*
X7680Y123420D01*
X7760Y123010D01*
X7990Y122750D01*
X8260Y122600D01*
X9220D01*
G01X8260D02*
X7680Y121100D01*
G01X6190Y121560D02*
X5960Y121310D01*
X5700Y121150D01*
X5350Y121100D01*
X5000Y121200D01*
X4740Y121410D01*
X4540Y121770D01*
X4510Y122180D01*
X4580Y122600D01*
X4780Y122860D01*
X5040Y123060D01*
X5310Y123110D01*
X5580Y123060D01*
X5920Y122860D01*
X5810Y124200D01*
X4780D01*
G01X2330Y121100D02*
X2250Y121770D01*
X2130Y122340D01*
X1980Y122860D01*
X1790Y123420D01*
X1480Y124200D01*
X3020D01*
G01X9220Y126600D02*
Y129700D01*
X8260D01*
X7950Y129540D01*
X7760Y129340D01*
X7680Y128920D01*
X7760Y128510D01*
X7990Y128250D01*
X8260Y128100D01*
X9220D01*
G01X8260D02*
X7680Y126600D01*
G01X6080Y127890D02*
X5810Y128250D01*
X5580Y128460D01*
X5270Y128560D01*
X5000Y128460D01*
X4810Y128250D01*
X4660Y127940D01*
X4620Y127580D01*
X4660Y127270D01*
X4810Y126960D01*
X5040Y126700D01*
X5310Y126600D01*
X5620Y126700D01*
X5890Y127010D01*
X6040Y127480D01*
X6080Y127990D01*
X6000Y128670D01*
X5890Y129030D01*
X5700Y129390D01*
X5430Y129650D01*
X5160Y129700D01*
X4890Y129600D01*
X4700Y129340D01*
G01X3090Y127060D02*
X2860Y126810D01*
X2600Y126650D01*
X2250Y126600D01*
X1900Y126700D01*
X1640Y126910D01*
X1440Y127270D01*
X1410Y127680D01*
X1480Y128100D01*
X1680Y128360D01*
X1940Y128560D01*
X2210Y128610D01*
X2480Y128560D01*
X2820Y128360D01*
X2710Y129700D01*
X1680D01*
G01X9220Y138400D02*
Y141500D01*
X8260D01*
X7950Y141340D01*
X7760Y141140D01*
X7680Y140720D01*
X7760Y140310D01*
X7990Y140050D01*
X8260Y139900D01*
X9220D01*
G01X8260D02*
X7680Y138400D01*
G01X5350D02*
Y141500D01*
X5810Y140880D01*
G01Y138400D02*
X4890D01*
G01X2250D02*
X1980Y138450D01*
X1680Y138610D01*
X1480Y138860D01*
X1410Y139230D01*
X1480Y139590D01*
X1710Y139900D01*
X2060Y140050D01*
X2440D01*
X2670Y140160D01*
X2860Y140410D01*
X2940Y140780D01*
X2820Y141140D01*
X2560Y141400D01*
X2250Y141500D01*
X1940Y141400D01*
X1680Y141140D01*
X1560Y140780D01*
X1640Y140410D01*
X1830Y140160D01*
X2060Y140050D01*
X2440D01*
X2790Y139900D01*
X3020Y139590D01*
X3090Y139230D01*
X3020Y138860D01*
X2820Y138610D01*
X2520Y138450D01*
X2250Y138400D01*
G01X9220Y144600D02*
Y147700D01*
X8260D01*
X7950Y147540D01*
X7760Y147340D01*
X7680Y146920D01*
X7760Y146510D01*
X7990Y146250D01*
X8260Y146100D01*
X9220D01*
G01X8260D02*
X7680Y144600D01*
G01X6080Y147180D02*
X5850Y147490D01*
X5580Y147650D01*
X5270Y147700D01*
X4890Y147600D01*
X4620Y147340D01*
X4540Y147030D01*
X4580Y146720D01*
X4740Y146460D01*
X5500Y145940D01*
X5850Y145580D01*
X6080Y145060D01*
X6160Y144600D01*
X4540D01*
G01X2980Y145890D02*
X2710Y146250D01*
X2480Y146460D01*
X2170Y146560D01*
X1900Y146460D01*
X1710Y146250D01*
X1560Y145940D01*
X1520Y145580D01*
X1560Y145270D01*
X1710Y144960D01*
X1940Y144700D01*
X2210Y144600D01*
X2520Y144700D01*
X2790Y145010D01*
X2940Y145480D01*
X2980Y145990D01*
X2900Y146670D01*
X2790Y147030D01*
X2600Y147390D01*
X2330Y147650D01*
X2060Y147700D01*
X1790Y147600D01*
X1600Y147340D01*
G01X9220Y150500D02*
Y153600D01*
X8260D01*
X7950Y153440D01*
X7760Y153240D01*
X7680Y152820D01*
X7760Y152410D01*
X7990Y152150D01*
X8260Y152000D01*
X9220D01*
G01X8260D02*
X7680Y150500D01*
G01X6190Y151120D02*
X5960Y150760D01*
X5660Y150550D01*
X5310Y150500D01*
X5000Y150550D01*
X4700Y150810D01*
X4510Y151120D01*
X4470Y151430D01*
X4540Y151790D01*
X4810Y152050D01*
X5080Y152150D01*
X5430D01*
G01X5080D02*
X4850Y152310D01*
X4660Y152570D01*
X4580Y152880D01*
X4660Y153190D01*
X4850Y153440D01*
X5200Y153600D01*
X5540Y153550D01*
X5890Y153340D01*
G01X1790Y150500D02*
Y153600D01*
X3210Y151380D01*
X1290D01*
G01X9220Y156400D02*
Y159500D01*
X8260D01*
X7950Y159340D01*
X7760Y159140D01*
X7680Y158720D01*
X7760Y158310D01*
X7990Y158050D01*
X8260Y157900D01*
X9220D01*
G01X8260D02*
X7680Y156400D01*
G01X4890D02*
Y159500D01*
X6310Y157280D01*
X4390D01*
G01X2980Y158980D02*
X2750Y159290D01*
X2480Y159450D01*
X2170Y159500D01*
X1790Y159400D01*
X1520Y159140D01*
X1440Y158830D01*
X1480Y158520D01*
X1640Y158260D01*
X2400Y157740D01*
X2750Y157380D01*
X2980Y156860D01*
X3060Y156400D01*
X1440D01*
G01X9220Y162300D02*
Y165400D01*
X8260D01*
X7950Y165240D01*
X7760Y165040D01*
X7680Y164620D01*
X7760Y164210D01*
X7990Y163950D01*
X8260Y163800D01*
X9220D01*
G01X8260D02*
X7680Y162300D01*
G01X6190Y162760D02*
X5960Y162510D01*
X5700Y162350D01*
X5350Y162300D01*
X5000Y162400D01*
X4740Y162610D01*
X4540Y162970D01*
X4510Y163380D01*
X4580Y163800D01*
X4780Y164060D01*
X5040Y164260D01*
X5310Y164310D01*
X5580Y164260D01*
X5920Y164060D01*
X5810Y165400D01*
X4780D01*
G01X2250D02*
X2560Y165300D01*
X2790Y165040D01*
X2940Y164730D01*
X3060Y164310D01*
X3090Y163850D01*
X3060Y163380D01*
X2940Y162970D01*
X2790Y162660D01*
X2560Y162400D01*
X2250Y162300D01*
X1940Y162400D01*
X1710Y162660D01*
X1560Y162970D01*
X1440Y163380D01*
X1410Y163850D01*
X1440Y164310D01*
X1560Y164730D01*
X1710Y165040D01*
X1940Y165300D01*
X2250Y165400D01*
G01X9220Y168200D02*
Y171300D01*
X8260D01*
X7950Y171140D01*
X7760Y170940D01*
X7680Y170520D01*
X7760Y170110D01*
X7990Y169850D01*
X8260Y169700D01*
X9220D01*
G01X8260D02*
X7680Y168200D01*
G01X6190Y168660D02*
X5960Y168410D01*
X5700Y168250D01*
X5350Y168200D01*
X5000Y168300D01*
X4740Y168510D01*
X4540Y168870D01*
X4510Y169280D01*
X4580Y169700D01*
X4780Y169960D01*
X5040Y170160D01*
X5310Y170210D01*
X5580Y170160D01*
X5920Y169960D01*
X5810Y171300D01*
X4780D01*
G01X2250Y168200D02*
X1980Y168250D01*
X1680Y168410D01*
X1480Y168660D01*
X1410Y169030D01*
X1480Y169390D01*
X1710Y169700D01*
X2060Y169850D01*
X2440D01*
X2670Y169960D01*
X2860Y170210D01*
X2940Y170580D01*
X2820Y170940D01*
X2560Y171200D01*
X2250Y171300D01*
X1940Y171200D01*
X1680Y170940D01*
X1560Y170580D01*
X1640Y170210D01*
X1830Y169960D01*
X2060Y169850D01*
X2440D01*
X2790Y169700D01*
X3020Y169390D01*
X3090Y169030D01*
X3020Y168660D01*
X2820Y168410D01*
X2520Y168250D01*
X2250Y168200D01*
G01X9220Y174100D02*
Y177200D01*
X8260D01*
X7950Y177040D01*
X7760Y176840D01*
X7680Y176420D01*
X7760Y176010D01*
X7990Y175750D01*
X8260Y175600D01*
X9220D01*
G01X8260D02*
X7680Y174100D01*
G01X6080Y175390D02*
X5810Y175750D01*
X5580Y175960D01*
X5270Y176060D01*
X5000Y175960D01*
X4810Y175750D01*
X4660Y175440D01*
X4620Y175080D01*
X4660Y174770D01*
X4810Y174460D01*
X5040Y174200D01*
X5310Y174100D01*
X5620Y174200D01*
X5890Y174510D01*
X6040Y174980D01*
X6080Y175490D01*
X6000Y176170D01*
X5890Y176530D01*
X5700Y176890D01*
X5430Y177150D01*
X5160Y177200D01*
X4890Y177100D01*
X4700Y176840D01*
G01X2980Y175390D02*
X2710Y175750D01*
X2480Y175960D01*
X2170Y176060D01*
X1900Y175960D01*
X1710Y175750D01*
X1560Y175440D01*
X1520Y175080D01*
X1560Y174770D01*
X1710Y174460D01*
X1940Y174200D01*
X2210Y174100D01*
X2520Y174200D01*
X2790Y174510D01*
X2940Y174980D01*
X2980Y175490D01*
X2900Y176170D01*
X2790Y176530D01*
X2600Y176890D01*
X2330Y177150D01*
X2060Y177200D01*
X1790Y177100D01*
X1600Y176840D01*
G01X52490Y200970D02*
Y198750D01*
X52340Y198280D01*
X52030Y197970D01*
X51650Y197870D01*
X51270Y197970D01*
X50960Y198280D01*
X50810Y198750D01*
Y200970D01*
G01X48550Y197870D02*
Y200970D01*
X49010Y200350D01*
G01Y197870D02*
X48090D01*
G01X77220Y89420D02*
Y92520D01*
X76260D01*
X75950Y92360D01*
X75760Y92160D01*
X75680Y91740D01*
X75760Y91330D01*
X75990Y91070D01*
X76260Y90920D01*
X77220D01*
G01X76260D02*
X75680Y89420D01*
G01X73350D02*
Y92520D01*
X73810Y91900D01*
G01Y89420D02*
X72890D01*
G01X71090Y89880D02*
X70860Y89630D01*
X70600Y89470D01*
X70250Y89420D01*
X69900Y89520D01*
X69640Y89730D01*
X69440Y90090D01*
X69410Y90500D01*
X69480Y90920D01*
X69680Y91180D01*
X69940Y91380D01*
X70210Y91430D01*
X70480Y91380D01*
X70820Y91180D01*
X70710Y92520D01*
X69680D01*
G01X74120Y83520D02*
Y86620D01*
X73160D01*
X72850Y86460D01*
X72660Y86260D01*
X72580Y85840D01*
X72660Y85430D01*
X72890Y85170D01*
X73160Y85020D01*
X74120D01*
G01X73160D02*
X72580Y83520D01*
G01X70250D02*
X69980Y83570D01*
X69680Y83730D01*
X69480Y83980D01*
X69410Y84350D01*
X69480Y84710D01*
X69710Y85020D01*
X70060Y85170D01*
X70440D01*
X70670Y85280D01*
X70860Y85530D01*
X70940Y85900D01*
X70820Y86260D01*
X70560Y86520D01*
X70250Y86620D01*
X69940Y86520D01*
X69680Y86260D01*
X69560Y85900D01*
X69640Y85530D01*
X69830Y85280D01*
X70060Y85170D01*
X70440D01*
X70790Y85020D01*
X71020Y84710D01*
X71090Y84350D01*
X71020Y83980D01*
X70820Y83730D01*
X70520Y83570D01*
X70250Y83520D01*
G01X77220Y96320D02*
Y99420D01*
X76260D01*
X75950Y99260D01*
X75760Y99060D01*
X75680Y98640D01*
X75760Y98230D01*
X75990Y97970D01*
X76260Y97820D01*
X77220D01*
G01X76260D02*
X75680Y96320D01*
G01X74080Y98900D02*
X73850Y99210D01*
X73580Y99370D01*
X73270Y99420D01*
X72890Y99320D01*
X72620Y99060D01*
X72540Y98750D01*
X72580Y98440D01*
X72740Y98180D01*
X73500Y97660D01*
X73850Y97300D01*
X74080Y96780D01*
X74160Y96320D01*
X72540D01*
G01X71090Y96940D02*
X70860Y96580D01*
X70560Y96370D01*
X70210Y96320D01*
X69900Y96370D01*
X69600Y96630D01*
X69410Y96940D01*
X69370Y97250D01*
X69440Y97610D01*
X69710Y97870D01*
X69980Y97970D01*
X70330D01*
G01X69980D02*
X69750Y98130D01*
X69560Y98390D01*
X69480Y98700D01*
X69560Y99010D01*
X69750Y99260D01*
X70100Y99420D01*
X70440Y99370D01*
X70790Y99160D01*
G01X77220Y102220D02*
Y105320D01*
X76260D01*
X75950Y105160D01*
X75760Y104960D01*
X75680Y104540D01*
X75760Y104130D01*
X75990Y103870D01*
X76260Y103720D01*
X77220D01*
G01X76260D02*
X75680Y102220D01*
G01X74190Y102840D02*
X73960Y102480D01*
X73660Y102270D01*
X73310Y102220D01*
X73000Y102270D01*
X72700Y102530D01*
X72510Y102840D01*
X72470Y103150D01*
X72540Y103510D01*
X72810Y103770D01*
X73080Y103870D01*
X73430D01*
G01X73080D02*
X72850Y104030D01*
X72660Y104290D01*
X72580Y104600D01*
X72660Y104910D01*
X72850Y105160D01*
X73200Y105320D01*
X73540Y105270D01*
X73890Y105060D01*
G01X70250Y102220D02*
Y105320D01*
X70710Y104700D01*
G01Y102220D02*
X69790D01*
G01X77220Y108120D02*
Y111220D01*
X76260D01*
X75950Y111060D01*
X75760Y110860D01*
X75680Y110440D01*
X75760Y110030D01*
X75990Y109770D01*
X76260Y109620D01*
X77220D01*
G01X76260D02*
X75680Y108120D01*
G01X74190Y108740D02*
X73960Y108380D01*
X73660Y108170D01*
X73310Y108120D01*
X73000Y108170D01*
X72700Y108430D01*
X72510Y108740D01*
X72470Y109050D01*
X72540Y109410D01*
X72810Y109670D01*
X73080Y109770D01*
X73430D01*
G01X73080D02*
X72850Y109930D01*
X72660Y110190D01*
X72580Y110500D01*
X72660Y110810D01*
X72850Y111060D01*
X73200Y111220D01*
X73540Y111170D01*
X73890Y110960D01*
G01X70900Y108480D02*
X70630Y108220D01*
X70330Y108120D01*
X70020Y108220D01*
X69750Y108530D01*
X69560Y109000D01*
X69480Y109460D01*
Y110030D01*
X69560Y110500D01*
X69750Y110910D01*
X69980Y111120D01*
X70250Y111220D01*
X70560Y111120D01*
X70790Y110910D01*
X70940Y110600D01*
X71020Y110190D01*
X70940Y109830D01*
X70750Y109460D01*
X70520Y109260D01*
X70250Y109200D01*
X69940Y109310D01*
X69710Y109570D01*
X69480Y110030D01*
G01X77220Y114020D02*
Y117120D01*
X76260D01*
X75950Y116960D01*
X75760Y116760D01*
X75680Y116340D01*
X75760Y115930D01*
X75990Y115670D01*
X76260Y115520D01*
X77220D01*
G01X76260D02*
X75680Y114020D01*
G01X72890D02*
Y117120D01*
X74310Y114900D01*
X72390D01*
G01X70330Y114020D02*
X70250Y114690D01*
X70130Y115260D01*
X69980Y115780D01*
X69790Y116340D01*
X69480Y117120D01*
X71020D01*
G01X74120Y131920D02*
Y135020D01*
X73160D01*
X72850Y134860D01*
X72660Y134660D01*
X72580Y134240D01*
X72660Y133830D01*
X72890Y133570D01*
X73160Y133420D01*
X74120D01*
G01X73160D02*
X72580Y131920D01*
G01X70980Y134500D02*
X70750Y134810D01*
X70480Y134970D01*
X70170Y135020D01*
X69790Y134920D01*
X69520Y134660D01*
X69440Y134350D01*
X69480Y134040D01*
X69640Y133780D01*
X70400Y133260D01*
X70750Y132900D01*
X70980Y132380D01*
X71060Y131920D01*
X69440D01*
G01X77220Y120120D02*
Y123220D01*
X76260D01*
X75950Y123060D01*
X75760Y122860D01*
X75680Y122440D01*
X75760Y122030D01*
X75990Y121770D01*
X76260Y121620D01*
X77220D01*
G01X76260D02*
X75680Y120120D01*
G01X74190Y120580D02*
X73960Y120330D01*
X73700Y120170D01*
X73350Y120120D01*
X73000Y120220D01*
X72740Y120430D01*
X72540Y120790D01*
X72510Y121200D01*
X72580Y121620D01*
X72780Y121880D01*
X73040Y122080D01*
X73310Y122130D01*
X73580Y122080D01*
X73920Y121880D01*
X73810Y123220D01*
X72780D01*
G01X71090Y120580D02*
X70860Y120330D01*
X70600Y120170D01*
X70250Y120120D01*
X69900Y120220D01*
X69640Y120430D01*
X69440Y120790D01*
X69410Y121200D01*
X69480Y121620D01*
X69680Y121880D01*
X69940Y122080D01*
X70210Y122130D01*
X70480Y122080D01*
X70820Y121880D01*
X70710Y123220D01*
X69680D01*
G01X77220Y126020D02*
Y129120D01*
X76260D01*
X75950Y128960D01*
X75760Y128760D01*
X75680Y128340D01*
X75760Y127930D01*
X75990Y127670D01*
X76260Y127520D01*
X77220D01*
G01X76260D02*
X75680Y126020D01*
G01X74080Y127310D02*
X73810Y127670D01*
X73580Y127880D01*
X73270Y127980D01*
X73000Y127880D01*
X72810Y127670D01*
X72660Y127360D01*
X72620Y127000D01*
X72660Y126690D01*
X72810Y126380D01*
X73040Y126120D01*
X73310Y126020D01*
X73620Y126120D01*
X73890Y126430D01*
X74040Y126900D01*
X74080Y127410D01*
X74000Y128090D01*
X73890Y128450D01*
X73700Y128810D01*
X73430Y129070D01*
X73160Y129120D01*
X72890Y129020D01*
X72700Y128760D01*
G01X71090Y126640D02*
X70860Y126280D01*
X70560Y126070D01*
X70210Y126020D01*
X69900Y126070D01*
X69600Y126330D01*
X69410Y126640D01*
X69370Y126950D01*
X69440Y127310D01*
X69710Y127570D01*
X69980Y127670D01*
X70330D01*
G01X69980D02*
X69750Y127830D01*
X69560Y128090D01*
X69480Y128400D01*
X69560Y128710D01*
X69750Y128960D01*
X70100Y129120D01*
X70440Y129070D01*
X70790Y128860D01*
G01X77220Y137820D02*
Y140920D01*
X76260D01*
X75950Y140760D01*
X75760Y140560D01*
X75680Y140140D01*
X75760Y139730D01*
X75990Y139470D01*
X76260Y139320D01*
X77220D01*
G01X76260D02*
X75680Y137820D01*
G01X73350D02*
Y140920D01*
X73810Y140300D01*
G01Y137820D02*
X72890D01*
G01X70980Y139110D02*
X70710Y139470D01*
X70480Y139680D01*
X70170Y139780D01*
X69900Y139680D01*
X69710Y139470D01*
X69560Y139160D01*
X69520Y138800D01*
X69560Y138490D01*
X69710Y138180D01*
X69940Y137920D01*
X70210Y137820D01*
X70520Y137920D01*
X70790Y138230D01*
X70940Y138700D01*
X70980Y139210D01*
X70900Y139890D01*
X70790Y140250D01*
X70600Y140610D01*
X70330Y140870D01*
X70060Y140920D01*
X69790Y140820D01*
X69600Y140560D01*
G01X77220Y144020D02*
Y147120D01*
X76260D01*
X75950Y146960D01*
X75760Y146760D01*
X75680Y146340D01*
X75760Y145930D01*
X75990Y145670D01*
X76260Y145520D01*
X77220D01*
G01X76260D02*
X75680Y144020D01*
G01X74080Y146600D02*
X73850Y146910D01*
X73580Y147070D01*
X73270Y147120D01*
X72890Y147020D01*
X72620Y146760D01*
X72540Y146450D01*
X72580Y146140D01*
X72740Y145880D01*
X73500Y145360D01*
X73850Y145000D01*
X74080Y144480D01*
X74160Y144020D01*
X72540D01*
G01X69790D02*
Y147120D01*
X71210Y144900D01*
X69290D01*
G01X77220Y149920D02*
Y153020D01*
X76260D01*
X75950Y152860D01*
X75760Y152660D01*
X75680Y152240D01*
X75760Y151830D01*
X75990Y151570D01*
X76260Y151420D01*
X77220D01*
G01X76260D02*
X75680Y149920D01*
G01X74190Y150540D02*
X73960Y150180D01*
X73660Y149970D01*
X73310Y149920D01*
X73000Y149970D01*
X72700Y150230D01*
X72510Y150540D01*
X72470Y150850D01*
X72540Y151210D01*
X72810Y151470D01*
X73080Y151570D01*
X73430D01*
G01X73080D02*
X72850Y151730D01*
X72660Y151990D01*
X72580Y152300D01*
X72660Y152610D01*
X72850Y152860D01*
X73200Y153020D01*
X73540Y152970D01*
X73890Y152760D01*
G01X70980Y152500D02*
X70750Y152810D01*
X70480Y152970D01*
X70170Y153020D01*
X69790Y152920D01*
X69520Y152660D01*
X69440Y152350D01*
X69480Y152040D01*
X69640Y151780D01*
X70400Y151260D01*
X70750Y150900D01*
X70980Y150380D01*
X71060Y149920D01*
X69440D01*
G01X77220Y155820D02*
Y158920D01*
X76260D01*
X75950Y158760D01*
X75760Y158560D01*
X75680Y158140D01*
X75760Y157730D01*
X75990Y157470D01*
X76260Y157320D01*
X77220D01*
G01X76260D02*
X75680Y155820D01*
G01X72890D02*
Y158920D01*
X74310Y156700D01*
X72390D01*
G01X70250Y158920D02*
X70560Y158820D01*
X70790Y158560D01*
X70940Y158250D01*
X71060Y157830D01*
X71090Y157370D01*
X71060Y156900D01*
X70940Y156490D01*
X70790Y156180D01*
X70560Y155920D01*
X70250Y155820D01*
X69940Y155920D01*
X69710Y156180D01*
X69560Y156490D01*
X69440Y156900D01*
X69410Y157370D01*
X69440Y157830D01*
X69560Y158250D01*
X69710Y158560D01*
X69940Y158820D01*
X70250Y158920D01*
G01X77220Y161720D02*
Y164820D01*
X76260D01*
X75950Y164660D01*
X75760Y164460D01*
X75680Y164040D01*
X75760Y163630D01*
X75990Y163370D01*
X76260Y163220D01*
X77220D01*
G01X76260D02*
X75680Y161720D01*
G01X72890D02*
Y164820D01*
X74310Y162600D01*
X72390D01*
G01X70250Y161720D02*
X69980Y161770D01*
X69680Y161930D01*
X69480Y162180D01*
X69410Y162550D01*
X69480Y162910D01*
X69710Y163220D01*
X70060Y163370D01*
X70440D01*
X70670Y163480D01*
X70860Y163730D01*
X70940Y164100D01*
X70820Y164460D01*
X70560Y164720D01*
X70250Y164820D01*
X69940Y164720D01*
X69680Y164460D01*
X69560Y164100D01*
X69640Y163730D01*
X69830Y163480D01*
X70060Y163370D01*
X70440D01*
X70790Y163220D01*
X71020Y162910D01*
X71090Y162550D01*
X71020Y162180D01*
X70820Y161930D01*
X70520Y161770D01*
X70250Y161720D01*
G01X77220Y168120D02*
Y171220D01*
X76260D01*
X75950Y171060D01*
X75760Y170860D01*
X75680Y170440D01*
X75760Y170030D01*
X75990Y169770D01*
X76260Y169620D01*
X77220D01*
G01X76260D02*
X75680Y168120D01*
G01X74190Y168580D02*
X73960Y168330D01*
X73700Y168170D01*
X73350Y168120D01*
X73000Y168220D01*
X72740Y168430D01*
X72540Y168790D01*
X72510Y169200D01*
X72580Y169620D01*
X72780Y169880D01*
X73040Y170080D01*
X73310Y170130D01*
X73580Y170080D01*
X73920Y169880D01*
X73810Y171220D01*
X72780D01*
G01X70980Y169410D02*
X70710Y169770D01*
X70480Y169980D01*
X70170Y170080D01*
X69900Y169980D01*
X69710Y169770D01*
X69560Y169460D01*
X69520Y169100D01*
X69560Y168790D01*
X69710Y168480D01*
X69940Y168220D01*
X70210Y168120D01*
X70520Y168220D01*
X70790Y168530D01*
X70940Y169000D01*
X70980Y169510D01*
X70900Y170190D01*
X70790Y170550D01*
X70600Y170910D01*
X70330Y171170D01*
X70060Y171220D01*
X69790Y171120D01*
X69600Y170860D01*
G01X77220Y174120D02*
Y177220D01*
X76260D01*
X75950Y177060D01*
X75760Y176860D01*
X75680Y176440D01*
X75760Y176030D01*
X75990Y175770D01*
X76260Y175620D01*
X77220D01*
G01X76260D02*
X75680Y174120D01*
G01X74080Y175410D02*
X73810Y175770D01*
X73580Y175980D01*
X73270Y176080D01*
X73000Y175980D01*
X72810Y175770D01*
X72660Y175460D01*
X72620Y175100D01*
X72660Y174790D01*
X72810Y174480D01*
X73040Y174220D01*
X73310Y174120D01*
X73620Y174220D01*
X73890Y174530D01*
X74040Y175000D01*
X74080Y175510D01*
X74000Y176190D01*
X73890Y176550D01*
X73700Y176910D01*
X73430Y177170D01*
X73160Y177220D01*
X72890Y177120D01*
X72700Y176860D01*
G01X69790Y174120D02*
Y177220D01*
X71210Y175000D01*
X69290D01*
G01X95570Y107220D02*
X98670D01*
Y108680D01*
G01X97170Y108140D02*
Y107220D01*
G01X95570Y110240D02*
X98670Y111860D01*
G01Y110240D02*
X95570Y111860D01*
G01Y114150D02*
X98670D01*
X98050Y113690D01*
G01X95570D02*
Y114610D01*
G01X98670Y117250D02*
X98570Y116940D01*
X98310Y116710D01*
X98000Y116560D01*
X97580Y116440D01*
X97120Y116410D01*
X96650Y116440D01*
X96240Y116560D01*
X95930Y116710D01*
X95670Y116940D01*
X95570Y117250D01*
X95670Y117560D01*
X95930Y117790D01*
X96240Y117940D01*
X96650Y118060D01*
X97120Y118090D01*
X97580Y118060D01*
X98000Y117940D01*
X98310Y117790D01*
X98570Y117560D01*
X98670Y117250D01*
G01X97220Y120660D02*
X97380Y120810D01*
X97640Y120920D01*
X98000Y121000D01*
X98310Y120920D01*
X98510Y120770D01*
X98670Y120500D01*
Y119470D01*
X95570D01*
Y120730D01*
X95780Y121000D01*
X96090Y121160D01*
X96450Y121230D01*
X96810Y121160D01*
X97120Y120920D01*
X97220Y120660D01*
Y119470D01*
G01X96600Y122950D02*
Y123950D01*
G01X95570Y126550D02*
X95620Y126820D01*
X95780Y127120D01*
X96030Y127320D01*
X96400Y127390D01*
X96760Y127320D01*
X97070Y127090D01*
X97220Y126740D01*
Y126360D01*
X97330Y126130D01*
X97580Y125940D01*
X97950Y125860D01*
X98310Y125980D01*
X98570Y126240D01*
X98670Y126550D01*
X98570Y126860D01*
X98310Y127120D01*
X97950Y127240D01*
X97580Y127160D01*
X97330Y126970D01*
X97220Y126740D01*
Y126360D01*
X97070Y126010D01*
X96760Y125780D01*
X96400Y125710D01*
X96030Y125780D01*
X95780Y125980D01*
X95620Y126280D01*
X95570Y126550D01*
G01X98670Y129650D02*
X98570Y129340D01*
X98310Y129110D01*
X98000Y128960D01*
X97580Y128840D01*
X97120Y128810D01*
X96650Y128840D01*
X96240Y128960D01*
X95930Y129110D01*
X95670Y129340D01*
X95570Y129650D01*
X95670Y129960D01*
X95930Y130190D01*
X96240Y130340D01*
X96650Y130460D01*
X97120Y130490D01*
X97580Y130460D01*
X98000Y130340D01*
X98310Y130190D01*
X98570Y129960D01*
X98670Y129650D01*
G01X95570Y131980D02*
X98670D01*
Y132900D01*
X98510Y133210D01*
X98150Y133440D01*
X97740Y133520D01*
X97330Y133440D01*
X97020Y133250D01*
X96860Y132900D01*
Y131980D01*
G01X95470Y135160D02*
X98670Y136540D01*
G01X95570Y138950D02*
X95620Y139220D01*
X95780Y139520D01*
X96030Y139720D01*
X96400Y139790D01*
X96760Y139720D01*
X97070Y139490D01*
X97220Y139140D01*
Y138760D01*
X97330Y138530D01*
X97580Y138340D01*
X97950Y138260D01*
X98310Y138380D01*
X98570Y138640D01*
X98670Y138950D01*
X98570Y139260D01*
X98310Y139520D01*
X97950Y139640D01*
X97580Y139560D01*
X97330Y139370D01*
X97220Y139140D01*
Y138760D01*
X97070Y138410D01*
X96760Y138180D01*
X96400Y138110D01*
X96030Y138180D01*
X95780Y138380D01*
X95620Y138680D01*
X95570Y138950D01*
G01X96600Y141550D02*
Y142550D01*
G01X95980Y144340D02*
X95720Y144650D01*
X95570Y145000D01*
Y145300D01*
X95720Y145610D01*
X95980Y145840D01*
X96350Y145960D01*
X96710Y145880D01*
X97020Y145690D01*
X97220Y145340D01*
X97330Y144880D01*
X97530Y144610D01*
X97890Y144500D01*
X98260Y144580D01*
X98510Y144770D01*
X98670Y145030D01*
Y145300D01*
X98570Y145570D01*
X98310Y145800D01*
G01X98670Y147290D02*
X95570Y148250D01*
X98670Y149210D01*
G01X94540Y151160D02*
X95050Y150780D01*
X95570Y150580D01*
X97640D01*
X98150Y150780D01*
X98670Y151160D01*
G01X95570Y153640D02*
X98670D01*
G01Y155260D02*
X95570D01*
G01X97120D02*
Y153640D01*
G01X96960Y156980D02*
Y158200D01*
X97330Y158090D01*
X97530Y157900D01*
X97640Y157630D01*
X97580Y157360D01*
X97430Y157130D01*
X97070Y156980D01*
X96760Y156900D01*
X96450D01*
X96140Y156980D01*
X95830Y157170D01*
X95620Y157400D01*
X95570Y157670D01*
X95670Y157930D01*
X95980Y158200D01*
G01X95570Y161340D02*
X97640D01*
G01X97280D02*
X97480Y161190D01*
X97580Y160960D01*
X97640Y160690D01*
X97530Y160420D01*
X97330Y160190D01*
X97020Y160040D01*
X96600Y159960D01*
X96190Y160040D01*
X95880Y160190D01*
X95670Y160420D01*
X95570Y160690D01*
X95620Y160960D01*
X95780Y161190D01*
X95980Y161340D01*
G01X98670Y164440D02*
X95570D01*
G01X96030D02*
X95780Y164290D01*
X95620Y164060D01*
X95570Y163790D01*
X95670Y163480D01*
X95930Y163250D01*
X96240Y163100D01*
X96600Y163060D01*
X96960Y163100D01*
X97280Y163250D01*
X97530Y163480D01*
X97640Y163790D01*
X97580Y164060D01*
X97480Y164250D01*
X97280Y164440D01*
G01X96960Y166280D02*
Y167500D01*
X97330Y167390D01*
X97530Y167200D01*
X97640Y166930D01*
X97580Y166660D01*
X97430Y166430D01*
X97070Y166280D01*
X96760Y166200D01*
X96450D01*
X96140Y166280D01*
X95830Y166470D01*
X95620Y166700D01*
X95570Y166970D01*
X95670Y167230D01*
X95980Y167500D01*
G01X95570Y169410D02*
X97640D01*
G01X97220D02*
X97430Y169600D01*
X97580Y169800D01*
X97640Y170070D01*
X97580Y170260D01*
X97430Y170490D01*
G01X94540Y173240D02*
X95050Y173620D01*
X95570Y173820D01*
X97640D01*
X98150Y173620D01*
X98670Y173240D01*
G01X392720Y36500D02*
Y39600D01*
X391760D01*
X391450Y39440D01*
X391260Y39240D01*
X391180Y38820D01*
X391260Y38410D01*
X391490Y38150D01*
X391760Y38000D01*
X392720D01*
G01X391760D02*
X391180Y36500D01*
G01X388930D02*
X388850Y37170D01*
X388730Y37740D01*
X388580Y38260D01*
X388390Y38820D01*
X388080Y39600D01*
X389620D01*
G54D18*
G01X21800Y94700D02*
X10800D01*
Y89700D01*
X21800D01*
Y94700D01*
G01Y88300D02*
X10800D01*
Y83300D01*
X21800D01*
Y88300D01*
G01Y101200D02*
X10800D01*
Y96200D01*
X21800D01*
Y101200D01*
G01Y107100D02*
X10800D01*
Y102100D01*
X21800D01*
Y107100D01*
G01Y113000D02*
X10800D01*
Y108000D01*
X21800D01*
Y113000D01*
G01Y118900D02*
X10800D01*
Y113900D01*
X21800D01*
Y118900D01*
G01Y136300D02*
X10800D01*
Y131300D01*
X21800D01*
Y136300D01*
G01Y124900D02*
X10800D01*
Y119900D01*
X21800D01*
Y124900D01*
G01Y130400D02*
X10800D01*
Y125400D01*
X21800D01*
Y130400D01*
G01Y142200D02*
X10800D01*
Y137200D01*
X21800D01*
Y142200D01*
G01Y148400D02*
X10800D01*
Y143400D01*
X21800D01*
Y148400D01*
G01Y154300D02*
X10800D01*
Y149300D01*
X21800D01*
Y154300D01*
G01Y160200D02*
X10800D01*
Y155200D01*
X21800D01*
Y160200D01*
G01Y166100D02*
X10800D01*
Y161100D01*
X21800D01*
Y166100D01*
G01Y172000D02*
X10800D01*
Y167000D01*
X21800D01*
Y172000D01*
G01Y177900D02*
X10800D01*
Y172900D01*
X21800D01*
Y177900D01*
G01X56600Y89100D02*
X67600D01*
Y94100D01*
X56600D01*
Y89100D01*
G01Y83200D02*
X67600D01*
Y88200D01*
X56600D01*
Y83200D01*
G01Y96000D02*
X67600D01*
Y101000D01*
X56600D01*
Y96000D01*
G01Y101900D02*
X67600D01*
Y106900D01*
X56600D01*
Y101900D01*
G01Y107800D02*
X67600D01*
Y112800D01*
X56600D01*
Y107800D01*
G01Y113700D02*
X67600D01*
Y118700D01*
X56600D01*
Y113700D01*
G01Y131600D02*
X67600D01*
Y136600D01*
X56600D01*
Y131600D01*
G01Y119800D02*
X67600D01*
Y124800D01*
X56600D01*
Y119800D01*
G01Y125700D02*
X67600D01*
Y130700D01*
X56600D01*
Y125700D01*
G01Y137500D02*
X67600D01*
Y142500D01*
X56600D01*
Y137500D01*
G01Y143700D02*
X67600D01*
Y148700D01*
X56600D01*
Y143700D01*
G01Y149600D02*
X67600D01*
Y154600D01*
X56600D01*
Y149600D01*
G01Y155500D02*
X67600D01*
Y160500D01*
X56600D01*
Y155500D01*
G01Y161400D02*
X67600D01*
Y166400D01*
X56600D01*
Y161400D01*
G01Y167800D02*
X67600D01*
Y172800D01*
X56600D01*
Y167800D01*
G01Y173800D02*
X67600D01*
Y178800D01*
X56600D01*
Y173800D01*
G01X391100Y35000D02*
X380100D01*
Y30000D01*
X391100D01*
Y35000D01*
G54D19*
G01X2500Y30000D02*
X77500D01*
G03X80000Y32500I0J2500D01*
G01Y60000D01*
X290000D01*
X320000Y30000D01*
Y2500D01*
G03X322500Y0I2500J0D01*
G01X397500D01*
G03X400000Y2500I0J2500D01*
G01Y257500D01*
G03X397500Y260000I-2500J0D01*
G01X322500D01*
G03X320000Y257500I0J-2500D01*
G01Y230000D01*
X290000Y200000D01*
X80000D01*
Y227500D01*
G03X77500Y230000I-2500J0D01*
G01X2500D01*
G03X0Y227500I0J-2500D01*
G01Y32500D01*
G03X2500Y30000I2500J0D01*
M02*
