G04 ================== begin FILE IDENTIFICATION RECORD ==================*
G04 Layout Name:  AGET_ERNI2HRS.brd*
G04 Film Name:    art06*
G04 File Format:  Gerber RS274X*
G04 File Origin:  Cadence Allegro 16.6-S025*
G04 Origin Date:  Thu Sep 14 22:35:07 2017*
G04 *
G04 Layer:  VIA CLASS/BOTTOM*
G04 Layer:  PIN/BOTTOM*
G04 Layer:  ETCH/BOTTOM*
G04 Layer:  BOARD GEOMETRY/OUTLINE*
G04 *
G04 Offset:    (0.0 0.0)*
G04 Mirror:    Yes*
G04 Mode:      Positive*
G04 Rotation:  0*
G04 FullContactRelief:  No*
G04 UndefLineWidth:     0.0*
G04 ================== end FILE IDENTIFICATION RECORD ====================*
%FSLAX25Y25*MOIN*%
%IR0*IPPOS*OFA0.00000B0.00000*MIA1B0*SFA1.00000B1.00000*%
%ADD15R,.122X.063*%
%ADD14C,.176*%
%ADD13R,.03X.032*%
%ADD12C,.06*%
%ADD11C,.016*%
%ADD10C,.028*%
%ADD16R,.0433X.0118*%
%ADD18C,.0709*%
%ADD17R,.0591X.0276*%
%ADD19C,.006*%
%ADD25R,.1322X.0732*%
%ADD26C,.1864*%
%ADD21R,.0402X.0422*%
%ADD27C,.0812*%
%ADD23C,.0704*%
%ADD24C,.0264*%
%ADD22C,.0284*%
%ADD20C,.0384*%
G75*
%LPD*%
G75*
G36*
G01X76000Y34000D02*
X4000D01*
Y226000D01*
X76000D01*
Y34000D01*
G37*
G36*
G01X396000Y4000D02*
X324000D01*
Y256000D01*
X396000D01*
Y4000D01*
G37*
%LPC*%
G75*
G36*
G01X26990Y83910D02*
G03X26530Y84310I-399J6D01*
G02X25210Y84800I-231J1401D01*
G01X21410D01*
Y83590D01*
X17190D01*
Y88010D01*
X21410D01*
Y86710D01*
X21980D01*
X22070Y86620D01*
X25210D01*
G02X26610Y87100I1094J-908D01*
G03X27090Y87490I83J388D01*
G01Y87860D01*
G03X26610Y88250I-397J2D01*
G02X24980Y90150I-306J1386D01*
G03X24600Y90700I-373J149D01*
G01X21810D01*
X21750Y90760D01*
G03X21410Y90620I-141J-142D01*
G01Y89990D01*
X17190D01*
Y94410D01*
X21410D01*
Y93110D01*
X21980D01*
X22570Y92520D01*
X26990D01*
Y92810D01*
X27080D01*
Y96320D01*
X26990D01*
Y97690D01*
G03X26530Y98090I-399J6D01*
G02X25210Y98580I-231J1401D01*
G01X22770D01*
X21980Y97790D01*
X21410D01*
Y96490D01*
X17190D01*
Y100910D01*
X21410D01*
Y100280D01*
G03X21750Y100140I199J2D01*
G01X22010Y100400D01*
X25210D01*
G02X26610Y100880I1094J-908D01*
G03X27090Y101270I83J388D01*
G01Y101640D01*
G03X26610Y102030I-397J2D01*
G02X24980Y103930I-306J1386D01*
G03X24600Y104480I-373J149D01*
G01X22770D01*
X21980Y103690D01*
X21410D01*
Y102390D01*
X17190D01*
Y106810D01*
X21410D01*
Y106180D01*
G03X21750Y106040I199J2D01*
G01X22010Y106300D01*
X24140D01*
G03X24520Y106850I7J401D01*
G02Y107870I1320J510D01*
G03X24140Y108420I-373J149D01*
G01X22390D01*
X22090Y108720D01*
G03X21410Y108440I-281J-284D01*
G01Y108290D01*
X17190D01*
Y112710D01*
X21410D01*
Y111410D01*
X21980D01*
X23150Y110240D01*
X26990D01*
Y110530D01*
X27090D01*
Y112070D01*
X26990D01*
Y113490D01*
G03X26480Y113870I-398J-2D01*
G02X24650Y115270I-410J1360D01*
G01Y115360D01*
X24520Y115490D01*
X21410D01*
Y114190D01*
X17190D01*
Y118610D01*
X21410D01*
Y117310D01*
X25280D01*
X25940Y116650D01*
X26030D01*
G02X26780Y116460I39J-1420D01*
G01X26830Y116430D01*
X27080D01*
Y119360D01*
G03X26600Y119750I-398J1D01*
G02X24980Y121650I-297J1388D01*
G03X24600Y122200I-373J149D01*
G01X22690D01*
X21980Y121490D01*
X21410D01*
Y120190D01*
X17190D01*
Y124610D01*
X21410D01*
Y123980D01*
G03X21750Y123840I199J2D01*
G01X21930Y124020D01*
X26990D01*
Y124310D01*
X27090D01*
Y125850D01*
X26990D01*
Y127210D01*
G03X26530Y127610I-399J6D01*
G02X25210Y128100I-231J1401D01*
G01X23090D01*
X21980Y126990D01*
X21410D01*
Y125690D01*
X17190D01*
Y130110D01*
X21410D01*
Y129960D01*
G03X22090Y129680I399J4D01*
G01X22330Y129920D01*
X25210D01*
G02X26530Y130410I1089J-911D01*
G03X26990Y130810I61J394D01*
G01Y131150D01*
G03X26530Y131550I-399J6D01*
G02X25210Y132040I-231J1401D01*
G01X22070D01*
G03X21410Y131740I-260J-303D01*
G01Y131590D01*
X17190D01*
Y136010D01*
X21410D01*
Y134710D01*
X21980D01*
X22830Y133860D01*
X25210D01*
G02X26610Y134340I1094J-908D01*
G03X27090Y134730I83J388D01*
G01Y135110D01*
G03X26610Y135500I-397J2D01*
G02X24980Y137400I-306J1386D01*
G03X24600Y137950I-373J149D01*
G01X22060D01*
G03X21410Y137640I-250J-313D01*
G01Y137490D01*
X17190D01*
Y141910D01*
X21410D01*
Y140610D01*
X21980D01*
X22820Y139770D01*
X26990D01*
Y140060D01*
X27080D01*
Y143560D01*
X26990D01*
Y144930D01*
G03X26530Y145330I-399J6D01*
G02X25210Y145820I-231J1401D01*
G01X22810D01*
X21980Y144990D01*
X21410D01*
Y143690D01*
X17190D01*
Y148110D01*
X21410D01*
Y147960D01*
G03X22050Y147640I401J1D01*
G01X25210D01*
G02X26610Y148120I1094J-908D01*
G03X27090Y148510I83J388D01*
G01Y148890D01*
G03X26610Y149280I-397J2D01*
G02X24980Y151180I-306J1386D01*
G03X24600Y151730I-373J149D01*
G01X22820D01*
X21980Y150890D01*
X21410D01*
Y149590D01*
X17190D01*
Y154010D01*
X21410D01*
Y153860D01*
G03X22060Y153550I400J3D01*
G01X24600D01*
G03X24970Y154090I-2J398D01*
G02X24980Y155110I1330J497D01*
G03X24600Y155660I-373J149D01*
G01X22350D01*
X22090Y155920D01*
G03X21410Y155640I-281J-284D01*
G01Y155490D01*
X17190D01*
Y159910D01*
X21410D01*
Y158610D01*
X21980D01*
X23110Y157480D01*
X26990D01*
Y157770D01*
X27090D01*
Y159310D01*
X26990D01*
Y160680D01*
G03X26530Y161080I-399J6D01*
G02X25210Y161570I-231J1401D01*
G01X22340D01*
X22090Y161820D01*
G03X21410Y161540I-281J-284D01*
G01Y161390D01*
X17190D01*
Y165810D01*
X21410D01*
Y164510D01*
X21980D01*
X23100Y163390D01*
X25210D01*
G02X26600Y163870I1092J-909D01*
G03X27080Y164260I82J389D01*
G01Y166600D01*
G03X26600Y166990I-398J1D01*
G02X24980Y168890I-297J1388D01*
G03X24600Y169440I-373J149D01*
G01X22830D01*
X21980Y168590D01*
X21410D01*
Y167290D01*
X17190D01*
Y171710D01*
X21410D01*
Y171560D01*
G03X22070Y171260I400J3D01*
G01X26990D01*
Y171550D01*
X27090D01*
Y173090D01*
X26990D01*
Y174460D01*
G03X26530Y174860I-399J6D01*
G02X25210Y175350I-231J1401D01*
G01X22840D01*
X21980Y174490D01*
X21410D01*
Y173190D01*
X17190D01*
Y177610D01*
X21410D01*
Y177460D01*
G03X22080Y177170I399J4D01*
G01X25210D01*
G02X27060Y177460I1090J-910D01*
G01X32550D01*
Y176070D01*
G03X33020Y175680I399J3D01*
G02X32950Y172920I286J-1388D01*
G03X32450Y172530I-100J-388D01*
G01Y172110D01*
G03X32950Y171720I400J-2D01*
G02X33020Y168960I356J-1372D01*
G03X32550Y168570I-71J-393D01*
G01Y167320D01*
X34020D01*
Y163540D01*
X32550D01*
Y162290D01*
G03X33020Y161900I399J3D01*
G02X32950Y159140I286J-1388D01*
G03X32450Y158750I-100J-388D01*
G01Y158330D01*
G03X32950Y157940I400J-2D01*
G02X33020Y155180I356J-1372D01*
G03X32550Y154790I-71J-393D01*
G01Y154420D01*
G03X33020Y154030I399J3D01*
G02Y151250I280J-1390D01*
G03X32550Y150860I-71J-393D01*
G01Y149470D01*
X32450D01*
Y147930D01*
X32550D01*
Y146540D01*
G03X33020Y146150I399J3D01*
G02X34020Y143530I284J-1392D01*
G01Y140090D01*
G02X33020Y137470I-716J-1228D01*
G03X32550Y137080I-71J-393D01*
G01Y135690D01*
X32450D01*
Y134150D01*
X32550D01*
Y132740D01*
G03X33050Y132350I400J-2D01*
G02Y129610I350J-1370D01*
G03X32550Y129220I-100J-388D01*
G01Y128800D01*
G03X33060Y128410I400J-6D01*
G02X32980Y125710I393J-1363D01*
G03X32450Y125330I-132J-376D01*
G01Y124870D01*
G03X32950Y124480I400J-2D01*
G02X33020Y121720I356J-1372D01*
G03X32550Y121330I-71J-393D01*
G01Y120080D01*
X34020D01*
Y116300D01*
X32550D01*
Y114890D01*
G03X33130Y114540I397J3D01*
G02X32870Y112170I639J-1269D01*
G01X32820Y112220D01*
X32550D01*
Y112070D01*
X32450D01*
Y111060D01*
G03X32970Y110680I399J1D01*
G02X33050Y107960I435J-1348D01*
G03X32550Y107570I-100J-388D01*
G01Y107170D01*
G03X33020Y106780I399J3D01*
G02Y104000I280J-1390D01*
G03X32550Y103610I-71J-393D01*
G01Y102220D01*
X32450D01*
Y100690D01*
X32550D01*
Y99300D01*
G03X33020Y98910I399J3D01*
G02X34020Y96290I284J-1392D01*
G01Y92840D01*
G02X33020Y90220I-716J-1228D01*
G03X32550Y89830I-71J-393D01*
G01Y88440D01*
X32450D01*
Y86910D01*
X32550D01*
Y85520D01*
G03X33020Y85130I399J3D01*
G02X32540Y82540I280J-1391D01*
G01X26990D01*
Y83910D01*
G37*
G36*
G01X47460Y85520D02*
Y86910D01*
X47560D01*
Y88440D01*
X47460D01*
Y89830D01*
G03X46980Y90220I-399J-1D01*
G02X45980Y92840I-284J1392D01*
G01Y96290D01*
G02X46980Y98910I716J1228D01*
G03X47460Y99300I81J391D01*
G01Y100690D01*
X47560D01*
Y102220D01*
X47460D01*
Y103610D01*
G03X46980Y104000I-399J-1D01*
G02Y106780I-280J1390D01*
G03X47460Y107170I81J391D01*
G01Y107550D01*
G03X46980Y107940I-399J-1D01*
G02X47060Y110700I-284J1389D01*
G03X47560Y111090I101J386D01*
G01Y111510D01*
G03X47060Y111900I-399J4D01*
G02X46980Y114660I-364J1371D01*
G03X47460Y115050I81J391D01*
G01Y116300D01*
X45980D01*
Y120080D01*
X47460D01*
Y121330D01*
G03X46980Y121720I-399J-1D01*
G02X47060Y124480I-284J1389D01*
G03X47560Y124870I101J386D01*
G01Y125290D01*
G03X47060Y125680I-399J4D01*
G02X46980Y128440I-364J1371D01*
G03X47460Y128830I81J391D01*
G01Y129200D01*
G03X46980Y129590I-399J-1D01*
G02Y132370I-280J1390D01*
G03X47460Y132760I81J391D01*
G01Y134150D01*
X47560D01*
Y135690D01*
X47460D01*
Y137080D01*
G03X46980Y137470I-399J-1D01*
G02X45980Y140090I-284J1392D01*
G01Y143530D01*
G02X46980Y146150I716J1228D01*
G03X47460Y146540I81J391D01*
G01Y147930D01*
X47560D01*
Y149470D01*
X47460D01*
Y150860D01*
G03X46980Y151250I-399J-1D01*
G02Y154030I-280J1390D01*
G03X47460Y154420I81J391D01*
G01Y154790D01*
G03X46980Y155180I-399J-1D01*
G02X47060Y157940I-284J1389D01*
G03X47560Y158330I101J386D01*
G01Y158750D01*
G03X47060Y159140I-399J4D01*
G02X46980Y161900I-364J1371D01*
G03X47460Y162290I81J391D01*
G01Y163540D01*
X45980D01*
Y167320D01*
X47460D01*
Y168570D01*
G03X46980Y168960I-399J-1D01*
G02X47060Y171720I-284J1389D01*
G03X47560Y172110I101J386D01*
G01Y172530D01*
G03X47060Y172920I-399J4D01*
G02X46980Y175680I-364J1371D01*
G03X47460Y176070I81J391D01*
G01Y177460D01*
X53040D01*
G02X54890Y177170I760J-1200D01*
G01X56380D01*
X56420Y177210D01*
X56990D01*
Y178510D01*
X61210D01*
Y174090D01*
X56990D01*
Y175350D01*
X54890D01*
G02X53500Y174870I-1092J909D01*
G03X53020Y174480I-82J-389D01*
G01Y173090D01*
X52920D01*
Y171550D01*
X53020D01*
Y171260D01*
X56990D01*
Y172510D01*
X61210D01*
Y168090D01*
X56990D01*
Y169390D01*
X56420D01*
X56370Y169440D01*
X55500D01*
G03X55120Y168890I-7J-401D01*
G02X53420Y167010I-1323J-512D01*
G03X52920Y166630I-102J-384D01*
G01Y164230D01*
G03X53420Y163850I398J4D01*
G02X53840Y163900I376J-1370D01*
G01X53930D01*
X54840Y164810D01*
X56990D01*
Y166110D01*
X61210D01*
Y161690D01*
X56990D01*
Y162990D01*
X55600D01*
X55220Y162610D01*
Y162520D01*
G02X53500Y161090I-1420J-41D01*
G03X53020Y160700I-82J-389D01*
G01Y159310D01*
X52920D01*
Y157770D01*
X53020D01*
Y157480D01*
X54990D01*
X56420Y158910D01*
X56990D01*
Y160210D01*
X61210D01*
Y155790D01*
X56990D01*
Y155940D01*
G03X56310Y156220I-399J-4D01*
G01X55750Y155660D01*
X55700D01*
G03X55320Y155110I-7J-401D01*
G02X55330Y154090I-1320J-523D01*
G03X55700Y153550I372J-142D01*
G01X56640D01*
X56650Y153540D01*
G03X56990Y153680I141J142D01*
G01Y154310D01*
X61210D01*
Y149890D01*
X56990D01*
Y151190D01*
X56420D01*
X55880Y151730D01*
X55500D01*
G03X55120Y151180I-7J-401D01*
G02X53420Y149300I-1323J-512D01*
G03X52920Y148920I-102J-384D01*
G01Y148480D01*
G03X53420Y148100I398J4D01*
G02X54890Y147640I379J-1369D01*
G01X56650D01*
G03X56990Y147780I141J142D01*
G01Y148410D01*
X61210D01*
Y143990D01*
X56990D01*
Y145290D01*
X56420D01*
X55890Y145820D01*
X54890D01*
G02X53500Y145340I-1092J909D01*
G03X53020Y144950I-82J-389D01*
G01Y143560D01*
X52920D01*
Y140060D01*
X53020D01*
Y139770D01*
X55280D01*
X56420Y140910D01*
X56990D01*
Y142210D01*
X61210D01*
Y137790D01*
X56990D01*
Y137940D01*
G03X56310Y138220I-399J-4D01*
G01X56040Y137950D01*
X55500D01*
G03X55120Y137400I-7J-401D01*
G02X53420Y135520I-1323J-512D01*
G03X52920Y135140I-102J-384D01*
G01Y134700D01*
G03X53420Y134320I398J4D01*
G02X53840Y134370I376J-1370D01*
G01X53930D01*
X54570Y135010D01*
X56990D01*
Y136310D01*
X61210D01*
Y131890D01*
X56990D01*
Y133190D01*
X55610D01*
G03X55210Y132820I0J-401D01*
G02X53500Y131560I-1414J128D01*
G03X53020Y131170I-82J-389D01*
G01Y130790D01*
G03X53500Y130400I398J-1D01*
G02X54890Y129920I298J-1389D01*
G01X56370D01*
X56650Y129640D01*
G03X56990Y129780I141J142D01*
G01Y130410D01*
X61210D01*
Y125990D01*
X56990D01*
Y127290D01*
X56420D01*
X55610Y128100D01*
X54890D01*
G02X53500Y127620I-1092J909D01*
G03X53020Y127230I-82J-389D01*
G01Y125850D01*
X52920D01*
Y124310D01*
X53020D01*
Y124020D01*
X56370D01*
X56650Y123740D01*
G03X56990Y123880I141J142D01*
G01Y124510D01*
X61210D01*
Y120090D01*
X56990D01*
Y121390D01*
X56420D01*
X55610Y122200D01*
X55500D01*
G03X55120Y121650I-7J-401D01*
G02X53420Y119770I-1323J-512D01*
G03X52920Y119390I-102J-384D01*
G01Y116430D01*
X53170D01*
X53220Y116460D01*
G02X55020Y116140I710J-1230D01*
G01X55450D01*
X56420Y117110D01*
X56990D01*
Y118410D01*
X61210D01*
Y113990D01*
X56990D01*
Y114140D01*
G03X56310Y114420I-399J-4D01*
G01X56210Y114320D01*
X55020D01*
G02X53530Y113870I-1088J911D01*
G03X53020Y113480I-111J-383D01*
G01Y112070D01*
X52920D01*
Y111290D01*
G03X53600Y111010I398J0D01*
G01X53800Y111210D01*
X56990D01*
Y112510D01*
X61210D01*
Y108090D01*
X56990D01*
Y109390D01*
X54560D01*
X54400Y109230D01*
G03X54490Y108600I284J-281D01*
G02X55120Y106850I-692J-1238D01*
G03X55500Y106300I373J-149D01*
G01X56190D01*
X56310Y106180D01*
G03X56990Y106460I281J284D01*
G01Y106610D01*
X61210D01*
Y102190D01*
X56990D01*
Y103490D01*
X56420D01*
X55430Y104480D01*
X55170D01*
G03X55000Y104170I0J-202D01*
G02X53420Y102050I-1203J-752D01*
G03X52920Y101670I-102J-384D01*
G01Y101240D01*
G03X53420Y100860I398J4D01*
G02X54890Y100400I379J-1369D01*
G01X56190D01*
X56310Y100280D01*
G03X56990Y100560I281J284D01*
G01Y100710D01*
X61210D01*
Y96290D01*
X56990D01*
Y97590D01*
X56420D01*
X55430Y98580D01*
X54890D01*
G02X53500Y98100I-1092J909D01*
G03X53020Y97710I-82J-389D01*
G01Y96320D01*
X52920D01*
Y92810D01*
X53020D01*
Y92520D01*
X56990D01*
Y93810D01*
X61210D01*
Y89390D01*
X56990D01*
Y90690D01*
X56420D01*
X56410Y90700D01*
X55500D01*
G03X55120Y90150I-7J-401D01*
G02X53420Y88270I-1323J-512D01*
G03X52920Y87890I-102J-384D01*
G01Y87460D01*
G03X53420Y87080I398J4D01*
G02X54890Y86620I379J-1369D01*
G01X56990D01*
Y87910D01*
X61210D01*
Y83490D01*
X56990D01*
Y84790D01*
X56420D01*
X56410Y84800D01*
X54890D01*
G02X53500Y84320I-1092J909D01*
G03X53020Y83930I-82J-389D01*
G01Y82540D01*
X47460D01*
G02X46980Y85130I-760J1199D01*
G03X47460Y85520I81J391D01*
G37*
G36*
G01X46610Y185730D02*
G03X47230Y185400I398J1D01*
G02X46570Y184630I1077J-1591D01*
G03X46210Y185200I-362J170D01*
G01X33390D01*
Y192520D01*
X46610D01*
Y185730D01*
G37*
G36*
G01X384710Y34710D02*
Y30290D01*
X380490D01*
Y31590D01*
X379590D01*
G02Y33410I-1090J910D01*
G01X380490D01*
Y34710D01*
X384710D01*
G37*
G54D25*
X40000Y71140D03*
G54D26*
Y50000D03*
Y210000D03*
X340000Y240000D03*
Y20000D03*
G54D21*
X65100Y176300D03*
Y170300D03*
Y163900D03*
Y158000D03*
Y152100D03*
Y146200D03*
Y140000D03*
Y128200D03*
Y122300D03*
Y134100D03*
Y116200D03*
Y110300D03*
Y104400D03*
Y98500D03*
Y85700D03*
Y91600D03*
X13300Y175400D03*
Y169500D03*
Y163600D03*
Y157700D03*
Y151800D03*
Y145900D03*
Y139700D03*
Y127900D03*
Y122400D03*
Y133800D03*
Y116400D03*
Y110500D03*
Y104600D03*
Y98700D03*
Y85800D03*
Y92200D03*
X388600Y32500D03*
G54D27*
X383170Y236200D03*
Y23800D03*
G54D23*
X60000Y217500D03*
Y42500D03*
X20000Y217500D03*
Y42500D03*
X389300Y249600D03*
X390400Y11300D03*
X363400Y249200D03*
X369900Y10800D03*
G54D24*
X29500Y182600D03*
X41500Y176100D03*
X36800Y177900D03*
X36700Y169200D03*
X41700Y169000D03*
X37000Y163000D03*
X42500Y162800D03*
X37900Y156600D03*
X42300D03*
X37400Y145200D03*
X36700Y150600D03*
X40800D03*
X42500Y145200D03*
X37400Y140900D03*
X37700Y131200D03*
X42500Y131600D03*
X38600Y113200D03*
X42300D03*
X37500Y97300D03*
X42500Y97400D03*
X37400Y89600D03*
X43700D03*
X39200Y81700D03*
X32600Y79200D03*
X23800Y188600D03*
X22600Y181200D03*
X6300Y175600D03*
Y170600D03*
Y165600D03*
Y160600D03*
Y155600D03*
Y150600D03*
Y145600D03*
Y140600D03*
Y135600D03*
Y130600D03*
Y125600D03*
Y120600D03*
Y115600D03*
Y110600D03*
Y105600D03*
Y100600D03*
Y95600D03*
Y90600D03*
Y85600D03*
Y80600D03*
X48700Y192600D03*
X387300Y227800D03*
Y222800D03*
Y217800D03*
Y212800D03*
Y207800D03*
Y202800D03*
Y197800D03*
Y192800D03*
Y187800D03*
Y182800D03*
Y177800D03*
Y172800D03*
Y167800D03*
Y162800D03*
Y157800D03*
Y152800D03*
Y147800D03*
Y142800D03*
Y137800D03*
Y132800D03*
Y127800D03*
Y122800D03*
Y117800D03*
Y112800D03*
Y107800D03*
Y102800D03*
Y97800D03*
Y92800D03*
Y87800D03*
Y82800D03*
Y77800D03*
Y72800D03*
Y67800D03*
Y62800D03*
Y57800D03*
Y52800D03*
Y47800D03*
Y42800D03*
X334200Y37300D03*
X339700Y37600D03*
X343100Y32600D03*
X328500Y37500D03*
X328400Y31200D03*
G54D22*
X70000Y110900D03*
X379400Y227500D03*
Y207500D03*
Y212500D03*
Y222500D03*
Y202500D03*
Y197500D03*
Y192500D03*
Y172500D03*
Y182500D03*
Y177500D03*
Y152500D03*
Y162500D03*
Y167500D03*
Y147500D03*
Y142500D03*
Y137500D03*
Y117500D03*
Y132500D03*
Y122500D03*
Y107500D03*
Y112500D03*
Y102500D03*
Y82500D03*
Y92500D03*
Y87500D03*
Y72500D03*
Y77500D03*
Y57500D03*
Y62500D03*
Y47500D03*
Y52500D03*
Y42500D03*
X366500Y227500D03*
Y207500D03*
Y212500D03*
Y217500D03*
Y222500D03*
Y197500D03*
Y202500D03*
Y172500D03*
Y177500D03*
Y182500D03*
Y187500D03*
Y152500D03*
Y157500D03*
Y167500D03*
Y137500D03*
Y142500D03*
Y147500D03*
X362200Y124900D03*
X366500Y122500D03*
X367100Y114000D03*
X363300Y115800D03*
X367000Y100800D03*
X364340Y107500D03*
X362200Y92500D03*
X366500Y82500D03*
Y87500D03*
Y67500D03*
Y77500D03*
Y52500D03*
Y47500D03*
Y57500D03*
Y62500D03*
G54D20*
X34600Y196300D03*
X64900Y207600D03*
X65300Y198000D03*
X67500Y50000D03*
X67400Y63700D03*
X54700Y207600D03*
Y197600D03*
X49300Y75100D03*
X58600Y51800D03*
X48460Y63560D03*
X58500Y63800D03*
X30200Y190200D03*
X41000Y181600D03*
X29800Y70500D03*
X29500Y76100D03*
X44900Y77800D03*
X38400Y63300D03*
X14700Y207600D03*
X24700D03*
X14700Y197600D03*
X24700D03*
X16300Y188300D03*
Y75000D03*
X23300Y75300D03*
X17800Y67700D03*
X24500Y67900D03*
X18500Y60400D03*
Y50400D03*
X27290Y62310D03*
X9900Y187100D03*
X8400Y75000D03*
X8700Y67600D03*
X8500Y60400D03*
Y50400D03*
X44800Y196100D03*
%LPD*%
G75*
G54D10*
X8500Y50400D03*
Y60400D03*
X8700Y67600D03*
X8400Y75000D03*
X9900Y187100D03*
X18500Y50400D03*
X27290Y62310D03*
X18500Y60400D03*
X24500Y67900D03*
X17800Y67700D03*
X23300Y75300D03*
X16300Y75000D03*
Y188300D03*
X24700Y197600D03*
X14700D03*
X24700Y207600D03*
X14700D03*
X38400Y63300D03*
X44900Y77800D03*
X29500Y76100D03*
X29800Y70500D03*
X41000Y181600D03*
X44800Y196100D03*
X34600Y196300D03*
X30200Y190200D03*
X58600Y51800D03*
X58500Y63800D03*
X48460Y63560D03*
X49300Y75100D03*
X48300Y183800D03*
X54700Y197600D03*
Y207600D03*
X67500Y50000D03*
X67400Y63700D03*
X65300Y198000D03*
X64900Y207600D03*
G54D11*
X6300Y80600D03*
Y85600D03*
Y90600D03*
Y95600D03*
Y100600D03*
Y105600D03*
Y110600D03*
Y115600D03*
Y120600D03*
Y125600D03*
Y130600D03*
Y135600D03*
Y140600D03*
Y145600D03*
Y150600D03*
Y155600D03*
Y160600D03*
Y165600D03*
Y170600D03*
Y175600D03*
X26300Y85710D03*
Y89640D03*
Y99490D03*
Y103420D03*
X25840Y107360D03*
X26070Y115230D03*
X26300Y132950D03*
Y129010D03*
Y121140D03*
Y150670D03*
Y146730D03*
Y136890D03*
Y162480D03*
Y154600D03*
Y168380D03*
X22600Y181200D03*
X26300Y176260D03*
X23800Y188600D03*
X32600Y79200D03*
X33300Y97520D03*
X39200Y81700D03*
X43700Y89600D03*
X37400D03*
X42500Y97400D03*
X37500Y97300D03*
X33300Y83740D03*
Y91610D03*
Y105390D03*
X33770Y113270D03*
X42300Y113200D03*
X38600D03*
X33400Y109330D03*
Y130980D03*
X42500Y131600D03*
X37700Y131200D03*
X33450Y127050D03*
X33300Y123110D03*
Y138860D03*
X37400Y140900D03*
X42500Y145200D03*
X40800Y150600D03*
X36700D03*
X37400Y145200D03*
X33300Y144760D03*
Y160510D03*
X42300Y156600D03*
X37900D03*
X42500Y162800D03*
X37000Y163000D03*
X41700Y169000D03*
X36700Y169200D03*
X33300Y156570D03*
Y170350D03*
Y152640D03*
X36800Y177900D03*
X41500Y176100D03*
X29500Y182600D03*
X33300Y174290D03*
X53800Y89640D03*
X46700Y83740D03*
X53800Y85710D03*
X46700Y97520D03*
Y91610D03*
X53800Y107360D03*
Y103420D03*
Y99490D03*
X46700Y109330D03*
Y113270D03*
Y105390D03*
X53930Y115230D03*
X46700Y127050D03*
X53800Y129010D03*
X46700Y130980D03*
X53800Y121140D03*
X46700Y123110D03*
X53800Y132950D03*
Y146730D03*
Y136890D03*
Y150670D03*
X46700Y144760D03*
Y138860D03*
Y152640D03*
Y156570D03*
Y170350D03*
X53800Y168380D03*
X46700Y160510D03*
X53800Y162480D03*
X54000Y154600D03*
X46700Y174290D03*
X53800Y176260D03*
X48700Y192600D03*
X70000Y110900D03*
X328400Y31200D03*
X328500Y37500D03*
X343100Y32600D03*
X339700Y37600D03*
X334200Y37300D03*
X366500Y52500D03*
Y57500D03*
Y47500D03*
Y62500D03*
Y67500D03*
Y77500D03*
Y87500D03*
Y82500D03*
X362200Y92500D03*
X364340Y107500D03*
X367000Y100800D03*
X363300Y115800D03*
X367100Y114000D03*
X362200Y124900D03*
X366500Y122500D03*
Y142500D03*
Y147500D03*
Y137500D03*
Y157500D03*
Y152500D03*
Y167500D03*
Y177500D03*
Y172500D03*
Y187500D03*
Y182500D03*
Y202500D03*
Y197500D03*
Y207500D03*
Y222500D03*
Y217500D03*
Y212500D03*
Y227500D03*
X379400Y42500D03*
X378500Y32500D03*
X379400Y52500D03*
Y47500D03*
Y62500D03*
Y57500D03*
Y77500D03*
Y72500D03*
Y87500D03*
Y92500D03*
Y82500D03*
Y102500D03*
Y112500D03*
Y107500D03*
Y122500D03*
Y132500D03*
Y117500D03*
Y137500D03*
Y142500D03*
Y147500D03*
Y167500D03*
Y162500D03*
Y152500D03*
Y177500D03*
Y182500D03*
Y172500D03*
Y192500D03*
Y197500D03*
Y202500D03*
Y222500D03*
Y212500D03*
Y207500D03*
Y227500D03*
X387300Y42800D03*
Y47800D03*
Y52800D03*
Y57800D03*
Y62800D03*
Y67800D03*
Y72800D03*
Y77800D03*
Y82800D03*
Y87800D03*
Y92800D03*
Y97800D03*
Y102800D03*
Y107800D03*
Y112800D03*
Y117800D03*
Y122800D03*
Y127800D03*
Y132800D03*
Y137800D03*
Y142800D03*
Y147800D03*
Y152800D03*
Y157800D03*
Y162800D03*
Y167800D03*
Y172800D03*
Y177800D03*
Y182800D03*
Y187800D03*
Y192800D03*
Y197800D03*
Y202800D03*
Y207800D03*
Y212800D03*
Y217800D03*
Y222800D03*
Y227800D03*
G54D12*
X20000Y42500D03*
Y217500D03*
X60000Y42500D03*
Y217500D03*
X369900Y10800D03*
X363400Y249200D03*
X390400Y11300D03*
X389300Y249600D03*
G54D13*
X19300Y92200D03*
X13300D03*
X19300Y85800D03*
X13300D03*
X19300Y98700D03*
X13300D03*
X19300Y104600D03*
X13300D03*
X19300Y110500D03*
X13300D03*
X19300Y116400D03*
X13300D03*
X19300Y133800D03*
X13300D03*
X19300Y122400D03*
X13300D03*
X19300Y127900D03*
X13300D03*
X19300Y139700D03*
X13300D03*
X19300Y145900D03*
X13300D03*
X19300Y151800D03*
X13300D03*
X19300Y157700D03*
X13300D03*
X19300Y163600D03*
X13300D03*
X19300Y169500D03*
X13300D03*
X19300Y175400D03*
X13300D03*
X59100Y91600D03*
Y85700D03*
Y98500D03*
Y104400D03*
Y110300D03*
Y116200D03*
Y134100D03*
Y122300D03*
Y128200D03*
Y140000D03*
Y146200D03*
Y152100D03*
Y158000D03*
Y163900D03*
Y170300D03*
Y176300D03*
X65100Y91600D03*
Y85700D03*
Y98500D03*
Y104400D03*
Y110300D03*
Y116200D03*
Y134100D03*
Y122300D03*
Y128200D03*
Y140000D03*
Y146200D03*
Y152100D03*
Y158000D03*
Y163900D03*
Y170300D03*
Y176300D03*
X382600Y32500D03*
X388600D03*
G54D14*
X40000Y50000D03*
Y210000D03*
X340000Y20000D03*
Y240000D03*
G54D15*
X40000Y71140D03*
Y188860D03*
G54D16*
X29770Y97520D03*
Y91610D03*
Y89640D03*
Y87680D03*
Y85710D03*
Y83740D03*
Y115230D03*
Y113270D03*
Y111300D03*
Y109330D03*
Y107360D03*
Y105390D03*
Y103420D03*
Y101450D03*
Y99490D03*
Y132950D03*
Y130980D03*
Y129010D03*
Y127050D03*
Y125080D03*
Y123110D03*
Y121140D03*
Y150670D03*
Y148700D03*
Y146730D03*
Y144760D03*
Y138860D03*
Y136890D03*
Y134920D03*
Y168380D03*
Y162480D03*
Y160510D03*
Y158540D03*
Y156570D03*
Y154600D03*
Y152640D03*
Y176260D03*
Y174290D03*
Y172320D03*
Y170350D03*
X50240Y97520D03*
Y91610D03*
Y89640D03*
Y87680D03*
Y85710D03*
Y83740D03*
Y115230D03*
Y113270D03*
Y111300D03*
Y109330D03*
Y107360D03*
Y105390D03*
Y103420D03*
Y101450D03*
Y99490D03*
Y132950D03*
Y130980D03*
Y129010D03*
Y127050D03*
Y125080D03*
Y123110D03*
Y121140D03*
Y150670D03*
Y148700D03*
Y146730D03*
Y144760D03*
Y138860D03*
Y136890D03*
Y134920D03*
Y168380D03*
Y162480D03*
Y160510D03*
Y158540D03*
Y156570D03*
Y154600D03*
Y152640D03*
Y176260D03*
Y174290D03*
Y172320D03*
Y170350D03*
G54D17*
X30550Y94560D03*
Y118190D03*
Y141810D03*
Y165430D03*
X49450Y94560D03*
Y118190D03*
Y141810D03*
Y165430D03*
G54D18*
X383170Y23800D03*
Y236200D03*
G54D19*
G01X2500Y30000D02*
X77500D01*
G03X80000Y32500I0J2500D01*
G01Y60000D01*
X290000D01*
X320000Y30000D01*
Y2500D01*
G03X322500Y0I2500J0D01*
G01X397500D01*
G03X400000Y2500I0J2500D01*
G01Y257500D01*
G03X397500Y260000I-2500J0D01*
G01X322500D01*
G03X320000Y257500I0J-2500D01*
G01Y230000D01*
X290000Y200000D01*
X80000D01*
Y227500D01*
G03X77500Y230000I-2500J0D01*
G01X2500D01*
G03X0Y227500I0J-2500D01*
G01Y32500D01*
G03X2500Y30000I2500J0D01*
G01X6810Y58710D02*
X8500Y60400D01*
G01X6810Y62090D02*
X8500Y60400D01*
G01X6810Y48710D02*
X8500Y50400D01*
G01X6810Y52090D02*
X8500Y50400D01*
G01X6710Y73310D02*
X8400Y75000D01*
G01X6710Y76690D02*
X8400Y75000D01*
G01X7010Y65910D02*
X8700Y67600D01*
G01X7010Y69290D02*
X8700Y67600D01*
G01X5030Y79330D02*
X6300Y80600D01*
G01D02*
X7570Y79330D01*
G01X5030Y94330D02*
X6300Y95600D01*
G01D02*
X7570Y96870D01*
G01X5030D02*
X6300Y95600D01*
G01D02*
X7570Y94330D01*
G01X5030Y89330D02*
X6300Y90600D01*
G01D02*
X7570Y91870D01*
G01X5030D02*
X6300Y90600D01*
G01D02*
X7570Y89330D01*
G01X5030Y84330D02*
X6300Y85600D01*
G01D02*
X7570Y86870D01*
G01X5030D02*
X6300Y85600D01*
G01D02*
X7570Y84330D01*
G01X6300Y80600D02*
X7570Y81870D01*
G01X5030D02*
X6300Y80600D01*
G01X5030Y114330D02*
X6300Y115600D01*
G01D02*
X7570Y116870D01*
G01X5030D02*
X6300Y115600D01*
G01D02*
X7570Y114330D01*
G01X5030Y109330D02*
X6300Y110600D01*
G01D02*
X7570Y111870D01*
G01X5030D02*
X6300Y110600D01*
G01D02*
X7570Y109330D01*
G01X5030Y104330D02*
X6300Y105600D01*
G01D02*
X7570Y106870D01*
G01X5030D02*
X6300Y105600D01*
G01D02*
X7570Y104330D01*
G01X5030Y99330D02*
X6300Y100600D01*
G01D02*
X7570Y101870D01*
G01X5030D02*
X6300Y100600D01*
G01D02*
X7570Y99330D01*
G01X5030Y129330D02*
X6300Y130600D01*
G01D02*
X7570Y131870D01*
G01X5030D02*
X6300Y130600D01*
G01D02*
X7570Y129330D01*
G01X5030Y124330D02*
X6300Y125600D01*
G01D02*
X7570Y126870D01*
G01X5030D02*
X6300Y125600D01*
G01D02*
X7570Y124330D01*
G01X5030Y119330D02*
X6300Y120600D01*
G01D02*
X7570Y121870D01*
G01X5030D02*
X6300Y120600D01*
G01D02*
X7570Y119330D01*
G01X5030Y149330D02*
X6300Y150600D01*
G01D02*
X7570Y151870D01*
G01X5030D02*
X6300Y150600D01*
G01D02*
X7570Y149330D01*
G01X5030Y144330D02*
X6300Y145600D01*
G01D02*
X7570Y146870D01*
G01X5030D02*
X6300Y145600D01*
G01D02*
X7570Y144330D01*
G01X5030Y139330D02*
X6300Y140600D01*
G01D02*
X7570Y141870D01*
G01X5030D02*
X6300Y140600D01*
G01D02*
X7570Y139330D01*
G01X5030Y134330D02*
X6300Y135600D01*
G01D02*
X7570Y136870D01*
G01X5030D02*
X6300Y135600D01*
G01D02*
X7570Y134330D01*
G01X5030Y169330D02*
X6300Y170600D01*
G01D02*
X7570Y169330D01*
G01X5030Y164330D02*
X6300Y165600D01*
G01D02*
X7570Y166870D01*
G01X5030D02*
X6300Y165600D01*
G01D02*
X7570Y164330D01*
G01X5030Y159330D02*
X6300Y160600D01*
G01D02*
X7570Y161870D01*
G01X5030D02*
X6300Y160600D01*
G01D02*
X7570Y159330D01*
G01X5030Y154330D02*
X6300Y155600D01*
G01D02*
X7570Y156870D01*
G01X5030D02*
X6300Y155600D01*
G01D02*
X7570Y154330D01*
G01X5030Y174330D02*
X6300Y175600D01*
G01D02*
X7570Y176870D01*
G01X5030D02*
X6300Y175600D01*
G01D02*
X7570Y174330D01*
G01X6300Y170600D02*
X7570Y171870D01*
G01X5030D02*
X6300Y170600D01*
G01X17180Y39680D02*
X20000Y42500D01*
G01D02*
X22820Y45320D01*
G01X17180D02*
X20000Y42500D01*
G01D02*
X22820Y39680D01*
G01X16810Y58710D02*
X18500Y60400D01*
G01D02*
X20190Y62090D01*
G01X16810D02*
X18500Y60400D01*
G01D02*
X20190Y58710D01*
G01X16810Y48710D02*
X18500Y50400D01*
G01D02*
X20190Y52090D01*
G01X16810D02*
X18500Y50400D01*
G01D02*
X20190Y48710D01*
G01X25600Y60620D02*
X27290Y62310D01*
G01X8500Y60400D02*
X10190Y62090D01*
G01X8500Y60400D02*
X10190Y58710D01*
G01X8500Y50400D02*
X10190Y52090D01*
G01X8500Y50400D02*
X10190Y48710D01*
G01X14610Y73310D02*
X16300Y75000D01*
G01D02*
X17990Y76690D01*
G01X14610D02*
X16300Y75000D01*
G01D02*
X17990Y73310D01*
G01X21610Y73610D02*
X23300Y75300D01*
G01D02*
X24990Y76990D01*
G01X21610D02*
X23300Y75300D01*
G01D02*
X24990Y73610D01*
G01X16110Y66010D02*
X17800Y67700D01*
G01D02*
X19490Y69390D01*
G01X16110D02*
X17800Y67700D01*
G01D02*
X19490Y66010D01*
G01X22810Y66210D02*
X24500Y67900D01*
G01D02*
X26190Y69590D01*
G01X22810D02*
X24500Y67900D01*
G01D02*
X26190Y66210D01*
G01X25600Y64000D02*
X27290Y62310D01*
G01X8400Y75000D02*
X10090Y76690D01*
G01X8400Y75000D02*
X10090Y73310D01*
G01X8700Y67600D02*
X10390Y69290D01*
G01X8700Y67600D02*
X10390Y65910D01*
G01X13300Y96390D02*
Y98700D01*
G01Y83490D02*
Y85800D01*
G01D02*
Y88110D01*
G01X11090Y85800D02*
X13300D01*
G01D02*
X15510D01*
G01X13300Y89890D02*
Y92200D01*
G01D02*
Y94510D01*
G01X11090Y92200D02*
X13300D01*
G01D02*
X15510D01*
G01X26300Y85710D02*
X21690D01*
X21600Y85800D01*
X19300D01*
G01X29770Y91610D02*
X22190D01*
X21600Y92200D01*
X19300D01*
G01X29770Y105390D02*
X22390D01*
X21600Y104600D01*
X19300D01*
G01X13300Y114090D02*
Y116400D01*
G01Y108190D02*
Y110500D01*
G01D02*
Y112810D01*
G01X11090Y110500D02*
X13300D01*
G01D02*
X15510D01*
G01X13300Y102290D02*
Y104600D01*
G01D02*
Y106910D01*
G01X11090Y104600D02*
X13300D01*
G01D02*
X15510D01*
G01X13300Y98700D02*
Y101010D01*
G01X11090Y98700D02*
X13300D01*
G01D02*
X15510D01*
G01X26300Y99490D02*
X22390D01*
X21600Y98700D01*
X19300D01*
G01X29770Y109330D02*
X22770D01*
X21600Y110500D01*
X19300D01*
G01X29770Y107360D02*
X25840D01*
G01X13300Y125590D02*
Y127900D01*
G01D02*
Y130210D01*
G01X11090Y127900D02*
X13300D01*
G01D02*
X15510D01*
G01X13300Y120090D02*
Y122400D01*
G01D02*
Y124710D01*
G01X11090Y122400D02*
X13300D01*
G01D02*
X15510D01*
G01X13300Y131490D02*
Y133800D01*
G01Y116400D02*
Y118710D01*
G01X11090Y116400D02*
X13300D01*
G01D02*
X15510D01*
G01X26300Y132950D02*
X22450D01*
X21600Y133800D01*
X19300D01*
G01X26300Y129010D02*
X22710D01*
X21600Y127900D01*
X19300D01*
G01X26070Y115230D02*
X24900Y116400D01*
X19300D01*
G01X29770Y123110D02*
X22310D01*
X21600Y122400D01*
X19300D01*
G01X29770Y138860D02*
X22440D01*
X21600Y139700D01*
X19300D01*
G01X13300Y149490D02*
Y151800D01*
G01Y143590D02*
Y145900D01*
G01D02*
Y148210D01*
G01X11090Y145900D02*
X13300D01*
G01D02*
X15510D01*
G01X13300Y137390D02*
Y139700D01*
G01D02*
Y142010D01*
G01X11090Y139700D02*
X13300D01*
G01D02*
X15510D01*
G01X13300Y133800D02*
Y136110D01*
G01X11090Y133800D02*
X13300D01*
G01D02*
X15510D01*
G01X26300Y146730D02*
X22430D01*
X21600Y145900D01*
X19300D01*
G01X13300Y167190D02*
Y169500D01*
G01Y161290D02*
Y163600D01*
G01D02*
Y165910D01*
G01X11090Y163600D02*
X13300D01*
G01D02*
X15510D01*
G01X13300Y155390D02*
Y157700D01*
G01D02*
Y160010D01*
G01X11090Y157700D02*
X13300D01*
G01D02*
X15510D01*
G01X13300Y151800D02*
Y154110D01*
G01X11090Y151800D02*
X13300D01*
G01D02*
X15510D01*
G01X26300Y162480D02*
X22720D01*
X21600Y163600D01*
X19300D01*
G01X29770Y156570D02*
X22730D01*
X21600Y157700D01*
X19300D01*
G01X29770Y170350D02*
X22450D01*
X21600Y169500D01*
X19300D01*
G01X29770Y152640D02*
X22440D01*
X21600Y151800D01*
X19300D01*
G01X22530Y187330D02*
X23800Y188600D01*
G01D02*
X25070Y187330D01*
G01X14610Y186610D02*
X16300Y188300D01*
G01D02*
X17990Y186610D01*
G01X21330Y179930D02*
X22600Y181200D01*
G01D02*
X23870Y182470D01*
G01X21330D02*
X22600Y181200D01*
G01D02*
X23870Y179930D01*
G01X13300Y173090D02*
Y175400D01*
G01D02*
Y177710D01*
G01X11090Y175400D02*
X13300D01*
G01D02*
X15510D01*
G01X13300Y169500D02*
Y171810D01*
G01X11090Y169500D02*
X13300D01*
G01D02*
X15510D01*
G01X8210Y185410D02*
X9900Y187100D01*
G01D02*
X11590Y188790D01*
G01X8210D02*
X9900Y187100D01*
G01D02*
X11590Y185410D01*
G01X26300Y176260D02*
X22460D01*
X21600Y175400D01*
X19300D01*
G01X13010Y195910D02*
X14700Y197600D01*
G01D02*
X16390Y199290D01*
G01X13010D02*
X14700Y197600D01*
G01D02*
X16390Y195910D01*
G01X23010D02*
X24700Y197600D01*
G01D02*
X26390Y199290D01*
G01X23010D02*
X24700Y197600D01*
G01D02*
X26390Y195910D01*
G01X23800Y188600D02*
X25070Y189870D01*
G01X22530D02*
X23800Y188600D01*
G01X16300Y188300D02*
X17990Y189990D01*
G01X14610D02*
X16300Y188300D01*
G01X17180Y214680D02*
X20000Y217500D01*
G01D02*
X22820Y220320D01*
G01X17180D02*
X20000Y217500D01*
G01D02*
X22820Y214680D01*
G01X13010Y205910D02*
X14700Y207600D01*
G01D02*
X16390Y209290D01*
G01X13010D02*
X14700Y207600D01*
G01D02*
X16390Y205910D01*
G01X23010D02*
X24700Y207600D01*
G01D02*
X26390Y209290D01*
G01X23010D02*
X24700Y207600D01*
G01D02*
X26390Y205910D01*
G01X33080Y43080D02*
X40000Y50000D01*
G01X36710Y61610D02*
X38400Y63300D01*
G01D02*
X40090Y61610D01*
G01X40000Y50000D02*
X46920Y56920D01*
G01X33080D02*
X40000Y50000D01*
G01D02*
X46920Y43080D01*
G01X27290Y62310D02*
X28980Y60620D01*
G01X28110Y68810D02*
X29800Y70500D01*
G01D02*
X31490Y72190D01*
G01X28110D02*
X29800Y70500D01*
G01D02*
X31490Y68810D01*
G01X27810Y74410D02*
X29500Y76100D01*
G01D02*
X31190Y77790D01*
G01X27810D02*
X29500Y76100D01*
G01D02*
X31190Y74410D01*
G01X43210Y76110D02*
X44900Y77800D01*
G01X43210Y79490D02*
X44900Y77800D01*
G01X31330Y77930D02*
X32600Y79200D01*
G01D02*
X33870Y80470D01*
G01X31330D02*
X32600Y79200D01*
G01D02*
X33870Y77930D01*
G01X40000Y67280D02*
Y71140D01*
G01D02*
Y75000D01*
G01X33190Y71140D02*
X40000D01*
G01D02*
X46810D01*
G01X38400Y63300D02*
X40090Y64990D01*
G01X36710D02*
X38400Y63300D01*
G01X27290Y62310D02*
X28980Y64000D01*
G01X29770Y97520D02*
X33300D01*
G01X36230Y96030D02*
X37500Y97300D01*
G01D02*
X38770Y98570D01*
G01X36230D02*
X37500Y97300D01*
G01D02*
X38770Y96030D01*
G01X41230Y96130D02*
X42500Y97400D01*
G01D02*
X43770Y98670D01*
G01X41230D02*
X42500Y97400D01*
G01D02*
X43770Y96130D01*
G01X36130Y88330D02*
X37400Y89600D01*
G01D02*
X38670Y90870D01*
G01X36130D02*
X37400Y89600D01*
G01D02*
X38670Y88330D01*
G01X42430D02*
X43700Y89600D01*
G01D02*
X44970Y90870D01*
G01X42430D02*
X43700Y89600D01*
G01D02*
X44970Y88330D01*
G01X37930Y80430D02*
X39200Y81700D01*
G01D02*
X40470Y82970D01*
G01X37930D02*
X39200Y81700D01*
G01D02*
X40470Y80430D01*
G01X26890Y87680D02*
X29770D01*
G01D02*
X32650D01*
G01X26880Y94560D02*
X30550D01*
G01D02*
X34220D01*
G01X29770Y85710D02*
X26300D01*
G01X29770Y89640D02*
X26300D01*
G01X29770Y83740D02*
X33300D01*
G01Y91610D02*
X29770D01*
G01X33300Y105390D02*
X29770D01*
G01Y113270D02*
X33770D01*
G01X37330Y111930D02*
X38600Y113200D01*
G01D02*
X39870Y114470D01*
G01X37330D02*
X38600Y113200D01*
G01D02*
X39870Y111930D01*
G01X41030D02*
X42300Y113200D01*
G01D02*
X43570Y114470D01*
G01X41030D02*
X42300Y113200D01*
G01D02*
X43570Y111930D01*
G01X26890Y101450D02*
X29770D01*
G01D02*
X32650D01*
G01X26890Y111300D02*
X29770D01*
G01D02*
X32650D01*
G01X29770Y99490D02*
X26300D01*
G01X33400Y109330D02*
X29770D01*
G01Y103420D02*
X26300D01*
G01X29770Y115230D02*
X26070D01*
G01X29770Y130980D02*
X33400D01*
G01X36430Y129930D02*
X37700Y131200D01*
G01D02*
X38970Y132470D01*
G01X36430D02*
X37700Y131200D01*
G01D02*
X38970Y129930D01*
G01X41230Y130330D02*
X42500Y131600D01*
G01D02*
X43770Y132870D01*
G01X41230D02*
X42500Y131600D01*
G01D02*
X43770Y130330D01*
G01X26890Y125080D02*
X29770D01*
G01D02*
X32650D01*
G01X26880Y118190D02*
X30550D01*
G01D02*
X34220D01*
G01X29770Y127050D02*
X33450D01*
G01X29770Y132950D02*
X26300D01*
G01X29770Y129010D02*
X26300D01*
G01X29770Y121140D02*
X26300D01*
G01X33300Y123110D02*
X29770D01*
G01X33300Y138860D02*
X29770D01*
G01X36130Y143930D02*
X37400Y145200D01*
G01D02*
X38670Y146470D01*
G01X36130D02*
X37400Y145200D01*
G01D02*
X38670Y143930D01*
G01X35430Y149330D02*
X36700Y150600D01*
G01D02*
X37970Y151870D01*
G01X35430D02*
X36700Y150600D01*
G01D02*
X37970Y149330D01*
G01X39530D02*
X40800Y150600D01*
G01D02*
X42070Y151870D01*
G01X39530D02*
X40800Y150600D01*
G01D02*
X42070Y149330D01*
G01X41230Y143930D02*
X42500Y145200D01*
G01D02*
X43770Y146470D01*
G01X41230D02*
X42500Y145200D01*
G01D02*
X43770Y143930D01*
G01X36130Y139630D02*
X37400Y140900D01*
G01D02*
X38670Y142170D01*
G01X36130D02*
X37400Y140900D01*
G01D02*
X38670Y139630D01*
G01X26890Y134920D02*
X29770D01*
G01D02*
X32650D01*
G01X26890Y148700D02*
X29770D01*
G01D02*
X32650D01*
G01X26880Y141810D02*
X30550D01*
G01D02*
X34220D01*
G01X29770Y150670D02*
X26300D01*
G01X29770Y146730D02*
X26300D01*
G01X29770Y136890D02*
X26300D01*
G01X29770Y144760D02*
X33300D01*
G01X29770Y160510D02*
X33300D01*
G01X35430Y167930D02*
X36700Y169200D01*
G01D02*
X37970Y170470D01*
G01X35430D02*
X36700Y169200D01*
G01D02*
X37970Y167930D01*
G01X40430Y167730D02*
X41700Y169000D01*
G01D02*
X42970Y170270D01*
G01X40430D02*
X41700Y169000D01*
G01D02*
X42970Y167730D01*
G01X35730Y161730D02*
X37000Y163000D01*
G01D02*
X38270Y164270D01*
G01X35730D02*
X37000Y163000D01*
G01D02*
X38270Y161730D01*
G01X41230Y161530D02*
X42500Y162800D01*
G01D02*
X43770Y164070D01*
G01X41230D02*
X42500Y162800D01*
G01D02*
X43770Y161530D01*
G01X36630Y155330D02*
X37900Y156600D01*
G01D02*
X39170Y157870D01*
G01X36630D02*
X37900Y156600D01*
G01D02*
X39170Y155330D01*
G01X41030D02*
X42300Y156600D01*
G01D02*
X43570Y157870D01*
G01X41030D02*
X42300Y156600D01*
G01D02*
X43570Y155330D01*
G01X26890Y158540D02*
X29770D01*
G01D02*
X32650D01*
G01X26880Y165430D02*
X30550D01*
G01D02*
X34220D01*
G01X29770Y162480D02*
X26300D01*
G01X33300Y156570D02*
X29770D01*
G01Y154600D02*
X26300D01*
G01X29770Y168380D02*
X26300D01*
G01X33300Y152640D02*
X29770D01*
G01X39310Y179910D02*
X41000Y181600D01*
G01D02*
X42690Y183290D01*
G01X39310D02*
X41000Y181600D01*
G01D02*
X42690Y179910D01*
G01X28230Y181330D02*
X29500Y182600D01*
G01D02*
X30770Y183870D01*
G01X28230D02*
X29500Y182600D01*
G01D02*
X30770Y181330D01*
G01X40230Y174830D02*
X41500Y176100D01*
G01D02*
X42770Y177370D01*
G01X40230D02*
X41500Y176100D01*
G01D02*
X42770Y174830D01*
G01X35530Y176630D02*
X36800Y177900D01*
G01D02*
X38070Y179170D01*
G01X35530D02*
X36800Y177900D01*
G01D02*
X38070Y176630D01*
G01X26890Y172320D02*
X29770D01*
G01D02*
X32650D01*
G01X40000Y185000D02*
Y188860D01*
G01X29770Y174290D02*
X33300D01*
G01Y170350D02*
X29770D01*
G01Y176260D02*
X26300D01*
G01X28510Y188510D02*
X30200Y190200D01*
G01D02*
X31890Y191890D01*
G01X28510D02*
X30200Y190200D01*
G01D02*
X31890Y188510D01*
G01X40000Y188860D02*
Y192720D01*
G01X33190Y188860D02*
X40000D01*
G01D02*
X46810D01*
G01X33080Y203080D02*
X40000Y210000D01*
G01X32910Y194610D02*
X34600Y196300D01*
G01D02*
X36290Y197990D01*
G01X32910D02*
X34600Y196300D01*
G01D02*
X36290Y194610D01*
G01X43110Y194410D02*
X44800Y196100D01*
G01X43110Y197790D02*
X44800Y196100D01*
G01X40000Y210000D02*
X46920Y216920D01*
G01X33080D02*
X40000Y210000D01*
G01D02*
X46920Y203080D01*
G01X57180Y39680D02*
X60000Y42500D01*
G01D02*
X62820Y45320D01*
G01X57180D02*
X60000Y42500D01*
G01D02*
X62820Y39680D01*
G01X56910Y50110D02*
X58600Y51800D01*
G01D02*
X60290Y53490D01*
G01X56910D02*
X58600Y51800D01*
G01D02*
X60290Y50110D01*
G01X46770Y61870D02*
X48460Y63560D01*
G01D02*
X50150Y61870D01*
G01X47610Y73410D02*
X49300Y75100D01*
G01D02*
X50990Y76790D01*
G01X47610D02*
X49300Y75100D01*
G01D02*
X50990Y73410D01*
G01X48460Y63560D02*
X50150Y65250D01*
G01X46770D02*
X48460Y63560D01*
G01X56810Y62110D02*
X58500Y63800D01*
G01D02*
X60190Y65490D01*
G01X56810D02*
X58500Y63800D01*
G01D02*
X60190Y62110D01*
G01X44900Y77800D02*
X46590Y79490D01*
G01X44900Y77800D02*
X46590Y76110D01*
G01X47360Y87680D02*
X50240D01*
G01D02*
X53120D01*
G01X45780Y94560D02*
X49450D01*
G01D02*
X53120D01*
G01X50240Y89640D02*
X53800D01*
G01X50240Y83740D02*
X46700D01*
G01X53800Y85710D02*
X56790D01*
X56800Y85700D01*
X59100D01*
G01X53800Y85710D02*
X50240D01*
G01Y97520D02*
X46700D01*
G01X50240Y91610D02*
X56790D01*
X56800Y91600D01*
X59100D01*
G01X46700Y91610D02*
X50240D01*
G01Y107360D02*
X53800D01*
G01X47360Y101450D02*
X50240D01*
G01D02*
X53120D01*
G01X47360Y111300D02*
X50240D01*
G01D02*
X53120D01*
G01X50240Y103420D02*
X53800D01*
G01Y99490D02*
X55810D01*
X56800Y98500D01*
X59100D01*
G01X50240Y99490D02*
X53800D01*
G01X46700Y109330D02*
X50240D01*
G01D02*
X53210D01*
X54180Y110300D01*
X59100D01*
G01X50240Y113270D02*
X46700D01*
G01X50240Y105390D02*
X55810D01*
X56800Y104400D01*
X59100D01*
G01X46700Y105390D02*
X50240D01*
G01X53930Y115230D02*
X55830D01*
X56800Y116200D01*
X59100D01*
G01X50240Y115230D02*
X53930D01*
G01X50240Y127050D02*
X46700D01*
G01X47360Y125080D02*
X50240D01*
G01D02*
X53120D01*
G01X45780Y118190D02*
X49450D01*
G01D02*
X53120D01*
G01X53800Y129010D02*
X55990D01*
X56800Y128200D01*
X59100D01*
G01X50240Y129010D02*
X53800D01*
G01X50240Y130980D02*
X46700D01*
G01X50240Y121140D02*
X53800D01*
G01X50240Y123110D02*
X55990D01*
X56800Y122300D01*
X59100D01*
G01X46700Y123110D02*
X50240D01*
G01X53800Y132950D02*
X54950Y134100D01*
X59100D01*
G01X50240Y132950D02*
X53800D01*
G01X47360Y134920D02*
X50240D01*
G01D02*
X53120D01*
G01X47360Y148700D02*
X50240D01*
G01D02*
X53120D01*
G01X45780Y141810D02*
X49450D01*
G01D02*
X53120D01*
G01X53800Y146730D02*
X56270D01*
X56800Y146200D01*
X59100D01*
G01X50240Y146730D02*
X53800D01*
G01X50240Y136890D02*
X53800D01*
G01X50240Y150670D02*
X53800D01*
G01X50240Y144760D02*
X46700D01*
G01X50240Y138860D02*
X55660D01*
X56800Y140000D01*
X59100D01*
G01X46700Y138860D02*
X50240D01*
G01Y152640D02*
X56260D01*
X56800Y152100D01*
X59100D01*
G01X46700Y152640D02*
X50240D01*
G01Y156570D02*
X55370D01*
X56800Y158000D01*
X59100D01*
G01X46700Y156570D02*
X50240D01*
G01X47360Y158540D02*
X50240D01*
G01D02*
X53120D01*
G01X45780Y165430D02*
X49450D01*
G01D02*
X53120D01*
G01X50240Y168380D02*
X53800D01*
G01X50240Y160510D02*
X46700D01*
G01X53800Y162480D02*
X55220Y163900D01*
X59100D01*
G01X50240Y162480D02*
X53800D01*
G01X50240Y154600D02*
X54000D01*
G01X50240Y174290D02*
X46700D01*
G01X46610Y182110D02*
X48300Y183800D01*
G01D02*
X49990Y185490D01*
G01X48300Y183800D02*
X49990Y182110D01*
G01X47360Y172320D02*
X50240D01*
G01D02*
X53120D01*
G01X53800Y176260D02*
X56760D01*
X56800Y176300D01*
X59100D01*
G01X50240Y176260D02*
X53800D01*
G01X50240Y170350D02*
X56750D01*
X56800Y170300D01*
X59100D01*
G01X46700Y170350D02*
X50240D01*
G01X53010Y195910D02*
X54700Y197600D01*
G01D02*
X56390Y199290D01*
G01X53010D02*
X54700Y197600D01*
G01D02*
X56390Y195910D01*
G01X47430Y191330D02*
X48700Y192600D01*
G01D02*
X49970Y193870D01*
G01X47430D02*
X48700Y192600D01*
G01D02*
X49970Y191330D01*
G01X44800Y196100D02*
X46490Y197790D01*
G01X44800Y196100D02*
X46490Y194410D01*
G01X57180Y214680D02*
X60000Y217500D01*
G01D02*
X62820Y220320D01*
G01X57180D02*
X60000Y217500D01*
G01D02*
X62820Y214680D01*
G01X53010Y205910D02*
X54700Y207600D01*
G01D02*
X56390Y209290D01*
G01X53010D02*
X54700Y207600D01*
G01D02*
X56390Y205910D01*
G01X65810Y48310D02*
X67500Y50000D01*
G01D02*
X69190Y51690D01*
G01X65810D02*
X67500Y50000D01*
G01D02*
X69190Y48310D01*
G01X65710Y62010D02*
X67400Y63700D01*
G01D02*
X69090Y65390D01*
G01X65710D02*
X67400Y63700D01*
G01D02*
X69090Y62010D01*
G01X65100Y96190D02*
Y98500D01*
G01Y83390D02*
Y85700D01*
G01D02*
Y88010D01*
G01X62890Y85700D02*
X65100D01*
G01D02*
X67310D01*
G01X65100Y89290D02*
Y91600D01*
G01D02*
Y93910D01*
G01X62890Y91600D02*
X65100D01*
G01D02*
X67310D01*
G01X65100Y113890D02*
Y116200D01*
G01Y107990D02*
Y110300D01*
G01D02*
Y112610D01*
G01X62890Y110300D02*
X65100D01*
G01D02*
X67310D01*
G01X65100Y102090D02*
Y104400D01*
G01D02*
Y106710D01*
G01X62890Y104400D02*
X65100D01*
G01D02*
X67310D01*
G01X65100Y98500D02*
Y100810D01*
G01X62890Y98500D02*
X65100D01*
G01D02*
X67310D01*
G01X65100Y125890D02*
Y128200D01*
G01D02*
Y130510D01*
G01X62890Y128200D02*
X65100D01*
G01D02*
X67310D01*
G01X65100Y119990D02*
Y122300D01*
G01D02*
Y124610D01*
G01X62890Y122300D02*
X65100D01*
G01D02*
X67310D01*
G01X65100Y131790D02*
Y134100D01*
G01Y116200D02*
Y118510D01*
G01X62890Y116200D02*
X65100D01*
G01D02*
X67310D01*
G01X65100Y149790D02*
Y152100D01*
G01Y143890D02*
Y146200D01*
G01D02*
Y148510D01*
G01X62890Y146200D02*
X65100D01*
G01D02*
X67310D01*
G01X65100Y137690D02*
Y140000D01*
G01D02*
Y142310D01*
G01X62890Y140000D02*
X65100D01*
G01D02*
X67310D01*
G01X65100Y134100D02*
Y136410D01*
G01X62890Y134100D02*
X65100D01*
G01D02*
X67310D01*
G01X65100Y167990D02*
Y170300D01*
G01Y161590D02*
Y163900D01*
G01D02*
Y166210D01*
G01X62890Y163900D02*
X65100D01*
G01D02*
X67310D01*
G01X65100Y155690D02*
Y158000D01*
G01D02*
Y160310D01*
G01X62890Y158000D02*
X65100D01*
G01D02*
X67310D01*
G01X65100Y152100D02*
Y154410D01*
G01X62890Y152100D02*
X65100D01*
G01D02*
X67310D01*
G01X65100Y173990D02*
Y176300D01*
G01D02*
Y178610D01*
G01X62890Y176300D02*
X65100D01*
G01D02*
X67310D01*
G01X65100Y170300D02*
Y172610D01*
G01X62890Y170300D02*
X65100D01*
G01D02*
X67310D01*
G01X63610Y196310D02*
X65300Y198000D01*
G01D02*
X66990Y199690D01*
G01X63610D02*
X65300Y198000D01*
G01D02*
X66990Y196310D01*
G01X63210Y205910D02*
X64900Y207600D01*
G01D02*
X66590Y209290D01*
G01X63210D02*
X64900Y207600D01*
G01D02*
X66590Y205910D01*
G01X330490Y20000D02*
X340000D01*
G01X327230Y36230D02*
X328500Y37500D01*
G01D02*
X329770Y38770D01*
G01X327230D02*
X328500Y37500D01*
G01D02*
X329770Y36230D01*
G01X327130Y29930D02*
X328400Y31200D01*
G01D02*
X329670Y32470D01*
G01X327130D02*
X328400Y31200D01*
G01D02*
X329670Y29930D01*
G01X330490Y240000D02*
X340000D01*
G01Y10490D02*
Y20000D01*
G01D02*
Y29510D01*
G01Y20000D02*
X349510D01*
G01X333080Y13080D02*
X340000Y20000D01*
G01D02*
X346920Y26920D01*
G01X333080D02*
X340000Y20000D01*
G01D02*
X346920Y13080D01*
G01X332930Y36030D02*
X334200Y37300D01*
G01D02*
X335470Y38570D01*
G01X332930D02*
X334200Y37300D01*
G01D02*
X335470Y36030D01*
G01X338430Y36330D02*
X339700Y37600D01*
G01D02*
X340970Y38870D01*
G01X338430D02*
X339700Y37600D01*
G01D02*
X340970Y36330D01*
G01X341830Y31330D02*
X343100Y32600D01*
G01D02*
X344370Y33870D01*
G01X341830D02*
X343100Y32600D01*
G01D02*
X344370Y31330D01*
G01X340000Y230490D02*
Y240000D01*
G01D02*
Y249510D01*
G01Y240000D02*
X349510D01*
G01X333080Y233080D02*
X340000Y240000D01*
G01D02*
X346920Y246920D01*
G01X333080D02*
X340000Y240000D01*
G01D02*
X346920Y233080D01*
G01X366190Y10800D02*
X369900D01*
G01X363400Y245490D02*
Y249200D01*
G01D02*
Y252910D01*
G01X359690Y249200D02*
X363400D01*
G01D02*
X367110D01*
G01X360580Y246380D02*
X363400Y249200D01*
G01D02*
X366220Y252020D01*
G01X360580D02*
X363400Y249200D01*
G01D02*
X366220Y246380D01*
G01X369900Y7090D02*
Y10800D01*
G01X367080Y7980D02*
X369900Y10800D01*
G01D02*
X372720Y7980D01*
G01X383170Y19540D02*
Y23800D01*
G01D02*
Y28060D01*
G01X378910Y23800D02*
X383170D01*
G01D02*
X387430D01*
G01X379960Y20590D02*
X383170Y23800D01*
G01D02*
X386380Y27010D01*
G01X379960D02*
X383170Y23800D01*
G01D02*
X386380Y20590D01*
G01X369900Y10800D02*
Y14510D01*
G01Y10800D02*
X373610D01*
G01X369900D02*
X372720Y13620D01*
G01X367080D02*
X369900Y10800D01*
G01X378500Y32500D02*
X382600D01*
G01X383170Y231940D02*
Y236200D01*
G01D02*
Y240460D01*
G01X378910Y236200D02*
X383170D01*
G01D02*
X387430D01*
G01X379960Y232990D02*
X383170Y236200D01*
G01D02*
X386380Y239410D01*
G01X379960D02*
X383170Y236200D01*
G01D02*
X386380Y232990D01*
G01X390400Y7590D02*
Y11300D01*
G01D02*
Y15010D01*
G01X386690Y11300D02*
X390400D01*
G01D02*
X394110D01*
G01X387580Y8480D02*
X390400Y11300D01*
G01D02*
X393220Y14120D01*
G01X387580D02*
X390400Y11300D01*
G01D02*
X393220Y8480D01*
G01X386030Y41530D02*
X387300Y42800D01*
G01D02*
X388570Y44070D01*
G01X386030D02*
X387300Y42800D01*
G01D02*
X388570Y41530D01*
G01X388600Y30190D02*
Y32500D01*
G01D02*
Y34810D01*
G01X386390Y32500D02*
X388600D01*
G01D02*
X390810D01*
G01X386430Y30190D02*
X388600Y32500D01*
G01D02*
X390770Y34810D01*
G01X386430D02*
X388600Y32500D01*
G01D02*
X390770Y30190D01*
G01X386030Y61530D02*
X387300Y62800D01*
G01D02*
X388570Y61530D01*
G01X386030Y56530D02*
X387300Y57800D01*
G01D02*
X388570Y59070D01*
G01X386030D02*
X387300Y57800D01*
G01D02*
X388570Y56530D01*
G01X386030Y51530D02*
X387300Y52800D01*
G01D02*
X388570Y54070D01*
G01X386030D02*
X387300Y52800D01*
G01D02*
X388570Y51530D01*
G01X386030Y46530D02*
X387300Y47800D01*
G01D02*
X388570Y49070D01*
G01X386030D02*
X387300Y47800D01*
G01D02*
X388570Y46530D01*
G01X386030Y76530D02*
X387300Y77800D01*
G01D02*
X388570Y79070D01*
G01X386030D02*
X387300Y77800D01*
G01D02*
X388570Y76530D01*
G01X386030Y71530D02*
X387300Y72800D01*
G01D02*
X388570Y74070D01*
G01X386030D02*
X387300Y72800D01*
G01D02*
X388570Y71530D01*
G01X386030Y66530D02*
X387300Y67800D01*
G01D02*
X388570Y69070D01*
G01X386030D02*
X387300Y67800D01*
G01D02*
X388570Y66530D01*
G01X387300Y62800D02*
X388570Y64070D01*
G01X386030D02*
X387300Y62800D01*
G01X386030Y96530D02*
X387300Y97800D01*
G01D02*
X388570Y96530D01*
G01X386030Y91530D02*
X387300Y92800D01*
G01D02*
X388570Y94070D01*
G01X386030D02*
X387300Y92800D01*
G01D02*
X388570Y91530D01*
G01X386030Y86530D02*
X387300Y87800D01*
G01D02*
X388570Y89070D01*
G01X386030D02*
X387300Y87800D01*
G01D02*
X388570Y86530D01*
G01X386030Y81530D02*
X387300Y82800D01*
G01D02*
X388570Y84070D01*
G01X386030D02*
X387300Y82800D01*
G01D02*
X388570Y81530D01*
G01X386030Y111530D02*
X387300Y112800D01*
G01D02*
X388570Y114070D01*
G01X386030D02*
X387300Y112800D01*
G01D02*
X388570Y111530D01*
G01X386030Y106530D02*
X387300Y107800D01*
G01D02*
X388570Y109070D01*
G01X386030D02*
X387300Y107800D01*
G01D02*
X388570Y106530D01*
G01X386030Y101530D02*
X387300Y102800D01*
G01D02*
X388570Y104070D01*
G01X386030D02*
X387300Y102800D01*
G01D02*
X388570Y101530D01*
G01X387300Y97800D02*
X388570Y99070D01*
G01X386030D02*
X387300Y97800D01*
G01X386030Y131530D02*
X387300Y132800D01*
G01D02*
X388570Y134070D01*
G01X386030D02*
X387300Y132800D01*
G01D02*
X388570Y131530D01*
G01X386030Y126530D02*
X387300Y127800D01*
G01D02*
X388570Y129070D01*
G01X386030D02*
X387300Y127800D01*
G01D02*
X388570Y126530D01*
G01X386030Y121530D02*
X387300Y122800D01*
G01D02*
X388570Y124070D01*
G01X386030D02*
X387300Y122800D01*
G01D02*
X388570Y121530D01*
G01X386030Y116530D02*
X387300Y117800D01*
G01D02*
X388570Y119070D01*
G01X386030D02*
X387300Y117800D01*
G01D02*
X388570Y116530D01*
G01X386030Y151530D02*
X387300Y152800D01*
G01D02*
X388570Y151530D01*
G01X386030Y146530D02*
X387300Y147800D01*
G01D02*
X388570Y149070D01*
G01X386030D02*
X387300Y147800D01*
G01D02*
X388570Y146530D01*
G01X386030Y141530D02*
X387300Y142800D01*
G01D02*
X388570Y144070D01*
G01X386030D02*
X387300Y142800D01*
G01D02*
X388570Y141530D01*
G01X386030Y136530D02*
X387300Y137800D01*
G01D02*
X388570Y139070D01*
G01X386030D02*
X387300Y137800D01*
G01D02*
X388570Y136530D01*
G01X386030Y166530D02*
X387300Y167800D01*
G01D02*
X388570Y169070D01*
G01X386030D02*
X387300Y167800D01*
G01D02*
X388570Y166530D01*
G01X386030Y161530D02*
X387300Y162800D01*
G01D02*
X388570Y164070D01*
G01X386030D02*
X387300Y162800D01*
G01D02*
X388570Y161530D01*
G01X386030Y156530D02*
X387300Y157800D01*
G01D02*
X388570Y159070D01*
G01X386030D02*
X387300Y157800D01*
G01D02*
X388570Y156530D01*
G01X387300Y152800D02*
X388570Y154070D01*
G01X386030D02*
X387300Y152800D01*
G01X386030Y186530D02*
X387300Y187800D01*
G01D02*
X388570Y186530D01*
G01X386030Y181530D02*
X387300Y182800D01*
G01D02*
X388570Y184070D01*
G01X386030D02*
X387300Y182800D01*
G01D02*
X388570Y181530D01*
G01X386030Y176530D02*
X387300Y177800D01*
G01D02*
X388570Y179070D01*
G01X386030D02*
X387300Y177800D01*
G01D02*
X388570Y176530D01*
G01X386030Y171530D02*
X387300Y172800D01*
G01D02*
X388570Y174070D01*
G01X386030D02*
X387300Y172800D01*
G01D02*
X388570Y171530D01*
G01X386030Y201530D02*
X387300Y202800D01*
G01D02*
X388570Y204070D01*
G01X386030D02*
X387300Y202800D01*
G01D02*
X388570Y201530D01*
G01X386030Y196530D02*
X387300Y197800D01*
G01D02*
X388570Y199070D01*
G01X386030D02*
X387300Y197800D01*
G01D02*
X388570Y196530D01*
G01X386030Y191530D02*
X387300Y192800D01*
G01D02*
X388570Y194070D01*
G01X386030D02*
X387300Y192800D01*
G01D02*
X388570Y191530D01*
G01X387300Y187800D02*
X388570Y189070D01*
G01X386030D02*
X387300Y187800D01*
G01X386030Y221530D02*
X387300Y222800D01*
G01D02*
X388570Y224070D01*
G01X386030D02*
X387300Y222800D01*
G01D02*
X388570Y221530D01*
G01X386030Y216530D02*
X387300Y217800D01*
G01D02*
X388570Y219070D01*
G01X386030D02*
X387300Y217800D01*
G01D02*
X388570Y216530D01*
G01X386030Y211530D02*
X387300Y212800D01*
G01D02*
X388570Y214070D01*
G01X386030D02*
X387300Y212800D01*
G01D02*
X388570Y211530D01*
G01X386030Y206530D02*
X387300Y207800D01*
G01D02*
X388570Y209070D01*
G01X386030D02*
X387300Y207800D01*
G01D02*
X388570Y206530D01*
G01X386030Y226530D02*
X387300Y227800D01*
G01D02*
X388570Y229070D01*
G01X386030D02*
X387300Y227800D01*
G01D02*
X388570Y226530D01*
G01X389300Y245890D02*
Y249600D01*
G01D02*
Y253310D01*
G01X385590Y249600D02*
X389300D01*
G01D02*
X393010D01*
G01X386480Y246780D02*
X389300Y249600D01*
G01D02*
X392120Y252420D01*
G01X386480D02*
X389300Y249600D01*
G01D02*
X392120Y246780D01*
M02*
