G04 ================== begin FILE IDENTIFICATION RECORD ==================*
G04 Layout Name:  AGET_ERNI2HRS.brd*
G04 Film Name:    art01*
G04 File Format:  Gerber RS274X*
G04 File Origin:  Cadence Allegro 16.6-S025*
G04 Origin Date:  Thu Sep 14 22:35:07 2017*
G04 *
G04 Layer:  VIA CLASS/TOP*
G04 Layer:  PIN/TOP*
G04 Layer:  ETCH/TOP*
G04 Layer:  BOARD GEOMETRY/OUTLINE*
G04 *
G04 Offset:    (0.0 0.0)*
G04 Mirror:    No*
G04 Mode:      Positive*
G04 Rotation:  0*
G04 FullContactRelief:  No*
G04 UndefLineWidth:     0.0*
G04 ================== end FILE IDENTIFICATION RECORD ====================*
%FSLAX25Y25*MOIN*%
%IR0*IPPOS*OFA0.00000B0.00000*MIA0B0*SFA1.00000B1.00000*%
%ADD14C,.176*%
%ADD16R,.1063X.0472*%
%ADD13R,.03X.032*%
%ADD12C,.06*%
%ADD11C,.016*%
%ADD10C,.028*%
%ADD17R,.0315X.0315*%
%ADD15C,.0709*%
%ADD18C,.006*%
%ADD24C,.1864*%
%ADD25R,.1166X.0574*%
%ADD20R,.0402X.0422*%
%ADD26C,.0812*%
%ADD21C,.0704*%
%ADD23C,.0264*%
%ADD22C,.0284*%
%ADD19C,.0384*%
%ADD27R,.0418X.0418*%
G75*
%LPD*%
G75*
G36*
G01X76000Y34000D02*
X4000D01*
Y226000D01*
X76000D01*
Y34000D01*
G37*
G36*
G01X396000Y4000D02*
X324000D01*
Y256000D01*
X396000D01*
Y239860D01*
X388230D01*
Y234120D01*
X396000D01*
Y25880D01*
X388230D01*
Y20140D01*
X396000D01*
Y4000D01*
G37*
%LPC*%
G75*
G36*
G01X54890Y106450D02*
G02Y108270I-1090J910D01*
G01X55480D01*
X56420Y109210D01*
X56990D01*
Y109990D01*
X48650D01*
X48120Y109460D01*
Y109370D01*
G02X46740Y110750I-1420J-40D01*
G01X46830D01*
X47890Y111810D01*
X56990D01*
Y112140D01*
G03X56310Y112420I-399J-4D01*
G01X56250Y112360D01*
X47790D01*
G02Y114180I-1090J910D01*
G01X52230D01*
G03X52600Y114720I-2J398D01*
G02X55140Y114490I1327J509D01*
G03X55310Y114180I168J-109D01*
G01X55490D01*
X56420Y115110D01*
X56990D01*
Y116410D01*
X61210D01*
Y111810D01*
X63090D01*
Y116310D01*
X67110D01*
Y111810D01*
X68910D01*
G02Y109990I1090J-910D01*
G01X67110D01*
Y106190D01*
X63090D01*
Y109990D01*
X61210D01*
Y106090D01*
X56990D01*
Y106240D01*
G03X56310Y106520I-399J-4D01*
G01X56240Y106450D01*
X54890D01*
G37*
G36*
G01X21410Y82790D02*
Y81490D01*
X17190D01*
Y85910D01*
X21410D01*
Y84650D01*
X24600D01*
G03X24980Y85200I7J401D01*
G02X27620I1320J510D01*
G03X28000Y84650I373J-149D01*
G01X32210D01*
G02Y82830I1090J-910D01*
G01X22020D01*
X21980Y82790D01*
X21410D01*
G37*
G36*
G01X61210Y85910D02*
Y81490D01*
X56990D01*
Y82790D01*
X56420D01*
X56380Y82830D01*
X47790D01*
G02Y84650I-1090J910D01*
G01X52100D01*
G03X52480Y85200I7J401D01*
G02X55120I1320J510D01*
G03X55500Y84650I373J-149D01*
G01X56990D01*
Y85910D01*
X61210D01*
G37*
G36*
G01X21410Y88690D02*
Y87390D01*
X17190D01*
Y91810D01*
X21410D01*
Y90550D01*
X25210D01*
G02Y88730I1090J-910D01*
G01X22020D01*
X21980Y88690D01*
X21410D01*
G37*
G36*
G01X61210Y91910D02*
Y87490D01*
X56990D01*
Y88730D01*
X54890D01*
G02Y90550I-1090J910D01*
G01X56360D01*
X56420Y90610D01*
X56990D01*
Y91910D01*
X61210D01*
G37*
G36*
G01X54750Y98430D02*
G03X54730Y97850I266J-300D01*
G01X55180Y97410D01*
X56990D01*
Y98710D01*
X61210D01*
Y94290D01*
X56990D01*
Y95590D01*
X54420D01*
X53400Y96610D01*
X47790D01*
G02Y98430I-1090J910D01*
G01X52100D01*
G03X52480Y98980I7J401D01*
G02X54750Y98430I1325J509D01*
G37*
G36*
G01X21410Y95790D02*
Y94490D01*
X17190D01*
Y98910D01*
X21410D01*
Y98760D01*
G03X22030Y98430I400J3D01*
G01X24600D01*
G03X24980Y98980I7J401D01*
G02X27620I1320J510D01*
G03X28000Y98430I373J-149D01*
G01X32210D01*
G02Y96610I1090J-910D01*
G01X22800D01*
X21980Y95790D01*
X21410D01*
G37*
G36*
G01X61210Y104610D02*
Y100190D01*
X56990D01*
Y101490D01*
X56420D01*
X55400Y102510D01*
X54890D01*
G02Y104330I-1090J910D01*
G01X56160D01*
X56310Y104180D01*
G03X56990Y104460I281J284D01*
G01Y104610D01*
X61210D01*
G37*
G36*
G01X21410Y101690D02*
Y100390D01*
X17190D01*
Y104810D01*
X21410D01*
Y104660D01*
G03X22030Y104330I400J3D01*
G01X25210D01*
G02Y102510I1090J-910D01*
G01X22800D01*
X21980Y101690D01*
X21410D01*
G37*
G36*
G01X25080Y109410D02*
X25710Y108780D01*
X25800D01*
G02X24430Y107230I43J-1418D01*
G03X24030Y107590I-399J-41D01*
G01X21410D01*
Y106290D01*
X17190D01*
Y110710D01*
X21410D01*
Y109410D01*
X25080D01*
G37*
G36*
G01X27770Y114180D02*
X32680D01*
G02Y112360I1090J-910D01*
G01X22350D01*
X22090Y112620D01*
G03X21410Y112340I-281J-284D01*
G01Y112190D01*
X17190D01*
Y116610D01*
X21410D01*
Y115310D01*
X21980D01*
X23110Y114180D01*
X24370D01*
G03X24740Y114720I-2J398D01*
G02X27400I1330J510D01*
G03X27770Y114180I372J-142D01*
G37*
G36*
G01X21410Y119390D02*
Y118090D01*
X17190D01*
Y122510D01*
X21410D01*
Y122360D01*
G03X22060Y122050I400J3D01*
G01X25210D01*
G02Y120230I1090J-910D01*
G01X22820D01*
X21980Y119390D01*
X21410D01*
G37*
G36*
G01X61210Y122510D02*
Y118090D01*
X56990D01*
Y119390D01*
X56420D01*
X55580Y120230D01*
X54890D01*
G02Y122050I-1090J910D01*
G01X56340D01*
G03X56990Y122360I250J313D01*
G01Y122510D01*
X61210D01*
G37*
G36*
G01Y128410D02*
Y123990D01*
X56990D01*
Y125290D01*
X56420D01*
X55570Y126140D01*
X47790D01*
G02Y127960I-1090J910D01*
G01X52100D01*
G03X52470Y128500I-2J398D01*
G02X52480Y129520I1330J497D01*
G03X52100Y130070I-373J149D01*
G01X47790D01*
G02Y131890I-1090J910D01*
G01X52100D01*
G03X52480Y132440I7J401D01*
G02X55000Y132200I1320J510D01*
G03X55170Y131890I170J-108D01*
G01X55300D01*
X56420Y133010D01*
X56990D01*
Y134310D01*
X61210D01*
Y129890D01*
X56990D01*
Y130040D01*
G03X56310Y130320I-399J-4D01*
G01X56060Y130070D01*
X55500D01*
G03X55120Y129520I-7J-401D01*
G02X55130Y128500I-1320J-523D01*
G03X55500Y127960I372J-142D01*
G01X56330D01*
G03X56990Y128260I260J303D01*
G01Y128410D01*
X61210D01*
G37*
G36*
G01X21410Y125390D02*
Y124090D01*
X17190D01*
Y128510D01*
X21410D01*
Y127880D01*
G03X21750Y127740I199J2D01*
G01X21970Y127960D01*
X24600D01*
G03X24970Y128500I-2J398D01*
G02X24980Y129520I1330J497D01*
G03X24600Y130070I-373J149D01*
G01X22440D01*
X22090Y130420D01*
G03X21410Y130140I-281J-284D01*
G01Y129990D01*
X17190D01*
Y134410D01*
X21410D01*
Y133110D01*
X21980D01*
X23200Y131890D01*
X24600D01*
G03X24980Y132440I7J401D01*
G02X27620I1320J510D01*
G03X28000Y131890I373J-149D01*
G01X32310D01*
G02Y130070I1090J-910D01*
G01X28000D01*
G03X27620Y129520I-7J-401D01*
G02X27630Y128500I-1320J-523D01*
G03X28000Y127960I372J-142D01*
G01X32360D01*
G02Y126140I1090J-910D01*
G01X22730D01*
X21980Y125390D01*
X21410D01*
G37*
G36*
G01X23200Y137800D02*
X25210D01*
G02Y135980I1090J-910D01*
G01X22440D01*
X22090Y136330D01*
G03X21410Y136050I-281J-284D01*
G01Y135890D01*
X17190D01*
Y140310D01*
X21410D01*
Y139010D01*
X21990D01*
X23200Y137800D01*
G37*
G36*
G01X56070Y135980D02*
X54890D01*
G02Y137800I-1090J910D01*
G01X55310D01*
X56420Y138910D01*
X56990D01*
Y140210D01*
X61210D01*
Y135790D01*
X56990D01*
Y135940D01*
G03X56310Y136220I-399J-4D01*
G01X56070Y135980D01*
G37*
G36*
G01X61210Y146410D02*
Y141990D01*
X56990D01*
Y143290D01*
X56420D01*
X55860Y143850D01*
X47790D01*
G02Y145670I-1090J910D01*
G01X52100D01*
G03X52480Y146220I7J401D01*
G02X55120I1320J510D01*
G03X55500Y145670I373J-149D01*
G01X56620D01*
X56650Y145640D01*
G03X56990Y145780I141J142D01*
G01Y146410D01*
X61210D01*
G37*
G36*
G01X21410Y143390D02*
Y142090D01*
X17190D01*
Y146510D01*
X21410D01*
Y145670D01*
X24600D01*
G03X24980Y146220I7J401D01*
G02X27620I1320J510D01*
G03X28000Y145670I373J-149D01*
G01X32210D01*
G02Y143850I1090J-910D01*
G01X22440D01*
X21980Y143390D01*
X21410D01*
G37*
G36*
G01X61210Y152310D02*
Y147890D01*
X56990D01*
Y149190D01*
X56420D01*
X55850Y149760D01*
X54890D01*
G02Y151580I-1090J910D01*
G01X56610D01*
X56650Y151540D01*
G03X56990Y151680I141J142D01*
G01Y152310D01*
X61210D01*
G37*
G36*
G01X21410Y149290D02*
Y147990D01*
X17190D01*
Y152410D01*
X21410D01*
Y151580D01*
X25210D01*
G02Y149760I1090J-910D01*
G01X22450D01*
X21980Y149290D01*
X21410D01*
G37*
G36*
G01X23580Y155510D02*
X25210D01*
G02Y153690I1090J-910D01*
G01X22820D01*
X22090Y154420D01*
G03X21410Y154140I-281J-284D01*
G01Y153890D01*
X17190D01*
Y158310D01*
X21410D01*
Y157010D01*
X22080D01*
X23580Y155510D01*
G37*
G36*
G01X54130Y156020D02*
X55020Y156910D01*
X56990D01*
Y158210D01*
X61210D01*
Y153790D01*
X56990D01*
Y155090D01*
X55780D01*
X55420Y154730D01*
Y154640D01*
G02X54040Y156020I-1420J-40D01*
G01X54130D01*
G37*
G36*
G01X28000Y161420D02*
X32210D01*
G02Y159600I1090J-910D01*
G01X22710D01*
X22090Y160220D01*
G03X21410Y159940I-281J-284D01*
G01Y159790D01*
X17190D01*
Y164210D01*
X21410D01*
Y162910D01*
X21980D01*
X23470Y161420D01*
X24600D01*
G03X24980Y161970I7J401D01*
G02X27620I1320J510D01*
G03X28000Y161420I373J-149D01*
G37*
G36*
G01X55790Y159600D02*
X47790D01*
G02Y161420I-1090J910D01*
G01X52100D01*
G03X52480Y161970I7J401D01*
G02X55220Y162550I1323J514D01*
G03X55900Y162290I398J22D01*
G01X56420Y162810D01*
X56990D01*
Y164110D01*
X61210D01*
Y159690D01*
X56990D01*
Y159840D01*
G03X56310Y160120I-399J-4D01*
G01X55790Y159600D01*
G37*
G36*
G01X21410Y167470D02*
Y166190D01*
X17190D01*
Y170610D01*
X21410D01*
Y169310D01*
X21980D01*
X22000Y169290D01*
X25210D01*
G02Y167470I1090J-910D01*
G01X21410D01*
G37*
G36*
G01X61210Y170610D02*
Y166190D01*
X56990D01*
Y167470D01*
X54890D01*
G02Y169290I-1090J910D01*
G01X56400D01*
X56420Y169310D01*
X56990D01*
Y170610D01*
X61210D01*
G37*
G36*
G01X21410Y173380D02*
Y172090D01*
X17190D01*
Y176510D01*
X21410D01*
Y175210D01*
X21980D01*
X21990Y175200D01*
X24600D01*
G03X24980Y175750I7J401D01*
G02X27620I1320J510D01*
G03X28000Y175200I373J-149D01*
G01X32210D01*
G02Y173380I1090J-910D01*
G01X21410D01*
G37*
G36*
G01X61210Y176510D02*
Y172090D01*
X56990D01*
Y173380D01*
X47790D01*
G02Y175200I-1090J910D01*
G01X52100D01*
G03X52480Y175750I7J401D01*
G02X55120I1320J510D01*
G03X55500Y175200I373J-149D01*
G01X56410D01*
X56420Y175210D01*
X56990D01*
Y176510D01*
X61210D01*
G37*
G36*
G01X372490Y110310D02*
X368110D01*
Y111700D01*
X367230Y112580D01*
X367140D01*
G02X367580Y115340I-36J1421D01*
G03X368110Y115710I133J374D01*
G01Y116590D01*
X365380D01*
X364720Y115930D01*
Y115840D01*
G02X363340Y117220I-1420J-40D01*
G01X363430D01*
X364620Y118410D01*
X368110D01*
Y119690D01*
X372490D01*
Y115310D01*
X368280D01*
G03X368130Y114980I-3J-198D01*
G02X368340Y114690I-1036J-971D01*
G01X372490D01*
Y110310D01*
G37*
G36*
G01X377490Y30790D02*
Y30310D01*
X373110D01*
Y34690D01*
X377490D01*
Y34210D01*
G03X378020Y33840I397J4D01*
G02Y31160I480J-1340D01*
G03X377490Y30790I-133J-374D01*
G37*
G36*
G01X361710Y36590D02*
Y35290D01*
X357490D01*
Y39710D01*
X361710D01*
Y38410D01*
X368110D01*
Y39690D01*
X372490D01*
Y35310D01*
X368110D01*
Y36590D01*
X361710D01*
G37*
G36*
G01X377490Y41590D02*
Y40310D01*
X373110D01*
Y44690D01*
X377490D01*
Y43410D01*
X378310D01*
G02Y41590I1090J-910D01*
G01X377490D01*
G37*
G36*
G01X372490Y49690D02*
Y45310D01*
X368110D01*
Y46590D01*
X367590D01*
X367530Y46530D01*
G02Y48470I-1030J970D01*
G01X367590Y48410D01*
X368110D01*
Y49690D01*
X372490D01*
G37*
G36*
G01X377490Y46590D02*
Y45310D01*
X373110D01*
Y49690D01*
X377490D01*
Y48410D01*
X378310D01*
G02Y46590I1090J-910D01*
G01X377490D01*
G37*
G36*
G01X372490Y54690D02*
Y50310D01*
X368110D01*
Y51590D01*
X367590D01*
X367530Y51530D01*
G02Y53470I-1030J970D01*
G01X367590Y53410D01*
X368110D01*
Y54690D01*
X372490D01*
G37*
G36*
G01X377490Y51590D02*
Y50310D01*
X373110D01*
Y54690D01*
X377490D01*
Y53410D01*
X378310D01*
G02Y51590I1090J-910D01*
G01X377490D01*
G37*
G36*
G01X372490Y59690D02*
Y55310D01*
X368110D01*
Y56590D01*
X367590D01*
X367530Y56530D01*
G02Y58470I-1030J970D01*
G01X367590Y58410D01*
X368110D01*
Y59690D01*
X372490D01*
G37*
G36*
G01X377490Y56590D02*
Y55310D01*
X373110D01*
Y59690D01*
X377490D01*
Y58410D01*
X378310D01*
G02Y56590I1090J-910D01*
G01X377490D01*
G37*
G36*
G01X372490Y64690D02*
Y60310D01*
X368110D01*
Y61590D01*
X367590D01*
X367530Y61530D01*
G02Y63470I-1030J970D01*
G01X367590Y63410D01*
X368110D01*
Y64690D01*
X372490D01*
G37*
G36*
G01X377490Y61590D02*
Y60310D01*
X373110D01*
Y64690D01*
X377490D01*
Y63410D01*
X378310D01*
G02Y61590I1090J-910D01*
G01X377490D01*
G37*
G36*
G01X372490Y69690D02*
Y65310D01*
X368110D01*
Y66590D01*
X367590D01*
X367530Y66530D01*
G02Y68470I-1030J970D01*
G01X367590Y68410D01*
X368110D01*
Y69690D01*
X372490D01*
G37*
G36*
G01X377490Y71590D02*
Y70310D01*
X373110D01*
Y74690D01*
X377490D01*
Y73410D01*
X378310D01*
G02Y71590I1090J-910D01*
G01X377490D01*
G37*
G36*
G01X372490Y79690D02*
Y75310D01*
X368110D01*
Y76590D01*
X367590D01*
X367530Y76530D01*
G02Y78470I-1030J970D01*
G01X367590Y78410D01*
X368110D01*
Y79690D01*
X372490D01*
G37*
G36*
G01X377490Y76590D02*
Y75310D01*
X373110D01*
Y79690D01*
X377490D01*
Y78410D01*
X378310D01*
G02Y76590I1090J-910D01*
G01X377490D01*
G37*
G36*
G01X372490Y84690D02*
Y80310D01*
X368110D01*
Y81590D01*
X367590D01*
X367530Y81530D01*
G02Y83470I-1030J970D01*
G01X367590Y83410D01*
X368110D01*
Y84690D01*
X372490D01*
G37*
G36*
G01X377490Y81590D02*
Y80310D01*
X373110D01*
Y84690D01*
X377490D01*
Y83410D01*
X378310D01*
G02Y81590I1090J-910D01*
G01X377490D01*
G37*
G36*
G01X372490Y89690D02*
Y85310D01*
X368110D01*
Y86590D01*
X367590D01*
X367530Y86530D01*
G02Y88470I-1030J970D01*
G01X367590Y88410D01*
X368110D01*
Y89690D01*
X372490D01*
G37*
G36*
G01X377490Y86590D02*
Y85310D01*
X373110D01*
Y89690D01*
X377490D01*
Y88410D01*
X378310D01*
G02Y86590I1090J-910D01*
G01X377490D01*
G37*
G36*
G01X372490Y94690D02*
Y90310D01*
X368110D01*
Y91590D01*
X363290D01*
G02Y93410I-1090J910D01*
G01X368110D01*
Y94690D01*
X372490D01*
G37*
G36*
G01X377490Y91590D02*
Y90310D01*
X373110D01*
Y94690D01*
X377490D01*
Y93410D01*
X378310D01*
G02Y91590I1090J-910D01*
G01X377490D01*
G37*
G36*
G01X372490Y99690D02*
Y95310D01*
X368110D01*
Y98400D01*
X367130Y99380D01*
X367040D01*
G02X367640Y102070I-38J1420D01*
G03X368210Y102430I173J358D01*
G01Y104590D01*
X372390D01*
Y100410D01*
X369160D01*
G03X369010Y100070I-7J-200D01*
G01X369400Y99690D01*
X372490D01*
G37*
G36*
G01X377490Y101590D02*
Y100310D01*
X373110D01*
Y104690D01*
X377490D01*
Y103410D01*
X378310D01*
G02Y101590I1090J-910D01*
G01X377490D01*
G37*
G36*
G01X372490Y109690D02*
Y105310D01*
X368110D01*
Y106590D01*
X365430D01*
G02Y108410I-1090J910D01*
G01X368110D01*
Y109690D01*
X372490D01*
G37*
G36*
G01X377490Y106590D02*
Y105310D01*
X373110D01*
Y109690D01*
X377490D01*
Y108410D01*
X378310D01*
G02Y106590I1090J-910D01*
G01X377490D01*
G37*
G36*
G01Y111590D02*
Y110310D01*
X373110D01*
Y114690D01*
X377490D01*
Y113410D01*
X378310D01*
G02Y111590I1090J-910D01*
G01X377490D01*
G37*
G36*
G01Y116590D02*
Y115310D01*
X373110D01*
Y119690D01*
X377490D01*
Y118410D01*
X378310D01*
G02Y116590I1090J-910D01*
G01X377490D01*
G37*
G36*
G01X372490Y124690D02*
Y120310D01*
X368110D01*
Y121590D01*
X367590D01*
X367530Y121530D01*
G02Y123470I-1030J970D01*
G01X367590Y123410D01*
X368110D01*
Y124690D01*
X372490D01*
G37*
G36*
G01X377490Y121590D02*
Y120310D01*
X373110D01*
Y124690D01*
X377490D01*
Y123410D01*
X378310D01*
G02Y121590I1090J-910D01*
G01X377490D01*
G37*
G36*
G01X362330Y126320D02*
X364420Y128410D01*
X368110D01*
Y129690D01*
X372490D01*
Y125310D01*
X368110D01*
Y126590D01*
X365180D01*
X363620Y125030D01*
Y124940D01*
G02X362240Y126320I-1420J-40D01*
G01X362330D01*
G37*
G36*
G01X377490Y131590D02*
Y130310D01*
X373110D01*
Y134690D01*
X377490D01*
Y133410D01*
X378310D01*
G02Y131590I1090J-910D01*
G01X377490D01*
G37*
G36*
G01X372490Y139690D02*
Y135310D01*
X368110D01*
Y136590D01*
X367590D01*
X367530Y136530D01*
G02Y138470I-1030J970D01*
G01X367590Y138410D01*
X368110D01*
Y139690D01*
X372490D01*
G37*
G36*
G01X377490Y136590D02*
Y135310D01*
X373110D01*
Y139690D01*
X377490D01*
Y138410D01*
X378310D01*
G02Y136590I1090J-910D01*
G01X377490D01*
G37*
G36*
G01X372490Y144690D02*
Y140310D01*
X368110D01*
Y141590D01*
X367590D01*
X367530Y141530D01*
G02Y143470I-1030J970D01*
G01X367590Y143410D01*
X368110D01*
Y144690D01*
X372490D01*
G37*
G36*
G01X377490Y141590D02*
Y140310D01*
X373110D01*
Y144690D01*
X377490D01*
Y143410D01*
X378310D01*
G02Y141590I1090J-910D01*
G01X377490D01*
G37*
G36*
G01X372490Y149690D02*
Y145310D01*
X368110D01*
Y146590D01*
X367590D01*
X367530Y146530D01*
G02Y148470I-1030J970D01*
G01X367590Y148410D01*
X368110D01*
Y149690D01*
X372490D01*
G37*
G36*
G01X377490Y146590D02*
Y145310D01*
X373110D01*
Y149690D01*
X377490D01*
Y148410D01*
X378310D01*
G02Y146590I1090J-910D01*
G01X377490D01*
G37*
G36*
G01X372490Y154690D02*
Y150310D01*
X368110D01*
Y151590D01*
X367590D01*
X367530Y151530D01*
G02Y153470I-1030J970D01*
G01X367590Y153410D01*
X368110D01*
Y154690D01*
X372490D01*
G37*
G36*
G01X377490Y151590D02*
Y150310D01*
X373110D01*
Y154690D01*
X377490D01*
Y153410D01*
X378310D01*
G02Y151590I1090J-910D01*
G01X377490D01*
G37*
G36*
G01X372490Y159690D02*
Y155310D01*
X368110D01*
Y156590D01*
X367590D01*
X367530Y156530D01*
G02Y158470I-1030J970D01*
G01X367590Y158410D01*
X368110D01*
Y159690D01*
X372490D01*
G37*
G36*
G01X377490Y161590D02*
Y160310D01*
X373110D01*
Y164690D01*
X377490D01*
Y163410D01*
X378310D01*
G02Y161590I1090J-910D01*
G01X377490D01*
G37*
G36*
G01X372490Y169690D02*
Y165310D01*
X368110D01*
Y166590D01*
X367590D01*
X367530Y166530D01*
G02Y168470I-1030J970D01*
G01X367590Y168410D01*
X368110D01*
Y169690D01*
X372490D01*
G37*
G36*
G01X377490Y166590D02*
Y165310D01*
X373110D01*
Y169690D01*
X377490D01*
Y168410D01*
X378310D01*
G02Y166590I1090J-910D01*
G01X377490D01*
G37*
G36*
G01X372490Y174690D02*
Y170310D01*
X368110D01*
Y171590D01*
X367590D01*
X367530Y171530D01*
G02Y173470I-1030J970D01*
G01X367590Y173410D01*
X368110D01*
Y174690D01*
X372490D01*
G37*
G36*
G01X377490Y171590D02*
Y170310D01*
X373110D01*
Y174690D01*
X377490D01*
Y173410D01*
X378310D01*
G02Y171590I1090J-910D01*
G01X377490D01*
G37*
G36*
G01X372490Y179690D02*
Y175310D01*
X368110D01*
Y176590D01*
X367590D01*
X367530Y176530D01*
G02Y178470I-1030J970D01*
G01X367590Y178410D01*
X368110D01*
Y179690D01*
X372490D01*
G37*
G36*
G01X377490Y176590D02*
Y175310D01*
X373110D01*
Y179690D01*
X377490D01*
Y178410D01*
X378310D01*
G02Y176590I1090J-910D01*
G01X377490D01*
G37*
G36*
G01X372490Y184690D02*
Y180310D01*
X368110D01*
Y181590D01*
X367590D01*
X367530Y181530D01*
G02Y183470I-1030J970D01*
G01X367590Y183410D01*
X368110D01*
Y184690D01*
X372490D01*
G37*
G36*
G01X377490Y181590D02*
Y180310D01*
X373110D01*
Y184690D01*
X377490D01*
Y183410D01*
X378310D01*
G02Y181590I1090J-910D01*
G01X377490D01*
G37*
G36*
G01X372490Y189690D02*
Y185310D01*
X368110D01*
Y186590D01*
X367590D01*
X367530Y186530D01*
G02Y188470I-1030J970D01*
G01X367590Y188410D01*
X368110D01*
Y189690D01*
X372490D01*
G37*
G36*
G01X377490Y191590D02*
Y190310D01*
X373110D01*
Y194690D01*
X377490D01*
Y193410D01*
X378310D01*
G02Y191590I1090J-910D01*
G01X377490D01*
G37*
G36*
G01X372490Y199690D02*
Y195310D01*
X368110D01*
Y196590D01*
X367590D01*
X367530Y196530D01*
G02Y198470I-1030J970D01*
G01X367590Y198410D01*
X368110D01*
Y199690D01*
X372490D01*
G37*
G36*
G01X377490Y196590D02*
Y195310D01*
X373110D01*
Y199690D01*
X377490D01*
Y198410D01*
X378310D01*
G02Y196590I1090J-910D01*
G01X377490D01*
G37*
G36*
G01X372490Y204690D02*
Y200310D01*
X368110D01*
Y201590D01*
X367590D01*
X367530Y201530D01*
G02Y203470I-1030J970D01*
G01X367590Y203410D01*
X368110D01*
Y204690D01*
X372490D01*
G37*
G36*
G01X377490Y201590D02*
Y200310D01*
X373110D01*
Y204690D01*
X377490D01*
Y203410D01*
X378310D01*
G02Y201590I1090J-910D01*
G01X377490D01*
G37*
G36*
G01X372490Y209690D02*
Y205310D01*
X368110D01*
Y206590D01*
X367590D01*
X367530Y206530D01*
G02Y208470I-1030J970D01*
G01X367590Y208410D01*
X368110D01*
Y209690D01*
X372490D01*
G37*
G36*
G01X377490Y206590D02*
Y205310D01*
X373110D01*
Y209690D01*
X377490D01*
Y208410D01*
X378310D01*
G02Y206590I1090J-910D01*
G01X377490D01*
G37*
G36*
G01X372490Y214690D02*
Y210310D01*
X368110D01*
Y211590D01*
X367590D01*
X367530Y211530D01*
G02Y213470I-1030J970D01*
G01X367590Y213410D01*
X368110D01*
Y214690D01*
X372490D01*
G37*
G36*
G01X377490Y211590D02*
Y210310D01*
X373110D01*
Y214690D01*
X377490D01*
Y213410D01*
X378310D01*
G02Y211590I1090J-910D01*
G01X377490D01*
G37*
G36*
G01X372490Y219690D02*
Y215310D01*
X368110D01*
Y216590D01*
X367590D01*
X367530Y216530D01*
G02Y218470I-1030J970D01*
G01X367590Y218410D01*
X368110D01*
Y219690D01*
X372490D01*
G37*
G36*
G01Y224690D02*
Y220310D01*
X368110D01*
Y221590D01*
X367590D01*
X367530Y221530D01*
G02Y223470I-1030J970D01*
G01X367590Y223410D01*
X368110D01*
Y224690D01*
X372490D01*
G37*
G36*
G01X377490Y221590D02*
Y220310D01*
X373110D01*
Y224690D01*
X377490D01*
Y223410D01*
X378310D01*
G02Y221590I1090J-910D01*
G01X377490D01*
G37*
G36*
G01X372490Y229690D02*
Y225310D01*
X368110D01*
Y226590D01*
X367590D01*
X367530Y226530D01*
G02Y228470I-1030J970D01*
G01X367590Y228410D01*
X368110D01*
Y229690D01*
X372490D01*
G37*
G36*
G01X377490Y226590D02*
Y225310D01*
X373110D01*
Y229690D01*
X377490D01*
Y228410D01*
X378310D01*
G02Y226590I1090J-910D01*
G01X377490D01*
G37*
G54D24*
X40000Y50000D03*
Y210000D03*
X340000Y240000D03*
Y20000D03*
G54D25*
X372800Y236990D03*
Y23010D03*
G54D20*
X65100Y174300D03*
Y168400D03*
Y161900D03*
Y156000D03*
Y150100D03*
Y144200D03*
Y138000D03*
Y126200D03*
Y120300D03*
Y132100D03*
Y102400D03*
Y96500D03*
Y89700D03*
Y83700D03*
X13300Y174300D03*
Y168400D03*
Y162000D03*
Y156100D03*
Y150200D03*
Y144300D03*
Y138100D03*
Y126300D03*
Y132200D03*
Y120300D03*
Y114400D03*
Y108500D03*
Y102600D03*
Y96700D03*
Y89600D03*
Y83700D03*
X353600Y37500D03*
G54D26*
X383170Y236200D03*
Y23800D03*
G54D21*
X60000Y217500D03*
Y42500D03*
X20000Y217500D03*
Y42500D03*
X389300Y249600D03*
X390400Y11300D03*
X363400Y249200D03*
X369900Y10800D03*
G54D23*
X29500Y182600D03*
X41500Y176100D03*
X36800Y177900D03*
X36700Y169200D03*
X41700Y169000D03*
X37000Y163000D03*
X42500Y162800D03*
X37900Y156600D03*
X42300D03*
X37400Y145200D03*
X36700Y150600D03*
X40800D03*
X42500Y145200D03*
X37400Y140900D03*
X37700Y131200D03*
X42500Y131600D03*
X38600Y113200D03*
X42300D03*
X37500Y97300D03*
X42500Y97400D03*
X37400Y89600D03*
X43700D03*
X39200Y81700D03*
X32600Y79200D03*
X23800Y188600D03*
X22600Y181200D03*
X6300Y175600D03*
Y170600D03*
Y165600D03*
Y160600D03*
Y155600D03*
Y150600D03*
Y145600D03*
Y140600D03*
Y135600D03*
Y130600D03*
Y125600D03*
Y120600D03*
Y115600D03*
Y110600D03*
Y105600D03*
Y100600D03*
Y95600D03*
Y90600D03*
Y85600D03*
Y80600D03*
X48700Y192600D03*
X387300Y227800D03*
Y222800D03*
Y217800D03*
Y212800D03*
Y207800D03*
Y202800D03*
Y197800D03*
Y192800D03*
Y187800D03*
Y182800D03*
Y177800D03*
Y172800D03*
Y167800D03*
Y162800D03*
Y157800D03*
Y152800D03*
Y147800D03*
Y142800D03*
Y137800D03*
Y132800D03*
Y127800D03*
Y122800D03*
Y117800D03*
Y112800D03*
Y107800D03*
Y102800D03*
Y97800D03*
Y92800D03*
Y87800D03*
Y82800D03*
Y77800D03*
Y72800D03*
Y67800D03*
Y62800D03*
Y57800D03*
Y52800D03*
Y47800D03*
Y42800D03*
X334200Y37300D03*
X339700Y37600D03*
X343100Y32600D03*
X328500Y37500D03*
X328400Y31200D03*
G54D22*
X46700Y170350D03*
Y156570D03*
Y152640D03*
Y138860D03*
Y123110D03*
Y105390D03*
Y91610D03*
X33300Y152640D03*
Y170350D03*
Y156570D03*
Y138860D03*
Y123110D03*
X33400Y109330D03*
X33300Y105390D03*
Y91610D03*
G54D19*
X34600Y196300D03*
X64900Y207600D03*
X65300Y198000D03*
X67500Y50000D03*
X67400Y63700D03*
X54700Y207600D03*
Y197600D03*
X48300Y183800D03*
X49300Y75100D03*
X58600Y51800D03*
X48460Y63560D03*
X58500Y63800D03*
X30200Y190200D03*
X41000Y181600D03*
X29800Y70500D03*
X29500Y76100D03*
X44900Y77800D03*
X38400Y63300D03*
X14700Y207600D03*
X24700D03*
X14700Y197600D03*
X24700D03*
X16300Y188300D03*
Y75000D03*
X23300Y75300D03*
X17800Y67700D03*
X24500Y67900D03*
X18500Y60400D03*
Y50400D03*
X27290Y62310D03*
X9900Y187100D03*
X8400Y75000D03*
X8700Y67600D03*
X8500Y60400D03*
Y50400D03*
X44800Y196100D03*
G54D27*
X375300Y217500D03*
X370300Y192500D03*
X375300Y187500D03*
Y157500D03*
X370300Y162500D03*
X375300Y127500D03*
X370300Y132500D03*
X375300Y97500D03*
Y67500D03*
X370300Y72500D03*
X375300Y37500D03*
X370300Y32500D03*
Y42500D03*
%LPD*%
G75*
G54D10*
X8500Y50400D03*
Y60400D03*
X8700Y67600D03*
X8400Y75000D03*
X9900Y187100D03*
X18500Y50400D03*
X27290Y62310D03*
X18500Y60400D03*
X24500Y67900D03*
X17800Y67700D03*
X23300Y75300D03*
X16300Y75000D03*
Y188300D03*
X24700Y197600D03*
X14700D03*
X24700Y207600D03*
X14700D03*
X38400Y63300D03*
X44900Y77800D03*
X29500Y76100D03*
X29800Y70500D03*
X41000Y181600D03*
X44800Y196100D03*
X34600Y196300D03*
X30200Y190200D03*
X58600Y51800D03*
X58500Y63800D03*
X48460Y63560D03*
X49300Y75100D03*
X48300Y183800D03*
X54700Y197600D03*
Y207600D03*
X67500Y50000D03*
X67400Y63700D03*
X65300Y198000D03*
X64900Y207600D03*
G54D11*
X6300Y80600D03*
Y85600D03*
Y90600D03*
Y95600D03*
Y100600D03*
Y105600D03*
Y110600D03*
Y115600D03*
Y120600D03*
Y125600D03*
Y130600D03*
Y135600D03*
Y140600D03*
Y145600D03*
Y150600D03*
Y155600D03*
Y160600D03*
Y165600D03*
Y170600D03*
Y175600D03*
X26300Y85710D03*
Y89640D03*
Y99490D03*
Y103420D03*
X25840Y107360D03*
X26070Y115230D03*
X26300Y132950D03*
Y129010D03*
Y121140D03*
Y150670D03*
Y146730D03*
Y136890D03*
Y162480D03*
Y154600D03*
Y168380D03*
X22600Y181200D03*
X26300Y176260D03*
X23800Y188600D03*
X32600Y79200D03*
X33300Y97520D03*
X39200Y81700D03*
X43700Y89600D03*
X37400D03*
X42500Y97400D03*
X37500Y97300D03*
X33300Y83740D03*
Y91610D03*
Y105390D03*
X33770Y113270D03*
X42300Y113200D03*
X38600D03*
X33400Y109330D03*
Y130980D03*
X42500Y131600D03*
X37700Y131200D03*
X33450Y127050D03*
X33300Y123110D03*
Y138860D03*
X37400Y140900D03*
X42500Y145200D03*
X40800Y150600D03*
X36700D03*
X37400Y145200D03*
X33300Y144760D03*
Y160510D03*
X42300Y156600D03*
X37900D03*
X42500Y162800D03*
X37000Y163000D03*
X41700Y169000D03*
X36700Y169200D03*
X33300Y156570D03*
Y170350D03*
Y152640D03*
X36800Y177900D03*
X41500Y176100D03*
X29500Y182600D03*
X33300Y174290D03*
X53800Y89640D03*
X46700Y83740D03*
X53800Y85710D03*
X46700Y97520D03*
Y91610D03*
X53800Y107360D03*
Y103420D03*
Y99490D03*
X46700Y109330D03*
Y113270D03*
Y105390D03*
X53930Y115230D03*
X46700Y127050D03*
X53800Y129010D03*
X46700Y130980D03*
X53800Y121140D03*
X46700Y123110D03*
X53800Y132950D03*
Y146730D03*
Y136890D03*
Y150670D03*
X46700Y144760D03*
Y138860D03*
Y152640D03*
Y156570D03*
Y170350D03*
X53800Y168380D03*
X46700Y160510D03*
X53800Y162480D03*
X54000Y154600D03*
X46700Y174290D03*
X53800Y176260D03*
X48700Y192600D03*
X70000Y110900D03*
X328400Y31200D03*
X328500Y37500D03*
X343100Y32600D03*
X339700Y37600D03*
X334200Y37300D03*
X366500Y52500D03*
Y57500D03*
Y47500D03*
Y62500D03*
Y67500D03*
Y77500D03*
Y87500D03*
Y82500D03*
X362200Y92500D03*
X364340Y107500D03*
X367000Y100800D03*
X363300Y115800D03*
X367100Y114000D03*
X362200Y124900D03*
X366500Y122500D03*
Y142500D03*
Y147500D03*
Y137500D03*
Y157500D03*
Y152500D03*
Y167500D03*
Y177500D03*
Y172500D03*
Y187500D03*
Y182500D03*
Y202500D03*
Y197500D03*
Y207500D03*
Y222500D03*
Y217500D03*
Y212500D03*
Y227500D03*
X379400Y42500D03*
X378500Y32500D03*
X379400Y52500D03*
Y47500D03*
Y62500D03*
Y57500D03*
Y77500D03*
Y72500D03*
Y87500D03*
Y92500D03*
Y82500D03*
Y102500D03*
Y112500D03*
Y107500D03*
Y122500D03*
Y132500D03*
Y117500D03*
Y137500D03*
Y142500D03*
Y147500D03*
Y167500D03*
Y162500D03*
Y152500D03*
Y177500D03*
Y182500D03*
Y172500D03*
Y192500D03*
Y197500D03*
Y202500D03*
Y222500D03*
Y212500D03*
Y207500D03*
Y227500D03*
X387300Y42800D03*
Y47800D03*
Y52800D03*
Y57800D03*
Y62800D03*
Y67800D03*
Y72800D03*
Y77800D03*
Y82800D03*
Y87800D03*
Y92800D03*
Y97800D03*
Y102800D03*
Y107800D03*
Y112800D03*
Y117800D03*
Y122800D03*
Y127800D03*
Y132800D03*
Y137800D03*
Y142800D03*
Y147800D03*
Y152800D03*
Y157800D03*
Y162800D03*
Y167800D03*
Y172800D03*
Y177800D03*
Y182800D03*
Y187800D03*
Y192800D03*
Y197800D03*
Y202800D03*
Y207800D03*
Y212800D03*
Y217800D03*
Y222800D03*
Y227800D03*
G54D12*
X20000Y42500D03*
Y217500D03*
X60000Y42500D03*
Y217500D03*
X369900Y10800D03*
X363400Y249200D03*
X390400Y11300D03*
X389300Y249600D03*
G54D13*
X19300Y83700D03*
X13300D03*
X19300Y89600D03*
X13300D03*
X19300Y96700D03*
X13300D03*
X19300Y102600D03*
X13300D03*
X19300Y108500D03*
X13300D03*
X19300Y114400D03*
X13300D03*
X19300Y120300D03*
X13300D03*
X19300Y132200D03*
X13300D03*
X19300Y126300D03*
X13300D03*
X19300Y138100D03*
X13300D03*
X19300Y144300D03*
X13300D03*
X19300Y150200D03*
X13300D03*
X19300Y156100D03*
X13300D03*
X19300Y162000D03*
X13300D03*
X19300Y168400D03*
X13300D03*
X19300Y174300D03*
X13300D03*
X59100Y83700D03*
Y89700D03*
Y96500D03*
Y102400D03*
Y108300D03*
Y114200D03*
Y132100D03*
Y120300D03*
Y126200D03*
Y138000D03*
Y144200D03*
Y150100D03*
Y156000D03*
Y161900D03*
Y168400D03*
Y174300D03*
X65100Y83700D03*
Y89700D03*
Y96500D03*
Y102400D03*
Y108300D03*
Y114200D03*
Y132100D03*
Y120300D03*
Y126200D03*
Y138000D03*
Y144200D03*
Y150100D03*
Y156000D03*
Y161900D03*
Y168400D03*
Y174300D03*
X359600Y37500D03*
X353600D03*
G54D14*
X40000Y50000D03*
Y210000D03*
X340000Y20000D03*
Y240000D03*
G54D15*
X383170Y23800D03*
Y236200D03*
G54D16*
X372800Y23010D03*
Y236990D03*
X394060Y23010D03*
Y236990D03*
G54D17*
X370300Y42500D03*
Y37500D03*
Y32500D03*
X375300Y42500D03*
Y37500D03*
Y32500D03*
X370300Y62500D03*
Y57500D03*
Y52500D03*
Y47500D03*
X375300Y62500D03*
Y57500D03*
Y52500D03*
Y47500D03*
X370300Y77500D03*
Y72500D03*
Y67500D03*
X375300Y77500D03*
Y72500D03*
Y67500D03*
X370300Y97500D03*
Y92500D03*
Y87500D03*
Y82500D03*
X375300Y97500D03*
Y92500D03*
Y87500D03*
Y82500D03*
X370300Y112500D03*
Y107500D03*
Y102500D03*
X375300Y112500D03*
Y107500D03*
Y102500D03*
X370300Y132500D03*
Y127500D03*
Y122500D03*
Y117500D03*
X375300Y132500D03*
Y127500D03*
Y122500D03*
Y117500D03*
X370300Y152500D03*
Y147500D03*
Y142500D03*
Y137500D03*
X375300Y152500D03*
Y147500D03*
Y142500D03*
Y137500D03*
X370300Y167500D03*
Y162500D03*
Y157500D03*
X375300Y167500D03*
Y162500D03*
Y157500D03*
X370300Y187500D03*
Y182500D03*
Y177500D03*
Y172500D03*
X375300Y187500D03*
Y182500D03*
Y177500D03*
Y172500D03*
X370300Y202500D03*
Y197500D03*
Y192500D03*
X375300Y202500D03*
Y197500D03*
Y192500D03*
X370300Y222500D03*
Y217500D03*
Y212500D03*
Y207500D03*
X375300Y222500D03*
Y217500D03*
Y212500D03*
Y207500D03*
X370300Y227500D03*
X375300D03*
G54D18*
G01X2500Y30000D02*
X77500D01*
G03X80000Y32500I0J2500D01*
G01Y60000D01*
X290000D01*
X320000Y30000D01*
Y2500D01*
G03X322500Y0I2500J0D01*
G01X397500D01*
G03X400000Y2500I0J2500D01*
G01Y257500D01*
G03X397500Y260000I-2500J0D01*
G01X322500D01*
G03X320000Y257500I0J-2500D01*
G01Y230000D01*
X290000Y200000D01*
X80000D01*
Y227500D01*
G03X77500Y230000I-2500J0D01*
G01X2500D01*
G03X0Y227500I0J-2500D01*
G01Y32500D01*
G03X2500Y30000I2500J0D01*
G01X6810Y58710D02*
X8500Y60400D01*
G01X6810Y62090D02*
X8500Y60400D01*
G01X6810Y48710D02*
X8500Y50400D01*
G01X6810Y52090D02*
X8500Y50400D01*
G01X6710Y73310D02*
X8400Y75000D01*
G01X6710Y76690D02*
X8400Y75000D01*
G01X7010Y65910D02*
X8700Y67600D01*
G01X7010Y69290D02*
X8700Y67600D01*
G01X5030Y79330D02*
X6300Y80600D01*
G01D02*
X7570Y79330D01*
G01X5030Y94330D02*
X6300Y95600D01*
G01D02*
X7570Y96870D01*
G01X5030D02*
X6300Y95600D01*
G01D02*
X7570Y94330D01*
G01X5030Y89330D02*
X6300Y90600D01*
G01D02*
X7570Y91870D01*
G01X5030D02*
X6300Y90600D01*
G01D02*
X7570Y89330D01*
G01X5030Y84330D02*
X6300Y85600D01*
G01D02*
X7570Y86870D01*
G01X5030D02*
X6300Y85600D01*
G01D02*
X7570Y84330D01*
G01X6300Y80600D02*
X7570Y81870D01*
G01X5030D02*
X6300Y80600D01*
G01X5030Y114330D02*
X6300Y115600D01*
G01D02*
X7570Y116870D01*
G01X5030D02*
X6300Y115600D01*
G01D02*
X7570Y114330D01*
G01X5030Y109330D02*
X6300Y110600D01*
G01D02*
X7570Y111870D01*
G01X5030D02*
X6300Y110600D01*
G01D02*
X7570Y109330D01*
G01X5030Y104330D02*
X6300Y105600D01*
G01D02*
X7570Y106870D01*
G01X5030D02*
X6300Y105600D01*
G01D02*
X7570Y104330D01*
G01X5030Y99330D02*
X6300Y100600D01*
G01D02*
X7570Y101870D01*
G01X5030D02*
X6300Y100600D01*
G01D02*
X7570Y99330D01*
G01X5030Y129330D02*
X6300Y130600D01*
G01D02*
X7570Y131870D01*
G01X5030D02*
X6300Y130600D01*
G01D02*
X7570Y129330D01*
G01X5030Y124330D02*
X6300Y125600D01*
G01D02*
X7570Y126870D01*
G01X5030D02*
X6300Y125600D01*
G01D02*
X7570Y124330D01*
G01X5030Y119330D02*
X6300Y120600D01*
G01D02*
X7570Y121870D01*
G01X5030D02*
X6300Y120600D01*
G01D02*
X7570Y119330D01*
G01X5030Y149330D02*
X6300Y150600D01*
G01D02*
X7570Y151870D01*
G01X5030D02*
X6300Y150600D01*
G01D02*
X7570Y149330D01*
G01X5030Y144330D02*
X6300Y145600D01*
G01D02*
X7570Y146870D01*
G01X5030D02*
X6300Y145600D01*
G01D02*
X7570Y144330D01*
G01X5030Y139330D02*
X6300Y140600D01*
G01D02*
X7570Y141870D01*
G01X5030D02*
X6300Y140600D01*
G01D02*
X7570Y139330D01*
G01X5030Y134330D02*
X6300Y135600D01*
G01D02*
X7570Y136870D01*
G01X5030D02*
X6300Y135600D01*
G01D02*
X7570Y134330D01*
G01X5030Y169330D02*
X6300Y170600D01*
G01D02*
X7570Y169330D01*
G01X5030Y164330D02*
X6300Y165600D01*
G01D02*
X7570Y166870D01*
G01X5030D02*
X6300Y165600D01*
G01D02*
X7570Y164330D01*
G01X5030Y159330D02*
X6300Y160600D01*
G01D02*
X7570Y161870D01*
G01X5030D02*
X6300Y160600D01*
G01D02*
X7570Y159330D01*
G01X5030Y154330D02*
X6300Y155600D01*
G01D02*
X7570Y156870D01*
G01X5030D02*
X6300Y155600D01*
G01D02*
X7570Y154330D01*
G01X5030Y174330D02*
X6300Y175600D01*
G01D02*
X7570Y176870D01*
G01X5030D02*
X6300Y175600D01*
G01D02*
X7570Y174330D01*
G01X6300Y170600D02*
X7570Y171870D01*
G01X5030D02*
X6300Y170600D01*
G01X20000Y38790D02*
Y42500D01*
G01D02*
Y46210D01*
G01X16290Y42500D02*
X20000D01*
G01D02*
X23710D01*
G01X17180Y39680D02*
X20000Y42500D01*
G01D02*
X22820Y45320D01*
G01X17180D02*
X20000Y42500D01*
G01D02*
X22820Y39680D01*
G01X16810Y58710D02*
X18500Y60400D01*
G01D02*
X20190Y62090D01*
G01X16810D02*
X18500Y60400D01*
G01D02*
X20190Y58710D01*
G01X16810Y48710D02*
X18500Y50400D01*
G01D02*
X20190Y52090D01*
G01X16810D02*
X18500Y50400D01*
G01D02*
X20190Y48710D01*
G01X25600Y60620D02*
X27290Y62310D01*
G01X8500Y60400D02*
X10190Y62090D01*
G01X8500Y60400D02*
X10190Y58710D01*
G01X8500Y50400D02*
X10190Y52090D01*
G01X8500Y50400D02*
X10190Y48710D01*
G01X14610Y73310D02*
X16300Y75000D01*
G01D02*
X17990Y76690D01*
G01X14610D02*
X16300Y75000D01*
G01D02*
X17990Y73310D01*
G01X21610Y73610D02*
X23300Y75300D01*
G01D02*
X24990Y76990D01*
G01X21610D02*
X23300Y75300D01*
G01D02*
X24990Y73610D01*
G01X16110Y66010D02*
X17800Y67700D01*
G01D02*
X19490Y69390D01*
G01X16110D02*
X17800Y67700D01*
G01D02*
X19490Y66010D01*
G01X22810Y66210D02*
X24500Y67900D01*
G01D02*
X26190Y69590D01*
G01X22810D02*
X24500Y67900D01*
G01D02*
X26190Y66210D01*
G01X25600Y64000D02*
X27290Y62310D01*
G01X8400Y75000D02*
X10090Y76690D01*
G01X8400Y75000D02*
X10090Y73310D01*
G01X8700Y67600D02*
X10390Y69290D01*
G01X8700Y67600D02*
X10390Y65910D01*
G01X33300Y97520D02*
X22420D01*
X21600Y96700D01*
X19300D01*
G01X11130Y94390D02*
X13300Y96700D01*
G01D02*
X15470Y99010D01*
G01X11130D02*
X13300Y96700D01*
G01D02*
X15470Y94390D01*
G01X11130Y87290D02*
X13300Y89600D01*
G01D02*
X15470Y91910D01*
G01X11130D02*
X13300Y89600D01*
G01D02*
X15470Y87290D01*
G01X11130Y81390D02*
X13300Y83700D01*
G01D02*
X15470Y86010D01*
G01X11130D02*
X13300Y83700D01*
G01D02*
X15470Y81390D01*
G01X26300Y89640D02*
X21640D01*
X21600Y89600D01*
X19300D01*
G01X33300Y83740D02*
X21640D01*
X21600Y83700D01*
X19300D01*
G01X33770Y113270D02*
X22730D01*
X21600Y114400D01*
X19300D01*
G01X11130Y112090D02*
X13300Y114400D01*
G01D02*
X15470Y116710D01*
G01X11130D02*
X13300Y114400D01*
G01D02*
X15470Y112090D01*
G01X11130Y106190D02*
X13300Y108500D01*
G01D02*
X15470Y110810D01*
G01X11130D02*
X13300Y108500D01*
G01D02*
X15470Y106190D01*
G01X11130Y100290D02*
X13300Y102600D01*
G01D02*
X15470Y104910D01*
G01X11130D02*
X13300Y102600D01*
G01D02*
X15470Y100290D01*
G01X26300Y103420D02*
X22420D01*
X21600Y102600D01*
X19300D01*
G01X25840Y107360D02*
X24700Y108500D01*
X19300D01*
G01X33400Y130980D02*
X22820D01*
X21600Y132200D01*
X19300D01*
G01X11130Y123990D02*
X13300Y126300D01*
G01D02*
X15470Y128610D01*
G01X11130D02*
X13300Y126300D01*
G01D02*
X15470Y123990D01*
G01X11130Y129890D02*
X13300Y132200D01*
G01D02*
X15470Y134510D01*
G01X11130D02*
X13300Y132200D01*
G01D02*
X15470Y129890D01*
G01X11130Y117990D02*
X13300Y120300D01*
G01D02*
X15470Y122610D01*
G01X11130D02*
X13300Y120300D01*
G01D02*
X15470Y117990D01*
G01X33450Y127050D02*
X22350D01*
X21600Y126300D01*
X19300D01*
G01Y120300D02*
X21600D01*
X22440Y121140D01*
X26300D01*
G01X11130Y147890D02*
X13300Y150200D01*
G01D02*
X15470Y152510D01*
G01X11130D02*
X13300Y150200D01*
G01D02*
X15470Y147890D01*
G01X11130Y141990D02*
X13300Y144300D01*
G01D02*
X15470Y146610D01*
G01X11130D02*
X13300Y144300D01*
G01D02*
X15470Y141990D01*
G01X11130Y135790D02*
X13300Y138100D01*
G01D02*
X15470Y140410D01*
G01X11130D02*
X13300Y138100D01*
G01D02*
X15470Y135790D01*
G01X26300Y150670D02*
X22070D01*
X21600Y150200D01*
X19300D01*
G01X26300Y136890D02*
X22820D01*
X21610Y138100D01*
X19300D01*
G01X33300Y144760D02*
X22060D01*
X21600Y144300D01*
X19300D01*
G01X33300Y160510D02*
X23090D01*
X21600Y162000D01*
X19300D01*
G01X11130Y166090D02*
X13300Y168400D01*
G01D02*
X15470Y170710D01*
G01X11130D02*
X13300Y168400D01*
G01D02*
X15470Y166090D01*
G01X11130Y159690D02*
X13300Y162000D01*
G01D02*
X15470Y164310D01*
G01X11130D02*
X13300Y162000D01*
G01D02*
X15470Y159690D01*
G01X11130Y153790D02*
X13300Y156100D01*
G01D02*
X15470Y158410D01*
G01X11130D02*
X13300Y156100D01*
G01D02*
X15470Y153790D01*
G01X26300Y154600D02*
X23200D01*
X21700Y156100D01*
X19300D01*
G01X26300Y168380D02*
X21620D01*
X21600Y168400D01*
X19300D01*
G01X22530Y187330D02*
X23800Y188600D01*
G01D02*
X25070Y187330D01*
G01X14610Y186610D02*
X16300Y188300D01*
G01D02*
X17990Y186610D01*
G01X21330Y179930D02*
X22600Y181200D01*
G01D02*
X23870Y182470D01*
G01X21330D02*
X22600Y181200D01*
G01D02*
X23870Y179930D01*
G01X11130Y171990D02*
X13300Y174300D01*
G01D02*
X15470Y176610D01*
G01X11130D02*
X13300Y174300D01*
G01D02*
X15470Y171990D01*
G01X8210Y185410D02*
X9900Y187100D01*
G01D02*
X11590Y188790D01*
G01X8210D02*
X9900Y187100D01*
G01D02*
X11590Y185410D01*
G01X33300Y174290D02*
X21610D01*
X21600Y174300D01*
X19300D01*
G01X13010Y195910D02*
X14700Y197600D01*
G01D02*
X16390Y199290D01*
G01X13010D02*
X14700Y197600D01*
G01D02*
X16390Y195910D01*
G01X23010D02*
X24700Y197600D01*
G01D02*
X26390Y199290D01*
G01X23010D02*
X24700Y197600D01*
G01D02*
X26390Y195910D01*
G01X23800Y188600D02*
X25070Y189870D01*
G01X22530D02*
X23800Y188600D01*
G01X16300Y188300D02*
X17990Y189990D01*
G01X14610D02*
X16300Y188300D01*
G01X20000Y213790D02*
Y217500D01*
G01D02*
Y221210D01*
G01X16290Y217500D02*
X20000D01*
G01D02*
X23710D01*
G01X17180Y214680D02*
X20000Y217500D01*
G01D02*
X22820Y220320D01*
G01X17180D02*
X20000Y217500D01*
G01D02*
X22820Y214680D01*
G01X13010Y205910D02*
X14700Y207600D01*
G01D02*
X16390Y209290D01*
G01X13010D02*
X14700Y207600D01*
G01D02*
X16390Y205910D01*
G01X23010D02*
X24700Y207600D01*
G01D02*
X26390Y209290D01*
G01X23010D02*
X24700Y207600D01*
G01D02*
X26390Y205910D01*
G01X40000Y40490D02*
Y50000D01*
G01X33080Y43080D02*
X40000Y50000D01*
G01X36710Y61610D02*
X38400Y63300D01*
G01D02*
X40090Y61610D01*
G01X40000Y50000D02*
Y59510D01*
G01X30490Y50000D02*
X40000D01*
G01D02*
X49510D01*
G01X40000D02*
X46920Y56920D01*
G01X33080D02*
X40000Y50000D01*
G01D02*
X46920Y43080D01*
G01X27290Y62310D02*
X28980Y60620D01*
G01X28110Y68810D02*
X29800Y70500D01*
G01D02*
X31490Y72190D01*
G01X28110D02*
X29800Y70500D01*
G01D02*
X31490Y68810D01*
G01X27810Y74410D02*
X29500Y76100D01*
G01D02*
X31190Y77790D01*
G01X27810D02*
X29500Y76100D01*
G01D02*
X31190Y74410D01*
G01X43210Y76110D02*
X44900Y77800D01*
G01X43210Y79490D02*
X44900Y77800D01*
G01X31330Y77930D02*
X32600Y79200D01*
G01D02*
X33870Y80470D01*
G01X31330D02*
X32600Y79200D01*
G01D02*
X33870Y77930D01*
G01X38400Y63300D02*
X40090Y64990D01*
G01X36710D02*
X38400Y63300D01*
G01X27290Y62310D02*
X28980Y64000D01*
G01X36230Y96030D02*
X37500Y97300D01*
G01D02*
X38770Y98570D01*
G01X36230D02*
X37500Y97300D01*
G01D02*
X38770Y96030D01*
G01X41230Y96130D02*
X42500Y97400D01*
G01D02*
X43770Y98670D01*
G01X41230D02*
X42500Y97400D01*
G01D02*
X43770Y96130D01*
G01X36130Y88330D02*
X37400Y89600D01*
G01D02*
X38670Y90870D01*
G01X36130D02*
X37400Y89600D01*
G01D02*
X38670Y88330D01*
G01X42430D02*
X43700Y89600D01*
G01D02*
X44970Y90870D01*
G01X42430D02*
X43700Y89600D01*
G01D02*
X44970Y88330D01*
G01X37930Y80430D02*
X39200Y81700D01*
G01D02*
X40470Y82970D01*
G01X37930D02*
X39200Y81700D01*
G01D02*
X40470Y80430D01*
G01X37330Y111930D02*
X38600Y113200D01*
G01D02*
X39870Y114470D01*
G01X37330D02*
X38600Y113200D01*
G01D02*
X39870Y111930D01*
G01X41030D02*
X42300Y113200D01*
G01D02*
X43570Y114470D01*
G01X41030D02*
X42300Y113200D01*
G01D02*
X43570Y111930D01*
G01X36430Y129930D02*
X37700Y131200D01*
G01D02*
X38970Y132470D01*
G01X36430D02*
X37700Y131200D01*
G01D02*
X38970Y129930D01*
G01X41230Y130330D02*
X42500Y131600D01*
G01D02*
X43770Y132870D01*
G01X41230D02*
X42500Y131600D01*
G01D02*
X43770Y130330D01*
G01X36130Y143930D02*
X37400Y145200D01*
G01D02*
X38670Y146470D01*
G01X36130D02*
X37400Y145200D01*
G01D02*
X38670Y143930D01*
G01X35430Y149330D02*
X36700Y150600D01*
G01D02*
X37970Y151870D01*
G01X35430D02*
X36700Y150600D01*
G01D02*
X37970Y149330D01*
G01X39530D02*
X40800Y150600D01*
G01D02*
X42070Y151870D01*
G01X39530D02*
X40800Y150600D01*
G01D02*
X42070Y149330D01*
G01X41230Y143930D02*
X42500Y145200D01*
G01D02*
X43770Y146470D01*
G01X41230D02*
X42500Y145200D01*
G01D02*
X43770Y143930D01*
G01X36130Y139630D02*
X37400Y140900D01*
G01D02*
X38670Y142170D01*
G01X36130D02*
X37400Y140900D01*
G01D02*
X38670Y139630D01*
G01X35430Y167930D02*
X36700Y169200D01*
G01D02*
X37970Y170470D01*
G01X35430D02*
X36700Y169200D01*
G01D02*
X37970Y167930D01*
G01X40430Y167730D02*
X41700Y169000D01*
G01D02*
X42970Y170270D01*
G01X40430D02*
X41700Y169000D01*
G01D02*
X42970Y167730D01*
G01X35730Y161730D02*
X37000Y163000D01*
G01D02*
X38270Y164270D01*
G01X35730D02*
X37000Y163000D01*
G01D02*
X38270Y161730D01*
G01X41230Y161530D02*
X42500Y162800D01*
G01D02*
X43770Y164070D01*
G01X41230D02*
X42500Y162800D01*
G01D02*
X43770Y161530D01*
G01X36630Y155330D02*
X37900Y156600D01*
G01D02*
X39170Y157870D01*
G01X36630D02*
X37900Y156600D01*
G01D02*
X39170Y155330D01*
G01X41030D02*
X42300Y156600D01*
G01D02*
X43570Y157870D01*
G01X41030D02*
X42300Y156600D01*
G01D02*
X43570Y155330D01*
G01X39310Y179910D02*
X41000Y181600D01*
G01D02*
X42690Y183290D01*
G01X39310D02*
X41000Y181600D01*
G01D02*
X42690Y179910D01*
G01X28230Y181330D02*
X29500Y182600D01*
G01D02*
X30770Y183870D01*
G01X28230D02*
X29500Y182600D01*
G01D02*
X30770Y181330D01*
G01X40230Y174830D02*
X41500Y176100D01*
G01D02*
X42770Y177370D01*
G01X40230D02*
X41500Y176100D01*
G01D02*
X42770Y174830D01*
G01X35530Y176630D02*
X36800Y177900D01*
G01D02*
X38070Y179170D01*
G01X35530D02*
X36800Y177900D01*
G01D02*
X38070Y176630D01*
G01X28510Y188510D02*
X30200Y190200D01*
G01D02*
X31890Y191890D01*
G01X28510D02*
X30200Y190200D01*
G01D02*
X31890Y188510D01*
G01X40000Y200490D02*
Y210000D01*
G01X33080Y203080D02*
X40000Y210000D01*
G01X32910Y194610D02*
X34600Y196300D01*
G01D02*
X36290Y197990D01*
G01X32910D02*
X34600Y196300D01*
G01D02*
X36290Y194610D01*
G01X43110Y194410D02*
X44800Y196100D01*
G01X43110Y197790D02*
X44800Y196100D01*
G01X40000Y210000D02*
Y219510D01*
G01X30490Y210000D02*
X40000D01*
G01D02*
X49510D01*
G01X40000D02*
X46920Y216920D01*
G01X33080D02*
X40000Y210000D01*
G01D02*
X46920Y203080D01*
G01X60000Y38790D02*
Y42500D01*
G01D02*
Y46210D01*
G01X56290Y42500D02*
X60000D01*
G01D02*
X63710D01*
G01X57180Y39680D02*
X60000Y42500D01*
G01D02*
X62820Y45320D01*
G01X57180D02*
X60000Y42500D01*
G01D02*
X62820Y39680D01*
G01X56910Y50110D02*
X58600Y51800D01*
G01D02*
X60290Y53490D01*
G01X56910D02*
X58600Y51800D01*
G01D02*
X60290Y50110D01*
G01X46770Y61870D02*
X48460Y63560D01*
G01D02*
X50150Y61870D01*
G01X47610Y73410D02*
X49300Y75100D01*
G01D02*
X50990Y76790D01*
G01X47610D02*
X49300Y75100D01*
G01D02*
X50990Y73410D01*
G01X48460Y63560D02*
X50150Y65250D01*
G01X46770D02*
X48460Y63560D01*
G01X56810Y62110D02*
X58500Y63800D01*
G01D02*
X60190Y65490D01*
G01X56810D02*
X58500Y63800D01*
G01D02*
X60190Y62110D01*
G01X44900Y77800D02*
X46590Y79490D01*
G01X44900Y77800D02*
X46590Y76110D01*
G01X53800Y89640D02*
X56740D01*
X56800Y89700D01*
X59100D01*
G01X46700Y83740D02*
X56760D01*
X56800Y83700D01*
X59100D01*
G01X46700Y97520D02*
X53780D01*
X54800Y96500D01*
X59100D01*
G01X53800Y107360D02*
X55860D01*
X56800Y108300D01*
X59100D01*
G01X53800Y103420D02*
X55780D01*
X56800Y102400D01*
X59100D01*
G01X46700Y109330D02*
X48270Y110900D01*
X70000D01*
G01X46700Y113270D02*
X55870D01*
X56800Y114200D01*
X59100D01*
G01X46700Y127050D02*
X55950D01*
X56800Y126200D01*
X59100D01*
G01X46700Y130980D02*
X55680D01*
X56800Y132100D01*
X59100D01*
G01X53800Y121140D02*
X55960D01*
X56800Y120300D01*
X59100D01*
G01X53800Y136890D02*
X55690D01*
X56800Y138000D01*
X59100D01*
G01X53800Y150670D02*
X56230D01*
X56800Y150100D01*
X59100D01*
G01X46700Y144760D02*
X56240D01*
X56800Y144200D01*
X59100D01*
G01X53800Y168380D02*
X56780D01*
X56800Y168400D01*
X59100D01*
G01X46700Y160510D02*
X55410D01*
X56800Y161900D01*
X59100D01*
G01X54000Y154600D02*
X55400Y156000D01*
X59100D01*
G01X46700Y174290D02*
X56790D01*
X56800Y174300D01*
X59100D01*
G01X46610Y182110D02*
X48300Y183800D01*
G01D02*
X49990Y185490D01*
G01X46610D02*
X48300Y183800D01*
G01D02*
X49990Y182110D01*
G01X53010Y195910D02*
X54700Y197600D01*
G01D02*
X56390Y199290D01*
G01X53010D02*
X54700Y197600D01*
G01D02*
X56390Y195910D01*
G01X47430Y191330D02*
X48700Y192600D01*
G01D02*
X49970Y193870D01*
G01X47430D02*
X48700Y192600D01*
G01D02*
X49970Y191330D01*
G01X44800Y196100D02*
X46490Y197790D01*
G01X44800Y196100D02*
X46490Y194410D01*
G01X60000Y213790D02*
Y217500D01*
G01D02*
Y221210D01*
G01X56290Y217500D02*
X60000D01*
G01D02*
X63710D01*
G01X57180Y214680D02*
X60000Y217500D01*
G01D02*
X62820Y220320D01*
G01X57180D02*
X60000Y217500D01*
G01D02*
X62820Y214680D01*
G01X53010Y205910D02*
X54700Y207600D01*
G01D02*
X56390Y209290D01*
G01X53010D02*
X54700Y207600D01*
G01D02*
X56390Y205910D01*
G01X65810Y48310D02*
X67500Y50000D01*
G01D02*
X69190Y51690D01*
G01X65810D02*
X67500Y50000D01*
G01D02*
X69190Y48310D01*
G01X65710Y62010D02*
X67400Y63700D01*
G01D02*
X69090Y65390D01*
G01X65710D02*
X67400Y63700D01*
G01D02*
X69090Y62010D01*
G01X62930Y94190D02*
X65100Y96500D01*
G01D02*
X67270Y98810D01*
G01X62930D02*
X65100Y96500D01*
G01D02*
X67270Y94190D01*
G01X62930Y87390D02*
X65100Y89700D01*
G01D02*
X67270Y92010D01*
G01X62930D02*
X65100Y89700D01*
G01D02*
X67270Y87390D01*
G01X62930Y81390D02*
X65100Y83700D01*
G01D02*
X67270Y86010D01*
G01X62930D02*
X65100Y83700D01*
G01D02*
X67270Y81390D01*
G01X65100Y114200D02*
X67270Y116510D01*
G01X62930D02*
X65100Y114200D01*
G01X62930Y105990D02*
X65100Y108300D01*
G01D02*
X67270Y105990D01*
G01X62930Y100090D02*
X65100Y102400D01*
G01D02*
X67270Y104710D01*
G01X62930D02*
X65100Y102400D01*
G01D02*
X67270Y100090D01*
G01X62930Y123890D02*
X65100Y126200D01*
G01D02*
X67270Y128510D01*
G01X62930D02*
X65100Y126200D01*
G01D02*
X67270Y123890D01*
G01X62930Y117990D02*
X65100Y120300D01*
G01D02*
X67270Y122610D01*
G01X62930D02*
X65100Y120300D01*
G01D02*
X67270Y117990D01*
G01X62930Y129790D02*
X65100Y132100D01*
G01D02*
X67270Y134410D01*
G01X62930D02*
X65100Y132100D01*
G01D02*
X67270Y129790D01*
G01X62930Y147790D02*
X65100Y150100D01*
G01D02*
X67270Y152410D01*
G01X62930D02*
X65100Y150100D01*
G01D02*
X67270Y147790D01*
G01X62930Y141890D02*
X65100Y144200D01*
G01D02*
X67270Y146510D01*
G01X62930D02*
X65100Y144200D01*
G01D02*
X67270Y141890D01*
G01X62930Y135690D02*
X65100Y138000D01*
G01D02*
X67270Y140310D01*
G01X62930D02*
X65100Y138000D01*
G01D02*
X67270Y135690D01*
G01X62930Y166090D02*
X65100Y168400D01*
G01D02*
X67270Y170710D01*
G01X62930D02*
X65100Y168400D01*
G01D02*
X67270Y166090D01*
G01X62930Y159590D02*
X65100Y161900D01*
G01D02*
X67270Y164210D01*
G01X62930D02*
X65100Y161900D01*
G01D02*
X67270Y159590D01*
G01X62930Y153690D02*
X65100Y156000D01*
G01D02*
X67270Y158310D01*
G01X62930D02*
X65100Y156000D01*
G01D02*
X67270Y153690D01*
G01X62930Y171990D02*
X65100Y174300D01*
G01D02*
X67270Y176610D01*
G01X62930D02*
X65100Y174300D01*
G01D02*
X67270Y171990D01*
G01X63610Y196310D02*
X65300Y198000D01*
G01D02*
X66990Y199690D01*
G01X63610D02*
X65300Y198000D01*
G01D02*
X66990Y196310D01*
G01X63210Y205910D02*
X64900Y207600D01*
G01D02*
X66590Y209290D01*
G01X63210D02*
X64900Y207600D01*
G01D02*
X66590Y205910D01*
G01X330490Y20000D02*
X340000D01*
G01X327230Y36230D02*
X328500Y37500D01*
G01D02*
X329770Y38770D01*
G01X327230D02*
X328500Y37500D01*
G01D02*
X329770Y36230D01*
G01X327130Y29930D02*
X328400Y31200D01*
G01D02*
X329670Y32470D01*
G01X327130D02*
X328400Y31200D01*
G01D02*
X329670Y29930D01*
G01X330490Y240000D02*
X340000D01*
G01Y10490D02*
Y20000D01*
G01D02*
Y29510D01*
G01Y20000D02*
X349510D01*
G01X333080Y13080D02*
X340000Y20000D01*
G01D02*
X346920Y26920D01*
G01X333080D02*
X340000Y20000D01*
G01D02*
X346920Y13080D01*
G01X332930Y36030D02*
X334200Y37300D01*
G01D02*
X335470Y38570D01*
G01X332930D02*
X334200Y37300D01*
G01D02*
X335470Y36030D01*
G01X338430Y36330D02*
X339700Y37600D01*
G01D02*
X340970Y38870D01*
G01X338430D02*
X339700Y37600D01*
G01D02*
X340970Y36330D01*
G01X341830Y31330D02*
X343100Y32600D01*
G01D02*
X344370Y33870D01*
G01X341830D02*
X343100Y32600D01*
G01D02*
X344370Y31330D01*
G01X340000Y230490D02*
Y240000D01*
G01D02*
Y249510D01*
G01Y240000D02*
X349510D01*
G01X333080Y233080D02*
X340000Y240000D01*
G01D02*
X346920Y246920D01*
G01X333080D02*
X340000Y240000D01*
G01D02*
X346920Y233080D01*
G01X366770Y20330D02*
X372800Y23010D01*
G01X366770Y25690D02*
X372800Y23010D01*
G01X366190Y10800D02*
X369900D01*
G01X351430Y35190D02*
X353600Y37500D01*
G01D02*
X355770Y39810D01*
G01X351430D02*
X353600Y37500D01*
G01D02*
X355770Y35190D01*
G01X359600Y37500D02*
X370300D01*
G01X366500Y52500D02*
X370300D01*
G01X366500Y57500D02*
X370300D01*
G01X366500Y47500D02*
X370300D01*
G01X366500Y67500D02*
X370300D01*
G01X366500Y77500D02*
X370300D01*
G01X366500Y62500D02*
X370300D01*
G01X366500Y87500D02*
X370300D01*
G01X366500Y82500D02*
X370300D01*
G01X362200Y92500D02*
X370300D01*
G01X364340Y107500D02*
X370300D01*
G01X362200Y124900D02*
X364800Y127500D01*
X370300D01*
G01X363300Y115800D02*
X365000Y117500D01*
X370300D01*
G01X366500Y122500D02*
X370300D01*
G01X366500Y142500D02*
X370300D01*
G01X366500Y147500D02*
X370300D01*
G01X366500Y137500D02*
X370300D01*
G01Y157500D02*
X366500D01*
G01Y152500D02*
X370300D01*
G01X366500Y167500D02*
X370300D01*
G01X366500Y177500D02*
X370300D01*
G01X366500Y172500D02*
X370300D01*
G01X366500Y182500D02*
X370300D01*
G01X366500Y202500D02*
X370300D01*
G01X366500Y197500D02*
X370300D01*
G01X366500Y187500D02*
X370300D01*
G01X366500Y207500D02*
X370300D01*
G01X366500Y222500D02*
X370300D01*
G01X366500Y217500D02*
X370300D01*
G01X366500Y212500D02*
X370300D01*
G01X366770Y234310D02*
X372800Y236990D01*
G01X366770Y239670D02*
X372800Y236990D01*
G01X366500Y227500D02*
X370300D01*
G01X363400Y245490D02*
Y249200D01*
G01D02*
Y252910D01*
G01X359690Y249200D02*
X363400D01*
G01D02*
X367110D01*
G01X360580Y246380D02*
X363400Y249200D01*
G01D02*
X366220Y252020D01*
G01X360580D02*
X363400Y249200D01*
G01D02*
X366220Y246380D01*
G01X369900Y7090D02*
Y10800D01*
G01X367080Y7980D02*
X369900Y10800D01*
G01D02*
X372720Y7980D01*
G01X372800Y23010D02*
X378830Y25690D01*
G01X372800Y23010D02*
X378830Y20330D01*
G01X383170Y19540D02*
Y23800D01*
G01D02*
Y28060D01*
G01X378910Y23800D02*
X383170D01*
G01D02*
X387430D01*
G01X379960Y20590D02*
X383170Y23800D01*
G01D02*
X386380Y27010D01*
G01X379960D02*
X383170Y23800D01*
G01D02*
X386380Y20590D01*
G01X369900Y10800D02*
Y14510D01*
G01Y10800D02*
X373610D01*
G01X369900D02*
X372720Y13620D01*
G01X367080D02*
X369900Y10800D01*
G01X373010Y35210D02*
X375300Y37500D01*
G01D02*
X377590Y39790D01*
G01X373010D02*
X375300Y37500D01*
G01D02*
X377590Y35210D01*
G01X368010Y30210D02*
X370300Y32500D01*
G01D02*
X372590Y34790D01*
G01X368010D02*
X370300Y32500D01*
G01D02*
X372590Y30210D01*
G01X368010Y40210D02*
X370300Y42500D01*
G01D02*
X372590Y44790D01*
G01X368010D02*
X370300Y42500D01*
G01D02*
X372590Y40210D01*
G01X379400Y42500D02*
X375300D01*
G01Y32500D02*
X378500D01*
G01X379400Y52500D02*
X375300D01*
G01X379400Y47500D02*
X375300D01*
G01X379400Y57500D02*
X375300D01*
G01X373010Y65210D02*
X375300Y67500D01*
G01D02*
X377590Y69790D01*
G01X373010D02*
X375300Y67500D01*
G01D02*
X377590Y65210D01*
G01X368010Y70210D02*
X370300Y72500D01*
G01D02*
X372590Y74790D01*
G01X368010D02*
X370300Y72500D01*
G01D02*
X372590Y70210D01*
G01X379400Y77500D02*
X375300D01*
G01X379400Y72500D02*
X375300D01*
G01X379400Y62500D02*
X375300D01*
G01X379400Y87500D02*
X375300D01*
G01X373010Y95210D02*
X375300Y97500D01*
G01D02*
X377590Y99790D01*
G01X373010D02*
X375300Y97500D01*
G01D02*
X377590Y95210D01*
G01X379400Y92500D02*
X375300D01*
G01X367000Y100800D02*
X370300Y97500D01*
G01X379400Y82500D02*
X375300D01*
G01X370300Y102500D02*
X372590Y104790D01*
G01X368010D02*
X370300Y102500D01*
G01D02*
X372590Y100210D01*
G01X379400Y102500D02*
X375300D01*
G01X379400Y112500D02*
X375300D01*
G01X379400Y107500D02*
X375300D01*
G01X367100Y114000D02*
X368600Y112500D01*
X370300D01*
G01X379400Y122500D02*
X375300D01*
G01X373010Y125210D02*
X375300Y127500D01*
G01D02*
X377590Y129790D01*
G01X373010D02*
X375300Y127500D01*
G01D02*
X377590Y125210D01*
G01X368010Y130210D02*
X370300Y132500D01*
G01D02*
X372590Y134790D01*
G01X368010D02*
X370300Y132500D01*
G01D02*
X372590Y130210D01*
G01X379400Y132500D02*
X375300D01*
G01X379400Y117500D02*
X375300D01*
G01X379400Y137500D02*
X375300D01*
G01X379400Y142500D02*
X375300D01*
G01X379400Y147500D02*
X375300D01*
G01X373010Y155210D02*
X375300Y157500D01*
G01D02*
X377590Y159790D01*
G01X373010D02*
X375300Y157500D01*
G01D02*
X377590Y155210D01*
G01X368010Y160210D02*
X370300Y162500D01*
G01D02*
X372590Y164790D01*
G01X368010D02*
X370300Y162500D01*
G01D02*
X372590Y160210D01*
G01X379400Y167500D02*
X375300D01*
G01X379400Y162500D02*
X375300D01*
G01X379400Y152500D02*
X375300D01*
G01X379400Y177500D02*
X375300D01*
G01X373010Y185210D02*
X375300Y187500D01*
G01D02*
X377590Y185210D01*
G01X379400Y182500D02*
X375300D01*
G01X379400Y172500D02*
X375300D01*
G01X379400Y192500D02*
X375300D01*
G01X368010Y190210D02*
X370300Y192500D01*
G01D02*
X372590Y194790D01*
G01X368010D02*
X370300Y192500D01*
G01D02*
X372590Y190210D01*
G01X375300Y187500D02*
X377590Y189790D01*
G01X373010D02*
X375300Y187500D01*
G01X379400Y197500D02*
X375300D01*
G01X379400Y202500D02*
X375300D01*
G01X379400Y222500D02*
X375300D01*
G01X373010Y215210D02*
X375300Y217500D01*
G01D02*
X377590Y219790D01*
G01X373010D02*
X375300Y217500D01*
G01D02*
X377590Y215210D01*
G01X379400Y212500D02*
X375300D01*
G01X379400Y207500D02*
X375300D01*
G01X372800Y236990D02*
X378830Y239670D01*
G01X372800Y236990D02*
X378830Y234310D01*
G01X383170Y231940D02*
Y236200D01*
G01D02*
Y240460D01*
G01X378910Y236200D02*
X383170D01*
G01D02*
X387430D01*
G01X379960Y232990D02*
X383170Y236200D01*
G01D02*
X386380Y239410D01*
G01X379960D02*
X383170Y236200D01*
G01D02*
X386380Y232990D01*
G01X379400Y227500D02*
X375300D01*
G01X390400Y7590D02*
Y11300D01*
G01X388030Y20330D02*
X394060Y23010D01*
G01X388030Y25690D02*
X394060Y23010D01*
G01X390400Y11300D02*
Y15010D01*
G01X386690Y11300D02*
X390400D01*
G01D02*
X394110D01*
G01X387580Y8480D02*
X390400Y11300D01*
G01D02*
X393220Y14120D01*
G01X387580D02*
X390400Y11300D01*
G01D02*
X393220Y8480D01*
G01X386030Y41530D02*
X387300Y42800D01*
G01D02*
X388570Y44070D01*
G01X386030D02*
X387300Y42800D01*
G01D02*
X388570Y41530D01*
G01X386030Y61530D02*
X387300Y62800D01*
G01D02*
X388570Y61530D01*
G01X386030Y56530D02*
X387300Y57800D01*
G01D02*
X388570Y59070D01*
G01X386030D02*
X387300Y57800D01*
G01D02*
X388570Y56530D01*
G01X386030Y51530D02*
X387300Y52800D01*
G01D02*
X388570Y54070D01*
G01X386030D02*
X387300Y52800D01*
G01D02*
X388570Y51530D01*
G01X386030Y46530D02*
X387300Y47800D01*
G01D02*
X388570Y49070D01*
G01X386030D02*
X387300Y47800D01*
G01D02*
X388570Y46530D01*
G01X386030Y76530D02*
X387300Y77800D01*
G01D02*
X388570Y79070D01*
G01X386030D02*
X387300Y77800D01*
G01D02*
X388570Y76530D01*
G01X386030Y71530D02*
X387300Y72800D01*
G01D02*
X388570Y74070D01*
G01X386030D02*
X387300Y72800D01*
G01D02*
X388570Y71530D01*
G01X386030Y66530D02*
X387300Y67800D01*
G01D02*
X388570Y69070D01*
G01X386030D02*
X387300Y67800D01*
G01D02*
X388570Y66530D01*
G01X387300Y62800D02*
X388570Y64070D01*
G01X386030D02*
X387300Y62800D01*
G01X386030Y96530D02*
X387300Y97800D01*
G01D02*
X388570Y96530D01*
G01X386030Y91530D02*
X387300Y92800D01*
G01D02*
X388570Y94070D01*
G01X386030D02*
X387300Y92800D01*
G01D02*
X388570Y91530D01*
G01X386030Y86530D02*
X387300Y87800D01*
G01D02*
X388570Y89070D01*
G01X386030D02*
X387300Y87800D01*
G01D02*
X388570Y86530D01*
G01X386030Y81530D02*
X387300Y82800D01*
G01D02*
X388570Y84070D01*
G01X386030D02*
X387300Y82800D01*
G01D02*
X388570Y81530D01*
G01X386030Y111530D02*
X387300Y112800D01*
G01D02*
X388570Y114070D01*
G01X386030D02*
X387300Y112800D01*
G01D02*
X388570Y111530D01*
G01X386030Y106530D02*
X387300Y107800D01*
G01D02*
X388570Y109070D01*
G01X386030D02*
X387300Y107800D01*
G01D02*
X388570Y106530D01*
G01X386030Y101530D02*
X387300Y102800D01*
G01D02*
X388570Y104070D01*
G01X386030D02*
X387300Y102800D01*
G01D02*
X388570Y101530D01*
G01X387300Y97800D02*
X388570Y99070D01*
G01X386030D02*
X387300Y97800D01*
G01X386030Y131530D02*
X387300Y132800D01*
G01D02*
X388570Y134070D01*
G01X386030D02*
X387300Y132800D01*
G01D02*
X388570Y131530D01*
G01X386030Y126530D02*
X387300Y127800D01*
G01D02*
X388570Y129070D01*
G01X386030D02*
X387300Y127800D01*
G01D02*
X388570Y126530D01*
G01X386030Y121530D02*
X387300Y122800D01*
G01D02*
X388570Y124070D01*
G01X386030D02*
X387300Y122800D01*
G01D02*
X388570Y121530D01*
G01X386030Y116530D02*
X387300Y117800D01*
G01D02*
X388570Y119070D01*
G01X386030D02*
X387300Y117800D01*
G01D02*
X388570Y116530D01*
G01X386030Y151530D02*
X387300Y152800D01*
G01D02*
X388570Y151530D01*
G01X386030Y146530D02*
X387300Y147800D01*
G01D02*
X388570Y149070D01*
G01X386030D02*
X387300Y147800D01*
G01D02*
X388570Y146530D01*
G01X386030Y141530D02*
X387300Y142800D01*
G01D02*
X388570Y144070D01*
G01X386030D02*
X387300Y142800D01*
G01D02*
X388570Y141530D01*
G01X386030Y136530D02*
X387300Y137800D01*
G01D02*
X388570Y139070D01*
G01X386030D02*
X387300Y137800D01*
G01D02*
X388570Y136530D01*
G01X386030Y166530D02*
X387300Y167800D01*
G01D02*
X388570Y169070D01*
G01X386030D02*
X387300Y167800D01*
G01D02*
X388570Y166530D01*
G01X386030Y161530D02*
X387300Y162800D01*
G01D02*
X388570Y164070D01*
G01X386030D02*
X387300Y162800D01*
G01D02*
X388570Y161530D01*
G01X386030Y156530D02*
X387300Y157800D01*
G01D02*
X388570Y159070D01*
G01X386030D02*
X387300Y157800D01*
G01D02*
X388570Y156530D01*
G01X387300Y152800D02*
X388570Y154070D01*
G01X386030D02*
X387300Y152800D01*
G01X386030Y186530D02*
X387300Y187800D01*
G01D02*
X388570Y186530D01*
G01X386030Y181530D02*
X387300Y182800D01*
G01D02*
X388570Y184070D01*
G01X386030D02*
X387300Y182800D01*
G01D02*
X388570Y181530D01*
G01X386030Y176530D02*
X387300Y177800D01*
G01D02*
X388570Y179070D01*
G01X386030D02*
X387300Y177800D01*
G01D02*
X388570Y176530D01*
G01X386030Y171530D02*
X387300Y172800D01*
G01D02*
X388570Y174070D01*
G01X386030D02*
X387300Y172800D01*
G01D02*
X388570Y171530D01*
G01X386030Y201530D02*
X387300Y202800D01*
G01D02*
X388570Y204070D01*
G01X386030D02*
X387300Y202800D01*
G01D02*
X388570Y201530D01*
G01X386030Y196530D02*
X387300Y197800D01*
G01D02*
X388570Y199070D01*
G01X386030D02*
X387300Y197800D01*
G01D02*
X388570Y196530D01*
G01X386030Y191530D02*
X387300Y192800D01*
G01D02*
X388570Y194070D01*
G01X386030D02*
X387300Y192800D01*
G01D02*
X388570Y191530D01*
G01X387300Y187800D02*
X388570Y189070D01*
G01X386030D02*
X387300Y187800D01*
G01X386030Y221530D02*
X387300Y222800D01*
G01D02*
X388570Y224070D01*
G01X386030D02*
X387300Y222800D01*
G01D02*
X388570Y221530D01*
G01X386030Y216530D02*
X387300Y217800D01*
G01D02*
X388570Y219070D01*
G01X386030D02*
X387300Y217800D01*
G01D02*
X388570Y216530D01*
G01X386030Y211530D02*
X387300Y212800D01*
G01D02*
X388570Y214070D01*
G01X386030D02*
X387300Y212800D01*
G01D02*
X388570Y211530D01*
G01X386030Y206530D02*
X387300Y207800D01*
G01D02*
X388570Y209070D01*
G01X386030D02*
X387300Y207800D01*
G01D02*
X388570Y206530D01*
G01X386030Y226530D02*
X387300Y227800D01*
G01D02*
X388570Y229070D01*
G01X386030D02*
X387300Y227800D01*
G01D02*
X388570Y226530D01*
G01X388030Y234310D02*
X394060Y236990D01*
G01X388030Y239670D02*
X394060Y236990D01*
G01X389300Y245890D02*
Y249600D01*
G01D02*
Y253310D01*
G01X385590Y249600D02*
X389300D01*
G01D02*
X393010D01*
G01X386480Y246780D02*
X389300Y249600D01*
G01D02*
X392120Y252420D01*
G01X386480D02*
X389300Y249600D01*
G01D02*
X392120Y246780D01*
M02*
