G04 ================== begin FILE IDENTIFICATION RECORD ==================*
G04 Layout Name:  AGET_ERNI2HRS.brd*
G04 Film Name:    art02*
G04 File Format:  Gerber RS274X*
G04 File Origin:  Cadence Allegro 16.6-S025*
G04 Origin Date:  Thu Sep 14 22:35:07 2017*
G04 *
G04 Layer:  VIA CLASS/SIG1*
G04 Layer:  PIN/SIG1*
G04 Layer:  ETCH/SIG1*
G04 Layer:  BOARD GEOMETRY/OUTLINE*
G04 *
G04 Offset:    (0.0 0.0)*
G04 Mirror:    No*
G04 Mode:      Positive*
G04 Rotation:  0*
G04 FullContactRelief:  No*
G04 UndefLineWidth:     0.0*
G04 ================== end FILE IDENTIFICATION RECORD ====================*
%FSLAX25Y25*MOIN*%
%IR0*IPPOS*OFA0.00000B0.00000*MIA0B0*SFA1.00000B1.00000*%
%ADD13C,.176*%
%ADD12C,.06*%
%ADD11C,.016*%
%ADD10C,.028*%
%ADD14C,.0709*%
%ADD15C,.006*%
G75*
%LPD*%
G75*
G54D10*
X8500Y50400D03*
Y60400D03*
X8700Y67600D03*
X8400Y75000D03*
X9900Y187100D03*
X18500Y50400D03*
X27290Y62310D03*
X18500Y60400D03*
X24500Y67900D03*
X17800Y67700D03*
X23300Y75300D03*
X16300Y75000D03*
Y188300D03*
X24700Y197600D03*
X14700D03*
X24700Y207600D03*
X14700D03*
X38400Y63300D03*
X44900Y77800D03*
X29500Y76100D03*
X29800Y70500D03*
X41000Y181600D03*
X44800Y196100D03*
X34600Y196300D03*
X30200Y190200D03*
X58600Y51800D03*
X58500Y63800D03*
X48460Y63560D03*
X49300Y75100D03*
X48300Y183800D03*
X54700Y197600D03*
Y207600D03*
X67500Y50000D03*
X67400Y63700D03*
X65300Y198000D03*
X64900Y207600D03*
G54D11*
X6300Y80600D03*
Y85600D03*
Y90600D03*
Y95600D03*
Y100600D03*
Y105600D03*
Y110600D03*
Y115600D03*
Y120600D03*
Y125600D03*
Y130600D03*
Y135600D03*
Y140600D03*
Y145600D03*
Y150600D03*
Y155600D03*
Y160600D03*
Y165600D03*
Y170600D03*
Y175600D03*
X26300Y85710D03*
Y89640D03*
Y99490D03*
Y103420D03*
X25840Y107360D03*
X26070Y115230D03*
X26300Y132950D03*
Y129010D03*
Y121140D03*
Y150670D03*
Y146730D03*
Y136890D03*
Y162480D03*
Y154600D03*
Y168380D03*
X22600Y181200D03*
X26300Y176260D03*
X23800Y188600D03*
X32600Y79200D03*
X33300Y97520D03*
X39200Y81700D03*
X43700Y89600D03*
X37400D03*
X42500Y97400D03*
X37500Y97300D03*
X33300Y83740D03*
Y91610D03*
Y105390D03*
X33770Y113270D03*
X42300Y113200D03*
X38600D03*
X33400Y109330D03*
Y130980D03*
X42500Y131600D03*
X37700Y131200D03*
X33450Y127050D03*
X33300Y123110D03*
Y138860D03*
X37400Y140900D03*
X42500Y145200D03*
X40800Y150600D03*
X36700D03*
X37400Y145200D03*
X33300Y144760D03*
Y160510D03*
X42300Y156600D03*
X37900D03*
X42500Y162800D03*
X37000Y163000D03*
X41700Y169000D03*
X36700Y169200D03*
X33300Y156570D03*
Y170350D03*
Y152640D03*
X36800Y177900D03*
X41500Y176100D03*
X29500Y182600D03*
X33300Y174290D03*
X53800Y89640D03*
X46700Y83740D03*
X53800Y85710D03*
X46700Y97520D03*
Y91610D03*
X53800Y107360D03*
Y103420D03*
Y99490D03*
X46700Y109330D03*
Y113270D03*
Y105390D03*
X53930Y115230D03*
X46700Y127050D03*
X53800Y129010D03*
X46700Y130980D03*
X53800Y121140D03*
X46700Y123110D03*
X53800Y132950D03*
Y146730D03*
Y136890D03*
Y150670D03*
X46700Y144760D03*
Y138860D03*
Y152640D03*
Y156570D03*
Y170350D03*
X53800Y168380D03*
X46700Y160510D03*
X53800Y162480D03*
X54000Y154600D03*
X46700Y174290D03*
X53800Y176260D03*
X48700Y192600D03*
X70000Y110900D03*
X328400Y31200D03*
X328500Y37500D03*
X343100Y32600D03*
X339700Y37600D03*
X334200Y37300D03*
X366500Y52500D03*
Y57500D03*
Y47500D03*
Y62500D03*
Y67500D03*
Y77500D03*
Y87500D03*
Y82500D03*
X362200Y92500D03*
X364340Y107500D03*
X367000Y100800D03*
X363300Y115800D03*
X367100Y114000D03*
X362200Y124900D03*
X366500Y122500D03*
Y142500D03*
Y147500D03*
Y137500D03*
Y157500D03*
Y152500D03*
Y167500D03*
Y177500D03*
Y172500D03*
Y187500D03*
Y182500D03*
Y202500D03*
Y197500D03*
Y207500D03*
Y222500D03*
Y217500D03*
Y212500D03*
Y227500D03*
X379400Y42500D03*
X378500Y32500D03*
X379400Y52500D03*
Y47500D03*
Y62500D03*
Y57500D03*
Y77500D03*
Y72500D03*
Y87500D03*
Y92500D03*
Y82500D03*
Y102500D03*
Y112500D03*
Y107500D03*
Y122500D03*
Y132500D03*
Y117500D03*
Y137500D03*
Y142500D03*
Y147500D03*
Y167500D03*
Y162500D03*
Y152500D03*
Y177500D03*
Y182500D03*
Y172500D03*
Y192500D03*
Y197500D03*
Y202500D03*
Y222500D03*
Y212500D03*
Y207500D03*
Y227500D03*
X387300Y42800D03*
Y47800D03*
Y52800D03*
Y57800D03*
Y62800D03*
Y67800D03*
Y72800D03*
Y77800D03*
Y82800D03*
Y87800D03*
Y92800D03*
Y97800D03*
Y102800D03*
Y107800D03*
Y112800D03*
Y117800D03*
Y122800D03*
Y127800D03*
Y132800D03*
Y137800D03*
Y142800D03*
Y147800D03*
Y152800D03*
Y157800D03*
Y162800D03*
Y167800D03*
Y172800D03*
Y177800D03*
Y182800D03*
Y187800D03*
Y192800D03*
Y197800D03*
Y202800D03*
Y207800D03*
Y212800D03*
Y217800D03*
Y222800D03*
Y227800D03*
G54D12*
X20000Y42500D03*
Y217500D03*
X60000Y42500D03*
Y217500D03*
X369900Y10800D03*
X363400Y249200D03*
X390400Y11300D03*
X389300Y249600D03*
G54D13*
X40000Y50000D03*
Y210000D03*
X340000Y20000D03*
Y240000D03*
G54D14*
X383170Y23800D03*
Y236200D03*
G54D15*
G01X2500Y30000D02*
X77500D01*
G03X80000Y32500I0J2500D01*
G01Y60000D01*
X290000D01*
X320000Y30000D01*
Y2500D01*
G03X322500Y0I2500J0D01*
G01X397500D01*
G03X400000Y2500I0J2500D01*
G01Y257500D01*
G03X397500Y260000I-2500J0D01*
G01X322500D01*
G03X320000Y257500I0J-2500D01*
G01Y230000D01*
X290000Y200000D01*
X80000D01*
Y227500D01*
G03X77500Y230000I-2500J0D01*
G01X2500D01*
G03X0Y227500I0J-2500D01*
G01Y32500D01*
G03X2500Y30000I2500J0D01*
G01X366500Y52500D02*
X343600D01*
X320000Y76100D01*
X59500D01*
X49890Y85710D01*
X26300D01*
G01X366500Y62500D02*
X352200D01*
X330200Y84500D01*
X64100D01*
X54300Y94300D01*
X45990D01*
X43300Y91610D01*
X33300D01*
G01X366500Y87500D02*
X362700D01*
X350900Y99300D01*
X69090D01*
X63270Y105120D01*
X48840D01*
X47410Y103690D01*
X35000D01*
X33300Y105390D01*
G01X366500Y77500D02*
X355600D01*
X340900Y92200D01*
X66100D01*
X57110Y101190D01*
X48690D01*
X46990Y99490D01*
X26300D01*
G01X367000Y100800D02*
X361400Y106400D01*
X70610D01*
X67810Y109200D01*
X51200D01*
X49630Y107630D01*
X35100D01*
X33400Y109330D01*
G01X367100Y114000D02*
X75890D01*
X72590Y117300D01*
X51200D01*
X49130Y115230D01*
X26070D01*
G01X366500Y142500D02*
X363900D01*
X353600Y132200D01*
X60000D01*
X57550Y134650D01*
X37070D01*
X33400Y130980D01*
G01X366500Y122500D02*
X364900D01*
X364500Y122900D01*
X51390D01*
X49590Y121100D01*
X35310D01*
X33300Y123110D01*
G01X366500Y172500D02*
X361900D01*
X334500Y145100D01*
X59200D01*
X55870Y148430D01*
X28000D01*
X26300Y146730D01*
G01X366500Y152500D02*
X357600D01*
X343900Y138800D01*
X51200D01*
X49290Y136890D01*
X26300D01*
G01X366500Y202500D02*
X351300D01*
X312100Y163300D01*
X59700D01*
X55210Y158810D01*
X44080D01*
X42380Y160510D01*
X33300D01*
G01X366500Y212500D02*
X346100D01*
X304400Y170800D01*
X59800D01*
X54600Y165600D01*
X29080D01*
X26300Y168380D01*
G01X366500Y182500D02*
X356900D01*
X327300Y152900D01*
X51200D01*
X49760Y154340D01*
X45040D01*
X43340Y152640D01*
X33300D01*
G01X366500Y222500D02*
X339000D01*
X295600Y179100D01*
X60300D01*
X53790Y172590D01*
X35000D01*
X33300Y174290D01*
G01X379400Y42500D02*
X376900Y45000D01*
X341600D01*
X315600Y71000D01*
X59440D01*
X46700Y83740D01*
G01X379400Y52500D02*
X377100Y54800D01*
X352000D01*
X325900Y80900D01*
X62540D01*
X53800Y89640D01*
G01X379400Y62500D02*
X377000Y64900D01*
X358900D01*
X335600Y88200D01*
X65200D01*
X55880Y97520D01*
X46700D01*
G01X379400Y87500D02*
X370700D01*
X355200Y103000D01*
X69400D01*
X65040Y107360D01*
X53800D01*
G01X379400Y77500D02*
X377000Y79900D01*
X361300D01*
X345300Y95900D01*
X67800D01*
X60280Y103420D01*
X53800D01*
G01X379400Y102500D02*
X372500D01*
X364660Y110340D01*
X74270D01*
X71340Y113270D01*
X46700D01*
G01X379400Y122500D02*
X375300Y126600D01*
X357690D01*
X356890Y125800D01*
X57710D01*
X56460Y127050D01*
X46700D01*
G01X379400Y137500D02*
X371800D01*
X363300Y129000D01*
X57500D01*
X55520Y130980D01*
X46700D01*
G01X53800Y121140D02*
X54940Y120000D01*
X73500D01*
X75500Y118000D01*
X366200D01*
X371700Y112500D01*
X379400D01*
G01Y147500D02*
X377000Y145100D01*
X362300D01*
X352200Y135000D01*
X61490D01*
X59600Y136890D01*
X53800D01*
G01X379400Y172500D02*
X377100Y174800D01*
X357400D01*
X331700Y149100D01*
X58490D01*
X56920Y150670D01*
X53800D01*
G01X379400Y162500D02*
X360500D01*
X340000Y142000D01*
X57500D01*
X54740Y144760D01*
X46700D01*
G01X379400Y192500D02*
X350900D01*
X318000Y159600D01*
X59900D01*
X56900Y156600D01*
X48330D01*
X48300Y156570D01*
X46700D01*
G01X379400Y202500D02*
X377100Y204800D01*
X346800D01*
X308900Y166900D01*
X59820D01*
X55400Y162480D01*
X53800D01*
G01X379400Y182500D02*
X377200Y184700D01*
X352500D01*
X323600Y155800D01*
X59800D01*
X58600Y154600D01*
X54000D01*
G01X379400Y222500D02*
X376900Y225000D01*
X335190D01*
X293690Y183500D01*
X55910D01*
X46700Y174290D01*
G01X379400Y212500D02*
X377400Y214500D01*
X339800D01*
X300000Y174700D01*
X59400D01*
X55050Y170350D01*
X46700D01*
M02*
