G04 ================== begin FILE IDENTIFICATION RECORD ==================*
G04 Layout Name:  AGET_ERNI2HRS.brd*
G04 Film Name:    pastetop*
G04 File Format:  Gerber RS274X*
G04 File Origin:  Cadence Allegro 16.6-S025*
G04 Origin Date:  Thu Sep 14 22:35:07 2017*
G04 *
G04 Layer:  PIN/PASTEMASK_TOP*
G04 Layer:  PACKAGE GEOMETRY/DISPLAY_TOP*
G04 Layer:  BOARD GEOMETRY/OUTLINE*
G04 *
G04 Offset:    (0.0 0.0)*
G04 Mirror:    No*
G04 Mode:      Positive*
G04 Rotation:  0*
G04 FullContactRelief:  No*
G04 UndefLineWidth:     6.0*
G04 ================== end FILE IDENTIFICATION RECORD ====================*
%FSLAX25Y25*MOIN*%
%IR0*IPPOS*OFA0.00000B0.00000*MIA0B0*SFA1.00000B1.00000*%
%ADD11C,.176*%
%ADD13R,.1063X.0472*%
%ADD10R,.03X.032*%
%ADD14R,.0315X.0315*%
%ADD12C,.0709*%
%ADD15C,.006*%
G75*
%LPD*%
G75*
G54D10*
X19300Y83700D03*
X13300D03*
X19300Y89600D03*
X13300D03*
X19300Y96700D03*
X13300D03*
X19300Y102600D03*
X13300D03*
X19300Y108500D03*
X13300D03*
X19300Y114400D03*
X13300D03*
X19300Y120300D03*
X13300D03*
X19300Y132200D03*
X13300D03*
X19300Y126300D03*
X13300D03*
X19300Y138100D03*
X13300D03*
X19300Y144300D03*
X13300D03*
X19300Y150200D03*
X13300D03*
X19300Y156100D03*
X13300D03*
X19300Y162000D03*
X13300D03*
X19300Y168400D03*
X13300D03*
X19300Y174300D03*
X13300D03*
X59100Y83700D03*
Y89700D03*
Y96500D03*
Y102400D03*
Y108300D03*
Y114200D03*
Y132100D03*
Y120300D03*
Y126200D03*
Y138000D03*
Y144200D03*
Y150100D03*
Y156000D03*
Y161900D03*
Y168400D03*
Y174300D03*
X65100Y83700D03*
Y89700D03*
Y96500D03*
Y102400D03*
Y108300D03*
Y114200D03*
Y132100D03*
Y120300D03*
Y126200D03*
Y138000D03*
Y144200D03*
Y150100D03*
Y156000D03*
Y161900D03*
Y168400D03*
Y174300D03*
X359600Y37500D03*
X353600D03*
G54D11*
X40000Y50000D03*
Y210000D03*
X340000Y20000D03*
Y240000D03*
G54D12*
X383170Y23800D03*
Y236200D03*
G54D13*
X372800Y23010D03*
Y236990D03*
X394060Y23010D03*
Y236990D03*
G54D14*
X370300Y42500D03*
Y37500D03*
Y32500D03*
X375300Y42500D03*
Y37500D03*
Y32500D03*
X370300Y62500D03*
Y57500D03*
Y52500D03*
Y47500D03*
X375300Y62500D03*
Y57500D03*
Y52500D03*
Y47500D03*
X370300Y77500D03*
Y72500D03*
Y67500D03*
X375300Y77500D03*
Y72500D03*
Y67500D03*
X370300Y97500D03*
Y92500D03*
Y87500D03*
Y82500D03*
X375300Y97500D03*
Y92500D03*
Y87500D03*
Y82500D03*
X370300Y112500D03*
Y107500D03*
Y102500D03*
X375300Y112500D03*
Y107500D03*
Y102500D03*
X370300Y132500D03*
Y127500D03*
Y122500D03*
Y117500D03*
X375300Y132500D03*
Y127500D03*
Y122500D03*
Y117500D03*
X370300Y152500D03*
Y147500D03*
Y142500D03*
Y137500D03*
X375300Y152500D03*
Y147500D03*
Y142500D03*
Y137500D03*
X370300Y167500D03*
Y162500D03*
Y157500D03*
X375300Y167500D03*
Y162500D03*
Y157500D03*
X370300Y187500D03*
Y182500D03*
Y177500D03*
Y172500D03*
X375300Y187500D03*
Y182500D03*
Y177500D03*
Y172500D03*
X370300Y202500D03*
Y197500D03*
Y192500D03*
X375300Y202500D03*
Y197500D03*
Y192500D03*
X370300Y222500D03*
Y217500D03*
Y212500D03*
Y207500D03*
X375300Y222500D03*
Y217500D03*
Y212500D03*
Y207500D03*
X370300Y227500D03*
X375300D03*
G54D15*
G01X2500Y30000D02*
X77500D01*
G03X80000Y32500I0J2500D01*
G01Y60000D01*
X290000D01*
X320000Y30000D01*
Y2500D01*
G03X322500Y0I2500J0D01*
G01X397500D01*
G03X400000Y2500I0J2500D01*
G01Y257500D01*
G03X397500Y260000I-2500J0D01*
G01X322500D01*
G03X320000Y257500I0J-2500D01*
G01Y230000D01*
X290000Y200000D01*
X80000D01*
Y227500D01*
G03X77500Y230000I-2500J0D01*
G01X2500D01*
G03X0Y227500I0J-2500D01*
G01Y32500D01*
G03X2500Y30000I2500J0D01*
M02*
