G04 ================== begin FILE IDENTIFICATION RECORD ==================*
G04 Layout Name:  AGET_ERNI2HRS.brd*
G04 Film Name:    pastebottom*
G04 File Format:  Gerber RS274X*
G04 File Origin:  Cadence Allegro 16.6-S025*
G04 Origin Date:  Thu Sep 14 22:35:07 2017*
G04 *
G04 Layer:  PIN/PASTEMASK_BOTTOM*
G04 Layer:  PACKAGE GEOMETRY/DISPLAY_BOTTOM*
G04 Layer:  BOARD GEOMETRY/OUTLINE*
G04 *
G04 Offset:    (0.0 0.0)*
G04 Mirror:    Yes*
G04 Mode:      Positive*
G04 Rotation:  0*
G04 FullContactRelief:  No*
G04 UndefLineWidth:     6.0*
G04 ================== end FILE IDENTIFICATION RECORD ====================*
%FSLAX25Y25*MOIN*%
%IR0*IPPOS*OFA0.00000B0.00000*MIA1B0*SFA1.00000B1.00000*%
%ADD12R,.122X.063*%
%ADD11C,.176*%
%ADD10R,.03X.032*%
%ADD13R,.0433X.0118*%
%ADD15C,.0709*%
%ADD14R,.0591X.0276*%
%ADD16C,.006*%
G75*
%LPD*%
G75*
G54D10*
X19300Y92200D03*
X13300D03*
X19300Y85800D03*
X13300D03*
X19300Y98700D03*
X13300D03*
X19300Y104600D03*
X13300D03*
X19300Y110500D03*
X13300D03*
X19300Y116400D03*
X13300D03*
X19300Y133800D03*
X13300D03*
X19300Y122400D03*
X13300D03*
X19300Y127900D03*
X13300D03*
X19300Y139700D03*
X13300D03*
X19300Y145900D03*
X13300D03*
X19300Y151800D03*
X13300D03*
X19300Y157700D03*
X13300D03*
X19300Y163600D03*
X13300D03*
X19300Y169500D03*
X13300D03*
X19300Y175400D03*
X13300D03*
X59100Y91600D03*
Y85700D03*
Y98500D03*
Y104400D03*
Y110300D03*
Y116200D03*
Y134100D03*
Y122300D03*
Y128200D03*
Y140000D03*
Y146200D03*
Y152100D03*
Y158000D03*
Y163900D03*
Y170300D03*
Y176300D03*
X65100Y91600D03*
Y85700D03*
Y98500D03*
Y104400D03*
Y110300D03*
Y116200D03*
Y134100D03*
Y122300D03*
Y128200D03*
Y140000D03*
Y146200D03*
Y152100D03*
Y158000D03*
Y163900D03*
Y170300D03*
Y176300D03*
X382600Y32500D03*
X388600D03*
G54D11*
X40000Y50000D03*
Y210000D03*
X340000Y20000D03*
Y240000D03*
G54D12*
X40000Y71140D03*
Y188860D03*
G54D13*
X29770Y97520D03*
Y91610D03*
Y89640D03*
Y87680D03*
Y85710D03*
Y83740D03*
Y115230D03*
Y113270D03*
Y111300D03*
Y109330D03*
Y107360D03*
Y105390D03*
Y103420D03*
Y101450D03*
Y99490D03*
Y132950D03*
Y130980D03*
Y129010D03*
Y127050D03*
Y125080D03*
Y123110D03*
Y121140D03*
Y150670D03*
Y148700D03*
Y146730D03*
Y144760D03*
Y138860D03*
Y136890D03*
Y134920D03*
Y168380D03*
Y162480D03*
Y160510D03*
Y158540D03*
Y156570D03*
Y154600D03*
Y152640D03*
Y176260D03*
Y174290D03*
Y172320D03*
Y170350D03*
X50240Y97520D03*
Y91610D03*
Y89640D03*
Y87680D03*
Y85710D03*
Y83740D03*
Y115230D03*
Y113270D03*
Y111300D03*
Y109330D03*
Y107360D03*
Y105390D03*
Y103420D03*
Y101450D03*
Y99490D03*
Y132950D03*
Y130980D03*
Y129010D03*
Y127050D03*
Y125080D03*
Y123110D03*
Y121140D03*
Y150670D03*
Y148700D03*
Y146730D03*
Y144760D03*
Y138860D03*
Y136890D03*
Y134920D03*
Y168380D03*
Y162480D03*
Y160510D03*
Y158540D03*
Y156570D03*
Y154600D03*
Y152640D03*
Y176260D03*
Y174290D03*
Y172320D03*
Y170350D03*
G54D14*
X30550Y94560D03*
Y118190D03*
Y141810D03*
Y165430D03*
X49450Y94560D03*
Y118190D03*
Y141810D03*
Y165430D03*
G54D15*
X383170Y23800D03*
Y236200D03*
G54D16*
G01X2500Y30000D02*
X77500D01*
G03X80000Y32500I0J2500D01*
G01Y60000D01*
X290000D01*
X320000Y30000D01*
Y2500D01*
G03X322500Y0I2500J0D01*
G01X397500D01*
G03X400000Y2500I0J2500D01*
G01Y257500D01*
G03X397500Y260000I-2500J0D01*
G01X322500D01*
G03X320000Y257500I0J-2500D01*
G01Y230000D01*
X290000Y200000D01*
X80000D01*
Y227500D01*
G03X77500Y230000I-2500J0D01*
G01X2500D01*
G03X0Y227500I0J-2500D01*
G01Y32500D01*
G03X2500Y30000I2500J0D01*
M02*
