G04 ================== begin FILE IDENTIFICATION RECORD ==================*
G04 Layout Name:  AGET_ERNI2HRS.brd*
G04 Film Name:    plane03*
G04 File Format:  Gerber RS274X*
G04 File Origin:  Cadence Allegro 16.6-S025*
G04 Origin Date:  Thu Sep 14 22:35:07 2017*
G04 *
G04 Layer:  VIA CLASS/GND*
G04 Layer:  PIN/GND*
G04 Layer:  ETCH/GND*
G04 Layer:  BOARD GEOMETRY/OUTLINE*
G04 *
G04 Offset:    (0.0 0.0)*
G04 Mirror:    No*
G04 Mode:      Negative*
G04 Rotation:  0*
G04 FullContactRelief:  No*
G04 UndefLineWidth:     6.0*
G04 ================== end FILE IDENTIFICATION RECORD ====================*
%FSLAX25Y25*MOIN*%
%IR0*IPPOS*OFA0.00000B0.00000*MIA0B0*SFA1.00000B1.00000*%
%AMMACRO15*
4,1,18,.0597,.042,
.066086,.030995,
.070464,.019048,
.072702,.006523,
.07273,-.006201,
.070548,-.018736,
.066223,-.030702,
.059886,-.041735,
.0597,-.042,
.0704,-.0528,
.078499,-.039773,
.084213,-.025538,
.087368,-.010526,
.087869,.004805,
.085699,.01999,
.080926,.034568,
.073694,.048096,
.0704,.0528,
.0597,.042,
0.0*
4,1,18,.042,-.0597,
.030995,-.066086,
.019048,-.070464,
.006523,-.072702,
-.006201,-.07273,
-.018736,-.070548,
-.030702,-.066223,
-.041735,-.059886,
-.042,-.0597,
-.0528,-.0704,
-.039773,-.078499,
-.025538,-.084213,
-.010526,-.087368,
.004805,-.087869,
.01999,-.085699,
.034568,-.080926,
.048096,-.073694,
.0528,-.0704,
.042,-.0597,
0.0*
4,1,18,-.0597,-.042,
-.066086,-.030995,
-.070464,-.019048,
-.072702,-.006523,
-.07273,.006201,
-.070548,.018736,
-.066223,.030702,
-.059886,.041735,
-.0597,.042,
-.0704,.0528,
-.078499,.039773,
-.084213,.025538,
-.087368,.010526,
-.087869,-.004805,
-.085699,-.01999,
-.080926,-.034568,
-.073694,-.048096,
-.0704,-.0528,
-.0597,-.042,
0.0*
4,1,18,-.042,.0597,
-.030995,.066086,
-.019048,.070464,
-.006523,.072702,
.006201,.07273,
.018736,.070548,
.030702,.066223,
.041735,.059886,
.042,.0597,
.0528,.0704,
.039773,.078499,
.025538,.084213,
.010526,.087368,
-.004805,.087869,
-.01999,.085699,
-.034568,.080926,
-.048096,.073694,
-.0528,.0704,
-.042,.0597,
0.0*
%
%ADD15MACRO15*%
%AMMACRO12*
4,1,18,-.017,.024,
-.012574,.026587,
-.007766,.028367,
-.002722,.029285,
.002404,.029312,
.007458,.02845,
.012285,.026722,
.016738,.024183,
.017,.024,
.025,.032,
.019063,.035855,
.012548,.038621,
.005651,.040213,
-.001418,.040583,
-.008444,.03972,
-.015213,.037651,
-.02152,.034437,
-.025,.032,
-.017,.024,
180.*
4,1,18,-.024,-.017,
-.026587,-.012574,
-.028367,-.007766,
-.029285,-.002722,
-.029312,.002404,
-.02845,.007458,
-.026722,.012285,
-.024183,.016738,
-.024,.017,
-.032,.025,
-.035855,.019063,
-.038621,.012548,
-.040213,.005651,
-.040583,-.001418,
-.03972,-.008444,
-.037651,-.015213,
-.034437,-.02152,
-.032,-.025,
-.024,-.017,
180.*
4,1,18,.017,-.024,
.012574,-.026587,
.007766,-.028367,
.002722,-.029285,
-.002404,-.029312,
-.007458,-.02845,
-.012285,-.026722,
-.016738,-.024183,
-.017,-.024,
-.025,-.032,
-.019063,-.035855,
-.012548,-.038621,
-.005651,-.040213,
.001418,-.040583,
.008444,-.03972,
.015213,-.037651,
.02152,-.034437,
.025,-.032,
.017,-.024,
180.*
4,1,18,.024,.017,
.026587,.012574,
.028367,.007766,
.029285,.002722,
.029312,-.002404,
.02845,-.007458,
.026722,-.012285,
.024183,-.016738,
.024,-.017,
.032,-.025,
.035855,-.019063,
.038621,-.012548,
.040213,-.005651,
.040583,.001418,
.03972,.008444,
.037651,.015213,
.034437,.02152,
.032,.025,
.024,.017,
180.*
%
%ADD12MACRO12*%
%AMMACRO11*
4,1,13,-.004,.009,
-.002366,.009557,
-.00066,.009822,
.001066,.009786,
.002759,.009452,
.004,.009,
.006,.012,
.003853,.012862,
.001589,.013338,
-.000724,.013414,
-.003014,.013087,
-.005213,.012367,
-.006,.012,
-.004,.009,
0.0*
4,1,13,-.009,-.004,
-.009557,-.002366,
-.009822,-.00066,
-.009786,.001066,
-.009452,.002759,
-.009,.004,
-.012,.006,
-.012862,.003853,
-.013338,.001589,
-.013414,-.000724,
-.013087,-.003014,
-.012367,-.005213,
-.012,-.006,
-.009,-.004,
0.0*
4,1,13,.004,-.009,
.002366,-.009557,
.00066,-.009822,
-.001066,-.009786,
-.002759,-.009452,
-.004,-.009,
-.006,-.012,
-.003853,-.012862,
-.001589,-.013338,
.000724,-.013414,
.003014,-.013087,
.005213,-.012367,
.006,-.012,
.004,-.009,
0.0*
4,1,13,.009,.004,
.009557,.002366,
.009822,.00066,
.009786,-.001066,
.009452,-.002759,
.009,-.004,
.012,-.006,
.012862,-.003853,
.013338,-.001589,
.013414,.000724,
.013087,.003014,
.012367,.005213,
.012,.006,
.009,.004,
0.0*
%
%ADD11MACRO11*%
%AMMACRO16*
4,1,15,.0282,.0141,
.03022,.008989,
.031322,.003605,
.031472,-.001889,
.030666,-.007325,
.028928,-.012539,
.0282,-.0141,
.0345,-.0203,
.037501,-.014001,
.039362,-.007276,
.040028,-.00033,
.039477,.006625,
.037727,.01338,
.03483,.019728,
.0345,.0203,
.0282,.0141,
0.0*
4,1,15,.0141,-.0282,
.008989,-.03022,
.003605,-.031322,
-.001889,-.031472,
-.007325,-.030666,
-.012539,-.028928,
-.0141,-.0282,
-.0203,-.0345,
-.014001,-.037501,
-.007276,-.039362,
-.00033,-.040028,
.006625,-.039477,
.01338,-.037727,
.019728,-.03483,
.0203,-.0345,
.0141,-.0282,
0.0*
4,1,15,-.0282,-.0141,
-.03022,-.008989,
-.031322,-.003605,
-.031472,.001889,
-.030666,.007325,
-.028928,.012539,
-.0282,.0141,
-.0345,.0203,
-.037501,.014001,
-.039362,.007276,
-.040028,.00033,
-.039477,-.006625,
-.037727,-.01338,
-.03483,-.019728,
-.0345,-.0203,
-.0282,-.0141,
0.0*
4,1,15,-.0141,.0282,
-.008989,.03022,
-.003605,.031322,
.001889,.031472,
.007325,.030666,
.012539,.028928,
.0141,.0282,
.0203,.0345,
.014001,.037501,
.007276,.039362,
.00033,.040028,
-.006625,.039477,
-.01338,.037727,
-.019728,.03483,
-.0203,.0345,
-.0141,.0282,
0.0*
%
%ADD16MACRO16*%
%ADD13C,.025*%
%AMMACRO14*
4,1,18,-.017,.024,
-.012574,.026587,
-.007766,.028367,
-.002722,.029285,
.002404,.029312,
.007458,.02845,
.012285,.026722,
.016738,.024183,
.017,.024,
.025,.032,
.019063,.035855,
.012548,.038621,
.005651,.040213,
-.001418,.040583,
-.008444,.03972,
-.015213,.037651,
-.02152,.034437,
-.025,.032,
-.017,.024,
0.0*
4,1,18,-.024,-.017,
-.026587,-.012574,
-.028367,-.007766,
-.029285,-.002722,
-.029312,.002404,
-.02845,.007458,
-.026722,.012285,
-.024183,.016738,
-.024,.017,
-.032,.025,
-.035855,.019063,
-.038621,.012548,
-.040213,.005651,
-.040583,-.001418,
-.03972,-.008444,
-.037651,-.015213,
-.034437,-.02152,
-.032,-.025,
-.024,-.017,
0.0*
4,1,18,.017,-.024,
.012574,-.026587,
.007766,-.028367,
.002722,-.029285,
-.002404,-.029312,
-.007458,-.02845,
-.012285,-.026722,
-.016738,-.024183,
-.017,-.024,
-.025,-.032,
-.019063,-.035855,
-.012548,-.038621,
-.005651,-.040213,
.001418,-.040583,
.008444,-.03972,
.015213,-.037651,
.02152,-.034437,
.025,-.032,
.017,-.024,
0.0*
4,1,18,.024,.017,
.026587,.012574,
.028367,.007766,
.029285,.002722,
.029312,-.002404,
.02845,-.007458,
.026722,-.012285,
.024183,-.016738,
.024,-.017,
.032,-.025,
.035855,-.019063,
.038621,-.012548,
.040213,-.005651,
.040583,.001418,
.03972,.008444,
.037651,.015213,
.034437,.02152,
.032,.025,
.024,.017,
0.0*
%
%ADD14MACRO14*%
%AMMACRO10*
4,1,13,-.0057,.0128,
-.003391,.013595,
-.000978,.013978,
.001464,.013935,
.003861,.013469,
.0057,.0128,
.0087,.0158,
.005824,.017071,
.002771,.017823,
-.000366,.018033,
-.003491,.017696,
-.006511,.016821,
-.0087,.0158,
-.0057,.0128,
0.0*
4,1,13,-.0128,-.0057,
-.013595,-.003391,
-.013978,-.000978,
-.013935,.001464,
-.013469,.003861,
-.0128,.0057,
-.0158,.0087,
-.017071,.005824,
-.017823,.002771,
-.018033,-.000366,
-.017696,-.003491,
-.016821,-.006511,
-.0158,-.0087,
-.0128,-.0057,
0.0*
4,1,13,.0057,-.0128,
.003391,-.013595,
.000978,-.013978,
-.001464,-.013935,
-.003861,-.013469,
-.0057,-.0128,
-.0087,-.0158,
-.005824,-.017071,
-.002771,-.017823,
.000366,-.018033,
.003491,-.017696,
.006511,-.016821,
.0087,-.0158,
.0057,-.0128,
0.0*
4,1,13,.0128,.0057,
.013595,.003391,
.013978,.000978,
.013935,-.001464,
.013469,-.003861,
.0128,-.0057,
.0158,-.0087,
.017071,-.005824,
.017823,-.002771,
.018033,.000366,
.017696,.003491,
.016821,.006511,
.0158,.0087,
.0128,.0057,
0.0*
%
%ADD10MACRO10*%
%ADD17C,.006*%
G75*
%LPD*%
G75*
G36*
G01X-10300Y-10300D02*
X410300D01*
Y270300D01*
X-10300D01*
Y-10300D01*
G37*
%LPC*%
G75*
G36*
G01X76000Y64000D02*
Y34000D01*
X4000D01*
Y226000D01*
X76000D01*
Y196000D01*
X290000D01*
X324000Y230000D01*
Y256000D01*
X396000D01*
Y4000D01*
X324000D01*
Y30000D01*
X290000Y64000D01*
X76000D01*
G37*
%LPD*%
G75*
G54D15*
X40000Y50000D03*
Y210000D03*
X340000Y20000D03*
Y240000D03*
G54D12*
X20000Y42500D03*
X60000D03*
X369900Y10800D03*
X390400Y11300D03*
G54D11*
X6300Y80600D03*
Y85600D03*
Y90600D03*
Y95600D03*
Y100600D03*
Y105600D03*
Y110600D03*
Y115600D03*
Y120600D03*
Y125600D03*
Y130600D03*
Y135600D03*
Y140600D03*
Y145600D03*
Y150600D03*
Y155600D03*
Y160600D03*
Y165600D03*
Y170600D03*
Y175600D03*
X22600Y181200D03*
X23800Y188600D03*
X32600Y79200D03*
X39200Y81700D03*
X43700Y89600D03*
X37400D03*
X42500Y97400D03*
X37500Y97300D03*
X42300Y113200D03*
X38600D03*
X42500Y131600D03*
X37700Y131200D03*
X37400Y140900D03*
X42500Y145200D03*
X40800Y150600D03*
X36700D03*
X37400Y145200D03*
X42300Y156600D03*
X37900D03*
X42500Y162800D03*
X37000Y163000D03*
X41700Y169000D03*
X36700Y169200D03*
X36800Y177900D03*
X41500Y176100D03*
X29500Y182600D03*
X48700Y192600D03*
X328400Y31200D03*
X328500Y37500D03*
X343100Y32600D03*
X339700Y37600D03*
X334200Y37300D03*
X387300Y42800D03*
Y47800D03*
Y52800D03*
Y57800D03*
Y62800D03*
Y67800D03*
Y72800D03*
Y77800D03*
Y82800D03*
Y87800D03*
Y92800D03*
Y97800D03*
Y102800D03*
Y107800D03*
Y112800D03*
Y117800D03*
Y122800D03*
Y127800D03*
Y132800D03*
Y137800D03*
Y142800D03*
Y147800D03*
Y152800D03*
Y157800D03*
Y162800D03*
Y167800D03*
Y172800D03*
Y177800D03*
Y182800D03*
Y187800D03*
Y192800D03*
Y197800D03*
Y202800D03*
Y207800D03*
Y212800D03*
Y217800D03*
Y222800D03*
Y227800D03*
G54D16*
X383170Y23800D03*
Y236200D03*
G54D13*
X26300Y85710D03*
Y89640D03*
Y99490D03*
Y103420D03*
X25840Y107360D03*
X26070Y115230D03*
X26300Y132950D03*
Y129010D03*
Y121140D03*
Y150670D03*
Y146730D03*
Y136890D03*
Y162480D03*
Y154600D03*
Y168380D03*
Y176260D03*
X33300Y97520D03*
Y83740D03*
Y91610D03*
Y105390D03*
X33770Y113270D03*
X33400Y109330D03*
Y130980D03*
X33450Y127050D03*
X33300Y123110D03*
Y138860D03*
Y144760D03*
Y160510D03*
Y156570D03*
Y170350D03*
Y152640D03*
Y174290D03*
X53800Y89640D03*
X46700Y83740D03*
X53800Y85710D03*
X46700Y97520D03*
Y91610D03*
X53800Y107360D03*
Y103420D03*
Y99490D03*
X46700Y109330D03*
Y113270D03*
Y105390D03*
X53930Y115230D03*
X46700Y127050D03*
X53800Y129010D03*
X46700Y130980D03*
X53800Y121140D03*
X46700Y123110D03*
X53800Y132950D03*
Y146730D03*
Y136890D03*
Y150670D03*
X46700Y144760D03*
Y138860D03*
Y152640D03*
Y156570D03*
Y170350D03*
X53800Y168380D03*
X46700Y160510D03*
X53800Y162480D03*
X54000Y154600D03*
X46700Y174290D03*
X53800Y176260D03*
X70000Y110900D03*
X366500Y52500D03*
Y57500D03*
Y47500D03*
Y62500D03*
Y67500D03*
Y77500D03*
Y87500D03*
Y82500D03*
X362200Y92500D03*
X364340Y107500D03*
X367000Y100800D03*
X363300Y115800D03*
X367100Y114000D03*
X362200Y124900D03*
X366500Y122500D03*
Y142500D03*
Y147500D03*
Y137500D03*
Y157500D03*
Y152500D03*
Y167500D03*
Y177500D03*
Y172500D03*
Y187500D03*
Y182500D03*
Y202500D03*
Y197500D03*
Y207500D03*
Y222500D03*
Y217500D03*
Y212500D03*
Y227500D03*
X379400Y42500D03*
X378500Y32500D03*
X379400Y52500D03*
Y47500D03*
Y62500D03*
Y57500D03*
Y77500D03*
Y72500D03*
Y87500D03*
Y92500D03*
Y82500D03*
Y102500D03*
Y112500D03*
Y107500D03*
Y122500D03*
Y132500D03*
Y117500D03*
Y137500D03*
Y142500D03*
Y147500D03*
Y167500D03*
Y162500D03*
Y152500D03*
Y177500D03*
Y182500D03*
Y172500D03*
Y192500D03*
Y197500D03*
Y202500D03*
Y222500D03*
Y212500D03*
Y207500D03*
Y227500D03*
G54D14*
X20000Y217500D03*
X60000D03*
X363400Y249200D03*
X389300Y249600D03*
G54D10*
X8500Y50400D03*
Y60400D03*
X8700Y67600D03*
X8400Y75000D03*
X9900Y187100D03*
X18500Y50400D03*
X27290Y62310D03*
X18500Y60400D03*
X24500Y67900D03*
X17800Y67700D03*
X23300Y75300D03*
X16300Y75000D03*
Y188300D03*
X24700Y197600D03*
X14700D03*
X24700Y207600D03*
X14700D03*
X38400Y63300D03*
X44900Y77800D03*
X29500Y76100D03*
X29800Y70500D03*
X41000Y181600D03*
X44800Y196100D03*
X34600Y196300D03*
X30200Y190200D03*
X58600Y51800D03*
X58500Y63800D03*
X48460Y63560D03*
X49300Y75100D03*
X48300Y183800D03*
X54700Y197600D03*
Y207600D03*
X67500Y50000D03*
X67400Y63700D03*
X65300Y198000D03*
X64900Y207600D03*
%LPC*%
G75*
G54D17*
G01X2500Y30000D02*
X77500D01*
G03X80000Y32500I0J2500D01*
G01Y60000D01*
X290000D01*
X320000Y30000D01*
Y2500D01*
G03X322500Y0I2500J0D01*
G01X397500D01*
G03X400000Y2500I0J2500D01*
G01Y257500D01*
G03X397500Y260000I-2500J0D01*
G01X322500D01*
G03X320000Y257500I0J-2500D01*
G01Y230000D01*
X290000Y200000D01*
X80000D01*
Y227500D01*
G03X77500Y230000I-2500J0D01*
G01X2500D01*
G03X0Y227500I0J-2500D01*
G01Y32500D01*
G03X2500Y30000I2500J0D01*
M02*
