G04 ================== begin FILE IDENTIFICATION RECORD ==================*
G04 Layout Name:  AGET_ERNI2HRS.brd*
G04 Film Name:    silktop*
G04 File Format:  Gerber RS274X*
G04 File Origin:  Cadence Allegro 16.6-S025*
G04 Origin Date:  Thu Sep 14 22:35:07 2017*
G04 *
G04 Layer:  REF DES/SILKSCREEN_TOP*
G04 Layer:  PACKAGE GEOMETRY/SILKSCREEN_TOP*
G04 Layer:  BOARD GEOMETRY/OUTLINE*
G04 Layer:  BOARD GEOMETRY/SILKSCREEN_TOP*
G04 *
G04 Offset:    (0.0 0.0)*
G04 Mirror:    No*
G04 Mode:      Positive*
G04 Rotation:  0*
G04 FullContactRelief:  No*
G04 UndefLineWidth:     6.0*
G04 ================== end FILE IDENTIFICATION RECORD ====================*
%FSLAX25Y25*MOIN*%
%IR0*IPPOS*OFA0.00000B0.00000*MIA0B0*SFA1.00000B1.00000*%
%ADD10C,.002*%
%ADD11C,.004*%
%ADD12C,.005*%
%ADD13C,.006*%
%ADD14C,.007*%
G75*
%LPD*%
G75*
G36*
G01X121350Y129460D02*
G02X121670Y129500I254J-733D01*
G02X121920Y129420I-29J-521D01*
G02X122080Y129220I-222J-342D01*
G02X122230Y128330I-2065J-806D01*
G02X122080Y126650I-22009J1118D01*
G02X121740Y124530I-29603J3660D01*
G02X121190Y122020I-58962J11605D01*
G03X120940Y120930I74061J-17560D01*
G03X120680Y119750I102231J-23144D01*
G03X120450Y118660I94054J-20416D01*
G03X120300Y117850I28067J-5616D01*
G03X119810Y114910I309619J-53114D01*
G03X119640Y113580I16537J-2790D01*
G03X119650Y112790I4185J-342D01*
G03X119840Y112250I1281J147D01*
G02X119930Y112030I-603J-375D01*
G02X119920Y111830I-365J-82D01*
G02X119800Y111590I-836J268D01*
G02X119500Y111190I-6965J4911D01*
G02X118970Y110640I-3535J2876D01*
G02X118450Y110320I-1171J1320D01*
G02X118010Y110270I-310J770D01*
G02X117680Y110470I80J505D01*
G02X117530Y110910I646J466D01*
G02X117510Y112070I22094J961D01*
G02X117560Y113300I16895J-71D01*
G02X117700Y114310I7859J-575D01*
G03X117730Y114700I-1232J291D01*
G03X117580Y114770I-95J-7D01*
G03X117290Y114500I447J-770D01*
G03X116870Y113820I9513J-6346D01*
G02X116020Y112630I-6068J3436D01*
G02X114980Y111730I-4038J3615D01*
G02X113900Y111230I-2212J3362D01*
G02X112930Y111210I-521J1750D01*
G02X112140Y111680I411J1590D01*
G02X111440Y112650I3187J3037D01*
G02X110910Y114030I5933J3070D01*
G02X110600Y115680I10996J2920D01*
G02X110310Y119870I47178J5370D01*
G02X110380Y124150I51644J1296D01*
G02X110700Y127820I66970J-3990D01*
G02X111330Y128190I453J-50D01*
G02X111410Y128140I-99J-248D01*
G02X111630Y127920I-10763J-10983D01*
G02X111890Y127650I-8552J-8495D01*
G02X112180Y127340I-13521J-12939D01*
G02X112650Y126710I-3332J-2976D01*
G02X112850Y126150I-1170J-734D01*
G02X112860Y125370I-3467J-435D01*
G02X112650Y123540I-78972J8135D01*
G03X112410Y120910I41898J-5149D01*
G03X112390Y118700I20633J-1292D01*
G03X112600Y116830I14784J713D01*
G03X113040Y115230I8904J1588D01*
G03X113410Y114390I7760J2916D01*
G03X113780Y113880I1768J894D01*
G03X114200Y113620I759J757D01*
G03X114710Y113560I398J1183D01*
G03X115820Y114250I-147J1474D01*
G03X117020Y116570I-14469J8954D01*
G03X118200Y119910I-24979J10703D01*
G03X119240Y124190I-62023J17337D01*
G02X119630Y125790I22816J-4714D01*
G02X120140Y127410I25630J-7179D01*
G02X120680Y128820I30202J-10758D01*
G02X121040Y129280I1006J-416D01*
G02X121350Y129460I778J-983D01*
G37*
G36*
G01X130200Y128770D02*
G02X130850Y128930I996J-2648D01*
G02X131270Y128870I90J-872D01*
G02X131540Y128630I-188J-483D01*
G03X131690Y128470I429J252D01*
G03X131890Y128380I279J353D01*
G03X132220Y128370I209J1459D01*
G03X132880Y128440I-1710J19265D01*
G02X134720Y128640I9315J-77133D01*
G02X135980Y128710I1623J-17838D01*
G02X136990Y128680I194J-10491D01*
G02X137990Y128560I-710J-10146D01*
G01X139370Y128320D01*
X139430Y127240D01*
X139480Y126150D01*
X138510Y126290D01*
G03X137250Y126420I-2702J-20017D01*
G03X136560Y126360I-166J-2092D01*
G03X136370Y126120I67J-248D01*
G03X136510Y125770I495J-5D01*
G02X136910Y125070I-1278J-1195D01*
G02X137010Y124190I-2467J-726D01*
G02X136830Y122720I-10998J601D01*
G02X136150Y119320I-238771J45986D01*
G03X135820Y117570I48884J-10124D01*
G03X135570Y115900I40138J-6862D01*
G03X135400Y114260I38354J-4805D01*
G03X135290Y112610I38929J-3424D01*
G02X135230Y111500I-50272J2161D01*
G02X135160Y110950I-3784J202D01*
G02X135030Y110620I-1146J261D01*
G02X134810Y110360I-780J437D01*
G02X134410Y110110I-1221J1508D01*
G02X134110I-150J337D01*
G02X133910Y110320I128J322D01*
G02X133840Y110780I1659J488D01*
G03X133820Y111120I-10193J-429D01*
G03X133780Y111700I-70394J-4563D01*
G03X133730Y112360I-78621J-5624D01*
G03X133670Y113030I-79605J-6791D01*
G02X133620Y114400I12757J1152D01*
G02X133700Y116290I44370J-931D01*
G02X133880Y118540I59570J-3633D01*
G02X134160Y121060I95818J-9371D01*
G03X134560Y124330I-905272J112396D01*
G03X134650Y125360I-14994J1829D01*
G03X134610Y125860I-1970J94D01*
G03X134420Y126090I-304J-57D01*
G03X134280Y126130I-294J-764D01*
G03X134140Y126140I-131J-850D01*
G03X134020Y126130I-1J-714D01*
G03X133930Y126100I26J-228D01*
G02X133680Y125990I-535J876D01*
G02X132200Y125570I-92314J322479D01*
G02X130720Y125150I-86701J302700D01*
G02X130430Y125110I-303J1127D01*
G02X130380Y125130I1J76D01*
G02X130320Y125180I158J251D01*
G02X130280Y125270I381J223D01*
G02X130240Y125370I561J282D01*
G03X130150Y125450I-97J-19D01*
G03X129960Y125410I-2J-460D01*
G03X129630Y125250I762J-1991D01*
G03X129110Y124910I8803J-14030D01*
G02X128670Y124630I-5254J7771D01*
G02X128250Y124400I-3677J6216D01*
G02X127880Y124230I-2914J5855D01*
G02X127690Y124190I-194J451D01*
G02X127430Y124300I-5J349D01*
G02X127360Y124550I207J193D01*
G02X127530Y124940I992J-200D01*
G02X127920Y125420I3378J-2346D01*
G03X128190Y125700I-5231J5314D01*
G03X128300Y125880I-639J514D01*
G03Y125980I-88J50D01*
G03X128220Y126020I-76J-52D01*
G03X128050Y125970I-11J-276D01*
G03X127690Y125670I5574J-7054D01*
G03X127260Y125280I5599J-6605D01*
G03X126810Y124820I9379J-9625D01*
G03X125870Y123530I4705J-4416D01*
G03X125710Y122460I1335J-747D01*
G03X126300Y121200I3182J722D01*
G03X128110Y118950I38070J28772D01*
G02X129450Y117360I-71587J-61691D01*
G02X130010Y116550I-4650J-3813D01*
G02X130290Y115850I-2313J-1331D01*
G02X130450Y114910I-6668J-1619D01*
G03X130510Y114430I8573J828D01*
G03X130590Y114100I2274J377D01*
G03X130680Y113890I943J280D01*
G03X130780Y113850I80J55D01*
G02X130990Y113770I41J-209D01*
G02X131270Y113370I-2543J-2078D01*
G02X131480Y112940I-2825J-1646D01*
G02X131440Y112730I-176J-75D01*
G02X131350Y112680I-129J126D01*
G02X131040Y112620I-2092J9976D01*
G02X130670Y112550I-1720J8078D01*
G02X130240Y112500I-1735J13047D01*
G03X129640Y112400I793J-6607D01*
G03X129200Y112260I472J-2245D01*
G03X128790Y112040I899J-2168D01*
G03X128290Y111660I4078J-5884D01*
G02X127290Y110950I-5260J6350D01*
G02X125970Y110220I-9535J15683D01*
G02X124690Y109630I-8797J17402D01*
G02X123940Y109490I-729J1825D01*
G02X123420Y109580I-6J1513D01*
G02X122900Y109850I765J2110D01*
G02X122510Y110220I1102J1552D01*
G02X122380Y110600I467J372D01*
G02X122520Y110960I542J-4D01*
G02X122980Y111370I2036J-1821D01*
G02X123780Y111850I4050J-5844D01*
G02X125130Y112520I19531J-37659D01*
G02X125930Y112880I11925J-25432D01*
G02X126500Y113090I2476J-5841D01*
G02X126890Y113200I1116J-3211D01*
G02X127060Y113140I31J-184D01*
G02X127100Y113030I-128J-109D01*
G02X127070Y112890I-288J-12D01*
G02X126950Y112710I-689J330D01*
G02X126720Y112500I-2368J2363D01*
G03X126520Y112310I2465J-2795D01*
G03X126370Y112150I1307J-1375D01*
G03X126280Y112010I1119J-818D01*
G03X126290Y111950I42J-24D01*
G03X126440Y111940I81J80D01*
G03X127030Y112430I-12880J16108D01*
G03X127610Y112950I-12632J14673D01*
G03X127660Y113130I-126J132D01*
G02Y113200I109J35D01*
G02X127730Y113370I2381J-881D01*
G02X127840Y113560I2393J-1259D01*
G02X127960Y113760I3552J-1995D01*
G03X128160Y114100I-3029J2010D01*
G03X128210Y114310I-407J208D01*
G03X128170Y114550I-671J11D01*
G03X127960Y115050I-10472J-4104D01*
G03X127730Y115440I-2014J-925D01*
G03X127280Y116020I-11518J-8472D01*
G03X126730Y116670I-12703J-10191D01*
G03X126150Y117290I-12451J-11066D01*
G02X125040Y118440I32911J32877D01*
G02X124200Y119410I14623J13512D01*
G02X123600Y120220I10084J8097D01*
G02X123280Y120810I2278J1617D01*
G02X123120Y121860I2438J909D01*
G02X123340Y123090I4832J-230D01*
G02X123900Y124340I5522J-1723D01*
G02X124750Y125440I5254J-3181D01*
G02X125600Y126210I6181J-5969D01*
G02X126700Y127000I10007J-12773D01*
G02X127920Y127730I9713J-14848D01*
G02X129160Y128340I7436J-13551D01*
G02X130200Y128770I8453J-18971D01*
G37*
G36*
G01X147930Y128180D02*
G02X149220Y128080I317J-4275D01*
G02X150250Y127650I-681J-3081D01*
G02X150800Y126940I-762J-1159D01*
G02X151040Y125540I-4128J-1428D01*
G02X150930Y123560I-16200J-93D01*
G02X150540Y121390I-18497J2204D01*
G02X149910Y119370I-15546J3740D01*
G02X149570Y118520I-24927J9478D01*
G02X149340Y118140I-1621J721D01*
G02X149090Y117920I-620J453D01*
G02X148690Y117760I-960J1819D01*
G02X147900Y117580I-2588J9535D01*
G02X147640Y117680I-50J259D01*
G02X147540Y117990I397J299D01*
G02X147600Y119180I39344J-1387D01*
G02X147760Y120560I12572J-758D01*
G02X148080Y121940I13019J-2292D01*
G02X148490Y123120I10815J-3097D01*
G02X148950Y123880I2653J-1087D01*
G03X149320Y124510I-1640J1387D01*
G03Y125080I-776J285D01*
G03X148950Y125540I-852J-306D01*
G03X148240Y125850I-1391J-2217D01*
G03X146760Y125920I-896J-3273D01*
G03X145340Y125360I697J-3848D01*
G03X144040Y124190I2845J-4469D01*
G03X142950Y122470I7525J-5974D01*
G03X142140Y120370I11308J-5568D01*
G03X141680Y118080I13961J-3996D01*
G03X141610Y115980I12287J-1461D01*
G03X142010Y114500I3657J194D01*
G02X142160Y114190I-6226J-3204D01*
G02X142290Y113880I-5262J-2389D01*
G02X142380Y113610I-4874J-1775D01*
G02X142400Y113470I-457J-137D01*
G03X142540Y113120I501J-2D01*
G03X143190Y112500I7822J7550D01*
G03X143930Y111920I5919J6789D01*
G03X144570Y111570I1910J2733D01*
G03X145600Y111390I907J2154D01*
G03X146900Y111610I-290J5665D01*
G03X148330Y112200I-2189J7332D01*
G03X149730Y113100I-5033J9368D01*
G02X150050Y113340I8526J-11035D01*
G02X150340Y113530I4851J-7088D01*
G02X150590Y113690I6307J-9580D01*
G02X150670Y113710I76J-134D01*
G02X150730Y113690I5J-85D01*
G02X150820Y113580I-862J-797D01*
G02X150920Y113430I-1183J-897D01*
G02X151010Y113250I-2016J-1120D01*
G02X151090Y112970I-1023J-444D01*
G02X151050Y112770I-294J-45D01*
G02X150870Y112550I-696J386D01*
G02X150350Y112160I-10002J12794D01*
G02X149900Y111860I-4774J6674D01*
G02X149250Y111450I-17560J27119D01*
G02X148520Y111030I-18201J30791D01*
G02X147820Y110650I-13992J24939D01*
G02X146850Y110150I-14725J27376D01*
G02X146250Y109910I-1874J3814D01*
G02X145700Y109800I-816J2649D01*
G02X144980Y109770I-676J7560D01*
G02X143060Y109980I-57J8365D01*
G02X141530Y110640I1069J4582D01*
G02X140400Y111750I2312J3483D01*
G02X139650Y113290I4662J3223D01*
G02X139370Y114430I9331J2896D01*
G02X139200Y115660I11975J2282D01*
G02X139170Y116850I11409J883D01*
G02X139280Y117870I6470J-182D01*
G02X139560Y119270I43432J-7958D01*
G02X139820Y120220I10061J-2243D01*
G02X140140Y121080I8309J-2602D01*
G02X140660Y122160I22615J-10223D01*
G02X141790Y123990I10625J-5297D01*
G02X143280Y125670I11249J-8476D01*
G02X144960Y127030I9046J-9457D01*
G02X146630Y127890I4358J-6411D01*
G02X147930Y128180I1687J-4502D01*
G37*
G36*
G01X203600Y124600D02*
G02X204100Y124610I2356J-105318D01*
G02X204690I295J-46434D01*
G02X205360Y124600I-861J-80147D01*
G02X206610Y124570I-137J-31771D01*
G02X207410Y124470I-306J-5695D01*
G02X207980Y124290I-541J-2707D01*
G02X208480Y124000I-937J-2192D01*
G02X208760Y123710I-778J-1031D01*
G02X209030Y123260I-3136J-2188D01*
G02X209230Y122780I-3398J-1697D01*
G02X209290Y122400I-1085J-366D01*
G02X209050Y121600I-1486J10D01*
G02X208350Y120780I-3342J2144D01*
G02X207260Y120020I-3963J4523D01*
G02X205890Y119400I-4780J8738D01*
G03X205550Y119270I6897J-18547D01*
G03X205200Y119130I9045J-23120D01*
G03X204870Y119000I8309J-21575D01*
G03X204640Y118890I2575J-5679D01*
G02X204000Y118650I-1801J3830D01*
G02X203520Y118630I-284J1041D01*
G02X203190Y118810I103J581D01*
G02X202970Y119180I678J654D01*
G02X202930Y119410I1003J293D01*
G02Y119700I2377J145D01*
G02X202970Y120120I5791J-340D01*
G02X203060Y120810I40018J-4869D01*
G02X203140Y121350I41737J-5907D01*
G02X203240Y121930I52465J-8747D01*
G02X203330Y122450I46670J-7810D01*
G02X203400Y122810I11386J-2027D01*
G03X203480Y123220I-18113J3747D01*
G03X203510Y123420I-1272J293D01*
G03X203490Y123540I-345J4D01*
G03X203430Y123630I-187J-60D01*
G02X203300Y123780I411J487D01*
G02X203230Y123950I428J276D01*
G02Y124130I491J90D01*
G02X203290Y124320I634J-96D01*
G02X203340Y124410I819J-396D01*
G02X203400Y124490I702J-464D01*
G02X203470Y124560I597J-527D01*
G02X203520Y124590I97J-105D01*
G02X203600Y124600I72J-247D01*
G37*
G36*
G01X212600Y94500D02*
Y77100D01*
X284000D01*
Y94500D01*
X212600D01*
G37*
G36*
G01X220390Y125220D02*
G02X220550Y125250I164J-430D01*
G02X220700Y125210I-24J-390D01*
G02X220870Y125120I-338J-845D01*
G02X221010Y124950I-250J-348D01*
G02X221060Y124730I-449J-218D01*
G02X221010Y124480I-651J0D01*
G02X220860Y124250I-836J381D01*
G02X220740Y124120I-921J730D01*
G02X220620Y124060I-238J327D01*
G02X220490Y124020I-195J402D01*
G02X220290I-100J1799D01*
G02X220030Y124050I64J1695D01*
G02X219840Y124120I124J630D01*
G02X219720Y124230I180J317D01*
G02X219680Y124360I187J129D01*
G02X219720Y124550I487J-3D01*
G02X219840Y124780I1333J-549D01*
G02X220010Y124990I1257J-843D01*
G02X220180Y125120I497J-473D01*
G02X220390Y125220I815J-1441D01*
G37*
G36*
G01X212190Y123410D02*
G02X212550Y123400I158J-800D01*
G02X212840Y123250I-153J-651D01*
G02X213050Y122960I-620J-670D01*
G02X213150Y122690I-1346J-652D01*
G02X213180Y122430I-912J-237D01*
G02X213140Y122180I-935J21D01*
G02X213020Y121900I-1678J553D01*
G02X212830Y121610I-1252J613D01*
G02X212410Y121160I-8717J7715D01*
G02X211920Y120690I-8361J8227D01*
G02X211460Y120310I-4802J5345D01*
G03X211280Y120150I3364J-3965D01*
G03X211230Y120080I97J-122D01*
G03Y120000I97J-40D01*
G03X211320Y119850I1422J751D01*
G03X211810Y119530I607J394D01*
G03X212550Y119580I263J1608D01*
G03X213490Y120030I-1075J3452D01*
G03X214560Y120860I-5589J8310D01*
G03X215020Y121280I-14266J16086D01*
G03X215260Y121540I-1801J1903D01*
G03X215410Y121770I-1017J827D01*
G03X215530Y122050I-1788J932D01*
G02X215710Y122450I1917J-622D01*
G02X215970Y122790I1519J-892D01*
G02X216270Y123020I977J-963D01*
G02X216560Y123090I278J-518D01*
G02X216750Y123050I-5J-497D01*
G02X216890Y122950I-118J-313D01*
G02X216970Y122770I-366J-271D01*
G02X217000Y122530I-1061J-255D01*
G02X216970Y122400I-368J17D01*
G02X216900Y122260I-767J296D01*
G02X216780Y122090I-1205J723D01*
G02X216610Y121910I-2462J2155D01*
G03X216400Y121680I5199J-4958D01*
G03X216310Y121540I445J-385D01*
G03X216280Y121430I191J-111D01*
G03X216310Y121290I489J32D01*
G03X216410Y121090I1500J625D01*
G03X216670Y120630I33963J18893D01*
G03X216930Y120160I35193J19162D01*
G03X217050Y119990I1261J763D01*
G03X217080Y119980I20J11D01*
G03X217260Y120100I-10036J15249D01*
G03X217470Y120250I-4242J6160D01*
G03X217710Y120440I-9035J11660D01*
G03X218260Y120890I-5751J7590D01*
G03X218800Y121400I-7497J8479D01*
G03X219260Y121890I-11560J11313D01*
G03X219330Y122080I-212J186D01*
G02X219400Y122240I240J-10D01*
G02X219620Y122450I1352J-1197D01*
G02X219870Y122610I1057J-1377D01*
G02X220060Y122640I141J-278D01*
G02X220170Y122570I-24J-160D01*
G02X220220Y122420I-249J-166D01*
G02X220230Y122080I-3569J-275D01*
G02X220190Y120710I-451142J12486D01*
G03X220180Y120240I17157J-600D01*
G03X220190Y119960I2369J-56D01*
G03X220230Y119770I967J104D01*
G03X220310Y119610I635J218D01*
G03X220380Y119520I752J512D01*
G03X220450Y119440I582J438D01*
G03X220520Y119390I351J417D01*
G03X220580Y119370I65J94D01*
G03X220650Y119380I8J196D01*
G03X220820Y119450I-2176J5525D01*
G03X221020Y119540I-2141J5024D01*
G03X221240Y119650I-3504J7282D01*
G03X221550Y119830I-1250J2510D01*
G03X221880Y120070I-2625J3956D01*
G03X222250Y120390I-4447J5515D01*
G03X222700Y120820I-12142J13157D01*
G02X223040Y121160I65105J-64765D01*
G02X223340Y121450I34060J-34934D01*
G01X223600Y121700D01*
G02X223620Y121710I22J-20D01*
G03X223640I10J24D01*
G03X223800Y121870I-57941J58101D01*
G03X223980Y122050I-12690J12870D01*
G03X224190Y122270I-25105J24174D01*
G02X224840Y122840I3589J-3437D01*
G02X225460Y123140I1153J-1592D01*
G02X226000Y123160I310J-1068D01*
G02X226450Y122920I-182J-883D01*
G02X226590Y122760I-1509J-1462D01*
G02X226660Y122640I-295J-253D01*
G02X226680Y122500I-373J-125D01*
G02X226660Y122290I-2051J89D01*
G03X226630Y122080I5278J-861D01*
G03X226590Y121690I54348J-5771D01*
G03X226550Y121230I59474J-5403D01*
G03X226510Y120760I67134J-5950D01*
G02X226360Y119190I-33546J2413D01*
G02X226150Y118120I-8186J1051D01*
G02X225870Y117360I-4070J1068D01*
G02X225480Y116820I-1734J842D01*
G02X225260Y116620I-2370J2386D01*
G02X225100Y116530I-383J494D01*
G02X224900Y116480I-288J726D01*
G02X224570Y116440I-808J5282D01*
G02X224250Y116430I-306J4667D01*
G02X224020Y116460I51J1290D01*
G02X223810Y116520I212J1140D01*
G02X223540Y116640I1335J3367D01*
G02X223110Y116900I1164J2411D01*
G02X222720Y117250I1780J2376D01*
G02X222450Y117600I1715J1602D01*
G02X222360Y117900I474J306D01*
G02X222410Y118090I444J-15D01*
G02X222520Y118160I111J-54D01*
G02X222700Y118100I1J-298D01*
G02X222920Y117910I-979J-1356D01*
G03X223230Y117650I1196J1112D01*
G03X223630Y117460I1194J1997D01*
G03X224050Y117340I841J2150D01*
G03X224460Y117310I331J1711D01*
G03X224720Y117340I-262J3416D01*
G03X224870Y117380I-49J485D01*
G03X224980Y117470I-176J327D01*
G03X225100Y117620I-1017J936D01*
G03X225240Y117900I-1132J741D01*
G03X225360Y118260I-2980J1193D01*
G03X225450Y118740I-5165J1217D01*
G03X225530Y119370I-14242J2129D01*
G01X225590Y119930D01*
X225300Y119680D01*
G02X224920Y119410I-1746J2055D01*
G02X224440Y119170I-2307J4014D01*
G02X223960Y118990I-1782J4023D01*
G02X223600Y118940I-348J1186D01*
G02X223330Y118980I6J971D01*
G02X223140Y119090I125J435D01*
G02X223010Y119290I394J398D01*
G02X222920Y119600I1633J642D01*
G01X222860Y119890D01*
X222290Y119370D01*
G02X221740Y118920I-4919J5451D01*
G02X221260Y118620I-1885J2482D01*
G02X220820Y118460I-915J1832D01*
G02X220410Y118440I-263J1183D01*
G02X219950Y118590I119J1145D01*
G02X219590Y118920I610J1026D01*
G02X219340Y119440I1430J1007D01*
G02X219200Y120120I3701J1116D01*
G01X219140Y120660D01*
X218480Y120070D01*
G02X217190Y118950I-28873J31953D01*
G02X216190Y118200I-8216J9913D01*
G02X215420Y117740I-4298J6320D01*
G02X214980Y117690I-286J555D01*
G02X214760Y117770I239J1001D01*
G02X214640Y117880I126J258D01*
G02X214610Y118040I232J126D01*
G02X214660Y118240I716J-73D01*
G02X214750Y118390I494J-195D01*
G02X214890Y118520I663J-573D01*
G02X215120Y118660I1106J-1559D01*
G02X215480Y118840I4439J-8429D01*
G03X215990Y119110I-3244J6744D01*
G03X216220Y119320I-373J640D01*
G03X216270Y119530I-223J164D01*
G03X216160Y119790I-684J-136D01*
G02X216090Y119910I6007J3584D01*
G02X215970Y120080I25845J18371D01*
G02X215850Y120280I30579J18484D01*
G02X215730Y120470I25554J16273D01*
G01X215460Y120930D01*
X215130Y120530D01*
G02X214970Y120340I-2499J1942D01*
G02X214740Y120110I-6677J6447D01*
G02X214490Y119880I-6766J7104D01*
G02X214250Y119670I-4643J5064D01*
G02X213380Y119070I-4075J4977D01*
G02X212540Y118710I-1865J3193D01*
G02X211770Y118610I-716J2497D01*
G02X211110Y118780I36J1506D01*
G02X210800Y119000I731J1358D01*
G02X210570Y119270I721J847D01*
G02X210430Y119630I1177J665D01*
G02X210360Y120090I2878J673D01*
G02X210400Y121040I3602J324D01*
G02X210700Y121980I4013J-763D01*
G02X211180Y122760I3261J-1469D01*
G02X211800Y123270I1561J-1266D01*
G02X212190Y123410I692J-1313D01*
G37*
G36*
G01X243110Y125310D02*
G02X243350Y125340I235J-903D01*
G02X243590Y125310I5J-934D01*
G02X243740Y125210I-82J-286D01*
G02X243790Y125090I-153J-134D01*
G02X243780Y124850I-1793J-45D01*
G02X243730Y124460I-5106J456D01*
G02X243610Y123760I-48970J8035D01*
G03X243390Y122320I22530J-4179D01*
G03X243310Y121090I11451J-1362D01*
G03X243350Y120180I8805J-69D01*
G03X243560Y119980I215J15D01*
G03X243800Y120040I13J456D01*
G03X244270Y120350I-4930J7985D01*
G03X244810Y120760I-5439J7724D01*
G03X245360Y121230I-7384J9197D01*
G02X245600Y121440I8046J-8953D01*
G02X245820Y121630I4939J-5497D01*
G02X246010Y121780I7009J-8683D01*
G02X246060Y121790I40J-69D01*
G02X246160Y121740I7J-112D01*
G02X246210Y121590I-312J-187D01*
G02X246190Y121390I-649J-36D01*
G02X246120Y121180I-857J169D01*
G02X245860Y120820I-1491J803D01*
G02X245290Y120220I-12894J11678D01*
G02X244670Y119640I-11275J11431D01*
G02X244220Y119290I-2316J2514D01*
G02X243650Y119060I-959J1557D01*
G02X243190Y119130I-141J619D01*
G02X242850Y119510I423J721D01*
G02X242610Y120230I3229J1476D01*
G01X242520Y120660D01*
X242010Y120030D01*
G02X241410Y119360I-5445J4272D01*
G02X240800Y118890I-2570J2705D01*
G02X240200Y118600I-1482J2300D01*
G02X239590Y118510I-585J1855D01*
G02X239330I-130J4003D01*
G02X239200Y118550I41J363D01*
G02X239110Y118620I92J211D01*
G02X239020Y118770I923J656D01*
G02X238960Y118930I772J381D01*
G02X238920Y119110I1243J371D01*
G02X238900Y119320I1747J272D01*
G02X238910Y119580I3727J-13D01*
G01X238940Y120120D01*
X238370Y119650D01*
G02X237550Y119070I-3940J4701D01*
G02X236730Y118720I-1865J3234D01*
G02X235970Y118610I-764J2600D01*
G02X235320Y118750I3J1595D01*
G02X235000Y118940I604J1382D01*
G02X234770Y119190I710J884D01*
G02X234610Y119510I1042J721D01*
G02X234510Y119910I2047J724D01*
G01X234460Y120330D01*
X234050Y119950D01*
G02X233170Y119270I-3926J4171D01*
G02X232370Y118980I-1074J1714D01*
G02X231730Y119100I-137J1038D01*
G02X231290Y119570I507J915D01*
G02X231210Y119750I1455J754D01*
G02X231130Y120010I5217J1748D01*
G02X231060Y120280I5507J1572D01*
G02X231010Y120540I4225J947D01*
G03X230930Y120980I-9795J-1554D01*
G03X230840Y121250I-1597J-382D01*
G03X230750Y121400I-502J-199D01*
G03X230640Y121450I-110J-95D01*
G03X230500Y121390I6J-207D01*
G03X230220Y121110I4242J-4522D01*
G03X229910Y120750I4405J-4107D01*
G03X229580Y120320I7126J-5811D01*
G02X229430Y120110I-5365J3674D01*
G02X229230Y119870I-10064J8183D01*
G02X229040Y119630I-10045J7757D01*
G02X228870Y119440I-4577J3924D01*
G02X228560Y119150I-2207J2048D01*
G02X228320Y119040I-350J446D01*
G02X228120Y119070I-61J273D01*
G02X227940Y119240I269J465D01*
G02X227800Y119710I730J473D01*
G02X227830Y120670I9756J176D01*
G02X227980Y121670I9053J-847D01*
G02X228220Y122390I2941J-580D01*
G02X228310Y122550I1368J-664D01*
G02X228400Y122640I319J-229D01*
G02X228510Y122700I213J-260D01*
G02X228660Y122730I226J-741D01*
G02X228810Y122740I161J-1285D01*
G02X228900Y122710I-11J-183D01*
G02X228950Y122650I-71J-110D01*
G02X228990Y122530I-669J-290D01*
G02X229010Y122390I-442J-135D01*
G02X228980Y122150I-3594J327D01*
G02X228940Y121860I-4481J470D01*
G02X228870Y121540I-6814J1323D01*
G03X228790Y121240I16978J-4688D01*
G03X228740Y120970I12013J-2364D01*
G03X228690Y120730I13469J-2931D01*
G03X228680Y120630I541J-105D01*
G03X228720Y120620I23J6D01*
G03X228830Y120710I-462J676D01*
G03X229000Y120890I-1811J1880D01*
G03X229230Y121160I-7733J6820D01*
G02X229890Y121910I10006J-8140D01*
G02X230390Y122320I1772J-1651D01*
G02X230820Y122460I518J-860D01*
G02X231250Y122390I88J-814D01*
G02X231460Y122220I-314J-602D01*
G02X231620Y121980I-671J-620D01*
G02X231740Y121600I-1837J-789D01*
G02X231850Y120990I-10375J-2186D01*
G03X232010Y120240I6221J935D01*
G03X232240Y119940I479J129D01*
G03X232590Y119920I195J338D01*
G03X233160Y120240I-1539J3410D01*
G03X233650Y120620I-2580J3833D01*
G03X234150Y121100I-4841J5543D01*
G03X234590Y121610I-5118J4860D01*
G03X234870Y122060I-2234J1702D01*
G02X235210Y122590I3025J-1567D01*
G02X235630Y123040I2429J-1846D01*
G02X236070Y123340I1542J-1790D01*
G02X236460Y123440I396J-732D01*
G02X236910Y123300I-10J-825D01*
G02X237220Y122940I-471J-719D01*
G02X237320Y122430I-956J-452D01*
G02X237170Y121900I-1357J98D01*
G02X236970Y121610I-1257J653D01*
G02X236550Y121160I-8717J7715D01*
G02X236070Y120690I-8356J8054D01*
G02X235610Y120310I-4802J5345D01*
G03X235420Y120150I3359J-4181D01*
G03X235370Y120080I97J-122D01*
G03X235380Y120000I102J-28D01*
G03X235460Y119850I1417J659D01*
G03X235760Y119580I671J444D01*
G03X236150Y119490I377J744D01*
G03X236660Y119570I16J1561D01*
G03X237320Y119850I-1781J5117D01*
G03X237810Y120150I-1563J3103D01*
G03X238510Y120690I-10895J14846D01*
G03X239200Y121270I-11244J14076D01*
G03X239680Y121760I-4076J4473D01*
G02X240440Y122580I27885J-25083D01*
G02X240870Y122950I2089J-1992D01*
G02X241240Y123120I645J-915D01*
G02X241690Y123180I464J-1763D01*
G02X241980Y123140I-5J-1110D01*
G02X242220Y123030I-223J-804D01*
G02X242380Y122870I-338J-498D01*
G02X242440Y122690I-256J-185D01*
G03X242450Y122640I171J8D01*
G03X242470Y122610I94J41D01*
G03X242500Y122580I89J59D01*
G03X242530Y122570I34J52D01*
G03X242560Y122580I1J48D01*
G03X242590Y122620I-92J100D01*
G03X242610Y122670I-158J92D01*
G03X242620Y122720I-221J70D01*
G02X242650Y123280I5781J-29D01*
G02X242760Y124150I31622J-3556D01*
G02X242890Y125050I82570J-11467D01*
G02X242960Y125210I322J-45D01*
G02X243110Y125310I231J-184D01*
G37*
G36*
G01X259950Y122950D02*
G02X260130Y123000I214J-421D01*
G02X260310Y122970I21J-430D01*
G02X260450Y122870I-124J-322D01*
G02X260530Y122630I-284J-228D01*
G02X260500Y121600I-41253J686D01*
G02X260430Y120530I-21347J859D01*
G02X260310Y119630I-10871J991D01*
G02X259920Y118020I-12193J2101D01*
G02X259360Y116980I-3096J996D01*
G02X258640Y116470I-1245J994D01*
G02X257740Y116410I-559J1605D01*
G02X257060Y116610I908J4344D01*
G02X256510Y116890I863J2376D01*
G02X256150Y117240I929J1315D01*
G02X256030Y117590I457J352D01*
G02X256040Y117710I734J-1D01*
G02X256070Y117830I783J-132D01*
G02X256110Y117920I561J-195D01*
G02X256160Y117990I201J-91D01*
G02X256240Y118020I95J-131D01*
G02X256330Y118010I28J-158D01*
G02X256450Y117940I-197J-476D01*
G02X256650Y117770I-3388J-4188D01*
G03X256970Y117510I2153J2323D01*
G03X257290Y117340I991J1478D01*
G03X257620Y117240I620J1452D01*
G03X257980Y117210I345J1962D01*
G03X258280Y117250I1J1136D01*
G03X258530Y117370I-181J699D01*
G03X258740Y117590I-584J768D01*
G03X258960Y117960I-2761J1892D01*
G03X259160Y118470I-2781J1385D01*
G03X259340Y119140I-7346J2333D01*
G03X259450Y119780I-11348J2280D01*
G03X259360Y119890I-92J16D01*
G03X259330Y119880I5J-64D01*
G03X259220Y119820I3545J-6629D01*
G03X259100Y119750I2223J-3948D01*
G03X258950Y119660I4218J-7201D01*
G02X257920Y119110I-4413J7026D01*
G02X257150Y118950I-751J1679D01*
G02X256620Y119150I-2J798D01*
G02X256300Y119690I754J812D01*
G02X256260Y120330I1594J421D01*
G02X256440Y121350I9762J-1197D01*
G02X256730Y122330I10678J-2627D01*
G02X257020Y122710I697J-232D01*
G02X257220Y122800I421J-669D01*
G02X257390Y122810I103J-308D01*
G02X257540Y122730I-70J-311D01*
G02X257670Y122560I-515J-528D01*
G02X257730Y122410I-539J-303D01*
G02Y122270I-315J-70D01*
G02X257680Y122090I-851J139D01*
G02X257500Y121700I-14703J6550D01*
G03X257350Y121350I5899J-2735D01*
G03X257270Y121080I2041J-752D01*
G03X257220Y120810I1853J-483D01*
G03X257200Y120500I3436J-377D01*
G01Y119930D01*
X257560Y119940D01*
G03X257940Y120000I-9J1291D01*
G03X258390Y120190I-1068J3157D01*
G03X258830Y120460I-1666J3208D01*
G03X259190Y120760I-1398J2043D01*
G03X259390Y120980I-1872J1902D01*
G03X259480Y121160I-499J362D01*
G03X259530Y121390I-1015J341D01*
G03X259580Y121880I-15853J1865D01*
G02X259620Y122260I9589J-817D01*
G02X259670Y122530I2707J-362D01*
G02X259730Y122720I1406J-339D01*
G02X259800Y122840I351J-125D01*
G02X259950Y122950I359J-332D01*
G37*
G36*
G01X252380Y124910D02*
G02X253040Y125000I841J-3699D01*
G02X253580Y124960I97J-2356D01*
G02X254050Y124790I-325J-1633D01*
G02X254330Y124610I-797J-1548D01*
G02X254510Y124400I-480J-593D01*
G02X254610Y124130I-705J-415D01*
G02X254640Y123770I-2071J-354D01*
G02X254600Y123460I-1023J-26D01*
G02X254450Y123140I-1416J468D01*
G02X254220Y122830I-1603J949D01*
G02X253890Y122530I-2243J2136D01*
G01X253670Y122350D01*
X254030Y122190D01*
G02X254370Y121980I-687J-1493D01*
G02X254710Y121670I-1921J-2449D01*
G02X254990Y121320I-2215J-2059D01*
G02X255120Y121030I-667J-473D01*
G02X255070Y120290I-1292J-284D01*
G02X254610Y119440I-3196J1180D01*
G02X253890Y118700I-3111J2307D01*
G02X253060Y118250I-1704J2152D01*
G02X252250Y118060I-1456J4385D01*
G02X251580Y118080I-278J1918D01*
G02X251130Y118310I204J954D01*
G02X250940Y118690I385J430D01*
G02X251000Y119010I576J58D01*
G02X251220Y119200I356J-190D01*
G02X251600Y119240I272J-757D01*
G02X252110Y119120I-377J-2746D01*
G03X252500Y119050I426J1251D01*
G03X252860Y119120I-4J979D01*
G03X253210Y119320I-451J1195D01*
G03X253600Y119680I-2133J2702D01*
G03X253940Y120100I-3240J2970D01*
G03X254120Y120460I-1220J835D01*
G03X254170Y120770I-766J283D01*
G03X254090Y121040I-531J-10D01*
G03X253900Y121240I-643J-421D01*
G03X253580Y121430I-1366J-1936D01*
G03X253240Y121580I-1122J-2084D01*
G03X252950Y121620I-271J-897D01*
G03X252830Y121610I3J-755D01*
G03X252650Y121580I415J-3045D01*
G03X252460Y121530I761J-3277D01*
G03X252290Y121470I791J-2513D01*
G02X251920Y121380I-660J1909D01*
G02X251640Y121400I-98J599D01*
G02X251460Y121540I114J332D01*
G02X251370Y121770I405J291D01*
G02X251400Y122010I593J48D01*
G02X251520Y122210I466J-144D01*
G02X251740Y122360I481J-469D01*
G02X252060Y122440I536J-1465D01*
G03X252400Y122520I-446J2656D01*
G03X252680Y122640I-442J1419D01*
G03X252960Y122830I-973J1735D01*
G03X253330Y123140I-4798J6103D01*
G03X253720Y123570I-1988J2195D01*
G03X253740Y123850I-205J155D01*
G03X253480Y124020I-288J-157D01*
G03X252830I-325J-4125D01*
G03X252310Y123950I487J-5585D01*
G03X251840Y123830I781J-4038D01*
G03X251440Y123680I936J-3104D01*
G03X251140Y123490I613J-1300D01*
G03X250970Y123260I360J-444D01*
G03X250880Y122910I1312J-524D01*
G03X250810Y122220I9849J-1348D01*
G03X250680Y119950I653509J-38564D01*
G02X250640Y119330I-35649J1989D01*
G02X250600Y119010I-2896J199D01*
G02X250540Y118830I-789J163D01*
G02X250450Y118710I-271J109D01*
G02X250280Y118620I-407J562D01*
G02X250120Y118600I-126J359D01*
G02X249960Y118650I35J393D01*
G02X249800Y118760I306J617D01*
G02X249640Y118990I529J538D01*
G02X249570Y119280I854J360D01*
G02Y119700I2258J210D01*
G02X249660Y120400I16664J-1787D01*
G03X249810Y121530I-85451J11918D01*
G03X249900Y122350I-23669J3013D01*
G03X249940Y122940I-13953J1242D01*
G03X249920Y123270I-1563J71D01*
G02Y123570I962J150D01*
G02X250000Y123890I1370J-172D01*
G02X250150Y124160I1130J-451D01*
G02X250330Y124290I315J-246D01*
G02X250460Y124340I1066J-2577D01*
G02X250770Y124440I20188J-62054D01*
G02X251130Y124560I19332J-57395D01*
G02X251530Y124680I24324J-80355D01*
G02X252380Y124910I3307J-10536D01*
G37*
G36*
G01X269960Y125450D02*
G02X270270Y125800I3969J-3203D01*
G02X270470Y125980I982J-890D01*
G02X270650Y126030I169J-260D01*
G02X270750I50J-534D01*
G02X270850Y126000I-132J-623D01*
G02X270940Y125960I-186J-540D01*
G02X271000Y125910I-110J-192D01*
G02X271080Y125660I-257J-220D01*
G02X270980Y125330I-982J118D01*
G02X270690Y124860I-2763J1380D01*
G02X270130Y124130I-17476J12826D01*
G03X269770Y123670I20077J-16084D01*
G03X269400Y123180I24814J-19122D01*
G03X269070Y122720I23117J-16932D01*
G03X268860Y122400I5504J-3841D01*
G01X268460Y121750D01*
X268360Y120160D01*
G02X268300Y119180I-107390J6083D01*
G02X268250Y118780I-4081J307D01*
G02X268190Y118560I-850J114D01*
G02X268070Y118410I-382J183D01*
G02X267860Y118280I-539J635D01*
G02X267650Y118250I-169J435D01*
G02X267460Y118320I41J403D01*
G02X267310Y118470I286J436D01*
G02X267240Y118640I479J296D01*
G02X267210Y118840I776J219D01*
G02X267230Y119170I3154J-26D01*
G02X267310Y119910I64280J-6575D01*
G03X267450Y121150I-69650J8492D01*
G03X267430Y121580I-1640J139D01*
G03X267290Y121900I-700J-115D01*
G03X266910Y122330I-3782J-2959D01*
G02X266270Y123000I17984J17820D01*
G02X265650Y123700I19612J17995D01*
G02X265090Y124360I46061J39650D01*
G02X265030Y124520I191J163D01*
G02X265070Y124630I164J2D01*
G02X265210Y124750I645J-611D01*
G02X265390Y124860I683J-915D01*
G02X265610Y124950I667J-1317D01*
G02X265820Y124920I69J-267D01*
G02X266110Y124730I-726J-1424D01*
G02X266480Y124350I-2548J-2851D01*
G02X266980Y123750I-13449J-11716D01*
G03X267210Y123470I9308J7411D01*
G03X267430Y123220I6872J5826D01*
G03X267620Y123020I6319J5813D01*
G03X267720Y122930I415J360D01*
G03X267890Y122910I108J185D01*
G03X268060Y123010I-93J352D01*
G03X268340Y123340I-3146J2953D01*
G03X269360Y124670I-390276J300366D01*
G02X269960Y125450I62716J-47623D01*
G37*
G36*
G01X286160Y125570D02*
G02X286270Y125590I94J-202D01*
G02X286380Y125560I1J-214D01*
G02X286510Y125460I-549J-848D01*
G02X286580Y125370I-234J-254D01*
G02X286630Y125240I-496J-266D01*
G02X286660Y125080I-865J-245D01*
G02X286670Y124850I-3087J-249D01*
G02X286620Y124300I-3400J32D01*
G02X286460Y123430I-19889J3208D01*
G02X286250Y122510I-19940J4068D01*
G02X286020Y121750I-9955J2598D01*
G02X285750Y121040I-11851J4101D01*
G02X285290Y119960I-60364J25073D01*
G02X284810Y118860I-131269J56626D01*
G02X284660Y118610I-976J416D01*
G02X284540Y118540I-176J163D01*
G02X284360Y118510I-204J667D01*
G02X284160Y118530I-17J835D01*
G02X283980Y118600I160J679D01*
G02X283810Y118750I188J385D01*
G02X283560Y119200I7160J4272D01*
G02X283250Y119840I10752J5603D01*
G02X282860Y120730I37353J16899D01*
G03X282710Y121070I-18505J-7961D01*
G03X282580Y121360I-9792J-4216D01*
G03X282460Y121600I-25291J-12495D01*
G03X282430Y121620I-31J-14D01*
G03X282400Y121600I3J-36D01*
G03X282210Y121260I77209J-43369D01*
G03X281990Y120860I20243J-11394D01*
G03X281740Y120390I38733J-20904D01*
G02X281120Y119230I-62365J32587D01*
G02X280730Y118560I-8492J4495D01*
G02X280430Y118170I-3420J2321D01*
G02X280230Y118070I-207J165D01*
G02X279960Y118180I8J407D01*
G02X279720Y118480I743J840D01*
G02X279490Y119020I2782J1504D01*
G02X279220Y119940I19008J6078D01*
G03X279110Y120340I-53602J-14525D01*
G03X279020Y120680I-28905J-7469D01*
G03X278930Y120980I-101753J-30363D01*
G03X278920Y121000I-47J-11D01*
G03X278890Y121010I-20J-11D01*
G03X278710Y120850I15291J-17384D01*
G03X278490Y120670I5464J-6903D01*
G03X278250Y120440I11741J-12492D01*
G02X277690Y119970I-4886J5253D01*
G02X277140Y119620I-2626J3520D01*
G02X276640Y119400I-1512J2758D01*
G02X276210Y119330I-428J1271D01*
G02X276000Y119340I-20J1782D01*
G02X275860Y119380I62J481D01*
G02X275730Y119460I197J466D01*
G02X275590Y119610I1182J1244D01*
G02X275480Y119740I863J842D01*
G02X275380Y119900I1762J1212D01*
G02X275300Y120080I1994J994D01*
G02X275240Y120230I981J479D01*
G03X275210Y120370I-4346J-858D01*
G03X275170Y120480I-2144J-717D01*
G03X275130Y120570I-3368J-1443D01*
G01X275120Y120580D01*
G03X275100Y120570I0J-26D01*
G03X274980Y120420I22380J-18027D01*
G03X274850Y120240I7643J-5657D01*
G03X274690Y120030I14295J-11057D01*
G02X274180Y119410I-4888J3501D01*
G02X273660Y118960I-2339J2177D01*
G02X273130Y118690I-1309J1915D01*
G02X272600Y118590I-557J1497D01*
G02X272160Y118710I0J866D01*
G02X271870Y119030I358J616D01*
G02X271750Y119560I1149J539D01*
G02X271820Y120290I3960J-11D01*
G03X271870Y120590I-5589J1086D01*
G03X271920Y120950I-10323J1617D01*
G03X271950Y121300I-9986J1032D01*
G03Y121580I-4252J140D01*
G02X271980Y122050I4138J-28D01*
G02X272070Y122350I853J-93D01*
G02X272230Y122510I343J-183D01*
G02X272470Y122570I237J-440D01*
G02X272790Y122470I3J-553D01*
G02X272960Y122210I-246J-346D01*
G02X272970Y121730I-1315J-268D01*
G02X272820Y120930I-9851J1433D01*
G03X272630Y120030I16334J-3918D01*
G03X272650Y119630I817J-160D01*
G03X272840Y119510I167J54D01*
G03X273230Y119630I-130J1115D01*
G03X273670Y119950I-926J1735D01*
G03X274130Y120460I-3123J3279D01*
G03X274570Y121120I-4816J3687D01*
G03X274980Y121920I-8629J4928D01*
G02X275200Y122370I14586J-6852D01*
G02X275370Y122690I4062J-1953D01*
G02X275510Y122900I2265J-1358D01*
G02X275620Y122970I164J-136D01*
G02X275790I85J-252D01*
G02X275920Y122860I-81J-228D01*
G02X275980Y122650I-409J-230D01*
G02X275960Y122360I-1338J-53D01*
G03X275900Y121860I3828J-713D01*
G03Y121310I5372J-275D01*
G03X275950Y120820I4831J245D01*
G03X276060Y120510I978J173D01*
G03X276160Y120340I1774J929D01*
G03X276230Y120270I171J101D01*
G03X276340Y120250I92J193D01*
G03X276520Y120270I-88J1611D01*
G03X276850Y120370I-160J1122D01*
G03X277270Y120620I-2030J3889D01*
G03X277740Y120960I-3187J4900D01*
G03X278240Y121390I-5681J7112D01*
G01X278740Y121860D01*
X278540Y122750D01*
G02X278310Y123820I240302J52213D01*
G02X278260Y124140I3416J698D01*
G02X278270Y124320I532J61D01*
G02X278340Y124480I438J-96D01*
G02X278400Y124550I317J-211D01*
G02X278480Y124600I234J-285D01*
G02X278560Y124630I150J-278D01*
G02X278650I45J-268D01*
G02X278900Y124490I-44J-373D01*
G02X279110Y124100I-1415J-1013D01*
G02X279340Y123420I-5129J-2114D01*
G02X279660Y122160I-48815J-13068D01*
G03X279840Y121410I159245J37822D01*
G03X280000Y120730I111716J25927D01*
G03X280150Y120160I123782J32269D01*
G03X280210Y119940I4114J1004D01*
G01X280320Y119600D01*
X280890Y120590D01*
G03X281130Y121020I-14774J8528D01*
G03X281390Y121510I-22995J12515D01*
G03X281630Y121980I-21826J11442D01*
G03X281790Y122340I-7524J3560D01*
G02X282240Y123130I4072J-1796D01*
G02X282600Y123190I208J-139D01*
G02X283010Y122660I-892J-1114D01*
G02X283860Y120690I-77468J-34594D01*
G03X283990Y120380I10700J4305D01*
G03X284120Y120130I5484J2693D01*
G03X284230Y119910I9887J4806D01*
G03X284270Y119890I37J23D01*
G03X284370Y119960I-5J113D01*
G03X284650Y120580I-29938J13894D01*
G03X284940Y121280I-13846J6146D01*
G03X285180Y121970I-12886J4869D01*
G03X285400Y122710I-15333J4961D01*
G03X285570Y123440I-14375J3732D01*
G03X285700Y124130I-12937J2795D01*
G03X285780Y124760I-8569J1408D01*
G02X285810Y125060I5995J-448D01*
G02X285850Y125260I1154J-127D01*
G02X285920Y125380I461J-188D01*
G02X286010Y125480I313J-191D01*
G02X286160Y125570I727J-1041D01*
G37*
%LPC*%
G75*
G36*
G01X207290Y123530D02*
G03X207020Y123600I-518J-1442D01*
G03X206680Y123640I-499J-2773D01*
G03X206060Y123660I-1133J-25490D01*
G03X205040Y123670I-1026J-52644D01*
G03X204730Y123620I-16J-887D01*
G03X204560Y123450I104J-274D01*
G03X204450Y123070I1927J-764D01*
G03X204250Y121920I167986J-29807D01*
G03X204120Y121110I41971J-7152D01*
G03X204040Y120540I24240J-3693D01*
G03X204010Y120230I2368J-386D01*
G03X204020Y120030I2921J46D01*
G03X204050Y119950I176J20D01*
G03X204110Y119900I91J48D01*
G03X204220Y119890I98J465D01*
G03X204590Y119950I0J1170D01*
G03X205680Y120320I-19193J58333D01*
G03X206730Y120710I-14079J39513D01*
G03X207250Y120960I-1272J3312D01*
G03X207600Y121240I-824J1389D01*
G03X207970Y121680I-3097J2980D01*
G03X208260Y122140I-3443J2492D01*
G03X208340Y122460I-586J317D01*
G03X208300Y122740I-848J22D01*
G03X208160Y122990I-816J-293D01*
G03X207930Y123210I-888J-698D01*
G03X207600Y123400I-1309J-1892D01*
G03X207290Y123530I-1384J-2865D01*
G37*
G36*
G01X212200Y122550D02*
G03X212120I-40J-85D01*
G03X212000Y122460I183J-369D01*
G03X211810Y122250I3212J-3097D01*
G03X211620Y121970I1420J-1168D01*
G03X211440Y121600I3434J-1899D01*
G03X211310Y121260I4135J-1776D01*
G03X211360Y121190I50J-17D01*
G03X211400Y121200I6J62D01*
G03X211530Y121310I-3949J4799D01*
G03X211670Y121430I-2572J3142D01*
G03X211830Y121590I-5099J5259D01*
G03X212090Y121870I-2494J2576D01*
G03X212250Y122110I-1005J843D01*
G03X212320Y122320I-628J326D01*
G03X212280Y122480I-237J26D01*
G03X212200Y122550I-156J-98D01*
G37*
G36*
G01X225670Y122380D02*
G03X225520I-75J-242D01*
G03X225310Y122260I294J-759D01*
G03X225050Y122040I1837J-2435D01*
G03X224590Y121510I2914J-2993D01*
G03X224170Y120860I4819J-3575D01*
G03X223870Y120250I5348J-3009D01*
G03X223890Y119950I301J-131D01*
G03X224100Y119880I148J95D01*
G03X224650Y120120I-1571J4350D01*
G03X225200Y120450I-1950J3873D01*
G03X225520Y120790I-749J1025D01*
G03X225620Y121020I-556J379D01*
G03X225710Y121540I-9877J1977D01*
G03X225780Y122070I-10618J1672D01*
G03X225760Y122300I-543J69D01*
G03X225670Y122380I-118J-42D01*
G37*
G36*
G01X241650Y122400D02*
G03X241600Y122450I-1322J-1272D01*
G03X241560Y122480I-1715J-2245D01*
G01X241550D01*
G03X241150Y122240I100J-620D01*
G03X240490Y121280I12485J-9291D01*
G03X239910Y120270I11272J-7144D01*
G03X239760Y119670I1154J-607D01*
G03X239770Y119510I1808J33D01*
G03X239790Y119430I169J0D01*
G03X239850Y119390I81J57D01*
G03X239950Y119370I127J374D01*
G03X240400Y119530I-9J738D01*
G03X241190Y120220I-8156J10135D01*
G03X241930Y120960I-10860J11600D01*
G03X241920Y121220I-140J125D01*
G02X241890Y121280I93J84D01*
G02X241860Y121420I1650J427D01*
G02X241840Y121580I1796J306D01*
G02Y121760I2554J90D01*
G03X241830Y121970I-2539J-16D01*
G03X241800Y122130I-1122J-128D01*
G03X241760Y122260I-746J-159D01*
G03X241700Y122350I-264J-111D01*
G03X241650Y122400I-2037J-1987D01*
G37*
G36*
G01X236350Y122550D02*
G03X236260I-45J-95D01*
G03X236140Y122460I183J-369D01*
G03X235960Y122250I3217J-2940D01*
G03X235770Y121970I1420J-1168D01*
G03X235590Y121600I3434J-1899D01*
G03X235460Y121260I4135J-1776D01*
G03X235510Y121190I50J-17D01*
G03X235550Y121200I6J62D01*
G03X235680Y121310I-3949J4799D01*
G03X235820Y121430I-2572J3142D01*
G03X235980Y121590I-5099J5259D01*
G03X236240Y121870I-2494J2576D01*
G03X236400Y122110I-1005J843D01*
G03X236460Y122320I-633J294D01*
G03X236430Y122480I-232J39D01*
G03X236350Y122550I-156J-98D01*
G37*
%LPD*%
G75*
G54D10*
G01X6630Y215520D02*
X7400D01*
Y214590D01*
X7170Y214280D01*
X6900Y214070D01*
X6520Y213970D01*
X6130Y214070D01*
X5860Y214280D01*
X5630Y214590D01*
X5480Y214950D01*
X5400Y215360D01*
Y215730D01*
X5480Y216040D01*
X5630Y216400D01*
X5860Y216710D01*
X6090Y216910D01*
X6400Y217070D01*
X6670D01*
X6970Y216970D01*
X7210Y216760D01*
G01X8620Y213970D02*
Y217070D01*
X10380Y213970D01*
Y217070D01*
G01X11760Y213970D02*
Y217070D01*
X12520D01*
X12830Y216910D01*
X13060Y216710D01*
X13250Y216400D01*
X13410Y216040D01*
X13440Y215520D01*
X13410Y215000D01*
X13250Y214640D01*
X13060Y214330D01*
X12830Y214120D01*
X12520Y213970D01*
X11760D01*
G01X15930Y51120D02*
X16700D01*
Y50190D01*
X16470Y49880D01*
X16200Y49670D01*
X15820Y49570D01*
X15430Y49670D01*
X15160Y49880D01*
X14930Y50190D01*
X14780Y50550D01*
X14700Y50960D01*
Y51330D01*
X14780Y51640D01*
X14930Y52000D01*
X15160Y52310D01*
X15390Y52510D01*
X15700Y52670D01*
X15970D01*
X16270Y52570D01*
X16510Y52360D01*
G01X17920Y49570D02*
Y52670D01*
X19680Y49570D01*
Y52670D01*
G01X21060Y49570D02*
Y52670D01*
X21820D01*
X22130Y52510D01*
X22360Y52310D01*
X22550Y52000D01*
X22710Y51640D01*
X22740Y51120D01*
X22710Y50600D01*
X22550Y50240D01*
X22360Y49930D01*
X22130Y49720D01*
X21820Y49570D01*
X21060D01*
G01X27280Y81960D02*
Y85060D01*
X28240D01*
X28550Y84900D01*
X28740Y84700D01*
X28820Y84280D01*
X28740Y83870D01*
X28510Y83610D01*
X28240Y83460D01*
X27280D01*
G01X28240D02*
X28820Y81960D01*
G01X30310Y82420D02*
X30540Y82170D01*
X30800Y82010D01*
X31150Y81960D01*
X31500Y82060D01*
X31760Y82270D01*
X31960Y82630D01*
X31990Y83040D01*
X31920Y83460D01*
X31720Y83720D01*
X31460Y83920D01*
X31190Y83970D01*
X30920Y83920D01*
X30580Y83720D01*
X30690Y85060D01*
X31720D01*
G01X26430Y87560D02*
Y90660D01*
X27390D01*
X27700Y90500D01*
X27890Y90300D01*
X27970Y89880D01*
X27890Y89470D01*
X27660Y89210D01*
X27390Y89060D01*
X26430D01*
G01X27390D02*
X27970Y87560D01*
G01X30300D02*
Y90660D01*
X29840Y90040D01*
G01Y87560D02*
X30760D01*
G01X32560Y88180D02*
X32790Y87820D01*
X33090Y87610D01*
X33440Y87560D01*
X33750Y87610D01*
X34050Y87870D01*
X34240Y88180D01*
X34280Y88490D01*
X34210Y88850D01*
X33940Y89110D01*
X33670Y89210D01*
X33320D01*
G01X33670D02*
X33900Y89370D01*
X34090Y89630D01*
X34170Y89940D01*
X34090Y90250D01*
X33900Y90500D01*
X33550Y90660D01*
X33210Y90610D01*
X32860Y90400D01*
G01X26280Y95620D02*
Y98720D01*
X27240D01*
X27550Y98560D01*
X27740Y98360D01*
X27820Y97940D01*
X27740Y97530D01*
X27510Y97270D01*
X27240Y97120D01*
X26280D01*
G01X27240D02*
X27820Y95620D01*
G01X29420Y98200D02*
X29650Y98510D01*
X29920Y98670D01*
X30230Y98720D01*
X30610Y98620D01*
X30880Y98360D01*
X30960Y98050D01*
X30920Y97740D01*
X30760Y97480D01*
X30000Y96960D01*
X29650Y96600D01*
X29420Y96080D01*
X29340Y95620D01*
X30960D01*
G01X33250D02*
Y98720D01*
X32790Y98100D01*
G01Y95620D02*
X33710D01*
G01X26280Y101520D02*
Y104620D01*
X27240D01*
X27550Y104460D01*
X27740Y104260D01*
X27820Y103840D01*
X27740Y103430D01*
X27510Y103170D01*
X27240Y103020D01*
X26280D01*
G01X27240D02*
X27820Y101520D01*
G01X29420Y104100D02*
X29650Y104410D01*
X29920Y104570D01*
X30230Y104620D01*
X30610Y104520D01*
X30880Y104260D01*
X30960Y103950D01*
X30920Y103640D01*
X30760Y103380D01*
X30000Y102860D01*
X29650Y102500D01*
X29420Y101980D01*
X29340Y101520D01*
X30960D01*
G01X32600Y101880D02*
X32870Y101620D01*
X33170Y101520D01*
X33480Y101620D01*
X33750Y101930D01*
X33940Y102400D01*
X34020Y102860D01*
Y103430D01*
X33940Y103900D01*
X33750Y104310D01*
X33520Y104520D01*
X33250Y104620D01*
X32940Y104520D01*
X32710Y104310D01*
X32560Y104000D01*
X32480Y103590D01*
X32560Y103230D01*
X32750Y102860D01*
X32980Y102660D01*
X33250Y102600D01*
X33560Y102710D01*
X33790Y102970D01*
X34020Y103430D01*
G01X26280Y107420D02*
Y110520D01*
X27240D01*
X27550Y110360D01*
X27740Y110160D01*
X27820Y109740D01*
X27740Y109330D01*
X27510Y109070D01*
X27240Y108920D01*
X26280D01*
G01X27240D02*
X27820Y107420D01*
G01X29310Y108040D02*
X29540Y107680D01*
X29840Y107470D01*
X30190Y107420D01*
X30500Y107470D01*
X30800Y107730D01*
X30990Y108040D01*
X31030Y108350D01*
X30960Y108710D01*
X30690Y108970D01*
X30420Y109070D01*
X30070D01*
G01X30420D02*
X30650Y109230D01*
X30840Y109490D01*
X30920Y109800D01*
X30840Y110110D01*
X30650Y110360D01*
X30300Y110520D01*
X29960Y110470D01*
X29610Y110260D01*
G01X33170Y107420D02*
X33250Y108090D01*
X33370Y108660D01*
X33520Y109180D01*
X33710Y109740D01*
X34020Y110520D01*
X32480D01*
G01X26280Y113320D02*
Y116420D01*
X27240D01*
X27550Y116260D01*
X27740Y116060D01*
X27820Y115640D01*
X27740Y115230D01*
X27510Y114970D01*
X27240Y114820D01*
X26280D01*
G01X27240D02*
X27820Y113320D01*
G01X30610D02*
Y116420D01*
X29190Y114200D01*
X31110D01*
G01X32410Y113780D02*
X32640Y113530D01*
X32900Y113370D01*
X33250Y113320D01*
X33600Y113420D01*
X33860Y113630D01*
X34060Y113990D01*
X34090Y114400D01*
X34020Y114820D01*
X33820Y115080D01*
X33560Y115280D01*
X33290Y115330D01*
X33020Y115280D01*
X32680Y115080D01*
X32790Y116420D01*
X33820D01*
G01X26280Y119220D02*
Y122320D01*
X27240D01*
X27550Y122160D01*
X27740Y121960D01*
X27820Y121540D01*
X27740Y121130D01*
X27510Y120870D01*
X27240Y120720D01*
X26280D01*
G01X27240D02*
X27820Y119220D01*
G01X29310Y119680D02*
X29540Y119430D01*
X29800Y119270D01*
X30150Y119220D01*
X30500Y119320D01*
X30760Y119530D01*
X30960Y119890D01*
X30990Y120300D01*
X30920Y120720D01*
X30720Y120980D01*
X30460Y121180D01*
X30190Y121230D01*
X29920Y121180D01*
X29580Y120980D01*
X29690Y122320D01*
X30720D01*
G01X32410Y119840D02*
X32640Y119480D01*
X32940Y119270D01*
X33290Y119220D01*
X33600Y119270D01*
X33900Y119530D01*
X34090Y119840D01*
X34130Y120150D01*
X34060Y120510D01*
X33790Y120770D01*
X33520Y120870D01*
X33170D01*
G01X33520D02*
X33750Y121030D01*
X33940Y121290D01*
X34020Y121600D01*
X33940Y121910D01*
X33750Y122160D01*
X33400Y122320D01*
X33060Y122270D01*
X32710Y122060D01*
G01X26280Y131070D02*
Y134170D01*
X27240D01*
X27550Y134010D01*
X27740Y133810D01*
X27820Y133390D01*
X27740Y132980D01*
X27510Y132720D01*
X27240Y132570D01*
X26280D01*
G01X27240D02*
X27820Y131070D01*
G01X29420Y132360D02*
X29690Y132720D01*
X29920Y132930D01*
X30230Y133030D01*
X30500Y132930D01*
X30690Y132720D01*
X30840Y132410D01*
X30880Y132050D01*
X30840Y131740D01*
X30690Y131430D01*
X30460Y131170D01*
X30190Y131070D01*
X29880Y131170D01*
X29610Y131480D01*
X29460Y131950D01*
X29420Y132460D01*
X29500Y133140D01*
X29610Y133500D01*
X29800Y133860D01*
X30070Y134120D01*
X30340Y134170D01*
X30610Y134070D01*
X30800Y133810D01*
G01X26280Y125220D02*
Y128320D01*
X27240D01*
X27550Y128160D01*
X27740Y127960D01*
X27820Y127540D01*
X27740Y127130D01*
X27510Y126870D01*
X27240Y126720D01*
X26280D01*
G01X27240D02*
X27820Y125220D01*
G01X29420Y126510D02*
X29690Y126870D01*
X29920Y127080D01*
X30230Y127180D01*
X30500Y127080D01*
X30690Y126870D01*
X30840Y126560D01*
X30880Y126200D01*
X30840Y125890D01*
X30690Y125580D01*
X30460Y125320D01*
X30190Y125220D01*
X29880Y125320D01*
X29610Y125630D01*
X29460Y126100D01*
X29420Y126610D01*
X29500Y127290D01*
X29610Y127650D01*
X29800Y128010D01*
X30070Y128270D01*
X30340Y128320D01*
X30610Y128220D01*
X30800Y127960D01*
G01X33250Y125220D02*
Y128320D01*
X32790Y127700D01*
G01Y125220D02*
X33710D01*
G01X26280Y137020D02*
Y140120D01*
X27240D01*
X27550Y139960D01*
X27740Y139760D01*
X27820Y139340D01*
X27740Y138930D01*
X27510Y138670D01*
X27240Y138520D01*
X26280D01*
G01X27240D02*
X27820Y137020D01*
G01X30150D02*
Y140120D01*
X29690Y139500D01*
G01Y137020D02*
X30610D01*
G01X33710D02*
Y140120D01*
X32290Y137900D01*
X34210D01*
G01X26280Y143220D02*
Y146320D01*
X27240D01*
X27550Y146160D01*
X27740Y145960D01*
X27820Y145540D01*
X27740Y145130D01*
X27510Y144870D01*
X27240Y144720D01*
X26280D01*
G01X27240D02*
X27820Y143220D01*
G01X29420Y145800D02*
X29650Y146110D01*
X29920Y146270D01*
X30230Y146320D01*
X30610Y146220D01*
X30880Y145960D01*
X30960Y145650D01*
X30920Y145340D01*
X30760Y145080D01*
X30000Y144560D01*
X29650Y144200D01*
X29420Y143680D01*
X29340Y143220D01*
X30960D01*
G01X32520Y145800D02*
X32750Y146110D01*
X33020Y146270D01*
X33330Y146320D01*
X33710Y146220D01*
X33980Y145960D01*
X34060Y145650D01*
X34020Y145340D01*
X33860Y145080D01*
X33100Y144560D01*
X32750Y144200D01*
X32520Y143680D01*
X32440Y143220D01*
X34060D01*
G01X26280Y149120D02*
Y152220D01*
X27240D01*
X27550Y152060D01*
X27740Y151860D01*
X27820Y151440D01*
X27740Y151030D01*
X27510Y150770D01*
X27240Y150620D01*
X26280D01*
G01X27240D02*
X27820Y149120D01*
G01X29310Y149740D02*
X29540Y149380D01*
X29840Y149170D01*
X30190Y149120D01*
X30500Y149170D01*
X30800Y149430D01*
X30990Y149740D01*
X31030Y150050D01*
X30960Y150410D01*
X30690Y150670D01*
X30420Y150770D01*
X30070D01*
G01X30420D02*
X30650Y150930D01*
X30840Y151190D01*
X30920Y151500D01*
X30840Y151810D01*
X30650Y152060D01*
X30300Y152220D01*
X29960Y152170D01*
X29610Y151960D01*
G01X33250Y152220D02*
X32940Y152120D01*
X32710Y151860D01*
X32560Y151550D01*
X32440Y151130D01*
X32410Y150670D01*
X32440Y150200D01*
X32560Y149790D01*
X32710Y149480D01*
X32940Y149220D01*
X33250Y149120D01*
X33560Y149220D01*
X33790Y149480D01*
X33940Y149790D01*
X34060Y150200D01*
X34090Y150670D01*
X34060Y151130D01*
X33940Y151550D01*
X33790Y151860D01*
X33560Y152120D01*
X33250Y152220D01*
G01X26280Y155020D02*
Y158120D01*
X27240D01*
X27550Y157960D01*
X27740Y157760D01*
X27820Y157340D01*
X27740Y156930D01*
X27510Y156670D01*
X27240Y156520D01*
X26280D01*
G01X27240D02*
X27820Y155020D01*
G01X29310Y155640D02*
X29540Y155280D01*
X29840Y155070D01*
X30190Y155020D01*
X30500Y155070D01*
X30800Y155330D01*
X30990Y155640D01*
X31030Y155950D01*
X30960Y156310D01*
X30690Y156570D01*
X30420Y156670D01*
X30070D01*
G01X30420D02*
X30650Y156830D01*
X30840Y157090D01*
X30920Y157400D01*
X30840Y157710D01*
X30650Y157960D01*
X30300Y158120D01*
X29960Y158070D01*
X29610Y157860D01*
G01X33250Y155020D02*
X33520Y155070D01*
X33820Y155230D01*
X34020Y155480D01*
X34090Y155850D01*
X34020Y156210D01*
X33790Y156520D01*
X33440Y156670D01*
X33060D01*
X32830Y156780D01*
X32640Y157030D01*
X32560Y157400D01*
X32680Y157760D01*
X32940Y158020D01*
X33250Y158120D01*
X33560Y158020D01*
X33820Y157760D01*
X33940Y157400D01*
X33860Y157030D01*
X33670Y156780D01*
X33440Y156670D01*
X33060D01*
X32710Y156520D01*
X32480Y156210D01*
X32410Y155850D01*
X32480Y155480D01*
X32680Y155230D01*
X32980Y155070D01*
X33250Y155020D01*
G01X26280Y160920D02*
Y164020D01*
X27240D01*
X27550Y163860D01*
X27740Y163660D01*
X27820Y163240D01*
X27740Y162830D01*
X27510Y162570D01*
X27240Y162420D01*
X26280D01*
G01X27240D02*
X27820Y160920D01*
G01X30610D02*
Y164020D01*
X29190Y161800D01*
X31110D01*
G01X32520Y162210D02*
X32790Y162570D01*
X33020Y162780D01*
X33330Y162880D01*
X33600Y162780D01*
X33790Y162570D01*
X33940Y162260D01*
X33980Y161900D01*
X33940Y161590D01*
X33790Y161280D01*
X33560Y161020D01*
X33290Y160920D01*
X32980Y161020D01*
X32710Y161330D01*
X32560Y161800D01*
X32520Y162310D01*
X32600Y162990D01*
X32710Y163350D01*
X32900Y163710D01*
X33170Y163970D01*
X33440Y164020D01*
X33710Y163920D01*
X33900Y163660D01*
G01X26280Y167320D02*
Y170420D01*
X27240D01*
X27550Y170260D01*
X27740Y170060D01*
X27820Y169640D01*
X27740Y169230D01*
X27510Y168970D01*
X27240Y168820D01*
X26280D01*
G01X27240D02*
X27820Y167320D01*
G01X29310Y167780D02*
X29540Y167530D01*
X29800Y167370D01*
X30150Y167320D01*
X30500Y167420D01*
X30760Y167630D01*
X30960Y167990D01*
X30990Y168400D01*
X30920Y168820D01*
X30720Y169080D01*
X30460Y169280D01*
X30190Y169330D01*
X29920Y169280D01*
X29580Y169080D01*
X29690Y170420D01*
X30720D01*
G01X33710Y167320D02*
Y170420D01*
X32290Y168200D01*
X34210D01*
G01X26280Y173220D02*
Y176320D01*
X27240D01*
X27550Y176160D01*
X27740Y175960D01*
X27820Y175540D01*
X27740Y175130D01*
X27510Y174870D01*
X27240Y174720D01*
X26280D01*
G01X27240D02*
X27820Y173220D01*
G01X29420Y174510D02*
X29690Y174870D01*
X29920Y175080D01*
X30230Y175180D01*
X30500Y175080D01*
X30690Y174870D01*
X30840Y174560D01*
X30880Y174200D01*
X30840Y173890D01*
X30690Y173580D01*
X30460Y173320D01*
X30190Y173220D01*
X29880Y173320D01*
X29610Y173630D01*
X29460Y174100D01*
X29420Y174610D01*
X29500Y175290D01*
X29610Y175650D01*
X29800Y176010D01*
X30070Y176270D01*
X30340Y176320D01*
X30610Y176220D01*
X30800Y175960D01*
G01X32520Y175800D02*
X32750Y176110D01*
X33020Y176270D01*
X33330Y176320D01*
X33710Y176220D01*
X33980Y175960D01*
X34060Y175650D01*
X34020Y175340D01*
X33860Y175080D01*
X33100Y174560D01*
X32750Y174200D01*
X32520Y173680D01*
X32440Y173220D01*
X34060D01*
G01X58580Y52250D02*
X59350D01*
Y51320D01*
X59120Y51010D01*
X58850Y50800D01*
X58470Y50700D01*
X58080Y50800D01*
X57810Y51010D01*
X57580Y51320D01*
X57430Y51680D01*
X57350Y52090D01*
Y52460D01*
X57430Y52770D01*
X57580Y53130D01*
X57810Y53440D01*
X58040Y53640D01*
X58350Y53800D01*
X58620D01*
X58920Y53700D01*
X59160Y53490D01*
G01X60570Y50700D02*
Y53800D01*
X62330Y50700D01*
Y53800D01*
G01X63710Y50700D02*
Y53800D01*
X64470D01*
X64780Y53640D01*
X65010Y53440D01*
X65200Y53130D01*
X65360Y52770D01*
X65390Y52250D01*
X65360Y51730D01*
X65200Y51370D01*
X65010Y51060D01*
X64780Y50850D01*
X64470Y50700D01*
X63710D01*
G01X45780Y83000D02*
Y86100D01*
X46740D01*
X47050Y85940D01*
X47240Y85740D01*
X47320Y85320D01*
X47240Y84910D01*
X47010Y84650D01*
X46740Y84500D01*
X45780D01*
G01X46740D02*
X47320Y83000D01*
G01X49650D02*
Y86100D01*
X49190Y85480D01*
G01Y83000D02*
X50110D01*
G01X45780Y89000D02*
Y92100D01*
X46740D01*
X47050Y91940D01*
X47240Y91740D01*
X47320Y91320D01*
X47240Y90910D01*
X47010Y90650D01*
X46740Y90500D01*
X45780D01*
G01X46740D02*
X47320Y89000D01*
G01X49650D02*
Y92100D01*
X49190Y91480D01*
G01Y89000D02*
X50110D01*
G01X52750D02*
Y92100D01*
X52290Y91480D01*
G01Y89000D02*
X53210D01*
G01X45780Y95800D02*
Y98900D01*
X46740D01*
X47050Y98740D01*
X47240Y98540D01*
X47320Y98120D01*
X47240Y97710D01*
X47010Y97450D01*
X46740Y97300D01*
X45780D01*
G01X46740D02*
X47320Y95800D01*
G01X49650D02*
Y98900D01*
X49190Y98280D01*
G01Y95800D02*
X50110D01*
G01X52100Y96160D02*
X52370Y95900D01*
X52670Y95800D01*
X52980Y95900D01*
X53250Y96210D01*
X53440Y96680D01*
X53520Y97140D01*
Y97710D01*
X53440Y98180D01*
X53250Y98590D01*
X53020Y98800D01*
X52750Y98900D01*
X52440Y98800D01*
X52210Y98590D01*
X52060Y98280D01*
X51980Y97870D01*
X52060Y97510D01*
X52250Y97140D01*
X52480Y96940D01*
X52750Y96880D01*
X53060Y96990D01*
X53290Y97250D01*
X53520Y97710D01*
G01X45780Y101700D02*
Y104800D01*
X46740D01*
X47050Y104640D01*
X47240Y104440D01*
X47320Y104020D01*
X47240Y103610D01*
X47010Y103350D01*
X46740Y103200D01*
X45780D01*
G01X46740D02*
X47320Y101700D01*
G01X48920Y104280D02*
X49150Y104590D01*
X49420Y104750D01*
X49730Y104800D01*
X50110Y104700D01*
X50380Y104440D01*
X50460Y104130D01*
X50420Y103820D01*
X50260Y103560D01*
X49500Y103040D01*
X49150Y102680D01*
X48920Y102160D01*
X48840Y101700D01*
X50460D01*
G01X52670D02*
X52750Y102370D01*
X52870Y102940D01*
X53020Y103460D01*
X53210Y104020D01*
X53520Y104800D01*
X51980D01*
G01X45780Y107600D02*
Y110700D01*
X46740D01*
X47050Y110540D01*
X47240Y110340D01*
X47320Y109920D01*
X47240Y109510D01*
X47010Y109250D01*
X46740Y109100D01*
X45780D01*
G01X46740D02*
X47320Y107600D01*
G01X48810Y108220D02*
X49040Y107860D01*
X49340Y107650D01*
X49690Y107600D01*
X50000Y107650D01*
X50300Y107910D01*
X50490Y108220D01*
X50530Y108530D01*
X50460Y108890D01*
X50190Y109150D01*
X49920Y109250D01*
X49570D01*
G01X49920D02*
X50150Y109410D01*
X50340Y109670D01*
X50420Y109980D01*
X50340Y110290D01*
X50150Y110540D01*
X49800Y110700D01*
X49460Y110650D01*
X49110Y110440D01*
G01X51910Y108060D02*
X52140Y107810D01*
X52400Y107650D01*
X52750Y107600D01*
X53100Y107700D01*
X53360Y107910D01*
X53560Y108270D01*
X53590Y108680D01*
X53520Y109100D01*
X53320Y109360D01*
X53060Y109560D01*
X52790Y109610D01*
X52520Y109560D01*
X52180Y109360D01*
X52290Y110700D01*
X53320D01*
G01X45780Y113500D02*
Y116600D01*
X46740D01*
X47050Y116440D01*
X47240Y116240D01*
X47320Y115820D01*
X47240Y115410D01*
X47010Y115150D01*
X46740Y115000D01*
X45780D01*
G01X46740D02*
X47320Y113500D01*
G01X50110D02*
Y116600D01*
X48690Y114380D01*
X50610D01*
G01X51910Y114120D02*
X52140Y113760D01*
X52440Y113550D01*
X52790Y113500D01*
X53100Y113550D01*
X53400Y113810D01*
X53590Y114120D01*
X53630Y114430D01*
X53560Y114790D01*
X53290Y115050D01*
X53020Y115150D01*
X52670D01*
G01X53020D02*
X53250Y115310D01*
X53440Y115570D01*
X53520Y115880D01*
X53440Y116190D01*
X53250Y116440D01*
X52900Y116600D01*
X52560Y116550D01*
X52210Y116340D01*
G01X45780Y131400D02*
Y134500D01*
X46740D01*
X47050Y134340D01*
X47240Y134140D01*
X47320Y133720D01*
X47240Y133310D01*
X47010Y133050D01*
X46740Y132900D01*
X45780D01*
G01X46740D02*
X47320Y131400D01*
G01X50110D02*
Y134500D01*
X48690Y132280D01*
X50610D01*
G01X45780Y119600D02*
Y122700D01*
X46740D01*
X47050Y122540D01*
X47240Y122340D01*
X47320Y121920D01*
X47240Y121510D01*
X47010Y121250D01*
X46740Y121100D01*
X45780D01*
G01X46740D02*
X47320Y119600D01*
G01X48810Y120060D02*
X49040Y119810D01*
X49300Y119650D01*
X49650Y119600D01*
X50000Y119700D01*
X50260Y119910D01*
X50460Y120270D01*
X50490Y120680D01*
X50420Y121100D01*
X50220Y121360D01*
X49960Y121560D01*
X49690Y121610D01*
X49420Y121560D01*
X49080Y121360D01*
X49190Y122700D01*
X50220D01*
G01X52750Y119600D02*
Y122700D01*
X52290Y122080D01*
G01Y119600D02*
X53210D01*
G01X45780Y125500D02*
Y128600D01*
X46740D01*
X47050Y128440D01*
X47240Y128240D01*
X47320Y127820D01*
X47240Y127410D01*
X47010Y127150D01*
X46740Y127000D01*
X45780D01*
G01X46740D02*
X47320Y125500D01*
G01X48810Y125960D02*
X49040Y125710D01*
X49300Y125550D01*
X49650Y125500D01*
X50000Y125600D01*
X50260Y125810D01*
X50460Y126170D01*
X50490Y126580D01*
X50420Y127000D01*
X50220Y127260D01*
X49960Y127460D01*
X49690Y127510D01*
X49420Y127460D01*
X49080Y127260D01*
X49190Y128600D01*
X50220D01*
G01X52100Y125860D02*
X52370Y125600D01*
X52670Y125500D01*
X52980Y125600D01*
X53250Y125910D01*
X53440Y126380D01*
X53520Y126840D01*
Y127410D01*
X53440Y127880D01*
X53250Y128290D01*
X53020Y128500D01*
X52750Y128600D01*
X52440Y128500D01*
X52210Y128290D01*
X52060Y127980D01*
X51980Y127570D01*
X52060Y127210D01*
X52250Y126840D01*
X52480Y126640D01*
X52750Y126580D01*
X53060Y126690D01*
X53290Y126950D01*
X53520Y127410D01*
G01X45780Y137300D02*
Y140400D01*
X46740D01*
X47050Y140240D01*
X47240Y140040D01*
X47320Y139620D01*
X47240Y139210D01*
X47010Y138950D01*
X46740Y138800D01*
X45780D01*
G01X46740D02*
X47320Y137300D01*
G01X49650D02*
Y140400D01*
X49190Y139780D01*
G01Y137300D02*
X50110D01*
G01X52020Y139880D02*
X52250Y140190D01*
X52520Y140350D01*
X52830Y140400D01*
X53210Y140300D01*
X53480Y140040D01*
X53560Y139730D01*
X53520Y139420D01*
X53360Y139160D01*
X52600Y138640D01*
X52250Y138280D01*
X52020Y137760D01*
X51940Y137300D01*
X53560D01*
G01X45780Y143500D02*
Y146600D01*
X46740D01*
X47050Y146440D01*
X47240Y146240D01*
X47320Y145820D01*
X47240Y145410D01*
X47010Y145150D01*
X46740Y145000D01*
X45780D01*
G01X46740D02*
X47320Y143500D01*
G01X48920Y146080D02*
X49150Y146390D01*
X49420Y146550D01*
X49730Y146600D01*
X50110Y146500D01*
X50380Y146240D01*
X50460Y145930D01*
X50420Y145620D01*
X50260Y145360D01*
X49500Y144840D01*
X49150Y144480D01*
X48920Y143960D01*
X48840Y143500D01*
X50460D01*
G01X52750Y146600D02*
X52440Y146500D01*
X52210Y146240D01*
X52060Y145930D01*
X51940Y145510D01*
X51910Y145050D01*
X51940Y144580D01*
X52060Y144170D01*
X52210Y143860D01*
X52440Y143600D01*
X52750Y143500D01*
X53060Y143600D01*
X53290Y143860D01*
X53440Y144170D01*
X53560Y144580D01*
X53590Y145050D01*
X53560Y145510D01*
X53440Y145930D01*
X53290Y146240D01*
X53060Y146500D01*
X52750Y146600D01*
G01X45780Y149400D02*
Y152500D01*
X46740D01*
X47050Y152340D01*
X47240Y152140D01*
X47320Y151720D01*
X47240Y151310D01*
X47010Y151050D01*
X46740Y150900D01*
X45780D01*
G01X46740D02*
X47320Y149400D01*
G01X48920Y151980D02*
X49150Y152290D01*
X49420Y152450D01*
X49730Y152500D01*
X50110Y152400D01*
X50380Y152140D01*
X50460Y151830D01*
X50420Y151520D01*
X50260Y151260D01*
X49500Y150740D01*
X49150Y150380D01*
X48920Y149860D01*
X48840Y149400D01*
X50460D01*
G01X52750D02*
X53020Y149450D01*
X53320Y149610D01*
X53520Y149860D01*
X53590Y150230D01*
X53520Y150590D01*
X53290Y150900D01*
X52940Y151050D01*
X52560D01*
X52330Y151160D01*
X52140Y151410D01*
X52060Y151780D01*
X52180Y152140D01*
X52440Y152400D01*
X52750Y152500D01*
X53060Y152400D01*
X53320Y152140D01*
X53440Y151780D01*
X53360Y151410D01*
X53170Y151160D01*
X52940Y151050D01*
X52560D01*
X52210Y150900D01*
X51980Y150590D01*
X51910Y150230D01*
X51980Y149860D01*
X52180Y149610D01*
X52480Y149450D01*
X52750Y149400D01*
G01X45780Y155300D02*
Y158400D01*
X46740D01*
X47050Y158240D01*
X47240Y158040D01*
X47320Y157620D01*
X47240Y157210D01*
X47010Y156950D01*
X46740Y156800D01*
X45780D01*
G01X46740D02*
X47320Y155300D01*
G01X48810Y155920D02*
X49040Y155560D01*
X49340Y155350D01*
X49690Y155300D01*
X50000Y155350D01*
X50300Y155610D01*
X50490Y155920D01*
X50530Y156230D01*
X50460Y156590D01*
X50190Y156850D01*
X49920Y156950D01*
X49570D01*
G01X49920D02*
X50150Y157110D01*
X50340Y157370D01*
X50420Y157680D01*
X50340Y157990D01*
X50150Y158240D01*
X49800Y158400D01*
X49460Y158350D01*
X49110Y158140D01*
G01X52020Y156590D02*
X52290Y156950D01*
X52520Y157160D01*
X52830Y157260D01*
X53100Y157160D01*
X53290Y156950D01*
X53440Y156640D01*
X53480Y156280D01*
X53440Y155970D01*
X53290Y155660D01*
X53060Y155400D01*
X52790Y155300D01*
X52480Y155400D01*
X52210Y155710D01*
X52060Y156180D01*
X52020Y156690D01*
X52100Y157370D01*
X52210Y157730D01*
X52400Y158090D01*
X52670Y158350D01*
X52940Y158400D01*
X53210Y158300D01*
X53400Y158040D01*
G01X45780Y161200D02*
Y164300D01*
X46740D01*
X47050Y164140D01*
X47240Y163940D01*
X47320Y163520D01*
X47240Y163110D01*
X47010Y162850D01*
X46740Y162700D01*
X45780D01*
G01X46740D02*
X47320Y161200D01*
G01X50110D02*
Y164300D01*
X48690Y162080D01*
X50610D01*
G01X53210Y161200D02*
Y164300D01*
X51790Y162080D01*
X53710D01*
G01X45780Y167700D02*
Y170800D01*
X46740D01*
X47050Y170640D01*
X47240Y170440D01*
X47320Y170020D01*
X47240Y169610D01*
X47010Y169350D01*
X46740Y169200D01*
X45780D01*
G01X46740D02*
X47320Y167700D01*
G01X48810Y168160D02*
X49040Y167910D01*
X49300Y167750D01*
X49650Y167700D01*
X50000Y167800D01*
X50260Y168010D01*
X50460Y168370D01*
X50490Y168780D01*
X50420Y169200D01*
X50220Y169460D01*
X49960Y169660D01*
X49690Y169710D01*
X49420Y169660D01*
X49080Y169460D01*
X49190Y170800D01*
X50220D01*
G01X52020Y170280D02*
X52250Y170590D01*
X52520Y170750D01*
X52830Y170800D01*
X53210Y170700D01*
X53480Y170440D01*
X53560Y170130D01*
X53520Y169820D01*
X53360Y169560D01*
X52600Y169040D01*
X52250Y168680D01*
X52020Y168160D01*
X51940Y167700D01*
X53560D01*
G01X45780Y173600D02*
Y176700D01*
X46740D01*
X47050Y176540D01*
X47240Y176340D01*
X47320Y175920D01*
X47240Y175510D01*
X47010Y175250D01*
X46740Y175100D01*
X45780D01*
G01X46740D02*
X47320Y173600D01*
G01X48920Y174890D02*
X49190Y175250D01*
X49420Y175460D01*
X49730Y175560D01*
X50000Y175460D01*
X50190Y175250D01*
X50340Y174940D01*
X50380Y174580D01*
X50340Y174270D01*
X50190Y173960D01*
X49960Y173700D01*
X49690Y173600D01*
X49380Y173700D01*
X49110Y174010D01*
X48960Y174480D01*
X48920Y174990D01*
X49000Y175670D01*
X49110Y176030D01*
X49300Y176390D01*
X49570Y176650D01*
X49840Y176700D01*
X50110Y176600D01*
X50300Y176340D01*
G01X52750Y176700D02*
X52440Y176600D01*
X52210Y176340D01*
X52060Y176030D01*
X51940Y175610D01*
X51910Y175150D01*
X51940Y174680D01*
X52060Y174270D01*
X52210Y173960D01*
X52440Y173700D01*
X52750Y173600D01*
X53060Y173700D01*
X53290Y173960D01*
X53440Y174270D01*
X53560Y174680D01*
X53590Y175150D01*
X53560Y175610D01*
X53440Y176030D01*
X53290Y176340D01*
X53060Y176600D01*
X52750Y176700D01*
G01X67230Y213920D02*
X68000D01*
Y212990D01*
X67770Y212680D01*
X67500Y212470D01*
X67120Y212370D01*
X66730Y212470D01*
X66460Y212680D01*
X66230Y212990D01*
X66080Y213350D01*
X66000Y213760D01*
Y214130D01*
X66080Y214440D01*
X66230Y214800D01*
X66460Y215110D01*
X66690Y215310D01*
X67000Y215470D01*
X67270D01*
X67570Y215370D01*
X67810Y215160D01*
G01X69220Y212370D02*
Y215470D01*
X70980Y212370D01*
Y215470D01*
G01X72360Y212370D02*
Y215470D01*
X73120D01*
X73430Y215310D01*
X73660Y215110D01*
X73850Y214800D01*
X74010Y214440D01*
X74040Y213920D01*
X74010Y213400D01*
X73850Y213040D01*
X73660Y212730D01*
X73430Y212520D01*
X73120Y212370D01*
X72360D01*
G01X121080Y162400D02*
Y168700D01*
X122640D01*
X123270Y168380D01*
X123740Y167960D01*
X124130Y167340D01*
X124450Y166600D01*
X124520Y165550D01*
X124450Y164500D01*
X124130Y163760D01*
X123740Y163130D01*
X123270Y162710D01*
X122640Y162400D01*
X121080D01*
G01X130670D02*
X127530D01*
Y168700D01*
X130670D01*
G01X129410Y165660D02*
X127530D01*
G01X135400Y168700D02*
Y162400D01*
G01X133600Y168700D02*
X137200D01*
G01X148000D02*
Y162400D01*
G01X146200Y168700D02*
X149800D01*
G01X154300Y162400D02*
X153830Y162500D01*
X153360Y162920D01*
X153050Y163660D01*
X152890Y164500D01*
X153050Y165340D01*
X153360Y166070D01*
X153830Y166490D01*
X154300Y166600D01*
X154770Y166490D01*
X155240Y166070D01*
X155550Y165340D01*
X155630Y164500D01*
X155550Y163660D01*
X155240Y162920D01*
X154770Y162500D01*
X154300Y162400D01*
G01X164940D02*
X166900Y168700D01*
X168860Y162400D01*
G01X168150Y164600D02*
X165650D01*
G01X173670Y165550D02*
X175240D01*
Y163660D01*
X174770Y163030D01*
X174220Y162610D01*
X173440Y162400D01*
X172650Y162610D01*
X172100Y163030D01*
X171630Y163660D01*
X171320Y164390D01*
X171160Y165230D01*
Y165970D01*
X171320Y166600D01*
X171630Y167340D01*
X172100Y167960D01*
X172570Y168380D01*
X173200Y168700D01*
X173750D01*
X174370Y168490D01*
X174850Y168070D01*
G01X181070Y162400D02*
X177930D01*
Y168700D01*
X181070D01*
G01X179810Y165660D02*
X177930D01*
G01X185800Y168700D02*
Y162400D01*
G01X184000Y168700D02*
X187600D01*
G01X196910Y162400D02*
Y168700D01*
X199890D01*
G01X198790Y165660D02*
X196910D01*
G01X206270Y162400D02*
X203130D01*
Y168700D01*
X206270D01*
G01X205010Y165660D02*
X203130D01*
G01X212720Y168170D02*
X212250Y168490D01*
X211710Y168700D01*
X211080D01*
X210370Y168380D01*
X209830Y167860D01*
X209430Y167230D01*
X209120Y166180D01*
X209040Y165230D01*
X209200Y164290D01*
X209430Y163660D01*
X209900Y163030D01*
X210450Y162610D01*
X211000Y162400D01*
X211550D01*
X212100Y162610D01*
X212570Y162920D01*
X212960Y163340D01*
G01X225320Y168170D02*
X224850Y168490D01*
X224310Y168700D01*
X223680D01*
X222970Y168380D01*
X222430Y167860D01*
X222030Y167230D01*
X221720Y166180D01*
X221640Y165230D01*
X221800Y164290D01*
X222030Y163660D01*
X222500Y163030D01*
X223050Y162610D01*
X223600Y162400D01*
X224150D01*
X224700Y162610D01*
X225170Y162920D01*
X225560Y163340D01*
G01X229900Y162400D02*
X229430Y162500D01*
X228960Y162920D01*
X228650Y163660D01*
X228490Y164500D01*
X228650Y165340D01*
X228960Y166070D01*
X229430Y166490D01*
X229900Y166600D01*
X230370Y166490D01*
X230840Y166070D01*
X231150Y165340D01*
X231230Y164500D01*
X231150Y163660D01*
X230840Y162920D01*
X230370Y162500D01*
X229900Y162400D01*
G01X234870D02*
Y166600D01*
G01Y165550D02*
X235180Y166070D01*
X235650Y166490D01*
X236280Y166600D01*
X236830Y166490D01*
X237300Y166070D01*
X237530Y165340D01*
Y162400D01*
G01X241170D02*
Y166600D01*
G01Y165550D02*
X241480Y166070D01*
X241950Y166490D01*
X242580Y166600D01*
X243130Y166490D01*
X243600Y166070D01*
X243830Y165340D01*
Y162400D01*
G01X247630Y165230D02*
X250130D01*
X249900Y165970D01*
X249510Y166390D01*
X248960Y166600D01*
X248410Y166490D01*
X247940Y166180D01*
X247630Y165440D01*
X247470Y164810D01*
Y164190D01*
X247630Y163550D01*
X248020Y162920D01*
X248490Y162500D01*
X249040Y162400D01*
X249580Y162610D01*
X250130Y163240D01*
G01X256350Y166070D02*
X255810Y166490D01*
X255340Y166600D01*
X254710Y166390D01*
X254240Y165970D01*
X253930Y165230D01*
X253850Y164500D01*
X253930Y163760D01*
X254240Y163130D01*
X254710Y162610D01*
X255340Y162400D01*
X255880Y162610D01*
X256350Y163030D01*
G01X261400Y168700D02*
Y162400D01*
G01X260300Y166600D02*
X262500D01*
G01X267700Y162400D02*
X267230Y162500D01*
X266760Y162920D01*
X266450Y163660D01*
X266290Y164500D01*
X266450Y165340D01*
X266760Y166070D01*
X267230Y166490D01*
X267700Y166600D01*
X268170Y166490D01*
X268640Y166070D01*
X268950Y165340D01*
X269030Y164500D01*
X268950Y163660D01*
X268640Y162920D01*
X268170Y162500D01*
X267700Y162400D01*
G01X272900D02*
Y166600D01*
G01Y165760D02*
X273290Y166180D01*
X273690Y166490D01*
X274240Y166600D01*
X274630Y166490D01*
X275100Y166180D01*
G01X256620Y108950D02*
X256850Y109260D01*
X257120Y109420D01*
X257430Y109470D01*
X257810Y109370D01*
X258080Y109110D01*
X258160Y108800D01*
X258120Y108490D01*
X257960Y108230D01*
X257200Y107710D01*
X256850Y107350D01*
X256620Y106830D01*
X256540Y106370D01*
X258160D01*
G01X260450Y109470D02*
X260140Y109370D01*
X259910Y109110D01*
X259760Y108800D01*
X259640Y108380D01*
X259610Y107920D01*
X259640Y107450D01*
X259760Y107040D01*
X259910Y106730D01*
X260140Y106470D01*
X260450Y106370D01*
X260760Y106470D01*
X260990Y106730D01*
X261140Y107040D01*
X261260Y107450D01*
X261290Y107920D01*
X261260Y108380D01*
X261140Y108800D01*
X260990Y109110D01*
X260760Y109370D01*
X260450Y109470D01*
G01X263550Y106370D02*
Y109470D01*
X263090Y108850D01*
G01Y106370D02*
X264010D01*
G01X266570D02*
X266650Y107040D01*
X266770Y107610D01*
X266920Y108130D01*
X267110Y108690D01*
X267420Y109470D01*
X265880D01*
G01X269060Y106270D02*
X270440Y109470D01*
G01X272850D02*
X272540Y109370D01*
X272310Y109110D01*
X272160Y108800D01*
X272040Y108380D01*
X272010Y107920D01*
X272040Y107450D01*
X272160Y107040D01*
X272310Y106730D01*
X272540Y106470D01*
X272850Y106370D01*
X273160Y106470D01*
X273390Y106730D01*
X273540Y107040D01*
X273660Y107450D01*
X273690Y107920D01*
X273660Y108380D01*
X273540Y108800D01*
X273390Y109110D01*
X273160Y109370D01*
X272850Y109470D01*
G01X275300Y106730D02*
X275570Y106470D01*
X275870Y106370D01*
X276180Y106470D01*
X276450Y106780D01*
X276640Y107250D01*
X276720Y107710D01*
Y108280D01*
X276640Y108750D01*
X276450Y109160D01*
X276220Y109370D01*
X275950Y109470D01*
X275640Y109370D01*
X275410Y109160D01*
X275260Y108850D01*
X275180Y108440D01*
X275260Y108080D01*
X275450Y107710D01*
X275680Y107510D01*
X275950Y107450D01*
X276260Y107560D01*
X276490Y107820D01*
X276720Y108280D01*
G01X278360Y106270D02*
X279740Y109470D01*
G01X282150Y106370D02*
Y109470D01*
X281690Y108850D01*
G01Y106370D02*
X282610D01*
G01X285710D02*
Y109470D01*
X284290Y107250D01*
X286210D01*
G01X337030Y6720D02*
X337800D01*
Y5790D01*
X337570Y5480D01*
X337300Y5270D01*
X336920Y5170D01*
X336530Y5270D01*
X336260Y5480D01*
X336030Y5790D01*
X335880Y6150D01*
X335800Y6560D01*
Y6930D01*
X335880Y7240D01*
X336030Y7600D01*
X336260Y7910D01*
X336490Y8110D01*
X336800Y8270D01*
X337070D01*
X337370Y8170D01*
X337610Y7960D01*
G01X339020Y5170D02*
Y8270D01*
X340780Y5170D01*
Y8270D01*
G01X342160Y5170D02*
Y8270D01*
X342920D01*
X343230Y8110D01*
X343460Y7910D01*
X343650Y7600D01*
X343810Y7240D01*
X343840Y6720D01*
X343810Y6200D01*
X343650Y5840D01*
X343460Y5530D01*
X343230Y5320D01*
X342920Y5170D01*
X342160D01*
G01X346440Y125220D02*
Y123680D01*
X343340D01*
Y125220D01*
G01X344840Y124600D02*
Y123680D01*
G01X346440Y126780D02*
X343340D01*
Y127740D01*
X343500Y128050D01*
X343700Y128240D01*
X344120Y128320D01*
X344530Y128240D01*
X344790Y128010D01*
X344940Y127740D01*
Y126780D01*
G01Y127740D02*
X346440Y128320D01*
G01Y129770D02*
X343340D01*
X346440Y131530D01*
X343340D01*
G01Y133290D02*
Y134210D01*
G01Y133750D02*
X346440D01*
G01Y133290D02*
Y134210D01*
G01Y139950D02*
X343340D01*
X343960Y139490D01*
G01X346440D02*
Y140410D01*
G01X345980Y142210D02*
X346230Y142440D01*
X346390Y142700D01*
X346440Y143050D01*
X346340Y143400D01*
X346130Y143660D01*
X345770Y143860D01*
X345360Y143890D01*
X344940Y143820D01*
X344680Y143620D01*
X344480Y143360D01*
X344430Y143090D01*
X344480Y142820D01*
X344680Y142480D01*
X343340Y142590D01*
Y143620D01*
G01X346440Y146610D02*
X343340D01*
X345560Y145190D01*
Y147110D01*
G01X346440Y149170D02*
X345770Y149250D01*
X345200Y149370D01*
X344680Y149520D01*
X344120Y149710D01*
X343340Y150020D01*
Y148480D01*
G01X345150Y151620D02*
X344790Y151890D01*
X344580Y152120D01*
X344480Y152430D01*
X344580Y152700D01*
X344790Y152890D01*
X345100Y153040D01*
X345460Y153080D01*
X345770Y153040D01*
X346080Y152890D01*
X346340Y152660D01*
X346440Y152390D01*
X346340Y152080D01*
X346030Y151810D01*
X345560Y151660D01*
X345050Y151620D01*
X344370Y151700D01*
X344010Y151810D01*
X343650Y152000D01*
X343390Y152270D01*
X343340Y152540D01*
X343440Y152810D01*
X343700Y153000D01*
G01X346440Y155370D02*
X345770Y155450D01*
X345200Y155570D01*
X344680Y155720D01*
X344120Y155910D01*
X343340Y156220D01*
Y154680D01*
G01X346440Y160650D02*
X343340D01*
X345920Y161650D01*
X343340Y162650D01*
X346440D01*
G01Y163790D02*
X343340Y164750D01*
X346440Y165710D01*
G01X345360Y165360D02*
Y164140D01*
G01X343340Y167080D02*
X346440D01*
Y168620D01*
G01Y171720D02*
Y170180D01*
X343340D01*
Y171720D01*
G01X344840Y171100D02*
Y170180D01*
G01X349090Y228410D02*
X348860Y228570D01*
X348600Y228670D01*
X348290D01*
X347940Y228510D01*
X347680Y228260D01*
X347480Y227950D01*
X347330Y227430D01*
X347290Y226960D01*
X347370Y226500D01*
X347480Y226190D01*
X347710Y225880D01*
X347980Y225670D01*
X348250Y225570D01*
X348520D01*
X348790Y225670D01*
X349020Y225830D01*
X349210Y226030D01*
G01X350700Y225570D02*
Y228670D01*
G01Y227170D02*
X350890Y227430D01*
X351080Y227580D01*
X351390Y227640D01*
X351620Y227580D01*
X351890Y227380D01*
X352000Y227070D01*
Y225570D01*
G01X353720Y226860D02*
X353990Y227220D01*
X354220Y227430D01*
X354530Y227530D01*
X354800Y227430D01*
X354990Y227220D01*
X355140Y226910D01*
X355180Y226550D01*
X355140Y226240D01*
X354990Y225930D01*
X354760Y225670D01*
X354490Y225570D01*
X354180Y225670D01*
X353910Y225980D01*
X353760Y226450D01*
X353720Y226960D01*
X353800Y227640D01*
X353910Y228000D01*
X354100Y228360D01*
X354370Y228620D01*
X354640Y228670D01*
X354910Y228570D01*
X355100Y228310D01*
G01X358010Y225570D02*
Y228670D01*
X356590Y226450D01*
X358510D01*
G01X337030Y252620D02*
X337800D01*
Y251690D01*
X337570Y251380D01*
X337300Y251170D01*
X336920Y251070D01*
X336530Y251170D01*
X336260Y251380D01*
X336030Y251690D01*
X335880Y252050D01*
X335800Y252460D01*
Y252830D01*
X335880Y253140D01*
X336030Y253500D01*
X336260Y253810D01*
X336490Y254010D01*
X336800Y254170D01*
X337070D01*
X337370Y254070D01*
X337610Y253860D01*
G01X339020Y251070D02*
Y254170D01*
X340780Y251070D01*
Y254170D01*
G01X342160Y251070D02*
Y254170D01*
X342920D01*
X343230Y254010D01*
X343460Y253810D01*
X343650Y253500D01*
X343810Y253140D01*
X343840Y252620D01*
X343810Y252100D01*
X343650Y251740D01*
X343460Y251430D01*
X343230Y251220D01*
X342920Y251070D01*
X342160D01*
G01X351340Y46810D02*
X351110Y46970D01*
X350850Y47070D01*
X350540D01*
X350190Y46910D01*
X349930Y46660D01*
X349730Y46350D01*
X349580Y45830D01*
X349540Y45360D01*
X349620Y44900D01*
X349730Y44590D01*
X349960Y44280D01*
X350230Y44070D01*
X350500Y43970D01*
X350770D01*
X351040Y44070D01*
X351270Y44230D01*
X351460Y44430D01*
G01X352950Y43970D02*
Y47070D01*
G01Y45570D02*
X353140Y45830D01*
X353330Y45980D01*
X353640Y46040D01*
X353870Y45980D01*
X354140Y45780D01*
X354250Y45470D01*
Y43970D01*
G01X356700D02*
Y47070D01*
X356240Y46450D01*
G01Y43970D02*
X357160D01*
G01X354680Y30270D02*
Y33370D01*
X355640D01*
X355950Y33210D01*
X356140Y33010D01*
X356220Y32590D01*
X356140Y32180D01*
X355910Y31920D01*
X355640Y31770D01*
X354680D01*
G01X355640D02*
X356220Y30270D01*
G01X357710Y30890D02*
X357940Y30530D01*
X358240Y30320D01*
X358590Y30270D01*
X358900Y30320D01*
X359200Y30580D01*
X359390Y30890D01*
X359430Y31200D01*
X359360Y31560D01*
X359090Y31820D01*
X358820Y31920D01*
X358470D01*
G01X358820D02*
X359050Y32080D01*
X359240Y32340D01*
X359320Y32650D01*
X359240Y32960D01*
X359050Y33210D01*
X358700Y33370D01*
X358360Y33320D01*
X358010Y33110D01*
G01X358480Y236590D02*
X358680Y236280D01*
X358900Y236070D01*
X359170Y235970D01*
X359480Y236070D01*
X359710Y236280D01*
X359940Y236590D01*
X360020Y237000D01*
Y239070D01*
G01X362350Y235970D02*
Y239070D01*
X361890Y238450D01*
G01Y235970D02*
X362810D01*
G01X378930Y6720D02*
X379700D01*
Y5790D01*
X379470Y5480D01*
X379200Y5270D01*
X378820Y5170D01*
X378430Y5270D01*
X378160Y5480D01*
X377930Y5790D01*
X377780Y6150D01*
X377700Y6560D01*
Y6930D01*
X377780Y7240D01*
X377930Y7600D01*
X378160Y7910D01*
X378390Y8110D01*
X378700Y8270D01*
X378970D01*
X379270Y8170D01*
X379510Y7960D01*
G01X380920Y5170D02*
Y8270D01*
X382680Y5170D01*
Y8270D01*
G01X384060Y5170D02*
Y8270D01*
X384820D01*
X385130Y8110D01*
X385360Y7910D01*
X385550Y7600D01*
X385710Y7240D01*
X385740Y6720D01*
X385710Y6200D01*
X385550Y5840D01*
X385360Y5530D01*
X385130Y5320D01*
X384820Y5170D01*
X384060D01*
G01X375030Y253520D02*
X375800D01*
Y252590D01*
X375570Y252280D01*
X375300Y252070D01*
X374920Y251970D01*
X374530Y252070D01*
X374260Y252280D01*
X374030Y252590D01*
X373880Y252950D01*
X373800Y253360D01*
Y253730D01*
X373880Y254040D01*
X374030Y254400D01*
X374260Y254710D01*
X374490Y254910D01*
X374800Y255070D01*
X375070D01*
X375370Y254970D01*
X375610Y254760D01*
G01X377020Y251970D02*
Y255070D01*
X378780Y251970D01*
Y255070D01*
G01X380160Y251970D02*
Y255070D01*
X380920D01*
X381230Y254910D01*
X381460Y254710D01*
X381650Y254400D01*
X381810Y254040D01*
X381840Y253520D01*
X381810Y253000D01*
X381650Y252640D01*
X381460Y252330D01*
X381230Y252120D01*
X380920Y251970D01*
X380160D01*
G54D11*
G01X365300Y242500D02*
X412300D01*
Y17500D01*
X365300D01*
Y242500D01*
G54D12*
G01X21800Y81200D02*
X10800D01*
Y86200D01*
X21800D01*
Y81200D01*
G01Y87100D02*
X10800D01*
Y92100D01*
X21800D01*
Y87100D01*
G01Y94200D02*
X10800D01*
Y99200D01*
X21800D01*
Y94200D01*
G01Y100100D02*
X10800D01*
Y105100D01*
X21800D01*
Y100100D01*
G01Y106000D02*
X10800D01*
Y111000D01*
X21800D01*
Y106000D01*
G01Y111900D02*
X10800D01*
Y116900D01*
X21800D01*
Y111900D01*
G01Y117800D02*
X10800D01*
Y122800D01*
X21800D01*
Y117800D01*
G01Y129700D02*
X10800D01*
Y134700D01*
X21800D01*
Y129700D01*
G01Y123800D02*
X10800D01*
Y128800D01*
X21800D01*
Y123800D01*
G01Y135600D02*
X10800D01*
Y140600D01*
X21800D01*
Y135600D01*
G01Y141800D02*
X10800D01*
Y146800D01*
X21800D01*
Y141800D01*
G01Y147700D02*
X10800D01*
Y152700D01*
X21800D01*
Y147700D01*
G01Y153600D02*
X10800D01*
Y158600D01*
X21800D01*
Y153600D01*
G01Y159500D02*
X10800D01*
Y164500D01*
X21800D01*
Y159500D01*
G01Y165900D02*
X10800D01*
Y170900D01*
X21800D01*
Y165900D01*
G01Y171800D02*
X10800D01*
Y176800D01*
X21800D01*
Y171800D01*
G01X56600Y86200D02*
X67600D01*
Y81200D01*
X56600D01*
Y86200D01*
G01Y92200D02*
X67600D01*
Y87200D01*
X56600D01*
Y92200D01*
G01Y99000D02*
X67600D01*
Y94000D01*
X56600D01*
Y99000D01*
G01Y104900D02*
X67600D01*
Y99900D01*
X56600D01*
Y104900D01*
G01Y110800D02*
X67600D01*
Y105800D01*
X56600D01*
Y110800D01*
G01Y116700D02*
X67600D01*
Y111700D01*
X56600D01*
Y116700D01*
G01Y134600D02*
X67600D01*
Y129600D01*
X56600D01*
Y134600D01*
G01Y122800D02*
X67600D01*
Y117800D01*
X56600D01*
Y122800D01*
G01Y128700D02*
X67600D01*
Y123700D01*
X56600D01*
Y128700D01*
G01Y140500D02*
X67600D01*
Y135500D01*
X56600D01*
Y140500D01*
G01Y146700D02*
X67600D01*
Y141700D01*
X56600D01*
Y146700D01*
G01Y152600D02*
X67600D01*
Y147600D01*
X56600D01*
Y152600D01*
G01Y158500D02*
X67600D01*
Y153500D01*
X56600D01*
Y158500D01*
G01Y164400D02*
X67600D01*
Y159400D01*
X56600D01*
Y164400D01*
G01Y170900D02*
X67600D01*
Y165900D01*
X56600D01*
Y170900D01*
G01Y176800D02*
X67600D01*
Y171800D01*
X56600D01*
Y176800D01*
G01X362100Y35000D02*
X351100D01*
Y40000D01*
X362100D01*
Y35000D01*
G54D13*
G01X2500Y30000D02*
X77500D01*
G03X80000Y32500I0J2500D01*
G01Y60000D01*
X290000D01*
X320000Y30000D01*
Y2500D01*
G03X322500Y0I2500J0D01*
G01X397500D01*
G03X400000Y2500I0J2500D01*
G01Y257500D01*
G03X397500Y260000I-2500J0D01*
G01X322500D01*
G03X320000Y257500I0J-2500D01*
G01Y230000D01*
X290000Y200000D01*
X80000D01*
Y227500D01*
G03X77500Y230000I-2500J0D01*
G01X2500D01*
G03X0Y227500I0J-2500D01*
G01Y32500D01*
G03X2500Y30000I2500J0D01*
G01X400000Y242400D02*
Y17600D01*
G01X49530Y50000D02*
G03I-9530J0D01*
G01Y210000D02*
G03I-9530J0D01*
G01X349530Y20000D02*
G03I-9530J0D01*
G01Y240000D02*
G03I-9530J0D01*
G01X365300Y17500D02*
Y242500D01*
X412300D01*
Y17500D01*
X365300D01*
G54D14*
G01X20000Y35700D02*
X24000D01*
G01X20000Y38300D02*
G02X15800Y42500I0J4200D01*
G02X20000Y46700I4200J0D01*
G02X24200Y42500I0J-4200D01*
G02X20000Y38300I-4200J0D01*
G01Y35700D01*
X16000D01*
G01X20000Y221700D02*
G02X24200Y217500I0J-4200D01*
G02X20000Y213300I-4200J0D01*
G02X15800Y217500I0J4200D01*
G02X20000Y221700I4200J0D01*
G01Y224300D01*
X24000D01*
G01X20000D02*
X16000D01*
G01X60000Y35700D02*
X64000D01*
G01X60000Y38300D02*
G02X55800Y42500I0J4200D01*
G02X60000Y46700I4200J0D01*
G02X64200Y42500I0J-4200D01*
G02X60000Y38300I-4200J0D01*
G01Y35700D01*
X56000D01*
G01X60000Y221700D02*
G02X64200Y217500I0J-4200D01*
G02X60000Y213300I-4200J0D01*
G02X55800Y217500I0J4200D01*
G02X60000Y221700I4200J0D01*
G01Y224300D01*
X64000D01*
G01X60000D02*
X56000D01*
G01X369900Y6600D02*
G02X365700Y10800I0J4200D01*
G02X369900Y15000I4200J0D01*
G02X374100Y10800I0J-4200D01*
G02X369900Y6600I-4200J0D01*
G01Y4000D01*
X365900D01*
G01X363400Y256000D02*
X359400D01*
G01X363400Y253400D02*
G02X367600Y249200I0J-4200D01*
G02X363400Y245000I-4200J0D01*
G02X359200Y249200I0J4200D01*
G02X363400Y253400I4200J0D01*
G01Y256000D01*
X367400D01*
G01X369900Y4000D02*
X373900D01*
G01X390400Y4500D02*
X394400D01*
G01X390400Y7100D02*
G02X386200Y11300I0J4200D01*
G02X390400Y15500I4200J0D01*
G02X394600Y11300I0J-4200D01*
G02X390400Y7100I-4200J0D01*
G01Y4500D01*
X386400D01*
G01X389300Y256400D02*
X385300D01*
G01X389300Y253800D02*
G02X393500Y249600I0J-4200D01*
G02X389300Y245400I-4200J0D01*
G02X385100Y249600I0J4200D01*
G02X389300Y253800I4200J0D01*
G01Y256400D01*
X393300D01*
M02*
