G04 ================== begin FILE IDENTIFICATION RECORD ==================*
G04 Layout Name:  D:/MyProject/SDHCAL_DAQ/PCB&Schematic/SDHCalDIF/Allegro/SDHCalDIF.brd*
G04 Film Name:    art04*
G04 File Format:  Gerber RS274X*
G04 File Origin:  Cadence Allegro 16.6-S025*
G04 Origin Date:  Fri Apr 27 14:42:22 2018*
G04 *
G04 Layer:  BOARD GEOMETRY/OUTLINE*
G04 Layer:  ETCH/SIG1*
G04 Layer:  PIN/SIG1*
G04 Layer:  VIA CLASS/SIG1*
G04 *
G04 Offset:    (0.00 0.00)*
G04 Mirror:    No*
G04 Mode:      Positive*
G04 Rotation:  0*
G04 FullContactRelief:  No*
G04 UndefLineWidth:     5.00*
G04 ================== end FILE IDENTIFICATION RECORD ====================*
%FSLAX25Y25*MOIN*%
%IR0*IPPOS*OFA0.00000B0.00000*MIA0B0*SFA1.00000B1.00000*%
%ADD10C,.02*%
%ADD14C,.012*%
%ADD18C,.04*%
%ADD15C,.06*%
%ADD19C,.07*%
%ADD22C,.062*%
%ADD21C,.08*%
%ADD28R,.10236X.04331*%
%ADD23C,.045*%
%ADD17C,.09*%
%ADD12C,.028*%
%ADD26O,.10276X.05551*%
%ADD13C,.0709*%
%ADD24O,.12638X.05551*%
%ADD20C,.1*%
%ADD16C,.11*%
%ADD11C,.176*%
%ADD27O,.04134X.03346*%
%ADD29O,.07874X.05118*%
%ADD25R,.08268X.03937*%
%ADD30C,.004*%
%ADD31C,.005*%
%ADD32C,.006*%
%ADD33C,.03004*%
%ADD34C,.02204*%
G75*
%LPD*%
G75*
G36*
G01X235900Y28200D02*
Y55900D01*
X255193D01*
X255212Y55721D01*
G03X258588I1688J179D01*
G01X258607Y55900D01*
X274919D01*
X274936Y55718D01*
G03X278864I1964J182D01*
G01X278881Y55900D01*
X289417D01*
X289431Y55715D01*
G03X294369I2469J185D01*
G01X294383Y55900D01*
X311100D01*
Y28200D01*
X235900D01*
G37*
G36*
G01X248800Y391013D02*
Y394026D01*
G03Y394950I-1001J462D01*
G01Y397963D01*
G03Y398887I-1001J462D01*
G01Y401900D01*
G03Y402824I-1001J462D01*
G01Y405837D01*
G03Y406761I-1001J462D01*
G01Y409774D01*
G03Y410698I-1001J462D01*
G01Y413711D01*
G03Y414635I-1001J462D01*
G01Y417648D01*
G03Y418572I-1001J462D01*
G01Y425518D01*
X248816Y425555D01*
G03Y426413I-1016J429D01*
G01X248800Y426450D01*
Y427800D01*
X257700D01*
Y384300D01*
X248800D01*
Y390089D01*
G03Y391013I-1001J462D01*
G37*
%LPC*%
G75*
G54D33*
X296800Y52600D03*
X296500Y40300D03*
X290598Y40329D03*
X281800Y52600D03*
X281700Y40300D03*
X261800Y52600D03*
Y40300D03*
X251800Y52600D03*
X251600Y40300D03*
G54D34*
X251736Y425984D03*
X255673Y422047D03*
X251736Y418110D03*
Y422047D03*
X255673Y418110D03*
X255674Y410236D03*
X251736Y414173D03*
Y410236D03*
X255673Y414173D03*
Y402362D03*
X255674Y406299D03*
X251736Y402362D03*
Y406299D03*
X255673Y394488D03*
Y398425D03*
X251736D03*
Y394488D03*
X255673Y390551D03*
X251736D03*
%LPD*%
G75*
G54D10*
X3200Y71800D03*
X2700Y80100D03*
X3200Y285500D03*
X2700Y293800D03*
X3500Y322900D03*
X3000Y331200D03*
X2800Y544900D03*
X3300Y536600D03*
X3400Y582500D03*
X3200Y787800D03*
X2700Y796100D03*
X8700Y71600D03*
X7100Y80200D03*
X12300Y80400D03*
X8700Y285300D03*
X7100Y293900D03*
X12300Y294100D03*
X9000Y322700D03*
X7400Y331300D03*
X8800Y536400D03*
X7200Y545000D03*
X9400Y574000D03*
X3900Y574200D03*
X7800Y582600D03*
X8700Y787600D03*
X12300Y796400D03*
X7100Y796200D03*
X20000Y71700D03*
X13500Y71800D03*
X12600Y285100D03*
X12900Y322500D03*
X12600Y331500D03*
X12700Y536200D03*
X12400Y545200D03*
X13300Y573800D03*
X13000Y582800D03*
X12600Y787400D03*
X24400Y71600D03*
X22400Y80500D03*
X26500Y80200D03*
X24400Y285300D03*
X20900Y285100D03*
X26500Y293900D03*
X22400Y294200D03*
X24700Y322700D03*
X21200Y322500D03*
X22700Y331600D03*
X26800Y331300D03*
X21525Y341358D03*
Y336358D03*
X24500Y536400D03*
X21000Y536200D03*
X26600Y545000D03*
X22500Y545300D03*
X25100Y574000D03*
X21600Y573800D03*
X23100Y582900D03*
X20900Y787400D03*
X24400Y787600D03*
X22400Y796500D03*
X26500Y796200D03*
X34000Y75900D03*
X30500Y71700D03*
X31300Y80100D03*
X32675Y220358D03*
Y230358D03*
X30500Y285400D03*
X34000Y289600D03*
X31300Y293800D03*
X30800Y322800D03*
X31600Y331200D03*
X34300Y327000D03*
X32675Y346358D03*
Y351358D03*
Y366358D03*
Y371358D03*
X30600Y536500D03*
X31400Y544900D03*
X34100Y540700D03*
X34700Y578300D03*
X31200Y574100D03*
X32000Y582500D03*
X32675Y722358D03*
Y732358D03*
X30500Y787700D03*
X34000Y791900D03*
X31300Y796100D03*
X51800Y48400D03*
X51100Y52500D03*
X54000Y54900D03*
X51200Y57600D03*
X54000Y60200D03*
X51500Y62500D03*
Y66200D03*
X58400Y48500D03*
X58200Y51800D03*
X57600Y66800D03*
X62400Y67300D03*
X60700Y86500D03*
X60600Y94100D03*
X60800Y90100D03*
X61800Y97800D03*
X57500Y450266D03*
X71300Y74500D03*
X71400Y78200D03*
X69400Y97600D03*
X65800Y97300D03*
X78100Y83000D03*
Y97400D03*
X85700Y83200D03*
X87500Y92100D03*
X85200Y96900D03*
X91200Y74900D03*
X92100Y79500D03*
X88900Y85800D03*
X92500Y92300D03*
X92200Y96700D03*
X88800Y400640D03*
X97100Y423800D03*
X94200Y793700D03*
X101000Y49100D03*
X103300Y87100D03*
X102200Y413500D03*
X97300Y416100D03*
Y419900D03*
X99800Y426300D03*
X104700D03*
X98500Y739900D03*
X113600Y49300D03*
X107300Y49600D03*
X111100Y56800D03*
X110900Y64500D03*
X105800Y70400D03*
X112800Y70300D03*
X114100Y127000D03*
X113900Y131500D03*
Y136400D03*
X108800Y442200D03*
X107500Y735900D03*
X121300Y49400D03*
X121000Y57100D03*
X116700Y57800D03*
X122600Y63700D03*
X117300Y64200D03*
X120200Y69700D03*
X121800Y123000D03*
X116200Y123200D03*
X119000Y137800D03*
X115300Y413500D03*
X121100D03*
X122400Y418600D03*
X122500Y422800D03*
X114400Y426200D03*
X120100Y426400D03*
X127600Y49700D03*
X127000Y70400D03*
X130900Y137700D03*
X123400Y137800D03*
X125500Y739900D03*
X128500D03*
X133800Y49300D03*
X132400Y70800D03*
X131900Y123300D03*
X136300D03*
X135900Y137600D03*
X144300Y53700D03*
X147154Y71066D03*
X144900Y112300D03*
X140100Y123200D03*
X140400Y127400D03*
X147150Y137000D03*
X140400Y132900D03*
X140300Y137300D03*
X145986Y144350D03*
X141800Y438760D03*
X151900Y55400D03*
X152100Y60300D03*
X152300Y65600D03*
X151600Y127700D03*
X154000Y134928D03*
X154100Y130991D03*
X150000Y740000D03*
X149600Y746000D03*
X163200Y97500D03*
X156700Y112400D03*
X162828Y130560D03*
X162628Y135660D03*
X164828Y132960D03*
X167528Y130460D03*
X167428Y135160D03*
X171000Y433200D03*
X170800Y436900D03*
X170900Y441700D03*
X169100Y761400D03*
Y788000D03*
X172700Y798600D03*
X171800Y808200D03*
X166400Y812000D03*
X166600Y817200D03*
X169000Y821200D03*
X175800Y20000D03*
Y31000D03*
Y42000D03*
Y53000D03*
Y64000D03*
Y75000D03*
Y86000D03*
X181414Y118350D03*
X181400Y112400D03*
X175300Y121500D03*
X175700Y788850D03*
X173800Y821100D03*
X188000Y128900D03*
Y132300D03*
X188400Y135400D03*
X188000Y138900D03*
X190100Y774100D03*
X183900Y808200D03*
X189800Y808500D03*
X188000Y821200D03*
X183900Y821100D03*
X193198Y133803D03*
X195850Y412249D03*
X195900Y774000D03*
X191300Y813300D03*
X191400Y818000D03*
X200300Y16000D03*
Y27000D03*
Y38000D03*
Y49000D03*
Y60000D03*
Y79000D03*
X203800Y86000D03*
X202927Y202500D03*
X205200Y198500D03*
X206494Y215294D03*
X207200Y230800D03*
X203400Y237000D03*
X203200Y232700D03*
X206000Y244000D03*
X203400Y241200D03*
X203184Y385913D03*
X201750Y398349D03*
X201650Y441649D03*
X206831Y772867D03*
X199697Y780545D03*
Y775426D03*
X206831Y777986D03*
Y788222D03*
Y795899D03*
X199697Y803576D03*
X206831Y806135D03*
X203600Y815400D03*
X210628Y194799D03*
X215746D03*
X213187D03*
X212550Y204118D03*
Y211018D03*
X215750Y207618D03*
X210628Y220437D03*
X215746D03*
X213187D03*
X210900Y230800D03*
X211200Y243900D03*
X216000Y769600D03*
X213250Y782200D03*
X220864Y194799D03*
X219350Y204118D03*
X219150Y211118D03*
X220864Y220437D03*
X220200Y231000D03*
X223600Y243800D03*
X220000D03*
X217000Y781900D03*
X219700Y776300D03*
X223900Y777800D03*
X217000Y817700D03*
X228565Y205059D03*
X232400Y203600D03*
X230000Y198100D03*
X228565Y212736D03*
X226400Y230800D03*
X229900Y224300D03*
X228300Y234200D03*
X228100Y238500D03*
X228000Y243100D03*
X226100Y381650D03*
X226900Y777900D03*
X239700Y40200D03*
X236300Y72550D03*
X245700Y40300D03*
X246800Y57600D03*
Y67600D03*
X241800Y62600D03*
Y67600D03*
X246800Y77600D03*
X241800D03*
Y82600D03*
X246800D03*
X241800Y87600D03*
X253350Y31300D03*
X251600Y40300D03*
X251800Y52600D03*
Y57600D03*
X256800D03*
X251800Y62600D03*
Y67600D03*
X256800Y62600D03*
Y67600D03*
Y77600D03*
Y82600D03*
Y87600D03*
X251100Y386400D03*
X255500Y386350D03*
X261800Y40300D03*
Y52600D03*
X266800Y57600D03*
X261800D03*
X266800Y62600D03*
X261800D03*
Y67600D03*
X266800D03*
X261800Y77600D03*
X266800Y82600D03*
X263700Y194750D03*
X261831Y202100D03*
Y212336D03*
X266100Y229300D03*
X262900Y239200D03*
X262800Y233600D03*
X265800Y242200D03*
X267700Y40300D03*
X271800Y52600D03*
Y67600D03*
Y77600D03*
X274650Y194399D03*
X269532D03*
X272091D03*
X271450Y203618D03*
Y210518D03*
X274650Y207118D03*
X269532Y220037D03*
X274650D03*
X272091D03*
X270700Y229300D03*
X269900Y242300D03*
X283250Y30900D03*
X281700Y40300D03*
X275800D03*
X281800Y52600D03*
Y57600D03*
X276800D03*
X281800Y67600D03*
Y62600D03*
X276800D03*
X281800Y77600D03*
X276800Y82600D03*
X281800D03*
X276800Y87600D03*
X279768Y194399D03*
X278250Y203618D03*
X278050Y210618D03*
X279768Y220037D03*
X279500Y229200D03*
X283900Y242200D03*
X279800Y242100D03*
X277349Y486350D03*
X290598Y40329D03*
X286800Y57600D03*
X291800D03*
X286800Y62600D03*
Y67600D03*
X291800Y62600D03*
Y67600D03*
Y77600D03*
Y82600D03*
Y87600D03*
X287469Y202100D03*
X288800Y198000D03*
X287469Y204659D03*
Y212336D03*
X288800Y223900D03*
X285900Y229200D03*
X287900Y232700D03*
X287700Y237100D03*
X287900Y241600D03*
X296500Y40300D03*
X296800Y52600D03*
Y57600D03*
Y62600D03*
Y67600D03*
Y77600D03*
X294550Y206400D03*
X302500Y40300D03*
X305900Y54450D03*
X303100Y72550D03*
X315000Y57500D03*
X316299Y211149D03*
Y207149D03*
X310805Y229300D03*
X313550Y231600D03*
X324700Y59000D03*
X320200Y57500D03*
X324300Y63900D03*
X325799Y211149D03*
Y207149D03*
X322750Y216610D03*
X321999Y238349D03*
X334400Y57500D03*
X329000Y59200D03*
X329500Y64000D03*
X334651Y201999D03*
X330651D03*
X331350Y219718D03*
X332550Y227218D03*
X339400Y57500D03*
X335650Y218918D03*
X339150Y227318D03*
X340350Y223518D03*
X351550Y192700D03*
X357800Y222500D03*
X354551Y216051D03*
X355000Y227000D03*
X357201Y230351D03*
X375600Y254000D03*
X374900Y260100D03*
X374700Y266500D03*
X384400Y133200D03*
X384500Y138600D03*
X377500Y249900D03*
X381500Y253300D03*
X383200Y249300D03*
X383500Y268200D03*
X378800Y268300D03*
X392600Y128400D03*
X386100Y128100D03*
X386900Y142700D03*
X392900Y142900D03*
X387200Y157400D03*
X390900Y299100D03*
X390700Y306900D03*
X390300Y312000D03*
X392200Y317200D03*
X399200Y97700D03*
X397500Y102500D03*
Y107300D03*
X400500Y111300D03*
X400100Y116000D03*
X399400Y157400D03*
X399700Y203300D03*
X399600Y208800D03*
X399800Y214500D03*
X397880Y230900D03*
X398700Y253800D03*
X401100Y261700D03*
X401000Y265300D03*
X400300Y268900D03*
X395200Y268100D03*
X397400Y299000D03*
X398400Y317100D03*
X405500Y97600D03*
X403700Y111300D03*
X408300Y201300D03*
X403600Y200700D03*
X409000Y215600D03*
X411100Y226100D03*
X408200Y230200D03*
Y235000D03*
X409600Y239300D03*
X408000Y316000D03*
X404200Y595300D03*
Y604300D03*
Y613300D03*
Y622300D03*
Y631300D03*
Y640300D03*
Y649300D03*
Y658300D03*
X416700Y97300D03*
X413300Y110700D03*
X418400Y216000D03*
X417300Y225900D03*
X416800Y304200D03*
X416900Y315300D03*
X414700Y338200D03*
X418200Y647700D03*
Y652600D03*
X418300Y662200D03*
Y666700D03*
X423300Y99800D03*
X423100Y106000D03*
X422200Y110900D03*
X426600Y202900D03*
X421600Y202300D03*
X424700Y215900D03*
X425700Y225000D03*
X425900Y239800D03*
X421930Y293900D03*
X421140Y323900D03*
X427600Y516700D03*
X427400Y525800D03*
X422700Y645000D03*
X426700Y670900D03*
X420100Y670700D03*
X432600Y115580D03*
X434980Y196500D03*
X429400Y215200D03*
X430500Y224700D03*
X434500Y226300D03*
X434100Y230600D03*
X434400Y236100D03*
X431600Y239700D03*
X431000Y315930D03*
X433300Y323900D03*
X433400Y516400D03*
X429400Y529200D03*
X435000D03*
X428400Y645100D03*
X430800Y648900D03*
X430900Y653000D03*
X431200Y663900D03*
X430900Y669700D03*
X441900Y121403D03*
X440700Y217830D03*
X437384Y396300D03*
Y401300D03*
X441100Y643780D03*
Y651457D03*
X447100Y167800D03*
X450200Y173500D03*
X449500Y215900D03*
X447500Y254900D03*
X448900Y259600D03*
X447500Y272100D03*
X448500Y276300D03*
X451600Y325100D03*
X451000Y329500D03*
X450900Y334100D03*
X453600Y338200D03*
X447384Y358800D03*
Y363800D03*
Y386300D03*
Y398800D03*
X451400Y415600D03*
X446600Y419300D03*
X446300Y424000D03*
X447700Y428000D03*
X453400Y428100D03*
X453300Y452200D03*
X453400Y456900D03*
X446300Y515900D03*
X453100Y529200D03*
X445300Y529100D03*
X451300Y547200D03*
X450800Y555000D03*
X451200Y566700D03*
X452700Y572200D03*
X449700Y633543D03*
Y641220D03*
X461500Y151600D03*
X461200Y163800D03*
Y168500D03*
X461400Y173900D03*
X457800Y174300D03*
X459100Y202100D03*
X456300Y205400D03*
X460900Y215700D03*
X456000Y214700D03*
X461800Y254300D03*
X462100Y265400D03*
X462000Y272600D03*
X461700Y278700D03*
X457500Y325000D03*
X458900Y338400D03*
X459700Y357480D03*
X459600Y386330D03*
X459700Y398780D03*
X456200Y448300D03*
X462000D03*
X461900Y460000D03*
X454800Y460100D03*
X454200Y516900D03*
X454500Y525800D03*
X462000Y526600D03*
X460600Y546800D03*
X456800D03*
X458000Y572500D03*
X469000Y124403D03*
X465200Y202100D03*
Y215700D03*
X462300Y261200D03*
X466100Y302200D03*
X466300Y316300D03*
X470300Y325000D03*
X469200Y338400D03*
X464300Y366270D03*
Y376270D03*
Y386270D03*
X469600Y415500D03*
X464000Y415400D03*
X463900Y428100D03*
X470300Y437600D03*
X464400Y452500D03*
X464200Y456700D03*
X470600Y462500D03*
X470400Y467600D03*
X470500Y472300D03*
X465500Y477399D03*
Y487636D03*
Y495313D03*
X462200Y496700D03*
X465500Y507285D03*
Y517522D03*
Y525199D03*
Y537171D03*
X465250Y547408D03*
X465000Y555085D03*
X468500Y557300D03*
X464000Y568800D03*
Y564500D03*
X462500Y572800D03*
X468060Y794639D03*
X474800Y201900D03*
X474000Y216200D03*
X473100Y302100D03*
X474800Y306100D03*
X474600Y311100D03*
X473200Y315900D03*
X476700Y326600D03*
X476400Y331700D03*
X476600Y337900D03*
X476384Y366300D03*
Y358800D03*
Y376300D03*
Y386300D03*
X474100Y417700D03*
X473900Y425100D03*
X471500Y421700D03*
Y427500D03*
X476200Y461700D03*
X476600Y474500D03*
X474100Y485076D03*
Y514962D03*
Y544848D03*
X473200Y567600D03*
Y575600D03*
Y583600D03*
Y591600D03*
Y599600D03*
Y607600D03*
Y615600D03*
Y623600D03*
X471800Y801773D03*
X484100Y121403D03*
X480800Y202000D03*
X482100Y206300D03*
X482200Y211300D03*
X480500Y216300D03*
X486384Y356300D03*
Y351300D03*
Y373800D03*
Y383800D03*
Y388800D03*
Y393800D03*
Y401300D03*
X480300Y415400D03*
X480200Y428000D03*
X480900Y792740D03*
X486500Y802840D03*
X486600Y808751D03*
X486500Y814700D03*
X490100Y145000D03*
X491200Y158800D03*
Y163900D03*
Y170200D03*
X489300Y178100D03*
X488400Y248000D03*
X491000Y251100D03*
X490400Y262200D03*
X491100Y271000D03*
X490400Y281100D03*
X490800Y276500D03*
X489000Y301597D03*
X495500Y353030D03*
X489620Y410400D03*
X493000Y415200D03*
X492500Y427900D03*
X495700Y461800D03*
X489000Y461500D03*
X492300Y795900D03*
Y801800D03*
X492200Y807651D03*
X504100Y298597D03*
X498500Y393800D03*
X499000Y415300D03*
X500400Y423300D03*
X498000Y428000D03*
X499000Y437560D03*
X496100Y467000D03*
X496200Y472000D03*
X498200Y567600D03*
Y575600D03*
Y583600D03*
Y591600D03*
X498600Y599600D03*
X498200Y607600D03*
Y615600D03*
Y623600D03*
X497800Y789900D03*
X509200Y655500D03*
Y691500D03*
X506851Y793633D03*
X510591Y811267D03*
X520800Y434900D03*
X519100Y439100D03*
Y444200D03*
X519200Y453600D03*
Y457900D03*
X515200Y655500D03*
Y691500D03*
X520517Y763965D03*
X516735Y773016D03*
X528200Y298597D03*
X529000Y388000D03*
X527500Y434700D03*
X524300Y460900D03*
X528584Y779116D03*
X522684D03*
X529300Y815800D03*
X532000Y438100D03*
X532100Y443600D03*
X532500Y457000D03*
Y452200D03*
X530800Y460600D03*
X538151Y760225D03*
X534535Y779216D03*
X544800Y101300D03*
Y109300D03*
Y117300D03*
X545000Y577500D03*
X543281Y679348D03*
X543784Y741516D03*
X550000Y406100D03*
X552703Y460084D03*
X553600Y584770D03*
X561650Y418000D03*
X559850Y558011D03*
X555533Y649820D03*
Y661632D03*
Y667537D03*
Y673442D03*
X571200Y437400D03*
X564800Y449670D03*
X574900Y395882D03*
G54D11*
X17487Y17487D03*
X17484Y308358D03*
X17487Y559358D03*
Y850229D03*
X578113Y17487D03*
Y347100D03*
Y606700D03*
Y850229D03*
G54D20*
X254300Y828100D03*
Y848100D03*
X264300Y838100D03*
X274300Y828100D03*
Y848100D03*
X304300Y828100D03*
Y848100D03*
X314300Y838100D03*
X324300Y828100D03*
Y848100D03*
X354300Y828100D03*
Y848100D03*
X364300Y838100D03*
X374300Y828100D03*
Y848100D03*
X404300Y828100D03*
Y848100D03*
X414300Y838100D03*
X424300Y828100D03*
Y848100D03*
X454300Y828100D03*
Y848100D03*
X459400Y133784D03*
Y237784D03*
X464300Y838100D03*
X474300Y828100D03*
Y848100D03*
X504300Y828100D03*
Y848100D03*
X514300Y838100D03*
X524300Y828100D03*
Y848100D03*
X556084Y746516D03*
Y766516D03*
X566084Y756516D03*
X576084Y746516D03*
Y766516D03*
G54D30*
G01X212367Y437794D02*
X213850Y436311D01*
Y428754D01*
X209780Y424684D01*
X196381D01*
X163258Y391561D01*
G02X162126Y391562I-566J566D01*
G01X162111Y391577D01*
G03X160979Y390445I-566J-566D01*
G01X160995Y390429D01*
G02Y389298I-566J-565D01*
G01X140981Y369284D01*
X21516D01*
X20700Y370100D01*
G01Y367625D02*
X21509Y368434D01*
X141334D01*
X196734Y423834D01*
X210133D01*
X214700Y428401D01*
Y436192D01*
X216303Y437795D01*
G01X212367Y418109D02*
X213950Y416526D01*
Y413430D01*
X201419Y400899D01*
X200692D01*
X200643Y400850D01*
X190446D01*
X170958Y381362D01*
G02X170062I-448J449D01*
G01X170060Y381364D01*
G03X169164I-448J-449D01*
G01X168928Y381128D01*
G03Y380232I449J-448D01*
G01X168930Y380230D01*
G02Y379334I-449J-448D01*
G01X128878Y339282D01*
X35950D01*
X35137Y340095D01*
G01X216303Y418110D02*
X214800Y416607D01*
Y413077D01*
X201772Y400049D01*
X201045D01*
X200996Y400000D01*
X190799D01*
X129231Y338432D01*
X35949D01*
X35137Y337620D01*
G01X324638Y243062D02*
X323800Y243900D01*
X308597D01*
X217847Y334650D01*
Y420504D01*
X216304Y422047D01*
G01X220240Y422046D02*
X218697Y420503D01*
Y335003D01*
X294917Y258783D01*
G03X296015I549J550D01*
G01X296017Y258785D01*
G02X297115I549J-550D01*
G01X297149Y258751D01*
G02Y257653I-550J-549D01*
G01X297147Y257651D01*
G03Y256553I550J-549D01*
G01X308950Y244750D01*
X323851D01*
X324638Y245537D01*
G01X334325Y252400D02*
X335138Y253213D01*
Y256463D01*
X320438Y271163D01*
G03X319638I-400J-400D01*
G02X318838Y271164I-399J401D01*
G01X318506Y271496D01*
G02Y272295I399J399D01*
G03Y273095I-399J400D01*
G01X233352Y358249D01*
Y412145D01*
X229781Y415716D01*
X225721D01*
X224178Y414173D01*
G01X224177Y418109D02*
X225720Y416566D01*
X230134D01*
X234202Y412498D01*
Y358602D01*
X335988Y256816D01*
Y253212D01*
X336800Y252400D01*
G01X418823Y152823D02*
Y154077D01*
X369250Y203650D01*
Y237850D01*
X241469Y365631D01*
Y416566D01*
X239926Y418109D01*
G01X243862Y418110D02*
X242319Y416567D01*
Y365984D01*
X331294Y277009D01*
G03X332042I374J374D01*
G01X332043Y277010D01*
G02X332791I374J-374D01*
G01X333175Y276626D01*
G02Y275878I-374J-374D01*
G01X333174Y275877D01*
G03Y275129I374J-374D01*
G01X370100Y238203D01*
Y204003D01*
X419277Y154826D01*
X419278D01*
X419530Y154574D01*
X420574D01*
G01X305150Y345750D02*
X303999D01*
X269878Y379871D01*
Y408693D01*
X271421Y410236D01*
G01X303399Y343999D02*
Y345147D01*
X269028Y379518D01*
Y408692D01*
X267485Y410235D01*
G01X429287Y254397D02*
X428475Y255209D01*
X400792D01*
X276850Y379151D01*
Y392996D01*
X275359Y394487D01*
G01X279295Y394488D02*
X277700Y392893D01*
Y379504D01*
X359983Y297221D01*
G03X360981I499J498D01*
G02X361979I499J-498D01*
G01X362113Y297087D01*
G02Y296089I-498J-499D01*
G03Y295091I498J-499D01*
G01X401145Y256059D01*
X428474D01*
X429287Y256872D01*
G01X555113Y538588D02*
X554292Y537767D01*
X523733D01*
X507271Y554229D01*
X486000D01*
X485187Y555042D01*
G01X555113Y536113D02*
Y536287D01*
X554483Y536917D01*
X523380D01*
X506918Y553379D01*
X485999D01*
X485187Y552567D01*
G01X499017Y490153D02*
X499830Y489340D01*
X504137D01*
X517247Y502450D01*
X556653D01*
X564403Y494700D01*
X573001D01*
X573813Y495512D01*
G01X499017Y487678D02*
X499829Y488490D01*
X504490D01*
X517600Y501600D01*
X556300D01*
X564050Y493850D01*
X573000D01*
X573813Y493037D01*
G01X574599Y544963D02*
X573787Y545775D01*
X570075D01*
X542675Y518375D01*
X499829D01*
X499017Y517563D01*
G01Y520038D02*
X499830Y519225D01*
X542322D01*
X569722Y546625D01*
X573786D01*
X574599Y547438D01*
G01X557387Y494020D02*
X556607Y494800D01*
X547703D01*
X531178Y478275D01*
X510002D01*
X509190Y477463D01*
G01X557387Y496495D02*
X556542Y495650D01*
X547350D01*
X530825Y479125D01*
X510003D01*
X509190Y479938D01*
G54D12*
X17500Y58800D03*
X15400Y84600D03*
Y89600D03*
Y94600D03*
X21125Y90358D03*
X15400Y99600D03*
Y104600D03*
X21125Y100358D03*
X15400Y109600D03*
X21125Y110358D03*
X15400Y114600D03*
Y119600D03*
X21125Y120358D03*
X15400Y124600D03*
Y129600D03*
X21125Y130358D03*
X15400Y134600D03*
Y139600D03*
Y144600D03*
X21125Y140358D03*
X15400Y149600D03*
Y154600D03*
X21125Y150358D03*
X15400Y159600D03*
X21125Y160358D03*
X15400Y164600D03*
Y169600D03*
X21125Y170358D03*
X15400Y174600D03*
Y179600D03*
X21125Y180358D03*
X15400Y184600D03*
Y189600D03*
Y194600D03*
X21125Y190358D03*
X15400Y199600D03*
Y204600D03*
X21125Y200358D03*
X15400Y209600D03*
Y214600D03*
X21125Y210358D03*
X15400Y219600D03*
X21125Y220358D03*
X15400Y224600D03*
Y229600D03*
X21125Y230358D03*
Y240358D03*
X15400Y244600D03*
Y249600D03*
Y254600D03*
X21125Y250358D03*
X15400Y259600D03*
Y264600D03*
X21125Y260358D03*
X15400Y269600D03*
Y274600D03*
X21125Y270358D03*
X15400Y279600D03*
X21125Y280358D03*
X14400Y336100D03*
Y341100D03*
Y346100D03*
Y351100D03*
Y356100D03*
X21125Y356358D03*
X14400Y361100D03*
Y366100D03*
X21125Y361358D03*
X14400Y371100D03*
Y376100D03*
X21125Y376358D03*
X14400Y381100D03*
X21125Y381358D03*
X14400Y386100D03*
Y391100D03*
X21125Y391358D03*
X14400Y396100D03*
Y401100D03*
X21125Y401358D03*
X14400Y406100D03*
Y411100D03*
Y416100D03*
X21125Y411358D03*
X14400Y421100D03*
Y426100D03*
X21125Y421358D03*
X14400Y431100D03*
X21125Y431358D03*
X14400Y436100D03*
Y441100D03*
X21125Y441358D03*
X14400Y446100D03*
Y451100D03*
Y456100D03*
Y461100D03*
X21125Y456358D03*
X14400Y466100D03*
Y471100D03*
Y476100D03*
X21125Y471358D03*
X14400Y481100D03*
X21125Y481358D03*
X14400Y491100D03*
X21125Y491358D03*
X14400Y496100D03*
Y501100D03*
X21125Y501358D03*
X14400Y506100D03*
Y511100D03*
X21125Y511358D03*
X14400Y516100D03*
X21125Y516358D03*
X14400Y521100D03*
Y526100D03*
X21125Y521358D03*
Y526358D03*
X14400Y531100D03*
X21125Y531358D03*
X14000Y587200D03*
Y592200D03*
Y597200D03*
X21125Y592358D03*
X14000Y602200D03*
X21125Y602358D03*
X14000Y607200D03*
Y612200D03*
X21125Y612358D03*
X14000Y617200D03*
Y622200D03*
X21125Y622358D03*
X14000Y627200D03*
Y632200D03*
Y637200D03*
X21125Y632358D03*
X14000Y642200D03*
Y647200D03*
X21125Y642358D03*
X14000Y652200D03*
X21125Y652358D03*
X14000Y657200D03*
Y662200D03*
X21125Y662358D03*
X14000Y667200D03*
Y672200D03*
X21125Y672358D03*
X14000Y677200D03*
Y682200D03*
Y687200D03*
X21125Y682358D03*
X14000Y692200D03*
Y697200D03*
X21125Y692358D03*
X14000Y702200D03*
Y707200D03*
X21125Y702358D03*
X14000Y712200D03*
X21125Y712358D03*
X14000Y717200D03*
Y722200D03*
X21125Y722358D03*
X14000Y727200D03*
Y732200D03*
X21125Y732358D03*
X14000Y737200D03*
Y742200D03*
Y747200D03*
X21125Y742358D03*
X14000Y752200D03*
Y757200D03*
X21125Y752358D03*
X14000Y762200D03*
X21125Y762358D03*
X14000Y767200D03*
Y772200D03*
X21125Y772358D03*
X14000Y777200D03*
Y782200D03*
X21125Y782358D03*
X36800Y44200D03*
X33075Y85358D03*
Y95358D03*
Y105358D03*
Y115358D03*
Y125358D03*
Y135358D03*
Y145358D03*
Y155358D03*
Y165358D03*
Y175358D03*
Y185358D03*
Y195358D03*
Y205358D03*
Y215358D03*
Y225358D03*
Y235358D03*
Y245358D03*
Y255358D03*
Y265358D03*
Y275358D03*
Y386358D03*
Y396358D03*
Y406358D03*
Y416358D03*
Y426358D03*
Y436358D03*
Y446358D03*
Y451358D03*
Y466358D03*
Y471358D03*
Y476358D03*
Y486358D03*
Y496358D03*
Y506358D03*
Y516358D03*
Y526358D03*
Y521358D03*
Y531358D03*
Y587358D03*
Y597358D03*
Y607358D03*
Y617358D03*
Y627358D03*
Y637358D03*
Y647358D03*
Y657358D03*
Y667358D03*
Y677358D03*
Y687358D03*
Y697358D03*
Y707358D03*
Y717358D03*
Y727358D03*
Y737358D03*
Y747358D03*
Y757358D03*
Y767358D03*
Y777358D03*
X41200Y9400D03*
X40700Y315400D03*
X46300Y329700D03*
X43800Y343900D03*
X43000Y353600D03*
X39800Y363300D03*
X39900Y373300D03*
X43500Y436500D03*
X45400Y506300D03*
X44400Y527400D03*
X43400Y547700D03*
X52300Y75300D03*
X49100Y88700D03*
X52000Y305100D03*
X60700Y319000D03*
X60000Y436200D03*
X59000Y495500D03*
X64200Y505600D03*
X58300Y518400D03*
X60400Y533700D03*
X63700Y852700D03*
X68800Y7900D03*
X72900Y329500D03*
X72200Y485200D03*
X71300Y704700D03*
X78100Y415800D03*
X81000Y517900D03*
X81600Y118800D03*
X87200Y269800D03*
X86400Y344300D03*
X85100Y352600D03*
X82500Y363500D03*
X81800Y373500D03*
X88100Y423500D03*
X85400Y471000D03*
X86800Y495400D03*
X84600Y592700D03*
X88700Y686900D03*
X85200Y833800D03*
X96800Y8400D03*
X95500Y132100D03*
X96400Y520800D03*
X102800Y404336D03*
X101300Y485700D03*
X101900Y575500D03*
X110300Y470900D03*
X111000Y506300D03*
X110800Y664100D03*
X111800Y856900D03*
X120500Y7100D03*
X117000Y84000D03*
X117800Y302300D03*
X120400Y383300D03*
X121800Y496000D03*
X115900Y561100D03*
X118600Y766800D03*
X124900Y158500D03*
X124100Y432700D03*
X127800Y442136D03*
X130400Y546900D03*
X126800Y728600D03*
X130300Y825900D03*
X140600Y95200D03*
X137000Y319100D03*
X133800Y640400D03*
X132900Y803700D03*
X145700Y180200D03*
X146600Y529100D03*
X156000Y9100D03*
X153000Y37600D03*
X156594Y774240D03*
X149900Y856900D03*
X159000Y79100D03*
X159700Y197500D03*
X158300Y342300D03*
X160200Y422800D03*
X159600Y616100D03*
X163100Y677400D03*
X166800Y511500D03*
X172100Y738300D03*
X182200Y592000D03*
X177900Y663000D03*
X178900Y677800D03*
X188700Y203500D03*
X187800Y222500D03*
X185900Y423100D03*
X189800Y848100D03*
X199300Y480800D03*
X195800Y645600D03*
X193400Y662100D03*
X201700Y183900D03*
X210900Y646600D03*
X209700Y752100D03*
X224600Y549000D03*
X225300Y631300D03*
X225100Y738800D03*
X224400Y851600D03*
X228500Y269100D03*
X231200Y756300D03*
X230500Y829100D03*
X239500Y280400D03*
X237100Y680500D03*
X244200Y252400D03*
X258100Y177700D03*
X255900Y198600D03*
X251800Y240000D03*
X252100Y267000D03*
X253800Y322400D03*
X269900Y304300D03*
X270400Y366400D03*
X281900Y176600D03*
X281100Y801600D03*
X286400Y288200D03*
X289500Y345200D03*
X292700Y372900D03*
X289500Y662600D03*
Y722600D03*
Y752600D03*
Y782600D03*
X298128Y333664D03*
X294100Y487400D03*
X308200Y177400D03*
X303400Y194800D03*
X306600Y270900D03*
X308500Y358800D03*
X308200Y615000D03*
X314900Y385800D03*
X318700Y635800D03*
X326200Y11100D03*
X322900Y197200D03*
X319500Y692600D03*
Y782600D03*
X332000Y109800D03*
X333500Y128100D03*
X334800Y175600D03*
X329546Y303513D03*
X335780Y327572D03*
X332653Y334666D03*
X335800Y802500D03*
X337000Y294400D03*
X337300Y537700D03*
X342700Y701400D03*
X337300Y758400D03*
X345600Y34200D03*
X350800Y238100D03*
X349700Y315900D03*
X349500Y662600D03*
Y782600D03*
X360300Y12700D03*
X354200Y116400D03*
X360600Y210700D03*
X361300Y285000D03*
X362600Y87700D03*
X366900Y570900D03*
X363700Y737800D03*
X372800Y101700D03*
X378400Y120600D03*
X373000Y147400D03*
X371300Y171400D03*
X376300Y212100D03*
X373600Y354600D03*
X377100Y463600D03*
X384800Y22800D03*
X382500Y49800D03*
X379300Y287100D03*
X387000Y370000D03*
X380200Y573700D03*
X379500Y692600D03*
Y722600D03*
Y752600D03*
Y782600D03*
X379400Y800900D03*
X391500Y473500D03*
X387600Y674900D03*
X400800Y354400D03*
X403500Y449300D03*
X399200Y467100D03*
X398800Y500700D03*
X407600Y156500D03*
X407000Y189000D03*
X409500Y662600D03*
Y692600D03*
Y782600D03*
X414900Y9400D03*
Y39400D03*
Y69400D03*
X412600Y150200D03*
X413000Y281400D03*
X418200Y532600D03*
X416500Y546400D03*
X427100Y81400D03*
X426200Y165600D03*
X423300Y180000D03*
X422400Y448600D03*
X423500Y472800D03*
X428200Y566900D03*
X424200Y737100D03*
X424700Y796700D03*
X432800Y156384D03*
X432500Y166400D03*
X432800Y175284D03*
Y260384D03*
X432200Y271000D03*
X436800Y336800D03*
X432800Y383600D03*
X431600Y399700D03*
X437700Y427600D03*
X435100Y468900D03*
X444900Y9400D03*
Y39400D03*
Y69400D03*
X441300Y328300D03*
X440200Y452600D03*
X439200Y546300D03*
X440700Y578400D03*
X446600Y146884D03*
X447450Y158050D03*
X447200Y164200D03*
X446600Y250884D03*
X447100Y262200D03*
X447300Y268100D03*
X446600Y279284D03*
X452200Y379800D03*
X452800Y476000D03*
X447700Y500400D03*
X451800Y534300D03*
X450600Y761400D03*
X458900Y372800D03*
X464316Y176784D03*
X465100Y252484D03*
Y280784D03*
X469600Y397400D03*
X463700Y725500D03*
X474900Y9400D03*
Y39400D03*
Y69400D03*
X472000Y145584D03*
X484600Y687200D03*
X483300Y742800D03*
X492100Y447100D03*
X504900Y9400D03*
Y39400D03*
Y69400D03*
X506600Y337700D03*
X511100Y372100D03*
X508500Y444600D03*
X507900Y454300D03*
X507600Y469000D03*
X521000Y165600D03*
X520600Y721500D03*
X525100Y150500D03*
X530700Y177000D03*
X525100Y252700D03*
Y270000D03*
X525700Y616700D03*
X529400Y688700D03*
X534900Y9400D03*
Y39400D03*
Y69400D03*
X531700Y278600D03*
X536900Y592600D03*
X547500Y254300D03*
X545600Y314000D03*
X547900Y435500D03*
X542000Y459500D03*
X540000Y468400D03*
X550900Y145400D03*
X554400Y175900D03*
X551000Y279500D03*
X552100Y334100D03*
X553500Y415400D03*
X552500Y608100D03*
X556000Y793800D03*
X550700Y828100D03*
X560600Y68300D03*
X557900Y159600D03*
X563000Y257800D03*
X562400Y383300D03*
X577200Y43100D03*
X581600Y329400D03*
X573800Y649500D03*
X574200Y678900D03*
X582200Y822600D03*
X587500Y83900D03*
X584200Y311200D03*
X587800Y434200D03*
X587700Y460000D03*
X583200Y723000D03*
X586400Y784700D03*
G54D21*
X439700Y189884D03*
Y293884D03*
X479100Y189884D03*
Y293884D03*
X498800Y133784D03*
Y156184D03*
Y177384D03*
Y237784D03*
Y260184D03*
Y281384D03*
X516500Y189884D03*
Y293884D03*
X536200Y133784D03*
Y237784D03*
X555900Y189884D03*
Y293884D03*
X575500Y133784D03*
Y237784D03*
X575900Y167584D03*
Y271584D03*
G54D31*
G01X595600Y408600D02*
X589550D01*
G02X587800Y410350I0J1750D01*
G02X589550Y412100I1750J0D01*
G01X595600D01*
Y865966D01*
G03X593850Y867716I-1750J0D01*
G01X1750D01*
G03X0Y865966I0J-1750D01*
G01Y1750D01*
G03X1750Y0I1750J0D01*
G01X593850D01*
G03X595600Y1750I0J1750D01*
G01Y389900D01*
X589550D01*
G02X587800Y391650I0J1750D01*
G02X589550Y393400I1750J0D01*
G01X595600D01*
G01Y408600D02*
Y393400D01*
G54D13*
X16726Y76658D03*
Y289058D03*
Y327658D03*
Y540058D03*
Y578658D03*
Y791058D03*
G54D22*
X508680Y394000D03*
Y404000D03*
Y414000D03*
Y424000D03*
X538680Y394000D03*
Y404000D03*
Y414000D03*
Y424000D03*
G54D32*
G01X224178Y437795D02*
X222373Y439600D01*
X161601D01*
X111401Y389400D01*
X24967D01*
X21925Y386358D01*
G01X216304Y441732D02*
X214436Y443600D01*
X156501D01*
X123001Y410100D01*
X25667D01*
X21925Y406358D01*
G01Y426358D02*
X24767Y429200D01*
X107500D01*
X125800Y447500D01*
X218410D01*
X220241Y445669D01*
G01Y453543D02*
X218184Y455600D01*
X209000D01*
X207200Y453800D01*
X29367D01*
X21925Y446358D01*
G01X220241Y457480D02*
X218521Y459200D01*
X29083D01*
X21925Y466358D01*
G01Y496358D02*
X28642D01*
X61500Y463500D01*
X222100D01*
X224178Y461422D01*
Y461417D01*
G01X220241Y465354D02*
X218295Y467300D01*
X167899D01*
X27841Y607358D01*
X21925D01*
G01X228115Y457479D02*
Y462485D01*
X43800Y646800D01*
X39000D01*
X28442Y657358D01*
X21925D01*
G01X232052Y461416D02*
X229900Y463568D01*
Y475599D01*
X28141Y677358D01*
X21925D01*
G01Y687358D02*
X28841D01*
X234000Y482199D01*
Y463500D01*
X235989Y461511D01*
Y461416D01*
G01X21925Y697358D02*
X28158D01*
X116463Y785663D01*
X200097D01*
G01X102800Y441500D02*
X111400Y450100D01*
X208000D01*
X209500Y451600D01*
X218246D01*
X220240Y449606D01*
G01X212400Y430000D02*
X210400Y428000D01*
X157264D01*
X132800Y403536D01*
G01X228165Y202500D02*
Y185064D01*
X183500Y140399D01*
Y125299D01*
X176501Y118300D01*
X145300D01*
G01X180651Y690200D02*
X239800Y631051D01*
Y472100D01*
X238000Y470300D01*
Y451531D01*
X239926Y449605D01*
G01X187400Y20000D02*
X242000Y74600D01*
X248800D01*
X251800Y77600D01*
G01X187400Y31000D02*
X236700Y80300D01*
X264100D01*
X266800Y77600D01*
G01X286800D02*
X284300Y80100D01*
X273800D01*
X268900Y85000D01*
X230400D01*
X187400Y42000D01*
G01Y53000D02*
X224800Y90400D01*
X279000D01*
X286800Y82600D01*
G01X187400Y75000D02*
X206500Y94100D01*
Y145500D01*
X252491Y191491D01*
X277209D01*
G01X190651Y690200D02*
X242000Y638851D01*
Y459553D01*
X239926Y457479D01*
G01X200651Y690200D02*
X245900Y644951D01*
Y463453D01*
X243863Y461416D01*
G01X239926Y453542D02*
X241884Y455500D01*
X248500D01*
X249800Y456800D01*
Y651051D01*
X210651Y690200D01*
G01X264340Y812900D02*
X253300Y801860D01*
Y467900D01*
X255673Y465527D01*
Y465353D01*
G01X259610D02*
Y465390D01*
X257500Y467500D01*
Y471399D01*
X261100Y474999D01*
Y709760D01*
X364240Y812900D01*
G01X314340D02*
X255674Y754234D01*
Y469290D01*
G01X414340Y812900D02*
X264900Y663460D01*
Y474600D01*
X259611Y469311D01*
Y469290D01*
G01X376400Y658300D02*
X269400Y551300D01*
Y467200D01*
X267553Y465353D01*
X267484D01*
G01X376400Y640300D02*
X273300Y537200D01*
Y467300D01*
X271421Y465421D01*
Y465353D01*
G01X462039Y798206D02*
X267484Y603651D01*
Y469290D01*
G01X376400Y649300D02*
X271421Y544321D01*
Y469290D01*
G01X478100Y258784D02*
X476500Y257184D01*
X432115D01*
X428399Y260900D01*
X413500D01*
X281300Y393100D01*
Y408300D01*
X279364Y410236D01*
X279295D01*
G01X275358Y418110D02*
X277468Y416000D01*
X350300D01*
X417500Y348800D01*
X476784D01*
G01X485984Y363800D02*
X481084Y368700D01*
X406800D01*
X357500Y418000D01*
X287200D01*
X285200Y420000D01*
X277405D01*
X275358Y422047D01*
G01X476784Y406300D02*
X377600D01*
X356400Y427500D01*
X281716D01*
X275358Y433858D01*
G01X476784Y408800D02*
X382900D01*
X355800Y435900D01*
X281190D01*
X279295Y437795D01*
G01X514331Y794033D02*
X435300Y715002D01*
Y618191D01*
X284209Y467100D01*
X281000D01*
X279295Y465395D01*
Y465353D01*
G01X376400Y631300D02*
X280600Y535500D01*
Y474099D01*
X277400Y470899D01*
Y467400D01*
X275358Y465358D01*
Y465353D01*
G01X279295Y469290D02*
X283500Y473495D01*
Y529400D01*
X376400Y622300D01*
G01X478100Y261884D02*
X468416D01*
X442000Y288300D01*
X391899D01*
X285400Y394799D01*
Y404131D01*
X283232Y406299D01*
G01Y410236D02*
X288300Y405168D01*
Y398700D01*
X384900Y302100D01*
X449700D01*
X472300Y279500D01*
Y270884D01*
X478100Y265084D01*
G01X520917Y756485D02*
X461000Y696568D01*
Y639184D01*
X283232Y461416D01*
G01X451000Y115400D02*
X445700Y120700D01*
Y141284D01*
X478100Y173684D01*
G01X463000Y115400D02*
X465800Y118200D01*
Y155084D01*
X478100Y167384D01*
G01Y151684D02*
Y134200D01*
X511000Y101300D01*
X516900D01*
G01X478100Y164184D02*
X509700Y132584D01*
Y116500D01*
X516900Y109300D01*
G01X478100Y170484D02*
X482300Y166284D01*
Y163800D01*
X516900Y129200D01*
Y117300D01*
G01X522200Y307600D02*
Y287000D01*
X502800Y267600D01*
X486916D01*
X478100Y258784D01*
G01Y271384D02*
X496816Y290100D01*
X500800D01*
X510200Y299500D01*
Y307600D01*
G54D23*
X527066Y338997D03*
Y358997D03*
G54D14*
G01X256800Y57600D02*
X254300Y60100D01*
Y65100D01*
X251800Y67600D01*
G01X266800D02*
X276800Y57600D01*
G01X286800Y67600D02*
X289300Y65100D01*
Y60100D01*
X291800Y57600D01*
X21925Y85358D03*
Y95358D03*
Y105358D03*
Y115358D03*
Y125358D03*
Y135358D03*
Y145358D03*
Y155358D03*
Y165358D03*
Y175358D03*
Y185358D03*
Y195358D03*
Y205358D03*
Y215358D03*
Y225358D03*
Y235358D03*
Y245358D03*
X20588Y347612D03*
Y350087D03*
X20700Y370100D03*
Y367625D03*
X21925Y386358D03*
Y396358D03*
Y406358D03*
Y416358D03*
Y426358D03*
Y436358D03*
Y446358D03*
Y451358D03*
Y466358D03*
Y461358D03*
Y476358D03*
Y486358D03*
Y496358D03*
Y506358D03*
Y587358D03*
Y597358D03*
Y607358D03*
Y617358D03*
Y627358D03*
Y637358D03*
Y647358D03*
Y657358D03*
Y667358D03*
Y677358D03*
Y687358D03*
Y697358D03*
Y707358D03*
Y717358D03*
Y727358D03*
Y737358D03*
Y747358D03*
Y757358D03*
Y767358D03*
Y777358D03*
X35137Y340095D03*
Y337620D03*
Y357621D03*
Y360096D03*
X36365Y380096D03*
Y377621D03*
X85200Y791000D03*
X97800Y403536D03*
X102800Y441500D03*
X116600Y736300D03*
X132800Y403536D03*
Y441336D03*
X137500Y736300D03*
X145300Y118300D03*
X154586Y141250D03*
X152400Y157400D03*
X155100D03*
X157648Y127372D03*
X163159Y122400D03*
X161191Y143600D03*
X158600Y157400D03*
X161900D03*
X172400Y109700D03*
X172608Y127372D03*
X169065Y143600D03*
X165128D03*
X167096D03*
X168300Y157400D03*
X165100D03*
X171500Y157300D03*
X172800Y499800D03*
X175900Y132960D03*
X175600Y137500D03*
X180700Y359500D03*
X177700Y362100D03*
X175600Y364400D03*
X180100Y373000D03*
X177200Y370600D03*
X174800Y367600D03*
X174900Y501700D03*
X177400Y504300D03*
X179000Y506100D03*
X180651Y690200D03*
X187400Y20000D03*
Y31000D03*
Y42000D03*
Y53000D03*
Y75000D03*
X188700Y363900D03*
X186600Y361500D03*
X184600Y359900D03*
X189900Y382600D03*
X187600Y380300D03*
X185100Y377900D03*
X188300Y451500D03*
X189900Y482000D03*
X196300Y371100D03*
X194000Y369100D03*
X196400Y381700D03*
X197600Y377500D03*
X195200Y379900D03*
X192800Y382300D03*
X194400Y385300D03*
Y388000D03*
X196500Y435300D03*
X196700Y437700D03*
X196400Y441500D03*
X195982Y451949D03*
X195950Y471251D03*
X191700Y484000D03*
X195600Y488100D03*
X193600Y485800D03*
X192400Y576000D03*
X194500Y578100D03*
X196900Y580100D03*
X190651Y690200D03*
X199100Y373500D03*
X201300Y377400D03*
Y380300D03*
X204493Y390551D03*
Y412204D03*
Y422046D03*
Y437794D03*
X204361Y451574D03*
X204493Y455511D03*
Y471259D03*
X204600Y575800D03*
X201100Y579200D03*
X200651Y690200D03*
X200097Y785663D03*
X206431Y798458D03*
X199719Y790781D03*
X199660Y793340D03*
X206431Y801017D03*
X208430Y398425D03*
X212367D03*
Y406299D03*
Y402362D03*
Y414172D03*
X212366Y422046D03*
X212367Y418109D03*
X208429Y422047D03*
Y433857D03*
X212400Y430000D03*
X208429Y429920D03*
X208430Y425984D03*
X212367Y437794D03*
X208430Y441731D03*
X212367Y441732D03*
X208429Y437795D03*
X212367Y449606D03*
Y453543D03*
Y457480D03*
X212366Y461416D03*
X212367Y465353D03*
Y469290D03*
X213600Y561500D03*
X209700Y557700D03*
X215400Y564100D03*
X212800Y567900D03*
X210100Y570700D03*
X210651Y690200D03*
X216304Y398425D03*
Y394488D03*
X220241Y398425D03*
X220400Y402300D03*
X216304Y406299D03*
Y402362D03*
X220241Y406299D03*
Y414173D03*
X216304D03*
X220241Y410236D03*
X216304D03*
X220200Y418100D03*
X216303Y418110D03*
X216304Y422047D03*
X220240Y422046D03*
Y433858D03*
X220241Y425984D03*
X216303D03*
X220241Y441732D03*
X220100Y437700D03*
X216303Y437795D03*
X216304Y441732D03*
X216303Y449605D03*
X220240Y449606D03*
X220241Y445669D03*
X216304D03*
Y453543D03*
X220241D03*
Y457480D03*
X216304D03*
X220241Y461417D03*
X216304D03*
Y465354D03*
X220241D03*
X216304Y469291D03*
X218272Y477164D03*
X228165Y202500D03*
X226146Y390551D03*
X228115Y398425D03*
X232052D03*
X224178D03*
X232052Y406299D03*
X224177Y406298D03*
X228115Y402362D03*
X224178D03*
X232052D03*
X228115Y406299D03*
X224178Y410236D03*
X232052D03*
X224178Y414173D03*
X228115Y410236D03*
X228200Y418100D03*
X232000Y422100D03*
X224177Y422047D03*
X228115Y422046D03*
X232052Y418110D03*
X224177Y418109D03*
X228000Y433900D03*
X224178Y425984D03*
X232051Y433857D03*
X224178D03*
X228114Y425983D03*
X228100Y437800D03*
X231900Y437700D03*
X232051Y441731D03*
X224177D03*
X224178Y437795D03*
X232052Y445669D03*
X224178Y445668D03*
X231937Y449700D03*
X224178Y449606D03*
X232051Y457480D03*
X232052Y453542D03*
X228115Y457479D03*
Y453542D03*
X224178Y453543D03*
Y457480D03*
X232052Y461416D03*
X228115Y465354D03*
X224178Y461417D03*
X232052Y465353D03*
X228114Y469291D03*
X232052Y469290D03*
X239925Y398424D03*
X239926Y402362D03*
Y406299D03*
X235989Y402362D03*
Y406299D03*
X235988Y414173D03*
X239925D03*
X235989Y410236D03*
X239926D03*
X235989Y418109D03*
Y422047D03*
X239926D03*
Y418109D03*
X239925Y425984D03*
X235989Y433858D03*
X239926Y433857D03*
X235988Y425984D03*
Y441731D03*
X235837Y437700D03*
X239925Y437795D03*
X239926Y445668D03*
X235988D03*
X235989Y449605D03*
X239926D03*
X235989Y457479D03*
X239926D03*
Y453542D03*
X235988Y453543D03*
X239926Y465353D03*
Y461416D03*
X235989D03*
Y465353D03*
Y469290D03*
X239926D03*
X237957Y477164D03*
X237949Y485618D03*
X248500Y368900D03*
X248600Y372800D03*
X247799Y390551D03*
Y394488D03*
Y398425D03*
X243862D03*
X247799Y406299D03*
Y402362D03*
Y410236D03*
Y414173D03*
Y418110D03*
X243863Y422047D03*
X243862Y418110D03*
X243863Y425984D03*
Y433858D03*
X247799Y433857D03*
X247800Y429921D03*
Y425984D03*
X247799Y441731D03*
X243863Y445668D03*
X247900Y445700D03*
X243863Y449605D03*
X247800Y449606D03*
X243863Y453542D03*
X247799Y453543D03*
Y457479D03*
X247700Y461400D03*
X243863Y461416D03*
X247800Y465353D03*
X247799Y473227D03*
X247800Y469290D03*
X251800Y77600D03*
X256400Y366900D03*
X253100Y366700D03*
X250100D03*
X251736Y390551D03*
X255673D03*
X251736Y394488D03*
Y398425D03*
X255673D03*
Y394488D03*
X251736Y406299D03*
Y402362D03*
X255674Y406299D03*
X255673Y402362D03*
Y414173D03*
X251736Y410236D03*
Y414173D03*
X255674Y410236D03*
X255673Y418110D03*
X251736Y422047D03*
Y418110D03*
X255673Y422047D03*
X251736Y429921D03*
X255673D03*
X251736Y425984D03*
X255673D03*
X251736Y441731D03*
Y437794D03*
X255673Y441731D03*
Y437794D03*
X251736Y449605D03*
X255673Y445668D03*
X251736D03*
X255673Y449605D03*
Y453542D03*
X251736Y457479D03*
X255673D03*
X251737Y465354D03*
X251736Y461416D03*
X255673Y465353D03*
X255674Y469290D03*
X257642Y477296D03*
X259610Y390551D03*
Y398424D03*
X263547Y398425D03*
Y394487D03*
X259611Y394488D03*
X263548Y406299D03*
X263547Y402362D03*
X259610Y402361D03*
Y402362D03*
X259611Y406299D03*
X263547Y414173D03*
X259610D03*
X263548Y410236D03*
X259611D03*
X263547Y418110D03*
X259610Y422047D03*
Y418110D03*
X263547Y422047D03*
Y425984D03*
Y429921D03*
X259610Y433857D03*
Y429920D03*
X263547Y437794D03*
X259610Y441731D03*
X263547D03*
X259610Y437794D03*
Y449605D03*
X263547Y445668D03*
X259610D03*
X263547Y449605D03*
Y453542D03*
Y457479D03*
X259610Y453542D03*
Y457479D03*
X263547Y465353D03*
X259610Y461417D03*
Y465353D03*
X263548Y469291D03*
X259611Y469290D03*
X264340Y812900D03*
X266800Y77600D03*
X267484Y390551D03*
Y394488D03*
X271422D03*
X271500Y398600D03*
X267485Y398425D03*
X271422Y406299D03*
X267485Y402362D03*
X271422Y402361D03*
X271421Y410236D03*
X267485Y410235D03*
X271421Y414173D03*
X267484D03*
Y422047D03*
X271421Y418110D03*
X267484D03*
Y429921D03*
X271300Y425900D03*
Y429900D03*
X271400Y433700D03*
X267484Y425984D03*
Y441731D03*
Y437794D03*
X271421Y441731D03*
Y437794D03*
X267484Y449605D03*
X271422Y445669D03*
X267484Y445668D03*
X271421Y457480D03*
X271500Y453400D03*
X267484Y453542D03*
X271421Y461417D03*
X267600Y461400D03*
X267484Y465353D03*
X271421D03*
X267484Y469290D03*
X271421D03*
X277209Y191491D03*
X275358Y390551D03*
X281264Y390419D03*
X275359Y398425D03*
X279296D03*
X283232Y394488D03*
X279295D03*
X275359Y394487D03*
X275358Y402362D03*
X283232Y406299D03*
X279295Y402362D03*
X283232D03*
X275359Y406299D03*
X283232Y414173D03*
X279295D03*
X283232Y410236D03*
X275358Y414173D03*
Y410236D03*
X279295D03*
X275358Y418110D03*
X279295Y422047D03*
X275358D03*
X283232Y418110D03*
X279295D03*
X275358Y433858D03*
Y429921D03*
X279295Y433858D03*
X279296Y425983D03*
X283232Y425984D03*
X283233Y433857D03*
X275358Y425984D03*
X279295Y437795D03*
X283232Y437794D03*
X275359Y441732D03*
X275358Y437795D03*
X283200Y441700D03*
X279296Y441732D03*
X283300Y449600D03*
Y445600D03*
X279337Y445500D03*
X275400D03*
X279295Y449605D03*
X283100Y453500D03*
X279300Y457300D03*
X275437Y453400D03*
X275359Y457479D03*
X279295Y453542D03*
X283232Y465353D03*
X279295D03*
X275358Y461417D03*
Y465353D03*
X283232Y461416D03*
X279295D03*
X283233Y469291D03*
X275358Y469290D03*
X279295D03*
X277327Y477296D03*
X286800Y77600D03*
Y82600D03*
X287169Y390551D03*
X291106Y400393D03*
X287169Y410236D03*
X291414Y410246D03*
X291106Y420078D03*
Y439763D03*
X287169Y453542D03*
X291238Y459448D03*
X299500Y323000D03*
X299650Y400351D03*
X295400Y439551D03*
X293200Y453463D03*
X299800Y493500D03*
X297600Y495900D03*
X295600Y497800D03*
X294400Y500600D03*
X300200Y506400D03*
X297100Y503100D03*
X305987Y224738D03*
Y222263D03*
X302400Y323200D03*
X305300Y326300D03*
X302700Y326400D03*
X305150Y345750D03*
X303399Y343999D03*
X305700Y493300D03*
X302600Y491400D03*
X303500Y509400D03*
X312100Y312400D03*
X313600Y314300D03*
X309500Y314900D03*
X315000Y316600D03*
X313600Y318400D03*
X311800Y316700D03*
X310600Y498100D03*
X312900Y500500D03*
X316800Y522900D03*
X314100Y519700D03*
X314340Y812900D03*
X323150Y230390D03*
Y228420D03*
Y226450D03*
X324638Y243062D03*
Y245537D03*
X319800Y304300D03*
X323700Y308400D03*
X325600Y375400D03*
X322900Y378100D03*
X322300Y381600D03*
X325500Y384400D03*
X323400Y510000D03*
X319300Y525600D03*
X321600Y527800D03*
X324400Y529400D03*
X330680Y211050D03*
X328710Y235950D03*
X330680D03*
X332650Y236350D03*
X334363Y238567D03*
X334325Y252400D03*
X330300Y370500D03*
X328200Y372900D03*
X328600Y387400D03*
X330700Y388500D03*
X332900Y386400D03*
X330100Y517100D03*
X326700Y513700D03*
X329300Y523100D03*
X331900Y519300D03*
X326400Y526100D03*
X342500Y201850D03*
X334620Y211050D03*
X336580D03*
X342490D03*
X338550Y236450D03*
X336838Y238567D03*
X336800Y252400D03*
X341500Y359600D03*
X337900Y381800D03*
X340400Y379300D03*
X335100Y385000D03*
X348050Y218580D03*
Y216610D03*
Y220550D03*
Y230390D03*
Y228420D03*
Y222520D03*
Y224480D03*
X348500Y352500D03*
X345900Y355100D03*
X343600Y357300D03*
X350400Y369000D03*
X353000Y352200D03*
X355100Y354800D03*
X358100Y357300D03*
X356900Y362600D03*
X353300Y366200D03*
X356600Y376800D03*
X354300Y379200D03*
X352500Y380700D03*
X358700Y389100D03*
X356300Y386800D03*
X354200Y384500D03*
X360000Y361100D03*
X366600Y366400D03*
X363400Y364400D03*
X360700Y366900D03*
X362600Y370000D03*
X361500Y388900D03*
X363600Y387000D03*
X365800Y384600D03*
X363600Y443200D03*
X361300Y445700D03*
X361200Y448700D03*
X363700Y455700D03*
X361300Y452500D03*
X364240Y812900D03*
X369500Y365100D03*
X376500Y371900D03*
X374400Y369800D03*
X371800Y367300D03*
X373600Y377100D03*
X371400Y379500D03*
X375900Y375000D03*
X369200Y443200D03*
X369300Y455700D03*
X376400Y622300D03*
Y631300D03*
Y640300D03*
Y649300D03*
Y658300D03*
X377500Y443100D03*
X381200D03*
X381900Y455600D03*
X377500D03*
X386000Y444400D03*
X385900Y448700D03*
X386000Y453600D03*
X402200Y129600D03*
X410700Y130000D03*
X410400Y133700D03*
X403200Y141300D03*
X409200Y141200D03*
X410700Y137700D03*
X418823Y152823D03*
X418440Y337800D03*
X414340Y812900D03*
X420574Y154574D03*
X429787Y169297D03*
Y171772D03*
X429287Y254397D03*
Y256872D03*
X429687Y275772D03*
Y273297D03*
X435200Y359600D03*
X436300Y356300D03*
X437784Y366300D03*
X441500Y636102D03*
X437900Y652500D03*
X447400Y151200D03*
X451500Y158080D03*
X449900Y155300D03*
X447100Y155000D03*
X465900Y542289D03*
Y539730D03*
X462039Y798206D03*
X468060Y812040D03*
X478100Y151684D03*
Y161084D03*
Y154784D03*
Y157884D03*
Y170484D03*
Y167384D03*
Y164184D03*
Y173684D03*
Y255684D03*
Y261884D03*
Y258784D03*
Y265084D03*
Y268184D03*
Y271384D03*
Y274484D03*
Y277684D03*
X476784Y348800D03*
Y346300D03*
Y343800D03*
Y353800D03*
Y391300D03*
Y408800D03*
Y406300D03*
Y403800D03*
Y411300D03*
X474617Y638702D03*
Y641177D03*
X485984Y363800D03*
Y361300D03*
X485383Y542330D03*
Y544805D03*
X485187Y552567D03*
Y555042D03*
X485700Y567600D03*
Y575600D03*
Y583600D03*
Y591600D03*
Y599600D03*
Y607600D03*
Y615600D03*
Y623600D03*
X500113Y482558D03*
Y485033D03*
X499017Y490153D03*
Y487678D03*
Y507326D03*
Y509801D03*
Y517563D03*
Y520038D03*
X500245Y549925D03*
Y547450D03*
X509190Y477463D03*
Y479938D03*
X516900Y101300D03*
Y109300D03*
Y117300D03*
X520100Y207600D03*
Y215600D03*
Y223600D03*
X520917Y756485D03*
X514331Y794033D03*
X524300Y393970D03*
X523803Y413984D03*
X523800Y424000D03*
X541697Y339016D03*
Y358966D03*
X540200Y666300D03*
Y668775D03*
X547500Y207600D03*
Y215600D03*
Y223600D03*
X560600Y473100D03*
X560250Y482463D03*
Y490337D03*
X563000Y499800D03*
X557387Y494020D03*
Y496495D03*
X563000Y532639D03*
X555113Y536113D03*
Y538588D03*
X560250Y542263D03*
Y552106D03*
X560363Y550137D03*
X567750Y412000D03*
X570800Y473200D03*
Y475200D03*
X565200Y473200D03*
X570750Y483447D03*
Y481479D03*
Y489353D03*
X571900Y499600D03*
X571600Y497800D03*
X571000Y532700D03*
X570900Y535100D03*
X565389Y534389D03*
X570750Y543247D03*
X570753Y549153D03*
X571500Y557400D03*
X564300Y559800D03*
X571000Y559500D03*
X566100Y580200D03*
X575600Y406118D03*
X573803Y457384D03*
X573400Y473000D03*
X573600Y475400D03*
X573371Y477289D03*
Y479764D03*
X574588Y485163D03*
X573813Y493037D03*
X574588Y487638D03*
X574900Y497800D03*
X574600Y499900D03*
X573813Y495512D03*
X573300Y534700D03*
X573900Y532800D03*
X572500Y537125D03*
Y539600D03*
X573413Y552836D03*
X574599Y544963D03*
Y547438D03*
X574400Y557500D03*
X574900Y559800D03*
X573413Y555311D03*
X588200Y397100D03*
Y405100D03*
Y401100D03*
X591100Y396900D03*
Y400900D03*
Y404900D03*
G54D24*
X552399Y635057D03*
Y692143D03*
G54D15*
X41000Y722900D03*
Y733900D03*
Y744900D03*
X71400Y773600D03*
X105600Y289500D03*
X122600Y98300D03*
X160636Y705300D03*
Y715300D03*
X170636Y705300D03*
Y715300D03*
X180636Y705300D03*
Y715300D03*
X184500Y756200D03*
X190636Y705300D03*
Y715300D03*
X200636Y705300D03*
Y715300D03*
X210636Y705300D03*
Y715300D03*
X224600Y255700D03*
X220636Y705300D03*
X232280Y812496D03*
X243610Y102007D03*
Y122007D03*
X238200Y154500D03*
X245000Y223000D03*
X262276Y101939D03*
Y121939D03*
X268200Y154500D03*
X264600Y255700D03*
X286276Y102225D03*
Y122225D03*
X298200Y154500D03*
X316500Y82700D03*
X328200Y154500D03*
X336500Y82700D03*
X353000Y552800D03*
X356800Y155000D03*
X376500Y70100D03*
X394600Y243220D03*
X416780Y115600D03*
Y135600D03*
X414600Y243220D03*
X421900Y309520D03*
X414900Y459000D03*
X415200Y716200D03*
X431500Y208920D03*
X441900Y309520D03*
X451500Y208920D03*
G54D25*
X564496Y469392D03*
Y503408D03*
Y529192D03*
Y563208D03*
G54D16*
X57950Y35100D03*
X73550D03*
X89150D03*
X104750D03*
G54D26*
X575864Y635057D03*
Y692143D03*
G54D17*
X65200Y802100D03*
X85200D03*
X193328Y116883D03*
X213328D03*
X379392Y334680D03*
X399392D03*
G54D27*
X578113Y392240D03*
Y409760D03*
G54D18*
X174525Y770500D03*
Y777980D03*
X223800Y96250D03*
X218550Y102000D03*
X223800Y107750D03*
X224100Y116250D03*
Y127750D03*
X256550Y142200D03*
X262300Y147450D03*
X268050Y142200D03*
X276950Y113000D03*
X275200Y119500D03*
X302550Y130800D03*
X297300Y136550D03*
X310850Y102200D03*
X305600Y107950D03*
X431400Y142984D03*
Y161884D03*
Y180784D03*
Y246984D03*
Y265884D03*
Y284784D03*
X449600Y133784D03*
Y189884D03*
Y237784D03*
Y293884D03*
X469200Y133784D03*
Y189884D03*
Y237784D03*
Y293884D03*
X487700Y133784D03*
Y189884D03*
Y237784D03*
Y293884D03*
X484700Y437581D03*
X556600Y714700D03*
X571716Y365697D03*
Y379697D03*
X566600Y516100D03*
X570600Y714700D03*
X580600Y516100D03*
G54D28*
X585598Y469392D03*
Y503408D03*
Y529192D03*
Y563208D03*
G54D19*
X220636Y715300D03*
X451000Y105400D03*
Y115400D03*
X455900Y142984D03*
Y180784D03*
Y246984D03*
Y284784D03*
X463000Y105400D03*
Y115400D03*
X475000Y105400D03*
Y115400D03*
X498200Y307600D03*
Y317600D03*
X510200Y307600D03*
Y317600D03*
X522200Y307600D03*
Y317600D03*
X556100Y363000D03*
Y373000D03*
G54D29*
X589924Y384563D03*
Y417437D03*
M02*
