G04 ================== begin FILE IDENTIFICATION RECORD ==================*
G04 Layout Name:  D:/MyProject/SDHCAL_DAQ/PCB&Schematic/SDHCalDIF/Allegro/SDHCalDIF.brd*
G04 Film Name:    art10*
G04 File Format:  Gerber RS274X*
G04 File Origin:  Cadence Allegro 16.6-S025*
G04 Origin Date:  Fri Apr 27 14:42:22 2018*
G04 *
G04 Layer:  BOARD GEOMETRY/OUTLINE*
G04 Layer:  ETCH/BOTTOM*
G04 Layer:  PIN/BOTTOM*
G04 Layer:  VIA CLASS/BOTTOM*
G04 *
G04 Offset:    (0.00 0.00)*
G04 Mirror:    Yes*
G04 Mode:      Positive*
G04 Rotation:  0*
G04 FullContactRelief:  No*
G04 UndefLineWidth:     5.00*
G04 ================== end FILE IDENTIFICATION RECORD ====================*
%FSLAX25Y25*MOIN*%
%IR0*IPPOS*OFA0.00000B0.00000*MIA1B0*SFA1.00000B1.00000*%
%AMMACRO38*
21,1,.032,.035,0.0,0.0,135.*%
%ADD38MACRO38*%
%ADD21R,.125X.06*%
%ADD10C,.02*%
%AMMACRO27*
21,1,.08,.09,0.0,0.0,135.*%
%ADD27MACRO27*%
%ADD15C,.012*%
%AMMACRO39*
21,1,.13,.095,0.0,0.0,45.*%
%ADD39MACRO39*%
%ADD25C,.04*%
%ADD16C,.06*%
%ADD45C,.052*%
%ADD42C,.07*%
%ADD44C,.062*%
%ADD52R,.10236X.04331*%
%ADD19C,.09*%
%ADD12C,.028*%
%ADD35R,.06X.06*%
%ADD33R,.07X.07*%
%ADD50O,.10276X.05551*%
%ADD47R,.062X.062*%
%ADD41R,.08X.08*%
%ADD13C,.0709*%
%ADD48O,.12638X.05551*%
%ADD24R,.032X.03*%
%ADD32R,.02X.025*%
%AMMACRO30*
21,1,.025,.02,0.0,0.0,45.*%
%ADD30MACRO30*%
%ADD14R,.03X.032*%
%ADD37C,.1*%
%ADD28R,.025X.02*%
%ADD17C,.11*%
%AMMACRO40*
21,1,.13,.095,0.0,0.0,135.*%
%ADD40MACRO40*%
%ADD23R,.035X.032*%
%ADD34R,.04X.045*%
%ADD18R,.032X.035*%
%ADD29R,.09X.08*%
%AMMACRO26*
21,1,.08,.09,0.0,0.0,45.*%
%ADD26MACRO26*%
%ADD22R,.11X.11*%
%ADD20R,.08X.09*%
%ADD36R,.065X.055*%
%ADD31R,.055X.065*%
%ADD11C,.176*%
%ADD51O,.04134X.03346*%
%ADD43R,.02362X.04134*%
%ADD46R,.04134X.02362*%
%ADD53O,.07874X.05118*%
%ADD49R,.08268X.03937*%
%ADD54C,.01*%
%ADD55C,.03*%
%ADD56C,.024*%
%ADD57C,.016*%
%ADD58C,.004*%
%ADD59C,.005*%
%ADD60C,.006*%
G75*
%LPD*%
G75*
G36*
G01X58300Y99600D02*
X71400D01*
Y83900D01*
X58300D01*
Y99600D01*
G37*
G36*
G01X96300Y63800D02*
Y26600D01*
X68000D01*
Y63800D01*
X96300D01*
G37*
G36*
G01X76400Y80000D02*
Y99900D01*
X95800D01*
Y73000D01*
X69600D01*
Y80000D01*
X76400D01*
G37*
G36*
G01X107400Y427700D02*
Y412100D01*
X95300D01*
Y427700D01*
X107400D01*
G37*
G36*
G01X124700Y139300D02*
Y121500D01*
X112200D01*
Y139300D01*
X124700D01*
G37*
G36*
G01X124200Y427500D02*
Y411900D01*
X112100D01*
Y427500D01*
X124200D01*
G37*
G36*
G01X142100Y139100D02*
Y121600D01*
X129700D01*
Y139100D01*
X142100D01*
G37*
G36*
G01X172150Y366650D02*
X179750Y374250D01*
X190000Y364000D01*
X182400Y356400D01*
X172150Y366650D01*
G37*
G36*
G01X169400Y442500D02*
X181700D01*
Y433200D01*
X169400D01*
Y442500D01*
G37*
G36*
G01X178200Y491700D02*
X170800Y499100D01*
X179550Y507850D01*
X186950Y500450D01*
X178200Y491700D01*
G37*
G36*
G01X165200Y822600D02*
X176600D01*
Y807100D01*
X165200D01*
Y822600D01*
G37*
G36*
G01X206250Y379150D02*
X194100Y367000D01*
X183350Y377750D01*
X195500Y389900D01*
X206250Y379150D01*
G37*
G36*
G01X197700Y442400D02*
Y433200D01*
X186900D01*
Y442400D01*
X197700D01*
G37*
G36*
G01X189350Y479650D02*
X181350Y487650D01*
X190600Y496900D01*
X198600Y488900D01*
X189350Y479650D01*
G37*
G36*
G01X181600Y807000D02*
Y822500D01*
X193000D01*
Y807000D01*
X181600D01*
G37*
G36*
G01X189300Y574200D02*
X199000Y583900D01*
X206700Y576200D01*
X197000Y566500D01*
X189300Y574200D01*
G37*
G36*
G01X213200Y245100D02*
Y229600D01*
X202000D01*
Y245100D01*
X213200D01*
G37*
G36*
G01X199650Y562050D02*
X209750Y572150D01*
X217750Y564150D01*
X207650Y554050D01*
X199650Y562050D01*
G37*
G36*
G01X229800Y245400D02*
Y229600D01*
X218200D01*
Y245400D01*
X229800D01*
G37*
G36*
G01X222400Y776100D02*
Y787800D01*
X231400D01*
Y776100D01*
X222400D01*
G37*
G36*
G01X258000Y374300D02*
Y365800D01*
X247600D01*
Y374300D01*
X258000D01*
G37*
G36*
G01X257700Y387900D02*
Y379300D01*
X248800D01*
Y387900D01*
X257700D01*
G37*
G36*
G01X272600Y243600D02*
Y228200D01*
X261400D01*
Y243600D01*
X272600D01*
G37*
G36*
G01X289200Y243800D02*
Y227900D01*
X277800D01*
Y243800D01*
X289200D01*
G37*
G36*
G01X320900Y298300D02*
X293850Y325350D01*
X303300Y334800D01*
X311400D01*
X328700Y317500D01*
X324200Y313000D01*
Y308400D01*
X327600Y305000D01*
X320900Y298300D01*
G37*
G36*
G01X292000Y499600D02*
X303700Y511300D01*
X314400Y500600D01*
X302700Y488900D01*
X292000Y499600D01*
G37*
G36*
G01X342200Y66400D02*
Y56300D01*
X311200D01*
Y66400D01*
X342200D01*
G37*
G36*
G01X312250Y519850D02*
X323550Y531150D01*
X334600Y520100D01*
X323300Y508800D01*
X312250Y519850D01*
G37*
G36*
G01X319500Y380100D02*
X330300Y390900D01*
X341750Y379450D01*
X330950Y368650D01*
X319500Y380100D01*
G37*
G36*
G01X378800Y373100D02*
X352450Y346750D01*
X339400Y359800D01*
X351550Y371950D01*
X356500Y367000D01*
X370700Y381200D01*
X378800Y373100D01*
G37*
G36*
G01X349800Y382100D02*
X359650Y391950D01*
X367350Y384250D01*
X357500Y374400D01*
X349800Y382100D01*
G37*
G36*
G01X359800Y456700D02*
X371000D01*
Y441600D01*
X359800D01*
Y456700D01*
G37*
G36*
G01X386000Y253100D02*
X388900D01*
Y247200D01*
X373000D01*
Y270800D01*
X386000D01*
Y253100D01*
G37*
G36*
G01X394900Y144100D02*
Y125800D01*
X382600D01*
Y144100D01*
X394900D01*
G37*
G36*
G01X376100Y456800D02*
X386700D01*
Y442200D01*
X376100D01*
Y456800D01*
G37*
G36*
G01X402800Y271100D02*
Y250200D01*
X392600D01*
Y271100D01*
X402800D01*
G37*
G36*
G01X388400Y319400D02*
X401400D01*
Y295800D01*
X388400D01*
Y319400D01*
G37*
G36*
G01X407900Y95700D02*
X395800D01*
Y109700D01*
X398200D01*
Y118100D01*
X405900D01*
Y109700D01*
X407900D01*
Y95700D01*
G37*
G36*
G01X421600Y142300D02*
Y128800D01*
X400000D01*
Y142300D01*
X421600D01*
G37*
G36*
G01X411300Y217300D02*
Y198700D01*
X397800D01*
Y217300D01*
X411300D01*
G37*
G36*
G01X418600Y247900D02*
Y224300D01*
X406300D01*
Y247900D01*
X418600D01*
G37*
G36*
G01X423900Y316800D02*
Y301400D01*
X406100D01*
Y316800D01*
X423900D01*
G37*
G36*
G01X425200Y117600D02*
Y96000D01*
X412800D01*
Y117600D01*
X425200D01*
G37*
G36*
G01X436400Y217700D02*
Y200400D01*
X415900D01*
Y217700D01*
X436400D01*
G37*
G36*
G01X416800Y643400D02*
Y655000D01*
X432300D01*
Y643400D01*
X416800D01*
G37*
G36*
G01Y659300D02*
Y672500D01*
X432400D01*
Y659300D01*
X416800D01*
G37*
G36*
G01X436400Y241300D02*
Y222400D01*
X423600D01*
Y241300D01*
X436400D01*
G37*
G36*
G01X426000Y530600D02*
X437700D01*
Y514900D01*
X426000D01*
Y530600D01*
G37*
G36*
G01X442700Y530500D02*
X456600D01*
Y514400D01*
X442700D01*
Y530500D01*
G37*
G36*
G01X454100Y159900D02*
Y149300D01*
X445500D01*
Y159900D01*
X454100D01*
G37*
G36*
G01X445100Y174800D02*
X454400D01*
Y162400D01*
X445100D01*
Y174800D01*
G37*
G36*
G01X466800Y217300D02*
Y200500D01*
X447000D01*
Y217300D01*
X466800D01*
G37*
G36*
G01X453500Y264100D02*
Y253200D01*
X445400D01*
Y264100D01*
X453500D01*
G37*
G36*
G01X453700Y277100D02*
Y266300D01*
X445800D01*
Y277100D01*
X453700D01*
G37*
G36*
G01X449500Y339400D02*
X461000D01*
Y323100D01*
X449500D01*
Y339400D01*
G37*
G36*
G01X456600Y429300D02*
Y414400D01*
X444900D01*
Y429300D01*
X456600D01*
G37*
G36*
G01X462100Y557000D02*
Y545400D01*
X449400D01*
Y557000D01*
X462100D01*
G37*
G36*
G01X449800Y562000D02*
Y575200D01*
X465400D01*
Y562000D01*
X449800D01*
G37*
G36*
G01X455700Y175900D02*
X463000D01*
Y147700D01*
X455700D01*
Y175900D01*
G37*
G36*
G01X463500Y279700D02*
Y251500D01*
X456200D01*
Y279700D01*
X463500D01*
G37*
G36*
G01X476900Y299800D02*
X463200D01*
Y317600D01*
X476900D01*
Y299800D01*
G37*
G36*
G01X478600Y339700D02*
Y323500D01*
X466000D01*
Y339700D01*
X478600D01*
G37*
G36*
G01X485000Y429300D02*
Y414100D01*
X461600D01*
Y429300D01*
X485000D01*
G37*
G36*
G01X468900Y475600D02*
X480800D01*
Y460400D01*
X468900D01*
Y475600D01*
G37*
G36*
G01X483900Y218100D02*
Y199800D01*
X471900D01*
Y218100D01*
X483900D01*
G37*
G36*
G01X485400Y283300D02*
X491900D01*
Y245200D01*
X485400D01*
Y283300D01*
G37*
G36*
G01X497600Y475600D02*
Y459900D01*
X485900D01*
Y475600D01*
X497600D01*
G37*
G36*
G01X486400Y180100D02*
X492500D01*
Y143200D01*
X486400D01*
Y180100D01*
G37*
G36*
G01X501800Y429400D02*
Y413700D01*
X490100D01*
Y429400D01*
X501800D01*
G37*
G36*
G01X533300Y445200D02*
Y433100D01*
X517700D01*
Y445200D01*
X533300D01*
G37*
G36*
G01X517800Y450200D02*
Y462700D01*
X534200D01*
Y450200D01*
X517800D01*
G37*
G54D10*
G01X239700Y43300D02*
Y40200D01*
G01X246800Y57600D02*
X239700Y50500D01*
Y49300D01*
G01X239800Y72550D02*
X236300D01*
G01X245700Y43300D02*
Y40300D01*
G01Y49300D02*
X251600D01*
G01X246800Y67600D02*
X247800Y68600D01*
Y72550D01*
G01X246800Y77600D02*
X247800Y76600D01*
Y72550D01*
G01X256600Y31300D02*
X253350D01*
G01X261800Y57600D02*
X256600Y52400D01*
Y37300D01*
G01X251600Y43300D02*
Y40300D01*
G01Y49300D02*
Y52400D01*
X251800Y52600D01*
G01X256800Y67600D02*
Y72350D01*
X257000Y72550D01*
G01X256800Y77600D02*
Y72750D01*
X257000Y72550D01*
G01X261800Y43300D02*
Y40300D01*
G01Y49300D02*
Y52600D01*
G01X267700Y49300D02*
X261800D01*
G01X265000Y72550D02*
Y70800D01*
X261800Y67600D01*
G01Y77600D02*
X265000Y74400D01*
Y72550D01*
G01X267700Y43300D02*
Y40300D01*
G01X271800Y56800D02*
Y52600D01*
G01Y62800D02*
X271600Y62600D01*
X266800D01*
G01X271800Y67600D02*
Y70050D01*
X274300Y72550D01*
G01X271800Y77600D02*
Y75050D01*
X274300Y72550D01*
G01X286500Y30900D02*
X283250D01*
G01X281700Y43300D02*
Y40300D01*
G01X275800Y43300D02*
Y40300D01*
G01X281700Y49300D02*
X275800D01*
G01X281800Y52600D02*
Y49400D01*
X281700Y49300D01*
G01X281800Y57600D02*
X286500Y52900D01*
Y36900D01*
G01X281800Y67600D02*
Y72050D01*
X282300Y72550D01*
G01X281800Y77600D02*
Y73050D01*
X282300Y72550D01*
G01X290598Y43329D02*
Y40329D01*
G01X286800Y57600D02*
X290598Y53802D01*
Y49329D01*
G01X291800Y67600D02*
Y71450D01*
X290700Y72550D01*
G01X291800Y77600D02*
Y73650D01*
X290700Y72550D01*
G01X296500Y43300D02*
Y40300D01*
G01Y49300D02*
X302500D01*
G01X296800Y52600D02*
Y49600D01*
X296500Y49300D01*
G01X296800Y57600D02*
X299800D01*
X299900Y57700D01*
G01X298700Y72550D02*
X303100D01*
G01X302500Y43300D02*
Y40300D01*
X3200Y71800D03*
X2700Y80100D03*
X3200Y285500D03*
X2700Y293800D03*
X3500Y322900D03*
X3000Y331200D03*
X2800Y544900D03*
X3300Y536600D03*
X3400Y582500D03*
X3200Y787800D03*
X2700Y796100D03*
X8700Y71600D03*
X7100Y80200D03*
X12300Y80400D03*
X8700Y285300D03*
X7100Y293900D03*
X12300Y294100D03*
X9000Y322700D03*
X7400Y331300D03*
X8800Y536400D03*
X7200Y545000D03*
X9400Y574000D03*
X3900Y574200D03*
X7800Y582600D03*
X8700Y787600D03*
X12300Y796400D03*
X7100Y796200D03*
X20000Y71700D03*
X13500Y71800D03*
X12600Y285100D03*
X12900Y322500D03*
X12600Y331500D03*
X12700Y536200D03*
X12400Y545200D03*
X13300Y573800D03*
X13000Y582800D03*
X12600Y787400D03*
X24400Y71600D03*
X22400Y80500D03*
X26500Y80200D03*
X24400Y285300D03*
X20900Y285100D03*
X26500Y293900D03*
X22400Y294200D03*
X24700Y322700D03*
X21200Y322500D03*
X22700Y331600D03*
X26800Y331300D03*
X21525Y341358D03*
Y336358D03*
X24500Y536400D03*
X21000Y536200D03*
X26600Y545000D03*
X22500Y545300D03*
X25100Y574000D03*
X21600Y573800D03*
X23100Y582900D03*
X20900Y787400D03*
X24400Y787600D03*
X22400Y796500D03*
X26500Y796200D03*
X34000Y75900D03*
X30500Y71700D03*
X31300Y80100D03*
X32675Y220358D03*
Y230358D03*
X30500Y285400D03*
X34000Y289600D03*
X31300Y293800D03*
X30800Y322800D03*
X31600Y331200D03*
X34300Y327000D03*
X32675Y346358D03*
Y351358D03*
Y366358D03*
Y371358D03*
X30600Y536500D03*
X31400Y544900D03*
X34100Y540700D03*
X34700Y578300D03*
X31200Y574100D03*
X32000Y582500D03*
X32675Y722358D03*
Y732358D03*
X30500Y787700D03*
X34000Y791900D03*
X31300Y796100D03*
X51800Y48400D03*
X51100Y52500D03*
X54000Y54900D03*
X51200Y57600D03*
X54000Y60200D03*
X51500Y62500D03*
Y66200D03*
X58400Y48500D03*
X58200Y51800D03*
X57600Y66800D03*
X62400Y67300D03*
X60700Y86500D03*
X60600Y94100D03*
X60800Y90100D03*
X61800Y97800D03*
X57500Y450266D03*
X71300Y74500D03*
X71400Y78200D03*
X69400Y97600D03*
X65800Y97300D03*
X78100Y83000D03*
Y97400D03*
X85700Y83200D03*
X87500Y92100D03*
X85200Y96900D03*
X91200Y74900D03*
X92100Y79500D03*
X88900Y85800D03*
X92500Y92300D03*
X92200Y96700D03*
X88800Y400640D03*
X97100Y423800D03*
X94200Y793700D03*
X101000Y49100D03*
X103300Y87100D03*
X102200Y413500D03*
X97300Y416100D03*
Y419900D03*
X99800Y426300D03*
X104700D03*
X98500Y739900D03*
X113600Y49300D03*
X107300Y49600D03*
X111100Y56800D03*
X110900Y64500D03*
X105800Y70400D03*
X112800Y70300D03*
X114100Y127000D03*
X113900Y131500D03*
Y136400D03*
X108800Y442200D03*
X107500Y735900D03*
X121300Y49400D03*
X121000Y57100D03*
X116700Y57800D03*
X122600Y63700D03*
X117300Y64200D03*
X120200Y69700D03*
X121800Y123000D03*
X116200Y123200D03*
X119000Y137800D03*
X115300Y413500D03*
X121100D03*
X122400Y418600D03*
X122500Y422800D03*
X114400Y426200D03*
X120100Y426400D03*
X127600Y49700D03*
X127000Y70400D03*
X130900Y137700D03*
X123400Y137800D03*
X125500Y739900D03*
X128500D03*
X133800Y49300D03*
X132400Y70800D03*
X131900Y123300D03*
X136300D03*
X135900Y137600D03*
X144300Y53700D03*
X147154Y71066D03*
X144900Y112300D03*
X140100Y123200D03*
X140400Y127400D03*
X147150Y137000D03*
X140400Y132900D03*
X140300Y137300D03*
X145986Y144350D03*
X141800Y438760D03*
X151900Y55400D03*
X152100Y60300D03*
X152300Y65600D03*
X151600Y127700D03*
X154000Y134928D03*
X154100Y130991D03*
X150000Y740000D03*
X149600Y746000D03*
X163200Y97500D03*
X156700Y112400D03*
X162828Y130560D03*
X162628Y135660D03*
X164828Y132960D03*
X167528Y130460D03*
X167428Y135160D03*
X171000Y433200D03*
X170800Y436900D03*
X170900Y441700D03*
X169100Y761400D03*
Y788000D03*
X172700Y798600D03*
X171800Y808200D03*
X166400Y812000D03*
X166600Y817200D03*
X169000Y821200D03*
X175800Y20000D03*
Y31000D03*
Y42000D03*
Y53000D03*
Y64000D03*
Y75000D03*
Y86000D03*
X181414Y118350D03*
X181400Y112400D03*
X175300Y121500D03*
X175700Y788850D03*
X173800Y821100D03*
X188000Y128900D03*
Y132300D03*
X188400Y135400D03*
X188000Y138900D03*
X190100Y774100D03*
X183900Y808200D03*
X189800Y808500D03*
X188000Y821200D03*
X183900Y821100D03*
X193198Y133803D03*
X195850Y412249D03*
X195900Y774000D03*
X191300Y813300D03*
X191400Y818000D03*
X200300Y16000D03*
Y27000D03*
Y38000D03*
Y49000D03*
Y60000D03*
Y79000D03*
X203800Y86000D03*
X202927Y202500D03*
X205200Y198500D03*
X206494Y215294D03*
X207200Y230800D03*
X203400Y237000D03*
X203200Y232700D03*
X206000Y244000D03*
X203400Y241200D03*
X203184Y385913D03*
X201750Y398349D03*
X201650Y441649D03*
X206831Y772867D03*
X199697Y780545D03*
Y775426D03*
X206831Y777986D03*
Y788222D03*
Y795899D03*
X199697Y803576D03*
X206831Y806135D03*
X203600Y815400D03*
X210628Y194799D03*
X215746D03*
X213187D03*
X212550Y204118D03*
Y211018D03*
X215750Y207618D03*
X210628Y220437D03*
X215746D03*
X213187D03*
X210900Y230800D03*
X211200Y243900D03*
X216000Y769600D03*
X213250Y782200D03*
X220864Y194799D03*
X219350Y204118D03*
X219150Y211118D03*
X220864Y220437D03*
X220200Y231000D03*
X223600Y243800D03*
X220000D03*
X217000Y781900D03*
X219700Y776300D03*
X223900Y777800D03*
X217000Y817700D03*
X228565Y205059D03*
X232400Y203600D03*
X230000Y198100D03*
X228565Y212736D03*
X226400Y230800D03*
X229900Y224300D03*
X228300Y234200D03*
X228100Y238500D03*
X228000Y243100D03*
X226100Y381650D03*
X226900Y777900D03*
X239700Y40200D03*
X236300Y72550D03*
X245700Y40300D03*
X246800Y57600D03*
Y67600D03*
X241800Y62600D03*
Y67600D03*
X246800Y77600D03*
X241800D03*
Y82600D03*
X246800D03*
X241800Y87600D03*
X253350Y31300D03*
X251600Y40300D03*
X251800Y52600D03*
Y57600D03*
X256800D03*
X251800Y62600D03*
Y67600D03*
X256800Y62600D03*
Y67600D03*
Y77600D03*
Y82600D03*
Y87600D03*
X251100Y386400D03*
X255500Y386350D03*
X261800Y40300D03*
Y52600D03*
X266800Y57600D03*
X261800D03*
X266800Y62600D03*
X261800D03*
Y67600D03*
X266800D03*
X261800Y77600D03*
X266800Y82600D03*
X263700Y194750D03*
X261831Y202100D03*
Y212336D03*
X266100Y229300D03*
X262900Y239200D03*
X262800Y233600D03*
X265800Y242200D03*
X267700Y40300D03*
X271800Y52600D03*
Y67600D03*
Y77600D03*
X274650Y194399D03*
X269532D03*
X272091D03*
X271450Y203618D03*
Y210518D03*
X274650Y207118D03*
X269532Y220037D03*
X274650D03*
X272091D03*
X270700Y229300D03*
X269900Y242300D03*
X283250Y30900D03*
X281700Y40300D03*
X275800D03*
X281800Y52600D03*
Y57600D03*
X276800D03*
X281800Y67600D03*
Y62600D03*
X276800D03*
X281800Y77600D03*
X276800Y82600D03*
X281800D03*
X276800Y87600D03*
X279768Y194399D03*
X278250Y203618D03*
X278050Y210618D03*
X279768Y220037D03*
X279500Y229200D03*
X283900Y242200D03*
X279800Y242100D03*
X277349Y486350D03*
X290598Y40329D03*
X286800Y57600D03*
X291800D03*
X286800Y62600D03*
Y67600D03*
X291800Y62600D03*
Y67600D03*
Y77600D03*
Y82600D03*
Y87600D03*
X287469Y202100D03*
X288800Y198000D03*
X287469Y204659D03*
Y212336D03*
X288800Y223900D03*
X285900Y229200D03*
X287900Y232700D03*
X287700Y237100D03*
X287900Y241600D03*
X296500Y40300D03*
X296800Y52600D03*
Y57600D03*
Y62600D03*
Y67600D03*
Y77600D03*
X294550Y206400D03*
X302500Y40300D03*
X305900Y54450D03*
X303100Y72550D03*
X315000Y57500D03*
X316299Y211149D03*
Y207149D03*
X310805Y229300D03*
X313550Y231600D03*
X324700Y59000D03*
X320200Y57500D03*
X324300Y63900D03*
X325799Y211149D03*
Y207149D03*
X322750Y216610D03*
X321999Y238349D03*
X334400Y57500D03*
X329000Y59200D03*
X329500Y64000D03*
X334651Y201999D03*
X330651D03*
X331350Y219718D03*
X332550Y227218D03*
X339400Y57500D03*
X335650Y218918D03*
X339150Y227318D03*
X340350Y223518D03*
X351550Y192700D03*
X357800Y222500D03*
X354551Y216051D03*
X355000Y227000D03*
X357201Y230351D03*
X375600Y254000D03*
X374900Y260100D03*
X374700Y266500D03*
X384400Y133200D03*
X384500Y138600D03*
X377500Y249900D03*
X381500Y253300D03*
X383200Y249300D03*
X383500Y268200D03*
X378800Y268300D03*
X392600Y128400D03*
X386100Y128100D03*
X386900Y142700D03*
X392900Y142900D03*
X387200Y157400D03*
X390900Y299100D03*
X390700Y306900D03*
X390300Y312000D03*
X392200Y317200D03*
X399200Y97700D03*
X397500Y102500D03*
Y107300D03*
X400500Y111300D03*
X400100Y116000D03*
X399400Y157400D03*
X399700Y203300D03*
X399600Y208800D03*
X399800Y214500D03*
X397880Y230900D03*
X398700Y253800D03*
X401100Y261700D03*
X401000Y265300D03*
X400300Y268900D03*
X395200Y268100D03*
X397400Y299000D03*
X398400Y317100D03*
X405500Y97600D03*
X403700Y111300D03*
X408300Y201300D03*
X403600Y200700D03*
X409000Y215600D03*
X411100Y226100D03*
X408200Y230200D03*
Y235000D03*
X409600Y239300D03*
X408000Y316000D03*
X404200Y595300D03*
Y604300D03*
Y613300D03*
Y622300D03*
Y631300D03*
Y640300D03*
Y649300D03*
Y658300D03*
X416700Y97300D03*
X413300Y110700D03*
X418400Y216000D03*
X417300Y225900D03*
X416800Y304200D03*
X416900Y315300D03*
X414700Y338200D03*
X418200Y647700D03*
Y652600D03*
X418300Y662200D03*
Y666700D03*
X423300Y99800D03*
X423100Y106000D03*
X422200Y110900D03*
X426600Y202900D03*
X421600Y202300D03*
X424700Y215900D03*
X425700Y225000D03*
X425900Y239800D03*
X421930Y293900D03*
X421140Y323900D03*
X427600Y516700D03*
X427400Y525800D03*
X422700Y645000D03*
X426700Y670900D03*
X420100Y670700D03*
X432600Y115580D03*
X434980Y196500D03*
X429400Y215200D03*
X430500Y224700D03*
X434500Y226300D03*
X434100Y230600D03*
X434400Y236100D03*
X431600Y239700D03*
X431000Y315930D03*
X433300Y323900D03*
X433400Y516400D03*
X429400Y529200D03*
X435000D03*
X428400Y645100D03*
X430800Y648900D03*
X430900Y653000D03*
X431200Y663900D03*
X430900Y669700D03*
X441900Y121403D03*
X440700Y217830D03*
X437384Y396300D03*
Y401300D03*
X441100Y643780D03*
Y651457D03*
X447100Y167800D03*
X450200Y173500D03*
X449500Y215900D03*
X447500Y254900D03*
X448900Y259600D03*
X447500Y272100D03*
X448500Y276300D03*
X451600Y325100D03*
X451000Y329500D03*
X450900Y334100D03*
X453600Y338200D03*
X447384Y358800D03*
Y363800D03*
Y386300D03*
Y398800D03*
X451400Y415600D03*
X446600Y419300D03*
X446300Y424000D03*
X447700Y428000D03*
X453400Y428100D03*
X453300Y452200D03*
X453400Y456900D03*
X446300Y515900D03*
X453100Y529200D03*
X445300Y529100D03*
X451300Y547200D03*
X450800Y555000D03*
X451200Y566700D03*
X452700Y572200D03*
X449700Y633543D03*
Y641220D03*
X461500Y151600D03*
X461200Y163800D03*
Y168500D03*
X461400Y173900D03*
X457800Y174300D03*
X459100Y202100D03*
X456300Y205400D03*
X460900Y215700D03*
X456000Y214700D03*
X461800Y254300D03*
X462100Y265400D03*
X462000Y272600D03*
X461700Y278700D03*
X457500Y325000D03*
X458900Y338400D03*
X459700Y357480D03*
X459600Y386330D03*
X459700Y398780D03*
X456200Y448300D03*
X462000D03*
X461900Y460000D03*
X454800Y460100D03*
X454200Y516900D03*
X454500Y525800D03*
X462000Y526600D03*
X460600Y546800D03*
X456800D03*
X458000Y572500D03*
X469000Y124403D03*
X465200Y202100D03*
Y215700D03*
X462300Y261200D03*
X466100Y302200D03*
X466300Y316300D03*
X470300Y325000D03*
X469200Y338400D03*
X464300Y366270D03*
Y376270D03*
Y386270D03*
X469600Y415500D03*
X464000Y415400D03*
X463900Y428100D03*
X470300Y437600D03*
X464400Y452500D03*
X464200Y456700D03*
X470600Y462500D03*
X470400Y467600D03*
X470500Y472300D03*
X465500Y477399D03*
Y487636D03*
Y495313D03*
X462200Y496700D03*
X465500Y507285D03*
Y517522D03*
Y525199D03*
Y537171D03*
X465250Y547408D03*
X465000Y555085D03*
X468500Y557300D03*
X464000Y568800D03*
Y564500D03*
X462500Y572800D03*
X468060Y794639D03*
X474800Y201900D03*
X474000Y216200D03*
X473100Y302100D03*
X474800Y306100D03*
X474600Y311100D03*
X473200Y315900D03*
X476700Y326600D03*
X476400Y331700D03*
X476600Y337900D03*
X476384Y366300D03*
Y358800D03*
Y376300D03*
Y386300D03*
X474100Y417700D03*
X473900Y425100D03*
X471500Y421700D03*
Y427500D03*
X476200Y461700D03*
X476600Y474500D03*
X474100Y485076D03*
Y514962D03*
Y544848D03*
X473200Y567600D03*
Y575600D03*
Y583600D03*
Y591600D03*
Y599600D03*
Y607600D03*
Y615600D03*
Y623600D03*
X471800Y801773D03*
X484100Y121403D03*
X480800Y202000D03*
X482100Y206300D03*
X482200Y211300D03*
X480500Y216300D03*
X486384Y356300D03*
Y351300D03*
Y373800D03*
Y383800D03*
Y388800D03*
Y393800D03*
Y401300D03*
X480300Y415400D03*
X480200Y428000D03*
X480900Y792740D03*
X486500Y802840D03*
X486600Y808751D03*
X486500Y814700D03*
X490100Y145000D03*
X491200Y158800D03*
Y163900D03*
Y170200D03*
X489300Y178100D03*
X488400Y248000D03*
X491000Y251100D03*
X490400Y262200D03*
X491100Y271000D03*
X490400Y281100D03*
X490800Y276500D03*
X489000Y301597D03*
X495500Y353030D03*
X489620Y410400D03*
X493000Y415200D03*
X492500Y427900D03*
X495700Y461800D03*
X489000Y461500D03*
X492300Y795900D03*
Y801800D03*
X492200Y807651D03*
X504100Y298597D03*
X498500Y393800D03*
X499000Y415300D03*
X500400Y423300D03*
X498000Y428000D03*
X499000Y437560D03*
X496100Y467000D03*
X496200Y472000D03*
X498200Y567600D03*
Y575600D03*
Y583600D03*
Y591600D03*
X498600Y599600D03*
X498200Y607600D03*
Y615600D03*
Y623600D03*
X497800Y789900D03*
X509200Y655500D03*
Y691500D03*
X506851Y793633D03*
X510591Y811267D03*
X520800Y434900D03*
X519100Y439100D03*
Y444200D03*
X519200Y453600D03*
Y457900D03*
X515200Y655500D03*
Y691500D03*
X520517Y763965D03*
X516735Y773016D03*
X528200Y298597D03*
X529000Y388000D03*
X527500Y434700D03*
X524300Y460900D03*
X528584Y779116D03*
X522684D03*
X529300Y815800D03*
X532000Y438100D03*
X532100Y443600D03*
X532500Y457000D03*
Y452200D03*
X530800Y460600D03*
X538151Y760225D03*
X534535Y779216D03*
X544800Y101300D03*
Y109300D03*
Y117300D03*
X545000Y577500D03*
X543281Y679348D03*
X543784Y741516D03*
X550000Y406100D03*
X552703Y460084D03*
X553600Y584770D03*
X561650Y418000D03*
X559850Y558011D03*
X555533Y649820D03*
Y661632D03*
Y667537D03*
Y673442D03*
X571200Y437400D03*
X564800Y449670D03*
X574900Y395882D03*
G54D11*
X17487Y17487D03*
X17484Y308358D03*
X17487Y559358D03*
Y850229D03*
X578113Y17487D03*
Y347100D03*
Y606700D03*
Y850229D03*
G54D20*
X67400Y89400D03*
X80400D03*
X103200Y420000D03*
X116200D03*
X120700Y130500D03*
X133700D03*
X172600Y814600D03*
X177800Y437700D03*
X190800D03*
X185600Y814600D03*
X209200Y237350D03*
X222200D03*
X268700Y235650D03*
X281700D03*
X367000Y449351D03*
X380000D03*
X381500Y260700D03*
X390997Y135616D03*
X394500Y260700D03*
X397197Y309516D03*
X403797Y104316D03*
X403997Y135616D03*
X406897Y208916D03*
X410197Y309516D03*
X416797Y104316D03*
X419897Y208916D03*
X414600Y232700D03*
X427600D03*
X433700Y522711D03*
X446700D03*
X454200Y309500D03*
X452600Y421750D03*
X462800Y208900D03*
X457000Y331850D03*
X467200Y309500D03*
X470000Y331850D03*
X465600Y421750D03*
X475800Y208900D03*
X481000Y421700D03*
X476900Y468089D03*
X489900D03*
X494000Y421700D03*
G54D30*
X198588Y384853D03*
X201416Y387681D03*
X231999Y406266D03*
X229171Y403438D03*
G54D12*
X17500Y58800D03*
X15400Y84600D03*
Y89600D03*
Y94600D03*
X21125Y90358D03*
X15400Y99600D03*
Y104600D03*
X21125Y100358D03*
X15400Y109600D03*
X21125Y110358D03*
X15400Y114600D03*
Y119600D03*
X21125Y120358D03*
X15400Y124600D03*
Y129600D03*
X21125Y130358D03*
X15400Y134600D03*
Y139600D03*
Y144600D03*
X21125Y140358D03*
X15400Y149600D03*
Y154600D03*
X21125Y150358D03*
X15400Y159600D03*
X21125Y160358D03*
X15400Y164600D03*
Y169600D03*
X21125Y170358D03*
X15400Y174600D03*
Y179600D03*
X21125Y180358D03*
X15400Y184600D03*
Y189600D03*
Y194600D03*
X21125Y190358D03*
X15400Y199600D03*
Y204600D03*
X21125Y200358D03*
X15400Y209600D03*
Y214600D03*
X21125Y210358D03*
X15400Y219600D03*
X21125Y220358D03*
X15400Y224600D03*
Y229600D03*
X21125Y230358D03*
Y240358D03*
X15400Y244600D03*
Y249600D03*
Y254600D03*
X21125Y250358D03*
X15400Y259600D03*
Y264600D03*
X21125Y260358D03*
X15400Y269600D03*
Y274600D03*
X21125Y270358D03*
X15400Y279600D03*
X21125Y280358D03*
X14400Y336100D03*
Y341100D03*
Y346100D03*
Y351100D03*
Y356100D03*
X21125Y356358D03*
X14400Y361100D03*
Y366100D03*
X21125Y361358D03*
X14400Y371100D03*
Y376100D03*
X21125Y376358D03*
X14400Y381100D03*
X21125Y381358D03*
X14400Y386100D03*
Y391100D03*
X21125Y391358D03*
X14400Y396100D03*
Y401100D03*
X21125Y401358D03*
X14400Y406100D03*
Y411100D03*
Y416100D03*
X21125Y411358D03*
X14400Y421100D03*
Y426100D03*
X21125Y421358D03*
X14400Y431100D03*
X21125Y431358D03*
X14400Y436100D03*
Y441100D03*
X21125Y441358D03*
X14400Y446100D03*
Y451100D03*
Y456100D03*
Y461100D03*
X21125Y456358D03*
X14400Y466100D03*
Y471100D03*
Y476100D03*
X21125Y471358D03*
X14400Y481100D03*
X21125Y481358D03*
X14400Y491100D03*
X21125Y491358D03*
X14400Y496100D03*
Y501100D03*
X21125Y501358D03*
X14400Y506100D03*
Y511100D03*
X21125Y511358D03*
X14400Y516100D03*
X21125Y516358D03*
X14400Y521100D03*
Y526100D03*
X21125Y521358D03*
Y526358D03*
X14400Y531100D03*
X21125Y531358D03*
X14000Y587200D03*
Y592200D03*
Y597200D03*
X21125Y592358D03*
X14000Y602200D03*
X21125Y602358D03*
X14000Y607200D03*
Y612200D03*
X21125Y612358D03*
X14000Y617200D03*
Y622200D03*
X21125Y622358D03*
X14000Y627200D03*
Y632200D03*
Y637200D03*
X21125Y632358D03*
X14000Y642200D03*
Y647200D03*
X21125Y642358D03*
X14000Y652200D03*
X21125Y652358D03*
X14000Y657200D03*
Y662200D03*
X21125Y662358D03*
X14000Y667200D03*
Y672200D03*
X21125Y672358D03*
X14000Y677200D03*
Y682200D03*
Y687200D03*
X21125Y682358D03*
X14000Y692200D03*
Y697200D03*
X21125Y692358D03*
X14000Y702200D03*
Y707200D03*
X21125Y702358D03*
X14000Y712200D03*
X21125Y712358D03*
X14000Y717200D03*
Y722200D03*
X21125Y722358D03*
X14000Y727200D03*
Y732200D03*
X21125Y732358D03*
X14000Y737200D03*
Y742200D03*
Y747200D03*
X21125Y742358D03*
X14000Y752200D03*
Y757200D03*
X21125Y752358D03*
X14000Y762200D03*
X21125Y762358D03*
X14000Y767200D03*
Y772200D03*
X21125Y772358D03*
X14000Y777200D03*
Y782200D03*
X21125Y782358D03*
X36800Y44200D03*
X33075Y85358D03*
Y95358D03*
Y105358D03*
Y115358D03*
Y125358D03*
Y135358D03*
Y145358D03*
Y155358D03*
Y165358D03*
Y175358D03*
Y185358D03*
Y195358D03*
Y205358D03*
Y215358D03*
Y225358D03*
Y235358D03*
Y245358D03*
Y255358D03*
Y265358D03*
Y275358D03*
Y386358D03*
Y396358D03*
Y406358D03*
Y416358D03*
Y426358D03*
Y436358D03*
Y446358D03*
Y451358D03*
Y466358D03*
Y471358D03*
Y476358D03*
Y486358D03*
Y496358D03*
Y506358D03*
Y516358D03*
Y526358D03*
Y521358D03*
Y531358D03*
Y587358D03*
Y597358D03*
Y607358D03*
Y617358D03*
Y627358D03*
Y637358D03*
Y647358D03*
Y657358D03*
Y667358D03*
Y677358D03*
Y687358D03*
Y697358D03*
Y707358D03*
Y717358D03*
Y727358D03*
Y737358D03*
Y747358D03*
Y757358D03*
Y767358D03*
Y777358D03*
X41200Y9400D03*
X40700Y315400D03*
X46300Y329700D03*
X43800Y343900D03*
X43000Y353600D03*
X39800Y363300D03*
X39900Y373300D03*
X43500Y436500D03*
X45400Y506300D03*
X44400Y527400D03*
X43400Y547700D03*
X52300Y75300D03*
X49100Y88700D03*
X52000Y305100D03*
X60700Y319000D03*
X60000Y436200D03*
X59000Y495500D03*
X64200Y505600D03*
X58300Y518400D03*
X60400Y533700D03*
X63700Y852700D03*
X68800Y7900D03*
X72900Y329500D03*
X72200Y485200D03*
X71300Y704700D03*
X78100Y415800D03*
X81000Y517900D03*
X81600Y118800D03*
X87200Y269800D03*
X86400Y344300D03*
X85100Y352600D03*
X82500Y363500D03*
X81800Y373500D03*
X88100Y423500D03*
X85400Y471000D03*
X86800Y495400D03*
X84600Y592700D03*
X88700Y686900D03*
X85200Y833800D03*
X96800Y8400D03*
X95500Y132100D03*
X96400Y520800D03*
X102800Y404336D03*
X101300Y485700D03*
X101900Y575500D03*
X110300Y470900D03*
X111000Y506300D03*
X110800Y664100D03*
X111800Y856900D03*
X120500Y7100D03*
X117000Y84000D03*
X117800Y302300D03*
X120400Y383300D03*
X121800Y496000D03*
X115900Y561100D03*
X118600Y766800D03*
X124900Y158500D03*
X124100Y432700D03*
X127800Y442136D03*
X130400Y546900D03*
X126800Y728600D03*
X130300Y825900D03*
X140600Y95200D03*
X137000Y319100D03*
X133800Y640400D03*
X132900Y803700D03*
X145700Y180200D03*
X146600Y529100D03*
X156000Y9100D03*
X153000Y37600D03*
X156594Y774240D03*
X149900Y856900D03*
X159000Y79100D03*
X159700Y197500D03*
X158300Y342300D03*
X160200Y422800D03*
X159600Y616100D03*
X163100Y677400D03*
X166800Y511500D03*
X172100Y738300D03*
X182200Y592000D03*
X177900Y663000D03*
X178900Y677800D03*
X188700Y203500D03*
X187800Y222500D03*
X185900Y423100D03*
X189800Y848100D03*
X199300Y480800D03*
X195800Y645600D03*
X193400Y662100D03*
X201700Y183900D03*
X210900Y646600D03*
X209700Y752100D03*
X224600Y549000D03*
X225300Y631300D03*
X225100Y738800D03*
X224400Y851600D03*
X228500Y269100D03*
X231200Y756300D03*
X230500Y829100D03*
X239500Y280400D03*
X237100Y680500D03*
X244200Y252400D03*
X258100Y177700D03*
X255900Y198600D03*
X251800Y240000D03*
X252100Y267000D03*
X253800Y322400D03*
X269900Y304300D03*
X270400Y366400D03*
X281900Y176600D03*
X281100Y801600D03*
X286400Y288200D03*
X289500Y345200D03*
X292700Y372900D03*
X289500Y662600D03*
Y722600D03*
Y752600D03*
Y782600D03*
X298128Y333664D03*
X294100Y487400D03*
X308200Y177400D03*
X303400Y194800D03*
X306600Y270900D03*
X308500Y358800D03*
X308200Y615000D03*
X314900Y385800D03*
X318700Y635800D03*
X326200Y11100D03*
X322900Y197200D03*
X319500Y692600D03*
Y782600D03*
X332000Y109800D03*
X333500Y128100D03*
X334800Y175600D03*
X329546Y303513D03*
X335780Y327572D03*
X332653Y334666D03*
X335800Y802500D03*
X337000Y294400D03*
X337300Y537700D03*
X342700Y701400D03*
X337300Y758400D03*
X345600Y34200D03*
X350800Y238100D03*
X349700Y315900D03*
X349500Y662600D03*
Y782600D03*
X360300Y12700D03*
X354200Y116400D03*
X360600Y210700D03*
X361300Y285000D03*
X362600Y87700D03*
X366900Y570900D03*
X363700Y737800D03*
X372800Y101700D03*
X378400Y120600D03*
X373000Y147400D03*
X371300Y171400D03*
X376300Y212100D03*
X373600Y354600D03*
X377100Y463600D03*
X384800Y22800D03*
X382500Y49800D03*
X379300Y287100D03*
X387000Y370000D03*
X380200Y573700D03*
X379500Y692600D03*
Y722600D03*
Y752600D03*
Y782600D03*
X379400Y800900D03*
X391500Y473500D03*
X387600Y674900D03*
X400800Y354400D03*
X403500Y449300D03*
X399200Y467100D03*
X398800Y500700D03*
X407600Y156500D03*
X407000Y189000D03*
X409500Y662600D03*
Y692600D03*
Y782600D03*
X414900Y9400D03*
Y39400D03*
Y69400D03*
X412600Y150200D03*
X413000Y281400D03*
X418200Y532600D03*
X416500Y546400D03*
X427100Y81400D03*
X426200Y165600D03*
X423300Y180000D03*
X422400Y448600D03*
X423500Y472800D03*
X428200Y566900D03*
X424200Y737100D03*
X424700Y796700D03*
X432800Y156384D03*
X432500Y166400D03*
X432800Y175284D03*
Y260384D03*
X432200Y271000D03*
X436800Y336800D03*
X432800Y383600D03*
X431600Y399700D03*
X437700Y427600D03*
X435100Y468900D03*
X444900Y9400D03*
Y39400D03*
Y69400D03*
X441300Y328300D03*
X440200Y452600D03*
X439200Y546300D03*
X440700Y578400D03*
X446600Y146884D03*
X447450Y158050D03*
X447200Y164200D03*
X446600Y250884D03*
X447100Y262200D03*
X447300Y268100D03*
X446600Y279284D03*
X452200Y379800D03*
X452800Y476000D03*
X447700Y500400D03*
X451800Y534300D03*
X450600Y761400D03*
X458900Y372800D03*
X464316Y176784D03*
X465100Y252484D03*
Y280784D03*
X469600Y397400D03*
X463700Y725500D03*
X474900Y9400D03*
Y39400D03*
Y69400D03*
X472000Y145584D03*
X484600Y687200D03*
X483300Y742800D03*
X492100Y447100D03*
X504900Y9400D03*
Y39400D03*
Y69400D03*
X506600Y337700D03*
X511100Y372100D03*
X508500Y444600D03*
X507900Y454300D03*
X507600Y469000D03*
X521000Y165600D03*
X520600Y721500D03*
X525100Y150500D03*
X530700Y177000D03*
X525100Y252700D03*
Y270000D03*
X525700Y616700D03*
X529400Y688700D03*
X534900Y9400D03*
Y39400D03*
Y69400D03*
X531700Y278600D03*
X536900Y592600D03*
X547500Y254300D03*
X545600Y314000D03*
X547900Y435500D03*
X542000Y459500D03*
X540000Y468400D03*
X550900Y145400D03*
X554400Y175900D03*
X551000Y279500D03*
X552100Y334100D03*
X553500Y415400D03*
X552500Y608100D03*
X556000Y793800D03*
X550700Y828100D03*
X560600Y68300D03*
X557900Y159600D03*
X563000Y257800D03*
X562400Y383300D03*
X577200Y43100D03*
X581600Y329400D03*
X573800Y649500D03*
X574200Y678900D03*
X582200Y822600D03*
X587500Y83900D03*
X584200Y311200D03*
X587800Y434200D03*
X587700Y460000D03*
X583200Y723000D03*
X586400Y784700D03*
G54D21*
X80500Y59000D03*
Y77000D03*
G54D31*
X223800Y102000D03*
X224100Y122000D03*
X234800Y102000D03*
X235100Y122000D03*
X286300Y130800D03*
X294600Y102200D03*
X297300Y130800D03*
X305600Y102200D03*
G54D22*
X104750Y35100D03*
G54D40*
X331750Y378574D03*
X349428Y360896D03*
G54D13*
X16726Y76658D03*
Y289058D03*
Y327658D03*
Y540058D03*
Y578658D03*
Y791058D03*
G54D23*
X124100Y442200D03*
Y436200D03*
X150400Y131000D03*
Y137000D03*
X169100Y764500D03*
Y770500D03*
Y778000D03*
Y784000D03*
X203400Y788700D03*
Y794700D03*
X203600Y806300D03*
Y812300D03*
X210000Y782200D03*
Y788200D03*
X211000Y796800D03*
Y802800D03*
X217000Y791000D03*
Y785000D03*
X232400Y212700D03*
Y206700D03*
X239700Y43300D03*
Y49300D03*
X247551Y409432D03*
Y403432D03*
X256600Y31300D03*
Y37300D03*
X286500Y30900D03*
Y36900D03*
X291300Y212400D03*
Y206400D03*
X394630Y230900D03*
Y236900D03*
X421930Y297000D03*
Y303000D03*
X431730Y196500D03*
Y202500D03*
X437900Y643800D03*
Y649800D03*
X462200Y487600D03*
Y493600D03*
X462000Y517500D03*
Y523500D03*
X468500Y547400D03*
Y553400D03*
X489620Y401300D03*
Y407300D03*
X516735Y763916D03*
Y769916D03*
X534535Y770116D03*
Y776116D03*
X564900Y418000D03*
Y412000D03*
G54D14*
X13500Y235334D03*
X19500D03*
X13000Y486334D03*
X19000D03*
X85200Y793700D03*
X91800Y400640D03*
X91200Y793700D03*
X97800Y400640D03*
X102800Y438760D03*
X101500Y739900D03*
X108800Y438760D03*
X107500Y739900D03*
X116500D03*
X122500D03*
X131500D03*
X132800Y438760D03*
X138800D03*
X137500Y739900D03*
X151600Y124000D03*
X157600D03*
X165300Y139700D03*
X169300Y118400D03*
X171300Y139700D03*
X178800Y20000D03*
Y31000D03*
Y42000D03*
Y53000D03*
Y75000D03*
X175300Y118400D03*
X184800Y20000D03*
Y31000D03*
Y42000D03*
Y53000D03*
Y75000D03*
X214900Y217100D03*
X220900D03*
Y224300D03*
X226900D03*
X273800Y216500D03*
X279800D03*
Y223900D03*
X285800D03*
X477500Y802840D03*
Y814700D03*
X481900Y148584D03*
X487900D03*
X481900Y154784D03*
X487900D03*
X481900Y161084D03*
X487900D03*
X481900Y166984D03*
X487900D03*
X481900Y173284D03*
X487900D03*
X481600Y253284D03*
X487600D03*
X481600Y259184D03*
X487600D03*
X481600Y265084D03*
X487600D03*
X481600Y270984D03*
X487600D03*
X481600Y276884D03*
X487600D03*
X483500Y802840D03*
Y814700D03*
X495500Y393800D03*
X489500D03*
X495300Y795900D03*
Y801800D03*
X501300Y795900D03*
Y801800D03*
Y815800D03*
X507300D03*
X515203Y413984D03*
X521203D03*
X515200Y424000D03*
X521200D03*
X520300Y815800D03*
X526300D03*
X543784Y756516D03*
X553000Y406100D03*
X555703Y460084D03*
X548000Y577500D03*
X554000D03*
X549784Y756516D03*
X559000Y406100D03*
X561703Y460084D03*
X560100Y577500D03*
X570900Y406100D03*
X564900D03*
X567803Y460084D03*
X566100Y577500D03*
X573803Y460084D03*
G54D32*
X224149Y406500D03*
Y410500D03*
Y445800D03*
Y449800D03*
X216351Y449600D03*
Y453600D03*
X226100Y388400D03*
Y384400D03*
X232151Y441500D03*
Y445500D03*
X240149Y397800D03*
Y401800D03*
X236049Y442000D03*
Y446000D03*
X239951Y465100D03*
Y461100D03*
X237949Y479268D03*
Y483268D03*
X247751Y414732D03*
X243951Y426200D03*
Y422200D03*
X247851Y425732D03*
X247751Y418732D03*
X247851Y429732D03*
X243851Y449900D03*
X247951Y449800D03*
X243851Y453900D03*
X247951Y453800D03*
X255551Y398700D03*
Y402700D03*
X255649Y417600D03*
X251763Y417811D03*
X255649Y421600D03*
X251651Y426000D03*
X251763Y421811D03*
X251651Y430000D03*
X255749Y426600D03*
Y430600D03*
X255651Y441000D03*
X251651Y441200D03*
Y437200D03*
X251751Y450100D03*
Y446100D03*
X255651Y445000D03*
X255700Y449600D03*
Y453600D03*
X251700Y465900D03*
Y461900D03*
X263549Y398468D03*
Y402468D03*
X259551Y417600D03*
X263449D03*
X259551Y421600D03*
X263449D03*
X259649Y426600D03*
Y430600D03*
X263500Y426600D03*
Y430600D03*
X259549Y450000D03*
X263551Y449832D03*
X259549Y454000D03*
X263551Y453832D03*
X263651Y465100D03*
Y469100D03*
X267551Y398300D03*
Y402300D03*
X271351Y414232D03*
X267451Y417532D03*
X271351Y418232D03*
X267451Y421532D03*
X267551Y430500D03*
Y426500D03*
X271551Y441700D03*
Y445700D03*
X267549Y449800D03*
Y453800D03*
X283349Y465868D03*
Y469868D03*
X277349Y479600D03*
Y483600D03*
X334651Y204749D03*
X330651D03*
X334651Y208749D03*
X330651D03*
X333600Y248200D03*
Y244200D03*
X342500Y204200D03*
Y208200D03*
X337600Y248100D03*
Y244100D03*
X478900Y637900D03*
Y641900D03*
X488500Y541600D03*
Y545600D03*
X503016Y485803D03*
Y481803D03*
X501900Y506600D03*
Y510600D03*
G54D41*
X439700Y189884D03*
Y293884D03*
X459400Y133784D03*
Y237784D03*
X479100Y189884D03*
Y293884D03*
X498800Y133784D03*
Y156184D03*
Y177384D03*
Y237784D03*
Y260184D03*
Y281384D03*
X516500Y189884D03*
Y293884D03*
X536200Y133784D03*
Y237784D03*
X555900Y189884D03*
Y293884D03*
X575500Y133784D03*
Y237784D03*
X575900Y167584D03*
Y271584D03*
G54D50*
X575864Y635057D03*
Y692143D03*
G54D60*
G01X21925Y235358D02*
X19524D01*
X19500Y235334D01*
G01X21925Y486358D02*
X19024D01*
X19000Y486334D01*
G01X21925Y85358D02*
X28157D01*
X244500Y301701D01*
Y394699D01*
X242462Y396737D01*
Y407838D01*
X240064Y410236D01*
X239926D01*
G01Y406299D02*
X237600Y403973D01*
Y394199D01*
X241100Y390699D01*
Y308999D01*
X27459Y95358D01*
X21925D01*
G01Y105358D02*
X28459D01*
X237500Y314399D01*
Y390399D01*
X235989Y391910D01*
Y402362D01*
G01Y406299D02*
X234100Y404410D01*
Y321000D01*
X28458Y115358D01*
X21925D01*
G01X232052Y398425D02*
Y379900D01*
X231200Y379048D01*
Y327299D01*
X29259Y125358D01*
X21925D01*
G01Y135358D02*
X29059D01*
X227700Y333999D01*
Y379300D01*
X230000Y381600D01*
Y400200D01*
X232052Y402252D01*
Y402362D01*
G01X224178Y398425D02*
Y391977D01*
X222200Y389999D01*
Y338499D01*
X29059Y145358D01*
X21925D01*
G01X224178Y402362D02*
X222400Y400584D01*
Y392900D01*
X219300Y389800D01*
Y345199D01*
X29459Y155358D01*
X21925D01*
G01X220241Y398425D02*
Y393541D01*
X215900Y389200D01*
Y352899D01*
X28359Y165358D01*
X21925D01*
G01X220241Y410236D02*
X220236D01*
X218200Y408200D01*
Y394400D01*
X212100Y388300D01*
Y358301D01*
X29157Y175358D01*
X21925D01*
G01X212367Y398425D02*
Y394167D01*
X207300Y389100D01*
Y364299D01*
X28359Y185358D01*
X21925D01*
G01Y195358D02*
X28859D01*
X74100Y240599D01*
Y275900D01*
X198600Y400400D01*
X214342D01*
X216304Y402362D01*
G01X212367D02*
X192763D01*
X62200Y271799D01*
Y238901D01*
X28657Y205358D01*
X21925D01*
G01Y215358D02*
X24467Y217900D01*
X34200D01*
X51700Y235400D01*
Y269300D01*
X187400Y405000D01*
X210900D01*
X211400Y404500D01*
X214505D01*
X216304Y406299D01*
G01X21925Y225358D02*
X24367Y227800D01*
X36301D01*
X43400Y234899D01*
Y266800D01*
X184300Y407700D01*
X210300D01*
X211100Y408500D01*
X214568D01*
X216304Y410236D01*
G01X21925Y245358D02*
X28400Y251833D01*
Y256500D01*
X181900Y410000D01*
X208195D01*
X212367Y414172D01*
G01X21925Y396358D02*
X28043D01*
X40243Y384158D01*
X109158D01*
X170500Y445500D01*
X208599D01*
X212367Y441732D01*
G01X216304Y445669D02*
X212731D01*
X211100Y447300D01*
X88500D01*
X69000Y427800D01*
X39601D01*
X28159Y416358D01*
X21925D01*
G01X212367Y449606D02*
X73906D01*
X65600Y441300D01*
X26867D01*
X21925Y436358D01*
G01X212367Y453543D02*
X210757D01*
X206700Y457600D01*
X28167D01*
X21925Y451358D01*
G01X212367Y457480D02*
X210219D01*
X208299Y459400D01*
X23883D01*
X21925Y461358D01*
G01Y476358D02*
Y474396D01*
X34921Y461400D01*
X209700D01*
X211700Y459400D01*
X214400D01*
X216304Y457496D01*
Y457480D01*
G01Y461417D02*
X216283D01*
X214300Y463400D01*
X74500D01*
X36600Y501300D01*
X26983D01*
X21925Y506358D01*
G01X212367Y465353D02*
X160248D01*
X28243Y597358D01*
X21925D01*
G01X216304Y465354D02*
X216246D01*
X214500Y467100D01*
X188700D01*
X28442Y627358D01*
X21925D01*
G01X228115Y465354D02*
X222746D01*
X220100Y468000D01*
Y480500D01*
X58200Y642400D01*
X26883D01*
X21925Y647358D01*
G01X235989Y465353D02*
X234300Y467042D01*
Y471600D01*
X230600Y475300D01*
Y525000D01*
X35600Y720000D01*
X29283D01*
X21925Y727358D01*
G01Y717358D02*
X28242D01*
X222800Y522800D01*
Y468900D01*
X224600Y467100D01*
X230200D01*
X231947Y465353D01*
X232052D01*
G01X41000Y744900D02*
X24383D01*
X21925Y747358D01*
G01Y757358D02*
X26783Y752500D01*
X45299D01*
X239926Y557873D01*
Y469290D01*
G01X21925Y767358D02*
X26883Y762400D01*
X51400D01*
X242500Y571300D01*
Y470653D01*
X247800Y465353D01*
G01X21925Y777358D02*
X27083Y772200D01*
X56300D01*
X246000Y582500D01*
Y471090D01*
X247800Y469290D01*
G01X41000Y744900D02*
X46100D01*
X233900Y557100D01*
Y476700D01*
X235989Y474611D01*
Y469290D01*
G01X85200Y802100D02*
Y793700D01*
G01Y791000D02*
Y793700D01*
G01X97800Y403536D02*
Y400640D01*
G01X102800Y438760D02*
Y441500D01*
G01X116600Y736300D02*
Y739800D01*
X116500Y739900D01*
G01X132800Y438760D02*
Y441336D01*
G01X137500Y736300D02*
Y739900D01*
G01X148000Y118300D02*
X145300D01*
G01X158600Y148800D02*
X152400D01*
G01Y154800D02*
Y157400D01*
G01X163200Y112400D02*
Y106500D01*
G01Y112400D02*
X176500Y99100D01*
X198800D01*
X237700Y60200D01*
X249200D01*
X251800Y57600D01*
G01X163159Y122400D02*
Y118441D01*
X163200Y118400D01*
G01X157648Y127372D02*
Y124048D01*
X157600Y124000D01*
G01X158600Y148800D02*
Y146191D01*
X161191Y143600D01*
G01X158600Y154800D02*
Y157400D01*
G01X266800Y57600D02*
X264700Y59700D01*
Y63800D01*
X263600Y64900D01*
X237300D01*
X198200Y104000D01*
X178100D01*
X172400Y109700D01*
G01X193328Y116883D02*
X189117D01*
X182200Y123800D01*
X176180D01*
X172608Y127372D01*
G01X169065Y143600D02*
Y141935D01*
X171300Y139700D01*
G01X171500Y148700D02*
Y146035D01*
X169065Y143600D01*
G01X165100Y148800D02*
Y143628D01*
X165128Y143600D01*
G01X167096D02*
Y141496D01*
X165300Y139700D01*
G01X165100Y154800D02*
Y157400D01*
G01X171500Y154700D02*
Y157300D01*
G01X180651Y692800D02*
Y690200D01*
G01X180636Y705300D02*
Y698815D01*
X180651Y698800D01*
G01X184800Y20000D02*
X187400D01*
G01X184800Y31000D02*
X187400D01*
G01X184800Y42000D02*
X187400D01*
G01X184800Y53000D02*
X187400D01*
G01X184800Y75000D02*
X187400D01*
G01X181700Y785600D02*
X191800D01*
G01X181800Y798600D02*
X191800D01*
G01X193198Y124803D02*
Y117013D01*
X193328Y116883D01*
G01X190651Y692800D02*
Y690200D01*
G01X190636Y705300D02*
Y698815D01*
X190651Y698800D01*
G01X203400Y788700D02*
X194900D01*
X191800Y785600D01*
G01Y798600D02*
X197600D01*
X201500Y794700D01*
X203400D01*
G01X200651Y692800D02*
Y690200D01*
G01X200636Y705300D02*
Y698815D01*
X200651Y698800D01*
G01X199719Y790781D02*
X201319D01*
X203400Y788700D01*
G01X206431Y798458D02*
X209342D01*
X211000Y796800D01*
G01X199660Y793340D02*
X202040D01*
X203400Y794700D01*
G01X206431Y801017D02*
X209217D01*
X211000Y802800D01*
G01X210651Y690200D02*
Y692800D01*
G01X210636Y705300D02*
Y698815D01*
X210651Y698800D01*
G01X211000Y796800D02*
X217000D01*
G01Y802800D02*
X211000D01*
G01X217000Y796800D02*
Y791000D01*
G01X227000Y796700D02*
X217100D01*
X217000Y796800D01*
G01Y808700D02*
Y802800D01*
G01X264340Y812900D02*
Y815500D01*
G01X264300Y838100D02*
Y821540D01*
X264340Y821500D01*
G01X476784Y343800D02*
X422800D01*
X360600Y406000D01*
X299300D01*
X293200Y412100D01*
X281368D01*
X279295Y414173D01*
G01X476784Y353800D02*
X431500D01*
X372400Y412900D01*
X300901D01*
X297601Y416200D01*
X281205D01*
X279295Y418110D01*
G01Y422047D02*
X382037D01*
X437784Y366300D01*
G01X275358Y429921D02*
X409279D01*
X435400Y403800D01*
X476784D01*
G01X465900Y539730D02*
X414330D01*
X326100Y451500D01*
X281100D01*
X279295Y449695D01*
Y449605D01*
G01Y453542D02*
X287053Y461300D01*
X319800D01*
X400789Y542289D01*
X465900D01*
G01X441500Y636102D02*
Y612800D01*
X291800Y463100D01*
X280979D01*
X279295Y461416D01*
G01X476784Y346300D02*
X430000D01*
X366200Y410100D01*
X299601D01*
X295528Y414173D01*
X283232D01*
G01X485984Y361300D02*
X433400D01*
X376590Y418110D01*
X283232D01*
G01X476784Y391300D02*
X435400D01*
X400716Y425984D01*
X283232D01*
G01Y437794D02*
X417306D01*
X443800Y411300D01*
X476784D01*
G01X314340Y812900D02*
Y815500D01*
G01X314300Y838100D02*
Y821540D01*
X314340Y821500D01*
G01X342500Y204200D02*
Y201850D01*
G01X342490Y211050D02*
Y208210D01*
X342500Y208200D01*
G01X364240Y812900D02*
Y815500D01*
G01X364300Y838100D02*
Y821560D01*
X364240Y821500D01*
G01X414340Y815500D02*
Y812900D01*
G01X414300Y838100D02*
Y821540D01*
X414340Y821500D01*
G01X462039Y798206D02*
X464320D01*
G01X468060Y808706D02*
Y812040D01*
G01X464300Y815400D02*
Y808726D01*
X464320Y808706D01*
G01X464300Y838100D02*
Y821400D01*
G01X475000Y115400D02*
Y151684D01*
X478100Y154784D01*
G01Y151684D02*
X481200Y148584D01*
X481900D01*
G01X478100Y157884D02*
X481200Y154784D01*
X481900D01*
G01X478100Y164184D02*
X480900Y166984D01*
X481900D01*
G01X478100Y170484D02*
X480900Y173284D01*
X481900D01*
G01X481600Y259184D02*
X480800D01*
X478100Y261884D01*
G01X481600Y253284D02*
X480500D01*
X478100Y255684D01*
G01X481600Y270984D02*
X480900D01*
X478100Y268184D01*
G01X481600Y276884D02*
X480500D01*
X478100Y274484D01*
G01Y277684D02*
Y281100D01*
X483200Y286200D01*
X487500D01*
X498200Y296900D01*
Y307600D01*
G01X478100Y161084D02*
X481900D01*
G01X481600Y265084D02*
X478100D01*
G01X501300Y815800D02*
Y807651D01*
G01X515203Y413984D02*
X508696D01*
X508680Y414000D01*
G01X515200Y424000D02*
X508680D01*
G01X514300Y815800D02*
X507300D01*
G01X514331Y794033D02*
Y797200D01*
G01X514300Y815800D02*
X520300D01*
G01X514300Y838100D02*
Y821800D01*
G01X521600Y393970D02*
X524300D01*
G01X521203Y413984D02*
X523803D01*
G01X521200Y424000D02*
X523800D01*
G01X520917Y756485D02*
X524084D01*
G01X538680Y394000D02*
X532100D01*
G01X543784Y756516D02*
X534615D01*
X534584Y756485D01*
G01X543784Y768416D02*
X540383D01*
X538683Y770116D01*
X534535D01*
G01X538997Y339016D02*
X541697D01*
G01X538997Y358966D02*
X541697D01*
G01X538680Y394000D02*
Y390420D01*
X556100Y373000D01*
G01X543784Y750516D02*
Y756516D01*
G01D02*
Y762416D01*
G01X554000Y577500D02*
Y558356D01*
X560250Y552106D01*
G01X554000Y577500D02*
X560100D01*
G01X566084Y756516D02*
X549784D01*
G01X564900Y406100D02*
X559000D01*
G01X561703Y460084D02*
X567803D01*
G01X564900Y406100D02*
Y412000D01*
G01X575600Y406118D02*
X570918D01*
X570900Y406100D01*
G01X567750Y412000D02*
X564900D01*
G01X567803Y460084D02*
Y460184D01*
X577600Y469981D01*
Y477515D01*
X573636Y481479D01*
X570750D01*
G01X566100Y577500D02*
Y580200D01*
G01X573803Y460084D02*
Y457384D01*
G54D51*
X578113Y392240D03*
Y409760D03*
G54D24*
X148000Y112300D03*
Y118300D03*
X146500Y740000D03*
Y746000D03*
X152400Y154800D03*
Y148800D03*
X163200Y100500D03*
Y106500D03*
Y112400D03*
Y118400D03*
X165100Y148800D03*
Y154800D03*
X158600Y148800D03*
Y154800D03*
X171500Y148700D03*
Y154700D03*
X180651Y692800D03*
Y698800D03*
X190651Y692800D03*
Y698800D03*
X193198Y124803D03*
Y130803D03*
X200651Y692800D03*
Y698800D03*
X210651Y692800D03*
Y698800D03*
X217000Y796800D03*
Y802800D03*
Y808700D03*
Y814700D03*
X245700Y43300D03*
Y49300D03*
X251600Y43300D03*
Y49300D03*
X261800Y43300D03*
Y49300D03*
X264340Y815500D03*
Y821500D03*
X275800Y43300D03*
X267700D03*
X275800Y49300D03*
X267700D03*
X271800Y56800D03*
Y62800D03*
X281700Y43300D03*
Y49300D03*
X290598Y43329D03*
Y49329D03*
X296500Y43300D03*
Y49300D03*
X302500Y43300D03*
Y49300D03*
X314340Y815500D03*
Y821500D03*
X364240Y815500D03*
Y821500D03*
X414340Y815500D03*
Y821500D03*
X445000Y115403D03*
Y121403D03*
X469000Y115403D03*
Y121403D03*
X464300Y815400D03*
Y821400D03*
X481000Y115403D03*
Y121403D03*
X492100Y307597D03*
Y301597D03*
X504100Y307597D03*
Y301597D03*
X514300Y815800D03*
Y821800D03*
X528200Y307597D03*
Y301597D03*
X522684Y770116D03*
X528584D03*
X522684Y776116D03*
X528584D03*
X532100Y388000D03*
Y394000D03*
X543784Y744516D03*
Y750516D03*
Y762416D03*
Y768416D03*
G54D33*
X220636Y715300D03*
X451000Y115400D03*
X463000D03*
X475000D03*
X498200Y307600D03*
X510200D03*
X522200D03*
X556100Y363000D03*
G54D42*
X451000Y105400D03*
X455900Y142984D03*
Y180784D03*
Y246984D03*
Y284784D03*
X463000Y105400D03*
X475000D03*
X498200Y317600D03*
X510200D03*
X522200D03*
X556100Y373000D03*
G54D15*
G01X60200Y50300D02*
X59700D01*
X58200Y51800D01*
G01X60200Y50300D02*
X58400Y48500D01*
G01X63500Y50300D02*
X60200D01*
G01X100200Y87100D02*
X103300D01*
G01X148000Y112300D02*
X144900D01*
G01X151600Y124000D02*
Y127700D01*
G01X184900Y133000D02*
X187300D01*
X188000Y132300D01*
G01X184900Y138900D02*
X188000D01*
G01X193198Y130803D02*
Y133803D01*
G01X198600Y412249D02*
X195850D01*
G01X204500Y398349D02*
X201750D01*
G01X204493Y412204D02*
X202645D01*
X202600Y412249D01*
G01X204400Y441649D02*
X201650D01*
G01X210000Y788200D02*
X206853D01*
X206831Y788222D01*
G01X305900Y57700D02*
Y54450D01*
G01X319049Y211149D02*
X316299D01*
G01X319049Y207149D02*
X316299D01*
G01X310805Y229300D02*
X310900Y229205D01*
Y228700D01*
X312698Y226902D01*
X313758D01*
G01X323049Y211149D02*
X325799D01*
G01X323049Y207149D02*
X325799D01*
G01X330651Y204749D02*
Y201999D01*
G01X334651Y204749D02*
Y201999D01*
G01X354551Y218551D02*
Y216051D01*
G01X355000Y224500D02*
Y227000D01*
G01X354451Y230351D02*
X357201D01*
G01X390300Y157400D02*
X387200D01*
G01X396300D02*
X399400D01*
G01X394630Y230900D02*
X397880D01*
G01X421930Y297000D02*
Y293900D01*
G01X424200Y323900D02*
X421140D01*
G01X429500Y115580D02*
X432600D01*
G01X431730Y196500D02*
X434980D01*
G01X427900Y315930D02*
X431000D01*
G01X430200Y323900D02*
X433300D01*
G01X445000Y121403D02*
X441900D01*
G01X440700Y214580D02*
Y217830D01*
G01X445000Y115403D02*
X450997D01*
X451000Y115400D01*
G01X469000Y115403D02*
X463003D01*
X463000Y115400D01*
G01X469000Y121403D02*
Y124403D01*
G01X481000Y115403D02*
X475003D01*
X475000Y115400D01*
G01X473400Y437600D02*
X470300D01*
G01X481000Y121403D02*
X484100D01*
G01X492100Y301597D02*
X489000D01*
G01X492100Y307597D02*
X498197D01*
X498200Y307600D01*
G01X495900Y437560D02*
X499000D01*
G01X504100Y301597D02*
Y298597D01*
G01X510200Y307600D02*
X504103D01*
X504100Y307597D01*
G01X528200Y301597D02*
Y298597D01*
G01X522200Y307600D02*
X528197D01*
X528200Y307597D01*
G01X532100Y388000D02*
X529000D01*
G01X553000Y406100D02*
X550000D01*
G01X564900Y418000D02*
X561650D01*
X21925Y85358D03*
Y95358D03*
Y105358D03*
Y115358D03*
Y125358D03*
Y135358D03*
Y145358D03*
Y155358D03*
Y165358D03*
Y175358D03*
Y185358D03*
Y195358D03*
Y205358D03*
Y215358D03*
Y225358D03*
Y235358D03*
Y245358D03*
X20588Y347612D03*
Y350087D03*
X20700Y370100D03*
Y367625D03*
X21925Y386358D03*
Y396358D03*
Y406358D03*
Y416358D03*
Y426358D03*
Y436358D03*
Y446358D03*
Y451358D03*
Y466358D03*
Y461358D03*
Y476358D03*
Y486358D03*
Y496358D03*
Y506358D03*
Y587358D03*
Y597358D03*
Y607358D03*
Y617358D03*
Y627358D03*
Y637358D03*
Y647358D03*
Y657358D03*
Y667358D03*
Y677358D03*
Y687358D03*
Y697358D03*
Y707358D03*
Y717358D03*
Y727358D03*
Y737358D03*
Y747358D03*
Y757358D03*
Y767358D03*
Y777358D03*
X35137Y340095D03*
Y337620D03*
Y357621D03*
Y360096D03*
X36365Y380096D03*
Y377621D03*
X85200Y791000D03*
X97800Y403536D03*
X102800Y441500D03*
X116600Y736300D03*
X132800Y403536D03*
Y441336D03*
X137500Y736300D03*
X145300Y118300D03*
X154586Y141250D03*
X152400Y157400D03*
X155100D03*
X157648Y127372D03*
X163159Y122400D03*
X161191Y143600D03*
X158600Y157400D03*
X161900D03*
X172400Y109700D03*
X172608Y127372D03*
X169065Y143600D03*
X165128D03*
X167096D03*
X168300Y157400D03*
X165100D03*
X171500Y157300D03*
X172800Y499800D03*
X175900Y132960D03*
X175600Y137500D03*
X180700Y359500D03*
X177700Y362100D03*
X175600Y364400D03*
X180100Y373000D03*
X177200Y370600D03*
X174800Y367600D03*
X174900Y501700D03*
X177400Y504300D03*
X179000Y506100D03*
X180651Y690200D03*
X187400Y20000D03*
Y31000D03*
Y42000D03*
Y53000D03*
Y75000D03*
X188700Y363900D03*
X186600Y361500D03*
X184600Y359900D03*
X189900Y382600D03*
X187600Y380300D03*
X185100Y377900D03*
X188300Y451500D03*
X189900Y482000D03*
X196300Y371100D03*
X194000Y369100D03*
X196400Y381700D03*
X197600Y377500D03*
X195200Y379900D03*
X192800Y382300D03*
X194400Y385300D03*
Y388000D03*
X196500Y435300D03*
X196700Y437700D03*
X196400Y441500D03*
X195982Y451949D03*
X195950Y471251D03*
X191700Y484000D03*
X195600Y488100D03*
X193600Y485800D03*
X192400Y576000D03*
X194500Y578100D03*
X196900Y580100D03*
X190651Y690200D03*
X199100Y373500D03*
X201300Y377400D03*
Y380300D03*
X204493Y390551D03*
Y412204D03*
Y422046D03*
Y437794D03*
X204361Y451574D03*
X204493Y455511D03*
Y471259D03*
X204600Y575800D03*
X201100Y579200D03*
X200651Y690200D03*
X200097Y785663D03*
X206431Y798458D03*
X199719Y790781D03*
X199660Y793340D03*
X206431Y801017D03*
X208430Y398425D03*
X212367D03*
Y406299D03*
Y402362D03*
Y414172D03*
X212366Y422046D03*
X212367Y418109D03*
X208429Y422047D03*
Y433857D03*
X212400Y430000D03*
X208429Y429920D03*
X208430Y425984D03*
X212367Y437794D03*
X208430Y441731D03*
X212367Y441732D03*
X208429Y437795D03*
X212367Y449606D03*
Y453543D03*
Y457480D03*
X212366Y461416D03*
X212367Y465353D03*
Y469290D03*
X213600Y561500D03*
X209700Y557700D03*
X215400Y564100D03*
X212800Y567900D03*
X210100Y570700D03*
X210651Y690200D03*
X216304Y398425D03*
Y394488D03*
X220241Y398425D03*
X220400Y402300D03*
X216304Y406299D03*
Y402362D03*
X220241Y406299D03*
Y414173D03*
X216304D03*
X220241Y410236D03*
X216304D03*
X220200Y418100D03*
X216303Y418110D03*
X216304Y422047D03*
X220240Y422046D03*
Y433858D03*
X220241Y425984D03*
X216303D03*
X220241Y441732D03*
X220100Y437700D03*
X216303Y437795D03*
X216304Y441732D03*
X216303Y449605D03*
X220240Y449606D03*
X220241Y445669D03*
X216304D03*
Y453543D03*
X220241D03*
Y457480D03*
X216304D03*
X220241Y461417D03*
X216304D03*
Y465354D03*
X220241D03*
X216304Y469291D03*
X218272Y477164D03*
X228165Y202500D03*
X226146Y390551D03*
X228115Y398425D03*
X232052D03*
X224178D03*
X232052Y406299D03*
X224177Y406298D03*
X228115Y402362D03*
X224178D03*
X232052D03*
X228115Y406299D03*
X224178Y410236D03*
X232052D03*
X224178Y414173D03*
X228115Y410236D03*
X228200Y418100D03*
X232000Y422100D03*
X224177Y422047D03*
X228115Y422046D03*
X232052Y418110D03*
X224177Y418109D03*
X228000Y433900D03*
X224178Y425984D03*
X232051Y433857D03*
X224178D03*
X228114Y425983D03*
X228100Y437800D03*
X231900Y437700D03*
X232051Y441731D03*
X224177D03*
X224178Y437795D03*
X232052Y445669D03*
X224178Y445668D03*
X231937Y449700D03*
X224178Y449606D03*
X232051Y457480D03*
X232052Y453542D03*
X228115Y457479D03*
Y453542D03*
X224178Y453543D03*
Y457480D03*
X232052Y461416D03*
X228115Y465354D03*
X224178Y461417D03*
X232052Y465353D03*
X228114Y469291D03*
X232052Y469290D03*
X239925Y398424D03*
X239926Y402362D03*
Y406299D03*
X235989Y402362D03*
Y406299D03*
X235988Y414173D03*
X239925D03*
X235989Y410236D03*
X239926D03*
X235989Y418109D03*
Y422047D03*
X239926D03*
Y418109D03*
X239925Y425984D03*
X235989Y433858D03*
X239926Y433857D03*
X235988Y425984D03*
Y441731D03*
X235837Y437700D03*
X239925Y437795D03*
X239926Y445668D03*
X235988D03*
X235989Y449605D03*
X239926D03*
X235989Y457479D03*
X239926D03*
Y453542D03*
X235988Y453543D03*
X239926Y465353D03*
Y461416D03*
X235989D03*
Y465353D03*
Y469290D03*
X239926D03*
X237957Y477164D03*
X237949Y485618D03*
X248500Y368900D03*
X248600Y372800D03*
X247799Y390551D03*
Y394488D03*
Y398425D03*
X243862D03*
X247799Y406299D03*
Y402362D03*
Y410236D03*
Y414173D03*
Y418110D03*
X243863Y422047D03*
X243862Y418110D03*
X243863Y425984D03*
Y433858D03*
X247799Y433857D03*
X247800Y429921D03*
Y425984D03*
X247799Y441731D03*
X243863Y445668D03*
X247900Y445700D03*
X243863Y449605D03*
X247800Y449606D03*
X243863Y453542D03*
X247799Y453543D03*
Y457479D03*
X247700Y461400D03*
X243863Y461416D03*
X247800Y465353D03*
X247799Y473227D03*
X247800Y469290D03*
X251800Y77600D03*
X256400Y366900D03*
X253100Y366700D03*
X250100D03*
X251736Y390551D03*
X255673D03*
X251736Y394488D03*
Y398425D03*
X255673D03*
Y394488D03*
X251736Y406299D03*
Y402362D03*
X255674Y406299D03*
X255673Y402362D03*
Y414173D03*
X251736Y410236D03*
Y414173D03*
X255674Y410236D03*
X255673Y418110D03*
X251736Y422047D03*
Y418110D03*
X255673Y422047D03*
X251736Y429921D03*
X255673D03*
X251736Y425984D03*
X255673D03*
X251736Y441731D03*
Y437794D03*
X255673Y441731D03*
Y437794D03*
X251736Y449605D03*
X255673Y445668D03*
X251736D03*
X255673Y449605D03*
Y453542D03*
X251736Y457479D03*
X255673D03*
X251737Y465354D03*
X251736Y461416D03*
X255673Y465353D03*
X255674Y469290D03*
X257642Y477296D03*
X259610Y390551D03*
Y398424D03*
X263547Y398425D03*
Y394487D03*
X259611Y394488D03*
X263548Y406299D03*
X263547Y402362D03*
X259610Y402361D03*
Y402362D03*
X259611Y406299D03*
X263547Y414173D03*
X259610D03*
X263548Y410236D03*
X259611D03*
X263547Y418110D03*
X259610Y422047D03*
Y418110D03*
X263547Y422047D03*
Y425984D03*
Y429921D03*
X259610Y433857D03*
Y429920D03*
X263547Y437794D03*
X259610Y441731D03*
X263547D03*
X259610Y437794D03*
Y449605D03*
X263547Y445668D03*
X259610D03*
X263547Y449605D03*
Y453542D03*
Y457479D03*
X259610Y453542D03*
Y457479D03*
X263547Y465353D03*
X259610Y461417D03*
Y465353D03*
X263548Y469291D03*
X259611Y469290D03*
X264340Y812900D03*
X266800Y77600D03*
X267484Y390551D03*
Y394488D03*
X271422D03*
X271500Y398600D03*
X267485Y398425D03*
X271422Y406299D03*
X267485Y402362D03*
X271422Y402361D03*
X271421Y410236D03*
X267485Y410235D03*
X271421Y414173D03*
X267484D03*
Y422047D03*
X271421Y418110D03*
X267484D03*
Y429921D03*
X271300Y425900D03*
Y429900D03*
X271400Y433700D03*
X267484Y425984D03*
Y441731D03*
Y437794D03*
X271421Y441731D03*
Y437794D03*
X267484Y449605D03*
X271422Y445669D03*
X267484Y445668D03*
X271421Y457480D03*
X271500Y453400D03*
X267484Y453542D03*
X271421Y461417D03*
X267600Y461400D03*
X267484Y465353D03*
X271421D03*
X267484Y469290D03*
X271421D03*
X277209Y191491D03*
X275358Y390551D03*
X281264Y390419D03*
X275359Y398425D03*
X279296D03*
X283232Y394488D03*
X279295D03*
X275359Y394487D03*
X275358Y402362D03*
X283232Y406299D03*
X279295Y402362D03*
X283232D03*
X275359Y406299D03*
X283232Y414173D03*
X279295D03*
X283232Y410236D03*
X275358Y414173D03*
Y410236D03*
X279295D03*
X275358Y418110D03*
X279295Y422047D03*
X275358D03*
X283232Y418110D03*
X279295D03*
X275358Y433858D03*
Y429921D03*
X279295Y433858D03*
X279296Y425983D03*
X283232Y425984D03*
X283233Y433857D03*
X275358Y425984D03*
X279295Y437795D03*
X283232Y437794D03*
X275359Y441732D03*
X275358Y437795D03*
X283200Y441700D03*
X279296Y441732D03*
X283300Y449600D03*
Y445600D03*
X279337Y445500D03*
X275400D03*
X279295Y449605D03*
X283100Y453500D03*
X279300Y457300D03*
X275437Y453400D03*
X275359Y457479D03*
X279295Y453542D03*
X283232Y465353D03*
X279295D03*
X275358Y461417D03*
Y465353D03*
X283232Y461416D03*
X279295D03*
X283233Y469291D03*
X275358Y469290D03*
X279295D03*
X277327Y477296D03*
X286800Y77600D03*
Y82600D03*
X287169Y390551D03*
X291106Y400393D03*
X287169Y410236D03*
X291414Y410246D03*
X291106Y420078D03*
Y439763D03*
X287169Y453542D03*
X291238Y459448D03*
X299500Y323000D03*
X299650Y400351D03*
X295400Y439551D03*
X293200Y453463D03*
X299800Y493500D03*
X297600Y495900D03*
X295600Y497800D03*
X294400Y500600D03*
X300200Y506400D03*
X297100Y503100D03*
X305987Y224738D03*
Y222263D03*
X302400Y323200D03*
X305300Y326300D03*
X302700Y326400D03*
X305150Y345750D03*
X303399Y343999D03*
X305700Y493300D03*
X302600Y491400D03*
X303500Y509400D03*
X312100Y312400D03*
X313600Y314300D03*
X309500Y314900D03*
X315000Y316600D03*
X313600Y318400D03*
X311800Y316700D03*
X310600Y498100D03*
X312900Y500500D03*
X316800Y522900D03*
X314100Y519700D03*
X314340Y812900D03*
X323150Y230390D03*
Y228420D03*
Y226450D03*
X324638Y243062D03*
Y245537D03*
X319800Y304300D03*
X323700Y308400D03*
X325600Y375400D03*
X322900Y378100D03*
X322300Y381600D03*
X325500Y384400D03*
X323400Y510000D03*
X319300Y525600D03*
X321600Y527800D03*
X324400Y529400D03*
X330680Y211050D03*
X328710Y235950D03*
X330680D03*
X332650Y236350D03*
X334363Y238567D03*
X334325Y252400D03*
X330300Y370500D03*
X328200Y372900D03*
X328600Y387400D03*
X330700Y388500D03*
X332900Y386400D03*
X330100Y517100D03*
X326700Y513700D03*
X329300Y523100D03*
X331900Y519300D03*
X326400Y526100D03*
X342500Y201850D03*
X334620Y211050D03*
X336580D03*
X342490D03*
X338550Y236450D03*
X336838Y238567D03*
X336800Y252400D03*
X341500Y359600D03*
X337900Y381800D03*
X340400Y379300D03*
X335100Y385000D03*
X348050Y218580D03*
Y216610D03*
Y220550D03*
Y230390D03*
Y228420D03*
Y222520D03*
Y224480D03*
X348500Y352500D03*
X345900Y355100D03*
X343600Y357300D03*
X350400Y369000D03*
X353000Y352200D03*
X355100Y354800D03*
X358100Y357300D03*
X356900Y362600D03*
X353300Y366200D03*
X356600Y376800D03*
X354300Y379200D03*
X352500Y380700D03*
X358700Y389100D03*
X356300Y386800D03*
X354200Y384500D03*
X360000Y361100D03*
X366600Y366400D03*
X363400Y364400D03*
X360700Y366900D03*
X362600Y370000D03*
X361500Y388900D03*
X363600Y387000D03*
X365800Y384600D03*
X363600Y443200D03*
X361300Y445700D03*
X361200Y448700D03*
X363700Y455700D03*
X361300Y452500D03*
X364240Y812900D03*
X369500Y365100D03*
X376500Y371900D03*
X374400Y369800D03*
X371800Y367300D03*
X373600Y377100D03*
X371400Y379500D03*
X375900Y375000D03*
X369200Y443200D03*
X369300Y455700D03*
X376400Y622300D03*
Y631300D03*
Y640300D03*
Y649300D03*
Y658300D03*
X377500Y443100D03*
X381200D03*
X381900Y455600D03*
X377500D03*
X386000Y444400D03*
X385900Y448700D03*
X386000Y453600D03*
X402200Y129600D03*
X410700Y130000D03*
X410400Y133700D03*
X403200Y141300D03*
X409200Y141200D03*
X410700Y137700D03*
X418823Y152823D03*
X418440Y337800D03*
X414340Y812900D03*
X420574Y154574D03*
X429787Y169297D03*
Y171772D03*
X429287Y254397D03*
Y256872D03*
X429687Y275772D03*
Y273297D03*
X435200Y359600D03*
X436300Y356300D03*
X437784Y366300D03*
X441500Y636102D03*
X437900Y652500D03*
X447400Y151200D03*
X451500Y158080D03*
X449900Y155300D03*
X447100Y155000D03*
X465900Y542289D03*
Y539730D03*
X462039Y798206D03*
X468060Y812040D03*
X478100Y151684D03*
Y161084D03*
Y154784D03*
Y157884D03*
Y170484D03*
Y167384D03*
Y164184D03*
Y173684D03*
Y255684D03*
Y261884D03*
Y258784D03*
Y265084D03*
Y268184D03*
Y271384D03*
Y274484D03*
Y277684D03*
X476784Y348800D03*
Y346300D03*
Y343800D03*
Y353800D03*
Y391300D03*
Y408800D03*
Y406300D03*
Y403800D03*
Y411300D03*
X474617Y638702D03*
Y641177D03*
X485984Y363800D03*
Y361300D03*
X485383Y542330D03*
Y544805D03*
X485187Y552567D03*
Y555042D03*
X485700Y567600D03*
Y575600D03*
Y583600D03*
Y591600D03*
Y599600D03*
Y607600D03*
Y615600D03*
Y623600D03*
X500113Y482558D03*
Y485033D03*
X499017Y490153D03*
Y487678D03*
Y507326D03*
Y509801D03*
Y517563D03*
Y520038D03*
X500245Y549925D03*
Y547450D03*
X509190Y477463D03*
Y479938D03*
X516900Y101300D03*
Y109300D03*
Y117300D03*
X520100Y207600D03*
Y215600D03*
Y223600D03*
X520917Y756485D03*
X514331Y794033D03*
X524300Y393970D03*
X523803Y413984D03*
X523800Y424000D03*
X541697Y339016D03*
Y358966D03*
X540200Y666300D03*
Y668775D03*
X547500Y207600D03*
Y215600D03*
Y223600D03*
X560600Y473100D03*
X560250Y482463D03*
Y490337D03*
X563000Y499800D03*
X557387Y494020D03*
Y496495D03*
X563000Y532639D03*
X555113Y536113D03*
Y538588D03*
X560250Y542263D03*
Y552106D03*
X560363Y550137D03*
X567750Y412000D03*
X570800Y473200D03*
Y475200D03*
X565200Y473200D03*
X570750Y483447D03*
Y481479D03*
Y489353D03*
X571900Y499600D03*
X571600Y497800D03*
X571000Y532700D03*
X570900Y535100D03*
X565389Y534389D03*
X570750Y543247D03*
X570753Y549153D03*
X571500Y557400D03*
X564300Y559800D03*
X571000Y559500D03*
X566100Y580200D03*
X575600Y406118D03*
X573803Y457384D03*
X573400Y473000D03*
X573600Y475400D03*
X573371Y477289D03*
Y479764D03*
X574588Y485163D03*
X573813Y493037D03*
X574588Y487638D03*
X574900Y497800D03*
X574600Y499900D03*
X573813Y495512D03*
X573300Y534700D03*
X573900Y532800D03*
X572500Y537125D03*
Y539600D03*
X573413Y552836D03*
X574599Y544963D03*
Y547438D03*
X574400Y557500D03*
X574900Y559800D03*
X573413Y555311D03*
X588200Y397100D03*
Y405100D03*
Y401100D03*
X591100Y396900D03*
Y400900D03*
Y404900D03*
G54D43*
X464320Y798206D03*
X468060D03*
Y808706D03*
X464320D03*
X471800Y798206D03*
Y808706D03*
X506851Y797200D03*
X510591D03*
Y807700D03*
X506851D03*
X514331Y797200D03*
Y807700D03*
G54D34*
X239800Y72550D03*
X247800D03*
X257000D03*
X265000D03*
X274300D03*
X282300D03*
X290700D03*
X298700D03*
G54D52*
X585598Y469392D03*
Y503408D03*
Y529192D03*
Y563208D03*
G54D16*
G01X234800Y102000D02*
X243603D01*
X243610Y102007D01*
G01X235100Y122000D02*
X243603D01*
X243610Y122007D01*
G01X271200Y102000D02*
X262337D01*
X262276Y101939D01*
G01X262300Y131200D02*
Y121963D01*
X262276Y121939D01*
G01X294600Y102200D02*
X286301D01*
X286276Y102225D01*
G01X286300Y130800D02*
Y122249D01*
X286276Y122225D01*
G01X316514Y73278D02*
Y82686D01*
X316500Y82700D01*
G01X336500D02*
Y73300D01*
G01X410197Y309516D02*
X410201Y309520D01*
X421900D01*
G01X441900D02*
X454180D01*
X454200Y309500D01*
X41000Y722900D03*
Y733900D03*
Y744900D03*
X71400Y773600D03*
X105600Y289500D03*
X122600Y98300D03*
X160636Y705300D03*
Y715300D03*
X170636Y705300D03*
Y715300D03*
X180636Y705300D03*
Y715300D03*
X184500Y756200D03*
X190636Y705300D03*
Y715300D03*
X200636Y705300D03*
Y715300D03*
X210636Y705300D03*
Y715300D03*
X224600Y255700D03*
X220636Y705300D03*
X232280Y812496D03*
X243610Y102007D03*
X238200Y154500D03*
X245000Y223000D03*
X262276Y101939D03*
X268200Y154500D03*
X264600Y255700D03*
X286276Y102225D03*
X298200Y154500D03*
X316500Y82700D03*
X328200Y154500D03*
X353000Y552800D03*
X356800Y155000D03*
X376500Y70100D03*
X416780Y135600D03*
X414600Y243220D03*
X414900Y459000D03*
X415200Y716200D03*
X441900Y309520D03*
X451500Y208920D03*
G54D25*
X174525Y770500D03*
Y777980D03*
X223800Y96250D03*
X218550Y102000D03*
X223800Y107750D03*
X224100Y116250D03*
Y127750D03*
X256550Y142200D03*
X262300Y147450D03*
X268050Y142200D03*
X276950Y113000D03*
X275200Y119500D03*
X302550Y130800D03*
X297300Y136550D03*
X310850Y102200D03*
X305600Y107950D03*
X431400Y142984D03*
Y161884D03*
Y180784D03*
Y246984D03*
Y265884D03*
Y284784D03*
X449600Y133784D03*
Y189884D03*
Y237784D03*
Y293884D03*
X469200Y133784D03*
Y189884D03*
Y237784D03*
Y293884D03*
X487700Y133784D03*
Y189884D03*
Y237784D03*
Y293884D03*
X484700Y437581D03*
X556600Y714700D03*
X571716Y365697D03*
Y379697D03*
X566600Y516100D03*
X570600Y714700D03*
X580600Y516100D03*
G54D53*
X589924Y384563D03*
Y417437D03*
G54D26*
X182148Y366236D03*
X191340Y375428D03*
X319289Y321302D03*
X328481Y330494D03*
G54D17*
X57950Y35100D03*
X73550D03*
X89150D03*
G54D35*
X243610Y122007D03*
X262276Y121939D03*
X286276Y122225D03*
X336500Y82700D03*
X394600Y243220D03*
X416780Y115600D03*
X421900Y309520D03*
X431500Y208920D03*
G54D44*
X508680Y394000D03*
Y404000D03*
Y414000D03*
Y424000D03*
X538680Y404000D03*
Y414000D03*
Y424000D03*
G54D54*
G01X91800Y400640D02*
X88800D01*
G01X91200Y793700D02*
X94200D01*
G01X101500Y739900D02*
X98500D01*
G01X108800Y438760D02*
Y442200D01*
G01X107500Y735900D02*
Y739900D01*
G01X122500D02*
X125500D01*
G01X131500D02*
X128500D01*
G01X138800Y438760D02*
X141800D01*
G01X150400Y137000D02*
X147150D01*
G01X146500Y746000D02*
X149600D01*
G01X146500Y740000D02*
X150000D01*
G01X154100Y130991D02*
X150409D01*
X150400Y131000D01*
G01X155100Y157400D02*
X172400Y174700D01*
X224195D01*
X261831Y212336D01*
G01X163200Y100500D02*
Y97500D01*
G01X169300Y118400D02*
X163200D01*
G01X168300Y157400D02*
X175600Y164700D01*
X318000D01*
X328200Y154500D01*
G01X169100Y764500D02*
Y761400D01*
G01Y784000D02*
Y788000D01*
G01X175800Y798600D02*
X172700D01*
G01X178800Y20000D02*
X175800D01*
G01X178800Y31000D02*
X175800D01*
G01X178800Y42000D02*
X175800D01*
G01X178800Y53000D02*
X175800D01*
G01X178800Y75000D02*
X175800D01*
G01X175300Y118400D02*
Y121500D01*
G01X175900Y132960D02*
X178860D01*
X178900Y133000D01*
G01X175600Y137500D02*
X177000Y138900D01*
X178900D01*
G01X175700Y785600D02*
Y788850D01*
G01X188300Y453801D02*
Y451500D01*
G01X198332Y451949D02*
X195982D01*
G01X192300Y453801D02*
X194501D01*
X196211Y455511D01*
X204493D01*
G01X198300Y471251D02*
X195950D01*
G01X208300Y198500D02*
X205200D01*
G01X201416Y387681D02*
X203184Y385913D01*
G01X204361Y451574D02*
X203986Y451949D01*
X202332D01*
G01X204493Y471259D02*
X202308D01*
X202300Y471251D01*
G01X206900Y769600D02*
Y772798D01*
X206831Y772867D01*
G01X210600Y776300D02*
X208517D01*
X206831Y777986D01*
G01X203600Y806300D02*
X206666D01*
X206831Y806135D01*
G01X203600Y812300D02*
Y815400D01*
G01X213187Y194799D02*
Y197387D01*
X214300Y198500D01*
G01X215746Y194799D02*
Y197054D01*
X214300Y198500D01*
G01X215746Y220437D02*
Y217946D01*
X214900Y217100D01*
G01X213187Y220437D02*
Y218813D01*
X214900Y217100D01*
G01X212900Y769600D02*
X216000D01*
G01X210000Y782200D02*
X213250D01*
G01X220864Y194799D02*
Y198064D01*
X220900Y198100D01*
G01X220864Y220437D02*
Y217136D01*
X220900Y217100D01*
G01Y224300D02*
Y220473D01*
X220864Y220437D01*
G01X216600Y776300D02*
X219700D01*
G01X217000Y785000D02*
Y781900D01*
G01Y814700D02*
Y817700D01*
G01X226900Y198100D02*
X230000D01*
G01X232400Y212700D02*
X228601D01*
X228565Y212736D01*
G01X226900Y224300D02*
X229900D01*
G01X226100Y384400D02*
Y381650D01*
G01X226146Y390551D02*
Y388446D01*
X226100Y388400D01*
G01X229171Y403438D02*
Y403418D01*
X228115Y402362D01*
G01X232400Y206700D02*
Y203600D01*
G01X237949Y479268D02*
Y477172D01*
X237957Y477164D01*
G01X237949Y483268D02*
Y485618D01*
G01X247799Y433857D02*
Y437550D01*
X246700Y438649D01*
G01X259649Y426600D02*
X256289D01*
X255673Y425984D01*
G01X263700Y198000D02*
Y194750D01*
G01X263547Y457479D02*
Y458264D01*
X264532Y459249D01*
G01X259610Y461417D02*
Y460171D01*
X260532Y459249D01*
G01D02*
Y458401D01*
X259610Y457479D01*
G01X269532Y194399D02*
Y197832D01*
X269700Y198000D01*
G01X272091Y194399D02*
Y195609D01*
X269700Y198000D01*
G01X273800Y216500D02*
X274650Y217350D01*
Y220037D01*
G01X272091D02*
Y218209D01*
X273800Y216500D01*
G01X279768Y194399D02*
Y197932D01*
X279700Y198000D01*
G01X279800Y223900D02*
Y220069D01*
X279768Y220037D01*
G01X279800Y216500D02*
Y220005D01*
X279768Y220037D01*
G01X277349Y479600D02*
X277327Y479578D01*
Y477296D01*
G01X277349Y483600D02*
Y486350D01*
G01X285700Y198000D02*
X288800D01*
G01X291300Y206400D02*
X294550D01*
G01X291300Y212400D02*
X287533D01*
X287469Y212336D01*
G01X285800Y223900D02*
X288800D01*
G01X291106Y400393D02*
X293258D01*
X293300Y400351D01*
G01X287414Y408146D02*
Y409991D01*
X287169Y410236D01*
G01X291414Y408146D02*
Y410246D01*
G01X291106Y439763D02*
Y441357D01*
X291400Y441651D01*
G01X287169Y453542D02*
Y455220D01*
X287300Y455351D01*
G01X291300D02*
X291312D01*
X293200Y453463D01*
G01X297300Y400351D02*
X299650D01*
G01X295400Y439551D02*
Y441651D01*
G01X316300Y231600D02*
X313550D01*
G01X323150Y230390D02*
X321940Y231600D01*
X320300D01*
G01X323150Y226450D02*
X320210D01*
X319758Y226902D01*
G01X324749Y238349D02*
X321999D01*
G01X326700Y233600D02*
Y236398D01*
X324749Y238349D01*
G01X330651Y208749D02*
Y211021D01*
X330680Y211050D01*
G01X328710Y235950D02*
Y238310D01*
X328749Y238349D01*
G01X330680Y235950D02*
Y233620D01*
X330700Y233600D01*
G01X334620Y211050D02*
Y208780D01*
X334651Y208749D01*
G01X348050Y218580D02*
X350522D01*
X350551Y218551D01*
G01X348050Y230390D02*
X350412D01*
X350451Y230351D01*
G01X348050Y224480D02*
X350980D01*
X351000Y224500D01*
G01X441100Y643780D02*
X437920D01*
X437900Y643800D01*
G01Y649800D02*
X439443D01*
X441100Y651457D01*
G01X437900Y649800D02*
Y652500D01*
G01X447384Y358800D02*
X449280D01*
X450600Y357480D01*
G01X450500Y386330D02*
X447414D01*
X447384Y386300D01*
G01X450600Y398780D02*
X447404D01*
X447384Y398800D01*
G01X456600Y357480D02*
X459700D01*
G01X456500Y386330D02*
X459600D01*
G01X456600Y398780D02*
X459700D01*
G01X467400Y366270D02*
X464300D01*
G01X467400Y376270D02*
X464300D01*
G01X467400Y386270D02*
X464300D01*
G01X465500Y487636D02*
X462236D01*
X462200Y487600D01*
G01Y493600D02*
Y496700D01*
G01X462000Y517500D02*
X465478D01*
X465500Y517522D01*
G01X462000Y523500D02*
Y526600D01*
G01X465250Y547408D02*
X468492D01*
X468500Y547400D01*
G01Y553400D02*
Y557300D01*
G01X468060Y798206D02*
Y794639D01*
G01X476384Y366300D02*
X473430D01*
X473400Y366270D01*
G01Y376270D02*
X476354D01*
X476384Y376300D01*
G01Y386300D02*
X473430D01*
X473400Y386270D01*
G01X471800Y798206D02*
Y792740D01*
G01Y798206D02*
Y801773D01*
G01X477800Y792740D02*
X480900D01*
G01X477500Y808751D02*
Y802840D01*
G01X471800Y808706D02*
X477455D01*
X477500Y808751D01*
G01Y814700D02*
Y808751D01*
G01X489500Y356280D02*
X486404D01*
X486384Y356300D01*
G01Y393800D02*
X489500D01*
G01X489620Y401300D02*
X486384D01*
G01X483500Y802840D02*
X486500D01*
G01X483500Y808751D02*
X486600D01*
G01X483500Y814700D02*
X486500D01*
G01X489620Y407300D02*
Y410400D01*
G01X495300Y795900D02*
X492300D01*
G01X495300Y801800D02*
X492300D01*
G01X495300Y807651D02*
X492200D01*
G01X495500Y356280D02*
Y353030D01*
G01Y393800D02*
X498500D01*
G01X500900Y789900D02*
X497800D01*
G01X501300Y801800D02*
Y795900D01*
G01Y807651D02*
Y801800D01*
G01X506851Y807700D02*
X501349D01*
X501300Y807651D01*
G01X506851Y793633D02*
Y789949D01*
X506900Y789900D01*
G01X506851Y797200D02*
Y793633D01*
G01X510591Y797200D02*
Y800909D01*
X506851Y804649D01*
Y807700D01*
G01X510591D02*
Y811267D01*
G01X524084Y763965D02*
X520517D01*
G01D02*
X516784D01*
X516735Y763916D01*
G01Y769916D02*
Y773016D01*
G01X514300Y815800D02*
Y807731D01*
X514331Y807700D01*
G01X534584Y763965D02*
X531433D01*
X527693Y760225D01*
X524084D01*
G01X528584Y770116D02*
X522684D01*
G01X534535D02*
X528584D01*
G01Y776116D02*
Y779116D01*
G01X522684Y776116D02*
Y779116D01*
G01X526300Y815800D02*
X529300D01*
G01X534584Y763965D02*
Y770067D01*
X534535Y770116D01*
G01X534584Y760225D02*
X538151D01*
G01X534535Y776116D02*
Y779216D01*
G01X548000Y577500D02*
X545000D01*
G01X543784Y744516D02*
Y741516D01*
G01X555703Y460084D02*
X552703D01*
G54D36*
X253600Y371000D03*
Y382000D03*
X262300Y131200D03*
Y142200D03*
X271200Y102000D03*
Y113000D03*
X316514Y62278D03*
Y73278D03*
X336500Y62300D03*
Y73300D03*
G54D18*
X63500Y50300D03*
X69500D03*
X94200Y87100D03*
X100200D03*
X178900Y133000D03*
Y138900D03*
X175700Y785600D03*
X181700D03*
X175800Y798600D03*
X181800D03*
X184900Y133000D03*
Y138900D03*
X206900Y769600D03*
X214300Y198500D03*
X208300D03*
X212900Y769600D03*
X210600Y776300D03*
X216600D03*
X220900Y198100D03*
X226900D03*
X240700Y438649D03*
X246700D03*
X263700Y198000D03*
X269700D03*
X279700D03*
X285700D03*
X299900Y57700D03*
X305900D03*
X313758Y226902D03*
X319758D03*
X390300Y157400D03*
X394600Y250420D03*
X388600D03*
X396300Y157400D03*
X410400Y115570D03*
X404400D03*
X423500Y115580D03*
X421900Y315930D03*
X427900D03*
X424200Y323900D03*
X429500Y115580D03*
X434700Y214580D03*
X430200Y323900D03*
X440700Y214580D03*
X451500Y152180D03*
Y158080D03*
Y164200D03*
Y170200D03*
X451800Y256380D03*
Y262330D03*
Y268180D03*
Y274130D03*
X450600Y357480D03*
X450500Y386330D03*
X450600Y398780D03*
X457500Y152180D03*
Y158080D03*
Y164200D03*
Y170200D03*
X457800Y256380D03*
Y262330D03*
Y268180D03*
Y274130D03*
X456600Y357480D03*
X456500Y386330D03*
X456600Y398780D03*
X467400Y366270D03*
Y376270D03*
Y386270D03*
X473400Y366270D03*
Y376270D03*
Y386270D03*
X479400Y437600D03*
X473400D03*
X477800Y792740D03*
X471800D03*
X477500Y808751D03*
X483500D03*
X489500Y356280D03*
X495500D03*
X489900Y437560D03*
X495900D03*
X495300Y807651D03*
X500900Y789900D03*
X501300Y807651D03*
X506900Y789900D03*
X521600Y393970D03*
X515600D03*
X538997Y339016D03*
X532997D03*
X538997Y358966D03*
X532997D03*
G54D45*
X527066Y338997D03*
Y358997D03*
G54D27*
X179655Y498743D03*
X188847Y489551D03*
X198407Y573500D03*
X207599Y564308D03*
X359668Y382143D03*
X368860Y372951D03*
G54D55*
G01X394600Y243220D02*
Y236930D01*
X394630Y236900D01*
G01X394500Y260700D02*
Y250520D01*
X394600Y250420D01*
G01D02*
Y243220D01*
G01X416750Y115570D02*
X410400D01*
G01X416780Y115600D02*
X416750Y115570D01*
G01X421900Y309520D02*
X421930Y309490D01*
Y303000D01*
G01X421900Y315930D02*
Y309520D01*
G54D46*
X524084Y756485D03*
Y763965D03*
Y760225D03*
X534584Y756485D03*
Y760225D03*
Y763965D03*
G54D28*
X188300Y453801D03*
X198600Y412249D03*
X198332Y451949D03*
X192300Y453801D03*
X198300Y471251D03*
X204500Y398349D03*
X202600Y412249D03*
X204400Y441649D03*
X202332Y451949D03*
X202300Y471251D03*
X208500Y398349D03*
X208400Y441649D03*
X212268Y469451D03*
X216200Y414151D03*
X220200D03*
X216400Y426051D03*
X220400D03*
X224032Y422049D03*
X224232Y433849D03*
X220232D03*
X220000Y441651D03*
X224000D03*
X216268Y469451D03*
X232100Y418051D03*
X229000Y426049D03*
X225000D03*
X228032Y422049D03*
X231600Y433849D03*
X232200Y457551D03*
X227400Y469651D03*
X231400D03*
X235868Y413951D03*
X239868D03*
X239700Y422049D03*
X235700D03*
X236100Y418051D03*
X239600Y425949D03*
X235600D03*
Y433849D03*
X240500Y433900D03*
X240232Y445549D03*
X236200Y457551D03*
X247400Y394749D03*
X244500Y433900D03*
X244232Y445549D03*
X251400Y394749D03*
X255632Y406749D03*
X252000Y457851D03*
X256000D03*
X259632Y406749D03*
X263500Y437851D03*
X263400Y441749D03*
X263932Y445549D03*
X259932D03*
X264532Y459249D03*
X260532D03*
X275500Y398451D03*
X272000Y402600D03*
X275300Y426049D03*
X272200Y437449D03*
X267500Y437851D03*
X267400Y441749D03*
X271200Y457551D03*
X275200D03*
X271200Y461451D03*
X275200D03*
X279500Y398451D03*
X276000Y402600D03*
X279300Y426049D03*
X279268Y433851D03*
X283268D03*
X275900Y441751D03*
X279900D03*
X276200Y437449D03*
X287414Y408146D03*
X291414D03*
X291400Y441651D03*
X287300Y455351D03*
X291300D03*
X293300Y400351D03*
X297300D03*
X295400Y441651D03*
X316300Y231600D03*
X319049Y211149D03*
X323049D03*
X319049Y207149D03*
X323049D03*
X324749Y238349D03*
X320300Y231600D03*
X328749Y238349D03*
X326700Y233600D03*
X330700D03*
X350551Y218551D03*
X350451Y230351D03*
X351000Y224500D03*
X354551Y218551D03*
X354451Y230351D03*
X355000Y224500D03*
X528500Y665600D03*
Y669500D03*
X532500Y665600D03*
Y669500D03*
G54D37*
X254300Y828100D03*
Y848100D03*
X264300Y838100D03*
X274300Y828100D03*
Y848100D03*
X304300Y828100D03*
Y848100D03*
X314300Y838100D03*
X324300Y828100D03*
Y848100D03*
X354300Y828100D03*
Y848100D03*
X364300Y838100D03*
X374300Y828100D03*
Y848100D03*
X404300Y828100D03*
Y848100D03*
X414300Y838100D03*
X424300Y828100D03*
Y848100D03*
X454300Y828100D03*
Y848100D03*
X464300Y838100D03*
X474300Y828100D03*
Y848100D03*
X504300Y828100D03*
Y848100D03*
X514300Y838100D03*
X524300Y828100D03*
Y848100D03*
X556084Y746516D03*
Y766516D03*
X566084Y756516D03*
X576084Y746516D03*
Y766516D03*
G54D19*
X65200Y802100D03*
X85200D03*
X193328Y116883D03*
X213328D03*
X379392Y334680D03*
X399392D03*
G54D56*
G01X174525Y770500D02*
X169100D01*
G01X174525Y777980D02*
X169120D01*
X169100Y778000D01*
G01X223800Y102000D02*
X218550D01*
G01X223800Y96250D02*
Y102000D01*
G01D02*
Y107750D01*
G01X224100Y116250D02*
Y122000D01*
G01D02*
Y127750D01*
G01X256550Y142200D02*
X262300D01*
G01D02*
Y147450D01*
G01Y142200D02*
X268050D01*
G01X276950Y113000D02*
X271200D01*
G01D02*
Y115500D01*
X275200Y119500D01*
G01X297300Y136550D02*
Y130800D01*
G01D02*
X302550D01*
G01X305600Y107950D02*
Y102200D01*
G01D02*
X310850D01*
G01X484700Y437581D02*
X479419D01*
X479400Y437600D01*
G01X484700Y437581D02*
X489879D01*
X489900Y437560D01*
G01X515600Y393970D02*
X508710D01*
X508680Y394000D01*
G54D29*
X191800Y785600D03*
Y798600D03*
X227000Y783700D03*
Y796700D03*
X424600Y651000D03*
Y664000D03*
X457711Y553000D03*
Y566000D03*
X525800Y441200D03*
Y454200D03*
G54D47*
X538680Y394000D03*
G54D38*
X295547Y331083D03*
X299789Y326841D03*
X326965Y300932D03*
X322723Y305174D03*
G54D57*
G01X124100Y436200D02*
Y432700D01*
G01X127800Y442136D02*
X124164D01*
X124100Y442200D01*
G01X295547Y331083D02*
X298128Y333664D01*
G01X326965Y300932D02*
X329546Y303513D01*
G01X328481Y330494D02*
X332653Y334666D01*
G54D48*
X552399Y635057D03*
Y692143D03*
G54D39*
X304570Y501287D03*
X322248Y518965D03*
G54D58*
G01X20588Y347612D02*
X21409Y348433D01*
X114036D01*
X180503Y414900D01*
X203699D01*
X206886Y418087D01*
Y420504D01*
X208429Y422047D01*
G01X20588Y350087D02*
X21392Y349283D01*
X113683D01*
X180150Y415750D01*
X203346D01*
X206036Y418440D01*
Y420503D01*
X204493Y422046D01*
G01X208429Y429920D02*
X206859Y428350D01*
X183447D01*
X114381Y359284D01*
X35949D01*
X35137Y360096D01*
G01X208430Y425984D02*
X206914Y427500D01*
X183800D01*
X114734Y358434D01*
X35950D01*
X35137Y357621D01*
G01X204493Y437794D02*
X206300Y435987D01*
Y434704D01*
X202446Y430850D01*
X177450D01*
X125883Y379283D01*
X37178D01*
X36365Y380096D01*
G01X208429Y437795D02*
X207150Y436516D01*
Y434351D01*
X202799Y430000D01*
X177803D01*
X126236Y378433D01*
X37177D01*
X36365Y377621D01*
G01X259611Y394488D02*
X261154Y392945D01*
Y335543D01*
X322588Y274109D01*
X428875D01*
X429687Y273297D01*
G01X263547Y394487D02*
X262004Y392944D01*
Y335896D01*
X322941Y274959D01*
X428874D01*
X429687Y275772D01*
G01X305987Y224738D02*
X306800Y223925D01*
X336175D01*
X389141Y170959D01*
X428974D01*
X429787Y171772D01*
G01X305987Y222263D02*
X306799Y223075D01*
X335822D01*
X388788Y170109D01*
X428975D01*
X429787Y169297D01*
G01X333600Y244200D02*
X335176Y242624D01*
Y239380D01*
X334363Y238567D01*
G01X334325Y252400D02*
X335150Y251575D01*
Y249750D01*
X333600Y248200D01*
G01X337600Y244100D02*
X336026Y242526D01*
Y239379D01*
X336838Y238567D01*
G01X336800Y252400D02*
X336000Y251600D01*
Y249700D01*
X337600Y248100D01*
G01X528500Y669500D02*
X526975Y667975D01*
X490771D01*
X469450Y646654D01*
Y641351D01*
X471287Y639514D01*
X473805D01*
X474617Y638702D01*
G01X478900Y637900D02*
X477286Y639514D01*
X475429D01*
X474617Y638702D01*
G01Y641177D02*
X473804Y640364D01*
X471640D01*
X470300Y641704D01*
Y646301D01*
X480862Y656863D01*
G02X481994I566J-565D01*
G01X482462Y656395D01*
G03X483594Y657527I566J566D01*
G01X483126Y657995D01*
G02Y659127I565J566D01*
G01X491124Y667125D01*
X526975D01*
X528500Y665600D01*
G01X478900Y641900D02*
X477364Y640364D01*
X475430D01*
X474617Y641177D01*
G01X485383Y542330D02*
X486195Y543142D01*
X486958D01*
X488500Y541600D01*
G01X485383Y544805D02*
X486196Y543992D01*
X486892D01*
X488500Y545600D01*
G01Y541600D02*
X490075Y543175D01*
X555422D01*
X560660Y537937D01*
X571688D01*
X572500Y537125D01*
G01Y539600D02*
X571687Y538787D01*
X561013D01*
X555775Y544025D01*
X490075D01*
X488500Y545600D01*
G01X573371Y477289D02*
X572559Y478101D01*
X538100D01*
X532823Y483378D01*
X504591D01*
X503016Y481803D01*
G01D02*
X501449Y483370D01*
X500925D01*
X500113Y482558D01*
G01X503016Y485803D02*
X501433Y484220D01*
X500926D01*
X500113Y485033D01*
G01X503016Y485803D02*
X504591Y484228D01*
X533176D01*
X538453Y478951D01*
X572558D01*
X573371Y479764D01*
G01X501900Y506600D02*
X503475Y508175D01*
X519922D01*
X542122Y485975D01*
X573776D01*
X574588Y485163D01*
G01X501900Y506600D02*
X500362Y508138D01*
X499829D01*
X499017Y507326D01*
G01X574588Y487638D02*
X573775Y486825D01*
X542475D01*
X520275Y509025D01*
X503475D01*
X501900Y510600D01*
G01D02*
X500288Y508988D01*
X499830D01*
X499017Y509801D01*
G01X573413Y555311D02*
X572600Y554498D01*
X568595D01*
X562747Y548650D01*
X508452D01*
X507990Y549112D01*
X501058D01*
X500245Y549925D01*
G01X573413Y552836D02*
X572601Y553648D01*
X568948D01*
X563100Y547800D01*
X508099D01*
X507637Y548262D01*
X501057D01*
X500245Y547450D01*
G01X532997Y339016D02*
X527085D01*
X527066Y338997D01*
G01X532997Y358966D02*
X527097D01*
X527066Y358997D01*
G01X532500Y665600D02*
X534025Y667125D01*
X539375D01*
X540200Y666300D01*
G01X532500Y669500D02*
X534025Y667975D01*
X539400D01*
X540200Y668775D01*
G54D49*
X564496Y469392D03*
Y503408D03*
Y529192D03*
Y563208D03*
G54D59*
G01X595600Y408600D02*
X589550D01*
G02X587800Y410350I0J1750D01*
G02X589550Y412100I1750J0D01*
G01X595600D01*
Y865966D01*
G03X593850Y867716I-1750J0D01*
G01X1750D01*
G03X0Y865966I0J-1750D01*
G01Y1750D01*
G03X1750Y0I1750J0D01*
G01X593850D01*
G03X595600Y1750I0J1750D01*
G01Y389900D01*
X589550D01*
G02X587800Y391650I0J1750D01*
G02X589550Y393400I1750J0D01*
G01X595600D01*
G01Y408600D02*
Y393400D01*
M02*
