G04 ================== begin FILE IDENTIFICATION RECORD ==================*
G04 Layout Name:  D:/MyProject/SDHCAL_DAQ/PCB&Schematic/SDHCalDIF/Allegro/SDHCalDIF.brd*
G04 Film Name:    soldtop*
G04 File Format:  Gerber RS274X*
G04 File Origin:  Cadence Allegro 16.6-S025*
G04 Origin Date:  Fri Apr 27 14:42:22 2018*
G04 *
G04 Layer:  VIA CLASS/SOLDERMASK_TOP*
G04 Layer:  PIN/SOLDERMASK_TOP*
G04 Layer:  PACKAGE GEOMETRY/SOLDERMASK_TOP*
G04 Layer:  BOARD GEOMETRY/OUTLINE*
G04 Layer:  BOARD GEOMETRY/SOLDERMASK_TOP*
G04 *
G04 Offset:    (0.00 0.00)*
G04 Mirror:    No*
G04 Mode:      Positive*
G04 Rotation:  0*
G04 FullContactRelief:  No*
G04 UndefLineWidth:     5.00*
G04 ================== end FILE IDENTIFICATION RECORD ====================*
%FSLAX25Y25*MOIN*%
%IR0*IPPOS*OFA0.00000B0.00000*MIA0B0*SFA1.00000B1.00000*%
%AMMACRO41*
21,1,.03,.03,0.0,0.0,135.*%
%ADD41MACRO41*%
%ADD18R,.09X.1*%
%ADD48R,.11X.028*%
%ADD10R,.1102X.0512*%
%ADD20R,.07X.135*%
%ADD31C,.022*%
%ADD47C,.05*%
%ADD57C,.06*%
%ADD36C,.07*%
%ADD53C,.08*%
%ADD67R,.11024X.05118*%
%ADD58O,.13228X.06142*%
%ADD37R,.07X.07*%
%ADD16C,.068*%
%ADD54R,.08X.08*%
%ADD52C,.078*%
%ADD49R,.09X.09*%
%ADD12C,.0709*%
%ADD64O,.10866X.06142*%
%ADD13R,.0335X.0335*%
%ADD69R,.08268X.12205*%
%ADD38C,.02992*%
%ADD35R,.078X.078*%
%ADD27R,.09055X.09055*%
%ADD56R,.03X.03*%
%ADD42R,.03X.03*%
%ADD50R,.08X.02*%
%ADD19C,.1*%
%ADD62R,.06X.05*%
%ADD39C,.11*%
%ADD29R,.043X.04*%
%ADD22R,.024X.05*%
%ADD23R,.04X.043*%
%ADD17C,.12*%
%ADD15R,.05X.06*%
%ADD61R,.035X.015*%
%ADD44R,.012X.038*%
%ADD43R,.038X.012*%
%ADD14R,.04X.038*%
%ADD24R,.038X.04*%
%ADD55R,.08X.09*%
%ADD51R,.062X.018*%
%ADD21R,.12X.12*%
%ADD63R,.0315X.04331*%
%ADD60R,.09X.04331*%
%ADD46R,.028X.046*%
%ADD45R,.14X.14*%
%ADD28R,.046X.028*%
%ADD66R,.06102X.02362*%
%ADD11C,.176*%
%ADD65O,.04921X.04134*%
%AMMACRO40*
21,1,.073,.069,0.0,0.0,45.*%
%ADD40MACRO40*%
%ADD33R,.11811X.11811*%
%ADD34R,.01378X.04134*%
%ADD30R,.04134X.01378*%
%ADD68O,.08661X.05906*%
%ADD32R,.04528X.0189*%
%ADD25R,.01654X.04488*%
%ADD26R,.04488X.01654*%
%ADD59R,.09646X.01496*%
%ADD70C,.005*%
G75*
%LPD*%
G75*
G54D10*
X5840Y75871D03*
Y289845D03*
Y326871D03*
Y540845D03*
Y577871D03*
Y791845D03*
X27100Y75871D03*
Y289845D03*
Y326871D03*
Y540845D03*
Y577871D03*
Y791845D03*
G54D11*
X17487Y17487D03*
X17484Y308358D03*
X17487Y559358D03*
Y850229D03*
X578113Y17487D03*
Y347100D03*
Y606700D03*
Y850229D03*
G54D20*
X86496Y60066D03*
X104496D03*
G54D30*
X206494Y202500D03*
Y205059D03*
Y207618D03*
Y210177D03*
Y212736D03*
X224998Y202500D03*
Y212736D03*
Y210177D03*
Y207618D03*
Y205059D03*
X265398Y202100D03*
Y204659D03*
Y207218D03*
Y209777D03*
Y212336D03*
X283902Y204659D03*
Y202100D03*
Y212336D03*
Y209777D03*
Y207218D03*
G54D21*
X104750Y35100D03*
G54D12*
X16726Y76658D03*
Y289058D03*
Y327658D03*
Y540058D03*
Y578658D03*
Y791058D03*
G54D40*
X307177Y320749D03*
X318067Y309859D03*
X314248Y327820D03*
X321319Y334891D03*
X325138Y316930D03*
X332209Y324001D03*
G54D22*
X97800Y400136D03*
X102800D03*
Y437936D03*
X97800D03*
X107800Y400136D03*
X112800D03*
Y437936D03*
X107800D03*
X117800Y400136D03*
Y437936D03*
X122800Y400136D03*
X127800D03*
Y437936D03*
X122800D03*
X132800Y400136D03*
Y437936D03*
G54D13*
X29600Y85358D03*
X24600D03*
X29600Y95358D03*
Y90358D03*
X24600Y95358D03*
Y90358D03*
X29600Y100358D03*
X24600D03*
X29600Y110358D03*
Y105358D03*
X24600Y110358D03*
Y105358D03*
X29600Y120358D03*
Y115358D03*
X24600Y120358D03*
Y115358D03*
X29600Y125358D03*
X24600D03*
X29600Y135358D03*
Y130358D03*
X24600Y135358D03*
Y130358D03*
X29600Y145358D03*
Y140358D03*
X24600Y145358D03*
Y140358D03*
X29600Y150358D03*
X24600D03*
X29600Y160358D03*
Y155358D03*
X24600Y160358D03*
Y155358D03*
X29600Y170358D03*
Y165358D03*
X24600Y170358D03*
Y165358D03*
X29600Y180358D03*
Y175358D03*
X24600Y180358D03*
Y175358D03*
X29600Y185358D03*
X24600D03*
X29600Y195358D03*
Y190358D03*
X24600Y195358D03*
Y190358D03*
X29600Y205358D03*
Y200358D03*
X24600Y205358D03*
Y200358D03*
X29600Y210358D03*
X24600D03*
X29600Y220358D03*
Y215358D03*
X24600Y220358D03*
Y215358D03*
X29600Y230358D03*
Y225358D03*
X24600Y230358D03*
Y225358D03*
X29600Y235358D03*
X24600D03*
X29600Y245358D03*
Y240358D03*
X24600Y245358D03*
Y240358D03*
X29600Y255358D03*
Y250358D03*
X24600Y255358D03*
Y250358D03*
X29600Y265358D03*
Y260358D03*
X24600Y265358D03*
Y260358D03*
X29600Y270358D03*
X24600D03*
X29600Y280358D03*
Y275358D03*
X24600Y280358D03*
Y275358D03*
X29600Y341358D03*
Y336358D03*
X24600Y341358D03*
Y336358D03*
X29600Y346358D03*
X24600D03*
X29600Y356358D03*
Y351358D03*
X24600Y356358D03*
Y351358D03*
X29600Y366358D03*
Y361358D03*
X24600Y366358D03*
Y361358D03*
X29600Y371358D03*
X24600D03*
X29600Y381358D03*
Y376358D03*
X24600Y381358D03*
Y376358D03*
X29600Y391358D03*
Y386358D03*
X24600Y391358D03*
Y386358D03*
X29600Y396358D03*
X24600D03*
X29600Y406358D03*
Y401358D03*
X24600Y406358D03*
Y401358D03*
X29600Y416358D03*
Y411358D03*
X24600Y416358D03*
Y411358D03*
X29600Y426358D03*
Y421358D03*
X24600Y426358D03*
Y421358D03*
X29600Y431358D03*
X24600D03*
X29600Y441358D03*
Y436358D03*
X24600Y441358D03*
Y436358D03*
X29600Y451358D03*
Y446358D03*
X24600Y451358D03*
Y446358D03*
X29600Y456358D03*
X24600D03*
X29600Y466358D03*
Y461358D03*
X24600Y466358D03*
Y461358D03*
X29600Y476358D03*
Y471358D03*
X24600Y476358D03*
Y471358D03*
X29600Y481358D03*
X24600D03*
X29600Y491358D03*
Y486358D03*
X24600Y491358D03*
Y486358D03*
X29600Y501358D03*
Y496358D03*
X24600Y501358D03*
Y496358D03*
X29600Y511358D03*
Y506358D03*
X24600Y511358D03*
Y506358D03*
X29600Y516358D03*
X24600D03*
X29600Y526358D03*
Y521358D03*
X24600Y526358D03*
Y521358D03*
X29600Y531358D03*
X24600D03*
X29600Y587358D03*
X24600D03*
X29600Y592358D03*
X24600D03*
X29600Y602358D03*
Y597358D03*
X24600Y602358D03*
Y597358D03*
X29600Y612358D03*
Y607358D03*
X24600Y612358D03*
Y607358D03*
X29600Y617358D03*
X24600D03*
X29600Y627358D03*
Y622358D03*
X24600Y627358D03*
Y622358D03*
X29600Y637358D03*
Y632358D03*
X24600Y637358D03*
Y632358D03*
X29600Y642358D03*
X24600D03*
X29600Y652358D03*
Y647358D03*
X24600Y652358D03*
Y647358D03*
X29600Y662358D03*
Y657358D03*
X24600Y662358D03*
Y657358D03*
X29600Y672358D03*
Y667358D03*
X24600Y672358D03*
Y667358D03*
X29600Y677358D03*
X24600D03*
X29600Y687358D03*
Y682358D03*
X24600Y687358D03*
Y682358D03*
X29600Y697358D03*
Y692358D03*
X24600Y697358D03*
Y692358D03*
X29600Y702358D03*
X24600D03*
X29600Y712358D03*
Y707358D03*
X24600Y712358D03*
Y707358D03*
X29600Y722358D03*
Y717358D03*
X24600Y722358D03*
Y717358D03*
X29600Y727358D03*
X24600D03*
X29600Y737358D03*
Y732358D03*
X24600Y737358D03*
Y732358D03*
X29600Y747358D03*
Y742358D03*
X24600Y747358D03*
Y742358D03*
X29600Y757358D03*
Y752358D03*
X24600Y757358D03*
Y752358D03*
X29600Y762358D03*
X24600D03*
X29600Y772358D03*
Y767358D03*
X24600Y772358D03*
Y767358D03*
X29600Y782358D03*
Y777358D03*
X24600Y782358D03*
Y777358D03*
G54D31*
X206461Y392519D03*
Y396456D03*
Y400393D03*
Y404330D03*
Y408267D03*
Y412204D03*
Y416141D03*
Y420078D03*
Y424015D03*
Y427952D03*
Y431889D03*
Y435826D03*
Y439763D03*
Y443700D03*
Y447637D03*
Y451574D03*
Y455511D03*
Y459448D03*
Y463385D03*
Y467322D03*
Y471259D03*
Y475196D03*
X214335Y392519D03*
X210398D03*
X214335Y396456D03*
X210398D03*
X214335Y400393D03*
X210398D03*
X214335Y404330D03*
X210398D03*
X214335Y408267D03*
X210398D03*
X214335Y412204D03*
X210398D03*
X214335Y416141D03*
X210398D03*
X214335Y420078D03*
X210398D03*
X214335Y424015D03*
X210398D03*
X214335Y427952D03*
X210398D03*
X214335Y431889D03*
X210398D03*
X214335Y435826D03*
X210398D03*
X214335Y439763D03*
X210398D03*
X214335Y443700D03*
X210398D03*
X214335Y447637D03*
X210398D03*
X214335Y451574D03*
X210398D03*
X214335Y455511D03*
X210398D03*
X214335Y459448D03*
X210398D03*
X214335Y463385D03*
X210398D03*
X214335Y467322D03*
X210398D03*
X214335Y471259D03*
X210398D03*
X214335Y475196D03*
X210398D03*
X222209Y392519D03*
X218272D03*
X222209Y396456D03*
X218272D03*
X222209Y400393D03*
X218272D03*
X222209Y404330D03*
X218272D03*
X222209Y408267D03*
X218272D03*
X222209Y412204D03*
X218272D03*
X222209Y416141D03*
X218272D03*
X222209Y420078D03*
X218272D03*
X222209Y424015D03*
X218272D03*
X222209Y427952D03*
X218272D03*
X222209Y431889D03*
X218272D03*
X222209Y435826D03*
X218272D03*
X222209Y439763D03*
X218272D03*
X222209Y443700D03*
X218272D03*
X222209Y447637D03*
X218272D03*
X222209Y451574D03*
X218272D03*
X222209Y455511D03*
X218272D03*
X222209Y459448D03*
X218272D03*
X222209Y463385D03*
X218272D03*
X222209Y467322D03*
X218272D03*
X222209Y471259D03*
X218272D03*
X222209Y475196D03*
X218272D03*
X230083Y392519D03*
X226146D03*
X230083Y396456D03*
X226146D03*
X230083Y400393D03*
X226146D03*
X230083Y404330D03*
X226146D03*
X230083Y408267D03*
X226146D03*
X230083Y412204D03*
X226146D03*
X230083Y416141D03*
X226146D03*
X230083Y420078D03*
X226146D03*
X230083Y424015D03*
X226146D03*
X230083Y427952D03*
X226146D03*
X230083Y431889D03*
X226146D03*
X230083Y435826D03*
X226146D03*
X230083Y439763D03*
X226146D03*
X230083Y443700D03*
X226146D03*
X230083Y447637D03*
X226146D03*
X230083Y451574D03*
X226146D03*
X230083Y455511D03*
X226146D03*
X230083Y459448D03*
X226146D03*
X230083Y463385D03*
X226146D03*
X230083Y467322D03*
X226146D03*
X230083Y471259D03*
X226146D03*
X230083Y475196D03*
X226146D03*
X237957Y392519D03*
X234020D03*
X237957Y396456D03*
X234020D03*
X237957Y400393D03*
X234020D03*
X237957Y404330D03*
X234020D03*
X237957Y408267D03*
X234020D03*
X237957Y412204D03*
X234020D03*
X237957Y416141D03*
X234020D03*
X237957Y420078D03*
X234020D03*
X237957Y424015D03*
X234020D03*
X237957Y427952D03*
X234020D03*
X237957Y431889D03*
X234020D03*
X237957Y435826D03*
X234020D03*
X237957Y439763D03*
X234020D03*
X237957Y443700D03*
X234020D03*
X237957Y447637D03*
X234020D03*
X237957Y451574D03*
X234020D03*
X237957Y455511D03*
X234020D03*
X237957Y459448D03*
X234020D03*
X237957Y463385D03*
X234020D03*
X237957Y467322D03*
X234020D03*
X237957Y471259D03*
X234020D03*
X237957Y475196D03*
X234020D03*
X245831Y392519D03*
X241894D03*
X245831Y396456D03*
X241894D03*
X245831Y400393D03*
X241894D03*
X245831Y404330D03*
X241894D03*
X245831Y408267D03*
X241894D03*
X245831Y412204D03*
X241894D03*
X245831Y416141D03*
X241894D03*
X245831Y420078D03*
X241894D03*
X245831Y424015D03*
X241894D03*
X245831Y427952D03*
X241894D03*
X245831Y431889D03*
X241894D03*
X245831Y435826D03*
X241894D03*
X245831Y439763D03*
X241894D03*
X245831Y443700D03*
X241894D03*
X245831Y447637D03*
X241894D03*
X245831Y451574D03*
X241894D03*
X245831Y455511D03*
X241894D03*
X245831Y459448D03*
X241894D03*
X245831Y463385D03*
X241894D03*
X245831Y467322D03*
X241894D03*
X245831Y471259D03*
X241894D03*
X245831Y475196D03*
X241894D03*
X257642Y392519D03*
X253705D03*
X249768D03*
X257642Y396456D03*
X253705D03*
X249768D03*
X257642Y400393D03*
X253705D03*
X249768D03*
X257642Y404330D03*
X253705D03*
X249768D03*
X257642Y408267D03*
X253705D03*
X249768D03*
X257642Y412204D03*
X253705D03*
X249768D03*
X257642Y416141D03*
X253705D03*
X249768D03*
X257642Y420078D03*
X253705D03*
X249768D03*
X257642Y424015D03*
X253705D03*
X249768D03*
X257642Y427952D03*
X253705D03*
X249768D03*
X257642Y431889D03*
X253705D03*
X249768D03*
X257642Y435826D03*
X253705D03*
X249768D03*
X257642Y439763D03*
X253705D03*
X249768D03*
X257642Y443700D03*
X253705D03*
X249768D03*
X257642Y447637D03*
X253705D03*
X249768D03*
X257642Y451574D03*
X253705D03*
X249768D03*
X257642Y455511D03*
X253705D03*
X249768D03*
X257642Y459448D03*
X253705D03*
X249768D03*
X257642Y463385D03*
X253705D03*
X249768D03*
X257642Y467322D03*
X253705D03*
X249768D03*
X257642Y471259D03*
X253705D03*
X249768D03*
X257642Y475196D03*
X253705D03*
X249768D03*
X265516Y392519D03*
X261579D03*
X265516Y396456D03*
X261579D03*
X265516Y400393D03*
X261579D03*
X265516Y404330D03*
X261579D03*
X265516Y408267D03*
X261579D03*
X265516Y412204D03*
X261579D03*
X265516Y416141D03*
X261579D03*
X265516Y420078D03*
X261579D03*
X265516Y424015D03*
X261579D03*
X265516Y427952D03*
X261579D03*
X265516Y431889D03*
X261579D03*
X265516Y435826D03*
X261579D03*
X265516Y439763D03*
X261579D03*
X265516Y443700D03*
X261579D03*
X265516Y447637D03*
X261579D03*
X265516Y451574D03*
X261579D03*
X265516Y455511D03*
X261579D03*
X265516Y459448D03*
X261579D03*
X265516Y463385D03*
X261579D03*
X265516Y467322D03*
X261579D03*
X265516Y471259D03*
X261579D03*
X265516Y475196D03*
X261579D03*
X273390Y392519D03*
X269453D03*
X273390Y396456D03*
X269453D03*
X273390Y400393D03*
X269453D03*
X273390Y404330D03*
X269453D03*
X273390Y408267D03*
X269453D03*
X273390Y412204D03*
X269453D03*
X273390Y416141D03*
X269453D03*
X273390Y420078D03*
X269453D03*
X273390Y424015D03*
X269453D03*
X273390Y427952D03*
X269453D03*
X273390Y431889D03*
X269453D03*
X273390Y435826D03*
X269453D03*
X273390Y439763D03*
X269453D03*
X273390Y443700D03*
X269453D03*
X273390Y447637D03*
X269453D03*
X273390Y451574D03*
X269453D03*
X273390Y455511D03*
X269453D03*
X273390Y459448D03*
X269453D03*
X273390Y463385D03*
X269453D03*
X273390Y467322D03*
X269453D03*
X273390Y471259D03*
X269453D03*
X273390Y475196D03*
X269453D03*
X281264Y392519D03*
X277327D03*
X281264Y396456D03*
X277327D03*
X281264Y400393D03*
X277327D03*
X281264Y404330D03*
X277327D03*
X281264Y408267D03*
X277327D03*
X281264Y412204D03*
X277327D03*
X281264Y416141D03*
X277327D03*
X281264Y420078D03*
X277327D03*
X281264Y424015D03*
X277327D03*
X281264Y427952D03*
X277327D03*
X281264Y431889D03*
X277327D03*
X281264Y435826D03*
X277327D03*
X281264Y439763D03*
X277327D03*
X281264Y443700D03*
X277327D03*
X281264Y447637D03*
X277327D03*
X281264Y451574D03*
X277327D03*
X281264Y455511D03*
X277327D03*
X281264Y459448D03*
X277327D03*
X281264Y463385D03*
X277327D03*
X281264Y467322D03*
X277327D03*
X281264Y471259D03*
X277327D03*
X281264Y475196D03*
X277327D03*
X289138Y392519D03*
X285201D03*
X289138Y396456D03*
X285201D03*
X289138Y400393D03*
X285201D03*
X289138Y404330D03*
X285201D03*
X289138Y408267D03*
X285201D03*
X289138Y412204D03*
X285201D03*
X289138Y416141D03*
X285201D03*
X289138Y420078D03*
X285201D03*
X289138Y424015D03*
X285201D03*
X289138Y427952D03*
X285201D03*
X289138Y431889D03*
X285201D03*
X289138Y435826D03*
X285201D03*
X289138Y439763D03*
X285201D03*
X289138Y443700D03*
X285201D03*
X289138Y447637D03*
X285201D03*
X289138Y451574D03*
X285201D03*
X289138Y455511D03*
X285201D03*
X289138Y459448D03*
X285201D03*
X289138Y463385D03*
X285201D03*
X289138Y467322D03*
X285201D03*
X289138Y471259D03*
X285201D03*
X289138Y475196D03*
X285201D03*
G54D32*
X203264Y772867D03*
Y780545D03*
Y777986D03*
Y775426D03*
Y788222D03*
Y785663D03*
Y783104D03*
Y798458D03*
Y795899D03*
Y793340D03*
Y790781D03*
Y806135D03*
Y803576D03*
Y801017D03*
X231414Y772867D03*
Y775426D03*
Y777986D03*
Y780545D03*
Y783104D03*
Y785663D03*
Y788222D03*
Y790781D03*
Y793340D03*
Y795899D03*
Y798458D03*
Y801017D03*
Y803576D03*
Y806135D03*
G54D14*
X38454Y450300D03*
Y456300D03*
X155100Y154800D03*
Y148800D03*
X159800Y112400D03*
Y118400D03*
X161900Y148800D03*
Y154800D03*
X166500Y112400D03*
Y118400D03*
X168300Y154800D03*
Y148800D03*
X190100Y783100D03*
Y777100D03*
X468029Y801684D03*
Y807684D03*
X509200Y658500D03*
Y664500D03*
Y688500D03*
Y682500D03*
X515200Y658500D03*
Y664500D03*
Y688500D03*
Y682500D03*
X571716Y375697D03*
Y369697D03*
G54D23*
X138054Y71066D03*
X144054D03*
X178900Y128900D03*
Y134900D03*
X184900Y128900D03*
Y134900D03*
X336550Y207150D03*
X342550D03*
G54D50*
X442384Y348800D03*
Y346300D03*
Y343800D03*
Y356300D03*
Y353800D03*
Y351300D03*
Y366300D03*
Y363800D03*
Y361300D03*
Y358800D03*
Y373800D03*
Y371300D03*
Y368800D03*
Y381300D03*
Y378800D03*
Y376300D03*
Y391300D03*
Y388800D03*
Y386300D03*
Y383800D03*
Y398800D03*
Y396300D03*
Y393800D03*
Y408800D03*
Y406300D03*
Y403800D03*
Y401300D03*
Y411300D03*
X481384Y343800D03*
Y346300D03*
Y348800D03*
Y351300D03*
Y353800D03*
Y356300D03*
Y358800D03*
Y361300D03*
Y363800D03*
Y366300D03*
Y368800D03*
Y371300D03*
Y373800D03*
Y376300D03*
Y378800D03*
Y381300D03*
Y383800D03*
Y386300D03*
Y388800D03*
Y391300D03*
Y393800D03*
Y396300D03*
Y398800D03*
Y401300D03*
Y403800D03*
Y406300D03*
Y408800D03*
Y411300D03*
G54D41*
X307186Y339114D03*
X310014Y336286D03*
X309986Y342014D03*
X312814Y339186D03*
G54D33*
X215746Y207618D03*
X274650Y207218D03*
G54D60*
X564496Y469392D03*
Y503408D03*
Y529192D03*
Y563208D03*
G54D51*
X445400Y633543D03*
Y636102D03*
Y638661D03*
Y641220D03*
Y643780D03*
Y646339D03*
Y648898D03*
Y651457D03*
X469800Y477399D03*
Y479958D03*
Y482517D03*
Y485076D03*
Y487636D03*
Y490195D03*
Y492754D03*
Y495313D03*
Y507285D03*
Y509844D03*
Y512403D03*
Y514962D03*
Y517522D03*
Y520081D03*
Y522640D03*
Y525199D03*
Y537171D03*
Y539730D03*
Y542289D03*
Y544848D03*
Y547408D03*
Y549967D03*
Y552526D03*
Y555085D03*
X467800Y636102D03*
Y633543D03*
Y646339D03*
Y643780D03*
Y641220D03*
Y638661D03*
Y651457D03*
Y648898D03*
X492200Y485076D03*
Y482517D03*
Y479958D03*
Y477399D03*
Y492754D03*
Y490195D03*
Y487636D03*
Y495313D03*
Y509844D03*
Y507285D03*
Y517522D03*
Y514962D03*
Y512403D03*
Y525199D03*
Y522640D03*
Y520081D03*
Y542289D03*
Y539730D03*
Y537171D03*
Y552526D03*
Y549967D03*
Y547408D03*
Y544848D03*
Y555085D03*
G54D24*
X147900Y118359D03*
X145986Y141250D03*
X153900Y118359D03*
X151986Y141250D03*
X172400Y112400D03*
X172414Y118350D03*
X178800Y64000D03*
Y86000D03*
X178400Y112400D03*
X178414Y118350D03*
X178300Y783100D03*
X184800Y64000D03*
Y86000D03*
X184300Y783100D03*
X401200Y595300D03*
X395200D03*
X401200Y604300D03*
X395200D03*
X401200Y613300D03*
X395200D03*
X401200Y622300D03*
X395200D03*
X401200Y631300D03*
X395200D03*
X401200Y640300D03*
X395200D03*
X401200Y649300D03*
X395200D03*
X401200Y658300D03*
X395200D03*
X443600Y437600D03*
X449600D03*
X476200Y567600D03*
Y575600D03*
Y583600D03*
Y591600D03*
Y599600D03*
Y607600D03*
Y615600D03*
Y623600D03*
X482200Y567600D03*
Y575600D03*
Y583600D03*
Y591600D03*
Y599600D03*
Y607600D03*
Y615600D03*
Y623600D03*
X489200Y567600D03*
X495200D03*
X489200Y575600D03*
X495200D03*
X489200Y583600D03*
X495200D03*
X489200Y591600D03*
X495200D03*
X489200Y599600D03*
X495200D03*
X489200Y607600D03*
X495200D03*
X489200Y615600D03*
X495200D03*
X489200Y623600D03*
X495200D03*
X509200Y670500D03*
Y676500D03*
X515200Y670500D03*
Y676500D03*
X535800Y101300D03*
Y109300D03*
Y117300D03*
X538900Y207600D03*
Y215600D03*
Y223600D03*
X541800Y101300D03*
Y109300D03*
Y117300D03*
X544900Y207600D03*
Y215600D03*
Y223600D03*
X560600Y714700D03*
X570600Y516100D03*
X566600Y714700D03*
X576600Y516100D03*
G54D15*
X45000Y450266D03*
X54000D03*
X107500Y739900D03*
X116500D03*
X137500D03*
X146500D03*
X191300Y20000D03*
Y31000D03*
Y42000D03*
Y53000D03*
Y64000D03*
Y75000D03*
Y86000D03*
X200300Y20000D03*
Y31000D03*
Y42000D03*
Y53000D03*
Y64000D03*
Y75000D03*
Y86000D03*
X342550Y196700D03*
X351550D03*
X379500Y595300D03*
Y604300D03*
Y613300D03*
Y622300D03*
Y631300D03*
Y640300D03*
Y649300D03*
Y658300D03*
X388500Y595300D03*
Y604300D03*
Y613300D03*
Y622300D03*
Y631300D03*
Y640300D03*
Y649300D03*
Y658300D03*
X520000Y101300D03*
Y109300D03*
Y117300D03*
X529000Y101300D03*
Y109300D03*
Y117300D03*
X523200Y207600D03*
Y215600D03*
Y223600D03*
X532200Y207600D03*
Y215600D03*
Y223600D03*
X564800Y453670D03*
X557100Y584770D03*
X566100D03*
X573800Y453670D03*
G54D42*
X316250Y221500D03*
X312250D03*
X316250Y225500D03*
X312250D03*
X316300Y228400D03*
X320300D03*
X329850Y246250D03*
X333850D03*
X329850Y242350D03*
X333850D03*
X350950Y222500D03*
X354950D03*
X478400Y643100D03*
Y647100D03*
X482400Y643100D03*
Y647100D03*
X528500Y659700D03*
Y663600D03*
X532500Y659700D03*
Y663600D03*
G54D70*
G01X595600Y408600D02*
X589550D01*
G02X587800Y410350I0J1750D01*
G02X589550Y412100I1750J0D01*
G01X595600D01*
Y865966D01*
G03X593850Y867716I-1750J0D01*
G01X1750D01*
G03X0Y865966I0J-1750D01*
G01Y1750D01*
G03X1750Y0I1750J0D01*
G01X593850D01*
G03X595600Y1750I0J1750D01*
G01Y389900D01*
X589550D01*
G02X587800Y391650I0J1750D01*
G02X589550Y393400I1750J0D01*
G01X595600D01*
G01Y408600D02*
Y393400D01*
G54D25*
X161191Y125480D03*
X163159D03*
Y140440D03*
X161191D03*
X165128Y125480D03*
X167096D03*
X169065D03*
Y140440D03*
X167096D03*
X165128D03*
G54D34*
X213187Y198366D03*
X210628D03*
Y216870D03*
X213187D03*
X220864Y198366D03*
X218305D03*
X215746D03*
Y216870D03*
X218305D03*
X220864D03*
X274650Y197966D03*
X272091D03*
X269532D03*
Y216470D03*
X272091D03*
X274650D03*
X279768Y197966D03*
X277209D03*
Y216470D03*
X279768D03*
G54D43*
X325950Y220550D03*
Y218580D03*
Y216610D03*
Y228420D03*
Y226450D03*
Y224480D03*
Y222520D03*
Y230390D03*
X345250Y216610D03*
Y218580D03*
Y220550D03*
Y222520D03*
Y224480D03*
Y226450D03*
Y228420D03*
Y230390D03*
G54D61*
X563000Y474589D03*
Y476558D03*
Y478526D03*
Y480494D03*
Y482463D03*
Y484432D03*
Y488368D03*
Y490337D03*
Y492306D03*
Y494274D03*
Y496242D03*
Y498211D03*
Y534389D03*
Y536358D03*
Y538326D03*
Y540294D03*
Y542263D03*
Y544232D03*
Y548168D03*
Y550137D03*
Y552106D03*
Y554074D03*
Y556042D03*
Y558011D03*
X568000Y483447D03*
Y481479D03*
Y479510D03*
Y477542D03*
Y493290D03*
Y491321D03*
Y489353D03*
Y487384D03*
Y485416D03*
Y495258D03*
Y543247D03*
Y541279D03*
Y539310D03*
Y537342D03*
Y551121D03*
Y549153D03*
Y547184D03*
Y545216D03*
Y555058D03*
Y553090D03*
G54D52*
X451000Y105400D03*
X463000D03*
X475000D03*
X498200Y317600D03*
X510200D03*
X522200D03*
X556100Y373000D03*
G54D16*
X41000Y722900D03*
Y733900D03*
Y744900D03*
X71400Y773600D03*
X105600Y289500D03*
X122600Y98300D03*
X160636Y705300D03*
Y715300D03*
X170636Y705300D03*
Y715300D03*
X180636Y705300D03*
Y715300D03*
X184500Y756200D03*
X190636Y705300D03*
Y715300D03*
X200636Y705300D03*
Y715300D03*
X210636Y705300D03*
Y715300D03*
X224600Y255700D03*
X220636Y705300D03*
X232280Y812496D03*
X238200Y154500D03*
X245000Y223000D03*
X268200Y154500D03*
X264600Y255700D03*
X298200Y154500D03*
X328200D03*
X353000Y552800D03*
X356800Y155000D03*
X376500Y70100D03*
X414900Y459000D03*
X415200Y716200D03*
G54D26*
X157648Y136897D03*
Y134928D03*
Y132960D03*
Y130991D03*
Y129023D03*
X172608D03*
Y130991D03*
Y132960D03*
Y134928D03*
Y136897D03*
G54D44*
X328710Y213850D03*
X330680D03*
X332650D03*
Y233150D03*
X330680D03*
X328710D03*
X334620Y213850D03*
X336580D03*
X338550D03*
X340520D03*
X342490D03*
Y233150D03*
X340520D03*
X338550D03*
X336580D03*
X334620D03*
G54D17*
X57950Y35100D03*
X73550D03*
X89150D03*
G54D62*
X571200Y424900D03*
Y433900D03*
G54D35*
X220636Y715300D03*
X451000Y115400D03*
X463000D03*
X475000D03*
X498200Y307600D03*
X510200D03*
X522200D03*
X556100Y363000D03*
G54D53*
X455900Y142984D03*
Y180784D03*
Y246984D03*
Y284784D03*
G54D45*
X335600Y223500D03*
G54D63*
X568000Y474195D03*
Y498605D03*
Y533995D03*
Y558405D03*
G54D27*
X165128Y132960D03*
G54D54*
X459400Y133784D03*
Y237784D03*
G54D36*
X243610Y102007D03*
X262276Y101939D03*
X286276Y102225D03*
X316500Y82700D03*
X416780Y135600D03*
X414600Y243220D03*
X441900Y309520D03*
X451500Y208920D03*
X508680Y394000D03*
Y404000D03*
Y414000D03*
Y424000D03*
X538680Y404000D03*
Y414000D03*
Y424000D03*
G54D18*
X60346Y60050D03*
X73346D03*
X132654Y60250D03*
X145654D03*
G54D28*
X160594Y774240D03*
X169925Y770500D03*
Y777980D03*
G54D46*
X410960Y323900D03*
Y334600D03*
X418440Y323900D03*
X414700Y334600D03*
X418440D03*
G54D55*
X458700Y437581D03*
Y454121D03*
X478700Y437581D03*
Y454121D03*
G54D19*
X65200Y802100D03*
X85200D03*
X193328Y116883D03*
X213328D03*
X379392Y334680D03*
X399392D03*
G54D64*
X575864Y635057D03*
Y692143D03*
G54D37*
X243610Y122007D03*
X262276Y121939D03*
X286276Y122225D03*
X336500Y82700D03*
X394600Y243220D03*
X416780Y115600D03*
X421900Y309520D03*
X431500Y208920D03*
X538680Y394000D03*
G54D65*
X578113Y392240D03*
Y409760D03*
G54D29*
X195900Y783100D03*
Y777100D03*
G54D56*
X477900Y632800D03*
Y636800D03*
X503000Y476700D03*
Y480700D03*
X502300Y515700D03*
Y511700D03*
X499700Y536500D03*
Y540500D03*
G54D38*
X249300Y55100D03*
X244300D03*
X249300Y60100D03*
X244300D03*
X249300Y65100D03*
X244300D03*
X249300Y70100D03*
X244300D03*
X249300Y75100D03*
X244300D03*
X249300Y80100D03*
X244300D03*
X249300Y85100D03*
X244300D03*
X254300Y55100D03*
Y60100D03*
Y65100D03*
Y70100D03*
Y75100D03*
Y80100D03*
Y85100D03*
X264300Y55100D03*
X259300D03*
X264300Y60100D03*
X259300D03*
X264300Y65100D03*
X259300D03*
X264300Y70100D03*
X259300D03*
X264300Y75100D03*
X259300D03*
X264300Y80100D03*
X259300D03*
X264300Y85100D03*
X259300D03*
X274300Y55100D03*
X269300D03*
X274300Y60100D03*
X269300D03*
X274300Y65100D03*
X269300D03*
X274300Y70100D03*
X269300D03*
X274300Y75100D03*
X269300D03*
X274300Y80100D03*
X269300D03*
X274300Y85100D03*
X269300D03*
X279300Y55100D03*
Y60100D03*
Y65100D03*
Y70100D03*
Y75100D03*
Y80100D03*
Y85100D03*
X289300Y55100D03*
X284300D03*
X289300Y60100D03*
X284300D03*
X289300Y65100D03*
X284300D03*
X289300Y70100D03*
X284300D03*
X289300Y75100D03*
X284300D03*
X289300Y80100D03*
X284300D03*
X289300Y85100D03*
X284300D03*
X294300Y55100D03*
Y60100D03*
Y65100D03*
Y70100D03*
Y75100D03*
Y80100D03*
Y85100D03*
G54D47*
X431400Y142984D03*
Y161884D03*
Y180784D03*
Y246984D03*
Y265884D03*
Y284784D03*
X449600Y133784D03*
Y189884D03*
Y237784D03*
Y293884D03*
X469200Y133784D03*
Y189884D03*
Y237784D03*
Y293884D03*
X487700Y133784D03*
Y189884D03*
Y237784D03*
Y293884D03*
G54D66*
X579393Y395882D03*
Y398441D03*
Y401000D03*
Y403559D03*
Y406118D03*
G54D39*
X254300Y828100D03*
Y848100D03*
X264300Y838100D03*
X274300Y828100D03*
Y848100D03*
X304300Y828100D03*
Y848100D03*
X314300Y838100D03*
X324300Y828100D03*
Y848100D03*
X354300Y828100D03*
Y848100D03*
X364300Y838100D03*
X374300Y828100D03*
Y848100D03*
X404300Y828100D03*
Y848100D03*
X414300Y838100D03*
X424300Y828100D03*
Y848100D03*
X454300Y828100D03*
Y848100D03*
X464300Y838100D03*
X474300Y828100D03*
Y848100D03*
X504300Y828100D03*
Y848100D03*
X514300Y838100D03*
X524300Y828100D03*
Y848100D03*
X556084Y746516D03*
Y766516D03*
X566084Y756516D03*
X576084Y746516D03*
Y766516D03*
G54D57*
X527066Y338997D03*
Y358997D03*
G54D48*
X439700Y153184D03*
Y150084D03*
Y146884D03*
Y162684D03*
Y159484D03*
Y156384D03*
Y168984D03*
Y165784D03*
Y175284D03*
Y172084D03*
Y254084D03*
Y250884D03*
Y263484D03*
Y260384D03*
Y257184D03*
Y272984D03*
Y269784D03*
Y266684D03*
Y279284D03*
Y276084D03*
X472000Y148484D03*
Y151684D03*
Y154784D03*
Y157884D03*
Y161084D03*
Y164184D03*
Y167384D03*
Y170484D03*
Y173684D03*
Y176784D03*
Y252484D03*
Y255684D03*
Y258784D03*
Y261884D03*
Y265084D03*
Y268184D03*
Y271384D03*
Y274484D03*
Y277684D03*
Y280784D03*
G54D49*
X439700Y189884D03*
Y293884D03*
X479100Y189884D03*
Y293884D03*
X498800Y133784D03*
Y156184D03*
Y177384D03*
Y237784D03*
Y260184D03*
Y281384D03*
X516500Y189884D03*
Y293884D03*
X536200Y133784D03*
Y237784D03*
X555900Y189884D03*
Y293884D03*
X575500Y133784D03*
Y237784D03*
X575900Y167584D03*
Y271584D03*
G54D58*
X552399Y635057D03*
Y692143D03*
G54D67*
X585598Y469392D03*
Y503408D03*
Y529192D03*
Y563208D03*
G54D59*
X549407Y645884D03*
Y647852D03*
Y649820D03*
Y651789D03*
Y653758D03*
Y655726D03*
Y657694D03*
Y659663D03*
Y661632D03*
Y663600D03*
Y665568D03*
Y667537D03*
Y669506D03*
Y671474D03*
Y673442D03*
Y675411D03*
Y677380D03*
Y679348D03*
Y681316D03*
G54D68*
X589924Y384563D03*
Y417437D03*
G54D69*
Y401000D03*
M02*
