G04 ================== begin FILE IDENTIFICATION RECORD ==================*
G04 Layout Name:  D:/MyProject/SDHCAL_DAQ/PCB&Schematic/SDHCalDIF/Allegro/SDHCalDIF.brd*
G04 Film Name:    soldbottom*
G04 File Format:  Gerber RS274X*
G04 File Origin:  Cadence Allegro 16.6-S025*
G04 Origin Date:  Fri Apr 27 14:42:22 2018*
G04 *
G04 Layer:  VIA CLASS/SOLDERMASK_BOTTOM*
G04 Layer:  PIN/SOLDERMASK_BOTTOM*
G04 Layer:  PACKAGE GEOMETRY/SOLDERMASK_BOTTOM*
G04 Layer:  BOARD GEOMETRY/OUTLINE*
G04 Layer:  BOARD GEOMETRY/SOLDERMASK_BOTTOM*
G04 *
G04 Offset:    (0.00 0.00)*
G04 Mirror:    Yes*
G04 Mode:      Positive*
G04 Rotation:  0*
G04 FullContactRelief:  No*
G04 UndefLineWidth:     5.00*
G04 ================== end FILE IDENTIFICATION RECORD ====================*
%FSLAX25Y25*MOIN*%
%IR0*IPPOS*OFA0.00000B0.00000*MIA1B0*SFA1.00000B1.00000*%
%AMMACRO37*
21,1,.14,.105,0.0,0.0,135.*%
%ADD37MACRO37*%
%ADD25R,.1X.09*%
%AMMACRO22*
21,1,.09,.1,0.0,0.0,45.*%
%ADD22MACRO22*%
%AMMACRO35*
21,1,.04,.043,0.0,0.0,135.*%
%ADD35MACRO35*%
%ADD17R,.09X.1*%
%ADD18R,.135X.07*%
%ADD38C,.05*%
%ADD44C,.06*%
%ADD31C,.07*%
%ADD41C,.08*%
%ADD50R,.11024X.05118*%
%ADD46O,.13228X.06142*%
%ADD32R,.07X.07*%
%ADD13C,.068*%
%ADD40C,.078*%
%ADD39R,.09X.09*%
%ADD11C,.0709*%
%ADD48O,.10866X.06142*%
%ADD42R,.085X.085*%
%ADD29R,.078X.078*%
%AMMACRO23*
21,1,.09,.1,0.0,0.0,135.*%
%ADD23MACRO23*%
%AMMACRO36*
21,1,.14,.105,0.0,0.0,45.*%
%ADD36MACRO36*%
%ADD28R,.03X.03*%
%AMMACRO26*
21,1,.03,.03,0.0,0.0,45.*%
%ADD26MACRO26*%
%ADD24R,.03X.03*%
%ADD16C,.1*%
%ADD34C,.11*%
%ADD20R,.043X.04*%
%ADD15R,.04X.043*%
%ADD14C,.12*%
%ADD21R,.04X.038*%
%ADD12R,.038X.04*%
%ADD19R,.12X.12*%
%ADD47R,.09X.04331*%
%ADD30R,.048X.053*%
%ADD33R,.075X.065*%
%ADD10C,.176*%
%ADD27R,.065X.075*%
%ADD49O,.04921X.04134*%
%ADD51O,.08661X.05906*%
%ADD43R,.02913X.04685*%
%ADD45R,.04685X.02913*%
%ADD52C,.005*%
G75*
%LPD*%
G75*
G54D10*
X17487Y17487D03*
X17484Y308358D03*
X17487Y559358D03*
Y850229D03*
X578113Y17487D03*
Y347100D03*
Y606700D03*
Y850229D03*
G54D20*
X124100Y442200D03*
Y436200D03*
X150400Y131000D03*
Y137000D03*
X169100Y764500D03*
Y770500D03*
Y778000D03*
Y784000D03*
X203400Y788700D03*
Y794700D03*
X203600Y806300D03*
Y812300D03*
X210000Y782200D03*
Y788200D03*
X211000Y796800D03*
Y802800D03*
X217000Y791000D03*
Y785000D03*
X232400Y212700D03*
Y206700D03*
X239700Y43300D03*
Y49300D03*
X247551Y409432D03*
Y403432D03*
X256600Y31300D03*
Y37300D03*
X286500Y30900D03*
Y36900D03*
X291300Y212400D03*
Y206400D03*
X394630Y230900D03*
Y236900D03*
X421930Y297000D03*
Y303000D03*
X431730Y196500D03*
Y202500D03*
X437900Y643800D03*
Y649800D03*
X462200Y487600D03*
Y493600D03*
X462000Y517500D03*
Y523500D03*
X468500Y547400D03*
Y553400D03*
X489620Y401300D03*
Y407300D03*
X516735Y763916D03*
Y769916D03*
X534535Y770116D03*
Y776116D03*
X564900Y418000D03*
Y412000D03*
G54D11*
X16726Y76658D03*
Y289058D03*
Y327658D03*
Y540058D03*
Y578658D03*
Y791058D03*
G54D30*
X239800Y72550D03*
X247800D03*
X257000D03*
X265000D03*
X274300D03*
X282300D03*
X290700D03*
X298700D03*
G54D12*
X13500Y235334D03*
X19500D03*
X13000Y486334D03*
X19000D03*
X85200Y793700D03*
X91800Y400640D03*
X91200Y793700D03*
X97800Y400640D03*
X102800Y438760D03*
X101500Y739900D03*
X108800Y438760D03*
X107500Y739900D03*
X116500D03*
X122500D03*
X131500D03*
X132800Y438760D03*
X138800D03*
X137500Y739900D03*
X151600Y124000D03*
X157600D03*
X165300Y139700D03*
X169300Y118400D03*
X171300Y139700D03*
X178800Y20000D03*
Y31000D03*
Y42000D03*
Y53000D03*
Y75000D03*
X175300Y118400D03*
X184800Y20000D03*
Y31000D03*
Y42000D03*
Y53000D03*
Y75000D03*
X214900Y217100D03*
X220900D03*
Y224300D03*
X226900D03*
X273800Y216500D03*
X279800D03*
Y223900D03*
X285800D03*
X477500Y802840D03*
Y814700D03*
X481900Y148584D03*
X487900D03*
X481900Y154784D03*
X487900D03*
X481900Y161084D03*
X487900D03*
X481900Y166984D03*
X487900D03*
X481900Y173284D03*
X487900D03*
X481600Y253284D03*
X487600D03*
X481600Y259184D03*
X487600D03*
X481600Y265084D03*
X487600D03*
X481600Y270984D03*
X487600D03*
X481600Y276884D03*
X487600D03*
X483500Y802840D03*
Y814700D03*
X495500Y393800D03*
X489500D03*
X495300Y795900D03*
Y801800D03*
X501300Y795900D03*
Y801800D03*
Y815800D03*
X507300D03*
X515203Y413984D03*
X521203D03*
X515200Y424000D03*
X521200D03*
X520300Y815800D03*
X526300D03*
X543784Y756516D03*
X553000Y406100D03*
X555703Y460084D03*
X548000Y577500D03*
X554000D03*
X549784Y756516D03*
X559000Y406100D03*
X561703Y460084D03*
X560100Y577500D03*
X570900Y406100D03*
X564900D03*
X567803Y460084D03*
X566100Y577500D03*
X573803Y460084D03*
G54D21*
X148000Y112300D03*
Y118300D03*
X146500Y740000D03*
Y746000D03*
X152400Y154800D03*
Y148800D03*
X163200Y100500D03*
Y106500D03*
Y112400D03*
Y118400D03*
X165100Y148800D03*
Y154800D03*
X158600Y148800D03*
Y154800D03*
X171500Y148700D03*
Y154700D03*
X180651Y692800D03*
Y698800D03*
X190651Y692800D03*
Y698800D03*
X193198Y124803D03*
Y130803D03*
X200651Y692800D03*
Y698800D03*
X210651Y692800D03*
Y698800D03*
X217000Y796800D03*
Y802800D03*
Y808700D03*
Y814700D03*
X245700Y43300D03*
Y49300D03*
X251600Y43300D03*
Y49300D03*
X261800Y43300D03*
Y49300D03*
X264340Y815500D03*
Y821500D03*
X275800Y43300D03*
X267700D03*
X275800Y49300D03*
X267700D03*
X271800Y56800D03*
Y62800D03*
X281700Y43300D03*
Y49300D03*
X290598Y43329D03*
Y49329D03*
X296500Y43300D03*
Y49300D03*
X302500Y43300D03*
Y49300D03*
X314340Y815500D03*
Y821500D03*
X364240Y815500D03*
Y821500D03*
X414340Y815500D03*
Y821500D03*
X445000Y115403D03*
Y121403D03*
X469000Y115403D03*
Y121403D03*
X464300Y815400D03*
Y821400D03*
X481000Y115403D03*
Y121403D03*
X492100Y307597D03*
Y301597D03*
X504100Y307597D03*
Y301597D03*
X514300Y815800D03*
Y821800D03*
X528200Y307597D03*
Y301597D03*
X522684Y770116D03*
X528584D03*
X522684Y776116D03*
X528584D03*
X532100Y388000D03*
Y394000D03*
X543784Y744516D03*
Y750516D03*
Y762416D03*
Y768416D03*
G54D40*
X451000Y105400D03*
X463000D03*
X475000D03*
X498200Y317600D03*
X510200D03*
X522200D03*
X556100Y373000D03*
G54D13*
X41000Y722900D03*
Y733900D03*
Y744900D03*
X71400Y773600D03*
X105600Y289500D03*
X122600Y98300D03*
X160636Y705300D03*
Y715300D03*
X170636Y705300D03*
Y715300D03*
X180636Y705300D03*
Y715300D03*
X184500Y756200D03*
X190636Y705300D03*
Y715300D03*
X200636Y705300D03*
Y715300D03*
X210636Y705300D03*
Y715300D03*
X224600Y255700D03*
X220636Y705300D03*
X232280Y812496D03*
X238200Y154500D03*
X245000Y223000D03*
X268200Y154500D03*
X264600Y255700D03*
X298200Y154500D03*
X328200D03*
X353000Y552800D03*
X356800Y155000D03*
X376500Y70100D03*
X414900Y459000D03*
X415200Y716200D03*
G54D31*
X243610Y102007D03*
X262276Y101939D03*
X286276Y102225D03*
X316500Y82700D03*
X416780Y135600D03*
X414600Y243220D03*
X441900Y309520D03*
X451500Y208920D03*
X508680Y394000D03*
Y404000D03*
Y414000D03*
Y424000D03*
X538680Y404000D03*
Y414000D03*
Y424000D03*
G54D22*
X182148Y366236D03*
X191340Y375428D03*
X319289Y321302D03*
X328481Y330494D03*
G54D14*
X57950Y35100D03*
X73550D03*
X89150D03*
G54D23*
X179655Y498743D03*
X188847Y489551D03*
X198407Y573500D03*
X207599Y564308D03*
X359668Y382143D03*
X368860Y372951D03*
G54D32*
X243610Y122007D03*
X262276Y121939D03*
X286276Y122225D03*
X336500Y82700D03*
X394600Y243220D03*
X416780Y115600D03*
X421900Y309520D03*
X431500Y208920D03*
X538680Y394000D03*
G54D50*
X585598Y469392D03*
Y503408D03*
Y529192D03*
Y563208D03*
G54D41*
X455900Y142984D03*
Y180784D03*
Y246984D03*
Y284784D03*
G54D51*
X589924Y384563D03*
Y417437D03*
G54D33*
X253600Y371000D03*
Y382000D03*
X262300Y131200D03*
Y142200D03*
X271200Y102000D03*
Y113000D03*
X316514Y62278D03*
Y73278D03*
X336500Y62300D03*
Y73300D03*
G54D15*
X63500Y50300D03*
X69500D03*
X94200Y87100D03*
X100200D03*
X178900Y133000D03*
Y138900D03*
X175700Y785600D03*
X181700D03*
X175800Y798600D03*
X181800D03*
X184900Y133000D03*
Y138900D03*
X206900Y769600D03*
X214300Y198500D03*
X208300D03*
X212900Y769600D03*
X210600Y776300D03*
X216600D03*
X220900Y198100D03*
X226900D03*
X240700Y438649D03*
X246700D03*
X263700Y198000D03*
X269700D03*
X279700D03*
X285700D03*
X299900Y57700D03*
X305900D03*
X313758Y226902D03*
X319758D03*
X390300Y157400D03*
X394600Y250420D03*
X388600D03*
X396300Y157400D03*
X410400Y115570D03*
X404400D03*
X423500Y115580D03*
X421900Y315930D03*
X427900D03*
X424200Y323900D03*
X429500Y115580D03*
X434700Y214580D03*
X430200Y323900D03*
X440700Y214580D03*
X451500Y152180D03*
Y158080D03*
Y164200D03*
Y170200D03*
X451800Y256380D03*
Y262330D03*
Y268180D03*
Y274130D03*
X450600Y357480D03*
X450500Y386330D03*
X450600Y398780D03*
X457500Y152180D03*
Y158080D03*
Y164200D03*
Y170200D03*
X457800Y256380D03*
Y262330D03*
Y268180D03*
Y274130D03*
X456600Y357480D03*
X456500Y386330D03*
X456600Y398780D03*
X467400Y366270D03*
Y376270D03*
Y386270D03*
X473400Y366270D03*
Y376270D03*
Y386270D03*
X479400Y437600D03*
X473400D03*
X477800Y792740D03*
X471800D03*
X477500Y808751D03*
X483500D03*
X489500Y356280D03*
X495500D03*
X489900Y437560D03*
X495900D03*
X495300Y807651D03*
X500900Y789900D03*
X501300Y807651D03*
X506900Y789900D03*
X521600Y393970D03*
X515600D03*
X538997Y339016D03*
X532997D03*
X538997Y358966D03*
X532997D03*
G54D24*
X188300Y453801D03*
X198600Y412249D03*
X198332Y451949D03*
X192300Y453801D03*
X198300Y471251D03*
X204500Y398349D03*
X202600Y412249D03*
X204400Y441649D03*
X202332Y451949D03*
X202300Y471251D03*
X208500Y398349D03*
X208400Y441649D03*
X212268Y469451D03*
X216200Y414151D03*
X220200D03*
X216400Y426051D03*
X220400D03*
X224032Y422049D03*
X224232Y433849D03*
X220232D03*
X220000Y441651D03*
X224000D03*
X216268Y469451D03*
X232100Y418051D03*
X229000Y426049D03*
X225000D03*
X228032Y422049D03*
X231600Y433849D03*
X232200Y457551D03*
X227400Y469651D03*
X231400D03*
X235868Y413951D03*
X239868D03*
X239700Y422049D03*
X235700D03*
X236100Y418051D03*
X239600Y425949D03*
X235600D03*
Y433849D03*
X240500Y433900D03*
X240232Y445549D03*
X236200Y457551D03*
X247400Y394749D03*
X244500Y433900D03*
X244232Y445549D03*
X251400Y394749D03*
X255632Y406749D03*
X252000Y457851D03*
X256000D03*
X259632Y406749D03*
X263500Y437851D03*
X263400Y441749D03*
X263932Y445549D03*
X259932D03*
X264532Y459249D03*
X260532D03*
X275500Y398451D03*
X272000Y402600D03*
X275300Y426049D03*
X272200Y437449D03*
X267500Y437851D03*
X267400Y441749D03*
X271200Y457551D03*
X275200D03*
X271200Y461451D03*
X275200D03*
X279500Y398451D03*
X276000Y402600D03*
X279300Y426049D03*
X279268Y433851D03*
X283268D03*
X275900Y441751D03*
X279900D03*
X276200Y437449D03*
X287414Y408146D03*
X291414D03*
X291400Y441651D03*
X287300Y455351D03*
X291300D03*
X293300Y400351D03*
X297300D03*
X295400Y441651D03*
X316300Y231600D03*
X319049Y211149D03*
X323049D03*
X319049Y207149D03*
X323049D03*
X324749Y238349D03*
X320300Y231600D03*
X328749Y238349D03*
X326700Y233600D03*
X330700D03*
X350551Y218551D03*
X350451Y230351D03*
X351000Y224500D03*
X354551Y218551D03*
X354451Y230351D03*
X355000Y224500D03*
X528500Y665600D03*
Y669500D03*
X532500Y665600D03*
Y669500D03*
G54D42*
X459400Y133784D03*
Y237784D03*
G54D52*
G01X595600Y408600D02*
X589550D01*
G02X587800Y410350I0J1750D01*
G02X589550Y412100I1750J0D01*
G01X595600D01*
Y865966D01*
G03X593850Y867716I-1750J0D01*
G01X1750D01*
G03X0Y865966I0J-1750D01*
G01Y1750D01*
G03X1750Y0I1750J0D01*
G01X593850D01*
G03X595600Y1750I0J1750D01*
G01Y389900D01*
X589550D01*
G02X587800Y391650I0J1750D01*
G02X589550Y393400I1750J0D01*
G01X595600D01*
G01Y408600D02*
Y393400D01*
G54D43*
X464320Y798206D03*
X468060D03*
Y808706D03*
X464320D03*
X471800Y798206D03*
Y808706D03*
X506851Y797200D03*
X510591D03*
Y807700D03*
X506851D03*
X514331Y797200D03*
Y807700D03*
G54D34*
X254300Y828100D03*
Y848100D03*
X264300Y838100D03*
X274300Y828100D03*
Y848100D03*
X304300Y828100D03*
Y848100D03*
X314300Y838100D03*
X324300Y828100D03*
Y848100D03*
X354300Y828100D03*
Y848100D03*
X364300Y838100D03*
X374300Y828100D03*
Y848100D03*
X404300Y828100D03*
Y848100D03*
X414300Y838100D03*
X424300Y828100D03*
Y848100D03*
X454300Y828100D03*
Y848100D03*
X464300Y838100D03*
X474300Y828100D03*
Y848100D03*
X504300Y828100D03*
Y848100D03*
X514300Y838100D03*
X524300Y828100D03*
Y848100D03*
X556084Y746516D03*
Y766516D03*
X566084Y756516D03*
X576084Y746516D03*
Y766516D03*
G54D16*
X65200Y802100D03*
X85200D03*
X193328Y116883D03*
X213328D03*
X379392Y334680D03*
X399392D03*
G54D25*
X191800Y785600D03*
Y798600D03*
X227000Y783700D03*
Y796700D03*
X424600Y651000D03*
Y664000D03*
X457711Y553000D03*
Y566000D03*
X525800Y441200D03*
Y454200D03*
G54D26*
X198588Y384853D03*
X201416Y387681D03*
X231999Y406266D03*
X229171Y403438D03*
G54D44*
X527066Y338997D03*
Y358997D03*
G54D17*
X67400Y89400D03*
X80400D03*
X103200Y420000D03*
X116200D03*
X120700Y130500D03*
X133700D03*
X172600Y814600D03*
X177800Y437700D03*
X190800D03*
X185600Y814600D03*
X209200Y237350D03*
X222200D03*
X268700Y235650D03*
X281700D03*
X367000Y449351D03*
X380000D03*
X381500Y260700D03*
X390997Y135616D03*
X394500Y260700D03*
X397197Y309516D03*
X403797Y104316D03*
X403997Y135616D03*
X406897Y208916D03*
X410197Y309516D03*
X416797Y104316D03*
X419897Y208916D03*
X414600Y232700D03*
X427600D03*
X433700Y522711D03*
X446700D03*
X454200Y309500D03*
X452600Y421750D03*
X462800Y208900D03*
X457000Y331850D03*
X467200Y309500D03*
X470000Y331850D03*
X465600Y421750D03*
X475800Y208900D03*
X481000Y421700D03*
X476900Y468089D03*
X489900D03*
X494000Y421700D03*
G54D35*
X295547Y331083D03*
X299789Y326841D03*
X326965Y300932D03*
X322723Y305174D03*
G54D45*
X524084Y756485D03*
Y763965D03*
Y760225D03*
X534584Y756485D03*
Y760225D03*
Y763965D03*
G54D27*
X223800Y102000D03*
X224100Y122000D03*
X234800Y102000D03*
X235100Y122000D03*
X286300Y130800D03*
X294600Y102200D03*
X297300Y130800D03*
X305600Y102200D03*
G54D36*
X304570Y501287D03*
X322248Y518965D03*
G54D18*
X80500Y59000D03*
Y77000D03*
G54D19*
X104750Y35100D03*
G54D28*
X224149Y406500D03*
Y410500D03*
Y445800D03*
Y449800D03*
X216351Y449600D03*
Y453600D03*
X226100Y388400D03*
Y384400D03*
X232151Y441500D03*
Y445500D03*
X240149Y397800D03*
Y401800D03*
X236049Y442000D03*
Y446000D03*
X239951Y465100D03*
Y461100D03*
X237949Y479268D03*
Y483268D03*
X247751Y414732D03*
X243951Y426200D03*
Y422200D03*
X247851Y425732D03*
X247751Y418732D03*
X247851Y429732D03*
X243851Y449900D03*
X247951Y449800D03*
X243851Y453900D03*
X247951Y453800D03*
X255551Y398700D03*
Y402700D03*
X255649Y417600D03*
X251763Y417811D03*
X255649Y421600D03*
X251651Y426000D03*
X251763Y421811D03*
X251651Y430000D03*
X255749Y426600D03*
Y430600D03*
X255651Y441000D03*
X251651Y441200D03*
Y437200D03*
X251751Y450100D03*
Y446100D03*
X255651Y445000D03*
X255700Y449600D03*
Y453600D03*
X251700Y465900D03*
Y461900D03*
X263549Y398468D03*
Y402468D03*
X259551Y417600D03*
X263449D03*
X259551Y421600D03*
X263449D03*
X259649Y426600D03*
Y430600D03*
X263500Y426600D03*
Y430600D03*
X259549Y450000D03*
X263551Y449832D03*
X259549Y454000D03*
X263551Y453832D03*
X263651Y465100D03*
Y469100D03*
X267551Y398300D03*
Y402300D03*
X271351Y414232D03*
X267451Y417532D03*
X271351Y418232D03*
X267451Y421532D03*
X267551Y430500D03*
Y426500D03*
X271551Y441700D03*
Y445700D03*
X267549Y449800D03*
Y453800D03*
X283349Y465868D03*
Y469868D03*
X277349Y479600D03*
Y483600D03*
X334651Y204749D03*
X330651D03*
X334651Y208749D03*
X330651D03*
X333600Y248200D03*
Y244200D03*
X342500Y204200D03*
Y208200D03*
X337600Y248100D03*
Y244100D03*
X478900Y637900D03*
Y641900D03*
X488500Y541600D03*
Y545600D03*
X503016Y485803D03*
Y481803D03*
X501900Y506600D03*
Y510600D03*
G54D46*
X552399Y635057D03*
Y692143D03*
G54D37*
X331750Y378574D03*
X349428Y360896D03*
G54D47*
X564496Y469392D03*
Y503408D03*
Y529192D03*
Y563208D03*
G54D29*
X220636Y715300D03*
X451000Y115400D03*
X463000D03*
X475000D03*
X498200Y307600D03*
X510200D03*
X522200D03*
X556100Y363000D03*
G54D38*
X431400Y142984D03*
Y161884D03*
Y180784D03*
Y246984D03*
Y265884D03*
Y284784D03*
X449600Y133784D03*
Y189884D03*
Y237784D03*
Y293884D03*
X469200Y133784D03*
Y189884D03*
Y237784D03*
Y293884D03*
X487700Y133784D03*
Y189884D03*
Y237784D03*
Y293884D03*
G54D48*
X575864Y635057D03*
Y692143D03*
G54D39*
X439700Y189884D03*
Y293884D03*
X479100Y189884D03*
Y293884D03*
X498800Y133784D03*
Y156184D03*
Y177384D03*
Y237784D03*
Y260184D03*
Y281384D03*
X516500Y189884D03*
Y293884D03*
X536200Y133784D03*
Y237784D03*
X555900Y189884D03*
Y293884D03*
X575500Y133784D03*
Y237784D03*
X575900Y167584D03*
Y271584D03*
G54D49*
X578113Y392240D03*
Y409760D03*
M02*
